<svg width="46" height="45" viewBox="0 0 46 45" fill="none" xmlns="http://www.w3.org/2000/svg">
<rect x="1.5" y="1" width="43" height="43" stroke="#00B0E8" stroke-width="2"/>
<path d="M16.1089 27.4849H19.0729V29.8599H16.1089V27.4849ZM19.0729 18.1179V20.2839H16.1089V18.1179H19.0729ZM19.0729 25.0149H16.1089V22.7539H19.0729V25.0149ZM8.85094 22.9059C9.13594 22.5639 9.40194 22.2029 9.68694 21.8229C9.85794 22.1459 10.0099 22.4879 10.1619 22.8489L8.85094 22.9059ZM21.8659 29.8599V15.6479H13.4489V29.8599H12.2329L13.1069 29.5369C12.8789 28.5679 12.3849 27.1049 11.9099 25.9649L10.2189 26.5159V25.0529L10.9599 24.9959C11.0549 25.3379 11.1309 25.6609 11.1879 25.9459L13.2589 24.9959C13.0309 23.8749 12.3089 22.2029 11.5679 20.9109L9.80094 21.6899C10.6939 20.4929 11.5679 19.2009 12.3469 18.0229L10.0289 17.0729C9.61094 17.9659 9.04094 18.9919 8.43294 19.9989C8.31894 19.8469 8.16694 19.6759 8.03394 19.5049C8.69894 18.4409 9.47794 16.9589 10.1999 15.6099L7.76794 14.7739C7.48294 15.7429 7.00794 16.9399 6.53294 17.9659L6.15294 17.6429L4.87994 19.5619C5.63994 20.3029 6.49494 21.2719 7.04594 22.1079C6.81794 22.4119 6.60894 22.7159 6.38094 23.0009L4.87994 23.0579L5.10794 25.4329L7.78694 25.2429V26.4969L5.56394 26.0979C5.44994 27.6749 5.18394 29.3849 4.68994 30.4869C5.25994 30.6959 6.28594 31.1709 6.76094 31.4749C7.23594 30.3539 7.61594 28.6059 7.78694 26.9149V32.8049H10.2189V27.5609C10.5419 28.5299 10.8459 29.5749 10.9789 30.3159L11.8339 30.0119V32.3299H23.0439V29.8599H21.8659Z" fill="#00B0E8"/>
<path d="M41.1699 17.8519H34.4249V14.7549H31.5179V17.8519H24.9059V20.5689H41.1699V17.8519ZM31.7079 28.1879C31.4799 26.2309 30.7959 23.3999 29.9409 21.1389L27.2999 21.8419C28.0599 24.0649 28.7249 27.0479 28.8579 28.9669L31.7079 28.1879ZM36.6669 29.3469C37.4269 27.2379 38.2629 24.4259 38.8709 21.6519L35.6979 21.1009C35.3559 23.7799 34.5579 27.1049 33.7409 29.3469H24.2979V32.1209H41.7589V29.3469H36.6669Z" fill="#00B0E8"/>
</svg>
