<svg width="42" height="1612" viewBox="0 0 42 1612" fill="none" xmlns="http://www.w3.org/2000/svg">
<path d="M17.6 23.9199C16.42 23.9199 15.56 23.8999 15.56 23.3199C15.56 22.7599 16.28 22.7399 17.88 22.7399L20.8 22.7399C22.4 22.7399 23.12 22.7599 23.12 23.3199C23.12 23.8999 22.26 23.9199 21.08 23.9199L20.9 23.9199L20.9 25.7999L21 25.7999C22.5 25.7999 23.54 25.6399 24.2 25.0599C24.64 24.6599 24.88 24.0999 24.88 23.3199C24.88 22.5399 24.64 21.9799 24.2 21.5799C23.46 20.9399 22.22 20.7799 20.38 20.7799L18.3 20.7799C16.46 20.7799 15.22 20.9399 14.48 21.5799C14.04 21.9799 13.8 22.5399 13.8 23.3199C13.8 24.0999 14.04 24.6599 14.48 25.0599C15.18 25.6599 16.26 25.8199 17.84 25.8199L17.9 25.8199L17.9 23.9199L17.6 23.9199ZM28.3 28.663L26.84 28.683L15.46 28.683L14 28.663L14 30.663L15.46 30.643L26.84 30.643L28.3 30.663L28.3 28.663ZM24.68 33.749L23.22 33.769L15.46 33.769L14 33.749L14 35.749L15.46 35.729L23.22 35.729L24.68 35.749L24.68 33.749ZM26.34 33.769L26.34 35.729L28.3 35.729L28.3 33.769L26.34 33.769ZM22.3 43.8349C22.64 44.0749 22.88 44.3549 22.88 44.5749C22.88 44.8149 22.7 44.8949 22.2 44.8949L15.46 44.8949L14 44.8749L14 46.8749L15.46 46.8549L22.96 46.8549C24.06 46.8549 24.84 46.4949 24.84 45.5349C24.84 44.9149 24.34 44.3749 23.48 43.7549L23.48 43.7349C24.32 43.6349 24.84 43.2549 24.84 42.5149C24.84 41.8949 24.34 41.3549 23.48 40.7349L23.48 40.7149L24.68 40.7149L24.68 38.8349L23.22 38.8549L15.46 38.8549L14 38.8349L14 40.8349L15.46 40.8149L22.3 40.8149C22.64 41.0549 22.88 41.3349 22.88 41.5549C22.88 41.7949 22.7 41.8749 22.2 41.8749L15.46 41.8749L14 41.8549L14 43.8549L15.46 43.8349L22.3 43.8349ZM26.84 49.937L15.46 49.937L14 49.917L14 51.817L14.98 51.817L14.98 51.897C14.26 52.417 13.84 52.877 13.84 53.417C13.84 54.897 15.5 54.997 17.64 54.997L20.82 54.997C23.22 54.997 24.84 54.897 24.84 53.397C24.84 52.897 24.52 52.457 23.82 51.897L26.84 51.897L28.3 51.917L28.3 49.917L26.84 49.937ZM22.98 52.497C22.98 53.017 22.3 53.037 21.28 53.037L17.26 53.037C16.34 53.037 15.74 53.017 15.74 52.537C15.74 52.337 15.86 52.137 16.18 51.897L22.6 51.897C22.84 52.137 22.98 52.317 22.98 52.497ZM22.98 61.1327L22.98 62.0527L16.36 62.0527C14.64 62.0527 13.9 62.7327 13.9 64.1327C13.9 64.5327 13.96 64.8727 14 65.1127L15.78 65.1127C15.76 64.9727 15.74 64.7927 15.74 64.6527C15.74 64.2127 15.96 64.0127 16.8 64.0127L22.98 64.0127L22.98 65.1127L24.68 65.1127L24.68 64.0127L27.58 64.0127L27.58 62.1927L24.68 62.0727L24.68 61.1327L22.98 61.1327ZM20.8 69.6305C22.24 69.6305 23.12 69.6305 23.12 70.2105C23.12 70.7905 22.24 70.7905 20.8 70.7905L17.9 70.7905C16.46 70.7905 15.58 70.7905 15.58 70.2105C15.58 69.6305 16.46 69.6305 17.9 69.6305L20.8 69.6305ZM18.32 67.6705C16.48 67.6705 15.24 67.8305 14.5 68.4705C14.06 68.8705 13.82 69.4305 13.82 70.2105C13.82 70.9905 14.06 71.5505 14.5 71.9505C15.24 72.5905 16.5 72.7505 18.32 72.7505L20.38 72.7505C22.2 72.7505 23.46 72.5905 24.2 71.9505C24.64 71.5505 24.88 70.9905 24.88 70.2105C24.88 69.4305 24.64 68.8705 24.2 68.4705C23.46 67.8305 22.22 67.6705 20.38 67.6705L18.32 67.6705ZM22.98 78.8515L22.98 79.7715L16.36 79.7715C14.64 79.7715 13.9 80.4515 13.9 81.8515C13.9 82.2515 13.96 82.5915 14 82.8315L15.78 82.8315C15.76 82.6915 15.74 82.5115 15.74 82.3715C15.74 81.9315 15.96 81.7315 16.8 81.7315L22.98 81.7315L22.98 82.8315L24.68 82.8315L24.68 81.7315L27.58 81.7315L27.58 79.9115L24.68 79.7915L24.68 78.8515L22.98 78.8515ZM26.84 85.5893L15.46 85.5893L14 85.5693L14 87.5693L15.46 87.5493L22.3 87.5493C22.64 87.7893 22.88 88.0693 22.88 88.2893C22.88 88.5293 22.7 88.6093 22.2 88.6093L15.46 88.6093L14 88.5893L14 90.5893L15.46 90.5693L22.96 90.5693C24.06 90.5693 24.84 90.2093 24.84 89.2493C24.84 88.6493 24.38 88.1493 23.54 87.5693L23.54 87.5493L26.84 87.5493L28.3 87.5693L28.3 85.5693L26.84 85.5893ZM18.94 98.524L20.34 98.524C22.16 98.524 23.46 98.364 24.2 97.724C24.64 97.324 24.88 96.764 24.88 95.984C24.88 95.204 24.64 94.644 24.2 94.244C23.46 93.604 22.16 93.444 20.34 93.444L18.3 93.444C16.46 93.444 15.22 93.604 14.48 94.244C14.04 94.644 13.8 95.204 13.8 95.984C13.8 96.764 14.04 97.344 14.48 97.744C15.14 98.324 16.06 98.524 17.36 98.524L17.4 98.524L17.4 96.624L17.36 96.624C16.48 96.624 15.58 96.604 15.58 95.984C15.58 95.404 16.32 95.404 17.88 95.404L18.94 95.404L18.94 98.524ZM20.4 96.564L20.4 95.404L20.82 95.404C22.26 95.404 23.14 95.404 23.14 95.984C23.14 96.564 22.26 96.564 20.82 96.564L20.4 96.564ZM22.98 104.586L22.98 105.506L16.36 105.506C14.64 105.506 13.9 106.186 13.9 107.586C13.9 107.986 13.96 108.326 14 108.566L15.78 108.566C15.76 108.426 15.74 108.246 15.74 108.106C15.74 107.666 15.96 107.466 16.8 107.466L22.98 107.466L22.98 108.566L24.68 108.566L24.68 107.466L27.58 107.466L27.58 105.646L24.68 105.526L24.68 104.586L22.98 104.586ZM20.8 113.084C22.24 113.084 23.12 113.084 23.12 113.664C23.12 114.244 22.24 114.244 20.8 114.244L17.9 114.244C16.46 114.244 15.58 114.244 15.58 113.664C15.58 113.084 16.46 113.084 17.9 113.084L20.8 113.084ZM18.32 111.124C16.48 111.124 15.24 111.284 14.5 111.924C14.06 112.324 13.82 112.884 13.82 113.664C13.82 114.444 14.06 115.004 14.5 115.404C15.24 116.044 16.5 116.204 18.32 116.204L20.38 116.204C22.2 116.204 23.46 116.044 24.2 115.404C24.64 115.004 24.88 114.444 24.88 113.664C24.88 112.884 24.64 112.324 24.2 111.924C23.46 111.284 22.22 111.124 20.38 111.124L18.32 111.124ZM10.72 119.104L10.72 121.104L12.18 121.084L14.86 121.084C14.16 121.644 13.84 122.084 13.84 122.584C13.84 124.084 15.46 124.184 17.86 124.184L21.04 124.184C23.18 124.184 24.84 124.084 24.84 122.604C24.84 122.064 24.42 121.604 23.7 121.084L23.7 121.004L24.68 121.004L24.68 119.104L23.22 119.124L12.18 119.124L10.72 119.104ZM22.94 121.684C22.94 122.204 22.26 122.224 21.24 122.224L17.22 122.224C16.3 122.224 15.7 122.204 15.7 121.724C15.7 121.524 15.82 121.324 16.14 121.084L22.56 121.084C22.8 121.324 22.94 121.504 22.94 121.684Z" fill="white"/>
<path fill-rule="evenodd" clip-rule="evenodd" d="M20.9996 146.639C21.2269 146.639 21.4448 146.725 21.6055 146.879C21.7663 147.032 21.8566 147.24 21.8566 147.457V162.182C21.8566 162.399 21.7663 162.607 21.6055 162.76C21.4448 162.914 21.2269 163 20.9996 163C20.7723 163 20.5543 162.914 20.3936 162.76C20.2329 162.607 20.1426 162.399 20.1426 162.182V147.457C20.1426 147.24 20.2329 147.032 20.3936 146.879C20.5543 146.725 20.7723 146.639 20.9996 146.639Z" fill="white"/>
<path fill-rule="evenodd" clip-rule="evenodd" d="M20.3933 145.24C20.4729 145.164 20.5674 145.104 20.6715 145.062C20.7757 145.021 20.8873 145 21 145C21.1127 145 21.2243 145.021 21.3285 145.062C21.4326 145.104 21.5271 145.164 21.6067 145.24L26.7487 150.149C26.9096 150.302 27 150.51 27 150.728C27 150.945 26.9096 151.153 26.7487 151.307C26.5878 151.46 26.3695 151.547 26.1419 151.547C25.9144 151.547 25.6961 151.46 25.5352 151.307L21 146.976L16.4648 151.307C16.3039 151.46 16.0856 151.547 15.8581 151.547C15.6305 151.547 15.4122 151.46 15.2513 151.307C15.0904 151.153 15 150.945 15 150.728C15 150.51 15.0904 150.302 15.2513 150.149L20.3933 145.24Z" fill="white"/>
<path d="M17.6 186.919C16.42 186.919 15.56 186.899 15.56 186.319C15.56 185.759 16.28 185.739 17.88 185.739L20.8 185.739C22.4 185.739 23.12 185.759 23.12 186.319C23.12 186.899 22.26 186.919 21.08 186.919L20.9 186.919L20.9 188.799L21 188.799C22.5 188.799 23.54 188.639 24.2 188.059C24.64 187.659 24.88 187.099 24.88 186.319C24.88 185.539 24.64 184.979 24.2 184.579C23.46 183.939 22.22 183.779 20.38 183.779L18.3 183.779C16.46 183.779 15.22 183.939 14.48 184.579C14.04 184.979 13.8 185.539 13.8 186.319C13.8 187.099 14.04 187.659 14.48 188.059C15.18 188.659 16.26 188.819 17.84 188.819L17.9 188.819L17.9 186.919L17.6 186.919ZM28.3 191.663L26.84 191.683L15.46 191.683L14 191.663L14 193.663L15.46 193.643L26.84 193.643L28.3 193.663L28.3 191.663ZM24.68 196.748L23.22 196.768L15.46 196.768L14 196.748L14 198.748L15.46 198.728L23.22 198.728L24.68 198.748L24.68 196.748ZM26.34 196.768L26.34 198.728L28.3 198.728L28.3 196.768L26.34 196.768ZM22.3 206.834C22.64 207.074 22.88 207.354 22.88 207.574C22.88 207.814 22.7 207.894 22.2 207.894L15.46 207.894L14 207.874L14 209.874L15.46 209.854L22.96 209.854C24.06 209.854 24.84 209.494 24.84 208.534C24.84 207.914 24.34 207.374 23.48 206.754L23.48 206.734C24.32 206.634 24.84 206.254 24.84 205.514C24.84 204.894 24.34 204.354 23.48 203.734L23.48 203.714L24.68 203.714L24.68 201.834L23.22 201.854L15.46 201.854L14 201.834L14 203.834L15.46 203.814L22.3 203.814C22.64 204.054 22.88 204.334 22.88 204.554C22.88 204.794 22.7 204.874 22.2 204.874L15.46 204.874L14 204.854L14 206.854L15.46 206.834L22.3 206.834ZM26.84 212.936L15.46 212.936L14 212.916L14 214.816L14.98 214.816L14.98 214.896C14.26 215.416 13.84 215.876 13.84 216.416C13.84 217.896 15.5 217.996 17.64 217.996L20.82 217.996C23.22 217.996 24.84 217.896 24.84 216.396C24.84 215.896 24.52 215.456 23.82 214.896L26.84 214.896L28.3 214.916L28.3 212.916L26.84 212.936ZM22.98 215.496C22.98 216.016 22.3 216.036 21.28 216.036L17.26 216.036C16.34 216.036 15.74 216.016 15.74 215.536C15.74 215.336 15.86 215.136 16.18 214.896L22.6 214.896C22.84 215.136 22.98 215.316 22.98 215.496ZM22.98 224.132L22.98 225.052L16.36 225.052C14.64 225.052 13.9 225.732 13.9 227.132C13.9 227.532 13.96 227.872 14 228.112L15.78 228.112C15.76 227.972 15.74 227.792 15.74 227.652C15.74 227.212 15.96 227.012 16.8 227.012L22.98 227.012L22.98 228.112L24.68 228.112L24.68 227.012L27.58 227.012L27.58 225.192L24.68 225.072L24.68 224.132L22.98 224.132ZM20.8 232.63C22.24 232.63 23.12 232.63 23.12 233.21C23.12 233.79 22.24 233.79 20.8 233.79L17.9 233.79C16.46 233.79 15.58 233.79 15.58 233.21C15.58 232.63 16.46 232.63 17.9 232.63L20.8 232.63ZM18.32 230.67C16.48 230.67 15.24 230.83 14.5 231.47C14.06 231.87 13.82 232.43 13.82 233.21C13.82 233.99 14.06 234.55 14.5 234.95C15.24 235.59 16.5 235.75 18.32 235.75L20.38 235.75C22.2 235.75 23.46 235.59 24.2 234.95C24.64 234.55 24.88 233.99 24.88 233.21C24.88 232.43 24.64 231.87 24.2 231.47C23.46 230.83 22.22 230.67 20.38 230.67L18.32 230.67ZM22.98 241.851L22.98 242.771L16.36 242.771C14.64 242.771 13.9 243.451 13.9 244.851C13.9 245.251 13.96 245.591 14 245.831L15.78 245.831C15.76 245.691 15.74 245.511 15.74 245.371C15.74 244.931 15.96 244.731 16.8 244.731L22.98 244.731L22.98 245.831L24.68 245.831L24.68 244.731L27.58 244.731L27.58 242.911L24.68 242.791L24.68 241.851L22.98 241.851ZM26.84 248.589L15.46 248.589L14 248.569L14 250.569L15.46 250.549L22.3 250.549C22.64 250.789 22.88 251.069 22.88 251.289C22.88 251.529 22.7 251.609 22.2 251.609L15.46 251.609L14 251.589L14 253.589L15.46 253.569L22.96 253.569C24.06 253.569 24.84 253.209 24.84 252.249C24.84 251.649 24.38 251.149 23.54 250.569L23.54 250.549L26.84 250.549L28.3 250.569L28.3 248.569L26.84 248.589ZM18.94 261.523L20.34 261.523C22.16 261.523 23.46 261.363 24.2 260.723C24.64 260.323 24.88 259.763 24.88 258.983C24.88 258.203 24.64 257.643 24.2 257.243C23.46 256.603 22.16 256.443 20.34 256.443L18.3 256.443C16.46 256.443 15.22 256.603 14.48 257.243C14.04 257.643 13.8 258.203 13.8 258.983C13.8 259.763 14.04 260.343 14.48 260.743C15.14 261.323 16.06 261.523 17.36 261.523L17.4 261.523L17.4 259.623L17.36 259.623C16.48 259.623 15.58 259.603 15.58 258.983C15.58 258.403 16.32 258.403 17.88 258.403L18.94 258.403L18.94 261.523ZM20.4 259.563L20.4 258.403L20.82 258.403C22.26 258.403 23.14 258.403 23.14 258.983C23.14 259.563 22.26 259.563 20.82 259.563L20.4 259.563ZM22.98 267.585L22.98 268.505L16.36 268.505C14.64 268.505 13.9 269.185 13.9 270.585C13.9 270.985 13.96 271.325 14 271.565L15.78 271.565C15.76 271.425 15.74 271.245 15.74 271.105C15.74 270.665 15.96 270.465 16.8 270.465L22.98 270.465L22.98 271.565L24.68 271.565L24.68 270.465L27.58 270.465L27.58 268.645L24.68 268.525L24.68 267.585L22.98 267.585ZM20.8 276.083C22.24 276.083 23.12 276.083 23.12 276.663C23.12 277.243 22.24 277.243 20.8 277.243L17.9 277.243C16.46 277.243 15.58 277.243 15.58 276.663C15.58 276.083 16.46 276.083 17.9 276.083L20.8 276.083ZM18.32 274.123C16.48 274.123 15.24 274.283 14.5 274.923C14.06 275.323 13.82 275.883 13.82 276.663C13.82 277.443 14.06 278.003 14.5 278.403C15.24 279.043 16.5 279.203 18.32 279.203L20.38 279.203C22.2 279.203 23.46 279.043 24.2 278.403C24.64 278.003 24.88 277.443 24.88 276.663C24.88 275.883 24.64 275.323 24.2 274.923C23.46 274.283 22.22 274.123 20.38 274.123L18.32 274.123ZM10.72 282.104L10.72 284.104L12.18 284.084L14.86 284.084C14.16 284.644 13.84 285.084 13.84 285.584C13.84 287.084 15.46 287.184 17.86 287.184L21.04 287.184C23.18 287.184 24.84 287.084 24.84 285.604C24.84 285.064 24.42 284.604 23.7 284.084L23.7 284.004L24.68 284.004L24.68 282.104L23.22 282.124L12.18 282.124L10.72 282.104ZM22.94 284.684C22.94 285.204 22.26 285.224 21.24 285.224L17.22 285.224C16.3 285.224 15.7 285.204 15.7 284.724C15.7 284.524 15.82 284.324 16.14 284.084L22.56 284.084C22.8 284.324 22.94 284.504 22.94 284.684Z" fill="white"/>
<path fill-rule="evenodd" clip-rule="evenodd" d="M20.9996 309.639C21.2269 309.639 21.4448 309.725 21.6055 309.878C21.7663 310.032 21.8566 310.24 21.8566 310.457V325.181C21.8566 325.398 21.7663 325.606 21.6055 325.76C21.4448 325.913 21.2269 325.999 20.9996 325.999C20.7723 325.999 20.5543 325.913 20.3936 325.76C20.2329 325.606 20.1426 325.398 20.1426 325.181V310.457C20.1426 310.24 20.2329 310.032 20.3936 309.878C20.5543 309.725 20.7723 309.639 20.9996 309.639Z" fill="white"/>
<path fill-rule="evenodd" clip-rule="evenodd" d="M20.3933 308.24C20.4729 308.164 20.5674 308.103 20.6715 308.062C20.7757 308.021 20.8873 308 21 308C21.1127 308 21.2243 308.021 21.3285 308.062C21.4326 308.103 21.5271 308.164 21.6067 308.24L26.7487 313.148C26.9096 313.302 27 313.51 27 313.727C27 313.944 26.9096 314.153 26.7487 314.306C26.5878 314.46 26.3695 314.546 26.1419 314.546C25.9144 314.546 25.6961 314.46 25.5352 314.306L21 309.976L16.4648 314.306C16.3039 314.46 16.0856 314.546 15.8581 314.546C15.6305 314.546 15.4122 314.46 15.2513 314.306C15.0904 314.153 15 313.944 15 313.727C15 313.51 15.0904 313.302 15.2513 313.148L20.3933 308.24Z" fill="white"/>
<path d="M17.6 349.919C16.42 349.919 15.56 349.899 15.56 349.319C15.56 348.759 16.28 348.739 17.88 348.739L20.8 348.739C22.4 348.739 23.12 348.759 23.12 349.319C23.12 349.899 22.26 349.919 21.08 349.919L20.9 349.919L20.9 351.799L21 351.799C22.5 351.799 23.54 351.639 24.2 351.059C24.64 350.659 24.88 350.099 24.88 349.319C24.88 348.539 24.64 347.979 24.2 347.579C23.46 346.939 22.22 346.779 20.38 346.779L18.3 346.779C16.46 346.779 15.22 346.939 14.48 347.579C14.04 347.979 13.8 348.539 13.8 349.319C13.8 350.099 14.04 350.659 14.48 351.059C15.18 351.659 16.26 351.819 17.84 351.819L17.9 351.819L17.9 349.919L17.6 349.919ZM28.3 354.663L26.84 354.683L15.46 354.683L14 354.663L14 356.663L15.46 356.643L26.84 356.643L28.3 356.663L28.3 354.663ZM24.68 359.748L23.22 359.768L15.46 359.768L14 359.748L14 361.748L15.46 361.728L23.22 361.728L24.68 361.748L24.68 359.748ZM26.34 359.768L26.34 361.728L28.3 361.728L28.3 359.768L26.34 359.768ZM22.3 369.834C22.64 370.074 22.88 370.354 22.88 370.574C22.88 370.814 22.7 370.894 22.2 370.894L15.46 370.894L14 370.874L14 372.874L15.46 372.854L22.96 372.854C24.06 372.854 24.84 372.494 24.84 371.534C24.84 370.914 24.34 370.374 23.48 369.754L23.48 369.734C24.32 369.634 24.84 369.254 24.84 368.514C24.84 367.894 24.34 367.354 23.48 366.734L23.48 366.714L24.68 366.714L24.68 364.834L23.22 364.854L15.46 364.854L14 364.834L14 366.834L15.46 366.814L22.3 366.814C22.64 367.054 22.88 367.334 22.88 367.554C22.88 367.794 22.7 367.874 22.2 367.874L15.46 367.874L14 367.854L14 369.854L15.46 369.834L22.3 369.834ZM26.84 375.936L15.46 375.936L14 375.916L14 377.816L14.98 377.816L14.98 377.896C14.26 378.416 13.84 378.876 13.84 379.416C13.84 380.896 15.5 380.996 17.64 380.996L20.82 380.996C23.22 380.996 24.84 380.896 24.84 379.396C24.84 378.896 24.52 378.456 23.82 377.896L26.84 377.896L28.3 377.916L28.3 375.916L26.84 375.936ZM22.98 378.496C22.98 379.016 22.3 379.036 21.28 379.036L17.26 379.036C16.34 379.036 15.74 379.016 15.74 378.536C15.74 378.336 15.86 378.136 16.18 377.896L22.6 377.896C22.84 378.136 22.98 378.316 22.98 378.496ZM22.98 387.132L22.98 388.052L16.36 388.052C14.64 388.052 13.9 388.732 13.9 390.132C13.9 390.532 13.96 390.872 14 391.112L15.78 391.112C15.76 390.972 15.74 390.792 15.74 390.652C15.74 390.212 15.96 390.012 16.8 390.012L22.98 390.012L22.98 391.112L24.68 391.112L24.68 390.012L27.58 390.012L27.58 388.192L24.68 388.072L24.68 387.132L22.98 387.132ZM20.8 395.63C22.24 395.63 23.12 395.63 23.12 396.21C23.12 396.79 22.24 396.79 20.8 396.79L17.9 396.79C16.46 396.79 15.58 396.79 15.58 396.21C15.58 395.63 16.46 395.63 17.9 395.63L20.8 395.63ZM18.32 393.67C16.48 393.67 15.24 393.83 14.5 394.47C14.06 394.87 13.82 395.43 13.82 396.21C13.82 396.99 14.06 397.55 14.5 397.95C15.24 398.59 16.5 398.75 18.32 398.75L20.38 398.75C22.2 398.75 23.46 398.59 24.2 397.95C24.64 397.55 24.88 396.99 24.88 396.21C24.88 395.43 24.64 394.87 24.2 394.47C23.46 393.83 22.22 393.67 20.38 393.67L18.32 393.67ZM22.98 404.851L22.98 405.771L16.36 405.771C14.64 405.771 13.9 406.451 13.9 407.851C13.9 408.251 13.96 408.591 14 408.831L15.78 408.831C15.76 408.691 15.74 408.511 15.74 408.371C15.74 407.931 15.96 407.731 16.8 407.731L22.98 407.731L22.98 408.831L24.68 408.831L24.68 407.731L27.58 407.731L27.58 405.911L24.68 405.791L24.68 404.851L22.98 404.851ZM26.84 411.589L15.46 411.589L14 411.569L14 413.569L15.46 413.549L22.3 413.549C22.64 413.789 22.88 414.069 22.88 414.289C22.88 414.529 22.7 414.609 22.2 414.609L15.46 414.609L14 414.589L14 416.589L15.46 416.569L22.96 416.569C24.06 416.569 24.84 416.209 24.84 415.249C24.84 414.649 24.38 414.149 23.54 413.569L23.54 413.549L26.84 413.549L28.3 413.569L28.3 411.569L26.84 411.589ZM18.94 424.523L20.34 424.523C22.16 424.523 23.46 424.363 24.2 423.723C24.64 423.323 24.88 422.763 24.88 421.983C24.88 421.203 24.64 420.643 24.2 420.243C23.46 419.603 22.16 419.443 20.34 419.443L18.3 419.443C16.46 419.443 15.22 419.603 14.48 420.243C14.04 420.643 13.8 421.203 13.8 421.983C13.8 422.763 14.04 423.343 14.48 423.743C15.14 424.323 16.06 424.523 17.36 424.523L17.4 424.523L17.4 422.623L17.36 422.623C16.48 422.623 15.58 422.603 15.58 421.983C15.58 421.403 16.32 421.403 17.88 421.403L18.94 421.403L18.94 424.523ZM20.4 422.563L20.4 421.403L20.82 421.403C22.26 421.403 23.14 421.403 23.14 421.983C23.14 422.563 22.26 422.563 20.82 422.563L20.4 422.563ZM22.98 430.585L22.98 431.505L16.36 431.505C14.64 431.505 13.9 432.185 13.9 433.585C13.9 433.985 13.96 434.325 14 434.565L15.78 434.565C15.76 434.425 15.74 434.245 15.74 434.105C15.74 433.665 15.96 433.465 16.8 433.465L22.98 433.465L22.98 434.565L24.68 434.565L24.68 433.465L27.58 433.465L27.58 431.645L24.68 431.525L24.68 430.585L22.98 430.585ZM20.8 439.083C22.24 439.083 23.12 439.083 23.12 439.663C23.12 440.243 22.24 440.243 20.8 440.243L17.9 440.243C16.46 440.243 15.58 440.243 15.58 439.663C15.58 439.083 16.46 439.083 17.9 439.083L20.8 439.083ZM18.32 437.123C16.48 437.123 15.24 437.283 14.5 437.923C14.06 438.323 13.82 438.883 13.82 439.663C13.82 440.443 14.06 441.003 14.5 441.403C15.24 442.043 16.5 442.203 18.32 442.203L20.38 442.203C22.2 442.203 23.46 442.043 24.2 441.403C24.64 441.003 24.88 440.443 24.88 439.663C24.88 438.883 24.64 438.323 24.2 437.923C23.46 437.283 22.22 437.123 20.38 437.123L18.32 437.123ZM10.72 445.104L10.72 447.104L12.18 447.084L14.86 447.084C14.16 447.644 13.84 448.084 13.84 448.584C13.84 450.084 15.46 450.184 17.86 450.184L21.04 450.184C23.18 450.184 24.84 450.084 24.84 448.604C24.84 448.064 24.42 447.604 23.7 447.084L23.7 447.004L24.68 447.004L24.68 445.104L23.22 445.124L12.18 445.124L10.72 445.104ZM22.94 447.684C22.94 448.204 22.26 448.224 21.24 448.224L17.22 448.224C16.3 448.224 15.7 448.204 15.7 447.724C15.7 447.524 15.82 447.324 16.14 447.084L22.56 447.084C22.8 447.324 22.94 447.504 22.94 447.684Z" fill="white"/>
<path fill-rule="evenodd" clip-rule="evenodd" d="M20.9996 472.639C21.2269 472.639 21.4448 472.725 21.6055 472.878C21.7663 473.032 21.8566 473.24 21.8566 473.457V488.181C21.8566 488.398 21.7663 488.606 21.6055 488.76C21.4448 488.913 21.2269 488.999 20.9996 488.999C20.7723 488.999 20.5543 488.913 20.3936 488.76C20.2329 488.606 20.1426 488.398 20.1426 488.181V473.457C20.1426 473.24 20.2329 473.032 20.3936 472.878C20.5543 472.725 20.7723 472.639 20.9996 472.639Z" fill="white"/>
<path fill-rule="evenodd" clip-rule="evenodd" d="M20.3933 471.24C20.4729 471.164 20.5674 471.103 20.6715 471.062C20.7757 471.021 20.8873 471 21 471C21.1127 471 21.2243 471.021 21.3285 471.062C21.4326 471.103 21.5271 471.164 21.6067 471.24L26.7487 476.148C26.9096 476.302 27 476.51 27 476.727C27 476.944 26.9096 477.153 26.7487 477.306C26.5878 477.46 26.3695 477.546 26.1419 477.546C25.9144 477.546 25.6961 477.46 25.5352 477.306L21 472.976L16.4648 477.306C16.3039 477.46 16.0856 477.546 15.8581 477.546C15.6305 477.546 15.4122 477.46 15.2513 477.306C15.0904 477.153 15 476.944 15 476.727C15 476.51 15.0904 476.302 15.2513 476.148L20.3933 471.24Z" fill="white"/>
<path d="M17.6 512.919C16.42 512.919 15.56 512.899 15.56 512.319C15.56 511.759 16.28 511.739 17.88 511.739L20.8 511.739C22.4 511.739 23.12 511.759 23.12 512.319C23.12 512.899 22.26 512.919 21.08 512.919L20.9 512.919L20.9 514.799L21 514.799C22.5 514.799 23.54 514.639 24.2 514.059C24.64 513.659 24.88 513.099 24.88 512.319C24.88 511.539 24.64 510.979 24.2 510.579C23.46 509.939 22.22 509.779 20.38 509.779L18.3 509.779C16.46 509.779 15.22 509.939 14.48 510.579C14.04 510.979 13.8 511.539 13.8 512.319C13.8 513.099 14.04 513.659 14.48 514.059C15.18 514.659 16.26 514.819 17.84 514.819L17.9 514.819L17.9 512.919L17.6 512.919ZM28.3 517.662L26.84 517.682L15.46 517.682L14 517.662L14 519.662L15.46 519.642L26.84 519.642L28.3 519.662L28.3 517.662ZM24.68 522.748L23.22 522.768L15.46 522.768L14 522.748L14 524.748L15.46 524.728L23.22 524.728L24.68 524.748L24.68 522.748ZM26.34 522.768L26.34 524.728L28.3 524.728L28.3 522.768L26.34 522.768ZM22.3 532.834C22.64 533.074 22.88 533.354 22.88 533.574C22.88 533.814 22.7 533.894 22.2 533.894L15.46 533.894L14 533.874L14 535.874L15.46 535.854L22.96 535.854C24.06 535.854 24.84 535.494 24.84 534.534C24.84 533.914 24.34 533.374 23.48 532.754L23.48 532.734C24.32 532.634 24.84 532.254 24.84 531.514C24.84 530.894 24.34 530.354 23.48 529.734L23.48 529.714L24.68 529.714L24.68 527.834L23.22 527.854L15.46 527.854L14 527.834L14 529.834L15.46 529.814L22.3 529.814C22.64 530.054 22.88 530.334 22.88 530.554C22.88 530.794 22.7 530.874 22.2 530.874L15.46 530.874L14 530.854L14 532.854L15.46 532.834L22.3 532.834ZM26.84 538.936L15.46 538.936L14 538.916L14 540.816L14.98 540.816L14.98 540.896C14.26 541.416 13.84 541.876 13.84 542.416C13.84 543.896 15.5 543.996 17.64 543.996L20.82 543.996C23.22 543.996 24.84 543.896 24.84 542.396C24.84 541.896 24.52 541.456 23.82 540.896L26.84 540.896L28.3 540.916L28.3 538.916L26.84 538.936ZM22.98 541.496C22.98 542.016 22.3 542.036 21.28 542.036L17.26 542.036C16.34 542.036 15.74 542.016 15.74 541.536C15.74 541.336 15.86 541.136 16.18 540.896L22.6 540.896C22.84 541.136 22.98 541.316 22.98 541.496ZM22.98 550.132L22.98 551.052L16.36 551.052C14.64 551.052 13.9 551.732 13.9 553.132C13.9 553.532 13.96 553.872 14 554.112L15.78 554.112C15.76 553.972 15.74 553.792 15.74 553.652C15.74 553.212 15.96 553.012 16.8 553.012L22.98 553.012L22.98 554.112L24.68 554.112L24.68 553.012L27.58 553.012L27.58 551.192L24.68 551.072L24.68 550.132L22.98 550.132ZM20.8 558.63C22.24 558.63 23.12 558.63 23.12 559.21C23.12 559.79 22.24 559.79 20.8 559.79L17.9 559.79C16.46 559.79 15.58 559.79 15.58 559.21C15.58 558.63 16.46 558.63 17.9 558.63L20.8 558.63ZM18.32 556.67C16.48 556.67 15.24 556.83 14.5 557.47C14.06 557.87 13.82 558.43 13.82 559.21C13.82 559.99 14.06 560.55 14.5 560.95C15.24 561.59 16.5 561.75 18.32 561.75L20.38 561.75C22.2 561.75 23.46 561.59 24.2 560.95C24.64 560.55 24.88 559.99 24.88 559.21C24.88 558.43 24.64 557.87 24.2 557.47C23.46 556.83 22.22 556.67 20.38 556.67L18.32 556.67ZM22.98 567.851L22.98 568.771L16.36 568.771C14.64 568.771 13.9 569.451 13.9 570.851C13.9 571.251 13.96 571.591 14 571.831L15.78 571.831C15.76 571.691 15.74 571.511 15.74 571.371C15.74 570.931 15.96 570.731 16.8 570.731L22.98 570.731L22.98 571.831L24.68 571.831L24.68 570.731L27.58 570.731L27.58 568.911L24.68 568.791L24.68 567.851L22.98 567.851ZM26.84 574.588L15.46 574.588L14 574.568L14 576.568L15.46 576.548L22.3 576.548C22.64 576.788 22.88 577.068 22.88 577.288C22.88 577.528 22.7 577.608 22.2 577.608L15.46 577.608L14 577.588L14 579.588L15.46 579.568L22.96 579.568C24.06 579.568 24.84 579.208 24.84 578.248C24.84 577.648 24.38 577.148 23.54 576.568L23.54 576.548L26.84 576.548L28.3 576.568L28.3 574.568L26.84 574.588ZM18.94 587.523L20.34 587.523C22.16 587.523 23.46 587.363 24.2 586.723C24.64 586.323 24.88 585.763 24.88 584.983C24.88 584.203 24.64 583.643 24.2 583.243C23.46 582.603 22.16 582.443 20.34 582.443L18.3 582.443C16.46 582.443 15.22 582.603 14.48 583.243C14.04 583.643 13.8 584.203 13.8 584.983C13.8 585.763 14.04 586.343 14.48 586.743C15.14 587.323 16.06 587.523 17.36 587.523L17.4 587.523L17.4 585.623L17.36 585.623C16.48 585.623 15.58 585.603 15.58 584.983C15.58 584.403 16.32 584.403 17.88 584.403L18.94 584.403L18.94 587.523ZM20.4 585.563L20.4 584.403L20.82 584.403C22.26 584.403 23.14 584.403 23.14 584.983C23.14 585.563 22.26 585.563 20.82 585.563L20.4 585.563ZM22.98 593.585L22.98 594.505L16.36 594.505C14.64 594.505 13.9 595.185 13.9 596.585C13.9 596.985 13.96 597.325 14 597.565L15.78 597.565C15.76 597.425 15.74 597.245 15.74 597.105C15.74 596.665 15.96 596.465 16.8 596.465L22.98 596.465L22.98 597.565L24.68 597.565L24.68 596.465L27.58 596.465L27.58 594.645L24.68 594.525L24.68 593.585L22.98 593.585ZM20.8 602.083C22.24 602.083 23.12 602.083 23.12 602.663C23.12 603.243 22.24 603.243 20.8 603.243L17.9 603.243C16.46 603.243 15.58 603.243 15.58 602.663C15.58 602.083 16.46 602.083 17.9 602.083L20.8 602.083ZM18.32 600.123C16.48 600.123 15.24 600.283 14.5 600.923C14.06 601.323 13.82 601.883 13.82 602.663C13.82 603.443 14.06 604.003 14.5 604.403C15.24 605.043 16.5 605.203 18.32 605.203L20.38 605.203C22.2 605.203 23.46 605.043 24.2 604.403C24.64 604.003 24.88 603.443 24.88 602.663C24.88 601.883 24.64 601.323 24.2 600.923C23.46 600.283 22.22 600.123 20.38 600.123L18.32 600.123ZM10.72 608.103L10.72 610.103L12.18 610.083L14.86 610.083C14.16 610.643 13.84 611.083 13.84 611.583C13.84 613.083 15.46 613.183 17.86 613.183L21.04 613.183C23.18 613.183 24.84 613.083 24.84 611.603C24.84 611.063 24.42 610.603 23.7 610.083L23.7 610.003L24.68 610.003L24.68 608.103L23.22 608.123L12.18 608.123L10.72 608.103ZM22.94 610.683C22.94 611.203 22.26 611.223 21.24 611.223L17.22 611.223C16.3 611.223 15.7 611.203 15.7 610.723C15.7 610.523 15.82 610.323 16.14 610.083L22.56 610.083C22.8 610.323 22.94 610.503 22.94 610.683Z" fill="white"/>
<path fill-rule="evenodd" clip-rule="evenodd" d="M20.9996 635.638C21.2269 635.638 21.4448 635.724 21.6055 635.878C21.7663 636.031 21.8566 636.239 21.8566 636.456V651.181C21.8566 651.398 21.7663 651.606 21.6055 651.759C21.4448 651.913 21.2269 651.999 20.9996 651.999C20.7723 651.999 20.5543 651.913 20.3936 651.759C20.2329 651.606 20.1426 651.398 20.1426 651.181V636.456C20.1426 636.239 20.2329 636.031 20.3936 635.878C20.5543 635.724 20.7723 635.638 20.9996 635.638Z" fill="white"/>
<path fill-rule="evenodd" clip-rule="evenodd" d="M20.3933 634.239C20.4729 634.163 20.5674 634.103 20.6715 634.061C20.7757 634.02 20.8873 633.999 21 633.999C21.1127 633.999 21.2243 634.02 21.3285 634.061C21.4326 634.103 21.5271 634.163 21.6067 634.239L26.7487 639.148C26.9096 639.301 27 639.509 27 639.727C27 639.944 26.9096 640.152 26.7487 640.306C26.5878 640.459 26.3695 640.546 26.1419 640.546C25.9144 640.546 25.6961 640.459 25.5352 640.306L21 635.975L16.4648 640.306C16.3039 640.459 16.0856 640.546 15.8581 640.546C15.6305 640.546 15.4122 640.459 15.2513 640.306C15.0904 640.152 15 639.944 15 639.727C15 639.509 15.0904 639.301 15.2513 639.148L20.3933 634.239Z" fill="white"/>
<path d="M17.6 675.918C16.42 675.918 15.56 675.898 15.56 675.318C15.56 674.758 16.28 674.738 17.88 674.738L20.8 674.738C22.4 674.738 23.12 674.758 23.12 675.318C23.12 675.898 22.26 675.918 21.08 675.918L20.9 675.918L20.9 677.798L21 677.798C22.5 677.798 23.54 677.638 24.2 677.058C24.64 676.658 24.88 676.098 24.88 675.318C24.88 674.538 24.64 673.978 24.2 673.578C23.46 672.938 22.22 672.778 20.38 672.778L18.3 672.778C16.46 672.778 15.22 672.938 14.48 673.578C14.04 673.978 13.8 674.538 13.8 675.318C13.8 676.098 14.04 676.658 14.48 677.058C15.18 677.658 16.26 677.818 17.84 677.818L17.9 677.818L17.9 675.918L17.6 675.918ZM28.3 680.662L26.84 680.682L15.46 680.682L14 680.662L14 682.662L15.46 682.642L26.84 682.642L28.3 682.662L28.3 680.662ZM24.68 685.748L23.22 685.768L15.46 685.768L14 685.748L14 687.748L15.46 687.728L23.22 687.728L24.68 687.748L24.68 685.748ZM26.34 685.768L26.34 687.728L28.3 687.728L28.3 685.768L26.34 685.768ZM22.3 695.833C22.64 696.073 22.88 696.353 22.88 696.573C22.88 696.813 22.7 696.893 22.2 696.893L15.46 696.893L14 696.873L14 698.873L15.46 698.853L22.96 698.853C24.06 698.853 24.84 698.493 24.84 697.533C24.84 696.913 24.34 696.373 23.48 695.753L23.48 695.733C24.32 695.633 24.84 695.253 24.84 694.513C24.84 693.893 24.34 693.353 23.48 692.733L23.48 692.713L24.68 692.713L24.68 690.833L23.22 690.853L15.46 690.853L14 690.833L14 692.833L15.46 692.813L22.3 692.813C22.64 693.053 22.88 693.333 22.88 693.553C22.88 693.793 22.7 693.873 22.2 693.873L15.46 693.873L14 693.853L14 695.853L15.46 695.833L22.3 695.833ZM26.84 701.935L15.46 701.935L14 701.915L14 703.815L14.98 703.815L14.98 703.895C14.26 704.415 13.84 704.875 13.84 705.415C13.84 706.895 15.5 706.995 17.64 706.995L20.82 706.995C23.22 706.995 24.84 706.895 24.84 705.395C24.84 704.895 24.52 704.455 23.82 703.895L26.84 703.895L28.3 703.915L28.3 701.915L26.84 701.935ZM22.98 704.495C22.98 705.015 22.3 705.035 21.28 705.035L17.26 705.035C16.34 705.035 15.74 705.015 15.74 704.535C15.74 704.335 15.86 704.135 16.18 703.895L22.6 703.895C22.84 704.135 22.98 704.315 22.98 704.495ZM22.98 713.131L22.98 714.051L16.36 714.051C14.64 714.051 13.9 714.731 13.9 716.131C13.9 716.531 13.96 716.871 14 717.111L15.78 717.111C15.76 716.971 15.74 716.791 15.74 716.651C15.74 716.211 15.96 716.011 16.8 716.011L22.98 716.011L22.98 717.111L24.68 717.111L24.68 716.011L27.58 716.011L27.58 714.191L24.68 714.071L24.68 713.131L22.98 713.131ZM20.8 721.629C22.24 721.629 23.12 721.629 23.12 722.209C23.12 722.789 22.24 722.789 20.8 722.789L17.9 722.789C16.46 722.789 15.58 722.789 15.58 722.209C15.58 721.629 16.46 721.629 17.9 721.629L20.8 721.629ZM18.32 719.669C16.48 719.669 15.24 719.829 14.5 720.469C14.06 720.869 13.82 721.429 13.82 722.209C13.82 722.989 14.06 723.549 14.5 723.949C15.24 724.589 16.5 724.749 18.32 724.749L20.38 724.749C22.2 724.749 23.46 724.589 24.2 723.949C24.64 723.549 24.88 722.989 24.88 722.209C24.88 721.429 24.64 720.869 24.2 720.469C23.46 719.829 22.22 719.669 20.38 719.669L18.32 719.669ZM22.98 730.85L22.98 731.77L16.36 731.77C14.64 731.77 13.9 732.45 13.9 733.85C13.9 734.25 13.96 734.59 14 734.83L15.78 734.83C15.76 734.69 15.74 734.51 15.74 734.37C15.74 733.93 15.96 733.73 16.8 733.73L22.98 733.73L22.98 734.83L24.68 734.83L24.68 733.73L27.58 733.73L27.58 731.91L24.68 731.79L24.68 730.85L22.98 730.85ZM26.84 737.588L15.46 737.588L14 737.568L14 739.568L15.46 739.548L22.3 739.548C22.64 739.788 22.88 740.068 22.88 740.288C22.88 740.528 22.7 740.608 22.2 740.608L15.46 740.608L14 740.588L14 742.588L15.46 742.568L22.96 742.568C24.06 742.568 24.84 742.208 24.84 741.248C24.84 740.648 24.38 740.148 23.54 739.568L23.54 739.548L26.84 739.548L28.3 739.568L28.3 737.568L26.84 737.588ZM18.94 750.523L20.34 750.523C22.16 750.523 23.46 750.363 24.2 749.723C24.64 749.323 24.88 748.763 24.88 747.983C24.88 747.203 24.64 746.643 24.2 746.243C23.46 745.603 22.16 745.443 20.34 745.443L18.3 745.443C16.46 745.443 15.22 745.603 14.48 746.243C14.04 746.643 13.8 747.203 13.8 747.983C13.8 748.763 14.04 749.343 14.48 749.743C15.14 750.323 16.06 750.523 17.36 750.523L17.4 750.523L17.4 748.623L17.36 748.623C16.48 748.623 15.58 748.603 15.58 747.983C15.58 747.403 16.32 747.403 17.88 747.403L18.94 747.403L18.94 750.523ZM20.4 748.563L20.4 747.403L20.82 747.403C22.26 747.403 23.14 747.403 23.14 747.983C23.14 748.563 22.26 748.563 20.82 748.563L20.4 748.563ZM22.98 756.584L22.98 757.504L16.36 757.504C14.64 757.504 13.9 758.184 13.9 759.584C13.9 759.984 13.96 760.324 14 760.564L15.78 760.564C15.76 760.424 15.74 760.244 15.74 760.104C15.74 759.664 15.96 759.464 16.8 759.464L22.98 759.464L22.98 760.564L24.68 760.564L24.68 759.464L27.58 759.464L27.58 757.644L24.68 757.524L24.68 756.584L22.98 756.584ZM20.8 765.082C22.24 765.082 23.12 765.082 23.12 765.662C23.12 766.242 22.24 766.242 20.8 766.242L17.9 766.242C16.46 766.242 15.58 766.242 15.58 765.662C15.58 765.082 16.46 765.082 17.9 765.082L20.8 765.082ZM18.32 763.122C16.48 763.122 15.24 763.282 14.5 763.922C14.06 764.322 13.82 764.882 13.82 765.662C13.82 766.442 14.06 767.002 14.5 767.402C15.24 768.042 16.5 768.202 18.32 768.202L20.38 768.202C22.2 768.202 23.46 768.042 24.2 767.402C24.64 767.002 24.88 766.442 24.88 765.662C24.88 764.882 24.64 764.322 24.2 763.922C23.46 763.282 22.22 763.122 20.38 763.122L18.32 763.122ZM10.72 771.103L10.72 773.103L12.18 773.083L14.86 773.083C14.16 773.643 13.84 774.083 13.84 774.583C13.84 776.083 15.46 776.183 17.86 776.183L21.04 776.183C23.18 776.183 24.84 776.083 24.84 774.603C24.84 774.063 24.42 773.603 23.7 773.083L23.7 773.003L24.68 773.003L24.68 771.103L23.22 771.123L12.18 771.123L10.72 771.103ZM22.94 773.683C22.94 774.203 22.26 774.223 21.24 774.223L17.22 774.223C16.3 774.223 15.7 774.203 15.7 773.723C15.7 773.523 15.82 773.323 16.14 773.083L22.56 773.083C22.8 773.323 22.94 773.503 22.94 773.683Z" fill="white"/>
<path fill-rule="evenodd" clip-rule="evenodd" d="M20.9996 798.638C21.2269 798.638 21.4448 798.724 21.6055 798.877C21.7663 799.031 21.8566 799.239 21.8566 799.456V814.18C21.8566 814.397 21.7663 814.605 21.6055 814.759C21.4448 814.912 21.2269 814.998 20.9996 814.998C20.7723 814.998 20.5543 814.912 20.3936 814.759C20.2329 814.605 20.1426 814.397 20.1426 814.18V799.456C20.1426 799.239 20.2329 799.031 20.3936 798.877C20.5543 798.724 20.7723 798.638 20.9996 798.638Z" fill="white"/>
<path fill-rule="evenodd" clip-rule="evenodd" d="M20.3933 797.239C20.4729 797.163 20.5674 797.102 20.6715 797.061C20.7757 797.02 20.8873 796.999 21 796.999C21.1127 796.999 21.2243 797.02 21.3285 797.061C21.4326 797.102 21.5271 797.163 21.6067 797.239L26.7487 802.147C26.9096 802.301 27 802.509 27 802.726C27 802.943 26.9096 803.152 26.7487 803.305C26.5878 803.459 26.3695 803.545 26.1419 803.545C25.9144 803.545 25.6961 803.459 25.5352 803.305L21 798.975L16.4648 803.305C16.3039 803.459 16.0856 803.545 15.8581 803.545C15.6305 803.545 15.4122 803.459 15.2513 803.305C15.0904 803.152 15 802.943 15 802.726C15 802.509 15.0904 802.301 15.2513 802.147L20.3933 797.239Z" fill="white"/>
<path d="M17.6 838.918C16.42 838.918 15.56 838.898 15.56 838.318C15.56 837.758 16.28 837.738 17.88 837.738L20.8 837.738C22.4 837.738 23.12 837.758 23.12 838.318C23.12 838.898 22.26 838.918 21.08 838.918L20.9 838.918L20.9 840.798L21 840.798C22.5 840.798 23.54 840.638 24.2 840.058C24.64 839.658 24.88 839.098 24.88 838.318C24.88 837.538 24.64 836.978 24.2 836.578C23.46 835.938 22.22 835.778 20.38 835.778L18.3 835.778C16.46 835.778 15.22 835.938 14.48 836.578C14.04 836.978 13.8 837.538 13.8 838.318C13.8 839.098 14.04 839.658 14.48 840.058C15.18 840.658 16.26 840.818 17.84 840.818L17.9 840.818L17.9 838.918L17.6 838.918ZM28.3 843.661L26.84 843.681L15.46 843.681L14 843.661L14 845.661L15.46 845.641L26.84 845.641L28.3 845.661L28.3 843.661ZM24.68 848.747L23.22 848.767L15.46 848.767L14 848.747L14 850.747L15.46 850.727L23.22 850.727L24.68 850.747L24.68 848.747ZM26.34 848.767L26.34 850.727L28.3 850.727L28.3 848.767L26.34 848.767ZM22.3 858.833C22.64 859.073 22.88 859.353 22.88 859.573C22.88 859.813 22.7 859.893 22.2 859.893L15.46 859.893L14 859.873L14 861.873L15.46 861.853L22.96 861.853C24.06 861.853 24.84 861.493 24.84 860.533C24.84 859.913 24.34 859.373 23.48 858.753L23.48 858.733C24.32 858.633 24.84 858.253 24.84 857.513C24.84 856.893 24.34 856.353 23.48 855.733L23.48 855.713L24.68 855.713L24.68 853.833L23.22 853.853L15.46 853.853L14 853.833L14 855.833L15.46 855.813L22.3 855.813C22.64 856.053 22.88 856.333 22.88 856.553C22.88 856.793 22.7 856.873 22.2 856.873L15.46 856.873L14 856.853L14 858.853L15.46 858.833L22.3 858.833ZM26.84 864.935L15.46 864.935L14 864.915L14 866.815L14.98 866.815L14.98 866.895C14.26 867.415 13.84 867.875 13.84 868.415C13.84 869.895 15.5 869.995 17.64 869.995L20.82 869.995C23.22 869.995 24.84 869.895 24.84 868.395C24.84 867.895 24.52 867.455 23.82 866.895L26.84 866.895L28.3 866.915L28.3 864.915L26.84 864.935ZM22.98 867.495C22.98 868.015 22.3 868.035 21.28 868.035L17.26 868.035C16.34 868.035 15.74 868.015 15.74 867.535C15.74 867.335 15.86 867.135 16.18 866.895L22.6 866.895C22.84 867.135 22.98 867.315 22.98 867.495ZM22.98 876.131L22.98 877.051L16.36 877.051C14.64 877.051 13.9 877.731 13.9 879.131C13.9 879.531 13.96 879.871 14 880.111L15.78 880.111C15.76 879.971 15.74 879.791 15.74 879.651C15.74 879.211 15.96 879.011 16.8 879.011L22.98 879.011L22.98 880.111L24.68 880.111L24.68 879.011L27.58 879.011L27.58 877.191L24.68 877.071L24.68 876.131L22.98 876.131ZM20.8 884.629C22.24 884.629 23.12 884.629 23.12 885.209C23.12 885.789 22.24 885.789 20.8 885.789L17.9 885.789C16.46 885.789 15.58 885.789 15.58 885.209C15.58 884.629 16.46 884.629 17.9 884.629L20.8 884.629ZM18.32 882.669C16.48 882.669 15.24 882.829 14.5 883.469C14.06 883.869 13.82 884.429 13.82 885.209C13.82 885.989 14.06 886.549 14.5 886.949C15.24 887.589 16.5 887.749 18.32 887.749L20.38 887.749C22.2 887.749 23.46 887.589 24.2 886.949C24.64 886.549 24.88 885.989 24.88 885.209C24.88 884.429 24.64 883.869 24.2 883.469C23.46 882.829 22.22 882.669 20.38 882.669L18.32 882.669ZM22.98 893.85L22.98 894.77L16.36 894.77C14.64 894.77 13.9 895.45 13.9 896.85C13.9 897.25 13.96 897.59 14 897.83L15.78 897.83C15.76 897.69 15.74 897.51 15.74 897.37C15.74 896.93 15.96 896.73 16.8 896.73L22.98 896.73L22.98 897.83L24.68 897.83L24.68 896.73L27.58 896.73L27.58 894.91L24.68 894.79L24.68 893.85L22.98 893.85ZM26.84 900.587L15.46 900.587L14 900.567L14 902.567L15.46 902.547L22.3 902.547C22.64 902.787 22.88 903.067 22.88 903.287C22.88 903.527 22.7 903.607 22.2 903.607L15.46 903.607L14 903.587L14 905.587L15.46 905.567L22.96 905.567C24.06 905.567 24.84 905.207 24.84 904.247C24.84 903.647 24.38 903.147 23.54 902.567L23.54 902.547L26.84 902.547L28.3 902.567L28.3 900.567L26.84 900.587ZM18.94 913.522L20.34 913.522C22.16 913.522 23.46 913.362 24.2 912.722C24.64 912.322 24.88 911.762 24.88 910.982C24.88 910.202 24.64 909.642 24.2 909.242C23.46 908.602 22.16 908.442 20.34 908.442L18.3 908.442C16.46 908.442 15.22 908.602 14.48 909.242C14.04 909.642 13.8 910.202 13.8 910.982C13.8 911.762 14.04 912.342 14.48 912.742C15.14 913.322 16.06 913.522 17.36 913.522L17.4 913.522L17.4 911.622L17.36 911.622C16.48 911.622 15.58 911.602 15.58 910.982C15.58 910.402 16.32 910.402 17.88 910.402L18.94 910.402L18.94 913.522ZM20.4 911.562L20.4 910.402L20.82 910.402C22.26 910.402 23.14 910.402 23.14 910.982C23.14 911.562 22.26 911.562 20.82 911.562L20.4 911.562ZM22.98 919.584L22.98 920.504L16.36 920.504C14.64 920.504 13.9 921.184 13.9 922.584C13.9 922.984 13.96 923.324 14 923.564L15.78 923.564C15.76 923.424 15.74 923.244 15.74 923.104C15.74 922.664 15.96 922.464 16.8 922.464L22.98 922.464L22.98 923.564L24.68 923.564L24.68 922.464L27.58 922.464L27.58 920.644L24.68 920.524L24.68 919.584L22.98 919.584ZM20.8 928.082C22.24 928.082 23.12 928.082 23.12 928.662C23.12 929.242 22.24 929.242 20.8 929.242L17.9 929.242C16.46 929.242 15.58 929.242 15.58 928.662C15.58 928.082 16.46 928.082 17.9 928.082L20.8 928.082ZM18.32 926.122C16.48 926.122 15.24 926.282 14.5 926.922C14.06 927.322 13.82 927.882 13.82 928.662C13.82 929.442 14.06 930.002 14.5 930.402C15.24 931.042 16.5 931.202 18.32 931.202L20.38 931.202C22.2 931.202 23.46 931.042 24.2 930.402C24.64 930.002 24.88 929.442 24.88 928.662C24.88 927.882 24.64 927.322 24.2 926.922C23.46 926.282 22.22 926.122 20.38 926.122L18.32 926.122ZM10.72 934.102L10.72 936.102L12.18 936.082L14.86 936.082C14.16 936.642 13.84 937.082 13.84 937.582C13.84 939.082 15.46 939.182 17.86 939.182L21.04 939.182C23.18 939.182 24.84 939.083 24.84 937.602C24.84 937.062 24.42 936.602 23.7 936.082L23.7 936.002L24.68 936.002L24.68 934.102L23.22 934.122L12.18 934.122L10.72 934.102ZM22.94 936.682C22.94 937.202 22.26 937.222 21.24 937.222L17.22 937.222C16.3 937.222 15.7 937.202 15.7 936.722C15.7 936.522 15.82 936.322 16.14 936.082L22.56 936.082C22.8 936.322 22.94 936.502 22.94 936.682Z" fill="white"/>
<path fill-rule="evenodd" clip-rule="evenodd" d="M20.9996 961.637C21.2269 961.637 21.4448 961.723 21.6055 961.877C21.7663 962.03 21.8566 962.238 21.8566 962.455V977.18C21.8566 977.397 21.7663 977.605 21.6055 977.758C21.4448 977.912 21.2269 977.998 20.9996 977.998C20.7723 977.998 20.5543 977.912 20.3936 977.758C20.2329 977.605 20.1426 977.397 20.1426 977.18V962.455C20.1426 962.238 20.2329 962.03 20.3936 961.877C20.5543 961.723 20.7723 961.637 20.9996 961.637Z" fill="white"/>
<path fill-rule="evenodd" clip-rule="evenodd" d="M20.3933 960.238C20.4729 960.162 20.5674 960.102 20.6715 960.061C20.7757 960.019 20.8873 959.998 21 959.998C21.1127 959.998 21.2243 960.019 21.3285 960.061C21.4326 960.102 21.5271 960.162 21.6067 960.238L26.7487 965.147C26.9096 965.3 27 965.508 27 965.726C27 965.943 26.9096 966.151 26.7487 966.305C26.5878 966.458 26.3695 966.545 26.1419 966.545C25.9144 966.545 25.6961 966.458 25.5352 966.305L21 961.974L16.4648 966.305C16.3039 966.458 16.0856 966.545 15.8581 966.545C15.6305 966.545 15.4122 966.458 15.2513 966.305C15.0904 966.151 15 965.943 15 965.726C15 965.508 15.0904 965.3 15.2513 965.147L20.3933 960.238Z" fill="white"/>
<path d="M17.6 1001.92C16.42 1001.92 15.56 1001.9 15.56 1001.32C15.56 1000.76 16.28 1000.74 17.88 1000.74L20.8 1000.74C22.4 1000.74 23.12 1000.76 23.12 1001.32C23.12 1001.9 22.26 1001.92 21.08 1001.92L20.9 1001.92L20.9 1003.8L21 1003.8C22.5 1003.8 23.54 1003.64 24.2 1003.06C24.64 1002.66 24.88 1002.1 24.88 1001.32C24.88 1000.54 24.64 999.978 24.2 999.578C23.46 998.938 22.22 998.778 20.38 998.778L18.3 998.778C16.46 998.778 15.22 998.938 14.48 999.578C14.04 999.978 13.8 1000.54 13.8 1001.32C13.8 1002.1 14.04 1002.66 14.48 1003.06C15.18 1003.66 16.26 1003.82 17.84 1003.82L17.9 1003.82L17.9 1001.92L17.6 1001.92ZM28.3 1006.66L26.84 1006.68L15.46 1006.68L14 1006.66L14 1008.66L15.46 1008.64L26.84 1008.64L28.3 1008.66L28.3 1006.66ZM24.68 1011.75L23.22 1011.77L15.46 1011.77L14 1011.75L14 1013.75L15.46 1013.73L23.22 1013.73L24.68 1013.75L24.68 1011.75ZM26.34 1011.77L26.34 1013.73L28.3 1013.73L28.3 1011.77L26.34 1011.77ZM22.3 1021.83C22.64 1022.07 22.88 1022.35 22.88 1022.57C22.88 1022.81 22.7 1022.89 22.2 1022.89L15.46 1022.89L14 1022.87L14 1024.87L15.46 1024.85L22.96 1024.85C24.06 1024.85 24.84 1024.49 24.84 1023.53C24.84 1022.91 24.34 1022.37 23.48 1021.75L23.48 1021.73C24.32 1021.63 24.84 1021.25 24.84 1020.51C24.84 1019.89 24.34 1019.35 23.48 1018.73L23.48 1018.71L24.68 1018.71L24.68 1016.83L23.22 1016.85L15.46 1016.85L14 1016.83L14 1018.83L15.46 1018.81L22.3 1018.81C22.64 1019.05 22.88 1019.33 22.88 1019.55C22.88 1019.79 22.7 1019.87 22.2 1019.87L15.46 1019.87L14 1019.85L14 1021.85L15.46 1021.83L22.3 1021.83ZM26.84 1027.93L15.46 1027.93L14 1027.91L14 1029.81L14.98 1029.81L14.98 1029.89C14.26 1030.41 13.84 1030.87 13.84 1031.41C13.84 1032.89 15.5 1032.99 17.64 1032.99L20.82 1032.99C23.22 1032.99 24.84 1032.9 24.84 1031.39C24.84 1030.89 24.52 1030.45 23.82 1029.89L26.84 1029.89L28.3 1029.91L28.3 1027.91L26.84 1027.93ZM22.98 1030.49C22.98 1031.01 22.3 1031.03 21.28 1031.03L17.26 1031.03C16.34 1031.03 15.74 1031.01 15.74 1030.53C15.74 1030.33 15.86 1030.13 16.18 1029.89L22.6 1029.89C22.84 1030.13 22.98 1030.31 22.98 1030.49ZM22.98 1039.13L22.98 1040.05L16.36 1040.05C14.64 1040.05 13.9 1040.73 13.9 1042.13C13.9 1042.53 13.96 1042.87 14 1043.11L15.78 1043.11C15.76 1042.97 15.74 1042.79 15.74 1042.65C15.74 1042.21 15.96 1042.01 16.8 1042.01L22.98 1042.01L22.98 1043.11L24.68 1043.11L24.68 1042.01L27.58 1042.01L27.58 1040.19L24.68 1040.07L24.68 1039.13L22.98 1039.13ZM20.8 1047.63C22.24 1047.63 23.12 1047.63 23.12 1048.21C23.12 1048.79 22.24 1048.79 20.8 1048.79L17.9 1048.79C16.46 1048.79 15.58 1048.79 15.58 1048.21C15.58 1047.63 16.46 1047.63 17.9 1047.63L20.8 1047.63ZM18.32 1045.67C16.48 1045.67 15.24 1045.83 14.5 1046.47C14.06 1046.87 13.82 1047.43 13.82 1048.21C13.82 1048.99 14.06 1049.55 14.5 1049.95C15.24 1050.59 16.5 1050.75 18.32 1050.75L20.38 1050.75C22.2 1050.75 23.46 1050.59 24.2 1049.95C24.64 1049.55 24.88 1048.99 24.88 1048.21C24.88 1047.43 24.64 1046.87 24.2 1046.47C23.46 1045.83 22.22 1045.67 20.38 1045.67L18.32 1045.67ZM22.98 1056.85L22.98 1057.77L16.36 1057.77C14.64 1057.77 13.9 1058.45 13.9 1059.85C13.9 1060.25 13.96 1060.59 14 1060.83L15.78 1060.83C15.76 1060.69 15.74 1060.51 15.74 1060.37C15.74 1059.93 15.96 1059.73 16.8 1059.73L22.98 1059.73L22.98 1060.83L24.68 1060.83L24.68 1059.73L27.58 1059.73L27.58 1057.91L24.68 1057.79L24.68 1056.85L22.98 1056.85ZM26.84 1063.59L15.46 1063.59L14 1063.57L14 1065.57L15.46 1065.55L22.3 1065.55C22.64 1065.79 22.88 1066.07 22.88 1066.29C22.88 1066.53 22.7 1066.61 22.2 1066.61L15.46 1066.61L14 1066.59L14 1068.59L15.46 1068.57L22.96 1068.57C24.06 1068.57 24.84 1068.21 24.84 1067.25C24.84 1066.65 24.38 1066.15 23.54 1065.57L23.54 1065.55L26.84 1065.55L28.3 1065.57L28.3 1063.57L26.84 1063.59ZM18.94 1076.52L20.34 1076.52C22.16 1076.52 23.46 1076.36 24.2 1075.72C24.64 1075.32 24.88 1074.76 24.88 1073.98C24.88 1073.2 24.64 1072.64 24.2 1072.24C23.46 1071.6 22.16 1071.44 20.34 1071.44L18.3 1071.44C16.46 1071.44 15.22 1071.6 14.48 1072.24C14.04 1072.64 13.8 1073.2 13.8 1073.98C13.8 1074.76 14.04 1075.34 14.48 1075.74C15.14 1076.32 16.06 1076.52 17.36 1076.52L17.4 1076.52L17.4 1074.62L17.36 1074.62C16.48 1074.62 15.58 1074.6 15.58 1073.98C15.58 1073.4 16.32 1073.4 17.88 1073.4L18.94 1073.4L18.94 1076.52ZM20.4 1074.56L20.4 1073.4L20.82 1073.4C22.26 1073.4 23.14 1073.4 23.14 1073.98C23.14 1074.56 22.26 1074.56 20.82 1074.56L20.4 1074.56ZM22.98 1082.58L22.98 1083.5L16.36 1083.5C14.64 1083.5 13.9 1084.18 13.9 1085.58C13.9 1085.98 13.96 1086.32 14 1086.56L15.78 1086.56C15.76 1086.42 15.74 1086.24 15.74 1086.1C15.74 1085.66 15.96 1085.46 16.8 1085.46L22.98 1085.46L22.98 1086.56L24.68 1086.56L24.68 1085.46L27.58 1085.46L27.58 1083.64L24.68 1083.52L24.68 1082.58L22.98 1082.58ZM20.8 1091.08C22.24 1091.08 23.12 1091.08 23.12 1091.66C23.12 1092.24 22.24 1092.24 20.8 1092.24L17.9 1092.24C16.46 1092.24 15.58 1092.24 15.58 1091.66C15.58 1091.08 16.46 1091.08 17.9 1091.08L20.8 1091.08ZM18.32 1089.12C16.48 1089.12 15.24 1089.28 14.5 1089.92C14.06 1090.32 13.82 1090.88 13.82 1091.66C13.82 1092.44 14.06 1093 14.5 1093.4C15.24 1094.04 16.5 1094.2 18.32 1094.2L20.38 1094.2C22.2 1094.2 23.46 1094.04 24.2 1093.4C24.64 1093 24.88 1092.44 24.88 1091.66C24.88 1090.88 24.64 1090.32 24.2 1089.92C23.46 1089.28 22.22 1089.12 20.38 1089.12L18.32 1089.12ZM10.72 1097.1L10.72 1099.1L12.18 1099.08L14.86 1099.08C14.16 1099.64 13.84 1100.08 13.84 1100.58C13.84 1102.08 15.46 1102.18 17.86 1102.18L21.04 1102.18C23.18 1102.18 24.84 1102.08 24.84 1100.6C24.84 1100.06 24.42 1099.6 23.7 1099.08L23.7 1099L24.68 1099L24.68 1097.1L23.22 1097.12L12.18 1097.12L10.72 1097.1ZM22.94 1099.68C22.94 1100.2 22.26 1100.22 21.24 1100.22L17.22 1100.22C16.3 1100.22 15.7 1100.2 15.7 1099.72C15.7 1099.52 15.82 1099.32 16.14 1099.08L22.56 1099.08C22.8 1099.32 22.94 1099.5 22.94 1099.68Z" fill="white"/>
<path fill-rule="evenodd" clip-rule="evenodd" d="M20.9996 1124.64C21.2269 1124.64 21.4448 1124.72 21.6055 1124.88C21.7663 1125.03 21.8566 1125.24 21.8566 1125.45V1140.18C21.8566 1140.4 21.7663 1140.6 21.6055 1140.76C21.4448 1140.91 21.2269 1141 20.9996 1141C20.7723 1141 20.5543 1140.91 20.3936 1140.76C20.2329 1140.6 20.1426 1140.4 20.1426 1140.18V1125.45C20.1426 1125.24 20.2329 1125.03 20.3936 1124.88C20.5543 1124.72 20.7723 1124.64 20.9996 1124.64Z" fill="white"/>
<path fill-rule="evenodd" clip-rule="evenodd" d="M20.3933 1123.24C20.4729 1123.16 20.5674 1123.1 20.6715 1123.06C20.7757 1123.02 20.8873 1123 21 1123C21.1127 1123 21.2243 1123.02 21.3285 1123.06C21.4326 1123.1 21.5271 1123.16 21.6067 1123.24L26.7487 1128.15C26.9096 1128.3 27 1128.51 27 1128.73C27 1128.94 26.9096 1129.15 26.7487 1129.3C26.5878 1129.46 26.3695 1129.54 26.1419 1129.54C25.9144 1129.54 25.6961 1129.46 25.5352 1129.3L21 1124.97L16.4648 1129.3C16.3039 1129.46 16.0856 1129.54 15.8581 1129.54C15.6305 1129.54 15.4122 1129.46 15.2513 1129.3C15.0904 1129.15 15 1128.94 15 1128.73C15 1128.51 15.0904 1128.3 15.2513 1128.15L20.3933 1123.24Z" fill="white"/>
<path d="M17.6 1164.92C16.42 1164.92 15.56 1164.9 15.56 1164.32C15.56 1163.76 16.28 1163.74 17.88 1163.74L20.8 1163.74C22.4 1163.74 23.12 1163.76 23.12 1164.32C23.12 1164.9 22.26 1164.92 21.08 1164.92L20.9 1164.92L20.9 1166.8L21 1166.8C22.5 1166.8 23.54 1166.64 24.2 1166.06C24.64 1165.66 24.88 1165.1 24.88 1164.32C24.88 1163.54 24.64 1162.98 24.2 1162.58C23.46 1161.94 22.22 1161.78 20.38 1161.78L18.3 1161.78C16.46 1161.78 15.22 1161.94 14.48 1162.58C14.04 1162.98 13.8 1163.54 13.8 1164.32C13.8 1165.1 14.04 1165.66 14.48 1166.06C15.18 1166.66 16.26 1166.82 17.84 1166.82L17.9 1166.82L17.9 1164.92L17.6 1164.92ZM28.3 1169.66L26.84 1169.68L15.46 1169.68L14 1169.66L14 1171.66L15.46 1171.64L26.84 1171.64L28.3 1171.66L28.3 1169.66ZM24.68 1174.75L23.22 1174.77L15.46 1174.77L14 1174.75L14 1176.75L15.46 1176.73L23.22 1176.73L24.68 1176.75L24.68 1174.75ZM26.34 1174.77L26.34 1176.73L28.3 1176.73L28.3 1174.77L26.34 1174.77ZM22.3 1184.83C22.64 1185.07 22.88 1185.35 22.88 1185.57C22.88 1185.81 22.7 1185.89 22.2 1185.89L15.46 1185.89L14 1185.87L14 1187.87L15.46 1187.85L22.96 1187.85C24.06 1187.85 24.84 1187.49 24.84 1186.53C24.84 1185.91 24.34 1185.37 23.48 1184.75L23.48 1184.73C24.32 1184.63 24.84 1184.25 24.84 1183.51C24.84 1182.89 24.34 1182.35 23.48 1181.73L23.48 1181.71L24.68 1181.71L24.68 1179.83L23.22 1179.85L15.46 1179.85L14 1179.83L14 1181.83L15.46 1181.81L22.3 1181.81C22.64 1182.05 22.88 1182.33 22.88 1182.55C22.88 1182.79 22.7 1182.87 22.2 1182.87L15.46 1182.87L14 1182.85L14 1184.85L15.46 1184.83L22.3 1184.83ZM26.84 1190.93L15.46 1190.93L14 1190.91L14 1192.81L14.98 1192.81L14.98 1192.89C14.26 1193.41 13.84 1193.87 13.84 1194.41C13.84 1195.89 15.5 1195.99 17.64 1195.99L20.82 1195.99C23.22 1195.99 24.84 1195.89 24.84 1194.39C24.84 1193.89 24.52 1193.45 23.82 1192.89L26.84 1192.89L28.3 1192.91L28.3 1190.91L26.84 1190.93ZM22.98 1193.49C22.98 1194.01 22.3 1194.03 21.28 1194.03L17.26 1194.03C16.34 1194.03 15.74 1194.01 15.74 1193.53C15.74 1193.33 15.86 1193.13 16.18 1192.89L22.6 1192.89C22.84 1193.13 22.98 1193.31 22.98 1193.49ZM22.98 1202.13L22.98 1203.05L16.36 1203.05C14.64 1203.05 13.9 1203.73 13.9 1205.13C13.9 1205.53 13.96 1205.87 14 1206.11L15.78 1206.11C15.76 1205.97 15.74 1205.79 15.74 1205.65C15.74 1205.21 15.96 1205.01 16.8 1205.01L22.98 1205.01L22.98 1206.11L24.68 1206.11L24.68 1205.01L27.58 1205.01L27.58 1203.19L24.68 1203.07L24.68 1202.13L22.98 1202.13ZM20.8 1210.63C22.24 1210.63 23.12 1210.63 23.12 1211.21C23.12 1211.79 22.24 1211.79 20.8 1211.79L17.9 1211.79C16.46 1211.79 15.58 1211.79 15.58 1211.21C15.58 1210.63 16.46 1210.63 17.9 1210.63L20.8 1210.63ZM18.32 1208.67C16.48 1208.67 15.24 1208.83 14.5 1209.47C14.06 1209.87 13.82 1210.43 13.82 1211.21C13.82 1211.99 14.06 1212.55 14.5 1212.95C15.24 1213.59 16.5 1213.75 18.32 1213.75L20.38 1213.75C22.2 1213.75 23.46 1213.59 24.2 1212.95C24.64 1212.55 24.88 1211.99 24.88 1211.21C24.88 1210.43 24.64 1209.87 24.2 1209.47C23.46 1208.83 22.22 1208.67 20.38 1208.67L18.32 1208.67ZM22.98 1219.85L22.98 1220.77L16.36 1220.77C14.64 1220.77 13.9 1221.45 13.9 1222.85C13.9 1223.25 13.96 1223.59 14 1223.83L15.78 1223.83C15.76 1223.69 15.74 1223.51 15.74 1223.37C15.74 1222.93 15.96 1222.73 16.8 1222.73L22.98 1222.73L22.98 1223.83L24.68 1223.83L24.68 1222.73L27.58 1222.73L27.58 1220.91L24.68 1220.79L24.68 1219.85L22.98 1219.85ZM26.84 1226.59L15.46 1226.59L14 1226.57L14 1228.57L15.46 1228.55L22.3 1228.55C22.64 1228.79 22.88 1229.07 22.88 1229.29C22.88 1229.53 22.7 1229.61 22.2 1229.61L15.46 1229.61L14 1229.59L14 1231.59L15.46 1231.57L22.96 1231.57C24.06 1231.57 24.84 1231.21 24.84 1230.25C24.84 1229.65 24.38 1229.15 23.54 1228.57L23.54 1228.55L26.84 1228.55L28.3 1228.57L28.3 1226.57L26.84 1226.59ZM18.94 1239.52L20.34 1239.52C22.16 1239.52 23.46 1239.36 24.2 1238.72C24.64 1238.32 24.88 1237.76 24.88 1236.98C24.88 1236.2 24.64 1235.64 24.2 1235.24C23.46 1234.6 22.16 1234.44 20.34 1234.44L18.3 1234.44C16.46 1234.44 15.22 1234.6 14.48 1235.24C14.04 1235.64 13.8 1236.2 13.8 1236.98C13.8 1237.76 14.04 1238.34 14.48 1238.74C15.14 1239.32 16.06 1239.52 17.36 1239.52L17.4 1239.52L17.4 1237.62L17.36 1237.62C16.48 1237.62 15.58 1237.6 15.58 1236.98C15.58 1236.4 16.32 1236.4 17.88 1236.4L18.94 1236.4L18.94 1239.52ZM20.4 1237.56L20.4 1236.4L20.82 1236.4C22.26 1236.4 23.14 1236.4 23.14 1236.98C23.14 1237.56 22.26 1237.56 20.82 1237.56L20.4 1237.56ZM22.98 1245.58L22.98 1246.5L16.36 1246.5C14.64 1246.5 13.9 1247.18 13.9 1248.58C13.9 1248.98 13.96 1249.32 14 1249.56L15.78 1249.56C15.76 1249.42 15.74 1249.24 15.74 1249.1C15.74 1248.66 15.96 1248.46 16.8 1248.46L22.98 1248.46L22.98 1249.56L24.68 1249.56L24.68 1248.46L27.58 1248.46L27.58 1246.64L24.68 1246.52L24.68 1245.58L22.98 1245.58ZM20.8 1254.08C22.24 1254.08 23.12 1254.08 23.12 1254.66C23.12 1255.24 22.24 1255.24 20.8 1255.24L17.9 1255.24C16.46 1255.24 15.58 1255.24 15.58 1254.66C15.58 1254.08 16.46 1254.08 17.9 1254.08L20.8 1254.08ZM18.32 1252.12C16.48 1252.12 15.24 1252.28 14.5 1252.92C14.06 1253.32 13.82 1253.88 13.82 1254.66C13.82 1255.44 14.06 1256 14.5 1256.4C15.24 1257.04 16.5 1257.2 18.32 1257.2L20.38 1257.2C22.2 1257.2 23.46 1257.04 24.2 1256.4C24.64 1256 24.88 1255.44 24.88 1254.66C24.88 1253.88 24.64 1253.32 24.2 1252.92C23.46 1252.28 22.22 1252.12 20.38 1252.12L18.32 1252.12ZM10.72 1260.1L10.72 1262.1L12.18 1262.08L14.86 1262.08C14.16 1262.64 13.84 1263.08 13.84 1263.58C13.84 1265.08 15.46 1265.18 17.86 1265.18L21.04 1265.18C23.18 1265.18 24.84 1265.08 24.84 1263.6C24.84 1263.06 24.42 1262.6 23.7 1262.08L23.7 1262L24.68 1262L24.68 1260.1L23.22 1260.12L12.18 1260.12L10.72 1260.1ZM22.94 1262.68C22.94 1263.2 22.26 1263.22 21.24 1263.22L17.22 1263.22C16.3 1263.22 15.7 1263.2 15.7 1262.72C15.7 1262.52 15.82 1262.32 16.14 1262.08L22.56 1262.08C22.8 1262.32 22.94 1262.5 22.94 1262.68Z" fill="white"/>
<path fill-rule="evenodd" clip-rule="evenodd" d="M20.9996 1287.64C21.2269 1287.64 21.4448 1287.72 21.6055 1287.88C21.7663 1288.03 21.8566 1288.24 21.8566 1288.45V1303.18C21.8566 1303.4 21.7663 1303.6 21.6055 1303.76C21.4448 1303.91 21.2269 1304 20.9996 1304C20.7723 1304 20.5543 1303.91 20.3936 1303.76C20.2329 1303.6 20.1426 1303.4 20.1426 1303.18V1288.45C20.1426 1288.24 20.2329 1288.03 20.3936 1287.88C20.5543 1287.72 20.7723 1287.64 20.9996 1287.64Z" fill="white"/>
<path fill-rule="evenodd" clip-rule="evenodd" d="M20.3933 1286.24C20.4729 1286.16 20.5674 1286.1 20.6715 1286.06C20.7757 1286.02 20.8873 1286 21 1286C21.1127 1286 21.2243 1286.02 21.3285 1286.06C21.4326 1286.1 21.5271 1286.16 21.6067 1286.24L26.7487 1291.15C26.9096 1291.3 27 1291.51 27 1291.73C27 1291.94 26.9096 1292.15 26.7487 1292.3C26.5878 1292.46 26.3695 1292.54 26.1419 1292.54C25.9144 1292.54 25.6961 1292.46 25.5352 1292.3L21 1287.97L16.4648 1292.3C16.3039 1292.46 16.0856 1292.54 15.8581 1292.54C15.6305 1292.54 15.4122 1292.46 15.2513 1292.3C15.0904 1292.15 15 1291.94 15 1291.73C15 1291.51 15.0904 1291.3 15.2513 1291.15L20.3933 1286.24Z" fill="white"/>
<path d="M17.6 1327.92C16.42 1327.92 15.56 1327.9 15.56 1327.32C15.56 1326.76 16.28 1326.74 17.88 1326.74L20.8 1326.74C22.4 1326.74 23.12 1326.76 23.12 1327.32C23.12 1327.9 22.26 1327.92 21.08 1327.92L20.9 1327.92L20.9 1329.8L21 1329.8C22.5 1329.8 23.54 1329.64 24.2 1329.06C24.64 1328.66 24.88 1328.1 24.88 1327.32C24.88 1326.54 24.64 1325.98 24.2 1325.58C23.46 1324.94 22.22 1324.78 20.38 1324.78L18.3 1324.78C16.46 1324.78 15.22 1324.94 14.48 1325.58C14.04 1325.98 13.8 1326.54 13.8 1327.32C13.8 1328.1 14.04 1328.66 14.48 1329.06C15.18 1329.66 16.26 1329.82 17.84 1329.82L17.9 1329.82L17.9 1327.92L17.6 1327.92ZM28.3 1332.66L26.84 1332.68L15.46 1332.68L14 1332.66L14 1334.66L15.46 1334.64L26.84 1334.64L28.3 1334.66L28.3 1332.66ZM24.68 1337.75L23.22 1337.77L15.46 1337.77L14 1337.75L14 1339.75L15.46 1339.73L23.22 1339.73L24.68 1339.75L24.68 1337.75ZM26.34 1337.77L26.34 1339.73L28.3 1339.73L28.3 1337.77L26.34 1337.77ZM22.3 1347.83C22.64 1348.07 22.88 1348.35 22.88 1348.57C22.88 1348.81 22.7 1348.89 22.2 1348.89L15.46 1348.89L14 1348.87L14 1350.87L15.46 1350.85L22.96 1350.85C24.06 1350.85 24.84 1350.49 24.84 1349.53C24.84 1348.91 24.34 1348.37 23.48 1347.75L23.48 1347.73C24.32 1347.63 24.84 1347.25 24.84 1346.51C24.84 1345.89 24.34 1345.35 23.48 1344.73L23.48 1344.71L24.68 1344.71L24.68 1342.83L23.22 1342.85L15.46 1342.85L14 1342.83L14 1344.83L15.46 1344.81L22.3 1344.81C22.64 1345.05 22.88 1345.33 22.88 1345.55C22.88 1345.79 22.7 1345.87 22.2 1345.87L15.46 1345.87L14 1345.85L14 1347.85L15.46 1347.83L22.3 1347.83ZM26.84 1353.93L15.46 1353.93L14 1353.91L14 1355.81L14.98 1355.81L14.98 1355.89C14.26 1356.41 13.84 1356.87 13.84 1357.41C13.84 1358.89 15.5 1358.99 17.64 1358.99L20.82 1358.99C23.22 1358.99 24.84 1358.89 24.84 1357.39C24.84 1356.89 24.52 1356.45 23.82 1355.89L26.84 1355.89L28.3 1355.91L28.3 1353.91L26.84 1353.93ZM22.98 1356.49C22.98 1357.01 22.3 1357.03 21.28 1357.03L17.26 1357.03C16.34 1357.03 15.74 1357.01 15.74 1356.53C15.74 1356.33 15.86 1356.13 16.18 1355.89L22.6 1355.89C22.84 1356.13 22.98 1356.31 22.98 1356.49ZM22.98 1365.13L22.98 1366.05L16.36 1366.05C14.64 1366.05 13.9 1366.73 13.9 1368.13C13.9 1368.53 13.96 1368.87 14 1369.11L15.78 1369.11C15.76 1368.97 15.74 1368.79 15.74 1368.65C15.74 1368.21 15.96 1368.01 16.8 1368.01L22.98 1368.01L22.98 1369.11L24.68 1369.11L24.68 1368.01L27.58 1368.01L27.58 1366.19L24.68 1366.07L24.68 1365.13L22.98 1365.13ZM20.8 1373.63C22.24 1373.63 23.12 1373.63 23.12 1374.21C23.12 1374.79 22.24 1374.79 20.8 1374.79L17.9 1374.79C16.46 1374.79 15.58 1374.79 15.58 1374.21C15.58 1373.63 16.46 1373.63 17.9 1373.63L20.8 1373.63ZM18.32 1371.67C16.48 1371.67 15.24 1371.83 14.5 1372.47C14.06 1372.87 13.82 1373.43 13.82 1374.21C13.82 1374.99 14.06 1375.55 14.5 1375.95C15.24 1376.59 16.5 1376.75 18.32 1376.75L20.38 1376.75C22.2 1376.75 23.46 1376.59 24.2 1375.95C24.64 1375.55 24.88 1374.99 24.88 1374.21C24.88 1373.43 24.64 1372.87 24.2 1372.47C23.46 1371.83 22.22 1371.67 20.38 1371.67L18.32 1371.67ZM22.98 1382.85L22.98 1383.77L16.36 1383.77C14.64 1383.77 13.9 1384.45 13.9 1385.85C13.9 1386.25 13.96 1386.59 14 1386.83L15.78 1386.83C15.76 1386.69 15.74 1386.51 15.74 1386.37C15.74 1385.93 15.96 1385.73 16.8 1385.73L22.98 1385.73L22.98 1386.83L24.68 1386.83L24.68 1385.73L27.58 1385.73L27.58 1383.91L24.68 1383.79L24.68 1382.85L22.98 1382.85ZM26.84 1389.59L15.46 1389.59L14 1389.57L14 1391.57L15.46 1391.55L22.3 1391.55C22.64 1391.79 22.88 1392.07 22.88 1392.29C22.88 1392.53 22.7 1392.61 22.2 1392.61L15.46 1392.61L14 1392.59L14 1394.59L15.46 1394.57L22.96 1394.57C24.06 1394.57 24.84 1394.21 24.84 1393.25C24.84 1392.65 24.38 1392.15 23.54 1391.57L23.54 1391.55L26.84 1391.55L28.3 1391.57L28.3 1389.57L26.84 1389.59ZM18.94 1402.52L20.34 1402.52C22.16 1402.52 23.46 1402.36 24.2 1401.72C24.64 1401.32 24.88 1400.76 24.88 1399.98C24.88 1399.2 24.64 1398.64 24.2 1398.24C23.46 1397.6 22.16 1397.44 20.34 1397.44L18.3 1397.44C16.46 1397.44 15.22 1397.6 14.48 1398.24C14.04 1398.64 13.8 1399.2 13.8 1399.98C13.8 1400.76 14.04 1401.34 14.48 1401.74C15.14 1402.32 16.06 1402.52 17.36 1402.52L17.4 1402.52L17.4 1400.62L17.36 1400.62C16.48 1400.62 15.58 1400.6 15.58 1399.98C15.58 1399.4 16.32 1399.4 17.88 1399.4L18.94 1399.4L18.94 1402.52ZM20.4 1400.56L20.4 1399.4L20.82 1399.4C22.26 1399.4 23.14 1399.4 23.14 1399.98C23.14 1400.56 22.26 1400.56 20.82 1400.56L20.4 1400.56ZM22.98 1408.58L22.98 1409.5L16.36 1409.5C14.64 1409.5 13.9 1410.18 13.9 1411.58C13.9 1411.98 13.96 1412.32 14 1412.56L15.78 1412.56C15.76 1412.42 15.74 1412.24 15.74 1412.1C15.74 1411.66 15.96 1411.46 16.8 1411.46L22.98 1411.46L22.98 1412.56L24.68 1412.56L24.68 1411.46L27.58 1411.46L27.58 1409.64L24.68 1409.52L24.68 1408.58L22.98 1408.58ZM20.8 1417.08C22.24 1417.08 23.12 1417.08 23.12 1417.66C23.12 1418.24 22.24 1418.24 20.8 1418.24L17.9 1418.24C16.46 1418.24 15.58 1418.24 15.58 1417.66C15.58 1417.08 16.46 1417.08 17.9 1417.08L20.8 1417.08ZM18.32 1415.12C16.48 1415.12 15.24 1415.28 14.5 1415.92C14.06 1416.32 13.82 1416.88 13.82 1417.66C13.82 1418.44 14.06 1419 14.5 1419.4C15.24 1420.04 16.5 1420.2 18.32 1420.2L20.38 1420.2C22.2 1420.2 23.46 1420.04 24.2 1419.4C24.64 1419 24.88 1418.44 24.88 1417.66C24.88 1416.88 24.64 1416.32 24.2 1415.92C23.46 1415.28 22.22 1415.12 20.38 1415.12L18.32 1415.12ZM10.72 1423.1L10.72 1425.1L12.18 1425.08L14.86 1425.08C14.16 1425.64 13.84 1426.08 13.84 1426.58C13.84 1428.08 15.46 1428.18 17.86 1428.18L21.04 1428.18C23.18 1428.18 24.84 1428.08 24.84 1426.6C24.84 1426.06 24.42 1425.6 23.7 1425.08L23.7 1425L24.68 1425L24.68 1423.1L23.22 1423.12L12.18 1423.12L10.72 1423.1ZM22.94 1425.68C22.94 1426.2 22.26 1426.22 21.24 1426.22L17.22 1426.22C16.3 1426.22 15.7 1426.2 15.7 1425.72C15.7 1425.52 15.82 1425.32 16.14 1425.08L22.56 1425.08C22.8 1425.32 22.94 1425.5 22.94 1425.68Z" fill="white"/>
<path fill-rule="evenodd" clip-rule="evenodd" d="M20.9996 1450.64C21.2269 1450.64 21.4448 1450.72 21.6055 1450.88C21.7663 1451.03 21.8566 1451.24 21.8566 1451.45V1466.18C21.8566 1466.4 21.7663 1466.6 21.6055 1466.76C21.4448 1466.91 21.2269 1467 20.9996 1467C20.7723 1467 20.5543 1466.91 20.3936 1466.76C20.2329 1466.6 20.1426 1466.4 20.1426 1466.18V1451.45C20.1426 1451.24 20.2329 1451.03 20.3936 1450.88C20.5543 1450.72 20.7723 1450.64 20.9996 1450.64Z" fill="white"/>
<path fill-rule="evenodd" clip-rule="evenodd" d="M20.3933 1449.24C20.4729 1449.16 20.5674 1449.1 20.6715 1449.06C20.7757 1449.02 20.8873 1449 21 1449C21.1127 1449 21.2243 1449.02 21.3285 1449.06C21.4326 1449.1 21.5271 1449.16 21.6067 1449.24L26.7487 1454.15C26.9096 1454.3 27 1454.51 27 1454.72C27 1454.94 26.9096 1455.15 26.7487 1455.3C26.5878 1455.46 26.3695 1455.54 26.1419 1455.54C25.9144 1455.54 25.6961 1455.46 25.5352 1455.3L21 1450.97L16.4648 1455.3C16.3039 1455.46 16.0856 1455.54 15.8581 1455.54C15.6305 1455.54 15.4122 1455.46 15.2513 1455.3C15.0904 1455.15 15 1454.94 15 1454.72C15 1454.51 15.0904 1454.3 15.2513 1454.15L20.3933 1449.24Z" fill="white"/>
<path d="M17.6 1490.92C16.42 1490.92 15.56 1490.9 15.56 1490.32C15.56 1489.76 16.28 1489.74 17.88 1489.74L20.8 1489.74C22.4 1489.74 23.12 1489.76 23.12 1490.32C23.12 1490.9 22.26 1490.92 21.08 1490.92L20.9 1490.92L20.9 1492.8L21 1492.8C22.5 1492.8 23.54 1492.64 24.2 1492.06C24.64 1491.66 24.88 1491.1 24.88 1490.32C24.88 1489.54 24.64 1488.98 24.2 1488.58C23.46 1487.94 22.22 1487.78 20.38 1487.78L18.3 1487.78C16.46 1487.78 15.22 1487.94 14.48 1488.58C14.04 1488.98 13.8 1489.54 13.8 1490.32C13.8 1491.1 14.04 1491.66 14.48 1492.06C15.18 1492.66 16.26 1492.82 17.84 1492.82L17.9 1492.82L17.9 1490.92L17.6 1490.92ZM28.3 1495.66L26.84 1495.68L15.46 1495.68L14 1495.66L14 1497.66L15.46 1497.64L26.84 1497.64L28.3 1497.66L28.3 1495.66ZM24.68 1500.75L23.22 1500.77L15.46 1500.77L14 1500.75L14 1502.75L15.46 1502.73L23.22 1502.73L24.68 1502.75L24.68 1500.75ZM26.34 1500.77L26.34 1502.73L28.3 1502.73L28.3 1500.77L26.34 1500.77ZM22.3 1510.83C22.64 1511.07 22.88 1511.35 22.88 1511.57C22.88 1511.81 22.7 1511.89 22.2 1511.89L15.46 1511.89L14 1511.87L14 1513.87L15.46 1513.85L22.96 1513.85C24.06 1513.85 24.84 1513.49 24.84 1512.53C24.84 1511.91 24.34 1511.37 23.48 1510.75L23.48 1510.73C24.32 1510.63 24.84 1510.25 24.84 1509.51C24.84 1508.89 24.34 1508.35 23.48 1507.73L23.48 1507.71L24.68 1507.71L24.68 1505.83L23.22 1505.85L15.46 1505.85L14 1505.83L14 1507.83L15.46 1507.81L22.3 1507.81C22.64 1508.05 22.88 1508.33 22.88 1508.55C22.88 1508.79 22.7 1508.87 22.2 1508.87L15.46 1508.87L14 1508.85L14 1510.85L15.46 1510.83L22.3 1510.83ZM26.84 1516.93L15.46 1516.93L14 1516.91L14 1518.81L14.98 1518.81L14.98 1518.89C14.26 1519.41 13.84 1519.87 13.84 1520.41C13.84 1521.89 15.5 1521.99 17.64 1521.99L20.82 1521.99C23.22 1521.99 24.84 1521.89 24.84 1520.39C24.84 1519.89 24.52 1519.45 23.82 1518.89L26.84 1518.89L28.3 1518.91L28.3 1516.91L26.84 1516.93ZM22.98 1519.49C22.98 1520.01 22.3 1520.03 21.28 1520.03L17.26 1520.03C16.34 1520.03 15.74 1520.01 15.74 1519.53C15.74 1519.33 15.86 1519.13 16.18 1518.89L22.6 1518.89C22.84 1519.13 22.98 1519.31 22.98 1519.49ZM22.98 1528.13L22.98 1529.05L16.36 1529.05C14.64 1529.05 13.9 1529.73 13.9 1531.13C13.9 1531.53 13.96 1531.87 14 1532.11L15.78 1532.11C15.76 1531.97 15.74 1531.79 15.74 1531.65C15.74 1531.21 15.96 1531.01 16.8 1531.01L22.98 1531.01L22.98 1532.11L24.68 1532.11L24.68 1531.01L27.58 1531.01L27.58 1529.19L24.68 1529.07L24.68 1528.13L22.98 1528.13ZM20.8 1536.63C22.24 1536.63 23.12 1536.63 23.12 1537.21C23.12 1537.79 22.24 1537.79 20.8 1537.79L17.9 1537.79C16.46 1537.79 15.58 1537.79 15.58 1537.21C15.58 1536.63 16.46 1536.63 17.9 1536.63L20.8 1536.63ZM18.32 1534.67C16.48 1534.67 15.24 1534.83 14.5 1535.47C14.06 1535.87 13.82 1536.43 13.82 1537.21C13.82 1537.99 14.06 1538.55 14.5 1538.95C15.24 1539.59 16.5 1539.75 18.32 1539.75L20.38 1539.75C22.2 1539.75 23.46 1539.59 24.2 1538.95C24.64 1538.55 24.88 1537.99 24.88 1537.21C24.88 1536.43 24.64 1535.87 24.2 1535.47C23.46 1534.83 22.22 1534.67 20.38 1534.67L18.32 1534.67ZM22.98 1545.85L22.98 1546.77L16.36 1546.77C14.64 1546.77 13.9 1547.45 13.9 1548.85C13.9 1549.25 13.96 1549.59 14 1549.83L15.78 1549.83C15.76 1549.69 15.74 1549.51 15.74 1549.37C15.74 1548.93 15.96 1548.73 16.8 1548.73L22.98 1548.73L22.98 1549.83L24.68 1549.83L24.68 1548.73L27.58 1548.73L27.58 1546.91L24.68 1546.79L24.68 1545.85L22.98 1545.85ZM26.84 1552.59L15.46 1552.59L14 1552.57L14 1554.57L15.46 1554.55L22.3 1554.55C22.64 1554.79 22.88 1555.07 22.88 1555.29C22.88 1555.53 22.7 1555.61 22.2 1555.61L15.46 1555.61L14 1555.59L14 1557.59L15.46 1557.57L22.96 1557.57C24.06 1557.57 24.84 1557.21 24.84 1556.25C24.84 1555.65 24.38 1555.15 23.54 1554.57L23.54 1554.55L26.84 1554.55L28.3 1554.57L28.3 1552.57L26.84 1552.59ZM18.94 1565.52L20.34 1565.52C22.16 1565.52 23.46 1565.36 24.2 1564.72C24.64 1564.32 24.88 1563.76 24.88 1562.98C24.88 1562.2 24.64 1561.64 24.2 1561.24C23.46 1560.6 22.16 1560.44 20.34 1560.44L18.3 1560.44C16.46 1560.44 15.22 1560.6 14.48 1561.24C14.04 1561.64 13.8 1562.2 13.8 1562.98C13.8 1563.76 14.04 1564.34 14.48 1564.74C15.14 1565.32 16.06 1565.52 17.36 1565.52L17.4 1565.52L17.4 1563.62L17.36 1563.62C16.48 1563.62 15.58 1563.6 15.58 1562.98C15.58 1562.4 16.32 1562.4 17.88 1562.4L18.94 1562.4L18.94 1565.52ZM20.4 1563.56L20.4 1562.4L20.82 1562.4C22.26 1562.4 23.14 1562.4 23.14 1562.98C23.14 1563.56 22.26 1563.56 20.82 1563.56L20.4 1563.56ZM22.98 1571.58L22.98 1572.5L16.36 1572.5C14.64 1572.5 13.9 1573.18 13.9 1574.58C13.9 1574.98 13.96 1575.32 14 1575.56L15.78 1575.56C15.76 1575.42 15.74 1575.24 15.74 1575.1C15.74 1574.66 15.96 1574.46 16.8 1574.46L22.98 1574.46L22.98 1575.56L24.68 1575.56L24.68 1574.46L27.58 1574.46L27.58 1572.64L24.68 1572.52L24.68 1571.58L22.98 1571.58ZM20.8 1580.08C22.24 1580.08 23.12 1580.08 23.12 1580.66C23.12 1581.24 22.24 1581.24 20.8 1581.24L17.9 1581.24C16.46 1581.24 15.58 1581.24 15.58 1580.66C15.58 1580.08 16.46 1580.08 17.9 1580.08L20.8 1580.08ZM18.32 1578.12C16.48 1578.12 15.24 1578.28 14.5 1578.92C14.06 1579.32 13.82 1579.88 13.82 1580.66C13.82 1581.44 14.06 1582 14.5 1582.4C15.24 1583.04 16.5 1583.2 18.32 1583.2L20.38 1583.2C22.2 1583.2 23.46 1583.04 24.2 1582.4C24.64 1582 24.88 1581.44 24.88 1580.66C24.88 1579.88 24.64 1579.32 24.2 1578.92C23.46 1578.28 22.22 1578.12 20.38 1578.12L18.32 1578.12ZM10.72 1586.1L10.72 1588.1L12.18 1588.08L14.86 1588.08C14.16 1588.64 13.84 1589.08 13.84 1589.58C13.84 1591.08 15.46 1591.18 17.86 1591.18L21.04 1591.18C23.18 1591.18 24.84 1591.08 24.84 1589.6C24.84 1589.06 24.42 1588.6 23.7 1588.08L23.7 1588L24.68 1588L24.68 1586.1L23.22 1586.12L12.18 1586.12L10.72 1586.1ZM22.94 1588.68C22.94 1589.2 22.26 1589.22 21.24 1589.22L17.22 1589.22C16.3 1589.22 15.7 1589.2 15.7 1588.72C15.7 1588.52 15.82 1588.32 16.14 1588.08L22.56 1588.08C22.8 1588.32 22.94 1588.5 22.94 1588.68Z" fill="white"/>
<path d="M41 -4.37114e-08L40.9999 1612L42.9999 1612L43 4.37114e-08L41 -4.37114e-08ZM0.99993 1612L1 -1.79217e-06L-1 -1.87959e-06L-1.00007 1612L0.99993 1612Z" fill="white" mask="url(#path-1-inside-1_110_39589)"/>
</svg>
