<svg width="18" height="19" viewBox="0 0 18 19" fill="none" xmlns="http://www.w3.org/2000/svg">
<path d="M6.06894 4.1001C4.56869 4.1001 3.34814 5.32138 3.34814 6.82251C3.34814 7.03106 3.5171 7.20009 3.72547 7.20009C3.93388 7.20009 4.1028 7.03106 4.1028 6.82251C4.1028 5.73774 4.9848 4.85521 6.06894 4.85521C6.27735 4.85521 6.44627 4.68618 6.44627 4.47764C6.44627 4.26913 6.27735 4.1001 6.06894 4.1001Z" fill="#00B0E8"/>
<path d="M12.7144 11.0999C13.3965 10.0299 13.7918 8.76045 13.7918 7.39998C13.7918 3.595 10.6986 0.5 6.8959 0.5C5.5362 0.5 4.26746 0.895506 3.19811 1.57799C2.34611 2.1215 1.62105 2.84698 1.07785 3.69948C0.395752 4.76949 0 6.03947 0 7.39998C0 11.2045 3.09366 14.2999 6.8959 14.2999C8.2556 14.2999 9.52484 13.9039 10.5942 13.2214C11.4462 12.6779 12.1712 11.9524 12.7144 11.0999ZM9.13207 11.7585C8.46147 12.1045 7.70094 12.3 6.8959 12.3C4.19602 12.3 1.9988 10.1015 1.9988 7.39998C1.9988 6.59448 2.1942 5.83349 2.53999 5.1625C3.0082 4.25351 3.75228 3.5095 4.66071 3.0415C5.33131 2.6955 6.09135 2.49999 6.89586 2.49999C9.59627 2.49999 11.793 4.69799 11.793 7.39998C11.793 8.20498 11.5976 8.96548 11.2518 9.63647C10.7841 10.5455 10.0405 11.29 9.13207 11.7585Z" fill="#00B0E8"/>
<path d="M17.5608 15.9388L13.5797 11.9653C13.013 12.7933 12.287 13.5193 11.4595 14.0868L15.4406 18.0603C15.7334 18.3533 16.1172 18.4998 16.5005 18.4998C16.8842 18.4998 17.268 18.3533 17.5608 18.0603C18.146 17.4743 18.146 16.5248 17.5608 15.9388Z" fill="#00B0E8"/>
</svg>
