<svg width="46" height="45" viewBox="0 0 46 45" fill="none" xmlns="http://www.w3.org/2000/svg">
<rect x="1.5" y="1" width="43" height="43" stroke="#00B0E8" stroke-width="2"/>
<path d="M14.4942 7.966H19.2442V9.98H14.4942V7.966ZM22.8732 16.231V13.742H18.1802V12.393H22.0182V5.553H11.8912V12.393H15.4062V13.742H10.7132V16.231H14.1332C13.0502 17.713 11.5492 19.081 9.9722 19.898V9.258C10.6182 8.061 11.1882 6.826 11.6632 5.629L9.0982 4.793C8.1482 7.415 6.4952 10.037 4.8042 11.69C5.2602 12.374 6.0012 13.894 6.2292 14.559C6.6092 14.179 6.9892 13.742 7.3502 13.286V22.748H9.9722V19.936C10.5802 20.468 11.4352 21.456 11.8532 22.121C13.1642 21.247 14.3802 20.031 15.4062 18.606V22.805H18.1802V18.492C19.1492 19.955 20.3082 21.266 21.5052 22.178C21.9422 21.494 22.8352 20.487 23.4622 19.974C21.9802 19.1 20.5172 17.713 19.4532 16.231H22.8732Z" fill="#00B0E8"/>
<path d="M26.9392 9.04901H37.6742V11.253H40.6382V6.446H33.8552V4.755H30.8912V6.446H24.1272V11.253H26.9392V9.04901ZM25.8182 16.117C26.9012 17.295 28.1172 18.929 28.5732 20.012L30.9482 18.435C30.4162 17.314 29.1242 15.794 28.0222 14.711L25.8182 16.117ZM40.9802 11.842H36.4392V9.733H33.5892V11.842H23.8612V14.54H33.5892V19.651C33.5892 19.974 33.4562 20.069 33.0572 20.069C32.6392 20.069 31.1952 20.069 30.0552 20.012C30.4352 20.772 30.8912 22.007 31.0052 22.824C32.7722 22.824 34.1592 22.767 35.1472 22.349C36.1352 21.931 36.4392 21.19 36.4392 19.708V14.54H40.9802V11.842Z" fill="#00B0E8"/>
<path d="M17.9712 33.692H9.9152V31.792H17.9712V33.692ZM20.8022 29.246H15.3492V27.802H21.9612V25.237H15.3492V23.755H12.5372V29.246H7.2742V36.238H20.8022V29.246ZM7.4832 41.71C8.4522 40.665 9.3642 38.993 9.8582 37.435L7.1982 36.77C6.6852 38.157 5.7922 39.658 4.9182 40.456L7.4832 41.71ZM10.3522 37.568C10.5802 38.917 10.7322 40.665 10.7322 41.71L13.5252 41.368C13.4872 40.323 13.2592 38.613 12.9742 37.302L10.3522 37.568ZM14.2472 37.587C14.7792 38.86 15.3492 40.551 15.5392 41.577L18.2372 40.893C17.9902 39.848 17.3442 38.233 16.7742 37.017L14.2472 37.587ZM18.1042 37.492C18.9782 38.803 20.0042 40.57 20.3842 41.691L23.0632 40.665C22.5882 39.525 21.4862 37.834 20.5932 36.599L18.1042 37.492Z" fill="#00B0E8"/>
<path d="M32.9812 34.623V33.293H34.3112V34.186C34.3112 34.338 34.3112 34.471 34.3112 34.623H32.9812ZM38.2442 33.293V34.623H36.7812V34.262V33.293H38.2442ZM33.7792 28.068C34.4822 27.441 35.0902 26.776 35.5272 26.13C35.9642 26.757 36.5912 27.441 37.2942 28.068H33.7792ZM40.7142 36.713V31.222H36.7812V30.31H38.9852V29.379C39.4602 29.702 39.9542 29.987 40.4292 30.215C40.7902 29.436 41.3222 28.448 41.8352 27.783C39.8592 27.099 37.9972 25.56 36.6862 23.774H34.1972C33.3422 25.142 31.7272 26.719 29.9602 27.612V27.593H28.4022V23.755H25.8562V27.593H23.7092V30.139H25.7232C25.2482 32.229 24.3362 34.604 23.2722 36.067C23.6712 36.732 24.2412 37.815 24.4882 38.556C25.0012 37.815 25.4572 36.846 25.8562 35.763V41.805H28.4022V34.3C28.6682 34.927 28.9152 35.535 29.0672 36.01L30.4542 33.882C30.1882 33.426 28.8962 31.412 28.4022 30.747V30.139H29.9602V28.771C30.2452 29.246 30.5112 29.778 30.6632 30.196C31.1952 29.949 31.7082 29.626 32.2212 29.284V30.31H34.3112V31.222H30.6062V36.713H33.8742C33.3232 37.929 32.0882 39.05 29.3902 39.867C29.8272 40.304 30.6062 41.368 30.8532 41.919C33.4562 41.102 34.9382 39.829 35.7932 38.423C36.9712 40.323 38.3962 41.216 40.1252 41.881C40.4102 41.083 41.0752 40.171 41.7022 39.601C40.0492 39.126 38.7002 38.499 37.5982 36.713H40.7142Z" fill="#00B0E8"/>
</svg>
