<svg width="16" height="17" viewBox="0 0 16 17" fill="none" xmlns="http://www.w3.org/2000/svg">
<path d="M12.8125 10.25H11.9375C11.8215 10.25 11.7102 10.2961 11.6281 10.3781C11.5461 10.4602 11.5 10.5715 11.5 10.6875V13.75H2.75V5H6.6875C6.80353 5 6.91481 4.95391 6.99686 4.87186C7.07891 4.78981 7.125 4.67853 7.125 4.5625V3.6875C7.125 3.57147 7.07891 3.46019 6.99686 3.37814C6.91481 3.29609 6.80353 3.25 6.6875 3.25H2.3125C1.9644 3.25 1.63056 3.38828 1.38442 3.63442C1.13828 3.88056 1 4.2144 1 4.5625L1 14.1875C1 14.5356 1.13828 14.8694 1.38442 15.1156C1.63056 15.3617 1.9644 15.5 2.3125 15.5H11.9375C12.2856 15.5 12.6194 15.3617 12.8656 15.1156C13.1117 14.8694 13.25 14.5356 13.25 14.1875V10.6875C13.25 10.5715 13.2039 10.4602 13.1219 10.3781C13.0398 10.2961 12.9285 10.25 12.8125 10.25ZM14.3438 1.5H10.8438C10.2594 1.5 9.96738 2.20848 10.3789 2.62109L11.3559 3.59809L4.69141 10.2601C4.63023 10.3211 4.58168 10.3935 4.54856 10.4733C4.51544 10.5531 4.49839 10.6386 4.49839 10.725C4.49839 10.8113 4.51544 10.8969 4.54856 10.9766C4.58168 11.0564 4.63023 11.1288 4.69141 11.1898L5.31129 11.8086C5.37226 11.8698 5.4447 11.9183 5.52447 11.9514C5.60424 11.9846 5.68976 12.0016 5.77613 12.0016C5.8625 12.0016 5.94803 11.9846 6.02779 11.9514C6.10756 11.9183 6.18001 11.8698 6.24098 11.8086L12.9022 5.14547L13.8789 6.12109C14.2891 6.53125 15 6.24414 15 5.65625V2.15625C15 1.9822 14.9309 1.81528 14.8078 1.69221C14.6847 1.56914 14.5178 1.5 14.3438 1.5V1.5Z" fill="#00B0E8"/>
</svg>
