<svg width="46" height="45" viewBox="0 0 46 45" fill="none" xmlns="http://www.w3.org/2000/svg">
<rect x="1.5" y="1" width="43" height="43" stroke="#BBCED4" stroke-width="2"/>
<path d="M16.1089 27.485H19.0729V29.86H16.1089V27.485ZM19.0729 18.118V20.284H16.1089V18.118H19.0729ZM19.0729 25.015H16.1089V22.754H19.0729V25.015ZM8.85094 22.906C9.13594 22.564 9.40194 22.203 9.68694 21.823C9.85794 22.146 10.0099 22.488 10.1619 22.849L8.85094 22.906ZM21.8659 29.86V15.648H13.4489V29.86H12.2329L13.1069 29.537C12.8789 28.568 12.3849 27.105 11.9099 25.965L10.2189 26.516V25.053L10.9599 24.996C11.0549 25.338 11.1309 25.661 11.1879 25.946L13.2589 24.996C13.0309 23.875 12.3089 22.203 11.5679 20.911L9.80094 21.69C10.6939 20.493 11.5679 19.201 12.3469 18.023L10.0289 17.073C9.61094 17.966 9.04094 18.992 8.43294 19.999C8.31894 19.847 8.16694 19.676 8.03394 19.505C8.69894 18.441 9.47794 16.959 10.1999 15.61L7.76794 14.774C7.48294 15.743 7.00794 16.94 6.53294 17.966L6.15294 17.643L4.87994 19.562C5.63994 20.303 6.49494 21.272 7.04594 22.108C6.81794 22.412 6.60894 22.716 6.38094 23.001L4.87994 23.058L5.10794 25.433L7.78694 25.243V26.497L5.56394 26.098C5.44994 27.675 5.18394 29.385 4.68994 30.487C5.25994 30.696 6.28594 31.171 6.76094 31.475C7.23594 30.354 7.61594 28.606 7.78694 26.915V32.805H10.2189V27.561C10.5419 28.53 10.8459 29.575 10.9789 30.316L11.8339 30.012V32.33H23.0439V29.86H21.8659Z" fill="#BBCED4"/>
<path d="M41.1699 17.852H34.4249V14.755H31.5179V17.852H24.9059V20.569H41.1699V17.852ZM31.7079 28.188C31.4799 26.231 30.7959 23.4 29.9409 21.139L27.2999 21.842C28.0599 24.065 28.7249 27.048 28.8579 28.967L31.7079 28.188ZM36.6669 29.347C37.4269 27.238 38.2629 24.426 38.8709 21.652L35.6979 21.101C35.3559 23.78 34.5579 27.105 33.7409 29.347H24.2979V32.121H41.7589V29.347H36.6669Z" fill="#BBCED4"/>
</svg>
