<svg width="46" height="45" viewBox="0 0 46 45" fill="none" xmlns="http://www.w3.org/2000/svg">
<rect x="1.5" y="1" width="43" height="43" stroke="#BBCED4" stroke-width="2"/>
<path d="M14.4942 7.96588H19.2442V9.97988H14.4942V7.96588ZM22.8732 16.2309V13.7419H18.1802V12.3929H22.0182V5.55288H11.8912V12.3929H15.4062V13.7419H10.7132V16.2309H14.1332C13.0502 17.7129 11.5492 19.0809 9.9722 19.8979V9.25788C10.6182 8.06088 11.1882 6.82588 11.6632 5.62888L9.0982 4.79288C8.1482 7.41488 6.4952 10.0369 4.8042 11.6899C5.2602 12.3739 6.0012 13.8939 6.2292 14.5589C6.6092 14.1789 6.9892 13.7419 7.3502 13.2859V22.7479H9.9722V19.9359C10.5802 20.4679 11.4352 21.4559 11.8532 22.1209C13.1642 21.2469 14.3802 20.0309 15.4062 18.6059V22.8049H18.1802V18.4919C19.1492 19.9549 20.3082 21.2659 21.5052 22.1779C21.9422 21.4939 22.8352 20.4869 23.4622 19.9739C21.9802 19.0999 20.5172 17.7129 19.4532 16.2309H22.8732Z" fill="#BBCED4"/>
<path d="M26.9392 9.04888H37.6742V11.2529H40.6382V6.44588H33.8552V4.75488H30.8912V6.44588H24.1272V11.2529H26.9392V9.04888ZM25.8182 16.1169C26.9012 17.2949 28.1172 18.9289 28.5732 20.0119L30.9482 18.4349C30.4162 17.3139 29.1242 15.7939 28.0222 14.7109L25.8182 16.1169ZM40.9802 11.8419H36.4392V9.73288H33.5892V11.8419H23.8612V14.5399H33.5892V19.6509C33.5892 19.9739 33.4562 20.0689 33.0572 20.0689C32.6392 20.0689 31.1952 20.0689 30.0552 20.0119C30.4352 20.7719 30.8912 22.0069 31.0052 22.8239C32.7722 22.8239 34.1592 22.7669 35.1472 22.3489C36.1352 21.9309 36.4392 21.1899 36.4392 19.7079V14.5399H40.9802V11.8419Z" fill="#BBCED4"/>
<path d="M17.9712 33.6919H9.9152V31.7919H17.9712V33.6919ZM20.8022 29.2459H15.3492V27.8019H21.9612V25.2369H15.3492V23.7549H12.5372V29.2459H7.2742V36.2379H20.8022V29.2459ZM7.4832 41.7099C8.4522 40.6649 9.3642 38.9929 9.8582 37.4349L7.1982 36.7699C6.6852 38.1569 5.7922 39.6579 4.9182 40.4559L7.4832 41.7099ZM10.3522 37.5679C10.5802 38.9169 10.7322 40.6649 10.7322 41.7099L13.5252 41.3679C13.4872 40.3229 13.2592 38.6129 12.9742 37.3019L10.3522 37.5679ZM14.2472 37.5869C14.7792 38.8599 15.3492 40.5509 15.5392 41.5769L18.2372 40.8929C17.9902 39.8479 17.3442 38.2329 16.7742 37.0169L14.2472 37.5869ZM18.1042 37.4919C18.9782 38.8029 20.0042 40.5699 20.3842 41.6909L23.0632 40.6649C22.5882 39.5249 21.4862 37.8339 20.5932 36.5989L18.1042 37.4919Z" fill="#BBCED4"/>
<path d="M32.9812 34.6229V33.2929H34.3112V34.1859C34.3112 34.3379 34.3112 34.4709 34.3112 34.6229H32.9812ZM38.2442 33.2929V34.6229H36.7812V34.2619V33.2929H38.2442ZM33.7792 28.0679C34.4822 27.4409 35.0902 26.7759 35.5272 26.1299C35.9642 26.7569 36.5912 27.4409 37.2942 28.0679H33.7792ZM40.7142 36.7129V31.2219H36.7812V30.3099H38.9852V29.3789C39.4602 29.7019 39.9542 29.9869 40.4292 30.2149C40.7902 29.4359 41.3222 28.4479 41.8352 27.7829C39.8592 27.0989 37.9972 25.5599 36.6862 23.7739H34.1972C33.3422 25.1419 31.7272 26.7189 29.9602 27.6119V27.5929H28.4022V23.7549H25.8562V27.5929H23.7092V30.1389H25.7232C25.2482 32.2289 24.3362 34.6039 23.2722 36.0669C23.6712 36.7319 24.2412 37.8149 24.4882 38.5559C25.0012 37.8149 25.4572 36.8459 25.8562 35.7629V41.8049H28.4022V34.2999C28.6682 34.9269 28.9152 35.5349 29.0672 36.0099L30.4542 33.8819C30.1882 33.4259 28.8962 31.4119 28.4022 30.7469V30.1389H29.9602V28.7709C30.2452 29.2459 30.5112 29.7779 30.6632 30.1959C31.1952 29.9489 31.7082 29.6259 32.2212 29.2839V30.3099H34.3112V31.2219H30.6062V36.7129H33.8742C33.3232 37.9289 32.0882 39.0499 29.3902 39.8669C29.8272 40.3039 30.6062 41.3679 30.8532 41.9189C33.4562 41.1019 34.9382 39.8289 35.7932 38.4229C36.9712 40.3229 38.3962 41.2159 40.1252 41.8809C40.4102 41.0829 41.0752 40.1709 41.7022 39.6009C40.0492 39.1259 38.7002 38.4989 37.5982 36.7129H40.7142Z" fill="#BBCED4"/>
</svg>
