<svg width="46" height="45" viewBox="0 0 46 45" fill="none" xmlns="http://www.w3.org/2000/svg">
<rect x="1.5" y="1" width="43" height="43" stroke="#00B0E8" stroke-width="2"/>
<path d="M19.4149 21.025H17.4009V18.498H19.4149V21.025ZM22.1699 16.142H14.8169V23.362H22.1699V16.142ZM11.6249 18.935C11.5489 20.493 11.4539 21.158 11.2829 21.367C11.1119 21.538 10.9599 21.595 10.7129 21.595C10.4279 21.595 9.93393 21.576 9.36393 21.519C9.70593 20.74 9.93393 19.885 10.0859 18.935H11.6249ZM10.3329 16.579C10.3709 15.99 10.3899 15.382 10.4089 14.755H7.78693C7.76793 15.401 7.76793 16.009 7.72993 16.579H5.43093V18.935H7.46393C7.14093 20.455 6.43793 21.633 4.89893 22.507C5.48793 22.982 6.22893 23.97 6.53293 24.635C7.90093 23.837 8.77493 22.792 9.34493 21.557C9.70593 22.203 9.97193 23.191 10.0289 23.932C10.8839 23.951 11.6629 23.932 12.1379 23.837C12.6889 23.742 13.1259 23.552 13.5439 23.058C13.9999 22.469 14.1519 20.911 14.2659 17.51C14.2849 17.206 14.3039 16.579 14.3039 16.579H10.3329ZM22.6449 27.371V24.958H15.4249V23.856H12.5369V24.958H5.35493V27.371H11.0549C9.53493 28.644 7.23593 29.746 4.95593 30.354C5.52593 30.905 6.34293 31.931 6.74193 32.596C8.85093 31.855 10.9219 30.62 12.5369 29.1V32.843H15.4249V29.024C17.0779 30.487 19.1489 31.703 21.2579 32.406C21.6569 31.703 22.4929 30.639 23.0819 30.088C20.8779 29.537 18.6359 28.53 17.0779 27.371H22.6449Z" fill="#00B0E8"/>
<path d="M34.2729 21.253H38.6429V21.88H34.2729V21.253ZM34.2729 18.688H38.6429V19.315H34.2729V18.688ZM28.9529 26.573V25.015L29.5419 24.958C29.6369 25.338 29.7319 25.68 29.7699 25.984L31.4419 25.243V27.276H32.8289C32.5059 27.979 32.0879 28.606 31.5939 29.119C31.4799 28.245 31.1189 26.991 30.7199 26.022L28.9529 26.573ZM27.6989 22.83C27.9269 22.545 28.1549 22.241 28.3829 21.937C28.5159 22.203 28.6299 22.469 28.7629 22.754L27.6989 22.83ZM39.9349 24.198C39.5739 24.711 39.0609 25.3 38.5289 25.851C38.2439 25.262 38.0159 24.635 37.8449 24.046V23.97H41.2459V16.598H37.6359C37.9209 16.142 38.2059 15.667 38.4719 15.154L35.3179 14.717C35.1849 15.287 34.9569 15.971 34.7099 16.598H31.8029V23.97H35.3939V25.414L34.3109 24.977L33.9119 25.034H31.8219C31.5939 23.913 30.9099 22.241 30.1879 20.949L28.6489 21.595C29.5039 20.436 30.3589 19.201 31.0999 18.08L28.8769 17.073C28.4589 17.947 27.9079 18.954 27.3189 19.942C27.2049 19.79 27.0909 19.638 26.9579 19.486C27.6229 18.422 28.4019 16.94 29.1049 15.591L26.7299 14.774C26.4449 15.724 25.9889 16.902 25.5139 17.928L25.1719 17.605L23.8419 19.486C24.5639 20.246 25.3999 21.234 25.9129 22.089C25.6849 22.393 25.4759 22.697 25.2669 22.982L23.8419 23.058L24.1269 25.414L26.5969 25.205V26.459L24.4689 26.098C24.3549 27.675 24.1079 29.385 23.6139 30.487C24.1459 30.696 25.1339 31.133 25.5899 31.437C26.0459 30.335 26.4069 28.682 26.5969 27.029V32.805H28.9529V26.991C29.2759 27.941 29.5419 29.081 29.5989 29.86L31.4609 29.271C31.0809 29.632 30.6629 29.955 30.2069 30.221C30.7009 30.582 31.5559 31.532 31.8979 32.045C33.4179 31.057 34.6529 29.366 35.3939 27.029V30.24C35.3939 30.43 35.3369 30.487 35.1089 30.487C34.8999 30.487 34.2349 30.487 33.6839 30.468C33.9689 31.133 34.2539 32.121 34.3299 32.805C35.4699 32.805 36.3249 32.767 37.0089 32.387C37.6929 32.026 37.8449 31.38 37.8449 30.278V29.005C38.5669 30.221 39.4979 31.323 40.7139 32.026C41.0559 31.342 41.8539 30.297 42.3479 29.803C41.2839 29.328 40.4289 28.625 39.7449 27.789C40.4859 27.219 41.3029 26.535 42.1579 25.87L39.9349 24.198Z" fill="#00B0E8"/>
</svg>
