<svg width="46" height="45" viewBox="0 0 46 45" fill="none" xmlns="http://www.w3.org/2000/svg">
<rect x="1.5" y="1" width="43" height="43" stroke="#00B0E8" stroke-width="2"/>
<path d="M13.3539 20.62C13.9809 19.043 14.3609 17.276 14.5699 15.566C15.0449 16.706 15.5959 17.77 16.2609 18.701C15.4249 19.499 14.4559 20.126 13.3539 20.62ZM19.3959 13.115C19.0539 14.388 18.5979 15.509 18.0279 16.497C17.3249 15.49 16.7549 14.35 16.3369 13.115H19.3959ZM20.7829 10.512L20.3079 10.588H14.8169V8.30797H22.5309V5.70497H12.0809V11.12C12.0809 14.065 11.9289 18.245 9.97186 21.038V9.20097C10.6369 8.02297 11.2069 6.82597 11.6819 5.64797L9.09786 4.79297C8.10986 7.39597 6.39986 9.97997 4.65186 11.595C5.10786 12.298 5.84886 13.837 6.07686 14.502C6.51386 14.084 6.93186 13.609 7.34986 13.096V22.767H9.97186V21.114C10.5799 21.437 11.7009 22.387 12.1379 22.881C12.6129 22.235 13.0119 21.475 13.3349 20.677C13.9049 21.152 14.7409 22.254 15.1019 22.881C16.2039 22.349 17.1919 21.646 18.0849 20.753C19.0539 21.608 20.1559 22.311 21.4479 22.862C21.8469 22.14 22.6829 21.038 23.2909 20.487C21.9609 20.012 20.8399 19.366 19.8709 18.53C21.1059 16.592 21.9989 14.122 22.4739 11.12L20.7829 10.512Z" fill="#00B0E8"/>
<path d="M30.3019 5.30597H24.3929V7.35797H30.3019V5.30597ZM31.0239 7.90897H23.4049V10.056H31.0239V7.90897ZM30.3399 13.248H24.3359V15.3H30.3399V13.248ZM37.1229 15.395C36.7619 16.117 36.3059 16.763 35.7549 17.333C35.1469 16.744 34.6529 16.098 34.2729 15.395H37.1229ZM27.9459 19.689H26.5779V18.074H27.9459V19.689ZM38.8899 12.83L38.4149 12.925H32.5629C34.2349 11.557 34.5959 9.44797 34.6149 7.68097H36.0779V9.35297C36.0779 11.557 36.5909 12.26 38.3199 12.26H39.3269C40.7139 12.26 41.3409 11.557 41.5689 9.10597C40.8849 8.93497 39.8209 8.53597 39.3459 8.13697C39.3079 9.69497 39.2319 9.94197 39.0419 9.94197H38.8329C38.6809 9.94197 38.6619 9.88497 38.6619 9.31497V5.26797H32.0119V7.52897C32.0119 8.76397 31.8599 10.189 30.3399 11.291V10.626H24.3359V12.678H30.3399V11.5C30.8529 11.823 31.6129 12.469 32.0499 12.925H31.2709V15.395H34.1969L31.8219 16.155C32.3539 17.181 32.9999 18.131 33.7219 18.948C32.7339 19.556 31.5749 20.012 30.3019 20.335V15.927H24.2599V22.52H26.5779V21.836H30.3019V20.468C30.7959 21.076 31.4039 22.121 31.6699 22.786C33.2279 22.311 34.6149 21.665 35.8309 20.848C36.9899 21.684 38.3009 22.33 39.8209 22.786C40.2009 22.083 40.9989 20.962 41.6069 20.411C40.2579 20.088 39.0229 19.594 37.9399 18.986C39.1939 17.561 40.1249 15.756 40.6949 13.476L38.8899 12.83Z" fill="#00B0E8"/>
<path d="M10.5609 36.105C10.9409 35.706 11.2829 35.307 11.6059 34.87H16.6599C16.9829 35.288 17.3439 35.706 17.7239 36.105H15.3679V35.136H12.5559V36.105H10.5609ZM11.3019 32.077H16.7549V32.628H11.3019V32.077ZM16.7549 27.175V27.745H11.3019V27.175H16.7549ZM11.3019 29.626H16.7549V30.196H11.3019V29.626ZM18.5599 38.252V36.903C19.4339 37.682 20.4219 38.328 21.4099 38.784C21.8089 38.138 22.6259 37.15 23.2149 36.656C22.0559 36.238 20.8969 35.611 19.9279 34.87H23.0249V32.628H19.5859V27.175H22.0559V24.971H19.5859V23.774H16.7549V24.971H11.3019V23.755H8.52786V24.971H6.05786V27.175H8.52786V32.628H4.97486V34.87H8.28086C7.29286 35.687 6.05786 36.371 4.80386 36.808C5.37386 37.321 6.17186 38.29 6.55186 38.917C7.59686 38.48 8.58486 37.853 9.47786 37.112V38.252H12.5559V39.031H6.79886V41.273H21.4289V39.031H15.3679V38.252H18.5599Z" fill="#00B0E8"/>
<path d="M37.1799 31.963H39.4219V30.462C39.7069 30.956 40.0109 31.374 40.3529 31.716C40.6759 31.222 41.3029 30.538 41.7399 30.196C40.9609 29.607 40.2389 28.562 39.7449 27.498H41.3789V25.446H39.4219V23.755H37.1799V25.446H35.7169V27.498H36.9519C36.4389 28.562 35.6409 29.55 34.8619 30.101C35.2229 30.519 35.6789 31.336 35.8689 31.83C36.3249 31.45 36.7619 30.937 37.1799 30.386V31.963ZM27.7369 37.093H26.8819V32.837H27.7369V37.093ZM37.0849 37.834H39.9159V35.668H37.0849V34.452H38.5859C38.5099 34.718 38.4529 34.946 38.3769 35.155L40.4289 35.839C40.7899 35.003 41.2459 33.749 41.5689 32.666L39.8019 32.134L39.4219 32.248H30.3779V34.452H34.5579V38.385C34.1399 38.024 33.7789 37.511 33.5129 36.846C33.6269 36.143 33.6839 35.44 33.7409 34.699H31.3279C31.2329 36.409 31.0619 38.024 30.0169 39.24V30.595C30.3019 31.032 30.5869 31.564 30.7389 31.944C31.1949 31.507 31.6509 30.937 32.0689 30.291V31.963H34.2729V29.626C34.4439 29.873 34.5959 30.082 34.7099 30.253L35.8879 28.733C35.6409 28.505 34.6149 27.764 34.2729 27.555V27.498H35.4699V25.446H34.2729V23.755H32.0689V25.446H30.4919V27.498H31.5939C31.0999 28.524 30.3779 29.531 29.6559 30.101C29.7509 30.215 29.8459 30.329 29.9409 30.481H27.1289C27.3949 29.341 27.5849 28.163 27.7559 26.985H30.3019V24.496H23.7089V26.985H25.2289C24.8869 29.911 24.2789 32.666 23.0819 34.49C23.5379 35.117 24.2409 36.504 24.4689 37.131L24.6589 36.865V40.741H26.8819V39.449H29.8269C29.6179 39.658 29.3899 39.848 29.1239 40.019C29.6749 40.418 30.3399 41.273 30.6439 41.843C31.6129 41.178 32.2589 40.361 32.7149 39.449C33.9309 41.159 35.6409 41.577 37.8449 41.577H41.0179C41.1129 40.931 41.4169 39.829 41.7209 39.297C40.8659 39.316 38.6619 39.335 38.0159 39.335C37.6929 39.335 37.3889 39.316 37.0849 39.297V37.834Z" fill="#00B0E8"/>
</svg>
