<svg width="130" height="1808" viewBox="0 0 130 1808" fill="none" xmlns="http://www.w3.org/2000/svg">
<g clip-path="url(#clip0_94_34851)">
<path fill-rule="evenodd" clip-rule="evenodd" d="M64.9999 55.2773C65.7197 55.2773 66.4099 55.5551 66.9189 56.0494C67.4278 56.5438 67.7137 57.2143 67.7137 57.9135V105.364C67.7137 106.063 67.4278 106.733 66.9189 107.228C66.4099 107.722 65.7197 108 64.9999 108C64.2802 108 63.5899 107.722 63.081 107.228C62.5721 106.733 62.2861 106.063 62.2861 105.364V57.9135C62.2861 57.2143 62.5721 56.5438 63.081 56.0494C63.5899 55.5551 64.2802 55.2773 64.9999 55.2773Z" fill="white"/>
<path fill-rule="evenodd" clip-rule="evenodd" d="M63.0786 50.7745C63.3307 50.529 63.6302 50.3342 63.9599 50.2013C64.2896 50.0684 64.643 50 65 50C65.357 50 65.7104 50.0684 66.0401 50.2013C66.3698 50.3342 66.6693 50.529 66.9214 50.7745L83.2041 66.5912C83.7137 67.0862 84 67.7576 84 68.4576C84 69.1576 83.7137 69.829 83.2041 70.324C82.6946 70.819 82.0034 71.0971 81.2828 71.0971C80.5621 71.0971 79.871 70.819 79.3614 70.324L65 56.3683L50.6386 70.324C50.129 70.819 49.4379 71.0971 48.7172 71.0971C47.9966 71.0971 47.3054 70.819 46.7959 70.324C46.2863 69.829 46 69.1576 46 68.4576C46 67.7576 46.2863 67.0862 46.7959 66.5912L63.0786 50.7745Z" fill="white"/>
<path d="M50.76 172.822C45.922 172.822 42.396 172.74 42.396 170.362C42.396 168.066 45.348 167.984 51.908 167.984L63.88 167.984C70.44 167.984 73.392 168.066 73.392 170.362C73.392 172.74 69.866 172.822 65.028 172.822L64.29 172.822L64.29 180.53L64.7 180.53C70.85 180.53 75.114 179.874 77.82 177.496C79.624 175.856 80.608 173.56 80.608 170.362C80.608 167.164 79.624 164.868 77.82 163.228C74.786 160.604 69.702 159.948 62.158 159.948L53.63 159.948C46.086 159.948 41.002 160.604 37.968 163.228C36.164 164.868 35.18 167.164 35.18 170.362C35.18 173.56 36.164 175.856 37.968 177.496C40.838 179.956 45.266 180.612 51.744 180.612L51.99 180.612L51.99 172.822L50.76 172.822ZM94.63 192.268L88.644 192.35L41.986 192.35L36 192.268L36 200.468L41.986 200.386L88.644 200.386L94.63 200.468L94.63 192.268ZM79.788 213.121L73.802 213.203L41.986 213.203L36 213.121L36 221.321L41.986 221.239L73.802 221.239L79.788 221.321L79.788 213.121ZM86.594 213.203L86.594 221.239L94.63 221.239L94.63 213.203L86.594 213.203ZM70.03 254.473C71.424 255.457 72.408 256.605 72.408 257.507C72.408 258.491 71.67 258.819 69.62 258.819L41.986 258.819L36 258.737L36 266.937L41.986 266.855L72.736 266.855C77.246 266.855 80.444 265.379 80.444 261.443C80.444 258.901 78.394 256.687 74.868 254.145L74.868 254.063C78.312 253.653 80.444 252.095 80.444 249.061C80.444 246.519 78.394 244.305 74.868 241.763L74.868 241.681L79.788 241.681L79.788 233.973L73.802 234.055L41.986 234.055L36 233.973L36 242.173L41.986 242.091L70.03 242.091C71.424 243.075 72.408 244.223 72.408 245.125C72.408 246.109 71.67 246.437 69.62 246.437L41.986 246.437L36 246.355L36 254.555L41.986 254.473L70.03 254.473ZM88.644 279.492L41.986 279.492L36 279.41L36 287.2L40.018 287.2L40.018 287.528C37.066 289.66 35.344 291.546 35.344 293.76C35.344 299.828 42.15 300.238 50.924 300.238L63.962 300.238C73.802 300.238 80.444 299.828 80.444 293.678C80.444 291.628 79.132 289.824 76.262 287.528L88.644 287.528L94.63 287.61L94.63 279.41L88.644 279.492ZM72.818 289.988C72.818 292.12 70.03 292.202 65.848 292.202L49.366 292.202C45.594 292.202 43.134 292.12 43.134 290.152C43.134 289.332 43.626 288.512 44.938 287.528L71.26 287.528C72.244 288.512 72.818 289.25 72.818 289.988ZM72.818 325.394L72.818 329.166L45.676 329.166C38.624 329.166 35.59 331.954 35.59 337.694C35.59 339.334 35.836 340.728 36 341.712L43.298 341.712C43.216 341.138 43.134 340.4 43.134 339.826C43.134 338.022 44.036 337.202 47.48 337.202L72.818 337.202L72.818 341.712L79.788 341.712L79.788 337.202L91.678 337.202L91.678 329.74L79.788 329.248L79.788 325.394L72.818 325.394ZM63.88 360.235C69.784 360.235 73.392 360.235 73.392 362.613C73.392 364.991 69.784 364.991 63.88 364.991L51.99 364.991C46.086 364.991 42.478 364.991 42.478 362.613C42.478 360.235 46.086 360.235 51.99 360.235L63.88 360.235ZM53.712 352.199C46.168 352.199 41.084 352.855 38.05 355.479C36.246 357.119 35.262 359.415 35.262 362.613C35.262 365.811 36.246 368.107 38.05 369.747C41.084 372.371 46.25 373.027 53.712 373.027L62.158 373.027C69.62 373.027 74.786 372.371 77.82 369.747C79.624 368.107 80.608 365.811 80.608 362.613C80.608 359.415 79.624 357.119 77.82 355.479C74.786 352.855 69.702 352.199 62.158 352.199L53.712 352.199ZM72.818 398.041L72.818 401.813L45.676 401.813C38.624 401.813 35.59 404.601 35.59 410.341C35.59 411.981 35.836 413.375 36 414.359L43.298 414.359C43.216 413.785 43.134 413.047 43.134 412.473C43.134 410.669 44.036 409.849 47.48 409.849L72.818 409.849L72.818 414.359L79.788 414.359L79.788 409.849L91.678 409.849L91.678 402.387L79.788 401.895L79.788 398.041L72.818 398.041ZM88.644 425.666L41.986 425.666L36 425.584L36 433.784L41.986 433.702L70.03 433.702C71.424 434.686 72.408 435.834 72.408 436.736C72.408 437.72 71.67 438.048 69.62 438.048L41.986 438.048L36 437.966L36 446.166L41.986 446.084L72.736 446.084C77.246 446.084 80.444 444.608 80.444 440.672C80.444 438.212 78.558 436.162 75.114 433.784L75.114 433.702L88.644 433.702L94.63 433.784L94.63 425.584L88.644 425.666ZM56.254 478.698L61.994 478.698C69.456 478.698 74.786 478.042 77.82 475.418C79.624 473.778 80.608 471.482 80.608 468.284C80.608 465.086 79.624 462.79 77.82 461.15C74.786 458.526 69.456 457.87 61.994 457.87L53.63 457.87C46.086 457.87 41.002 458.526 37.968 461.15C36.164 462.79 35.18 465.086 35.18 468.284C35.18 471.482 36.164 473.86 37.968 475.5C40.674 477.878 44.446 478.698 49.776 478.698L49.94 478.698L49.94 470.908L49.776 470.908C46.168 470.908 42.478 470.826 42.478 468.284C42.478 465.906 45.512 465.906 51.908 465.906L56.254 465.906L56.254 478.698ZM62.24 470.662L62.24 465.906L63.962 465.906C69.866 465.906 73.474 465.906 73.474 468.284C73.474 470.662 69.866 470.662 63.962 470.662L62.24 470.662ZM72.818 503.552L72.818 507.324L45.676 507.324C38.624 507.324 35.59 510.112 35.59 515.852C35.59 517.492 35.836 518.886 36 519.87L43.298 519.87C43.216 519.296 43.134 518.558 43.134 517.984C43.134 516.18 44.036 515.36 47.48 515.36L72.818 515.36L72.818 519.87L79.788 519.87L79.788 515.36L91.678 515.36L91.678 507.898L79.788 507.406L79.788 503.552L72.818 503.552ZM63.88 538.393C69.784 538.393 73.392 538.393 73.392 540.771C73.392 543.149 69.784 543.149 63.88 543.149L51.99 543.149C46.086 543.149 42.478 543.149 42.478 540.771C42.478 538.393 46.086 538.393 51.99 538.393L63.88 538.393ZM53.712 530.357C46.168 530.357 41.084 531.013 38.05 533.637C36.246 535.277 35.262 537.573 35.262 540.771C35.262 543.969 36.246 546.265 38.05 547.905C41.084 550.529 46.25 551.185 53.712 551.185L62.158 551.185C69.62 551.185 74.786 550.529 77.82 547.905C79.624 546.265 80.608 543.969 80.608 540.771C80.608 537.573 79.624 535.277 77.82 533.637C74.786 531.013 69.702 530.357 62.158 530.357L53.712 530.357ZM22.552 563.078L22.552 571.278L28.538 571.196L39.526 571.196C36.656 573.492 35.344 575.296 35.344 577.346C35.344 583.496 41.986 583.906 51.826 583.906L64.864 583.906C73.638 583.906 80.444 583.496 80.444 577.428C80.444 575.214 78.722 573.328 75.77 571.196L75.77 570.868L79.788 570.868L79.788 563.078L73.802 563.16L28.538 563.16L22.552 563.078ZM72.654 573.656C72.654 575.788 69.866 575.87 65.684 575.87L49.202 575.87C45.43 575.87 42.97 575.788 42.97 573.82C42.97 573 43.462 572.18 44.774 571.196L71.096 571.196C72.08 572.18 72.654 572.918 72.654 573.656Z" fill="white"/>
<path fill-rule="evenodd" clip-rule="evenodd" d="M64.9999 641.277C65.7197 641.277 66.4099 641.555 66.9189 642.049C67.4278 642.544 67.7137 643.214 67.7137 643.913V691.364C67.7137 692.063 67.4278 692.733 66.9189 693.228C66.4099 693.722 65.7197 694 64.9999 694C64.2802 694 63.5899 693.722 63.081 693.228C62.5721 692.733 62.2861 692.063 62.2861 691.364V643.913C62.2861 643.214 62.5721 642.544 63.081 642.049C63.5899 641.555 64.2802 641.277 64.9999 641.277Z" fill="white"/>
<path fill-rule="evenodd" clip-rule="evenodd" d="M63.0786 636.774C63.3307 636.529 63.6302 636.334 63.9599 636.201C64.2896 636.068 64.643 636 65 636C65.357 636 65.7104 636.068 66.0401 636.201C66.3698 636.334 66.6693 636.529 66.9214 636.774L83.2041 652.591C83.7137 653.086 84 653.758 84 654.458C84 655.158 83.7137 655.829 83.2041 656.324C82.6946 656.819 82.0034 657.097 81.2828 657.097C80.5621 657.097 79.871 656.819 79.3614 656.324L65 642.368L50.6386 656.324C50.129 656.819 49.4379 657.097 48.7172 657.097C47.9966 657.097 47.3054 656.819 46.7959 656.324C46.2863 655.829 46 655.158 46 654.458C46 653.758 46.2863 653.086 46.7959 652.591L63.0786 636.774Z" fill="white"/>
<path d="M50.76 758.822C45.922 758.822 42.396 758.74 42.396 756.362C42.396 754.066 45.348 753.984 51.908 753.984L63.88 753.984C70.44 753.984 73.392 754.066 73.392 756.362C73.392 758.74 69.866 758.822 65.028 758.822L64.29 758.822L64.29 766.53L64.7 766.53C70.85 766.53 75.114 765.874 77.82 763.496C79.624 761.856 80.608 759.56 80.608 756.362C80.608 753.164 79.624 750.868 77.82 749.228C74.786 746.604 69.702 745.948 62.158 745.948L53.63 745.948C46.086 745.948 41.002 746.604 37.968 749.228C36.164 750.868 35.18 753.164 35.18 756.362C35.18 759.56 36.164 761.856 37.968 763.496C40.838 765.956 45.266 766.612 51.744 766.612L51.99 766.612L51.99 758.822L50.76 758.822ZM94.63 778.268L88.644 778.35L41.986 778.35L36 778.268L36 786.468L41.986 786.386L88.644 786.386L94.63 786.468L94.63 778.268ZM79.788 799.121L73.802 799.203L41.986 799.203L36 799.121L36 807.321L41.986 807.239L73.802 807.239L79.788 807.321L79.788 799.121ZM86.594 799.203L86.594 807.239L94.63 807.239L94.63 799.203L86.594 799.203ZM70.03 840.473C71.424 841.457 72.408 842.605 72.408 843.507C72.408 844.491 71.67 844.819 69.62 844.819L41.986 844.819L36 844.737L36 852.937L41.986 852.855L72.736 852.855C77.246 852.855 80.444 851.379 80.444 847.443C80.444 844.901 78.394 842.687 74.868 840.145L74.868 840.063C78.312 839.653 80.444 838.095 80.444 835.061C80.444 832.519 78.394 830.305 74.868 827.763L74.868 827.681L79.788 827.681L79.788 819.973L73.802 820.055L41.986 820.055L36 819.973L36 828.173L41.986 828.091L70.03 828.091C71.424 829.075 72.408 830.223 72.408 831.125C72.408 832.109 71.67 832.437 69.62 832.437L41.986 832.437L36 832.355L36 840.555L41.986 840.473L70.03 840.473ZM88.644 865.492L41.986 865.492L36 865.41L36 873.2L40.018 873.2L40.018 873.528C37.066 875.66 35.344 877.546 35.344 879.76C35.344 885.828 42.15 886.238 50.924 886.238L63.962 886.238C73.802 886.238 80.444 885.828 80.444 879.678C80.444 877.628 79.132 875.824 76.262 873.528L88.644 873.528L94.63 873.61L94.63 865.41L88.644 865.492ZM72.818 875.988C72.818 878.12 70.03 878.202 65.848 878.202L49.366 878.202C45.594 878.202 43.134 878.12 43.134 876.152C43.134 875.332 43.626 874.512 44.938 873.528L71.26 873.528C72.244 874.512 72.818 875.25 72.818 875.988ZM72.818 911.394L72.818 915.166L45.676 915.166C38.624 915.166 35.59 917.954 35.59 923.694C35.59 925.334 35.836 926.728 36 927.712L43.298 927.712C43.216 927.138 43.134 926.4 43.134 925.826C43.134 924.022 44.036 923.202 47.48 923.202L72.818 923.202L72.818 927.712L79.788 927.712L79.788 923.202L91.678 923.202L91.678 915.74L79.788 915.248L79.788 911.394L72.818 911.394ZM63.88 946.235C69.784 946.235 73.392 946.235 73.392 948.613C73.392 950.991 69.784 950.991 63.88 950.991L51.99 950.991C46.086 950.991 42.478 950.991 42.478 948.613C42.478 946.235 46.086 946.235 51.99 946.235L63.88 946.235ZM53.712 938.199C46.168 938.199 41.084 938.855 38.05 941.479C36.246 943.119 35.262 945.415 35.262 948.613C35.262 951.811 36.246 954.107 38.05 955.747C41.084 958.371 46.25 959.027 53.712 959.027L62.158 959.027C69.62 959.027 74.786 958.371 77.82 955.747C79.624 954.107 80.608 951.811 80.608 948.613C80.608 945.415 79.624 943.119 77.82 941.479C74.786 938.855 69.702 938.199 62.158 938.199L53.712 938.199ZM72.818 984.041L72.818 987.813L45.676 987.813C38.624 987.813 35.59 990.601 35.59 996.341C35.59 997.981 35.836 999.375 36 1000.36L43.298 1000.36C43.216 999.785 43.134 999.047 43.134 998.473C43.134 996.669 44.036 995.849 47.48 995.849L72.818 995.849L72.818 1000.36L79.788 1000.36L79.788 995.849L91.678 995.849L91.678 988.387L79.788 987.895L79.788 984.041L72.818 984.041ZM88.644 1011.67L41.986 1011.67L36 1011.58L36 1019.78L41.986 1019.7L70.03 1019.7C71.424 1020.69 72.408 1021.83 72.408 1022.74C72.408 1023.72 71.67 1024.05 69.62 1024.05L41.986 1024.05L36 1023.97L36 1032.17L41.986 1032.08L72.736 1032.08C77.246 1032.08 80.444 1030.61 80.444 1026.67C80.444 1024.21 78.558 1022.16 75.114 1019.78L75.114 1019.7L88.644 1019.7L94.63 1019.78L94.63 1011.58L88.644 1011.67ZM56.254 1064.7L61.994 1064.7C69.456 1064.7 74.786 1064.04 77.82 1061.42C79.624 1059.78 80.608 1057.48 80.608 1054.28C80.608 1051.09 79.624 1048.79 77.82 1047.15C74.786 1044.53 69.456 1043.87 61.994 1043.87L53.63 1043.87C46.086 1043.87 41.002 1044.53 37.968 1047.15C36.164 1048.79 35.18 1051.09 35.18 1054.28C35.18 1057.48 36.164 1059.86 37.968 1061.5C40.674 1063.88 44.446 1064.7 49.776 1064.7L49.94 1064.7L49.94 1056.91L49.776 1056.91C46.168 1056.91 42.478 1056.83 42.478 1054.28C42.478 1051.91 45.512 1051.91 51.908 1051.91L56.254 1051.91L56.254 1064.7ZM62.24 1056.66L62.24 1051.91L63.962 1051.91C69.866 1051.91 73.474 1051.91 73.474 1054.28C73.474 1056.66 69.866 1056.66 63.962 1056.66L62.24 1056.66ZM72.818 1089.55L72.818 1093.32L45.676 1093.32C38.624 1093.32 35.59 1096.11 35.59 1101.85C35.59 1103.49 35.836 1104.89 36 1105.87L43.298 1105.87C43.216 1105.3 43.134 1104.56 43.134 1103.98C43.134 1102.18 44.036 1101.36 47.48 1101.36L72.818 1101.36L72.818 1105.87L79.788 1105.87L79.788 1101.36L91.678 1101.36L91.678 1093.9L79.788 1093.41L79.788 1089.55L72.818 1089.55ZM63.88 1124.39C69.784 1124.39 73.392 1124.39 73.392 1126.77C73.392 1129.15 69.784 1129.15 63.88 1129.15L51.99 1129.15C46.086 1129.15 42.478 1129.15 42.478 1126.77C42.478 1124.39 46.086 1124.39 51.99 1124.39L63.88 1124.39ZM53.712 1116.36C46.168 1116.36 41.084 1117.01 38.05 1119.64C36.246 1121.28 35.262 1123.57 35.262 1126.77C35.262 1129.97 36.246 1132.27 38.05 1133.91C41.084 1136.53 46.25 1137.19 53.712 1137.19L62.158 1137.19C69.62 1137.19 74.786 1136.53 77.82 1133.91C79.624 1132.27 80.608 1129.97 80.608 1126.77C80.608 1123.57 79.624 1121.28 77.82 1119.64C74.786 1117.01 69.702 1116.36 62.158 1116.36L53.712 1116.36ZM22.552 1149.08L22.552 1157.28L28.538 1157.2L39.526 1157.2C36.656 1159.49 35.344 1161.3 35.344 1163.35C35.344 1169.5 41.986 1169.91 51.826 1169.91L64.864 1169.91C73.638 1169.91 80.444 1169.5 80.444 1163.43C80.444 1161.21 78.722 1159.33 75.77 1157.2L75.77 1156.87L79.788 1156.87L79.788 1149.08L73.802 1149.16L28.538 1149.16L22.552 1149.08ZM72.654 1159.66C72.654 1161.79 69.866 1161.87 65.684 1161.87L49.202 1161.87C45.43 1161.87 42.97 1161.79 42.97 1159.82C42.97 1159 43.462 1158.18 44.774 1157.2L71.096 1157.2C72.08 1158.18 72.654 1158.92 72.654 1159.66Z" fill="white"/>
<path fill-rule="evenodd" clip-rule="evenodd" d="M64.9999 1227.28C65.7197 1227.28 66.4099 1227.56 66.9189 1228.05C67.4278 1228.54 67.7137 1229.21 67.7137 1229.91V1277.36C67.7137 1278.06 67.4278 1278.73 66.9189 1279.23C66.4099 1279.72 65.7197 1280 64.9999 1280C64.2802 1280 63.5899 1279.72 63.081 1279.23C62.5721 1278.73 62.2861 1278.06 62.2861 1277.36V1229.91C62.2861 1229.21 62.5721 1228.54 63.081 1228.05C63.5899 1227.56 64.2802 1227.28 64.9999 1227.28Z" fill="white"/>
<path fill-rule="evenodd" clip-rule="evenodd" d="M63.0786 1222.77C63.3307 1222.53 63.6302 1222.33 63.9599 1222.2C64.2896 1222.07 64.643 1222 65 1222C65.357 1222 65.7104 1222.07 66.0401 1222.2C66.3698 1222.33 66.6693 1222.53 66.9214 1222.77L83.2041 1238.59C83.7137 1239.09 84 1239.76 84 1240.46C84 1241.16 83.7137 1241.83 83.2041 1242.32C82.6946 1242.82 82.0034 1243.1 81.2828 1243.1C80.5621 1243.1 79.871 1242.82 79.3614 1242.32L65 1228.37L50.6386 1242.32C50.129 1242.82 49.4379 1243.1 48.7172 1243.1C47.9966 1243.1 47.3054 1242.82 46.7959 1242.32C46.2863 1241.83 46 1241.16 46 1240.46C46 1239.76 46.2863 1239.09 46.7959 1238.59L63.0786 1222.77Z" fill="white"/>
<path d="M50.76 1344.82C45.922 1344.82 42.396 1344.74 42.396 1342.36C42.396 1340.07 45.348 1339.98 51.908 1339.98L63.88 1339.98C70.44 1339.98 73.392 1340.07 73.392 1342.36C73.392 1344.74 69.866 1344.82 65.028 1344.82L64.29 1344.82L64.29 1352.53L64.7 1352.53C70.85 1352.53 75.114 1351.87 77.82 1349.5C79.624 1347.86 80.608 1345.56 80.608 1342.36C80.608 1339.16 79.624 1336.87 77.82 1335.23C74.786 1332.6 69.702 1331.95 62.158 1331.95L53.63 1331.95C46.086 1331.95 41.002 1332.6 37.968 1335.23C36.164 1336.87 35.18 1339.16 35.18 1342.36C35.18 1345.56 36.164 1347.86 37.968 1349.5C40.838 1351.96 45.266 1352.61 51.744 1352.61L51.99 1352.61L51.99 1344.82L50.76 1344.82ZM94.63 1364.27L88.644 1364.35L41.986 1364.35L36 1364.27L36 1372.47L41.986 1372.39L88.644 1372.39L94.63 1372.47L94.63 1364.27ZM79.788 1385.12L73.802 1385.2L41.986 1385.2L36 1385.12L36 1393.32L41.986 1393.24L73.802 1393.24L79.788 1393.32L79.788 1385.12ZM86.594 1385.2L86.594 1393.24L94.63 1393.24L94.63 1385.2L86.594 1385.2ZM70.03 1426.47C71.424 1427.46 72.408 1428.61 72.408 1429.51C72.408 1430.49 71.67 1430.82 69.62 1430.82L41.986 1430.82L36 1430.74L36 1438.94L41.986 1438.86L72.736 1438.86C77.246 1438.86 80.444 1437.38 80.444 1433.44C80.444 1430.9 78.394 1428.69 74.868 1426.15L74.868 1426.06C78.312 1425.65 80.444 1424.1 80.444 1421.06C80.444 1418.52 78.394 1416.31 74.868 1413.76L74.868 1413.68L79.788 1413.68L79.788 1405.97L73.802 1406.06L41.986 1406.06L36 1405.97L36 1414.17L41.986 1414.09L70.03 1414.09C71.424 1415.08 72.408 1416.22 72.408 1417.13C72.408 1418.11 71.67 1418.44 69.62 1418.44L41.986 1418.44L36 1418.36L36 1426.56L41.986 1426.47L70.03 1426.47ZM88.644 1451.49L41.986 1451.49L36 1451.41L36 1459.2L40.018 1459.2L40.018 1459.53C37.066 1461.66 35.344 1463.55 35.344 1465.76C35.344 1471.83 42.15 1472.24 50.924 1472.24L63.962 1472.24C73.802 1472.24 80.444 1471.83 80.444 1465.68C80.444 1463.63 79.132 1461.82 76.262 1459.53L88.644 1459.53L94.63 1459.61L94.63 1451.41L88.644 1451.49ZM72.818 1461.99C72.818 1464.12 70.03 1464.2 65.848 1464.2L49.366 1464.2C45.594 1464.2 43.134 1464.12 43.134 1462.15C43.134 1461.33 43.626 1460.51 44.938 1459.53L71.26 1459.53C72.244 1460.51 72.818 1461.25 72.818 1461.99ZM72.818 1497.39L72.818 1501.17L45.676 1501.17C38.624 1501.17 35.59 1503.95 35.59 1509.69C35.59 1511.33 35.836 1512.73 36 1513.71L43.298 1513.71C43.216 1513.14 43.134 1512.4 43.134 1511.83C43.134 1510.02 44.036 1509.2 47.48 1509.2L72.818 1509.2L72.818 1513.71L79.788 1513.71L79.788 1509.2L91.678 1509.2L91.678 1501.74L79.788 1501.25L79.788 1497.39L72.818 1497.39ZM63.88 1532.24C69.784 1532.24 73.392 1532.24 73.392 1534.61C73.392 1536.99 69.784 1536.99 63.88 1536.99L51.99 1536.99C46.086 1536.99 42.478 1536.99 42.478 1534.61C42.478 1532.24 46.086 1532.24 51.99 1532.24L63.88 1532.24ZM53.712 1524.2C46.168 1524.2 41.084 1524.86 38.05 1527.48C36.246 1529.12 35.262 1531.42 35.262 1534.61C35.262 1537.81 36.246 1540.11 38.05 1541.75C41.084 1544.37 46.25 1545.03 53.712 1545.03L62.158 1545.03C69.62 1545.03 74.786 1544.37 77.82 1541.75C79.624 1540.11 80.608 1537.81 80.608 1534.61C80.608 1531.42 79.624 1529.12 77.82 1527.48C74.786 1524.86 69.702 1524.2 62.158 1524.2L53.712 1524.2ZM72.818 1570.04L72.818 1573.81L45.676 1573.81C38.624 1573.81 35.59 1576.6 35.59 1582.34C35.59 1583.98 35.836 1585.38 36 1586.36L43.298 1586.36C43.216 1585.79 43.134 1585.05 43.134 1584.47C43.134 1582.67 44.036 1581.85 47.48 1581.85L72.818 1581.85L72.818 1586.36L79.788 1586.36L79.788 1581.85L91.678 1581.85L91.678 1574.39L79.788 1573.9L79.788 1570.04L72.818 1570.04ZM88.644 1597.67L41.986 1597.67L36 1597.58L36 1605.78L41.986 1605.7L70.03 1605.7C71.424 1606.69 72.408 1607.83 72.408 1608.74C72.408 1609.72 71.67 1610.05 69.62 1610.05L41.986 1610.05L36 1609.97L36 1618.17L41.986 1618.08L72.736 1618.08C77.246 1618.08 80.444 1616.61 80.444 1612.67C80.444 1610.21 78.558 1608.16 75.114 1605.78L75.114 1605.7L88.644 1605.7L94.63 1605.78L94.63 1597.58L88.644 1597.67ZM56.254 1650.7L61.994 1650.7C69.456 1650.7 74.786 1650.04 77.82 1647.42C79.624 1645.78 80.608 1643.48 80.608 1640.28C80.608 1637.09 79.624 1634.79 77.82 1633.15C74.786 1630.53 69.456 1629.87 61.994 1629.87L53.63 1629.87C46.086 1629.87 41.002 1630.53 37.968 1633.15C36.164 1634.79 35.18 1637.09 35.18 1640.28C35.18 1643.48 36.164 1645.86 37.968 1647.5C40.674 1649.88 44.446 1650.7 49.776 1650.7L49.94 1650.7L49.94 1642.91L49.776 1642.91C46.168 1642.91 42.478 1642.83 42.478 1640.28C42.478 1637.91 45.512 1637.91 51.908 1637.91L56.254 1637.91L56.254 1650.7ZM62.24 1642.66L62.24 1637.91L63.962 1637.91C69.866 1637.91 73.474 1637.91 73.474 1640.28C73.474 1642.66 69.866 1642.66 63.962 1642.66L62.24 1642.66ZM72.818 1675.55L72.818 1679.32L45.676 1679.32C38.624 1679.32 35.59 1682.11 35.59 1687.85C35.59 1689.49 35.836 1690.89 36 1691.87L43.298 1691.87C43.216 1691.3 43.134 1690.56 43.134 1689.98C43.134 1688.18 44.036 1687.36 47.48 1687.36L72.818 1687.36L72.818 1691.87L79.788 1691.87L79.788 1687.36L91.678 1687.36L91.678 1679.9L79.788 1679.41L79.788 1675.55L72.818 1675.55ZM63.88 1710.39C69.784 1710.39 73.392 1710.39 73.392 1712.77C73.392 1715.15 69.784 1715.15 63.88 1715.15L51.99 1715.15C46.086 1715.15 42.478 1715.15 42.478 1712.77C42.478 1710.39 46.086 1710.39 51.99 1710.39L63.88 1710.39ZM53.712 1702.36C46.168 1702.36 41.084 1703.01 38.05 1705.64C36.246 1707.28 35.262 1709.57 35.262 1712.77C35.262 1715.97 36.246 1718.27 38.05 1719.91C41.084 1722.53 46.25 1723.19 53.712 1723.19L62.158 1723.19C69.62 1723.19 74.786 1722.53 77.82 1719.91C79.624 1718.27 80.608 1715.97 80.608 1712.77C80.608 1709.57 79.624 1707.28 77.82 1705.64C74.786 1703.01 69.702 1702.36 62.158 1702.36L53.712 1702.36ZM22.552 1735.08L22.552 1743.28L28.538 1743.2L39.526 1743.2C36.656 1745.49 35.344 1747.3 35.344 1749.35C35.344 1755.5 41.986 1755.91 51.826 1755.91L64.864 1755.91C73.638 1755.91 80.444 1755.5 80.444 1749.43C80.444 1747.21 78.722 1745.33 75.77 1743.2L75.77 1742.87L79.788 1742.87L79.788 1735.08L73.802 1735.16L28.538 1735.16L22.552 1735.08ZM72.654 1745.66C72.654 1747.79 69.866 1747.87 65.684 1747.87L49.202 1747.87C45.43 1747.87 42.97 1747.79 42.97 1745.82C42.97 1745 43.462 1744.18 44.774 1743.2L71.096 1743.2C72.08 1744.18 72.654 1744.92 72.654 1745.66Z" fill="white"/>
</g>
<path d="M129 -4.37114e-08L129 1808L131 1808L131 4.37114e-08L129 -4.37114e-08ZM0.999921 1808L1 -5.63877e-06L-1 -5.72619e-06L-1.00008 1808L0.999921 1808Z" fill="white" mask="url(#path-1-inside-1_94_34851)"/>
<defs>
<clipPath id="clip0_94_34851">
<path d="M130 0L130 1808L-7.90302e-05 1808L0 -5.68248e-06L130 0Z" fill="white"/>
</clipPath>
</defs>
</svg>
