<svg width="1107" height="193" viewBox="0 0 1107 193" fill="none" xmlns="http://www.w3.org/2000/svg">
<ellipse cx="3.5" cy="3.84172" rx="3.5" ry="3.84172" transform="matrix(-1 0 0 1 1028 0.544922)" fill="#FDFF00"/>
<ellipse cx="1.5" cy="1.64645" rx="1.5" ry="1.64645" transform="matrix(-1 0 0 1 1107 104.82)" fill="#FDFF00"/>
<ellipse cx="1" cy="1.09763" rx="1" ry="1.09763" transform="matrix(-1 0 0 1 967 159.703)" fill="#FDFF00"/>
<ellipse cx="1" cy="1.09763" rx="1" ry="1.09763" transform="matrix(-1 0 0 1 165 83.9648)" fill="#FDFF00"/>
<ellipse cx="1" cy="1.09763" rx="1" ry="1.09763" transform="matrix(-1 0 0 1 288 142.139)" fill="#FDFF00"/>
<ellipse cx="1" cy="1.09763" rx="1" ry="1.09763" transform="matrix(-1 0 0 1 914 80.6719)" fill="#FDFF00"/>
<ellipse cx="3.5" cy="3.84172" rx="3.5" ry="3.84172" transform="matrix(-1 0 0 1 358 184.947)" fill="#FDFF00"/>
<ellipse cx="1.5" cy="1.64645" rx="1.5" ry="1.64645" transform="matrix(-1 0 0 1 3 91.6484)" fill="#FDFF00"/>
<ellipse cx="2.5" cy="2.74408" rx="2.5" ry="2.74408" transform="matrix(-1 0 0 1 214 167.385)" fill="#FDFF00"/>
</svg>
