<svg width="469" height="151" viewBox="0 0 469 151" fill="none" xmlns="http://www.w3.org/2000/svg">
<path d="M99.8302 53.6268C97.931 59.6777 95.913 63.4743 93.8357 65.076C92.1738 66.3811 88.9095 66.9743 84.1613 66.9743H64.9906C61.6669 66.9743 59.5895 66.559 58.7586 65.6692C57.9277 64.7794 57.9277 62.9997 58.7586 60.3896L59.7676 57.1862H50.2713L49.0249 61.2201H37.3325L45.6418 34.8218H100.721L95.1414 52.559L99.8302 53.6268ZM106.062 30.7879H95.2601L98.5245 20.4658H83.2117L79.1757 33.398H67.3053L71.3413 20.4658H56.6813L53.4169 30.7879H42.4961L48.3127 12.2201H73.8934L74.4276 10.4997H53.4169L55.791 2.96582H110.514L108.14 10.4997H86.3573L85.8232 12.2201H111.938L106.122 30.7879H106.062ZM62.023 49.8896L62.6759 47.8726H53.1795L52.5266 49.8896H62.023ZM65.7028 33.2201H54.3072L55.791 28.5336H67.1866L65.7028 33.2201ZM64.219 42.8896L64.8719 40.8726H55.3755L54.7227 42.8896H64.219ZM67.6614 26.8726H56.2658L57.7496 22.1268H69.1452L67.6614 26.8726ZM86.9508 56.7116H71.6974L71.2819 58.0167C71.1038 58.4913 71.1038 58.7285 71.2819 58.8472C71.4006 58.9065 71.7567 58.9658 72.4096 58.9658H82.9743C84.28 58.9658 85.2296 58.8472 85.7044 58.6099C86.1793 58.3726 86.6541 57.7794 87.0102 56.7709L86.9508 56.7116ZM84.28 49.8896L84.9329 47.8726H74.5463L73.8934 49.8896H84.28ZM86.476 42.8896L87.1289 40.8726H76.7423L76.0894 42.8896H86.476ZM92.7673 33.2201H80.8969L82.3807 28.5336H94.2511L92.7673 33.2201ZM94.726 26.8726H82.8555L84.3394 22.1268H96.2098L94.726 26.8726Z" fill="white"/>
<path d="M174.436 2.07608C173.249 4.03371 172.358 5.51676 171.765 6.46591H184.348L175.563 34.5252H171.231L176.454 40.1015C173.367 43.3642 170.162 46.3303 166.839 48.9405C168.085 51.3134 169.747 53.7456 171.884 56.2964L162.328 65.8473C159.835 61.9913 158.055 58.3134 156.927 54.8727L155.562 59.2032C154.612 62.2286 153.484 64.3049 152.119 65.432C150.754 66.5591 148.914 67.093 146.481 67.093H139.418L139.715 57.8981C137.222 60.8049 134.492 63.5337 131.643 66.1439L128.972 58.8473L125.411 60.2117C125.767 56.4151 126.301 52.3812 127.013 48.0507L120.96 67.3896H110.632L116.864 47.5168C114.253 53.271 111.523 58.7286 108.555 63.7117L102.382 59.2032C105.528 54.2795 108.496 48.6439 111.285 42.2371L117.992 43.8981L118.882 40.9913C116.152 41.2286 112.947 41.4659 109.267 41.6439L111.344 32.093C112.888 32.093 114.431 32.093 115.974 32.0337C117.576 30.6693 119.12 29.2456 120.722 27.7625C119.06 24.7371 117.22 21.771 115.143 18.9235L124.283 8.00829C124.758 8.77947 125.174 9.49134 125.47 10.0846C127.785 7.35574 130.278 4.21167 132.889 0.770996L140.842 4.68625C137.163 8.89812 133.305 13.11 129.388 17.2032L130.159 18.7456C133.423 15.4829 136.747 11.8642 140.249 8.00829L147.49 11.8642L149.211 6.46591H159.42C160.488 4.92354 161.616 3.08456 162.862 0.88964L174.376 2.01676L174.436 2.07608ZM128.26 31.3218C128.735 31.3218 130.278 31.0846 132.771 30.7286C132.771 29.7201 132.771 28.4744 132.652 27.1693L128.2 31.3218H128.26ZM129.625 39.6269L128.438 43.3642L134.907 41.4659C134.492 43.7795 133.958 47.3981 133.305 52.2032C136.154 49.771 138.468 47.3981 140.19 45.0846H135.619L137.281 39.7456L132.236 41.2286L132.414 39.1524C131.821 39.271 130.871 39.3896 129.625 39.5676V39.6269ZM135.441 24.5591L140.368 22.8981C140.605 26.0422 140.605 29.8388 140.486 34.3473L147.074 13.4066C144.107 16.3727 140.249 20.0507 135.501 24.4998L135.441 24.5591ZM147.549 47.5761C145.769 50.3642 143.632 53.271 141.139 56.2371H144.285C145.65 56.2371 146.6 55.4659 147.134 53.8049L153.188 34.5252H140.486V36.3049H151.11L147.609 47.5761H147.549ZM166.839 26.5168L167.492 24.4998H154.79L154.137 26.5168H166.839ZM169.569 17.7371L170.222 15.6015H157.52L156.868 17.7371H169.569ZM163.278 34.5252C163.218 36.7795 163.396 38.9151 163.871 41.11C166.601 38.6778 168.797 36.4829 170.578 34.5252H163.337H163.278Z" fill="white"/>
<path d="M242.928 35.8302C238.299 36.8387 233.491 38.0845 228.565 39.6862C228.149 41.8811 227.2 45.3811 225.775 50.2455H213.905C214.261 49.1777 214.855 47.2794 215.686 44.5506C211.294 46.6268 208.801 48.5251 208.267 50.1862C207.554 52.3811 210.7 53.4489 217.644 53.4489C222.155 53.4489 227.497 53.0929 233.551 52.3811L230.583 64.4235C225.301 64.9573 220.078 65.1946 214.973 65.1946C198.948 65.1946 192.479 60.5082 195.387 51.0167C197.405 44.6692 204.112 38.7963 215.626 33.5167C215.151 33.1607 214.499 32.9234 213.727 32.9234C210.997 32.9234 207.91 33.9912 204.409 36.1268C201.322 37.9658 198.355 40.3387 195.506 43.2455C191.47 47.3387 188.562 50.4235 186.662 52.4997L179.303 44.6099C187.137 37.254 194.259 29.5421 200.669 21.415L190.045 21.7116L193.607 9.66921C198.652 9.78785 203.815 9.84718 209.157 9.78785C210.522 7.71158 211.946 5.45735 213.43 2.96582L226.191 4.33023C225.063 6.10989 223.936 7.88955 222.808 9.55057C228.921 9.3726 236.221 9.01667 244.709 8.48277L241.148 20.2879C232.126 20.5845 223.105 20.8811 214.083 21.1184C213.074 22.3048 211.768 23.8472 210.106 25.6862C213.549 24.3218 216.873 23.6099 220.137 23.6099C224.47 23.6099 227.259 25.2709 228.506 28.5336C233.551 26.8726 238.536 25.4489 243.522 24.3218L242.988 35.8302H242.928Z" fill="white"/>
<path d="M311.064 32.5083C308.037 42.1185 301.034 49.2371 290.113 53.9235C282.1 57.3642 272.248 59.4405 260.556 60.0337L261.149 47.1015C282.219 46.271 294.089 41.4659 296.879 32.5676C298.66 26.932 294.98 24.0846 285.958 24.0846C277.53 24.0846 266.787 26.3981 253.611 30.9659L253.73 18.3303C268.153 13.7032 280.735 11.449 291.419 11.449C299.787 11.449 305.663 13.4066 309.106 17.2625C312.429 20.9405 313.141 26.0422 311.123 32.5083H311.064Z" fill="white"/>
<path d="M353.026 24.1438C350.949 24.2624 347.269 24.3811 341.927 24.4997C335.102 35.059 327.505 45.9743 319.196 57.3048L308.512 52.2624C315.634 43.6014 322.341 34.4658 328.573 24.8556L321.392 24.9743L324.775 12.8133C327.208 12.8133 331.007 12.8133 336.17 12.6946C338.248 9.19463 340.088 5.93192 341.749 2.96582L354.213 4.44887C352.314 7.77091 350.771 10.3811 349.643 12.2794C351.424 12.1607 353.738 12.0421 356.587 11.9234L353.026 24.1438ZM375.283 44.9065L367.924 57.0675C366.559 55.9997 364.541 54.6353 361.988 52.915L358.19 63.9489C354.273 64.6014 350.059 64.9573 345.489 64.9573C331.303 64.9573 325.784 59.915 328.929 49.7709C330.176 45.737 332.668 42.4743 336.348 39.9234C340.028 37.3726 344.42 36.1268 349.524 36.1268C351.542 36.1268 353.382 36.2455 355.104 36.5421L359.614 23.4912C358.605 23.3133 357.062 23.0167 355.104 22.7201L360.979 11.3302C368.992 12.1607 376.708 13.8811 384.127 16.3726L377.361 27.9997C376.292 27.7031 374.274 27.1099 371.425 26.2794L366.677 39.8048C369.407 41.1099 372.316 42.7709 375.402 44.8472L375.283 44.9065ZM351.186 47.576C349.287 47.0421 347.625 46.8048 346.082 46.8048C342.996 46.8048 341.096 47.9912 340.384 50.3048C339.672 52.559 341.334 53.6268 345.251 53.6268C347.032 53.6268 348.337 53.5675 349.168 53.3895L351.186 47.576Z" fill="white"/>
<path d="M455.408 10.0252L447.693 11.7455L446.09 18.1523C440.63 18.6862 435.229 19.1014 429.887 19.4574C429.887 20.1099 429.946 21.1184 430.065 22.3642C435.11 22.0082 440.749 21.5337 447.04 20.9404L444.132 31.9743C438.968 32.3303 434.695 32.5676 431.252 32.7455C431.905 37.3726 432.855 41.7625 434.042 45.915L420.747 49.7709C415.346 47.5167 409.589 46.4489 403.653 46.4489C398.371 46.4489 395.404 47.5167 394.751 49.7116C394.217 51.432 395.76 52.6184 399.38 53.1523C400.983 53.3896 403.653 53.5082 407.452 53.5082C414.099 53.5082 421.162 52.915 428.641 51.7286L425.614 64.1862C416.711 64.9574 409.233 65.3133 403.119 65.3133C385.729 65.3133 378.607 60.2709 381.753 50.3048C383.118 45.9743 385.967 42.593 390.24 40.0421C394.573 37.4913 399.677 36.2455 405.671 36.2455C410.42 36.2455 414.752 36.8981 418.67 38.0845C418.491 37.1353 418.254 35.593 417.898 33.4574C406.621 33.9913 396.294 34.2879 386.976 34.4659L390.002 23.7286C399.261 23.7286 408.164 23.5506 416.77 23.1353C416.77 22.5421 416.652 21.593 416.592 20.2879C409.945 20.5845 402.11 20.7625 392.97 20.8811L395.878 10.4998C402.763 10.6184 409.529 10.4998 416.058 10.1438L415.88 4.74552L429.531 3.44043C429.531 4.74552 429.531 6.64382 429.531 9.25399C431.193 9.13535 433.686 8.89806 437.009 8.54213C436.831 6.94043 436.653 5.33874 436.356 3.85569L444.013 2.13535C444.428 3.97433 444.725 5.87264 444.963 7.77094L447.099 7.47433C446.862 5.16077 446.565 3.20315 446.209 1.66077L453.984 -0.000244141C454.874 2.90654 455.349 6.28789 455.468 10.1438L455.408 10.0252Z" fill="white"/>
<path d="M63.1506 147.796H0L3.62048 136.347H28.2516L29.6167 132.076H9.61503L12.9388 121.517H15.3722L12.1672 114.101C17.8056 112.796 22.0196 111.432 24.8685 110.127C28.7264 108.347 31.7534 105.856 33.89 102.652H26.471L24.4531 109.059H12.2265L17.7463 91.4998H42.4367L44.3953 85.1523H57.5715L55.6129 91.4998H80.7782L75.6145 107.991H69.4419L72.2908 108.822C70.0948 113.508 68.0175 116.534 65.9401 117.839C64.575 118.729 62.3197 119.203 59.174 119.203H47.7191C44.514 119.203 42.6741 118.847 42.14 118.135C41.7245 117.542 41.9026 115.94 42.7335 113.39L46.1166 102.652H35.7299L43.9799 106.508C38.9943 113.39 31.9908 118.373 22.9692 121.517H66.415L63.0912 132.076H43.0896L41.7245 136.347H66.7711L63.1506 147.796ZM63.9222 106.39L65.1092 102.712H58.2244L56.5625 108.051C56.3251 108.822 56.2658 109.237 56.3845 109.356C56.5032 109.474 56.978 109.534 57.7496 109.534H59.1147C59.8862 109.534 60.4204 109.356 60.7172 109C61.0139 108.644 61.6074 107.635 62.379 105.915L63.9815 106.39H63.9222Z" fill="white"/>
<path d="M140.961 116.237C135.857 132.432 123.868 142.517 104.994 146.492L102.857 134.153C108.733 133.381 113.778 131.542 117.992 128.814C122.799 125.729 126.004 121.754 127.488 116.831C129.328 110.898 128.319 106.627 124.461 103.958L92.9452 144.949C87.01 143.526 82.6179 140.915 79.769 137.178C76.0892 132.492 75.4363 126.5 77.6917 119.263C80.3032 111.017 85.5855 104.017 93.5387 98.2035C101.492 92.4493 110.039 89.5425 119.238 89.5425C129.091 89.5425 135.916 92.4493 139.537 98.3221C142.623 103.305 143.098 109.237 140.902 116.178L140.961 116.237ZM113.066 101.348C108.317 101.644 103.688 103.602 99.1771 107.161C94.6664 110.72 91.7581 114.754 90.2743 119.322C88.9686 123.415 89.6214 126.381 92.1736 128.22L113.006 101.288L113.066 101.348Z" fill="white"/>
<path d="M151.348 143.525C146.896 146.314 142.623 148.746 138.528 150.881L138.884 137.83C143.217 135.873 147.193 133.915 150.636 131.898L153.841 121.636H145.531L149.152 110.008H169.45L162.328 132.788C162.328 134.449 162.981 135.636 164.465 136.288C165.77 136.881 167.907 137.119 170.934 137.119H205.833L199.364 148.39H165.414C161.734 148.39 159.004 148.153 157.224 147.678C154.553 146.966 152.594 145.542 151.348 143.466V143.525ZM202.509 135.22H164.405L174.673 102.534H185.653C185.653 102.534 186.128 101.822 187.018 100.517H172.537L173.546 97.2542L162.565 105.381C160.369 101.169 157.58 97.3135 154.197 93.8729L165.533 85.3898C168.619 88.1779 171.468 91.6779 173.902 95.9491L175.623 90.3729H182.27C181.974 89.0678 181.617 87.7034 181.261 86.2796L194.378 84.2627C194.853 86.161 195.15 88.1779 195.387 90.3135H198.948C200.373 88.4745 201.916 86.3389 203.459 84.0254L215.567 85.5678C214.498 86.9322 213.311 88.5339 211.887 90.2542H219.425L216.22 100.398H200.076C199.779 100.814 199.304 101.466 198.651 102.415H212.659L202.391 135.102L202.509 135.22ZM193.191 127.271L193.844 125.254H179.362L178.709 127.271H193.191ZM195.625 119.441L196.218 117.542H181.736L181.143 119.441H195.625ZM197.999 111.907L198.592 110.008H184.11L183.517 111.907H197.999Z" fill="white"/>
<path d="M276.343 118.254C271.714 119.263 266.906 120.508 261.98 122.11C261.565 124.305 260.615 127.805 259.19 132.669H247.32C247.676 131.602 248.27 129.703 249.101 126.974C244.709 129.051 242.216 130.949 241.682 132.61C240.969 134.805 244.115 135.873 251.059 135.873C255.57 135.873 260.912 135.517 266.966 134.805L263.998 146.847C258.716 147.381 253.493 147.618 248.388 147.618C232.363 147.618 225.894 142.873 228.802 133.44C230.82 127.093 237.527 121.22 249.041 115.94C248.566 115.585 247.914 115.347 247.142 115.347C244.412 115.347 241.325 116.415 237.824 118.551C234.737 120.39 231.77 122.763 228.921 125.669C224.885 129.763 221.977 132.847 220.077 134.924L212.718 127.034C220.552 119.678 227.674 111.966 234.085 103.839L223.461 104.135L227.022 92.093C232.067 92.2117 237.23 92.271 242.572 92.2117C243.937 90.1354 245.361 87.8219 246.845 85.3896L259.606 86.7541C258.478 88.5337 257.351 90.3134 256.223 91.9744C262.336 91.7964 269.636 91.4405 278.124 90.9066L274.563 102.712C265.541 103.008 256.52 103.305 247.498 103.542C246.489 104.729 245.183 106.271 243.521 108.11C246.964 106.746 250.288 106.034 253.552 106.034C257.885 106.034 260.674 107.695 261.921 110.957C266.966 109.296 271.951 107.873 276.937 106.746L276.403 118.254H276.343Z" fill="white"/>
<path d="M344.42 114.932C341.393 124.542 334.39 131.661 323.469 136.347C315.456 139.847 305.604 141.864 293.911 142.458L294.505 129.525C315.575 128.695 327.445 123.89 330.235 114.991C332.016 109.356 328.336 106.508 319.314 106.508C310.886 106.508 300.143 108.822 286.967 113.39L287.086 100.695C301.509 96.0677 314.091 93.8135 324.775 93.8135C333.143 93.8135 339.019 95.7711 342.461 99.627C345.785 103.305 346.497 108.407 344.42 114.873V114.932Z" fill="white"/>
<path d="M409.826 95.178C399.618 100.102 392.733 103.483 389.112 105.322C381.278 109.178 375.758 112.025 372.553 113.864C370.713 114.932 369.645 115.822 369.407 116.653C369.17 117.305 369.586 118.195 370.654 119.381C373.681 122.763 381.219 129.881 393.267 140.797L379.022 149.398C368.755 139.729 361.098 131.839 355.935 125.848C353.442 122.941 352.73 119.915 353.739 116.653C354.926 112.797 358.19 109.415 363.413 106.39C368.636 103.424 381.931 96.3645 403.297 85.3306L409.826 95.2373V95.178Z" fill="white"/>
<path d="M466.329 126.203C464.371 132.492 460.216 137.653 454.043 141.568C447.396 145.72 439.324 147.856 430.006 147.856C422.765 147.856 416.77 146.61 412.081 144.237C411.844 142.28 412.141 139.907 413.031 137.059C414.218 133.263 416.474 130.059 419.797 127.508C423.477 124.661 427.691 123.237 432.439 123.237C440.867 123.237 445.437 126.678 446.209 133.559C449.829 131.72 452.085 129.347 452.975 126.441C454.756 120.686 450.957 117.839 441.579 117.839C435.822 117.839 429.59 119.381 422.824 122.407C419.382 123.949 415.405 126.144 410.954 128.873L409.411 117.661L443.123 100.161L422.824 100.636L426.504 88.5339L468.941 87.8813L465.736 98.9746L448.761 107.873C449.889 107.695 450.898 107.636 451.847 107.636C458.079 107.814 462.471 109.653 465.023 113.093C467.576 116.534 467.991 120.924 466.329 126.203ZM434.22 136.881C433.982 134.093 432.321 132.669 429.175 132.669C426.682 132.669 425.08 133.737 424.486 135.814C426.029 136.585 428.522 136.941 431.964 136.941C433.033 136.941 433.745 136.941 434.22 136.881Z" fill="white"/>
</svg>
