<svg width="387" height="300" viewBox="0 0 387 300" fill="none" xmlns="http://www.w3.org/2000/svg">
<g clip-path="url(#clip0_293_43636)">
<path d="M342.559 185.251C342.181 185.251 341.817 185.046 341.638 184.683C340.717 182.84 341.253 63.2276 341.528 11.8918C341.528 11.3232 341.988 10.8711 342.559 10.8711C343.129 10.8711 343.59 11.3369 343.583 11.9055C343.273 69.6942 342.868 179.778 343.535 183.922C343.686 184.395 343.473 184.915 343.012 185.148C342.861 185.224 342.71 185.258 342.552 185.258L342.559 185.251Z" fill="black"/>
<path d="M207.132 88.0189L37.1316 152.767L35.5098 148.883L205.51 84.1348L207.132 88.0189Z" fill="#83A1FF"/>
<path d="M207.675 88.8892C207.62 88.9234 207.558 88.9508 207.496 88.9782L37.5026 153.734C36.9803 153.932 36.3962 153.679 36.1832 153.172L34.5614 149.288C34.4514 149.034 34.4583 148.74 34.5614 148.486C34.6713 148.233 34.8843 148.027 35.1386 147.932L205.139 83.1761C205.661 82.9774 206.245 83.2309 206.458 83.7446L208.08 87.6287C208.19 87.8822 208.183 88.1767 208.08 88.4302C207.998 88.622 207.853 88.7864 207.681 88.896L207.675 88.8892ZM37.695 151.453L205.771 87.4301L204.939 85.4435L36.8704 149.466L37.7019 151.453H37.695Z" fill="black"/>
<path d="M338.724 22.0919L63.3689 193.389L54.7239 179.572L341.734 1.02734L346.063 7.9324L338.724 22.0919Z" fill="#83A1FF"/>
<path d="M339.267 22.9689L63.9187 194.259C63.4377 194.561 62.7986 194.41 62.4962 193.931L53.8512 180.114C53.5488 179.634 53.7 178.997 54.181 178.696L341.191 0.157569C341.672 -0.143843 342.311 0.00686306 342.614 0.486381L346.936 7.39144C347.129 7.6997 347.142 8.08331 346.977 8.40527L339.638 22.5647C339.556 22.7292 339.425 22.8662 339.267 22.9621V22.9689ZM63.6988 191.971L337.941 21.3728L344.882 7.98056L341.411 2.4387L56.1396 179.901L63.6988 191.971Z" fill="black"/>
<path d="M165.831 118.763C167.394 118.763 168.662 117.499 168.662 115.94C168.662 114.382 167.394 113.118 165.831 113.118C164.267 113.118 163 114.382 163 115.94C163 117.499 164.267 118.763 165.831 118.763Z" fill="#83A1FF"/>
<path d="M167.879 119.208C166.071 120.332 163.68 119.784 162.553 117.982C161.426 116.18 161.976 113.797 163.783 112.673C165.59 111.55 167.982 112.098 169.109 113.899C170.236 115.701 169.686 118.085 167.879 119.208ZM164.876 114.413C164.03 114.941 163.776 116.05 164.298 116.893C164.821 117.735 165.941 117.989 166.786 117.468C167.631 116.948 167.886 115.831 167.363 114.989C166.841 114.146 165.721 113.892 164.876 114.413Z" fill="black"/>
<path d="M169.535 124.682C171.099 124.682 172.366 123.418 172.366 121.859C172.366 120.301 171.099 119.037 169.535 119.037C167.971 119.037 166.704 120.301 166.704 121.859C166.704 123.418 167.971 124.682 169.535 124.682Z" fill="#83A1FF"/>
<path d="M171.583 125.127C169.775 126.251 167.384 125.703 166.257 123.901C165.13 122.099 165.68 119.716 167.487 118.592C169.294 117.469 171.686 118.017 172.813 119.818C173.94 121.62 173.39 124.004 171.583 125.127ZM168.58 120.332C167.734 120.86 167.48 121.969 168.003 122.812C168.525 123.654 169.645 123.908 170.49 123.387C171.335 122.867 171.59 121.75 171.067 120.907C170.545 120.065 169.425 119.811 168.58 120.332Z" fill="black"/>
<path d="M201.723 96.4376C203.287 96.4376 204.555 95.174 204.555 93.6153C204.555 92.0566 203.287 90.793 201.723 90.793C200.16 90.793 198.892 92.0566 198.892 93.6153C198.892 95.174 200.16 96.4376 201.723 96.4376Z" fill="#83A1FF"/>
<path d="M203.764 96.8831C201.957 98.0065 199.566 97.4585 198.439 95.6569C197.312 93.8553 197.861 91.4714 199.669 90.3479C201.476 89.2245 203.868 89.7725 204.995 91.5741C206.122 93.3757 205.572 95.7596 203.764 96.8831ZM200.761 92.0879C199.916 92.6154 199.662 93.7251 200.184 94.5677C200.706 95.4103 201.827 95.6637 202.672 95.1431C203.517 94.6225 203.771 93.5059 203.249 92.6633C202.727 91.8207 201.607 91.5673 200.761 92.0879Z" fill="black"/>
<path d="M205.427 102.357C206.991 102.357 208.259 101.093 208.259 99.5342C208.259 97.9755 206.991 96.7119 205.427 96.7119C203.864 96.7119 202.596 97.9755 202.596 99.5342C202.596 101.093 203.864 102.357 205.427 102.357Z" fill="#83A1FF"/>
<path d="M207.469 102.802C205.661 103.925 203.27 103.377 202.143 101.576C201.016 99.7742 201.565 97.3903 203.373 96.2669C205.18 95.1434 207.572 95.6915 208.699 97.4931C209.826 99.2947 209.276 101.679 207.469 102.802ZM204.466 98.0068C203.62 98.5343 203.366 99.644 203.888 100.487C204.411 101.329 205.531 101.583 206.376 101.062C207.221 100.541 207.475 99.4248 206.953 98.5823C206.431 97.7397 205.311 97.4862 204.466 98.0068Z" fill="black"/>
<path d="M214.588 102.412L168.14 131.306C167.659 131.607 167.02 131.457 166.717 130.977L156.375 114.454C156.072 113.975 156.224 113.338 156.705 113.036L203.153 84.1419C203.634 83.8405 204.273 83.9912 204.575 84.4708L214.918 100.994C215.22 101.473 215.069 102.11 214.588 102.412ZM167.92 129.018L212.622 101.213L203.366 86.4299L158.663 114.235L167.92 129.018Z" fill="black"/>
<path d="M34.5796 183.348L-11.8716 212.248L0.430412 231.896L46.8816 202.996L34.5796 183.348Z" fill="black" stroke="black" stroke-width="3.27" stroke-linecap="round" stroke-linejoin="round"/>
<path d="M63.3832 193.395L34.3911 147.091L17.8172 157.402L46.8093 203.706L63.3832 193.395Z" fill="#83A1FF"/>
<path d="M63.9187 194.26L47.3434 204.57C46.8623 204.871 46.2232 204.72 45.9209 204.241L16.9347 157.94C16.6323 157.46 16.7835 156.823 17.2645 156.522L33.8399 146.212C34.3209 145.911 34.96 146.062 35.2624 146.541L64.2486 192.842C64.5509 193.321 64.3998 193.959 63.9187 194.26ZM47.1235 202.282L61.9533 193.054L34.0598 148.493L19.2299 157.721L47.1235 202.282Z" fill="black"/>
<path d="M337.068 32.4635L337.047 32.4772L63.8982 194.273C63.4103 194.561 62.778 194.403 62.4825 193.917C62.1939 193.438 62.352 192.814 62.8193 192.52L62.8399 192.506L335.618 30.929L337.721 21.8593C337.851 21.3044 338.401 20.9619 338.958 21.0921C339.514 21.2222 339.858 21.7702 339.728 22.3251L337.522 31.8196C337.46 32.0867 337.295 32.3128 337.061 32.4566L337.068 32.4635Z" fill="black"/>
<path d="M59.0464 186.484L46.1064 202.603L43.0415 197.705L55.9747 181.579L59.0464 186.484Z" fill="#83A1FF"/>
<path d="M46.6493 203.48C46.4707 203.589 46.2576 203.644 46.0446 203.63C45.7079 203.61 45.4055 203.432 45.2337 203.151L42.1688 198.253C41.9351 197.883 41.9626 197.41 42.2375 197.068L55.1775 180.942C55.3837 180.682 55.7067 180.538 56.0434 180.559C56.3801 180.579 56.6825 180.757 56.8543 181.038L59.9192 185.936C60.1529 186.306 60.1254 186.779 59.8505 187.121L46.9105 203.247C46.8349 203.336 46.7456 203.418 46.6493 203.48ZM44.2991 197.78L46.2095 200.835L57.782 186.416L55.8716 183.36L44.2991 197.787V197.78Z" fill="black"/>
<path d="M52.5523 176.106L39.6123 192.231L36.5405 187.327L49.4806 171.201L52.5523 176.106Z" fill="#83A1FF"/>
<path d="M40.1552 193.102C39.9765 193.211 39.7635 193.266 39.5505 193.252C39.2137 193.232 38.9114 193.054 38.7396 192.773L35.6746 187.875C35.441 187.505 35.4685 187.032 35.7434 186.69L48.6834 170.564C48.8896 170.304 49.2125 170.16 49.5493 170.181C49.886 170.201 50.1884 170.379 50.3602 170.66L53.4251 175.558C53.6587 175.928 53.6312 176.401 53.3564 176.743L40.4163 192.869C40.3408 192.958 40.2514 193.04 40.1552 193.102ZM37.805 187.402L39.7154 190.457L51.2879 176.038L49.3775 172.982L37.805 187.409V187.402Z" fill="black"/>
<path d="M45.8453 165.392L32.9053 181.518L29.8335 176.613L42.7735 160.494L45.8453 165.392Z" fill="#83A1FF"/>
<path d="M33.4482 182.388C33.2695 182.497 33.0565 182.552 32.8434 182.538C32.5067 182.518 32.2043 182.34 32.0325 182.059L28.9676 177.161C28.734 176.791 28.7615 176.318 29.0363 175.976L41.9764 159.85C42.1825 159.59 42.5055 159.446 42.8422 159.467C43.179 159.487 43.4813 159.665 43.6531 159.946L46.7181 164.844C46.9517 165.214 46.9242 165.687 46.6493 166.029L33.7093 182.155C33.6337 182.244 33.5444 182.326 33.4482 182.388ZM31.0979 176.688L33.0084 179.744L44.5809 165.317L42.6704 162.262L31.0979 176.681V176.688Z" fill="black"/>
<path d="M39.3787 155.069L26.4456 171.194L23.3738 166.296L36.3138 150.171L39.3787 155.069Z" fill="#83A1FF"/>
<path d="M26.9885 172.064C26.8098 172.174 26.5968 172.229 26.3837 172.215C26.047 172.195 25.7446 172.017 25.5728 171.736L22.5079 166.838C22.2742 166.468 22.3017 165.995 22.5766 165.653L35.5166 149.527C35.7228 149.267 36.0458 149.123 36.3825 149.144C36.7192 149.164 37.0216 149.342 37.1934 149.623L40.2583 154.521C40.492 154.891 40.4645 155.364 40.1896 155.706L27.2496 171.832C27.174 171.921 27.0847 172.003 26.9885 172.064ZM24.6382 166.365L26.5486 169.42L38.1211 154.994L36.2107 151.938L24.6382 166.365Z" fill="black"/>
<path d="M330.931 185.251C330.835 185.251 330.739 185.238 330.643 185.21C330.1 185.053 329.784 184.484 329.942 183.936L341.253 145.212C341.411 144.664 341.981 144.355 342.531 144.513C343.074 144.67 343.39 145.239 343.232 145.787L331.921 184.511C331.79 184.964 331.378 185.251 330.931 185.251Z" fill="black"/>
<path d="M353.238 185.252C352.791 185.252 352.379 184.964 352.248 184.512L340.937 145.787C340.779 145.246 341.095 144.671 341.638 144.513C342.181 144.356 342.758 144.671 342.916 145.212L354.227 183.936C354.386 184.478 354.069 185.053 353.527 185.211C353.43 185.238 353.334 185.252 353.238 185.252Z" fill="black"/>
<path d="M353.403 187.896H331.096C330.526 187.896 330.065 187.437 330.065 186.868V184.224C330.065 183.655 330.526 183.196 331.096 183.196H353.403C353.973 183.196 354.434 183.655 354.434 184.224V186.868C354.434 187.437 353.973 187.896 353.403 187.896ZM332.127 185.84H352.372V185.251H332.127V185.84Z" fill="black"/>
<path d="M342.243 151.424C338.965 151.424 336.298 148.766 336.298 145.499C336.298 142.231 338.965 139.573 342.243 139.573C345.521 139.573 348.187 142.231 348.187 145.499C348.187 148.766 345.521 151.424 342.243 151.424Z" fill="#FFB200"/>
<path d="M342.243 140.594C344.957 140.594 347.156 142.786 347.156 145.492C347.156 148.198 344.957 150.39 342.243 150.39C339.528 150.39 337.329 148.198 337.329 145.492C337.329 142.786 339.528 140.594 342.243 140.594ZM342.243 138.539C338.394 138.539 335.268 141.656 335.268 145.492C335.268 149.328 338.394 152.445 342.243 152.445C346.091 152.445 349.218 149.328 349.218 145.492C349.218 141.656 346.091 138.539 342.243 138.539Z" fill="black"/>
<path d="M56.1465 199.644H43.0415V234.361H56.1465V199.644Z" stroke="black" stroke-width="3.27" stroke-linecap="round" stroke-linejoin="round"/>
<path d="M42.2994 267.317C41.729 267.317 41.2686 266.858 41.2686 266.289V247.581C41.2686 247.3 41.3854 247.033 41.5847 246.841C41.7771 246.656 42.0313 246.554 42.2994 246.554C42.3131 246.554 44.7389 246.636 44.7389 246.636C45.2956 246.656 45.7354 247.109 45.7354 247.663V262.179H53.8237V259.206C53.8237 258.638 54.2842 258.179 54.8545 258.179H57.1704C57.7408 258.179 58.2012 258.638 58.2012 259.206V266.289C58.2012 266.858 57.7408 267.317 57.1704 267.317H42.2994Z" fill="#FFB200"/>
<path d="M42.2994 247.581L44.7046 247.664V263.207H54.8546V259.206H57.1705V266.289H42.2994V247.581ZM42.2994 245.526C41.7634 245.526 41.2549 245.732 40.87 246.102C40.4646 246.492 40.2378 247.02 40.2378 247.581V266.289C40.2378 267.427 41.1586 268.345 42.2994 268.345H57.1705C58.3112 268.345 59.2321 267.427 59.2321 266.289V259.206C59.2321 258.069 58.3112 257.151 57.1705 257.151H54.8546C53.7138 257.151 52.793 258.069 52.793 259.206V261.152H46.7662V247.664C46.7662 246.554 45.8866 245.65 44.7802 245.609L42.375 245.526C42.375 245.526 42.3269 245.526 42.2994 245.526Z" fill="black"/>
<path d="M56.8749 233.333H42.2994C41.7301 233.333 41.2686 233.793 41.2686 234.361V248.89C41.2686 249.457 41.7301 249.917 42.2994 249.917H56.8749C57.4442 249.917 57.9057 249.457 57.9057 248.89V234.361C57.9057 233.793 57.4442 233.333 56.8749 233.333Z" fill="#FFB200"/>
<path d="M56.8818 234.361V248.89H42.3062V234.361H56.8818ZM56.8818 232.306H42.3062C41.1655 232.306 40.2446 233.224 40.2446 234.361V248.89C40.2446 250.027 41.1655 250.945 42.3062 250.945H56.8818C58.0226 250.945 58.9434 250.027 58.9434 248.89V234.361C58.9434 233.224 58.0226 232.306 56.8818 232.306Z" fill="black"/>
<path d="M385.625 299.999H343.252C342.496 299.999 341.878 299.383 341.878 298.629V173.544C341.878 172.872 342.366 172.304 343.032 172.194C343.699 172.085 344.345 172.475 344.558 173.105L386.931 298.191C387.075 298.609 387.007 299.068 386.745 299.431C386.484 299.787 386.072 299.999 385.632 299.999H385.625ZM344.627 297.259H383.715L344.627 181.88V297.259Z" fill="black"/>
<path d="M376.094 275.016H343.253C342.497 275.016 341.878 274.4 341.878 273.646C341.878 272.893 342.497 272.276 343.253 272.276H376.094C376.85 272.276 377.468 272.893 377.468 273.646C377.468 274.4 376.85 275.016 376.094 275.016Z" fill="black"/>
<path d="M361.965 232.306H343.246C342.49 232.306 341.871 231.689 341.871 230.935C341.871 230.182 342.49 229.565 343.246 229.565H361.965C362.721 229.565 363.34 230.182 363.34 230.935C363.34 231.689 362.721 232.306 361.965 232.306Z" fill="black"/>
<path d="M374.507 273.276C374.094 273.276 373.682 273.091 373.414 272.735L343.259 233.346C342.799 232.743 342.916 231.887 343.521 231.428C344.125 230.969 344.984 231.085 345.445 231.688L375.599 271.077C376.06 271.68 375.943 272.536 375.338 272.995C375.091 273.187 374.795 273.276 374.507 273.276Z" fill="black"/>
<path d="M383.234 298.43C382.993 298.43 382.746 298.369 382.526 298.232L343.644 274.818C342.991 274.427 342.785 273.585 343.177 272.934C343.569 272.283 344.414 272.078 345.067 272.468L383.949 295.882C384.601 296.273 384.808 297.115 384.416 297.766C384.155 298.191 383.701 298.43 383.241 298.43H383.234Z" fill="black"/>
</g>
<defs>
<clipPath id="clip0_293_43636">
<rect width="387" height="300" fill="white"/>
</clipPath>
</defs>
</svg>
