<svg width="179" height="277" viewBox="0 0 179 277" fill="none" xmlns="http://www.w3.org/2000/svg">
<path d="M112.066 77.9963C111.76 77.9963 111.445 77.9223 111.166 77.7651C110.564 77.4321 110.193 76.7939 110.211 76.1094L110.619 58.5359C110.638 57.6757 111.25 56.9451 112.094 56.7693C112.938 56.5936 113.791 57.0191 114.153 57.796L120.376 71.0224C120.766 71.8548 120.487 72.8445 119.718 73.3532L113.086 77.7003C112.78 77.9038 112.418 78.0055 112.066 78.0055V77.9963ZM114.144 66.481L114.004 72.6595L116.342 71.1334L114.153 66.481H114.144Z" fill="#231815"/>
<path d="M100.974 112.385C96.2624 112.385 88.4996 112.144 84.6043 112.006C66.2221 111.377 66.1016 111.229 65.4431 110.406C65.1185 109.999 64.9793 109.481 65.0535 108.972C65.1092 107.742 64.7382 97.5953 64.4971 91.3891C64.4971 91.3429 64.4971 91.2966 64.4971 91.2504L65.9625 51.5712C65.9995 50.6555 66.6951 49.8971 67.6133 49.7953L111.408 44.9487C112.419 44.847 113.328 45.5499 113.448 46.5581L115.758 64.7051C115.776 64.8438 115.776 64.9826 115.758 65.1213C115.062 72.0952 112.678 95.061 111.241 97.8451C109.868 100.5 107.058 100.111 105.11 99.5562C106.613 109.999 106.418 110.517 106.251 110.988C106.103 111.386 105.704 112.07 104.628 112.246C104.09 112.339 102.745 112.366 100.965 112.366L100.974 112.385ZM68.7448 107.594C74.6805 108.001 96.4294 108.787 102.56 108.685C102.309 106.317 101.679 101.665 101.057 97.4288C100.965 96.7721 101.224 96.1062 101.753 95.6992C102.764 94.9223 103.942 95.3015 105.194 95.7177C105.769 95.912 107.522 96.4854 107.911 96.2264C108.737 94.4228 110.657 78.9766 112.057 64.9641L109.998 48.8334L69.6074 53.3008L68.2069 91.3151C68.5871 100.851 68.7263 105.374 68.7541 107.594H68.7448ZM65.1648 108.556C65.1648 108.556 65.1463 108.602 65.137 108.62C65.137 108.602 65.1556 108.574 65.1648 108.556Z" fill="#231815"/>
<path d="M67.4279 98.9363C67.0476 98.9363 66.6766 98.8253 66.3613 98.6034C58.042 92.8041 49.0271 68.8394 48.6469 67.8219C48.4614 67.3225 48.4985 66.7675 48.7489 66.3051C48.9993 65.8426 49.4445 65.5004 49.9639 65.3801L91.9405 55.539C92.4228 55.428 92.9236 55.5112 93.341 55.7702C93.7583 56.0292 94.0551 56.4454 94.1664 56.9264L98.1823 74.1484C98.2379 74.3796 98.2472 74.6294 98.2101 74.8606L94.8527 95.5419C94.7136 96.3928 94.0087 97.031 93.1555 97.0957L67.5577 98.9456C67.5577 98.9456 67.465 98.9456 67.4279 98.9456V98.9363ZM52.8854 68.4879C55.8439 75.9613 62.4845 90.7508 67.9936 95.1904L91.4397 93.4978L94.5003 74.6201L90.9852 59.5531L52.8854 68.4879Z" fill="#231815"/>
<path d="M100.389 79.8644H97.477C96.8556 79.8644 96.2806 79.5592 95.9374 79.0505L90.8086 71.4569C90.5396 71.0592 90.4376 70.5782 90.5211 70.1065L92.1812 60.5798C92.3389 59.6919 93.1087 59.0444 94.0083 59.0444H96.6423C97.6625 59.0444 98.4972 59.8769 98.4972 60.8943C98.4972 61.9117 97.6625 62.7441 96.6423 62.7441H95.5664L94.2958 70.0048L98.4508 76.1648H100.371C101.391 76.1648 102.226 76.9972 102.226 78.0146C102.226 79.032 101.391 79.8644 100.371 79.8644H100.389Z" fill="#231815"/>
<path d="M105.704 99.4451C105.611 99.4451 105.518 99.4451 105.425 99.4266L102.615 99.0012C101.808 98.8809 101.178 98.252 101.057 97.4473C99.9719 90.3717 94.5741 55.0396 94.537 54.7251C94.2681 52.6441 95.7334 52.4036 102.754 51.2844C103.468 51.1734 104.192 51.4787 104.591 52.0891C105.648 53.6707 107.892 92.5082 107.549 97.7155C107.512 98.2335 107.262 98.7145 106.863 99.0382C106.529 99.3064 106.121 99.4451 105.704 99.4451ZM98.4602 55.8166C99.2578 61.0609 101.91 78.4309 103.858 91.1763C103.524 80.1698 101.975 61.1996 101.419 55.2616C100.315 55.4558 99.2485 55.6501 98.4602 55.8166Z" fill="#231815"/>
<path d="M121.647 128.654C119.374 128.654 117.241 127.304 115.321 124.622C115.164 124.4 115.052 124.141 115.006 123.872C114.988 123.789 113.29 115.021 106.14 111.108C105.166 110.572 104.285 110.082 103.459 109.619C97.1526 106.086 94.7876 104.763 84.7525 104.301C69.3753 103.589 59.0898 110.581 58.9878 110.655C58.8115 110.775 58.6168 110.868 58.4127 110.923C53.7291 112.191 52.7738 110.729 52.4585 110.248C52.4028 110.165 52.3565 110.072 52.3101 109.98C51.7258 108.639 51.3177 105.485 53.4972 102.183C57.17 96.6149 64.7473 93.4146 76.6743 92.3787C91.8475 91.0653 99.5083 94.5615 105.657 97.364L106.538 97.7618C113.624 100.971 119.903 108.324 121.73 110.886C121.804 110.988 129.001 121.985 127.304 125.139C126.692 126.277 124.8 128.469 122.018 128.645C121.897 128.645 121.767 128.654 121.647 128.654ZM118.558 122.772C119.402 123.872 120.599 125.01 121.777 124.954C122.723 124.89 123.529 124.094 123.882 123.613C123.669 121.976 120.914 116.14 118.707 113.032C116.759 110.294 110.842 103.783 105.008 101.138L104.118 100.731C98.3583 98.104 91.189 94.839 76.9897 96.0599C61.056 97.438 57.6986 102.534 56.5857 104.208C55.6211 105.67 55.5005 106.928 55.5562 107.695C56.0106 107.649 56.5949 107.547 57.1514 107.418C59.0527 106.179 69.5144 99.8891 84.9194 100.601C95.8356 101.101 98.7849 102.756 105.268 106.382C106.084 106.835 106.956 107.325 107.92 107.853C115.72 112.126 118.085 120.691 118.558 122.762V122.772Z" fill="#231815"/>
<path d="M50.8447 121.773C50.4366 121.773 50.0285 121.634 49.6946 121.375C49.1289 120.931 48.8785 120.2 49.0361 119.507C49.7317 116.529 50.4459 112.847 50.418 111.996C50.3253 111.562 50.3995 111.108 50.6221 110.711C50.8447 110.313 56.3908 100.87 75.1625 98.7885C90.5027 97.0867 103.302 101.027 113.198 110.48C113.262 110.544 113.327 110.618 113.383 110.692L118.688 117.583C119.18 118.221 119.198 119.1 118.744 119.757C118.289 120.413 117.455 120.709 116.685 120.478C116.444 120.404 92.2648 113.291 75.0327 115.308C61.1301 116.936 51.7628 121.542 51.6701 121.588C51.4104 121.717 51.1229 121.782 50.8447 121.782V121.773ZM54.1186 112.135C54.1 112.912 53.9424 114.281 53.4323 116.797C57.5038 115.206 64.9605 112.755 74.6061 111.626C87.7296 110.091 104.108 113.449 112.418 115.502L110.526 113.051C101.345 104.338 89.8998 100.879 75.5614 102.46C60.8241 104.098 55.315 110.47 54.1093 112.126L54.1186 112.135Z" fill="#231815"/>
<path d="M28.1126 267.688C19.9788 267.688 14.9613 264.664 13.5608 263.693C13.4588 263.637 13.3475 263.563 13.2362 263.452C13.2084 263.434 13.1898 263.415 13.1806 263.406C12.3737 262.574 11.1587 260.095 7.50452 252.612C5.01894 247.525 2.57973 242.447 2.57973 242.447C2.44061 242.161 2.38497 241.846 2.40352 241.532L3.40517 225.345L1.19782 219.999C0.993784 219.518 1.01233 218.973 1.2442 218.501L3.56284 213.691L7.53235 160.619L7.05007 157.123C6.99442 156.753 7.05934 156.374 7.22629 156.041L8.46908 153.571C8.79369 152.184 10.5837 144.849 12.2624 141.399C14.312 137.191 20.1086 134.842 23.5773 133.436C23.5773 133.436 23.6144 133.417 23.633 133.417C26.4339 132.243 43.5176 122.161 49.9171 118.35C50.7982 117.823 51.9389 118.11 52.4583 118.989C52.9869 119.867 52.6994 121.005 51.8184 121.523C49.7687 122.744 34.039 132.104 27.4541 135.628C48.8876 157.761 41.8018 187.026 41.0228 189.93L38.8247 233.808L47.7654 260.696C48.0622 261.575 47.6541 262.537 46.8194 262.943C39.4646 266.514 33.1858 267.688 28.1219 267.688H28.1126ZM15.6847 260.659C17.2243 261.732 27.0275 267.799 43.7217 260.298L35.1891 234.641C35.1149 234.419 35.0871 234.197 35.0963 233.966L37.3222 189.532C37.3222 189.384 37.35 189.236 37.3964 189.098C37.4892 188.792 45.9383 158.991 23.8927 137.284C20.897 138.523 16.8626 140.401 15.5919 143C13.9596 146.357 12.0491 154.524 12.0305 154.607C11.9934 154.746 11.947 154.885 11.8821 155.014L10.8063 157.169L11.2422 160.296C11.2607 160.425 11.2607 160.555 11.2514 160.684L7.24484 214.302C7.22629 214.533 7.17064 214.755 7.06862 214.968L4.95402 219.352L7.0037 224.328C7.10572 224.587 7.15209 224.864 7.14282 225.142L6.14116 241.273C9.46145 248.172 14.6552 258.846 15.6847 260.65V260.659ZM14.3399 260.113C14.683 260.113 15.0076 260.206 15.2952 260.381C15.0447 260.233 14.7294 260.113 14.3399 260.113Z" fill="#231815"/>
<path d="M104.415 153.044C104.341 153.044 104.266 153.044 104.192 153.035L44.158 145.701C43.4809 145.617 42.8966 145.164 42.6555 144.526L37.1464 130.171C36.998 129.783 36.9794 129.357 37.1093 128.96C37.2762 128.423 41.6074 115.724 74.6156 111.636C107.114 107.612 131.515 123.012 132.544 123.678C133.017 123.983 133.333 124.492 133.388 125.056C133.444 125.621 133.24 126.175 132.823 126.564L105.713 152.527C105.37 152.86 104.906 153.044 104.424 153.044H104.415ZM45.7161 142.167L103.766 149.252L128.454 125.602C121.981 122.078 100.946 112.107 75.0515 115.308C48.6097 118.582 42.1083 127.359 40.8748 129.57L45.7068 142.158L45.7161 142.167Z" fill="#231815"/>
<path d="M56.8269 261.667C38.6766 261.667 36.4693 258.819 35.7273 257.857C34.9019 256.784 35.0874 255.794 35.1616 255.517C35.2172 255.313 35.31 255.119 35.4305 254.952L36.3302 253.667C30.3852 245.333 27.8903 239.996 28.892 237.814C29.4948 236.509 30.0977 229.48 30.3574 223.283L26.4064 213.988C26.2302 213.581 26.2116 213.118 26.3508 212.702L27.2411 209.946L19.0981 160.111L14.5906 141.622C14.3495 140.632 14.9616 139.624 15.954 139.383C16.9464 139.134 17.9573 139.753 18.1984 140.743L22.7244 159.297C22.7244 159.297 22.743 159.389 22.7522 159.436L30.9788 209.779C31.0251 210.066 31.0066 210.362 30.9138 210.649L30.0977 213.174L33.9373 222.219C34.0394 222.469 34.095 222.737 34.0857 223.015C34.0023 225.235 33.52 236.25 32.3421 239.192C32.407 240.894 36.3673 247.423 40.1049 252.575C40.5686 253.213 40.5779 254.074 40.1235 254.721L39.2331 255.998C40.6243 256.719 45.1781 258.162 59.2383 257.968C81.4973 257.672 125.282 256.821 129.076 256.747C132.739 255.6 135.679 253.648 135.559 252.816C135.086 249.616 132.739 244.214 132.711 244.158C132.6 243.909 132.554 243.65 132.554 243.382L133.092 218.029C133.092 217.891 133.11 217.752 133.147 217.613C133.194 217.447 137.441 200.493 140.493 181.763C145.529 150.871 143.581 139.087 141.058 134.648C140.558 133.76 140.864 132.631 141.763 132.123C142.654 131.614 143.785 131.928 144.295 132.816C153.746 149.465 138.026 213.414 136.801 218.298L136.273 243.049C136.848 244.408 138.758 249.079 139.222 252.261C139.398 253.454 139.241 257.542 129.901 260.354C129.743 260.4 129.577 260.428 129.4 260.428C128.937 260.428 82.4525 261.353 59.2754 261.658C58.4314 261.667 57.606 261.677 56.8269 261.677V261.667Z" fill="#231815"/>
<path d="M161.499 263.073C155.601 263.073 148.19 261.288 139.287 255.831C138.972 255.637 138.73 255.359 138.573 255.036L135.874 249.218L132.22 245.879C131.858 245.546 131.645 245.093 131.617 244.603L131.431 240.588L128.315 235.779C128.009 235.307 127.935 234.715 128.111 234.179L130.151 228.176L127.722 195.101L126.432 190.458C126.414 190.384 126.395 190.3 126.386 190.226L122.481 162.95C122.333 161.942 123.038 160.999 124.058 160.86C125.069 160.712 126.015 161.415 126.154 162.432L130.04 189.588L131.348 194.296C131.376 194.416 131.404 194.537 131.413 194.657L133.88 228.287C133.898 228.537 133.871 228.777 133.787 229.018L131.914 234.53L134.817 239.007C134.993 239.284 135.095 239.599 135.113 239.932L135.28 243.678L138.647 246.748C138.832 246.915 138.972 247.109 139.074 247.331L141.689 252.973C161.648 264.969 172.49 257.117 175.124 254.703C169.745 229.952 169.745 229.711 169.745 229.452C169.745 229.332 169.745 229.036 170.013 227.473L168.975 223.385C168.928 223.2 168.91 223.006 168.919 222.821L169.54 212.73C169.55 212.545 169.587 212.369 169.652 212.193L170.867 208.956L168.687 205.534C168.53 205.284 168.437 205.007 168.409 204.72C168.39 204.563 166.86 188.525 166.452 182.318C165.209 163.468 163.095 142.611 161.694 140.327C160.665 138.699 157.901 137.691 154.701 136.525C152.299 135.656 149.582 134.666 146.855 133.177C140.557 129.746 109.005 118.563 107.624 118.11C106.678 117.833 106.112 116.852 106.353 115.89C106.603 114.901 107.605 114.3 108.597 114.54C108.811 114.595 141.772 126.185 148.636 129.931C151.121 131.29 153.7 132.225 155.972 133.057C159.811 134.454 163.132 135.665 164.838 138.366C167.435 142.482 169.726 175.511 170.153 182.087C170.524 187.664 171.813 201.316 172.063 203.943L174.502 207.772C174.818 208.262 174.873 208.873 174.669 209.409L173.222 213.248L172.638 222.774L173.695 226.964C173.76 227.214 173.77 227.482 173.723 227.741C173.621 228.333 173.501 229.055 173.454 229.388C173.825 231.302 176.895 245.463 178.945 254.915C179.065 255.48 178.917 256.072 178.546 256.506C178.463 256.608 172.703 263.092 161.472 263.092L161.499 263.073Z" fill="#231815"/>
<path d="M49.0456 262.925C41.9228 262.925 37.6472 261.075 37.4246 260.983C37.3504 260.955 37.2855 260.918 37.2113 260.872L34.8463 259.438C34.1971 259.05 33.8539 258.3 33.9837 257.551C34.0579 257.116 41.2921 214.219 42.405 204.738C43.4345 195.988 43.416 190.559 42.3401 185.999C41.8857 184.085 33.789 165.299 28.9569 154.08C25.9798 147.171 23.6241 141.714 22.947 140.003C20.5727 134.019 22.9748 131.974 23.4849 131.623C23.5313 131.595 23.5777 131.568 23.6241 131.54L45.4935 119.081C45.5677 119.044 45.6419 119.007 45.7161 118.97C45.9386 118.878 47.979 118.119 50.0287 119.562C50.5388 119.923 50.8356 120.524 50.8078 121.144C50.78 121.773 50.4368 122.337 49.8989 122.661L49.4259 122.938C54.9164 135.35 59.5351 144.424 61.3159 146.246C64.9237 149.946 69.6815 150.501 75.4688 147.902C80.8202 145.497 92.3207 131.207 98.4975 123.53C100.325 121.255 101.911 119.294 102.996 118.036C108.217 111.978 111.63 113.143 112.725 113.791L141.058 124.797C141.587 125.001 141.995 125.445 142.162 125.99L142.765 127.988C143.053 128.95 142.515 129.977 141.55 130.282C132.173 133.279 107.355 168.13 103.302 176.639C99.8516 183.89 104.053 192.242 104.099 192.326C104.127 192.372 104.146 192.427 104.174 192.474L130.17 256.451C130.263 256.673 130.309 256.904 130.309 257.144V259.031C130.309 260.03 129.521 260.844 128.519 260.881L106.845 261.676C106.075 261.713 105.361 261.251 105.064 260.539L77.0548 193.759C74.1982 191.382 71.3695 193.334 70.3307 194.213L56.9754 260.992C56.8177 261.76 56.2056 262.342 55.4265 262.463C53.1171 262.805 50.984 262.934 49.0642 262.934L49.0456 262.925ZM39.0198 257.634C39.7711 257.93 45.1967 259.928 53.5809 258.957L66.7878 192.899C66.8528 192.548 67.0197 192.233 67.2701 191.974C69.4496 189.708 74.8845 186.656 79.8464 191.29C80.0412 191.465 80.1896 191.687 80.2916 191.928L107.967 257.912L126.47 257.227L100.742 193.917C100.223 192.871 95.845 183.622 99.9351 175.03C103.599 167.334 126.201 134.5 138.295 127.692L111.185 117.166C111.046 117.111 110.925 117.046 110.805 116.963C110.369 116.824 108.625 117.157 105.797 120.441C104.749 121.652 103.19 123.595 101.382 125.842C92.1538 137.302 82.6752 148.716 76.9806 151.268C69.8299 154.478 63.3192 153.618 58.6448 148.817C55.6398 145.728 49.2126 131.679 45.5306 123.299L25.7387 134.574C25.5717 134.971 25.4419 136.229 26.3972 138.625C27.0556 140.29 29.5134 145.996 32.37 152.609C39.7711 169.776 45.4749 183.076 45.9572 185.148C47.1351 190.161 47.1722 195.951 46.0963 205.164C45.0668 213.941 39.0847 249.662 37.8605 256.922L39.0291 257.634H39.0198Z" fill="#231815"/>
<path d="M54.0629 260.095C53.9424 260.095 53.8218 260.086 53.7012 260.058C52.6996 259.854 52.0411 258.883 52.2451 257.884L65.2944 192.807C65.4985 191.808 66.4723 191.16 67.4739 191.355C68.4756 191.558 69.1341 192.529 68.93 193.528L55.8807 258.606C55.7045 259.485 54.9347 260.095 54.0629 260.095Z" fill="#231815"/>
<path d="M126.748 258.726C126.015 258.726 125.329 258.291 125.032 257.579C124.791 257.006 101.317 200.475 98.8315 194.268C96.3273 188.025 96.3922 185.704 96.4757 185.139C96.6148 184.131 97.5608 183.41 98.5718 183.567C99.5549 183.706 100.25 184.594 100.158 185.574C100.158 185.731 100.186 187.664 102.282 192.89C104.767 199.078 128.232 255.591 128.464 256.155C128.853 257.098 128.408 258.18 127.462 258.569C127.23 258.661 126.989 258.708 126.757 258.708L126.748 258.726Z" fill="#231815"/>
<path d="M98.9054 179.904C98.7663 179.904 98.6365 179.886 98.4974 179.858C97.4957 179.636 96.8743 178.646 97.0969 177.647C98.2377 172.588 101.91 167.408 107.985 158.825C108.746 157.752 109.543 156.624 110.378 155.44C115.748 147.819 126.34 135.452 131.376 130.948C135.456 127.294 138.137 126.083 138.248 126.027C139.185 125.611 140.279 126.027 140.697 126.962C141.114 127.896 140.697 128.978 139.769 129.403C139.713 129.431 137.423 130.504 133.861 133.695C129.521 137.589 119.031 149.604 113.42 157.567C112.585 158.751 111.788 159.88 111.018 160.962C105.407 168.888 101.697 174.123 100.714 178.461C100.519 179.321 99.7587 179.904 98.9054 179.904Z" fill="#231815"/>
<path d="M56.1032 146.468C55.3983 146.468 54.7306 146.07 54.4152 145.395L44.306 123.576C43.8793 122.651 44.2781 121.551 45.2149 121.125C46.1423 120.69 47.246 121.097 47.6726 122.032L57.7819 143.851C58.2085 144.775 57.8097 145.876 56.873 146.302C56.6226 146.422 56.3536 146.468 56.0939 146.468H56.1032Z" fill="#231815"/>
<path d="M65.0071 191.484C64.9515 191.484 64.8958 191.484 64.8402 191.484L49.0085 190.06C48.2851 189.995 47.673 189.523 47.4319 188.839L41.6909 172.801C41.3848 172.246 41.3663 171.534 41.6816 170.951C41.8764 170.59 42.1825 170.313 42.5442 170.146C44.4733 168.407 54.1837 158.363 60.1751 152.101C60.7408 151.509 61.6312 151.361 62.3639 151.731C62.6514 151.879 69.5702 155.255 76.554 150.797C77.2032 150.381 78.0564 150.408 78.6778 150.88L100.037 166.974C100.603 167.399 100.872 168.111 100.742 168.805L97.5794 184.899C97.4495 185.574 96.9487 186.12 96.2902 186.314L79.7908 191.207C79.3178 191.345 78.8077 191.29 78.3718 191.059C78.1121 190.92 71.8425 187.646 65.9902 191.216C65.6935 191.392 65.3596 191.484 65.0257 191.484H65.0071ZM50.5203 186.48L64.5805 187.738C70.8779 184.233 77.2681 186.508 79.4012 187.451L94.1385 183.086L96.856 169.221L77.4165 154.57C70.8872 158.141 64.6083 156.55 61.9651 155.569C60.4348 157.16 57.1516 160.582 53.8498 163.995C51.2251 166.705 49.1105 168.851 47.5895 170.387C46.7363 171.238 46.0592 171.922 45.512 172.44L50.5296 186.471L50.5203 186.48Z" fill="#231815"/>
<path d="M62.1504 75.4805C59.0805 75.4805 56.2982 75.1937 53.794 74.611C48.6467 73.4086 46.6155 71.3553 46.4022 71.1241C46.2816 70.9946 46.1796 70.8466 46.0962 70.6801C45.9292 70.3379 29.7266 36.4857 56.6135 17.7746C56.632 17.0439 57.0865 16.3687 57.7914 16.1004L74.263 9.62598C74.6061 9.49649 74.9864 9.4595 75.3481 9.54274L80.8108 10.7636C83.1758 10.8191 101.985 11.9475 114.802 32.4068C115.127 32.8138 117.566 35.7458 120.812 36.3193C121.35 36.4117 121.823 36.7447 122.101 37.2164C122.379 37.6881 122.426 38.2616 122.24 38.7795C122.148 39.0385 119.857 45.18 115.377 50.711L114.913 51.2937C111.677 55.3542 101.846 67.7296 79.3454 73.1497C72.9182 74.6943 67.1772 75.4712 62.169 75.4712L62.1504 75.4805ZM49.2866 68.7378C50.4274 69.6442 57.8006 74.5371 78.4551 69.5517C99.7124 64.4276 108.634 53.2083 111.992 48.9907L112.483 48.3802C115.164 45.069 117.019 41.4433 117.983 39.3252C114.273 37.8361 111.918 34.7191 111.797 34.5711C111.769 34.5341 111.741 34.4879 111.714 34.4417C106.566 26.1913 99.7773 20.3181 91.5322 16.9976C85.3646 14.5096 80.6439 14.4541 80.5975 14.4541C80.4677 14.4541 80.3285 14.4356 80.1987 14.4078L75.107 13.2702L60.3975 19.0509C60.3048 19.5227 60.0173 19.9574 59.5999 20.2256C48.9713 27.2273 44.0001 37.4939 44.8441 50.748C45.4098 59.7383 48.591 67.1654 49.3051 68.7378H49.2866Z" fill="#231815"/>
<path d="M50.3809 62.7349C49.4071 62.7349 48.5816 61.9765 48.526 60.9868L47.2646 38.354C47.2646 38.2522 47.2646 38.1597 47.2646 38.058C48.8413 22.7413 57.0029 16.5813 57.3554 16.3223C57.4852 16.2298 57.6243 16.1466 57.7727 16.0911L74.2629 9.62588C75.1347 9.28366 76.1178 9.64438 76.5722 10.4583C77.0174 11.2722 76.7948 12.2989 76.0343 12.8446C75.9694 12.8909 68.2808 18.8104 68.0489 34.8578C68.2066 36.1157 69.672 47.0575 72.8717 56.7599C73.1963 57.7311 72.6584 58.7763 71.6846 59.1C70.7107 59.4145 69.6627 58.8873 69.3474 57.9161C65.8509 47.298 64.4133 35.6717 64.3577 35.1815C64.3484 35.0983 64.3391 35.015 64.3484 34.941C64.4597 25.8305 66.7598 19.615 69.0784 15.6471L59.4329 19.4393C58.3756 20.3365 52.3193 25.96 51.0023 38.2985L52.2544 60.7834C52.31 61.8008 51.5309 62.6794 50.5015 62.7349C50.4644 62.7349 50.4273 62.7349 50.3994 62.7349H50.3809Z" fill="#231815"/>
<path d="M72.7049 54.1424C71.9351 54.1424 71.2209 53.6615 70.952 52.903C67.7986 43.8665 67.1216 35.94 67.0938 35.607C67.0938 35.5515 67.0938 35.496 67.0938 35.4405C67.2329 18.2462 74.9957 11.8642 75.3203 11.6052C76.1179 10.967 77.2865 11.0965 77.9264 11.892C78.5664 12.6874 78.4365 13.8436 77.6482 14.4818C77.5276 14.5835 70.952 20.2348 70.8036 35.3758C70.8778 36.2082 71.6383 43.5706 74.467 51.6821C74.8009 52.6441 74.2908 53.6985 73.3263 54.0407C73.1222 54.1147 72.9182 54.1424 72.7141 54.1424H72.7049Z" fill="#231815"/>
<path d="M25.3952 192.797C24.7831 192.797 24.1895 192.502 23.8371 191.956C18.5969 183.89 14.5347 172.653 12.3923 160.314C12.3552 160.101 12.3273 159.953 12.3181 159.87C12.0769 158.936 12.5963 157.974 13.533 157.66C14.5069 157.336 15.5549 157.863 15.8795 158.825C15.9351 159.001 15.963 159.13 16.0557 159.676C18.1147 171.543 21.9822 182.29 26.9626 189.939C27.5191 190.8 27.2779 191.947 26.4154 192.502C26.1001 192.705 25.7569 192.797 25.4045 192.797H25.3952Z" fill="#231815"/>
<path d="M26.3597 195.008C26.0907 195.008 25.8217 194.953 25.5621 194.823C25.2838 194.684 22.6591 193.352 16.5379 187.544C11.0381 182.327 9.31304 169.702 8.66382 164.939C8.58962 164.43 8.5247 163.903 8.4876 163.69C8.22791 162.923 8.50615 162.035 9.22029 161.563C10.0736 160.999 11.2236 161.23 11.7893 162.081C12.0769 162.516 12.114 162.765 12.3365 164.439C12.8837 168.417 14.5346 180.542 19.0884 184.862C24.7552 190.235 27.1573 191.484 27.1851 191.503C28.094 191.965 28.465 193.066 28.0105 193.972C27.6859 194.629 27.0367 195.008 26.3504 195.008H26.3597Z" fill="#231815"/>
<path d="M13.3012 238.119C12.9117 238.119 12.5314 237.999 12.1975 237.749C7.87558 234.539 3.7855 226.206 3.61856 225.845C3.17338 224.929 3.55363 223.82 4.48109 223.376C5.39927 222.932 6.51222 223.311 6.9574 224.227C8.02397 226.409 11.437 232.56 14.4234 234.78C15.2488 235.39 15.4158 236.546 14.8037 237.37C14.442 237.86 13.8762 238.11 13.3105 238.11L13.3012 238.119Z" fill="#231815"/>
<path d="M18.7735 243.696C13.2551 243.696 9.7215 242.188 9.49891 242.087C9.18357 241.948 8.91461 241.726 8.71985 241.448L5.01002 236.121C4.42573 235.279 4.62977 234.132 5.47375 233.55C6.31774 232.967 7.46778 233.17 8.05208 234.012L11.4373 238.868C13.116 239.441 19.3207 241.18 27.3432 238.637C28.317 238.322 29.365 238.868 29.6711 239.839C29.9864 240.81 29.4392 241.855 28.4654 242.161C24.839 243.317 21.5466 243.696 18.7642 243.696H18.7735Z" fill="#231815"/>
<path d="M149.934 243.687C148.979 243.687 148.172 242.956 148.088 241.994C148.042 241.43 148.246 240.903 148.617 240.533C145.649 241.485 142.551 242.54 139.621 243.576C139.185 243.733 138.712 243.714 138.285 243.539C138.035 243.437 135.781 242.503 135.15 242.188C134.232 241.735 133.861 240.616 134.325 239.71C134.779 238.794 135.902 238.424 136.81 238.886C137.117 239.044 138.174 239.488 139.055 239.858C163.568 231.163 165.144 232.884 165.997 233.809C166.749 234.632 166.953 235.76 166.526 236.842C165.256 240.089 158.346 242.965 150.092 243.677C150.036 243.677 149.98 243.677 149.925 243.677L149.934 243.687ZM161.184 236.981C158.68 237.499 154.831 238.581 150.555 239.922C155.573 239.395 159.162 238.091 161.184 236.981Z" fill="#231815"/>
<path d="M129.576 196.645C129.502 196.645 129.419 196.645 129.345 196.627C128.436 196.516 127.749 195.757 127.722 194.851C127.684 193.778 126.97 168.528 132.832 156.383C137.413 146.903 145.584 138.347 145.927 137.996C146.632 137.256 147.81 137.238 148.552 137.94C149.294 138.643 149.313 139.818 148.608 140.558C148.524 140.641 140.493 149.049 136.171 157.993C132.887 164.791 131.83 176.584 131.515 184.973C135.197 177.287 141.921 166.188 153.05 156.957C153.839 156.3 155.007 156.411 155.666 157.197C156.324 157.984 156.213 159.149 155.425 159.806C137.515 174.669 131.413 195.11 131.348 195.323C131.116 196.118 130.383 196.655 129.567 196.655L129.576 196.645Z" fill="#231815"/>
<path d="M124.698 214.561C124.216 214.561 123.734 214.376 123.372 214.006L100.807 190.929C100.093 190.198 100.102 189.024 100.844 188.312C101.577 187.599 102.755 187.609 103.469 188.349L126.034 211.425C126.748 212.156 126.739 213.331 125.997 214.043C125.635 214.394 125.171 214.57 124.698 214.57V214.561Z" fill="#231815"/>
<path d="M81.6546 249.347C81.6546 249.347 81.5712 249.347 81.5248 249.347C80.5046 249.282 79.7348 248.395 79.7997 247.377C80.7828 232.902 82.276 209.381 82.1369 206.801C82.0256 206.366 82.072 205.885 82.3039 205.46C82.7954 204.562 83.9269 204.239 84.8173 204.729C85.7138 205.216 85.7138 212.689 84.8173 227.149C84.1866 237.295 83.491 247.534 83.4817 247.636C83.4168 248.617 82.6006 249.356 81.6361 249.356L81.6546 249.347Z" fill="#231815"/>
<path d="M121.136 195.905C120.877 195.905 120.617 195.85 120.367 195.739L101.363 187.081C100.436 186.656 100.018 185.555 100.445 184.63C100.872 183.705 101.975 183.289 102.903 183.715L121.906 192.372C122.834 192.797 123.251 193.898 122.824 194.823C122.509 195.507 121.841 195.905 121.136 195.905Z" fill="#231815"/>
<path d="M162.696 257.043C162.445 257.043 162.195 256.996 161.954 256.885C154.284 253.556 136.273 245.657 134.733 244.279C133.972 243.594 133.908 242.429 134.594 241.67C135.271 240.921 136.412 240.856 137.172 241.495C138.554 242.484 151.715 248.404 163.428 253.5C164.365 253.907 164.801 254.999 164.393 255.933C164.087 256.626 163.41 257.043 162.696 257.043Z" fill="#231815"/>
<path d="M39.6872 240.348C38.9917 240.348 38.3239 239.959 38.0086 239.284L30.5704 223.598C30.1345 222.673 30.5333 221.572 31.4514 221.137C32.3789 220.703 33.4826 221.1 33.9185 222.016L41.3567 237.703C41.7926 238.628 41.3938 239.728 40.4756 240.163C40.2159 240.283 39.9469 240.339 39.6872 240.339V240.348Z" fill="#231815"/>
<path d="M112.474 58.582L118.697 71.7992L112.066 76.1556L112.474 58.582Z" fill="#EFD0AB"/>
<path d="M112.066 76.6088C111.992 76.6088 111.909 76.5903 111.844 76.5533C111.695 76.47 111.603 76.3128 111.603 76.1371L112.011 58.5635C112.011 58.3508 112.168 58.1658 112.382 58.1196C112.586 58.0826 112.808 58.1843 112.901 58.3786L119.124 71.6049C119.226 71.8177 119.152 72.0582 118.957 72.1876L112.326 76.5348C112.252 76.581 112.159 76.6088 112.076 76.6088H112.066ZM112.892 60.5521L112.549 75.2769L118.104 71.6327L112.892 60.5521Z" fill="black"/>
<path d="M111.602 46.7986L113.911 64.9456C113.911 64.9456 110.981 94.3211 109.59 97.0126C108.198 99.7042 103.58 96.6242 102.884 97.1699C102.884 97.1699 104.739 109.74 104.507 110.378C104.275 111.016 66.7225 109.629 66.8802 109.24C67.0379 108.852 66.3423 91.3244 66.3423 91.3244L67.8077 51.6452L111.602 46.7986Z" fill="#EFD0AB"/>
<path d="M101.094 110.997C97.1898 110.997 90.6512 110.822 84.6506 110.618C66.9084 110.008 66.6672 109.712 66.5189 109.536C66.4168 109.407 66.389 109.222 66.4447 109.064C66.5096 108.482 66.1386 98.1318 65.8696 91.3336L67.335 51.6174C67.335 51.3862 67.5205 51.2012 67.7431 51.1734L111.538 46.3268C111.797 46.3083 112.02 46.4748 112.048 46.7246L114.357 64.8715C114.357 64.8715 114.357 64.9455 114.357 64.9733C114.236 66.1757 111.398 94.4691 109.989 97.2068C108.876 99.3619 106.205 98.4832 104.443 97.9005C104.109 97.7895 103.691 97.6508 103.404 97.586C104.099 102.368 105.157 109.888 104.925 110.516C104.823 110.803 104.517 110.859 104.387 110.877C103.942 110.951 102.755 110.988 101.076 110.988L101.094 110.997ZM67.3536 108.87C71.0448 109.36 100.909 110.276 104.081 109.999C104.034 108.574 103.079 101.591 102.43 97.2253C102.402 97.0588 102.476 96.8923 102.606 96.7906C103.033 96.4576 103.682 96.6796 104.758 97.0311C106.77 97.697 108.495 98.1317 109.191 96.7906C110.295 94.654 112.641 73.1311 113.457 64.9455L111.204 47.298L68.2625 52.0521L66.8156 91.3336C67.3165 103.977 67.3814 107.714 67.3628 108.87H67.3536Z" fill="black"/>
<path d="M50.3809 67.1837C50.3809 67.1837 59.4792 91.5554 67.4182 97.0957L93.016 95.2459L96.3734 74.5646L92.3575 57.3425L50.3809 67.1837Z" fill="#2B2B2B"/>
<path d="M67.4275 97.5491C67.3348 97.5491 67.242 97.5214 67.1586 97.4659C59.1917 91.9071 50.3253 68.3401 49.945 67.3412C49.8986 67.2209 49.9079 67.0822 49.9728 66.962C50.0377 66.8417 50.149 66.7585 50.2789 66.7307L92.2555 56.8895C92.3761 56.8618 92.5059 56.8895 92.608 56.945C92.71 57.0098 92.7842 57.1115 92.812 57.2318L96.8279 74.4538C96.8464 74.5093 96.8464 74.5741 96.8279 74.6296L93.4705 95.3108C93.4334 95.5236 93.2572 95.6808 93.0439 95.6993L67.4461 97.5491C67.4461 97.5491 67.4275 97.5491 67.409 97.5491H67.4275ZM51.0116 67.5077C52.3378 70.9576 60.4809 91.4909 67.5667 96.615L92.6358 94.8114L95.919 74.5741L92.0329 57.8885L51.0301 67.5077H51.0116Z" fill="black"/>
<path d="M96.6515 60.8853H94.0176L92.3574 70.412L97.4863 78.0148H100.389" fill="#EFD0AB"/>
<path d="M100.389 78.4771H97.4771C97.3194 78.4771 97.1803 78.4031 97.0876 78.2736L91.9587 70.68C91.8938 70.5783 91.866 70.458 91.8845 70.3378L93.5447 60.8111C93.5818 60.5891 93.7766 60.4319 93.9991 60.4319H96.6331C96.8928 60.4319 97.0969 60.6354 97.0969 60.8943C97.0969 61.1533 96.8928 61.3568 96.6331 61.3568H94.3887L92.8213 70.3193L97.6997 77.5614H100.361C100.621 77.5614 100.825 77.7649 100.825 78.0239C100.825 78.2829 100.621 78.4864 100.361 78.4864L100.389 78.4771Z" fill="black"/>
<path d="M105.704 97.5952C106.279 88.8732 103.209 53.3377 103.051 53.1064C103.051 53.1064 96.3459 54.1794 96.383 54.4938C96.4201 54.8083 102.903 97.1698 102.903 97.1698L105.713 97.5952H105.704Z" fill="#848484"/>
<path d="M105.704 98.0577C105.704 98.0577 105.657 98.0577 105.63 98.0577L102.819 97.6322C102.615 97.6044 102.458 97.4472 102.43 97.2437C102.161 95.5141 95.9562 54.8638 95.9099 54.5586C95.8449 54.0406 95.8171 53.8094 102.968 52.6625C103.144 52.6347 103.33 52.7087 103.432 52.8659C103.951 53.6429 106.668 89.9183 106.158 97.6414C106.158 97.7709 106.084 97.8912 105.982 97.9744C105.899 98.0392 105.797 98.0762 105.695 98.0762L105.704 98.0577ZM103.302 96.7628L105.268 97.0587C105.676 88.1332 103.125 57.694 102.662 53.6429C100.232 54.0406 97.6999 54.5123 96.893 54.7528C97.4587 58.471 102.727 92.9613 103.311 96.7628H103.302Z" fill="black"/>
<path d="M54.0075 109.24C54.0075 109.24 52.8296 106.548 55.0462 103.2C56.9382 100.342 61.4178 95.5603 76.8322 94.2284C92.2465 92.8965 99.6569 96.6887 105.769 99.4542C111.881 102.22 117.956 108.787 120.209 111.959C122.463 115.132 126.377 122.929 125.653 124.261C124.93 125.593 121.183 129.616 116.815 123.539C116.815 123.539 115.062 113.883 107.021 109.48C98.5346 104.828 96.6426 102.997 84.8268 102.451C68.5593 101.702 57.9121 109.138 57.9121 109.138C57.9121 109.138 54.5269 110.054 53.9982 109.24H54.0075Z" fill="#F4F4F4"/>
<path d="M121.656 127.267C119.847 127.267 118.094 126.111 116.453 123.807C116.416 123.752 116.388 123.687 116.369 123.623C116.351 123.53 114.561 114.133 106.807 109.887C105.843 109.36 104.962 108.861 104.136 108.408C97.8017 104.865 95.177 103.394 84.8173 102.913C68.9022 102.183 58.3013 109.443 58.19 109.517C58.1437 109.545 58.0973 109.573 58.0417 109.582C56.9287 109.887 54.2669 110.479 53.6177 109.49C53.5991 109.471 53.5899 109.443 53.5806 109.425C53.5249 109.305 52.3285 106.465 54.6564 102.941C55.9178 101.036 59.7389 95.2366 76.7948 93.7567C91.6063 92.4804 99.0723 95.8841 105.082 98.6218L105.963 99.0196C112.001 101.757 118.141 108.232 120.599 111.682C122.407 114.225 127.026 122.716 126.08 124.473C125.69 125.195 124.179 127.109 121.934 127.248C121.841 127.248 121.749 127.248 121.665 127.248L121.656 127.267ZM117.26 123.354C118.771 125.435 120.339 126.416 121.869 126.333C123.687 126.212 124.958 124.594 125.264 124.039C125.774 123.105 122.481 115.927 119.847 112.218C117.454 108.851 111.463 102.525 105.592 99.8612L104.711 99.4635C98.8033 96.772 91.4579 93.4145 76.8876 94.6724C60.2861 96.106 56.6412 101.628 55.4448 103.441C53.5528 106.308 54.2762 108.602 54.4246 108.99C54.7028 109.221 56.2702 109.092 57.7449 108.704C58.7094 108.065 69.3288 101.258 84.873 101.989C95.4552 102.479 98.1356 103.977 104.609 107.594C105.425 108.056 106.306 108.546 107.271 109.073C115.052 113.337 117.056 122.226 117.278 123.354H117.26Z" fill="black"/>
<path d="M50.8447 119.932C50.8447 119.932 52.542 112.709 52.2359 111.626C52.2359 111.626 57.3276 102.627 75.3667 100.629C93.4057 98.6312 104.646 104.865 111.918 111.811L117.223 118.702C117.223 118.702 92.6544 111.377 74.8195 113.467C60.379 115.16 50.8354 119.923 50.8354 119.923L50.8447 119.932Z" fill="#6D86A0"/>
<path d="M50.8446 120.395C50.7426 120.395 50.6406 120.358 50.5571 120.293C50.418 120.182 50.3531 119.997 50.3902 119.821C51.2063 116.325 51.9576 112.348 51.7814 111.747C51.7443 111.626 51.7628 111.497 51.8277 111.395C52.041 111.016 57.2441 102.174 75.3109 100.167C90.2244 98.5109 102.643 102.322 112.233 111.478L117.584 118.415C117.705 118.573 117.714 118.794 117.603 118.961C117.492 119.127 117.278 119.201 117.093 119.146C116.852 119.072 92.4132 111.867 74.875 113.929C60.6942 115.594 51.1414 120.293 51.0487 120.339C50.9837 120.376 50.9096 120.385 50.8446 120.385V120.395ZM52.7181 111.728C52.8294 113.023 51.9669 117.111 51.5124 119.118C54.1927 117.925 62.883 114.41 74.773 113.014C90.1038 111.219 110.601 116.408 116.008 117.888L111.556 112.107C102.087 103.071 90.2522 99.4544 75.4222 101.101C58.997 102.923 53.4322 110.646 52.7274 111.737L52.7181 111.728Z" fill="black"/>
<path d="M50.8445 119.932C50.8445 119.932 27.5839 133.797 24.2914 135.129C20.999 136.46 15.6568 138.616 13.9039 142.204C12.151 145.793 10.2034 154.201 10.2034 154.201L8.86784 156.864L9.37794 160.555L5.37133 214.172L2.9043 219.297L5.26931 225.04L4.23983 241.652C4.23983 241.652 14.0059 261.963 14.312 261.963C14.312 261.963 25.8125 271.064 45.9753 261.279L36.9234 234.058L39.1493 189.625C39.1493 189.625 48.5444 157.965 24.2822 135.119" fill="#6D86A0"/>
<path d="M28.0851 266.273C25.9334 266.273 24.0599 266.051 22.5018 265.755C17.0576 264.692 14.1547 262.435 14.0341 262.333L14.062 262.296C13.524 261.714 11.8824 258.597 3.83212 241.855C3.79502 241.781 3.78575 241.707 3.78575 241.624L4.80595 225.124L2.47804 219.482C2.43166 219.361 2.43166 219.223 2.48731 219.102L4.91724 214.052L8.91458 160.564L8.40448 156.92C8.3952 156.827 8.40448 156.735 8.45085 156.652L9.75856 154.034C9.94405 153.248 11.7897 145.479 13.4777 141.992C15.2955 138.255 20.786 136.035 24.0599 134.703C27.3246 133.381 50.3533 119.655 50.5852 119.516C50.8078 119.377 51.086 119.46 51.2251 119.673C51.3549 119.895 51.2808 120.173 51.0674 120.311C50.1678 120.848 29.9493 132.89 25.0987 135.249C48.2016 157.54 40.0307 188.182 39.6134 189.69L37.3967 233.984L46.4209 261.122C46.4951 261.344 46.3931 261.584 46.1797 261.686C38.9363 265.2 32.8151 266.255 28.0758 266.255L28.0851 266.273ZM14.6277 261.621C14.8688 261.806 17.7069 263.887 22.7429 264.858C27.5286 265.783 35.3285 265.857 45.4285 261.048L36.5064 234.216C36.4878 234.16 36.4786 234.105 36.4878 234.049L38.7137 189.616C38.7137 189.616 38.7137 189.542 38.7323 189.505C38.825 189.19 47.71 158.039 24.2083 135.674C20.9901 136.978 15.9632 139.097 14.3402 142.408C12.6337 145.904 10.6953 154.219 10.6767 154.302C10.6767 154.339 10.6582 154.376 10.6396 154.404L9.36903 156.938L9.86058 160.49C9.86058 160.49 9.86058 160.555 9.86058 160.592L5.85397 214.21C5.85397 214.265 5.83542 214.32 5.8076 214.376L3.43331 219.315L5.72413 224.865C5.75195 224.929 5.76123 225.003 5.76123 225.068L4.74103 241.559C8.42303 249.218 14.0156 260.705 14.6463 261.612L14.6277 261.621Z" fill="black"/>
<path d="M38.8618 129.505C38.8618 129.505 42.6273 117.453 74.8285 113.467C107.03 109.481 131.524 125.223 131.524 125.223L104.414 151.185L44.3802 143.851L38.8711 129.496L38.8618 129.505Z" fill="#6D86A0"/>
<path d="M104.415 151.657C104.415 151.657 104.377 151.657 104.359 151.657L44.3247 144.322C44.1578 144.304 44.0094 144.193 43.9444 144.026L38.4354 129.672C38.3983 129.579 38.3983 129.468 38.4261 129.366C38.5838 128.867 42.646 116.991 74.7731 113.014C106.77 109.046 131.524 124.686 131.774 124.844C131.895 124.918 131.969 125.047 131.988 125.186C132.006 125.324 131.951 125.463 131.849 125.565L104.739 151.528C104.656 151.611 104.535 151.657 104.415 151.657ZM44.7142 143.434L104.257 150.704L130.773 125.306C127.119 123.132 104.044 110.313 74.8936 113.92C45.3264 117.583 39.9378 128.155 39.3721 129.496L44.7235 143.425L44.7142 143.434Z" fill="black"/>
<path d="M16.3804 141.178L20.9064 159.732L29.1329 210.075L28.1034 213.257L32.212 222.941C32.212 222.941 31.7019 236.121 30.5704 238.581C29.4389 241.042 38.5929 253.648 38.5929 253.648L36.9513 256.007C36.9513 256.007 35.8198 260.104 59.2566 259.799C82.6935 259.494 129.372 258.569 129.372 258.569C129.372 258.569 137.905 256.007 137.395 252.52C136.885 249.033 134.418 243.391 134.418 243.391L134.956 218.039C134.956 218.039 152.039 150.205 142.681 133.714" fill="#6D86A0"/>
<path d="M56.7714 260.28C42.4608 260.28 37.9997 258.523 36.8218 257.006C36.3766 256.432 36.4694 255.97 36.4972 255.887C36.5065 255.84 36.5343 255.785 36.5621 255.748L38.0182 253.657C36.1077 251.012 29.0034 240.875 30.1441 238.387C31.0067 236.519 31.5632 227.584 31.7394 223.024L27.6678 213.442C27.6215 213.34 27.6215 213.229 27.6493 213.118L28.6417 210.047L20.4337 159.815L15.917 141.298C15.8521 141.048 16.0097 140.798 16.2601 140.743C16.5105 140.687 16.761 140.835 16.8166 141.085L21.3426 159.639L29.5784 210.01C29.5877 210.084 29.5784 210.158 29.5598 210.223L28.586 213.238L32.6297 222.756C32.6576 222.821 32.6668 222.885 32.6668 222.95C32.6483 223.496 32.1382 236.25 30.9789 238.766C30.2369 240.385 35.477 248.58 38.955 253.371C39.0663 253.528 39.0755 253.741 38.955 253.907L37.3876 256.155C37.4061 256.22 37.4618 256.358 37.638 256.543C38.5005 257.459 42.3124 259.558 59.2292 259.336C81.9982 259.041 127.286 258.143 129.271 258.106C131.58 257.403 137.275 255.1 136.904 252.585C136.403 249.199 133.982 243.631 133.954 243.576C133.926 243.511 133.917 243.446 133.917 243.382L134.455 218.029C134.455 218.029 134.455 217.965 134.474 217.928C134.641 217.253 151.409 150.085 142.246 133.945C142.116 133.723 142.199 133.445 142.422 133.316C142.645 133.186 142.932 133.27 143.053 133.492C146.985 140.428 146.883 156.79 142.756 182.142C139.769 200.447 135.651 217.058 135.383 218.103L134.845 243.308C135.178 244.085 137.33 249.153 137.822 252.455C138.378 256.229 130.393 258.735 129.475 259.013C129.438 259.022 129.391 259.031 129.354 259.031C128.89 259.031 82.4155 259.956 59.2384 260.261C58.3759 260.271 57.5505 260.28 56.7528 260.28H56.7714Z" fill="black"/>
<path d="M108.171 116.325C108.533 116.417 141.188 127.951 147.773 131.54C154.358 135.129 161.036 135.739 163.299 139.328C165.562 142.916 167.927 175.927 168.335 182.179C168.743 188.432 170.292 204.526 170.292 204.526L172.963 208.725L171.423 212.822L170.802 222.913L171.933 227.38C171.933 227.38 171.627 229.119 171.627 229.434C171.627 229.748 177.183 255.267 177.183 255.267C177.183 255.267 165.052 269.418 140.279 254.24L137.423 248.089L133.49 244.501L133.286 239.987L129.892 234.761L132.053 228.407L129.586 194.777L128.25 189.958L124.346 162.682" fill="#6D86A0"/>
<path d="M142.32 129.274L140.391 130.939C140.391 130.939 157.53 137.552 160.952 140.983C164.375 144.415 165.348 188.987 165.348 188.987L169.707 199.096C169.707 199.096 166.332 155.227 163.744 140.262C163.401 138.255 158.012 135.573 152.652 133.316C148.246 131.466 143.85 129.903 142.31 129.265L142.32 129.274Z" fill="#FFF257"/>
<path d="M161.537 261.695C155.87 261.695 148.691 259.965 140.02 254.656C139.946 254.61 139.881 254.536 139.844 254.453L137.024 248.385L133.166 244.861C133.073 244.778 133.017 244.667 133.017 244.538L132.813 240.154L129.493 235.029C129.419 234.909 129.4 234.761 129.447 234.632L131.58 228.361L129.122 194.823L127.805 190.097L123.882 162.765C123.845 162.516 124.021 162.275 124.272 162.238C124.522 162.201 124.763 162.377 124.8 162.627L128.705 189.902L130.031 194.666L132.517 228.388C132.517 228.453 132.517 228.509 132.498 228.573L130.411 234.715L133.685 239.756C133.732 239.821 133.759 239.904 133.759 239.987L133.954 244.306L137.738 247.766C137.738 247.766 137.822 247.858 137.85 247.914L140.65 253.935C153.217 261.593 162.371 261.482 167.853 260.03C173.046 258.652 176.005 255.849 176.691 255.146C174.605 245.564 171.182 229.757 171.182 229.443C171.182 229.128 171.396 227.917 171.479 227.408L170.375 223.033C170.375 223.033 170.357 222.941 170.366 222.894L170.987 212.804C170.987 212.804 170.997 212.711 171.015 212.665L172.481 208.78L169.93 204.775C169.893 204.71 169.865 204.646 169.856 204.572C169.837 204.415 168.307 188.395 167.899 182.207C167.018 168.786 164.838 142.602 162.928 139.568C161.648 137.533 158.819 136.507 155.23 135.203C152.874 134.342 150.212 133.38 147.569 131.938C140.938 128.321 108.329 116.834 108.069 116.76C107.828 116.686 107.679 116.436 107.754 116.195C107.818 115.955 108.06 115.807 108.31 115.872C108.523 115.927 141.207 127.415 148.014 131.133C150.593 132.539 153.227 133.501 155.545 134.342C159.144 135.656 162.26 136.784 163.707 139.087C166.22 143.074 168.706 180.561 168.817 182.161C169.207 188.062 170.626 202.953 170.756 204.387L173.371 208.493C173.445 208.614 173.464 208.771 173.417 208.9L171.896 212.933L171.284 222.885L172.397 227.279C172.416 227.343 172.416 227.408 172.397 227.473C172.249 228.296 172.1 229.276 172.1 229.443C172.184 230.026 176.126 248.219 177.637 255.183C177.665 255.322 177.637 255.47 177.535 255.581C177.452 255.674 172.11 261.695 161.546 261.695H161.537Z" fill="black"/>
<path d="M24.533 133.131C24.533 133.131 22.7152 134.389 24.6628 139.309C26.6105 144.23 43.3974 182.411 44.1394 185.574C45.1689 189.967 45.3729 195.313 44.2414 204.951C43.1099 214.589 35.8108 257.857 35.8108 257.857L38.1759 259.29C38.1759 259.29 44.6495 262.157 55.139 260.622L68.6057 193.26C68.6057 193.26 73.6418 188.034 78.5758 192.64L106.743 259.808L128.417 259.013V257.126L102.421 193.149C102.421 193.149 97.6907 184.02 101.595 175.825C105.5 167.621 130.55 131.827 140.947 128.506L140.344 126.508L111.834 115.437C111.834 115.437 109.404 113.384 104.359 119.229C99.323 125.075 83.4913 146.292 76.1923 149.576C68.8932 152.859 63.551 151.213 59.9525 147.523C56.9105 144.406 49.3146 127.369 47.0423 122.17L48.9251 121.051C47.6452 120.145 46.3838 120.663 46.3838 120.663L24.5144 133.122L24.533 133.131Z" fill="#2B2B2B"/>
<path d="M49.0081 261.538C42.2192 261.538 38.194 259.799 37.99 259.706L35.5693 258.245C35.4116 258.143 35.3189 257.958 35.356 257.773C35.4302 257.339 42.6643 214.413 43.7866 204.896C44.8346 195.97 44.8068 190.402 43.6938 185.676C43.2115 183.641 35.7084 166.234 30.2364 153.525C27.2593 146.625 24.9128 141.178 24.2451 139.485C22.2139 134.37 24.0596 132.909 24.2822 132.752C24.2915 132.752 24.3007 132.733 24.3193 132.733L46.1887 120.274C46.3092 120.228 47.7561 119.655 49.2215 120.691C49.3513 120.783 49.4255 120.931 49.4162 121.088C49.4069 121.246 49.3235 121.384 49.1936 121.468L47.6633 122.374C50.1025 127.924 57.4016 144.23 60.3231 147.217C64.3204 151.315 69.7553 151.99 76.0435 149.169C81.7009 146.625 92.8953 132.715 99.5823 124.4C101.409 122.134 102.977 120.182 104.053 118.933C108.912 113.291 111.621 114.697 112.103 115.03L140.557 126.083C140.687 126.138 140.789 126.24 140.836 126.379L141.438 128.377C141.513 128.617 141.373 128.876 141.132 128.95C131.236 132.113 106.279 167.159 102.049 176.029C98.2931 183.918 102.819 192.853 102.865 192.946L128.881 256.959C128.899 257.015 128.918 257.07 128.918 257.135V259.022C128.918 259.272 128.723 259.475 128.473 259.485L106.798 260.28C106.585 260.28 106.427 260.178 106.353 259.993L78.223 192.918C74.0123 189.061 69.7646 192.816 69.069 193.491L55.6302 260.715C55.5931 260.909 55.4354 261.057 55.2406 261.085C52.9776 261.418 50.9094 261.547 49.0452 261.547L49.0081 261.538ZM36.3205 257.616L38.4166 258.893C38.4166 258.893 44.7233 261.603 54.7491 260.206L68.1508 193.168C68.1694 193.084 68.2065 193.001 68.2714 192.936C68.327 192.881 73.6877 187.433 78.8908 192.307C78.9371 192.354 78.9742 192.409 79.0021 192.465L107.048 259.337L127.962 258.569V257.218L102.003 193.325C101.827 192.983 97.2358 183.937 101.187 175.622C104.86 167.908 129.381 132.456 140.39 128.21L139.982 126.851L111.686 115.863C111.639 115.844 111.593 115.816 111.556 115.789C111.537 115.779 109.348 114.179 104.739 119.534C103.682 120.765 102.114 122.716 100.296 124.973C93.1179 133.889 82.2667 147.365 76.4145 150.001C67.9839 153.784 62.6417 150.926 59.6461 147.856C56.5484 144.683 48.9061 127.544 46.6431 122.365C46.5504 122.152 46.6339 121.902 46.8286 121.782L47.9879 121.098C47.2274 120.866 46.6153 121.098 46.5875 121.098L24.8016 133.51C24.6624 133.63 23.4289 134.916 25.1076 139.134C25.7754 140.817 28.2424 146.533 31.0897 153.155C36.8863 166.604 44.1019 183.345 44.6027 185.463C45.7435 190.3 45.7713 195.961 44.714 204.997C43.6474 214.108 36.9883 253.694 36.3298 257.616H36.3205Z" fill="black"/>
<path d="M54.0628 258.708C54.0628 258.708 53.9979 258.708 53.9701 258.708C53.7197 258.661 53.5527 258.412 53.6084 258.162L66.6577 193.084C66.7041 192.835 66.9452 192.668 67.2049 192.724C67.4553 192.77 67.6222 193.02 67.5666 193.269L54.5173 258.347C54.4709 258.569 54.2761 258.717 54.0628 258.717V258.708Z" fill="black"/>
<path d="M126.748 257.329C126.562 257.329 126.395 257.218 126.321 257.043C126.08 256.469 102.615 199.947 100.13 193.75C97.5978 187.442 97.8482 185.417 97.8575 185.333C97.8946 185.084 98.1265 184.908 98.3769 184.936C98.6273 184.973 98.8035 185.204 98.7757 185.454C98.7757 185.5 98.6087 187.461 100.992 193.408C103.478 199.605 126.943 256.118 127.184 256.691C127.286 256.922 127.165 257.2 126.933 257.292C126.878 257.32 126.813 257.329 126.757 257.329H126.748Z" fill="black"/>
<path d="M98.9056 178.517C98.9056 178.517 98.8406 178.517 98.8035 178.507C98.5531 178.452 98.3955 178.202 98.4511 177.953C99.527 173.161 103.144 168.065 109.117 159.621C109.877 158.548 110.675 157.419 111.51 156.235C116.833 148.679 127.323 136.433 132.294 131.975C136.208 128.469 138.693 127.341 138.795 127.295C139.027 127.193 139.306 127.295 139.408 127.526C139.51 127.757 139.408 128.034 139.176 128.136C139.148 128.145 136.699 129.265 132.915 132.659C127.981 137.08 117.566 149.243 112.27 156.763C111.435 157.946 110.638 159.075 109.877 160.157C104.164 168.222 100.399 173.541 99.36 178.156C99.3136 178.369 99.1189 178.517 98.9056 178.517Z" fill="black"/>
<path d="M56.1035 145.081C55.9273 145.081 55.7603 144.979 55.6861 144.813L45.5769 122.994C45.4656 122.762 45.5769 122.485 45.7995 122.383C46.0313 122.272 46.3096 122.383 46.4116 122.605L56.5208 144.424C56.6321 144.655 56.5208 144.933 56.2983 145.034C56.2333 145.062 56.1684 145.081 56.1035 145.081Z" fill="black"/>
<path d="M43.3137 171.829C42.5903 173.161 61.5104 153.377 61.5104 153.377C61.5104 153.377 69.5329 157.475 77.5461 152.351L98.9054 168.444L95.7427 184.538L79.2433 189.431C79.2433 189.431 71.8886 185.426 65.0069 189.634L49.1752 188.21L43.3137 171.829Z" fill="#444141"/>
<path d="M65.0071 190.097C65.0071 190.097 64.9793 190.097 64.97 190.097L49.1383 188.673C48.9621 188.654 48.8044 188.534 48.7395 188.367L42.9522 172.2C42.8316 172.042 42.8131 171.783 42.9058 171.617C42.98 171.487 43.1099 171.395 43.249 171.376C44.7422 170.128 54.6289 159.907 61.1674 153.063C61.3065 152.915 61.5291 152.878 61.7146 152.97C61.7888 153.007 69.598 156.883 77.2959 151.962C77.4628 151.861 77.6669 151.861 77.8245 151.981L99.1838 168.074C99.3229 168.185 99.3971 168.361 99.36 168.528L96.1974 184.621C96.1603 184.788 96.0398 184.927 95.8728 184.973L79.3734 189.866C79.2528 189.903 79.123 189.884 79.0209 189.829C78.9467 189.792 71.8146 186.009 65.2482 190.014C65.174 190.06 65.0906 190.078 65.0071 190.078V190.097ZM49.5093 187.775L64.8958 189.153C71.2952 185.343 78.112 188.358 79.2899 188.931L95.3442 184.177L98.3955 168.639L77.5277 152.906C70.3771 157.299 63.1986 154.617 61.6219 153.932C49.1198 167.011 45.2245 170.914 43.8611 171.978L49.5186 187.775H49.5093Z" fill="black"/>
<path d="M58.4686 17.8206L74.9402 11.3462L80.5884 12.6133C80.5884 12.6133 100.26 12.6133 113.272 33.4703C113.272 33.4703 116.203 37.392 120.488 38.1412C120.488 38.1412 118.262 44.1902 113.921 49.5547C111.065 53.0787 101.92 65.8056 78.8912 71.3644C54.6011 77.2192 47.7658 69.866 47.7658 69.866C47.7658 69.866 31.424 36.5781 58.5706 18.6901L58.4779 17.8206H58.4686Z" fill="#EAEAEA"/>
<path d="M87.2383 14.1487C87.2383 14.1487 106.483 25.3587 114.005 39.8245L118.633 37.5955C118.633 37.5955 115.247 36.1896 113.457 33.9143C107.744 26.6721 100.863 15.795 87.2476 14.1487H87.2383Z" fill="#FFF257"/>
<path d="M62.0669 74.0929C51.2342 74.0929 47.6264 70.3932 47.4223 70.1713C47.3945 70.1343 47.3667 70.0973 47.3481 70.0603C47.1812 69.7273 31.2382 36.3931 58.0788 18.4496L58.0139 17.8576C57.9953 17.6542 58.1066 17.4507 58.3014 17.3767L74.773 10.9022C74.8565 10.8652 74.9492 10.8652 75.042 10.8837L80.6438 12.1416C81.8217 12.1694 101.001 12.9278 113.67 33.2114C113.67 33.2114 116.527 36.9665 120.571 37.6787C120.71 37.7065 120.821 37.7805 120.895 37.9007C120.96 38.021 120.979 38.1597 120.932 38.2892C120.914 38.3539 118.632 44.4677 114.292 49.8322L113.819 50.4242C110.322 54.8176 101.048 66.4901 79.0115 71.7991C72.0185 73.4825 66.463 74.0929 62.0854 74.0929H62.0669ZM48.1458 69.5886C48.7672 70.1713 56.0941 76.3775 78.7796 70.902C100.501 65.6669 109.636 54.1794 113.077 49.8507L113.559 49.2495C117.093 44.8931 119.226 40.0188 119.857 38.4742C115.748 37.4938 113.021 33.8958 112.901 33.7386C100.157 13.3255 80.7829 13.0758 80.5882 13.0758C80.5511 13.0758 80.5232 13.0758 80.4861 13.0665L74.977 11.8364L58.9692 18.1259L59.0248 18.6438C59.0434 18.8196 58.9692 18.9861 58.8208 19.0785C32.9169 36.1434 47.3481 67.896 48.1458 69.5978V69.5886Z" fill="black"/>
<path d="M50.381 60.885L49.1196 38.2522C50.6314 23.5737 58.4684 17.8206 58.4684 17.8206L74.94 11.3462C74.94 11.3462 66.3981 17.5339 66.1848 34.9595C66.1848 34.9595 67.6131 46.7707 71.1003 57.3333" fill="#EAEAEA"/>
<path d="M50.3808 61.3475C50.1397 61.3475 49.9357 61.1532 49.9171 60.9128L48.6558 38.2799C50.1768 23.4996 57.8654 17.6911 58.19 17.4507C58.2271 17.4229 58.2549 17.4044 58.292 17.3952L74.7636 10.9207C74.977 10.8282 75.2274 10.9207 75.3387 11.1242C75.45 11.3277 75.3943 11.5866 75.2088 11.7254C75.1253 11.7901 66.8524 18.0149 66.6484 34.9687C66.6577 35.0242 68.1138 46.7984 71.5361 57.1946C71.6196 57.4351 71.4804 57.694 71.2393 57.7773C70.9982 57.8605 70.7385 57.7218 70.655 57.4813C67.1956 46.9927 65.7395 35.1352 65.7209 35.0149C65.8693 22.2972 70.3304 15.5083 72.8995 12.6411L58.7001 18.2183C58.0694 18.7178 51.0022 24.5911 49.5832 38.2984L50.8446 60.8573C50.8631 61.1162 50.6591 61.329 50.4087 61.3475C50.4087 61.3475 50.3901 61.3475 50.3808 61.3475Z" fill="black"/>
<path d="M72.7048 52.755C72.51 52.755 72.3338 52.6348 72.2689 52.4405C69.1712 43.5705 68.4849 35.5699 68.4756 35.4867C68.6147 18.9028 75.8674 12.9278 76.1827 12.6781C76.3868 12.5209 76.6743 12.5486 76.832 12.7521C76.9896 12.9463 76.9618 13.2423 76.7578 13.3995C76.6836 13.455 69.5329 19.393 69.403 35.4497C69.403 35.4867 70.0894 43.3763 73.1407 52.1353C73.2242 52.3758 73.0943 52.644 72.8532 52.7273C72.8068 52.7458 72.7512 52.755 72.7048 52.755Z" fill="black"/>
<path d="M25.3952 191.41C25.2468 191.41 25.0984 191.336 25.0057 191.197C19.8676 183.289 15.8702 172.236 13.7649 160.074C13.7186 159.787 13.6815 159.602 13.6722 159.546C13.6073 159.306 13.7464 159.056 13.9875 158.982C14.2287 158.908 14.4791 159.038 14.5533 159.269C14.5718 159.315 14.6089 159.537 14.6738 159.916C16.7606 171.959 20.7023 182.892 25.7847 190.698C25.9239 190.911 25.8589 191.197 25.6456 191.336C25.5714 191.382 25.4787 191.41 25.3952 191.41Z" fill="black"/>
<path d="M26.3691 193.63C26.3042 193.63 26.23 193.611 26.1651 193.584C26.0631 193.537 23.5682 192.307 17.5026 186.545C12.3553 181.661 10.6858 169.388 10.0459 164.763C9.95315 164.069 9.86041 163.422 9.82331 163.302C9.68419 163.089 9.75839 162.839 9.9717 162.701C10.185 162.562 10.4911 162.654 10.6302 162.867C10.7322 163.024 10.7693 163.219 10.9641 164.643C11.5206 168.74 13.2271 181.227 18.1333 185.879C24.0598 191.503 26.5361 192.742 26.5639 192.751C26.7957 192.862 26.8885 193.14 26.7772 193.371C26.6937 193.537 26.5361 193.63 26.3598 193.63H26.3691Z" fill="black"/>
<path d="M13.3012 236.731C13.2085 236.731 13.1065 236.704 13.023 236.639C8.97002 233.624 5.02834 225.586 4.86139 225.244C4.7501 225.013 4.84284 224.735 5.07471 224.624C5.30657 224.513 5.58481 224.606 5.6961 224.837C5.7332 224.92 9.70271 233.013 13.5795 235.89C13.7835 236.047 13.8299 236.334 13.6722 236.537C13.5795 236.657 13.4404 236.722 13.3012 236.722V236.731Z" fill="black"/>
<path d="M18.7456 242.309C13.5611 242.309 10.2593 240.903 10.0553 240.81C9.9811 240.773 9.9069 240.718 9.86053 240.653L6.15071 235.326C6.00231 235.113 6.05796 234.826 6.27127 234.678C6.48459 234.53 6.7721 234.586 6.92049 234.798L10.5561 240.015C11.5299 240.394 18.523 242.891 27.779 239.95C28.0201 239.876 28.2798 240.006 28.3633 240.246C28.4375 240.487 28.3076 240.746 28.0665 240.829C24.5792 241.939 21.4166 242.309 18.7641 242.309H18.7456Z" fill="black"/>
<path d="M149.934 242.299C149.693 242.299 149.489 242.115 149.47 241.874C149.452 241.624 149.637 241.393 149.887 241.375C158.244 240.653 163.66 237.786 164.365 236.001C164.495 235.659 164.393 235.483 164.282 235.372C163.159 234.484 150.62 238.184 139.148 242.272C139.036 242.309 138.916 242.309 138.814 242.272C138.712 242.235 136.365 241.254 135.762 240.958C135.53 240.847 135.438 240.57 135.558 240.339C135.67 240.107 135.948 240.015 136.18 240.135C136.662 240.376 138.452 241.125 139.008 241.356C140.029 240.995 145.491 239.072 151.065 237.351C163.753 233.429 164.578 234.327 164.968 234.761C165.367 235.196 165.459 235.76 165.228 236.352C164.309 238.711 158.346 241.587 149.971 242.309C149.962 242.309 149.943 242.309 149.934 242.309V242.299Z" fill="black"/>
<path d="M129.567 195.258C129.567 195.258 129.53 195.258 129.511 195.258C129.289 195.23 129.113 195.045 129.103 194.814C129.066 193.76 128.361 168.833 134.074 156.994C138.554 147.708 146.845 139.05 146.92 138.958C147.096 138.773 147.393 138.764 147.578 138.949C147.764 139.124 147.773 139.42 147.587 139.605C147.504 139.689 139.324 148.244 134.9 157.401C130.355 166.807 129.966 185.278 129.984 192.141C132.266 186.055 139.259 170.202 153.931 158.03C154.126 157.863 154.423 157.891 154.58 158.095C154.747 158.289 154.72 158.585 154.525 158.742C136.291 173.874 130.068 194.721 130.003 194.934C129.947 195.138 129.762 195.267 129.558 195.267L129.567 195.258Z" fill="black"/>
<path d="M124.698 213.173C124.577 213.173 124.457 213.127 124.364 213.035L101.799 189.958C101.623 189.773 101.623 189.486 101.799 189.301C101.985 189.125 102.272 189.125 102.458 189.301L125.023 212.378C125.199 212.563 125.199 212.85 125.023 213.035C124.93 213.118 124.819 213.164 124.698 213.164V213.173Z" fill="black"/>
<path d="M81.655 247.96C81.655 247.96 81.6364 247.96 81.6272 247.96C81.3675 247.942 81.182 247.72 81.1913 247.47C82.2578 231.82 83.751 208.151 83.5192 206.533C83.4635 206.403 83.4635 206.255 83.5377 206.117C83.6583 205.895 83.9458 205.811 84.1684 205.932C84.5023 206.117 84.9289 206.348 82.1187 247.525C82.1002 247.766 81.8961 247.96 81.655 247.96Z" fill="black"/>
<path d="M121.137 194.518C121.072 194.518 121.007 194.509 120.942 194.481L101.938 185.824C101.706 185.713 101.604 185.444 101.706 185.213C101.809 184.982 102.087 184.88 102.319 184.982L121.322 193.639C121.554 193.75 121.656 194.019 121.554 194.25C121.48 194.416 121.304 194.518 121.127 194.518H121.137Z" fill="black"/>
<path d="M162.705 255.655C162.64 255.655 162.585 255.646 162.52 255.618C159.932 254.499 137.172 244.593 135.679 243.252C135.484 243.076 135.475 242.79 135.642 242.595C135.818 242.401 136.106 242.392 136.301 242.558C137.349 243.502 152.781 250.374 162.9 254.767C163.132 254.869 163.243 255.137 163.141 255.378C163.067 255.554 162.891 255.655 162.714 255.655H162.705Z" fill="black"/>
<path d="M39.6873 238.96C39.5111 238.96 39.3442 238.859 39.27 238.692L31.8318 223.006C31.7205 222.774 31.8225 222.497 32.0544 222.386C32.2862 222.275 32.5645 222.377 32.6758 222.608L40.114 238.295C40.2253 238.526 40.1232 238.803 39.8914 238.914C39.8264 238.942 39.7615 238.96 39.6966 238.96H39.6873Z" fill="black"/>
<path opacity="0.4" d="M178.982 254.897C176.923 245.444 173.862 231.283 173.491 229.369C173.538 229.036 173.649 228.305 173.76 227.723C173.807 227.464 173.798 227.205 173.733 226.946L172.675 222.756L173.26 213.229L174.706 209.391C174.91 208.845 174.846 208.244 174.539 207.753L172.1 203.924C171.85 201.297 165.738 191.475 165.367 185.898C164.931 179.321 163.197 154.478 162.696 149.631C162.053 143.422 159.397 139.05 154.729 136.516C152.605 135.36 140.4 130.754 140.4 130.754L142.496 127.137L142.153 125.99C141.986 125.445 141.578 125.001 141.049 124.797L126.21 119.035C124.503 115.104 121.786 110.96 121.739 110.896C120.191 108.722 115.442 103.117 109.71 99.5005C110.313 99.1768 110.851 98.6588 111.259 97.8634C112.196 96.0505 113.531 85.6914 114.542 76.7567L119.727 73.3529C120.497 72.8442 120.775 71.8546 120.385 71.0221L115.154 59.8953L114.171 52.2092C114.44 51.8762 114.691 51.571 114.904 51.3028L115.368 50.7201C119.857 45.189 122.138 39.0476 122.231 38.7886C122.416 38.2706 122.37 37.7064 122.092 37.2255C121.814 36.7538 121.35 36.4208 120.803 36.3283C120.803 36.3283 114.329 40.2407 114.004 39.8337C110.397 34.0807 104.813 26.9496 100.76 23.8511C90.4007 15.9245 82.5081 10.8189 80.8015 10.7727L75.3481 9.54253C75.3481 9.54253 75.3295 9.54253 75.3203 9.54253C75.1626 9.50553 75.0049 9.49628 74.838 9.50553C74.8102 9.50553 74.7823 9.50553 74.7545 9.50553C74.5876 9.52403 74.4299 9.55178 74.263 9.61652L57.7914 16.091C57.643 16.1465 57.5039 16.2297 57.374 16.3222C57.2349 16.424 55.8808 17.4506 54.2021 19.5872C30.7468 38.5851 45.9385 70.3377 46.1054 70.6707C46.1889 70.8279 46.2909 70.9851 46.4115 71.1146C46.5784 71.2996 47.914 72.65 51.0673 73.7969C53.7106 80.0124 58.1994 89.5761 62.8831 95.2274C58.589 96.883 55.4727 99.186 53.5065 102.174C51.7815 104.782 51.6794 107.288 51.9948 108.888C51.1044 109.906 50.6871 110.609 50.6314 110.711C50.4088 111.099 50.3439 111.561 50.4274 111.996C50.4552 112.727 49.9265 115.576 49.333 118.249C48.962 118.424 48.591 118.6 48.2386 118.785C46.9216 118.517 45.8643 118.896 45.7066 118.961C45.6324 118.989 45.5582 119.026 45.484 119.072L23.6146 131.531C23.5683 131.558 23.5219 131.586 23.4755 131.614C23.1973 131.808 22.3718 132.502 22.0472 134.056C18.6064 135.508 14.0247 137.755 12.2533 141.399C10.5746 144.849 8.79389 152.184 8.46 153.571L7.21721 156.041C7.05027 156.374 6.98535 156.753 7.041 157.123L7.52327 160.619L3.55376 213.691L1.23512 218.501C1.00326 218.973 0.993985 219.518 1.18875 219.999L3.39609 225.345L2.39444 241.532C2.37589 241.846 2.44082 242.161 2.57066 242.447C2.57066 242.447 5.01914 247.534 7.49545 252.612C11.1496 260.095 12.3646 262.574 13.1715 263.397C13.1715 263.397 13.1993 263.434 13.2271 263.452C13.3384 263.563 13.4497 263.637 13.5517 263.693C14.9522 264.664 19.9697 267.688 28.1035 267.688C33.1674 267.688 39.437 266.514 46.801 262.944C46.8474 262.916 46.8938 262.888 46.9401 262.86C47.6079 262.897 48.3035 262.916 49.0455 262.916C50.9653 262.916 53.0984 262.786 55.4078 262.444C55.9272 262.37 56.3631 262.065 56.6413 261.658C56.697 261.658 56.7619 261.658 56.8175 261.658C57.6059 261.658 58.422 261.658 59.266 261.639C71.4992 261.482 90.2152 261.149 105.24 260.872C105.602 261.371 106.177 261.686 106.807 261.658L128.482 260.862C128.936 260.844 129.345 260.659 129.66 260.372C129.734 260.363 129.808 260.363 129.882 260.335C135.243 258.726 137.571 256.691 138.554 255.026C138.712 255.368 138.953 255.646 139.268 255.831C148.163 261.279 155.573 263.073 161.481 263.073C172.712 263.073 178.472 256.589 178.555 256.488C178.936 256.044 179.084 255.461 178.954 254.897H178.982Z" fill="black"/>
</svg>
