<svg width="1107" height="998" viewBox="0 0 1107 998" fill="none" xmlns="http://www.w3.org/2000/svg">
<circle cx="3.5" cy="3.5" r="3.5" transform="matrix(-1 0 0 1 1028 90)" fill="#FDFF00"/>
<circle cx="1.5" cy="1.5" r="1.5" transform="matrix(-1 0 0 1 1107 185)" fill="#FDFF00"/>
<circle cx="1" cy="1" r="1" transform="matrix(-1 0 0 1 967 235)" fill="#FDFF00"/>
<circle cx="1" cy="1" r="1" transform="matrix(-1 0 0 1 165 486)" fill="#FDFF00"/>
<circle cx="1" cy="1" r="1" transform="matrix(-1 0 0 1 288 539)" fill="#FDFF00"/>
<circle cx="1" cy="1" r="1" transform="matrix(-1 0 0 1 914 163)" fill="#FDFF00"/>
<circle cx="3.5" cy="3.5" r="3.5" transform="matrix(-1 0 0 1 358 578)" fill="#FDFF00"/>
<circle cx="1.5" cy="1.5" r="1.5" transform="matrix(-1 0 0 1 3 493)" fill="#FDFF00"/>
<circle cx="2.5" cy="2.5" r="2.5" transform="matrix(-1 0 0 1 214 562)" fill="#FDFF00"/>
<circle cx="1.5" cy="1.5" r="1.5" transform="matrix(-1 0 0 1 3 93)" fill="#FDFF00"/>
<circle cx="2.5" cy="2.5" r="2.5" transform="matrix(-1 0 0 1 74 112)" fill="#FDFF00"/>
<circle cx="3.5" cy="3.5" r="3.5" transform="matrix(-1 -8.74228e-08 -8.74228e-08 1 1028 503)" fill="#FDFF00"/>
<circle cx="1.5" cy="1.5" r="1.5" transform="matrix(-1 -8.74228e-08 -8.74228e-08 1 1107 598)" fill="#FDFF00"/>
<circle cx="1" cy="1" r="1" transform="matrix(-1 -8.74228e-08 -8.74228e-08 1 967 648)" fill="#FDFF00"/>
<circle cx="1" cy="1" r="1" transform="matrix(-1 -8.74228e-08 -8.74228e-08 1 165 899)" fill="#FDFF00"/>
<circle cx="1" cy="1" r="1" transform="matrix(-1 -8.74228e-08 -8.74228e-08 1 288 952)" fill="#FDFF00"/>
<circle cx="1" cy="1" r="1" transform="matrix(-1 -8.74228e-08 -8.74228e-08 1 914 576)" fill="#FDFF00"/>
<circle cx="3.5" cy="3.5" r="3.5" transform="matrix(-1 -8.74228e-08 -8.74228e-08 1 358 991)" fill="#FDFF00"/>
<circle cx="1.5" cy="1.5" r="1.5" transform="matrix(-1 -8.74228e-08 -8.74228e-08 1 3 906)" fill="#FDFF00"/>
<circle cx="2.5" cy="2.5" r="2.5" transform="matrix(-1 -8.74228e-08 -8.74228e-08 1 214 975)" fill="#FDFF00"/>
</svg>
