<svg width="1946" height="3665" viewBox="0 0 1946 3665" fill="none" xmlns="http://www.w3.org/2000/svg">
<mask id="path-1-outside-1_82_34838" maskUnits="userSpaceOnUse" x="0" y="0" width="1946" height="3665" fill="black">
<rect fill="white" width="1946" height="3665"/>
<path d="M1941.63 304.909L1881.37 231.923C1881.37 231.923 1881.3 231.851 1881.26 231.815C1880.61 231.056 1879.93 230.369 1879.13 229.754C1878.95 229.61 1878.73 229.501 1878.55 229.357C1877.94 228.923 1877.32 228.525 1876.64 228.164C1876.31 228.019 1875.99 227.874 1875.66 227.73C1875.34 227.585 1875.05 227.441 1874.72 227.296L1220.97 6.49458C1218.26 3.16882 1214.17 1 1209.55 1H736.014C731.279 1 727.122 3.27726 724.447 6.71147L71.3096 227.296C70.9843 227.404 70.6951 227.585 70.3698 227.73C70.0445 227.874 69.7192 227.983 69.3939 228.164C68.7071 228.489 68.0927 228.923 67.4782 229.357C67.2975 229.501 67.0806 229.61 66.8999 229.754C66.1047 230.369 65.418 231.056 64.7674 231.815C64.7674 231.851 64.6951 231.887 64.6589 231.923L4.3693 304.909C-0.799413 311.199 0.0680637 320.49 6.35727 325.659C12.6465 330.828 21.9357 329.961 27.1044 323.671L75.9723 264.458L124.84 323.671C127.768 327.213 131.961 329.021 136.226 329.021C139.551 329.021 142.84 327.9 145.623 325.659C151.913 320.49 152.78 311.163 147.611 304.909L107.31 256.071H720.218L438.433 3155.05C437.855 3156.93 437.674 3158.88 437.855 3160.83L390.577 3647.33C390.577 3647.33 390.577 3647.37 390.577 3647.4C390.469 3648.41 390.505 3649.43 390.577 3650.44C390.577 3650.69 390.686 3650.91 390.722 3651.13C390.83 3651.89 390.975 3652.64 391.228 3653.4C391.336 3653.73 391.517 3654.05 391.625 3654.38C391.878 3654.99 392.095 3655.57 392.42 3656.15C392.637 3656.55 392.927 3656.91 393.18 3657.27C393.433 3657.67 393.649 3658.07 393.975 3658.43C394.047 3658.5 394.119 3658.54 394.192 3658.65C394.264 3658.72 394.3 3658.83 394.372 3658.9C394.77 3659.33 395.204 3659.66 395.637 3660.02C395.963 3660.31 396.252 3660.63 396.613 3660.89C397.119 3661.25 397.698 3661.54 398.24 3661.86C398.637 3662.08 398.999 3662.33 399.396 3662.51C400.047 3662.8 400.734 3662.98 401.421 3663.2C401.746 3663.31 402.071 3663.45 402.396 3663.53C403.445 3663.74 404.493 3663.85 405.541 3663.85H1539.98C1541.07 3663.85 1542.12 3663.74 1543.16 3663.53C1543.49 3663.45 1543.78 3663.31 1544.1 3663.24C1544.79 3663.02 1545.51 3662.84 1546.16 3662.55C1546.56 3662.37 1546.92 3662.12 1547.32 3661.9C1547.86 3661.61 1548.44 3661.32 1548.95 3660.92C1549.31 3660.67 1549.6 3660.34 1549.92 3660.02C1550.32 3659.66 1550.79 3659.33 1551.15 3658.9C1551.22 3658.83 1551.26 3658.72 1551.33 3658.65C1551.41 3658.57 1551.48 3658.5 1551.55 3658.43C1551.88 3658.03 1552.09 3657.63 1552.38 3657.2C1552.63 3656.84 1552.89 3656.51 1553.1 3656.11C1553.43 3655.54 1553.68 3654.92 1553.94 3654.27C1554.08 3653.95 1554.22 3653.66 1554.33 3653.33C1554.59 3652.57 1554.73 3651.81 1554.84 3651.02C1554.84 3650.8 1554.95 3650.58 1554.98 3650.37C1555.09 3649.36 1555.09 3648.34 1554.98 3647.33C1554.98 3647.33 1554.98 3647.29 1554.98 3647.26L1225.34 255.999H1838.68L1798.38 304.837C1793.21 311.127 1794.08 320.417 1800.37 325.587C1806.66 330.756 1815.95 329.888 1821.12 323.598L1869.99 264.385L1918.85 323.598C1921.78 327.141 1925.97 328.948 1930.24 328.948C1933.56 328.948 1936.85 327.828 1939.64 325.587C1945.93 320.417 1946.79 311.091 1941.63 304.837V304.909ZM441.794 3431.95H641.422L424.12 3613.68L441.794 3431.95ZM484.554 2991.98H680.82L471.325 3127.86L484.518 2991.98H484.554ZM525.94 2566.06H684.616L510.903 2720.82L525.94 2566.06ZM563.819 2176.51H728.676L552.253 2295.23L563.783 2176.51H563.819ZM599.133 1813.1H724.953L587.061 1937.28L599.133 1813.1ZM626.82 226.573L721.266 70.19V226.573H626.82ZM1327.09 182.579L1244.35 45.5722L1327.09 73.5159V182.579ZM1438.89 2763.98L1438.99 2764.99L981.509 3147.56H964.377L506.674 2764.63L506.747 2763.98C507.506 2763.51 508.265 2762.97 508.952 2762.35L972.798 2349.06L1436.65 2762.35C1437.33 2762.97 1438.09 2763.51 1438.85 2763.98H1438.89ZM1000.38 3177.68H1455.01L1263.33 3397.65L1000.38 3177.68ZM681.29 3398.59L488.783 3177.68H945.437L681.254 3398.59H681.29ZM917.425 3147.56H496.337L733.52 2993.71L917.425 3147.56ZM1028.46 3147.56L1212.08 2994L1449.19 3147.56H1028.46ZM930.364 2311.24H581.711L780.363 2177.56L930.401 2311.24H930.364ZM937.304 2340.96L718.592 2535.84L571.518 2340.96H937.304ZM1008.37 2340.96H1372.38L1225.99 2534.9L1008.33 2340.96H1008.37ZM1015.3 2311.24L1165.2 2177.67L1363.63 2311.24H1015.3ZM972.835 2309.29L593.53 1971.33L972.835 1629.72L1352.14 1971.33L972.835 2309.29ZM645.651 1335.03L776.351 1452.76H634.193L645.651 1335.03ZM931.376 1592.37H651.435L810.942 1483.89L931.413 1592.37H931.376ZM937.196 1621.94L759.58 1781.91L640.121 1621.94H937.16H937.196ZM1008.4 1621.94H1303.96L1185.11 1781.11L1008.4 1621.94ZM1014.22 1592.37L1134.58 1483.96L1293.91 1592.37H1014.22ZM1311.4 1452.76H1169.25L1299.95 1335.03L1311.4 1452.76ZM972.798 1589.92L663.435 1311.28L972.798 1032.64L1282.16 1311.28L972.798 1589.92ZM801.074 877.951H690.037L698.965 785.987L801.038 877.951H801.074ZM931.81 995.726H709.266L836.062 909.474L931.81 995.726ZM936.726 1025.3L793.303 1154.46L696.832 1025.3H936.69H936.726ZM1008.87 1025.3H1247.5L1151.53 1153.81L1008.87 1025.3ZM1271.54 1042.54L1282.67 1156.95H1186.13L1271.54 1042.54ZM1013.79 995.726L1109.46 909.546L1236.11 995.726H1013.79ZM1246.63 786.023L1255.56 877.987H1144.52L1246.6 786.023H1246.63ZM972.835 992.835L707.423 753.778L972.835 514.721L1238.25 753.778L972.835 992.835ZM932.967 478.861H761.929L859.376 412.562L932.967 478.861ZM748.809 507.925H937.051L824.496 609.288L748.809 507.925ZM790.556 612.397H715.917L724.519 523.939L790.592 612.397H790.556ZM1008.62 507.925H1195.81L1120.52 608.746L1008.62 507.925ZM1221.04 522.71L1229.75 612.397H1154.06L1221.04 522.71ZM1012.7 478.861L1086.22 412.635L1183.56 478.861H1012.7ZM972.835 475.679L748.809 273.893L750.255 259.071H1195.41L1196.86 273.893L972.835 475.679ZM1200.37 309.862L1207.31 381.329H1120.99L1200.33 309.862H1200.37ZM824.677 381.329H738.399L745.339 309.862L824.677 381.329ZM938.858 129.945L750.797 220.536V39.3184L938.858 129.909V129.945ZM1144.38 228.959H801.327L972.871 146.321L1144.41 228.959H1144.38ZM1006.81 129.945L1194.87 39.3546V220.572L1006.81 129.981V129.945ZM972.835 113.569L800.64 30.6065H1144.99L972.798 113.569H972.835ZM618.976 73.5881L701.712 45.6446L618.976 182.651V73.5881ZM393.613 149.719L540.398 100.158L393.613 212.185V149.755V149.719ZM589.482 99.7605V226.645H423.216L589.482 99.7605ZM735.544 410.357H810.978L730.23 465.305L735.58 410.357H735.544ZM713.098 641.425H788.785L705.833 716.146L713.098 641.425ZM687.218 907.558H786.327L680.17 979.748L687.182 907.558H687.218ZM758.279 1156.95H663.001L673.989 1044.06L758.315 1156.95H758.279ZM660.109 1186.52H757.773L650.712 1282.93L660.073 1186.52H660.109ZM631.338 1482.37H760.628L622.193 1576.54L631.338 1482.37ZM616.085 1639.19L723.905 1783.57H602.061L616.085 1639.19ZM581.024 2000L745.845 2146.84H566.783L581.06 2000H581.024ZM546.325 2356.9L681.796 2536.35H528.903L546.361 2356.9H546.325ZM503.168 2801L695.459 2961.86H487.518L503.168 2801ZM644.169 3401.84H444.758L464.782 3195.97L644.169 3401.84ZM972.943 3194.02L1498.56 3633.74H447.072L972.907 3194.02H972.943ZM1304.32 3431.95H1503.84L1521.51 3613.64L1304.32 3431.95ZM1299.69 3401.84L1480.71 3194.12L1500.91 3401.84H1299.69ZM1264.38 2992.01H1461.04L1474.27 3127.97L1264.38 2992.01ZM1250.54 2961.9L1442.5 2801.36L1458.12 2961.9H1250.54ZM1260.98 2566.1H1419.66L1434.69 2720.85L1260.98 2566.1ZM1262.07 2536.38L1399.09 2354.84L1416.73 2536.38H1262.07ZM1216.63 2176.55H1381.78L1393.34 2295.52L1216.63 2176.55ZM1199.82 2146.84L1364.64 2000L1378.92 2146.84H1199.82ZM1220.64 1813.14H1346.46L1358.54 1937.31L1220.64 1813.14ZM1220.25 1783.57L1329.37 1637.45L1343.57 1783.57H1220.25ZM1184.75 1482.37H1314.3L1323.48 1576.76L1184.75 1482.37ZM1187.86 1186.52H1285.52L1294.89 1282.93L1187.82 1186.52H1187.86ZM1159.09 907.558H1258.42L1265.46 979.929L1159.09 907.558ZM1156.85 641.425H1232.54L1239.8 716.146L1156.85 641.425ZM1134.47 410.357H1210.05L1215.4 465.449L1134.47 410.357ZM1224.73 70.2624L1319.17 226.645H1224.73V70.2624ZM1356.55 99.7605L1522.81 226.645H1356.55V99.7605ZM1552.42 212.149L1405.63 100.122L1552.42 149.683V212.113V212.149ZM364.047 159.66V226.645H165.756L364.047 159.66ZM1581.91 226.645V159.66L1780.2 226.645H1581.91Z"/>
</mask>
<path d="M1941.63 304.909L1881.37 231.923C1881.37 231.923 1881.3 231.851 1881.26 231.815C1880.61 231.056 1879.93 230.369 1879.13 229.754C1878.95 229.61 1878.73 229.501 1878.55 229.357C1877.94 228.923 1877.32 228.525 1876.64 228.164C1876.31 228.019 1875.99 227.874 1875.66 227.73C1875.34 227.585 1875.05 227.441 1874.72 227.296L1220.97 6.49458C1218.26 3.16882 1214.17 1 1209.55 1H736.014C731.279 1 727.122 3.27726 724.447 6.71147L71.3096 227.296C70.9843 227.404 70.6951 227.585 70.3698 227.73C70.0445 227.874 69.7192 227.983 69.3939 228.164C68.7071 228.489 68.0927 228.923 67.4782 229.357C67.2975 229.501 67.0806 229.61 66.8999 229.754C66.1047 230.369 65.418 231.056 64.7674 231.815C64.7674 231.851 64.6951 231.887 64.6589 231.923L4.3693 304.909C-0.799413 311.199 0.0680637 320.49 6.35727 325.659C12.6465 330.828 21.9357 329.961 27.1044 323.671L75.9723 264.458L124.84 323.671C127.768 327.213 131.961 329.021 136.226 329.021C139.551 329.021 142.84 327.9 145.623 325.659C151.913 320.49 152.78 311.163 147.611 304.909L107.31 256.071H720.218L438.433 3155.05C437.855 3156.93 437.674 3158.88 437.855 3160.83L390.577 3647.33C390.577 3647.33 390.577 3647.37 390.577 3647.4C390.469 3648.41 390.505 3649.43 390.577 3650.44C390.577 3650.69 390.686 3650.91 390.722 3651.13C390.83 3651.89 390.975 3652.64 391.228 3653.4C391.336 3653.73 391.517 3654.05 391.625 3654.38C391.878 3654.99 392.095 3655.57 392.42 3656.15C392.637 3656.55 392.927 3656.91 393.18 3657.27C393.433 3657.67 393.649 3658.07 393.975 3658.43C394.047 3658.5 394.119 3658.54 394.192 3658.65C394.264 3658.72 394.3 3658.83 394.372 3658.9C394.77 3659.33 395.204 3659.66 395.637 3660.02C395.963 3660.31 396.252 3660.63 396.613 3660.89C397.119 3661.25 397.698 3661.54 398.24 3661.86C398.637 3662.08 398.999 3662.33 399.396 3662.51C400.047 3662.8 400.734 3662.98 401.421 3663.2C401.746 3663.31 402.071 3663.45 402.396 3663.53C403.445 3663.74 404.493 3663.85 405.541 3663.85H1539.98C1541.07 3663.85 1542.12 3663.74 1543.16 3663.53C1543.49 3663.45 1543.78 3663.31 1544.1 3663.24C1544.79 3663.02 1545.51 3662.84 1546.16 3662.55C1546.56 3662.37 1546.92 3662.12 1547.32 3661.9C1547.86 3661.61 1548.44 3661.32 1548.95 3660.92C1549.31 3660.67 1549.6 3660.34 1549.92 3660.02C1550.32 3659.66 1550.79 3659.33 1551.15 3658.9C1551.22 3658.83 1551.26 3658.72 1551.33 3658.65C1551.41 3658.57 1551.48 3658.5 1551.55 3658.43C1551.88 3658.03 1552.09 3657.63 1552.38 3657.2C1552.63 3656.84 1552.89 3656.51 1553.1 3656.11C1553.43 3655.54 1553.68 3654.92 1553.94 3654.27C1554.08 3653.95 1554.22 3653.66 1554.33 3653.33C1554.59 3652.57 1554.73 3651.81 1554.84 3651.02C1554.84 3650.8 1554.95 3650.58 1554.98 3650.37C1555.09 3649.36 1555.09 3648.34 1554.98 3647.33C1554.98 3647.33 1554.98 3647.29 1554.98 3647.26L1225.34 255.999H1838.68L1798.38 304.837C1793.21 311.127 1794.08 320.417 1800.37 325.587C1806.66 330.756 1815.95 329.888 1821.12 323.598L1869.99 264.385L1918.85 323.598C1921.78 327.141 1925.97 328.948 1930.24 328.948C1933.56 328.948 1936.85 327.828 1939.64 325.587C1945.93 320.417 1946.79 311.091 1941.63 304.837V304.909ZM441.794 3431.95H641.422L424.12 3613.68L441.794 3431.95ZM484.554 2991.98H680.82L471.325 3127.86L484.518 2991.98H484.554ZM525.94 2566.06H684.616L510.903 2720.82L525.94 2566.06ZM563.819 2176.51H728.676L552.253 2295.23L563.783 2176.51H563.819ZM599.133 1813.1H724.953L587.061 1937.28L599.133 1813.1ZM626.82 226.573L721.266 70.19V226.573H626.82ZM1327.09 182.579L1244.35 45.5722L1327.09 73.5159V182.579ZM1438.89 2763.98L1438.99 2764.99L981.509 3147.56H964.377L506.674 2764.63L506.747 2763.98C507.506 2763.51 508.265 2762.97 508.952 2762.35L972.798 2349.06L1436.65 2762.35C1437.33 2762.97 1438.09 2763.51 1438.85 2763.98H1438.89ZM1000.38 3177.68H1455.01L1263.33 3397.65L1000.38 3177.68ZM681.29 3398.59L488.783 3177.68H945.437L681.254 3398.59H681.29ZM917.425 3147.56H496.337L733.52 2993.71L917.425 3147.56ZM1028.46 3147.56L1212.08 2994L1449.19 3147.56H1028.46ZM930.364 2311.24H581.711L780.363 2177.56L930.401 2311.24H930.364ZM937.304 2340.96L718.592 2535.84L571.518 2340.96H937.304ZM1008.37 2340.96H1372.38L1225.99 2534.9L1008.33 2340.96H1008.37ZM1015.3 2311.24L1165.2 2177.67L1363.63 2311.24H1015.3ZM972.835 2309.29L593.53 1971.33L972.835 1629.72L1352.14 1971.33L972.835 2309.29ZM645.651 1335.03L776.351 1452.76H634.193L645.651 1335.03ZM931.376 1592.37H651.435L810.942 1483.89L931.413 1592.37H931.376ZM937.196 1621.94L759.58 1781.91L640.121 1621.94H937.16H937.196ZM1008.4 1621.94H1303.96L1185.11 1781.11L1008.4 1621.94ZM1014.22 1592.37L1134.58 1483.96L1293.91 1592.37H1014.22ZM1311.4 1452.76H1169.25L1299.95 1335.03L1311.4 1452.76ZM972.798 1589.92L663.435 1311.28L972.798 1032.64L1282.16 1311.28L972.798 1589.92ZM801.074 877.951H690.037L698.965 785.987L801.038 877.951H801.074ZM931.81 995.726H709.266L836.062 909.474L931.81 995.726ZM936.726 1025.3L793.303 1154.46L696.832 1025.3H936.69H936.726ZM1008.87 1025.3H1247.5L1151.53 1153.81L1008.87 1025.3ZM1271.54 1042.54L1282.67 1156.95H1186.13L1271.54 1042.54ZM1013.79 995.726L1109.46 909.546L1236.11 995.726H1013.79ZM1246.63 786.023L1255.56 877.987H1144.52L1246.6 786.023H1246.63ZM972.835 992.835L707.423 753.778L972.835 514.721L1238.25 753.778L972.835 992.835ZM932.967 478.861H761.929L859.376 412.562L932.967 478.861ZM748.809 507.925H937.051L824.496 609.288L748.809 507.925ZM790.556 612.397H715.917L724.519 523.939L790.592 612.397H790.556ZM1008.62 507.925H1195.81L1120.52 608.746L1008.62 507.925ZM1221.04 522.71L1229.75 612.397H1154.06L1221.04 522.71ZM1012.7 478.861L1086.22 412.635L1183.56 478.861H1012.7ZM972.835 475.679L748.809 273.893L750.255 259.071H1195.41L1196.86 273.893L972.835 475.679ZM1200.37 309.862L1207.31 381.329H1120.99L1200.33 309.862H1200.37ZM824.677 381.329H738.399L745.339 309.862L824.677 381.329ZM938.858 129.945L750.797 220.536V39.3184L938.858 129.909V129.945ZM1144.38 228.959H801.327L972.871 146.321L1144.41 228.959H1144.38ZM1006.81 129.945L1194.87 39.3546V220.572L1006.81 129.981V129.945ZM972.835 113.569L800.64 30.6065H1144.99L972.798 113.569H972.835ZM618.976 73.5881L701.712 45.6446L618.976 182.651V73.5881ZM393.613 149.719L540.398 100.158L393.613 212.185V149.755V149.719ZM589.482 99.7605V226.645H423.216L589.482 99.7605ZM735.544 410.357H810.978L730.23 465.305L735.58 410.357H735.544ZM713.098 641.425H788.785L705.833 716.146L713.098 641.425ZM687.218 907.558H786.327L680.17 979.748L687.182 907.558H687.218ZM758.279 1156.95H663.001L673.989 1044.06L758.315 1156.95H758.279ZM660.109 1186.52H757.773L650.712 1282.93L660.073 1186.52H660.109ZM631.338 1482.37H760.628L622.193 1576.54L631.338 1482.37ZM616.085 1639.19L723.905 1783.57H602.061L616.085 1639.19ZM581.024 2000L745.845 2146.84H566.783L581.06 2000H581.024ZM546.325 2356.9L681.796 2536.35H528.903L546.361 2356.9H546.325ZM503.168 2801L695.459 2961.86H487.518L503.168 2801ZM644.169 3401.84H444.758L464.782 3195.97L644.169 3401.84ZM972.943 3194.02L1498.56 3633.74H447.072L972.907 3194.02H972.943ZM1304.32 3431.95H1503.84L1521.51 3613.64L1304.32 3431.95ZM1299.69 3401.84L1480.71 3194.12L1500.91 3401.84H1299.69ZM1264.38 2992.01H1461.04L1474.27 3127.97L1264.38 2992.01ZM1250.54 2961.9L1442.5 2801.36L1458.12 2961.9H1250.54ZM1260.98 2566.1H1419.66L1434.69 2720.85L1260.98 2566.1ZM1262.07 2536.38L1399.09 2354.84L1416.73 2536.38H1262.07ZM1216.63 2176.55H1381.78L1393.34 2295.52L1216.63 2176.55ZM1199.82 2146.84L1364.64 2000L1378.92 2146.84H1199.82ZM1220.64 1813.14H1346.46L1358.54 1937.31L1220.64 1813.14ZM1220.25 1783.57L1329.37 1637.45L1343.57 1783.57H1220.25ZM1184.75 1482.37H1314.3L1323.48 1576.76L1184.75 1482.37ZM1187.86 1186.52H1285.52L1294.89 1282.93L1187.82 1186.52H1187.86ZM1159.09 907.558H1258.42L1265.46 979.929L1159.09 907.558ZM1156.85 641.425H1232.54L1239.8 716.146L1156.85 641.425ZM1134.47 410.357H1210.05L1215.4 465.449L1134.47 410.357ZM1224.73 70.2624L1319.17 226.645H1224.73V70.2624ZM1356.55 99.7605L1522.81 226.645H1356.55V99.7605ZM1552.42 212.149L1405.63 100.122L1552.42 149.683V212.113V212.149ZM364.047 159.66V226.645H165.756L364.047 159.66ZM1581.91 226.645V159.66L1780.2 226.645H1581.91Z" stroke="url(#paint0_linear_82_34838)" stroke-width="2" stroke-linejoin="round" mask="url(#path-1-outside-1_82_34838)"/>
<defs>
<linearGradient id="paint0_linear_82_34838" x1="972.997" y1="1" x2="972.997" y2="3663.85" gradientUnits="userSpaceOnUse">
<stop stop-color="#D4E9F0"/>
<stop offset="0.84375" stop-color="white"/>
<stop offset="1" stop-color="#D4E9F0"/>
</linearGradient>
</defs>
</svg>
