<svg width="1943" height="718" viewBox="0 0 1943 718" fill="none" xmlns="http://www.w3.org/2000/svg">
<g opacity="0.6">
<mask id="path-1-inside-1_39_34849" fill="white">
<path fill-rule="evenodd" clip-rule="evenodd" d="M617.275 69.7421L699.929 41.8457L617.275 178.592V69.7421ZM625.121 222.539L719.497 66.3989V222.539H625.121ZM538.814 96.2233L392.105 145.738V208.119L538.814 96.2233ZM587.811 95.9063L421.781 222.539H587.811V95.9063ZM164.552 222.539L362.641 155.683V222.539H164.552ZM377.373 251.987H106.191L146.498 300.778C151.662 307.058 150.795 316.332 144.512 321.493C141.768 323.766 138.446 324.849 135.124 324.849H135.088C130.863 324.849 126.639 323.009 123.714 319.508L74.8959 260.396L26.0778 319.508C20.9144 325.787 11.5985 326.654 5.35182 321.493C-0.930988 316.332 -1.79758 307.022 3.36587 300.778L62.8278 228.8C64.576 226.302 67.1016 224.334 70.1658 223.297L729.499 0.777235C733.976 -0.738469 738.959 -0.0167055 742.787 2.76208C743.422 3.22362 744.016 3.73095 744.565 4.27779H1197.35C1197.9 3.74249 1198.49 3.24713 1199.12 2.79817C1202.98 0.0193827 1207.93 -0.702381 1212.41 0.813323L1871.37 223.208C1874.11 224.038 1876.58 225.657 1878.46 227.916L1938.65 300.778C1943.81 307.058 1942.95 316.332 1936.66 321.493C1933.92 323.766 1930.6 324.849 1927.28 324.849H1927.24C1923.02 324.849 1918.79 323.009 1915.87 319.508L1867.05 260.396L1818.23 319.508C1813.07 325.787 1803.75 326.654 1797.5 321.493C1791.22 316.332 1790.35 307.022 1795.52 300.778L1835.82 251.987H1564.59L1564.57 251.987L1564.55 251.987H1339.46L1339.44 251.987L1339.42 251.987H1222.01V474.543V702.296C1222.01 710.416 1215.41 717.02 1207.28 717.02H734.229C726.105 717.02 719.497 710.416 719.497 702.296V474.543V251.987H602.564L602.543 251.987L602.522 251.987H377.373ZM1579.3 222.539H1777.39L1579.3 155.683V222.539ZM1549.84 145.738L1403.28 96.2737L1549.84 208.056V145.738ZM1354.17 222.539V95.8702L1520.25 222.539H1354.17ZM1324.7 178.712V69.7542L1241.97 41.8304L1324.7 178.712ZM1316.79 222.539H1222.45V66.4587L1316.79 222.539ZM1004.74 132.87L1192.55 223.29V42.4504L1004.74 132.87ZM970.788 116.527L798.799 33.7257H1142.78L970.788 116.527ZM936.841 132.87L748.961 223.321V42.4186L936.841 132.87ZM798.766 232.03L970.788 149.213L1142.81 232.03H798.766ZM1192.55 451.076L1004.69 360.633L1192.55 270.19V451.076ZM1142.68 261.514L970.74 344.29L798.804 261.514H1142.68ZM748.961 270.205V451.061L936.793 360.633L748.961 270.205ZM970.74 376.976L798.664 459.819H1142.82L970.74 376.976ZM1192.55 678.826V497.93L1004.68 588.378L1192.55 678.826ZM1142.82 687.572L970.729 604.721L798.638 687.572H1142.82ZM748.961 678.801L936.782 588.378L748.961 497.955V678.801ZM970.729 572.035L798.809 489.267H1142.65L970.729 572.035Z"/>
</mask>
<path d="M699.929 41.8457L700.785 42.363L702.199 40.0243L699.61 40.8982L699.929 41.8457ZM617.275 69.7421L616.955 68.7946L616.275 69.0242V69.7421H617.275ZM617.275 178.592H616.275V182.18L618.131 179.11L617.275 178.592ZM719.497 66.3989H720.497V62.8113L718.641 65.8816L719.497 66.3989ZM625.121 222.539L624.265 222.022L623.348 223.539H625.121V222.539ZM719.497 222.539V223.539H720.497V222.539H719.497ZM392.105 145.738L391.786 144.791L391.105 145.021V145.738H392.105ZM538.814 96.2233L539.42 97.0184L538.494 95.2758L538.814 96.2233ZM392.105 208.119H391.105V210.14L392.712 208.915L392.105 208.119ZM421.781 222.539L421.174 221.744L418.821 223.539H421.781V222.539ZM587.811 95.9063H588.811V93.8859L587.205 95.1111L587.811 95.9063ZM587.811 222.539V223.539H588.811V222.539H587.811ZM362.641 155.683H363.641V154.29L362.321 154.735L362.641 155.683ZM164.552 222.539L164.232 221.592L164.552 223.539V222.539ZM362.641 222.539V223.539H363.641V222.539H362.641ZM106.191 251.987V250.987H104.068L105.42 252.624L106.191 251.987ZM146.498 300.778L147.271 300.143L147.269 300.141L146.498 300.778ZM144.512 321.493L143.878 320.72L143.874 320.723L144.512 321.493ZM123.714 319.508L122.943 320.145L122.947 320.149L123.714 319.508ZM74.8959 260.396L75.667 259.759L74.8959 258.825L74.1249 259.759L74.8959 260.396ZM26.0778 319.508L25.3068 318.871L25.3054 318.873L26.0778 319.508ZM5.35182 321.493L5.98872 320.722L5.98654 320.72L5.35182 321.493ZM3.36587 300.778L4.13647 301.416L4.13682 301.415L3.36587 300.778ZM62.8278 228.8L63.5988 229.437L63.6242 229.406L63.6471 229.374L62.8278 228.8ZM70.1658 223.297L69.846 222.349L69.8452 222.35L70.1658 223.297ZM729.499 0.777235L729.819 1.72473L729.82 1.72443L729.499 0.777235ZM742.787 2.76208L743.374 1.95288L743.374 1.95286L742.787 2.76208ZM744.565 4.27779L743.859 4.9859L744.151 5.27779H744.565V4.27779ZM1197.35 4.27779V5.27779H1197.76L1198.06 4.99078L1197.35 4.27779ZM1199.12 2.79817L1199.7 3.61362L1199.7 3.61L1199.12 2.79817ZM1212.41 0.813323L1212.09 1.76052L1212.09 1.76082L1212.41 0.813323ZM1871.37 223.208L1871.05 224.156L1871.07 224.161L1871.08 224.165L1871.37 223.208ZM1878.46 227.916L1879.23 227.279L1879.23 227.277L1878.46 227.916ZM1938.65 300.778L1939.42 300.143L1939.42 300.141L1938.65 300.778ZM1936.66 321.493L1936.03 320.72L1936.03 320.723L1936.66 321.493ZM1915.87 319.508L1915.09 320.145L1915.1 320.149L1915.87 319.508ZM1867.05 260.396L1867.82 259.759L1867.05 258.825L1866.28 259.759L1867.05 260.396ZM1818.23 319.508L1817.46 318.871L1817.46 318.873L1818.23 319.508ZM1797.5 321.493L1798.14 320.722L1798.14 320.72L1797.5 321.493ZM1795.52 300.778L1796.29 301.416L1796.29 301.415L1795.52 300.778ZM1835.82 251.987L1836.6 252.624L1837.95 250.987H1835.82V251.987ZM1564.59 251.987V250.987L1564.59 250.987L1564.59 251.987ZM1564.57 251.987L1564.57 252.987L1564.57 252.987L1564.57 251.987ZM1564.55 251.987L1564.55 250.987H1564.55V251.987ZM1339.46 251.987V250.987L1339.46 250.987L1339.46 251.987ZM1339.44 251.987L1339.44 252.987L1339.44 252.987L1339.44 251.987ZM1339.42 251.987L1339.42 250.987H1339.42V251.987ZM1222.01 251.987V250.987H1221.01V251.987H1222.01ZM719.497 251.987H720.497V250.987H719.497V251.987ZM602.564 251.987L602.564 250.987L602.564 250.987L602.564 251.987ZM602.543 251.987L602.542 252.987L602.544 252.987L602.543 251.987ZM602.522 251.987L602.522 250.987H602.522V251.987ZM1777.39 222.539V223.539L1777.71 221.592L1777.39 222.539ZM1579.3 222.539H1578.3V223.539H1579.3V222.539ZM1579.3 155.683L1579.62 154.735L1578.3 154.29V155.683H1579.3ZM1403.28 96.2737L1403.6 95.3262L1402.67 97.0689L1403.28 96.2737ZM1549.84 145.738H1550.84V145.021L1550.16 144.791L1549.84 145.738ZM1549.84 208.056L1549.23 208.851L1550.84 210.076V208.056H1549.84ZM1354.17 95.8702L1354.77 95.0751L1353.17 93.8498V95.8702H1354.17ZM1354.17 222.539H1353.17V223.539H1354.17V222.539ZM1520.25 222.539V223.539H1523.21L1520.85 221.744L1520.25 222.539ZM1324.7 69.7542H1325.7V69.0363L1325.02 68.8068L1324.7 69.7542ZM1324.7 178.712L1323.85 179.229L1325.7 182.299V178.712H1324.7ZM1241.97 41.8304L1242.29 40.8829L1239.7 40.009L1241.11 42.3477L1241.97 41.8304ZM1222.45 222.539H1221.45V223.539H1222.45V222.539ZM1316.79 222.539V223.539H1318.56L1317.64 222.022L1316.79 222.539ZM1222.45 66.4587L1223.3 65.9414L1221.45 62.8711V66.4587H1222.45ZM1192.55 223.29L1192.12 224.191L1193.55 224.881V223.29H1192.55ZM1004.74 132.87L1004.3 131.969L1002.43 132.87L1004.3 133.771L1004.74 132.87ZM1192.55 42.4504H1193.55V40.8592L1192.12 41.5494L1192.55 42.4504ZM798.799 33.7257V32.7257L798.365 34.6268L798.799 33.7257ZM970.788 116.527L970.354 117.428L970.788 117.637L971.222 117.428L970.788 116.527ZM1142.78 33.7257L1143.21 34.6268L1142.78 32.7257V33.7257ZM748.961 223.321H747.961V224.913L749.395 224.222L748.961 223.321ZM936.841 132.87L937.275 133.771L939.147 132.87L937.275 131.969L936.841 132.87ZM748.961 42.4186L749.395 41.5175L747.961 40.8273V42.4186H748.961ZM970.788 149.213L971.222 148.312L970.788 148.103L970.354 148.312L970.788 149.213ZM798.766 232.03L798.332 231.129L798.766 233.03V232.03ZM1142.81 232.03V233.03L1143.24 231.129L1142.81 232.03ZM1004.69 360.633L1004.25 359.732L1002.38 360.633L1004.25 361.534L1004.69 360.633ZM1192.55 451.076L1192.12 451.977L1193.55 452.667V451.076H1192.55ZM1192.55 270.19H1193.55V268.599L1192.12 269.289L1192.55 270.19ZM970.74 344.29L970.306 345.191L970.74 345.4L971.174 345.191L970.74 344.29ZM1142.68 261.514L1143.11 262.415L1142.68 260.514V261.514ZM798.804 261.514V260.514L798.37 262.415L798.804 261.514ZM748.961 451.061H747.961V452.653L749.395 451.962L748.961 451.061ZM748.961 270.205L749.395 269.304L747.961 268.613V270.205H748.961ZM936.793 360.633L937.227 361.534L939.098 360.633L937.227 359.732L936.793 360.633ZM798.664 459.819L798.231 458.918L798.664 460.819V459.819ZM970.74 376.976L971.174 376.075L970.74 375.866L970.306 376.075L970.74 376.976ZM1142.82 459.819V460.819L1143.25 458.918L1142.82 459.819ZM1192.55 497.93H1193.55V496.339L1192.12 497.029L1192.55 497.93ZM1192.55 678.826L1192.12 679.727L1193.55 680.417V678.826H1192.55ZM1004.68 588.378L1004.24 587.477L1002.37 588.378L1004.24 589.279L1004.68 588.378ZM970.729 604.721L971.163 603.82L970.729 603.612L970.296 603.82L970.729 604.721ZM1142.82 687.572V688.572L1143.25 686.671L1142.82 687.572ZM798.638 687.572L798.204 686.671L798.638 688.572V687.572ZM936.782 588.378L937.216 589.279L939.088 588.378L937.216 587.477L936.782 588.378ZM748.961 678.801H747.961V680.393L749.395 679.702L748.961 678.801ZM748.961 497.955L749.395 497.054L747.961 496.364V497.955H748.961ZM798.809 489.267V488.267L798.375 490.168L798.809 489.267ZM970.729 572.035L970.296 572.936L970.729 573.145L971.163 572.936L970.729 572.035ZM1142.65 489.267L1143.08 490.168L1142.65 488.267V489.267ZM699.61 40.8982L616.955 68.7946L617.595 70.6896L700.249 42.7932L699.61 40.8982ZM618.131 179.11L700.785 42.363L699.074 41.3284L616.419 178.075L618.131 179.11ZM616.275 69.7421V178.592H618.275V69.7421H616.275ZM718.641 65.8816L624.265 222.022L625.977 223.056L720.353 66.9162L718.641 65.8816ZM720.497 222.539V66.3989H718.497V222.539H720.497ZM625.121 223.539H719.497V221.539H625.121V223.539ZM392.425 146.686L539.134 97.1708L538.494 95.2758L391.786 144.791L392.425 146.686ZM393.105 208.119V145.738H391.105V208.119H393.105ZM538.207 95.4281L391.499 207.324L392.712 208.915L539.42 97.0184L538.207 95.4281ZM422.387 223.334L588.417 96.7014L587.205 95.1111L421.174 221.744L422.387 223.334ZM587.811 221.539H421.781V223.539H587.811V221.539ZM586.811 95.9063V222.539H588.811V95.9063H586.811ZM362.321 154.735L164.232 221.592L164.872 223.487L362.961 156.63L362.321 154.735ZM363.641 222.539V155.683H361.641V222.539H363.641ZM164.552 223.539H362.641V221.539H164.552V223.539ZM106.191 252.987H377.373V250.987H106.191V252.987ZM147.269 300.141L106.962 251.35L105.42 252.624L145.727 301.415L147.269 300.141ZM145.147 322.266C151.861 316.751 152.782 306.845 147.271 300.143L145.726 301.413C150.542 307.27 149.73 315.913 143.878 320.72L145.147 322.266ZM135.124 325.849C138.665 325.849 142.216 324.694 145.15 322.263L143.874 320.723C141.32 322.839 138.227 323.849 135.124 323.849V325.849ZM135.088 325.849H135.124V323.849H135.088V325.849ZM122.947 320.149C126.067 323.884 130.576 325.849 135.088 325.849V323.849C131.151 323.849 127.211 322.133 124.481 318.867L122.947 320.149ZM74.1249 261.032L122.943 320.145L124.485 318.871L75.667 259.759L74.1249 261.032ZM26.8489 320.145L75.667 261.032L74.1249 259.759L25.3068 318.871L26.8489 320.145ZM4.71491 322.264C11.386 327.775 21.3337 326.852 26.8502 320.143L25.3054 318.873C20.4951 324.723 11.8111 325.532 5.98872 320.722L4.71491 322.264ZM2.59527 300.141C-2.91938 306.809 -1.99546 316.752 4.71709 322.266L5.98654 320.72C0.133488 315.913 -0.675784 307.234 4.13647 301.416L2.59527 300.141ZM62.0569 228.163L2.59492 300.141L4.13682 301.415L63.5988 229.437L62.0569 228.163ZM69.8452 222.35C66.5725 223.457 63.8748 225.56 62.0085 228.227L63.6471 229.374C65.2772 227.044 67.6306 225.211 70.4864 224.244L69.8452 222.35ZM729.179 -0.17026L69.846 222.349L70.4856 224.244L729.819 1.72473L729.179 -0.17026ZM743.374 1.95286C739.28 -1.01972 733.958 -1.78786 729.178 -0.169963L729.82 1.72443C733.995 0.310927 738.639 0.986306 742.199 3.5713L743.374 1.95286ZM745.271 3.56967C744.686 2.98631 744.052 2.44514 743.374 1.95288L742.199 3.57129C742.793 4.00209 743.347 4.47559 743.859 4.9859L745.271 3.56967ZM1197.35 3.27779H744.565V5.27779H1197.35V3.27779ZM1198.54 1.98274C1197.87 2.46282 1197.23 2.99251 1196.65 3.5648L1198.06 4.99078C1198.56 4.49248 1199.11 4.03143 1199.7 3.61361L1198.54 1.98274ZM1212.73 -0.133876C1207.95 -1.75249 1202.66 -0.981935 1198.54 1.98634L1199.7 3.61C1203.3 1.0207 1207.91 0.347726 1212.09 1.76052L1212.73 -0.133876ZM1871.69 222.261L1212.73 -0.134172L1212.09 1.76082L1871.05 224.156L1871.69 222.261ZM1871.08 224.165C1873.64 224.938 1875.94 226.447 1877.69 228.555L1879.23 227.277C1877.22 224.866 1874.59 223.137 1871.66 222.251L1871.08 224.165ZM1877.69 228.553L1937.88 301.415L1939.42 300.141L1879.23 227.279L1877.69 228.553ZM1937.88 301.413C1942.69 307.27 1941.88 315.913 1936.03 320.72L1937.3 322.266C1944.01 316.751 1944.93 306.845 1939.42 300.143L1937.88 301.413ZM1936.03 320.723C1933.47 322.839 1930.38 323.849 1927.28 323.849V325.849C1930.82 325.849 1934.37 324.694 1937.3 322.263L1936.03 320.723ZM1927.28 323.849H1927.24V325.849H1927.28V323.849ZM1927.24 323.849C1923.3 323.849 1919.36 322.133 1916.63 318.867L1915.1 320.149C1918.22 323.884 1922.73 325.849 1927.24 325.849V323.849ZM1916.64 318.871L1867.82 259.759L1866.28 261.032L1915.09 320.145L1916.64 318.871ZM1866.28 259.759L1817.46 318.871L1819 320.145L1867.82 261.032L1866.28 259.759ZM1817.46 318.873C1812.65 324.723 1803.96 325.532 1798.14 320.722L1796.87 322.264C1803.54 327.775 1813.49 326.852 1819 320.143L1817.46 318.873ZM1798.14 320.72C1792.29 315.913 1791.48 307.234 1796.29 301.416L1794.75 300.141C1789.23 306.809 1790.16 316.752 1796.87 322.266L1798.14 320.72ZM1796.29 301.415L1836.6 252.624L1835.05 251.35L1794.75 300.141L1796.29 301.415ZM1564.59 252.987H1835.82V250.987H1564.59V252.987ZM1564.57 252.987L1564.59 252.987L1564.59 250.987L1564.57 250.987L1564.57 252.987ZM1564.55 252.987L1564.57 252.987L1564.57 250.987L1564.55 250.987L1564.55 252.987ZM1339.46 252.987H1564.55V250.987H1339.46V252.987ZM1339.44 252.987L1339.46 252.987L1339.46 250.987L1339.44 250.987L1339.44 252.987ZM1339.41 252.987L1339.44 252.987L1339.44 250.987L1339.42 250.987L1339.41 252.987ZM1222.01 252.987H1339.42V250.987H1222.01V252.987ZM1223.01 474.543V251.987H1221.01V474.543H1223.01ZM1223.01 702.296V474.543H1221.01V702.296H1223.01ZM1207.28 718.02C1215.96 718.02 1223.01 710.968 1223.01 702.296H1221.01C1221.01 709.863 1214.85 716.02 1207.28 716.02V718.02ZM734.229 718.02H1207.28V716.02H734.229V718.02ZM718.497 702.296C718.497 710.968 725.553 718.02 734.229 718.02V716.02C726.657 716.02 720.497 709.863 720.497 702.296H718.497ZM718.497 474.543V702.296H720.497V474.543H718.497ZM718.497 251.987V474.543H720.497V251.987H718.497ZM602.564 252.987H719.497V250.987H602.564V252.987ZM602.544 252.987L602.565 252.987L602.564 250.987L602.542 250.987L602.544 252.987ZM602.521 252.987L602.542 252.987L602.544 250.987L602.522 250.987L602.521 252.987ZM377.373 252.987H602.522V250.987H377.373V252.987ZM1777.39 221.539H1579.3V223.539H1777.39V221.539ZM1578.98 156.63L1777.07 223.487L1777.71 221.592L1579.62 154.735L1578.98 156.63ZM1580.3 222.539V155.683H1578.3V222.539H1580.3ZM1402.96 97.2212L1549.52 146.686L1550.16 144.791L1403.6 95.3262L1402.96 97.2212ZM1550.44 207.261L1403.89 95.4786L1402.67 97.0689L1549.23 208.851L1550.44 207.261ZM1548.84 145.738V208.056H1550.84V145.738H1548.84ZM1353.17 95.8702V222.539H1355.17V95.8702H1353.17ZM1520.85 221.744L1354.77 95.0751L1353.56 96.6653L1519.64 223.334L1520.85 221.744ZM1354.17 223.539H1520.25V221.539H1354.17V223.539ZM1323.7 69.7542V178.712H1325.7V69.7542H1323.7ZM1241.65 42.7779L1324.38 70.7017L1325.02 68.8068L1242.29 40.8829L1241.65 42.7779ZM1325.56 178.195L1242.82 41.3131L1241.11 42.3477L1323.85 179.229L1325.56 178.195ZM1222.45 223.539H1316.79V221.539H1222.45V223.539ZM1221.45 66.4587V222.539H1223.45V66.4587H1221.45ZM1317.64 222.022L1223.3 65.9414L1221.59 66.976L1315.93 223.056L1317.64 222.022ZM1192.98 222.389L1005.17 131.969L1004.3 133.771L1192.12 224.191L1192.98 222.389ZM1191.55 42.4504V223.29H1193.55V42.4504H1191.55ZM1005.17 133.771L1192.98 43.3515L1192.12 41.5494L1004.3 131.969L1005.17 133.771ZM798.365 34.6268L970.354 117.428L971.222 115.626L799.233 32.8247L798.365 34.6268ZM1142.78 32.7257H798.799V34.7257H1142.78V32.7257ZM971.222 117.428L1143.21 34.6268L1142.34 32.8247L970.354 115.626L971.222 117.428ZM749.395 224.222L937.275 133.771L936.407 131.969L748.527 222.42L749.395 224.222ZM747.961 42.4186V223.321H749.961V42.4186H747.961ZM937.275 131.969L749.395 41.5175L748.527 43.3196L936.407 133.771L937.275 131.969ZM970.354 148.312L798.332 231.129L799.2 232.931L971.222 150.114L970.354 148.312ZM1143.24 231.129L971.222 148.312L970.354 150.114L1142.38 232.931L1143.24 231.129ZM798.766 233.03H1142.81V231.03H798.766V233.03ZM1004.25 361.534L1192.12 451.977L1192.98 450.175L1005.12 359.732L1004.25 361.534ZM1192.12 269.289L1004.25 359.732L1005.12 361.534L1192.98 271.091L1192.12 269.289ZM1193.55 451.076V270.19H1191.55V451.076H1193.55ZM971.174 345.191L1143.11 262.415L1142.24 260.613L970.306 343.389L971.174 345.191ZM798.37 262.415L970.306 345.191L971.174 343.389L799.238 260.613L798.37 262.415ZM1142.68 260.514H798.804V262.514H1142.68V260.514ZM749.961 451.061V270.205H747.961V451.061H749.961ZM936.359 359.732L748.527 450.16L749.395 451.962L937.227 361.534L936.359 359.732ZM748.527 271.106L936.359 361.534L937.227 359.732L749.395 269.304L748.527 271.106ZM799.098 460.72L971.174 377.877L970.306 376.075L798.231 458.918L799.098 460.72ZM1142.82 458.819H798.664V460.819H1142.82V458.819ZM970.306 377.877L1142.38 460.72L1143.25 458.918L971.174 376.075L970.306 377.877ZM1191.55 497.93V678.826H1193.55V497.93H1191.55ZM1005.11 589.279L1192.98 498.831L1192.12 497.029L1004.24 587.477L1005.11 589.279ZM1192.98 677.925L1005.11 587.477L1004.24 589.279L1192.12 679.727L1192.98 677.925ZM970.296 605.622L1142.39 688.473L1143.25 686.671L971.163 603.82L970.296 605.622ZM799.072 688.473L971.163 605.622L970.296 603.82L798.204 686.671L799.072 688.473ZM1142.82 686.572H798.638V688.572H1142.82V686.572ZM936.349 587.477L748.527 677.9L749.395 679.702L937.216 589.279L936.349 587.477ZM748.527 498.856L936.349 589.279L937.216 587.477L749.395 497.054L748.527 498.856ZM749.961 678.801V497.955H747.961V678.801H749.961ZM798.375 490.168L970.296 572.936L971.163 571.134L799.243 488.366L798.375 490.168ZM1142.65 488.267H798.809V490.267H1142.65V488.267ZM971.163 572.936L1143.08 490.168L1142.22 488.366L970.296 571.134L971.163 572.936Z" fill="#D5EAF1" mask="url(#path-1-inside-1_39_34849)"/>
</g>
</svg>
