<svg width="503" height="765" viewBox="0 0 503 765" fill="none" xmlns="http://www.w3.org/2000/svg">
<path opacity="0.6" d="M500.829 744.979L500.829 744.979C502.222 749.296 501.456 754.031 498.773 757.686L498.772 757.688C496.089 761.378 491.803 763.537 487.273 763.537H14.7429C10.1793 763.537 5.92729 761.344 3.24255 757.686C0.56008 754.031 -0.206437 749.296 1.18708 744.979L1.18724 744.979L237.488 10.3911L237.489 10.3902C239.37 4.50699 244.84 0.537354 251.008 0.537354C257.176 0.537354 262.646 4.50699 264.527 10.3902L264.527 10.3911L423.204 503.625L423.218 503.668L423.239 503.708C424.001 505.126 424.455 506.655 424.7 508.268L424.706 508.308L424.719 508.346L500.829 744.979ZM189.472 254.573L188.915 254.178L188.706 254.827L167.028 322.231L166.567 323.662L167.793 322.791L226.084 281.376L226.658 280.968L226.084 280.561L189.472 254.573ZM334.904 322.059V321.801L334.814 321.737L313.382 255.08L313.173 254.43L312.616 254.825L276.293 280.597L275.718 281.004L276.293 281.412L334.115 322.467L334.313 322.188L334.904 322.095V322.059ZM354.939 536.024H147.376H145.506L147.126 536.958L250.975 596.755L251.224 596.899L251.474 596.755L355.322 536.958L355.109 536.587V536.524V536.024H355.073H354.939ZM126.877 507.612H375.705H377.576L375.955 506.679L251.474 435.022L251.224 434.878L250.975 435.022L126.494 506.679L126.707 507.049V507.112V507.612H126.743H126.877ZM280.445 418.045L280.194 418.189V418.478V418.514V418.803L280.445 418.948L384.438 478.818L385.559 479.463L385.163 478.231L352.663 377.162L352.474 376.574L351.938 376.882L280.445 418.045ZM250.975 401.935L251.091 402.001H251.224H251.26H251.394L251.51 401.935L305.869 370.612L307.489 369.679H305.619H196.865H194.996L196.616 370.612L250.975 401.935ZM192.067 340.359L190.789 341.266H192.356H309.788H309.948H310.02V340.766V340.665L310.237 340.359L251.442 298.583L251.152 298.377L250.863 298.583L192.067 340.359ZM150.15 376.666L149.614 376.357L149.425 376.946L116.781 478.448L116.384 479.68L117.506 479.034L221.968 418.876L222.72 418.442L221.968 418.009L150.15 376.666ZM97.2703 541.029L96.7342 540.72L96.5448 541.309L39.8773 717.531L39.481 718.763L40.6028 718.117L221.968 613.696L222.72 613.263L221.968 612.83L97.2703 541.029ZM251.438 629.807L251.188 629.663L250.939 629.807L69.7181 734.156L68.0972 735.089H69.9676H432.409H434.279L432.658 734.156L251.438 629.807ZM280.305 613.617L280.576 613.888L280.672 613.832L461.305 717.829L462.427 718.475L462.03 717.243L405.507 541.489L405.318 540.901L404.781 541.209L280.409 612.83L280.595 613.154L280.269 613.581L280.305 613.617ZM251.484 62.6378L251.008 61.1582L250.532 62.6378L198.157 225.451L198.045 225.8L198.343 226.012L250.899 263.354L251.188 263.56L251.478 263.354L303.745 226.228L304.043 226.016L303.931 225.667L251.484 62.6378Z" stroke="#D5EAF1"/>
</svg>
