<svg width="286" height="92" viewBox="0 0 286 92" fill="none" xmlns="http://www.w3.org/2000/svg">
<path d="M60.8717 32.6988C59.7136 36.3883 58.4832 38.7033 57.2165 39.68C56.2032 40.4757 54.2128 40.8375 51.3176 40.8375H39.6282C37.6016 40.8375 36.3349 40.5842 35.8282 40.0417C35.3216 39.4991 35.3216 38.4139 35.8282 36.8224L36.4435 34.8691H30.6531L29.8931 37.3288H22.7637L27.8303 21.2324H61.4146L58.0127 32.0477L60.8717 32.6988ZM64.6717 18.7727H58.0851L60.0755 12.4789H50.7385L48.2776 20.3643H41.0396L43.5005 12.4789H34.5616L32.5712 18.7727H25.9122L29.4588 7.45101H45.0567L45.3824 6.40203H32.5712L34.0187 1.80823H67.3859L65.9383 6.40203H52.6566L52.3309 7.45101H68.2545L64.7078 18.7727H64.6717ZM37.8187 30.42L38.2168 29.1902H32.4264L32.0283 30.42H37.8187ZM40.0625 20.2558H33.114L34.0187 17.3982H40.9672L40.0625 20.2558ZM39.1577 26.1518L39.5558 24.9219H33.7654L33.3673 26.1518H39.1577ZM41.2567 16.3854H34.3083L35.213 13.4917H42.1615L41.2567 16.3854ZM53.0185 34.5798H43.7177L43.4643 35.3755C43.3558 35.6649 43.3558 35.8096 43.4643 35.8819C43.5367 35.9181 43.7539 35.9543 44.1519 35.9543H50.5938C51.3899 35.9543 51.969 35.8819 52.2585 35.7372C52.548 35.5926 52.8375 35.2308 53.0547 34.6159L53.0185 34.5798ZM51.3899 30.42L51.788 29.1902H45.4548L45.0567 30.42H51.3899ZM52.729 26.1518L53.1271 24.9219H46.7938L46.3957 26.1518H52.729ZM56.5651 20.2558H49.3271L50.2319 17.3982H57.4698L56.5651 20.2558ZM57.7594 16.3854H50.5214L51.4261 13.4917H58.6641L57.7594 16.3854Z" fill="white"/>
<path d="M106.362 1.26599C105.639 2.45966 105.096 3.36395 104.734 3.94269H112.406L107.05 21.0519H104.408L107.593 24.452C105.711 26.4415 103.757 28.2501 101.73 29.8416C102.49 31.2885 103.503 32.7715 104.806 34.3269L98.9796 40.1505C97.4596 37.7994 96.3739 35.5567 95.6863 33.4588L94.8539 36.0993C94.2749 37.9441 93.5873 39.2101 92.7549 39.8973C91.9226 40.5846 90.8007 40.9101 89.3169 40.9101H85.0103L85.1912 35.3035C83.6712 37.0759 82.0065 38.7398 80.2694 40.3314L78.6408 35.8823L76.4694 36.7142C76.6866 34.3992 77.0123 31.9396 77.4466 29.299L73.7552 41.091H67.4581L71.2581 28.9735C69.6657 32.4821 68.001 35.8099 66.1915 38.8483L62.4277 36.0993C64.3458 33.0971 66.1553 29.6607 67.8562 25.7542L71.9457 26.767L72.4885 24.9946C70.8238 25.1393 68.8695 25.284 66.6258 25.3925L67.8924 19.5688C68.8334 19.5688 69.7743 19.5688 70.7152 19.5327C71.6924 18.7007 72.6333 17.8326 73.6104 16.9283C72.5971 15.0836 71.4752 13.275 70.2086 11.5387L75.7818 4.88316C76.0714 5.35339 76.3247 5.78745 76.5056 6.14917C77.917 4.48527 79.437 2.56817 81.0294 0.470215L85.8788 2.85754C83.6351 5.42573 81.2827 7.99392 78.8942 10.4898L79.3646 11.4302C81.3551 9.44079 83.3817 7.23431 85.5169 4.88316L89.9321 7.23431L90.9816 3.94269H97.2063C97.8577 3.00223 98.5453 1.88091 99.3053 0.542558L106.326 1.22982L106.362 1.26599ZM78.2066 19.0986C78.4961 19.0986 79.437 18.9539 80.957 18.7369C80.957 18.122 80.957 17.3624 80.8846 16.5666L78.1704 19.0986H78.2066ZM79.0389 24.1626L78.3151 26.4415L82.2598 25.284C82.0065 26.6947 81.6808 28.9011 81.2827 31.831C83.0198 30.348 84.4312 28.9011 85.4807 27.4904H82.6941L83.7074 24.235L80.6313 25.1393L80.7399 23.8733C80.378 23.9456 79.7989 24.018 79.0389 24.1265V24.1626ZM82.5855 14.975L85.5893 13.9622C85.7341 15.8793 85.7341 18.1943 85.6617 20.9434L89.6788 8.17478C87.8693 9.98336 85.5169 12.226 82.6217 14.9389L82.5855 14.975ZM89.9683 29.0097C88.8826 30.7097 87.5798 32.4821 86.0598 34.2907H87.9778C88.8102 34.2907 89.3893 33.8205 89.715 32.8077L93.4063 21.0519H85.6617V22.137H92.1397L90.0045 29.0097H89.9683ZM101.73 16.1687L102.128 14.9389H94.3835L93.9854 16.1687H101.73ZM103.395 10.8153L103.793 9.51313H96.0482L95.6501 10.8153H103.395ZM99.5586 21.0519C99.5225 22.4264 99.631 23.7286 99.9205 25.0669C101.585 23.5839 102.924 22.2456 104.01 21.0519H99.5948H99.5586Z" fill="white"/>
<path d="M148.126 21.8473C145.303 22.4622 142.372 23.2218 139.368 24.1985C139.114 25.5368 138.535 27.671 137.667 30.637H130.429C130.646 29.9859 131.008 28.8285 131.515 27.1646C128.836 28.4306 127.316 29.5881 126.991 30.6009C126.557 31.9392 128.475 32.5903 132.709 32.5903C135.459 32.5903 138.716 32.3733 142.408 31.9392L140.598 39.2821C137.377 39.6076 134.193 39.7523 131.08 39.7523C121.309 39.7523 117.364 36.8947 119.138 31.1073C120.368 27.2369 124.457 23.6559 131.478 20.4366C131.189 20.2196 130.791 20.0749 130.32 20.0749C128.656 20.0749 126.774 20.726 124.638 22.0282C122.757 23.1495 120.947 24.5964 119.21 26.3688C116.749 28.8646 114.976 30.7456 113.818 32.0116L109.33 27.2007C114.107 22.7154 118.45 18.0131 122.358 13.0576L115.88 13.2385L118.052 5.89563C121.128 5.96797 124.277 6.00414 127.534 5.96797C128.366 4.70196 129.235 3.32744 130.139 1.80823L137.92 2.64018C137.233 3.72533 136.545 4.81048 135.857 5.82328C139.585 5.71477 144.036 5.49774 149.211 5.17219L147.04 12.3704C141.539 12.5512 136.038 12.7321 130.537 12.8768C129.922 13.6002 129.126 14.5407 128.113 15.662C130.212 14.83 132.238 14.396 134.229 14.396C136.871 14.396 138.572 15.4088 139.332 17.3982C142.408 16.3854 145.448 15.5173 148.488 14.83L148.162 21.8473H148.126Z" fill="white"/>
<path d="M189.672 19.8219C187.826 25.6817 183.555 30.0223 176.896 32.8799C172.011 34.9778 166.003 36.2438 158.874 36.6055L159.236 28.7201C172.083 28.2137 179.321 25.2838 181.022 19.8581C182.108 16.4218 179.864 14.6855 174.363 14.6855C169.224 14.6855 162.674 16.0962 154.64 18.8814L154.712 11.1769C163.506 8.35548 171.178 6.98096 177.693 6.98096C182.795 6.98096 186.378 8.17462 188.477 10.5258C190.504 12.7684 190.938 15.8792 189.708 19.8219H189.672Z" fill="white"/>
<path d="M215.258 14.7215C213.992 14.7939 211.748 14.8662 208.491 14.9385C204.329 21.3771 199.697 28.0327 194.63 34.9415L188.116 31.8669C192.459 26.5858 196.548 21.0154 200.348 15.1556L195.969 15.2279L198.032 7.81272C199.516 7.81272 201.832 7.81272 204.98 7.74038C206.247 5.60625 207.369 3.61681 208.382 1.80823L215.982 2.71252C214.824 4.73813 213.883 6.32968 213.195 7.48718C214.281 7.41483 215.692 7.34249 217.43 7.27015L215.258 14.7215ZM228.829 27.3816L224.342 34.7968C223.51 34.1457 222.279 33.3137 220.723 32.2648L218.407 38.9927C216.018 39.3906 213.449 39.6076 210.662 39.6076C202.013 39.6076 198.647 36.533 200.565 30.3477C201.325 27.888 202.845 25.8986 205.089 24.3432C207.333 22.7878 210.011 22.0282 213.123 22.0282C214.353 22.0282 215.475 22.1005 216.525 22.2814L219.275 14.3236C218.66 14.2151 217.719 14.0342 216.525 13.8534L220.108 6.90843C224.993 7.41483 229.698 8.46381 234.222 9.98302L230.096 17.0727C229.445 16.8918 228.214 16.5301 226.477 16.0237L223.582 24.2708C225.247 25.0666 227.02 26.0794 228.902 27.3454L228.829 27.3816ZM214.136 29.0093C212.978 28.6838 211.965 28.5391 211.024 28.5391C209.142 28.5391 207.984 29.2625 207.55 30.6732C207.115 32.0477 208.129 32.6988 210.517 32.6988C211.603 32.6988 212.399 32.6627 212.906 32.5541L214.136 29.0093Z" fill="white"/>
<path d="M277.685 6.11277L272.981 7.16174L272.004 11.0683C268.674 11.3938 265.381 11.647 262.124 11.8641C262.124 12.2619 262.16 12.8769 262.232 13.6365C265.308 13.4194 268.747 13.1301 272.583 12.7684L270.809 19.4963C267.661 19.7133 265.055 19.858 262.956 19.9665C263.354 22.7879 263.933 25.4646 264.657 27.9966L256.551 30.3478C253.257 28.9732 249.747 28.3222 246.128 28.3222C242.907 28.3222 241.097 28.9732 240.699 30.3116C240.374 31.3606 241.315 32.084 243.522 32.4096C244.499 32.5542 246.128 32.6266 248.444 32.6266C252.497 32.6266 256.804 32.2649 261.364 31.5414L259.518 39.1375C254.09 39.6077 249.53 39.8247 245.802 39.8247C235.198 39.8247 230.856 36.7502 232.774 30.6733C233.606 28.0328 235.343 25.971 237.949 24.4156C240.591 22.8602 243.703 22.1006 247.358 22.1006C250.253 22.1006 252.895 22.4985 255.284 23.222C255.175 22.6432 255.031 21.7027 254.813 20.4006C247.937 20.7261 241.64 20.907 235.958 21.0155L237.804 14.4684C243.45 14.4684 248.878 14.3599 254.126 14.1067C254.126 13.745 254.053 13.1662 254.017 12.3705C249.964 12.5513 245.187 12.6598 239.614 12.7322L241.387 6.40214C245.585 6.47448 249.711 6.40214 253.692 6.18511L253.583 2.89349L261.907 2.09771C261.907 2.89349 261.907 4.05098 261.907 5.64253C262.92 5.57019 264.44 5.4255 266.467 5.20847C266.358 4.23184 266.249 3.2552 266.068 2.35091L270.737 1.30194C270.99 2.42326 271.171 3.58075 271.316 4.73824L272.619 4.55738C272.474 3.14669 272.293 1.95303 272.076 1.01256L276.817 -0.000244141C277.36 1.77217 277.649 3.83395 277.722 6.18511L277.685 6.11277Z" fill="white"/>
<path d="M38.5061 90.1189H0L2.20759 83.1378H17.2264L18.0588 80.5334H5.86277L7.88941 74.0949H9.3732L7.41894 69.5734C10.857 68.7776 13.4265 67.9457 15.1636 67.1499C17.5159 66.0647 19.3616 64.5455 20.6645 62.5923H16.1407L14.9103 66.4988H7.45513L10.8208 55.792H25.8758L27.0701 51.9216H35.1043L33.91 55.792H49.2545L46.106 65.8477H42.3423L44.0794 66.3541C42.7404 69.2117 41.4737 71.0564 40.2071 71.8522C39.3747 72.3948 37.9995 72.6842 36.0814 72.6842H29.0967C27.1425 72.6842 26.0206 72.4671 25.6949 72.0331C25.4415 71.6714 25.5501 70.6947 26.0568 69.1393L28.1196 62.5923H21.7864L26.8168 64.9434C23.7768 69.1393 19.5064 72.1778 14.0055 74.0949H40.4966L38.4699 80.5334H26.2739L25.4415 83.1378H40.7137L38.5061 90.1189ZM38.9766 64.8711L39.7004 62.6284H35.5024L34.489 65.8839C34.3443 66.3541 34.3081 66.6073 34.3805 66.6797C34.4529 66.752 34.7424 66.7882 35.2128 66.7882H36.0452C36.5157 66.7882 36.8414 66.6797 37.0223 66.4626C37.2033 66.2456 37.5652 65.6307 38.0357 64.5817L39.0128 64.8711H38.9766Z" fill="white"/>
<path d="M85.9509 70.8754C82.8385 80.7503 75.5282 86.8994 64.0197 89.3229L62.7169 81.7992C66.2997 81.329 69.3759 80.2077 71.9453 78.5438C74.8767 76.6629 76.831 74.2394 77.7357 71.2371C78.8576 67.6199 78.2424 65.0156 75.8901 63.3879L56.6732 88.3825C53.0542 87.5144 50.3761 85.9228 48.639 83.644C46.3952 80.7864 45.9971 77.1331 47.3724 72.7201C48.9647 67.6923 52.1856 63.424 57.0351 59.8792C61.8845 56.3706 67.0959 54.5981 72.7053 54.5981C78.7129 54.5981 82.8747 56.3706 85.0823 59.9516C86.9642 62.99 87.2537 66.6071 85.9147 70.8392L85.9509 70.8754ZM68.9416 61.7963C66.0464 61.9772 63.2236 63.1708 60.4731 65.3411C57.7227 67.5114 55.9494 69.9711 55.0446 72.7563C54.2485 75.2522 54.6465 77.0607 56.2027 78.1821L68.9054 61.7601L68.9416 61.7963Z" fill="white"/>
<path d="M92.2843 87.5145C89.5701 89.2146 86.9644 90.6977 84.4673 91.9998L84.6844 84.0421C87.3263 82.8484 89.751 81.6547 91.85 80.4249L93.8043 74.1672H88.7377L90.9453 67.0776H103.322L98.9795 80.9675C98.9795 81.9803 99.3775 82.7037 100.282 83.1016C101.078 83.4633 102.381 83.608 104.227 83.608H125.507L121.562 90.4806H100.861C98.6176 90.4806 96.9528 90.3359 95.8671 90.0466C94.2386 89.6125 93.0443 88.7444 92.2843 87.4784V87.5145ZM123.48 82.4505H100.246L106.507 62.5199H113.202C113.202 62.5199 113.492 62.0859 114.034 61.2901H105.204L105.819 59.3007L99.1242 64.2562C97.7852 61.688 96.0843 59.3368 94.0214 57.2389L100.934 52.0663C102.816 53.7664 104.553 55.9005 106.037 58.5049L107.086 55.1047H111.139C110.958 54.309 110.741 53.477 110.524 52.6089L118.522 51.3791C118.812 52.5366 118.993 53.7664 119.137 55.0686H121.309C122.177 53.9473 123.118 52.6451 124.059 51.2344L131.442 52.1748C130.79 53.0068 130.067 53.9834 129.198 55.0324H133.794L131.84 61.2178H121.996C121.815 61.471 121.526 61.8688 121.128 62.4476H129.669L123.408 82.3782L123.48 82.4505ZM117.798 77.6035L118.196 76.3737H109.366L108.968 77.6035H117.798ZM119.282 72.8289L119.644 71.6714H110.814L110.452 72.8289H119.282ZM120.73 68.2351L121.092 67.0776H112.261L111.899 68.2351H120.73Z" fill="white"/>
<path d="M168.501 72.1054C165.678 72.7203 162.747 73.4799 159.743 74.4565C159.489 75.7949 158.91 77.929 158.042 80.8951H150.804C151.021 80.244 151.383 79.0865 151.89 77.4226C149.211 78.6886 147.691 79.8461 147.366 80.8589C146.932 82.1973 148.85 82.8484 153.084 82.8484C155.834 82.8484 159.091 82.6313 162.783 82.1973L160.973 89.5401C157.752 89.8657 154.568 90.0104 151.455 90.0104C141.684 90.0104 137.739 87.1166 139.513 81.3653C140.743 77.495 144.832 73.914 151.853 70.6947C151.564 70.4777 151.166 70.333 150.695 70.333C149.031 70.333 147.149 70.9841 145.013 72.2862C143.132 73.4076 141.322 74.8544 139.585 76.6268C137.124 79.1227 135.351 81.0036 134.193 82.2696L129.705 77.4588C134.482 72.9735 138.825 68.2712 142.733 63.3157L136.255 63.4965L138.427 56.1537C141.503 56.226 144.652 56.2622 147.909 56.226C148.741 54.96 149.61 53.5493 150.514 52.0663L158.295 52.8982C157.608 53.9834 156.92 55.0685 156.232 56.0813C159.96 55.9728 164.411 55.7558 169.586 55.4302L167.415 62.6284C161.914 62.8093 156.413 62.9901 150.912 63.1348C150.297 63.8582 149.501 64.7987 148.488 65.92C150.587 65.0881 152.613 64.654 154.604 64.654C157.246 64.654 158.947 65.6668 159.707 67.6563C162.783 66.6435 165.823 65.7753 168.863 65.0881L168.537 72.1054H168.501Z" fill="white"/>
<path d="M210.01 70.0799C208.165 75.9397 203.894 80.2803 197.235 83.1378C192.35 85.272 186.342 86.5018 179.213 86.8635L179.575 78.9781C192.422 78.4717 199.66 75.5418 201.361 70.116C202.447 66.6797 200.203 64.9435 194.702 64.9435C189.563 64.9435 183.013 66.3542 174.979 69.1394L175.051 61.3987C183.845 58.5773 191.517 57.2028 198.032 57.2028C203.134 57.2028 206.717 58.3964 208.816 60.7476C210.843 62.9902 211.277 66.101 210.01 70.0437V70.0799Z" fill="white"/>
<path d="M249.892 58.0344C243.667 61.0366 239.469 63.0984 237.262 64.2198C232.485 66.5709 229.119 68.3072 227.165 69.4285C226.043 70.0796 225.391 70.6221 225.247 71.1285C225.102 71.5264 225.355 72.069 226.007 72.7924C227.852 74.8542 232.448 79.1948 239.795 85.8504L231.109 91.0953C224.849 85.1993 220.18 80.3885 217.031 76.7351C215.511 74.9627 215.077 73.118 215.692 71.1285C216.416 68.7774 218.407 66.7156 221.591 64.8708C224.776 63.0623 232.883 58.7578 245.911 52.0299L249.892 58.0706V58.0344Z" fill="white"/>
<path d="M284.345 76.9522C283.151 80.7864 280.617 83.9333 276.854 86.3207C272.8 88.8527 267.878 90.1549 262.197 90.1549C257.781 90.1549 254.126 89.3953 251.267 87.9484C251.122 86.7547 251.303 85.3079 251.846 83.5716C252.57 81.2566 253.945 79.3034 255.972 77.748C258.216 76.0118 260.785 75.1436 263.68 75.1436C268.819 75.1436 271.606 77.2416 272.076 81.4375C274.284 80.3162 275.659 78.8693 276.202 77.0969C277.288 73.5883 274.972 71.852 269.254 71.852C265.743 71.852 261.943 72.7925 257.818 74.6372C255.719 75.5777 253.294 76.916 250.58 78.5799L249.639 71.7435L270.195 61.0729L257.818 61.3622L260.061 53.9832L285.937 53.5853L283.983 60.3494L273.633 65.7752C274.32 65.6667 274.935 65.6305 275.514 65.6305C279.314 65.739 281.992 66.8603 283.549 68.9583C285.105 71.0562 285.358 73.7329 284.345 76.9522ZM264.766 83.4631C264.621 81.7631 263.608 80.8949 261.69 80.8949C260.17 80.8949 259.193 81.546 258.831 82.812C259.772 83.2823 261.292 83.4993 263.391 83.4993C264.042 83.4993 264.477 83.4993 264.766 83.4631Z" fill="white"/>
</svg>
