<svg width="358" height="771" viewBox="0 0 358 771" fill="none" xmlns="http://www.w3.org/2000/svg">
<g opacity="0.34">
<path d="M98 21.9492L130 0L162 21.9492V37L130 15.0508L98 37V21.9492Z" fill="white"/>
<path d="M98 108.949L130 87L162 108.949V124L130 102.051L98 124V108.949Z" fill="white"/>
<path d="M98 195.949L130 174L162 195.949V211L130 189.051L98 211V195.949Z" fill="white"/>
<path d="M98 282.949L130 261L162 282.949V298L130 276.051L98 298V282.949Z" fill="white"/>
<path d="M98 369.949L130 348L162 369.949V385L130 363.051L98 385V369.949Z" fill="white"/>
<path d="M98 456.949L130 435L162 456.949V472L130 450.051L98 472V456.949Z" fill="white"/>
<path d="M98 544.542L130 522L162 544.542V560L130 537.458L98 560V544.542Z" fill="white"/>
<path d="M98 631.949L130 610L162 631.949V647L130 625.051L98 647V631.949Z" fill="white"/>
<path d="M98 718.949L130 697L162 718.949V734L130 712.051L98 734V718.949Z" fill="white"/>
</g>
<g opacity="0.34">
<path d="M196 65.9492L228 44L260 65.9492V81L228 59.0508L196 81V65.9492Z" fill="white"/>
<path d="M196 152.949L228 131L260 152.949V168L228 146.051L196 168V152.949Z" fill="white"/>
<path d="M196 239.949L228 218L260 239.949V255L228 233.051L196 255V239.949Z" fill="white"/>
<path d="M196 326.949L228 305L260 326.949V342L228 320.051L196 342V326.949Z" fill="white"/>
<path d="M196 413.949L228 392L260 413.949V429L228 407.051L196 429V413.949Z" fill="white"/>
<path d="M196 500.949L228 479L260 500.949V516L228 494.051L196 516V500.949Z" fill="white"/>
<path d="M196 588.542L228 566L260 588.542V604L228 581.458L196 604V588.542Z" fill="white"/>
<path d="M196 675.949L228 654L260 675.949V691L228 669.051L196 691V675.949Z" fill="white"/>
<path d="M196 762.949L228 741L260 762.949V778L228 756.051L196 778V762.949Z" fill="white"/>
</g>
<g opacity="0.34">
<path d="M0 65.9492L32 44L64 65.9492V81L32 59.0508L0 81V65.9492Z" fill="white"/>
<path d="M0 152.949L32 131L64 152.949V168L32 146.051L0 168V152.949Z" fill="white"/>
<path d="M0 239.949L32 218L64 239.949V255L32 233.051L0 255V239.949Z" fill="white"/>
<path d="M0 326.949L32 305L64 326.949V342L32 320.051L0 342V326.949Z" fill="white"/>
<path d="M0 413.949L32 392L64 413.949V429L32 407.051L0 429V413.949Z" fill="white"/>
<path d="M0 500.949L32 479L64 500.949V516L32 494.051L0 516V500.949Z" fill="white"/>
<path d="M0 588.542L32 566L64 588.542V604L32 581.458L0 604V588.542Z" fill="white"/>
<path d="M0 675.949L32 654L64 675.949V691L32 669.051L0 691V675.949Z" fill="white"/>
<path d="M0 762.949L32 741L64 762.949V778L32 756.051L0 778V762.949Z" fill="white"/>
</g>
<g opacity="0.34">
<path d="M294 21.9492L326 0L358 21.9492V37L326 15.0508L294 37V21.9492Z" fill="white"/>
<path d="M294 108.949L326 87L358 108.949V124L326 102.051L294 124V108.949Z" fill="white"/>
<path d="M294 195.949L326 174L358 195.949V211L326 189.051L294 211V195.949Z" fill="white"/>
<path d="M294 282.949L326 261L358 282.949V298L326 276.051L294 298V282.949Z" fill="white"/>
<path d="M294 369.949L326 348L358 369.949V385L326 363.051L294 385V369.949Z" fill="white"/>
<path d="M294 456.949L326 435L358 456.949V472L326 450.051L294 472V456.949Z" fill="white"/>
<path d="M294 544.542L326 522L358 544.542V560L326 537.458L294 560V544.542Z" fill="white"/>
<path d="M294 631.949L326 610L358 631.949V647L326 625.051L294 647V631.949Z" fill="white"/>
<path d="M294 718.949L326 697L358 718.949V734L326 712.051L294 734V718.949Z" fill="white"/>
</g>
</svg>
