<svg width="426" height="154" viewBox="0 0 426 154" fill="none" xmlns="http://www.w3.org/2000/svg">
<path d="M38.7996 42.4165C30.417 52.2817 19.4597 60.4024 5.9876 66.7185L0 57.3346C17.3042 49.7552 29.0997 39.89 35.4466 27.739H11.3166L15.1486 15.4677H39.9971L44.428 1.27148H57.1217L52.6908 15.4677H78.8566L75.0246 27.739H50.4754C50.2958 33.995 51.673 39.5291 54.547 44.3414C57.3013 49.0334 61.7321 53.5449 67.9592 57.7556L55.5649 66.7787C46.2841 59.7407 40.7157 51.62 38.7397 42.3563L38.7996 42.4165Z" fill="white"/>
<path d="M95.7415 52.6412C88.6761 55.7692 80.8922 58.2355 72.4497 60.1003L74.7849 47.5282C77.12 47.1673 79.3953 46.8063 81.6107 46.3251L87.2391 28.279H81.9101L85.6224 16.3085H90.9514L95.7415 1.20996H106.878L102.148 16.3085H107.118L106.22 19.256L108.794 18.7748L113.046 5.18009H124.482L120.889 16.6694L124.003 16.1882L128.673 1.20996H140.409L136.397 13.9625L151.067 11.3759L143.582 35.4373C142.265 39.7082 140.888 42.5354 139.451 43.7987C138.014 45.0619 135.739 45.7236 132.505 45.7236H132.445L141.726 48.9719C139.571 54.3255 137.834 57.9347 136.517 59.8596C134.9 62.2056 132.924 63.7696 130.589 64.4915C128.553 65.093 125.2 65.4539 120.41 65.4539H104.962C100.951 65.4539 98.376 64.7321 97.3581 63.3485C96.1606 61.9049 96.2205 59.1378 97.4779 55.0474L104.843 31.3469L100.891 32.0687L102.088 28.279H98.4359L93.9452 42.6557C96.1007 41.8136 98.0167 41.0917 99.6334 40.3699L95.8013 52.7014L95.7415 52.6412ZM116.938 29.2415L110.231 50.7765C109.872 51.9795 109.872 52.7615 110.231 53.0623C110.471 53.3029 111.189 53.4232 112.327 53.4232H122.326C125.021 53.4232 126.817 52.8818 127.775 51.7389C128.134 51.3178 129.152 49.2726 130.769 45.6634H128.015L128.913 35.4373L124.422 49.8742H113.405L120.051 28.64L116.938 29.2415ZM129.452 33.8733H131.607C132.565 33.8733 133.224 33.2718 133.583 32.0687L135.499 25.9331L131.727 26.5947L129.452 33.8733Z" fill="white"/>
<path d="M211.602 34.7762C206.931 35.7988 202.081 37.0621 197.112 38.6862C196.693 40.9119 195.735 44.4609 194.298 49.3935H182.322C182.682 48.3108 183.28 46.3859 184.119 43.6188C179.688 45.7242 177.173 47.6491 176.634 49.3334C175.916 51.5591 179.089 52.6418 186.095 52.6418C190.645 52.6418 196.034 52.2809 202.201 51.5591L199.207 63.7702C193.878 64.3116 188.609 64.5522 183.46 64.5522C167.294 64.5522 160.767 59.7399 163.701 50.1755C165.737 43.7391 172.503 37.7839 184.119 32.4302C183.64 32.0693 182.981 31.8287 182.203 31.8287C179.448 31.8287 176.335 32.9115 172.802 35.077C169.689 36.9418 166.695 39.3479 163.821 42.2954C159.749 46.446 156.815 49.574 154.899 51.6794L147.475 43.679C155.378 36.2199 162.563 28.4 169.03 20.1589L158.312 20.4597L161.905 8.24852C166.994 8.36883 172.203 8.42898 177.592 8.36883C178.969 6.26345 180.406 3.91747 181.903 1.45117L194.777 2.8347C193.639 4.63931 192.501 6.44391 191.364 8.12821C197.531 7.94775 204.896 7.58683 213.458 7.04545L209.865 19.016C200.764 19.3769 191.663 19.6175 182.562 19.8582C181.544 21.0612 180.227 22.6252 178.55 24.49C182.023 23.1064 185.376 22.3846 188.669 22.3846C193.04 22.3846 195.854 24.0689 197.112 27.3773C202.201 25.693 207.231 24.3095 212.26 23.1064L211.722 34.7762H211.602Z" fill="white"/>
<path d="M224.355 43.5594C221.182 47.1085 217.888 50.5372 214.416 53.7254L213.637 41.0931C220.104 35.1981 225.792 29.2429 230.702 23.2877L230.881 22.8064H221.481L224.954 11.678H234.354L237.707 0.970703H249.204L245.85 11.678H254.353L250.88 22.8064H242.378L242.018 24.0095C243.396 28.0398 245.312 32.0701 247.767 36.1605L239.743 47.3491C238.725 45.6046 237.767 43.4391 236.749 40.7923L228.906 65.9967H217.409L224.415 43.6196L224.355 43.5594ZM272.196 65.8764H260.46L261.658 62.0265H252.557L251.359 65.8764H239.743L259.502 2.53469H291.955L272.196 65.8162V65.8764ZM265.37 50.2364L266.987 44.9429H257.886L256.269 50.2364H265.37ZM270.22 34.6567L271.717 29.8444H262.616L261.119 34.6567H270.22ZM274.95 19.5581L276.567 14.3849H267.466L265.849 19.5581H274.95Z" fill="white"/>
<path d="M350.155 47.1678H324.169L322.073 53.905C320.456 59.0782 318.54 62.3867 316.385 63.9507C314.469 65.2741 311.056 65.9959 306.206 65.9959H294.65V54.2058H305.427C306.745 54.2058 307.763 54.0253 308.361 53.6043C308.96 53.1832 309.499 52.2207 309.978 50.7771L311.056 47.228H284.171L287.704 35.7988H314.588L316.025 31.2272H292.973L296.446 20.0988H319.498L320.875 15.7677C314.588 16.1888 308.242 16.4895 301.715 16.6098L299.979 5.18068C320.277 5.06037 337.341 3.73699 351.113 1.15039L356.142 11.978C349.316 13.0608 342.071 13.9631 334.407 14.6849L332.731 20.0988H354.705L351.232 31.2272H329.258L327.821 35.7988H353.807L350.274 47.228L350.155 47.1678Z" fill="white"/>
<path d="M387.278 4.27945C380.991 18.2952 376.141 30.747 372.728 41.7551C370.213 49.8157 368.357 56.9138 367.22 62.9893L353.568 63.651C355.185 57.0341 357.101 50.1164 359.316 42.9582C363.148 30.747 368.118 17.5132 374.285 3.25684L387.218 4.3396L387.278 4.27945ZM410.69 59.8011C405.121 60.523 399.672 60.8839 394.463 60.8839C378.357 60.8839 371.83 56.1318 374.764 46.6877C376.381 41.5145 381.53 35.7397 390.272 29.4838L400.571 34.1757C397.696 35.9804 395.122 37.8451 392.847 39.8302C390.631 41.8152 389.314 43.3191 388.955 44.462C388.535 45.7854 389.074 46.7478 390.571 47.2892C392.068 47.8306 394.822 48.1314 398.834 48.1314C402.846 48.1314 407.816 47.7103 414.043 46.8681L410.69 59.8613V59.8011ZM425.718 8.85111L421.467 21.8443C413.803 21.3029 407.636 21.0623 403.025 21.0623C396.918 21.0623 390.93 21.363 384.943 21.9044L389.074 9.27219C396.08 8.67065 403.385 8.43004 411.049 8.43004C416.378 8.43004 421.228 8.55035 425.718 8.85111Z" fill="white"/>
<path d="M95.2031 151.714H39.5783L42.632 141.909H64.2472L64.9657 139.503H53.1702L54.0683 136.676C50.1764 138.601 45.985 140.225 41.5542 141.608L38.2012 132.585C44.3684 131.021 49.3381 129.457 53.0504 127.893H42.7517L45.7455 118.389H57.5411L62.5108 102.449H52.3319L55.5053 92.3428H65.6842L67.1213 87.7109H79.4557L78.0187 92.3428H93.7661L95.2031 87.7109H107.538L106.101 92.3428H116.818L113.645 102.449H102.927L97.9574 118.389H110.232L107.238 127.893H96.5204C99.095 129.397 103.047 130.901 108.376 132.525L99.3345 141.548C95.8018 140.225 92.6284 138.601 89.8142 136.556L88.9161 139.503H77.1804L76.4619 141.909H98.2568L95.2031 151.714ZM61.9719 132.225H67.4805L68.3188 129.457H80.0545L79.2162 132.225H84.8445C83.5872 130.901 82.3896 129.457 81.3119 127.893H68.2589C66.283 129.397 64.2472 130.841 62.0318 132.225H61.9719ZM85.3834 119.171L85.9822 117.246H70.2348L69.6361 119.171H85.3834ZM87.8383 111.291L88.4371 109.366H72.6897L72.091 111.291H87.8383ZM90.3531 103.231L90.9519 101.306H75.2045L74.6058 103.231H90.3531Z" fill="white"/>
<path d="M127.896 148.286H121.549L120.291 152.256H109.514L115.92 131.804C115.322 132.406 114.304 133.549 112.807 135.113L113.465 121.879C119.513 115.262 124.423 108.164 128.255 100.645H122.866L126.399 89.2155H148.253L144.721 100.645H138.613C136.877 104.134 134.901 107.623 132.746 110.991H140.35L139.871 109.247C143.583 106.72 146.816 104.013 149.571 101.246H145.619L148.493 92.1029H153.463L154.9 87.5312H164.839L163.402 92.1029H168.012L165.138 101.246H161.187C162.025 102.87 163.103 104.495 164.42 106.179C166.336 104.735 168.132 103.111 169.988 101.246H166.815L169.689 92.1029H174.719L176.156 87.5312H186.095L184.658 92.1029H190.885L188.011 101.246H183.041C184.119 104.194 185.676 106.841 187.592 109.247L180.407 117.067C179.329 115.382 178.311 113.457 177.533 111.352L175.796 116.886H167.593L169.629 110.39C167.114 112.976 164.719 115.202 162.264 117.127L160.767 112.315L158.313 114.54C157.774 113.698 157.175 112.736 156.636 111.593L154.96 116.946H146.697L148.493 111.111C146.457 113.157 144.302 115.082 141.966 116.886L141.188 114.059L132.147 142.993C135.739 138.241 138.673 133.368 141.008 128.315L149.511 130.842C148.912 132.165 148.074 133.849 146.876 135.955C147.116 137.82 147.715 139.263 148.673 140.286L152.624 127.654H138.314L141.248 118.27H181.365L177.054 132.105H172.862L170.827 138.602H160.408L159.33 142.151H175.736L170.647 152.437H150.948C145.559 152.437 142.026 150.572 140.41 146.903C138.613 149.55 136.877 151.896 135.141 154.001L126.578 149.61C126.578 149.61 127.297 148.888 127.896 148.226V148.286ZM126.099 137.098L131.009 121.338H128.854L123.944 137.098H126.099ZM167.533 130.842L168.491 127.714H163.941L162.983 130.842H167.533Z" fill="white"/>
<path d="M248.546 121.399C243.875 122.422 239.025 123.685 234.056 125.309C233.636 127.535 232.678 131.084 231.241 136.017H219.266C219.626 134.934 220.224 133.009 221.063 130.242C216.632 132.347 214.117 134.272 213.578 135.956C212.86 138.182 216.033 139.265 223.038 139.265C227.589 139.265 232.978 138.904 239.145 138.182L236.151 150.393C230.822 150.935 225.553 151.175 220.404 151.175C204.237 151.175 197.711 146.363 200.645 136.799C202.681 130.362 209.447 124.407 221.063 119.053C220.584 118.692 219.925 118.452 219.147 118.452C216.392 118.452 213.279 119.535 209.746 121.7C206.632 123.565 203.639 125.971 200.765 128.918C196.693 133.069 193.759 136.197 191.843 138.302L184.418 130.302C192.322 122.843 199.507 115.023 205.974 106.782L195.256 107.083L198.849 94.8716C203.938 94.9919 209.147 95.052 214.536 94.9919C215.913 92.8865 217.35 90.5405 218.847 88.0742L231.72 89.4578C230.583 91.2624 229.445 93.0068 228.308 94.7513C234.475 94.5708 241.84 94.2099 250.402 93.6685L246.809 105.639C237.708 106 228.607 106.241 219.506 106.481C218.488 107.684 217.171 109.248 215.494 111.113C218.967 109.729 222.32 109.008 225.613 109.008C229.984 109.008 232.798 110.692 234.056 114C239.145 112.316 244.175 110.872 249.204 109.729L248.665 121.399H248.546Z" fill="white"/>
<path d="M285.549 87.7118C284.591 88.8548 283.812 89.8172 283.213 90.5391H296.865L295.488 94.9904C298.123 92.5241 300.877 89.6969 303.691 86.4486L315.187 87.6517C314.588 88.3735 313.75 89.336 312.792 90.4789H330.456L327.641 99.4418H319.019C319.139 100.043 319.319 101.006 319.438 102.209L308.122 104.074H316.804L312.852 116.706C312.672 117.307 312.852 117.548 313.391 117.548H313.75C314.349 117.548 314.888 116.946 315.367 115.743C315.606 115.142 316.085 113.638 316.864 111.112L324.109 113.999C322.372 119.533 320.696 123.022 319.079 124.526C317.642 125.849 315.187 126.451 311.655 126.451H306.864C304.35 126.451 302.673 126.33 301.955 126.09C300.338 125.609 299.739 124.466 300.098 122.601L295.967 124.766C295.009 123.443 293.812 122.18 292.375 120.856C291.057 122.721 289.56 124.466 287.824 125.969H292.614L291.895 128.255H317.882L315.187 136.917H298.003C302.015 139.203 307.703 141.369 315.187 143.534L305.128 152.257C297.165 148.768 291.357 145.279 287.584 141.85L284.291 152.377H272.316L275.549 141.97C269.682 145.339 261.778 148.768 251.779 152.196L247.228 143.474C255.97 141.309 263.095 139.083 268.484 136.857H251.359L254.054 128.195H279.801L280.28 126.691L275.549 124.586C267.945 125.548 261.239 126.21 255.431 126.631L255.85 117.668C258.784 117.548 261.778 117.428 264.652 117.247L265.969 113.036H259.203L261.838 104.615H285.788L283.154 113.036H277.705L276.687 116.345C277.944 116.225 279.741 116.104 282.255 115.864L281.417 118.631C283.633 116.225 285.489 112.736 286.866 108.224L288.243 103.893H299.679L289.68 99.8629L290.339 99.2613H287.465C287.584 99.8629 287.704 100.885 288.004 102.209L276.388 104.194C276.268 102.57 276.088 100.885 275.789 99.2012H274.831C273.035 101.006 271.418 102.57 269.921 103.893L260.281 99.8629C265.73 95.3513 270.4 90.8398 274.412 86.208L285.549 87.4111V87.7118ZM298.661 112.916C299.799 113.818 300.997 114.841 302.194 115.924L303.392 112.014H296.506L295.967 113.698L295.728 114.42L298.661 112.916ZM304.589 99.5019C303.092 101.006 301.536 102.51 299.739 104.134H307.284C307.164 102.69 306.984 101.126 306.685 99.5019H304.529H304.589Z" fill="white"/>
<path d="M387.517 97.9978C377.219 102.991 370.273 106.419 366.621 108.224C358.717 112.134 353.149 115.021 349.915 116.886C348.059 117.969 346.981 118.871 346.742 119.713C346.502 120.375 346.922 121.277 347.939 122.48C350.993 125.909 358.597 133.127 370.752 144.196L356.382 152.918C346.023 143.113 338.299 135.113 333.09 129.037C330.575 126.089 329.857 123.022 330.875 119.713C332.072 115.803 335.365 112.374 340.635 109.307C345.904 106.299 359.316 99.1407 380.871 87.9521L387.458 97.9978H387.517Z" fill="white"/>
</svg>
