<svg width="912" height="655" viewBox="0 0 912 655" fill="none" xmlns="http://www.w3.org/2000/svg">
<g clip-path="url(#clip0_334_59793)">
<g opacity="0.34">
<path d="M0.000244141 136.966L55.0002 99L110 136.966V163L55.0002 125.034L0.000244141 163V136.966Z" fill="white"/>
<path d="M0.000244141 300.966L55.0002 263L110 300.966V327L55.0002 289.034L0.000244141 327V300.966Z" fill="white"/>
<path d="M0.000244141 464.966L55.0002 427L110 464.966V491L55.0002 453.034L0.000244141 491V464.966Z" fill="white"/>
<path d="M0.000244141 628.966L55.0002 591L110 628.966V655L55.0002 617.034L0.000244141 655V628.966Z" fill="white"/>
</g>
<g opacity="0.34">
<path d="M400 136.966L455 99L510 136.966V163L455 125.034L400 163V136.966Z" fill="white"/>
<path d="M400 300.966L455 263L510 300.966V327L455 289.034L400 327V300.966Z" fill="white"/>
<path d="M400 464.966L455 427L510 464.966V491L455 453.034L400 491V464.966Z" fill="white"/>
<path d="M400 628.966L455 591L510 628.966V655L455 617.034L400 655V628.966Z" fill="white"/>
</g>
<g opacity="0.34">
<path d="M802 136.966L857 99L912 136.966V163L857 125.034L802 163V136.966Z" fill="white"/>
<path d="M802 300.966L857 263L912 300.966V327L857 289.034L802 327V300.966Z" fill="white"/>
<path d="M802 464.966L857 427L912 464.966V491L857 453.034L802 491V464.966Z" fill="white"/>
<path d="M802 628.966L857 591L912 628.966V655L857 617.034L802 655V628.966Z" fill="white"/>
</g>
<g opacity="0.34">
<path d="M200 72.9661L255 35L310 72.9661V99L255 61.0339L200 99V72.9661Z" fill="white"/>
<path d="M200 236.966L255 199L310 236.966V263L255 225.034L200 263V236.966Z" fill="white"/>
<path d="M200 400.966L255 363L310 400.966V427L255 389.034L200 427V400.966Z" fill="white"/>
<path d="M200 564.966L255 527L310 564.966V591L255 553.034L200 591V564.966Z" fill="white"/>
</g>
<g opacity="0.34">
<path d="M600 72.9661L655 35L710 72.9661V99L655 61.0339L600 99V72.9661Z" fill="white"/>
<path d="M600 236.966L655 199L710 236.966V263L655 225.034L600 263V236.966Z" fill="white"/>
<path d="M600 400.966L655 363L710 400.966V427L655 389.034L600 427V400.966Z" fill="white"/>
<path d="M600 564.966L655 527L710 564.966V591L655 553.034L600 591V564.966Z" fill="white"/>
</g>
</g>
<defs>
<clipPath id="clip0_334_59793">
<rect width="912" height="655" fill="white" transform="translate(0.000244141)"/>
</clipPath>
</defs>
</svg>
