<svg width="71" height="477" viewBox="0 0 71 477" fill="none" xmlns="http://www.w3.org/2000/svg">
<g clip-path="url(#clip0_131_21720)">
<path d="M60.4351 131.028C60.8947 131.407 61.5729 131.346 61.9497 130.885L65.5216 126.541L69.0934 130.885C69.3044 131.142 69.6134 131.278 69.9223 131.278C70.1635 131.278 70.4046 131.195 70.6081 131.028C71.0677 130.65 71.128 129.969 70.7513 129.507L66.3505 124.158C66.3128 124.112 66.2676 124.067 66.2148 124.029C66.2073 124.022 66.1998 124.014 66.1847 124.006C66.0943 123.938 65.9963 123.885 65.8908 123.84C65.8757 123.84 65.8682 123.825 65.8607 123.825L18.349 107.715V75.731H63.2308L60.2844 79.31C59.9076 79.7716 59.9679 80.4526 60.4275 80.8309C60.631 80.9974 60.8721 81.0807 61.1133 81.0807C61.4222 81.0807 61.7312 80.9444 61.9422 80.6872L65.514 76.3439L69.0859 80.6872C69.4627 81.1488 70.1409 81.2093 70.6005 80.8309C71.0602 80.4526 71.1205 79.7716 70.7437 79.31L66.3429 73.9604C66.3053 73.915 66.2601 73.8696 66.2073 73.8318C66.1998 73.8242 66.1922 73.8166 66.1772 73.8091C66.0867 73.741 65.9888 73.688 65.8833 73.6426C65.8682 73.6426 65.8607 73.6275 65.8531 73.6275L18.1757 57.4575L12.7124 40.3794C12.6973 40.2584 12.6597 40.1449 12.5994 40.0389L1.00215 3.7491C0.858978 3.30267 0.444519 3 -0.0226822 3C-0.489891 3 -0.904343 3.30267 -1.04752 3.7491L-18.2437 57.4726L-65.8684 73.6199C-65.8684 73.6199 -65.9286 73.6577 -65.9588 73.6653C-66.0417 73.6956 -66.117 73.741 -66.1849 73.7939C-66.2075 73.8091 -66.215 73.8242 -66.2376 73.8393C-66.2753 73.8772 -66.3205 73.9074 -66.3582 73.9528L-70.7514 79.31C-71.1282 79.7716 -71.0679 80.4526 -70.6082 80.8309C-70.1486 81.2093 -69.4704 81.1488 -69.0936 80.6872L-65.5217 76.3439L-61.9499 80.6872C-61.7389 80.9444 -61.4299 81.0807 -61.121 81.0807C-60.8798 81.0807 -60.6387 80.9974 -60.4352 80.8309C-59.9756 80.4526 -59.9153 79.7716 -60.2921 79.31L-63.2385 75.731H-18.3868V107.723L-65.8684 123.817C-65.8684 123.817 -65.9286 123.855 -65.9588 123.863C-66.0417 123.893 -66.117 123.938 -66.1849 123.991C-66.2075 124.006 -66.215 124.022 -66.2376 124.037C-66.2753 124.075 -66.3205 124.105 -66.3582 124.15L-70.7589 129.5C-71.1357 129.961 -71.0754 130.642 -70.6158 131.021C-70.4123 131.187 -70.1712 131.27 -69.93 131.27C-69.6211 131.27 -69.3121 131.134 -69.1011 130.877L-65.5293 126.534L-61.9574 130.877C-61.5806 131.339 -60.9024 131.407 -60.4428 131.021C-59.9831 130.642 -59.9228 129.961 -60.2996 129.5L-63.246 125.921H-18.3944V157.406L-65.8684 173.508C-65.8684 173.508 -65.9211 173.546 -65.9513 173.553C-66.0341 173.583 -66.1095 173.629 -66.1849 173.682C-66.1999 173.697 -66.215 173.712 -66.2376 173.727C-66.2753 173.765 -66.3205 173.795 -66.3582 173.841L-70.7589 179.19C-71.1357 179.652 -71.0754 180.333 -70.6158 180.711C-70.1561 181.09 -69.4779 181.029 -69.1011 180.567L-65.5293 176.224L-61.9574 180.567C-61.7464 180.825 -61.4375 180.961 -61.1285 180.961C-60.8874 180.961 -60.6462 180.878 -60.4428 180.711C-59.9831 180.333 -59.9228 179.652 -60.2996 179.19L-63.246 175.611H-18.3944V208.11L-65.8759 224.212C-65.8759 224.212 -65.9362 224.25 -65.9663 224.258C-66.0492 224.288 -66.1246 224.333 -66.1924 224.386C-66.215 224.401 -66.2225 224.416 -66.2451 224.432C-66.2828 224.469 -66.328 224.5 -66.3657 224.545L-70.7665 229.895C-71.1433 230.356 -71.083 231.037 -70.6233 231.416C-70.1636 231.794 -69.4854 231.733 -69.1087 231.272L-65.5368 226.929L-61.9649 231.272C-61.7539 231.529 -61.445 231.665 -61.136 231.665C-60.8949 231.665 -60.6538 231.582 -60.4503 231.416C-59.9906 231.037 -59.9303 230.356 -60.3071 229.895L-63.2535 226.316H-18.4848L-33.1942 378.209L-50.0964 474.949C-50.0964 474.949 -50.0964 474.987 -50.0964 475.01C-50.0964 475.04 -50.0964 475.078 -50.0964 475.108C-50.0964 475.146 -50.0964 475.184 -50.0964 475.229C-50.0964 475.26 -50.0964 475.29 -50.0889 475.313C-50.0889 475.358 -50.0738 475.396 -50.0588 475.441C-50.0588 475.464 -50.0437 475.487 -50.0362 475.509C-50.0211 475.555 -49.9985 475.6 -49.9759 475.646C-49.9759 475.661 -49.9608 475.676 -49.9533 475.691C-49.9231 475.744 -49.893 475.789 -49.8553 475.835L-49.8402 475.85C-49.682 476.039 -49.4559 476.183 -49.1922 476.228C-48.627 476.334 -48.092 475.971 -47.9488 475.426L-0.0452881 380.752L47.9487 476.342C48.0391 476.546 48.1898 476.712 48.3707 476.826H48.3782C48.544 476.932 48.7324 477 48.9358 477C48.9961 477 49.0639 477 49.1317 476.985C49.727 476.879 50.1264 476.304 50.0209 475.706L32.6892 377.99L18.4093 226.323H63.2157L60.2693 229.902C59.8925 230.364 59.9528 231.045 60.4125 231.423C60.6159 231.59 60.8571 231.673 61.0982 231.673C61.4072 231.673 61.7161 231.537 61.9271 231.279L65.499 226.936L69.0708 231.279C69.4476 231.741 70.1258 231.801 70.5855 231.423C71.0451 231.045 71.1054 230.364 70.7286 229.902L66.3279 224.553C66.2902 224.507 66.245 224.462 66.1922 224.424C66.1847 224.416 66.1772 224.409 66.1621 224.401C66.0717 224.333 65.9737 224.28 65.8682 224.235C65.8531 224.235 65.8456 224.22 65.8381 224.22L18.3264 208.11V175.626H63.2082L60.2617 179.205C59.885 179.667 59.9453 180.348 60.4049 180.726C60.6084 180.893 60.8495 180.976 61.0907 180.976C61.3996 180.976 61.7086 180.84 61.9196 180.583L65.4914 176.239L69.0633 180.583C69.44 181.044 70.1183 181.105 70.5779 180.726C71.0376 180.348 71.0979 179.667 70.7211 179.205L66.3203 173.856C66.2827 173.81 66.2375 173.765 66.1847 173.727C66.1772 173.72 66.1696 173.712 66.1546 173.704C66.0641 173.636 65.9662 173.583 65.8607 173.538C65.8456 173.538 65.8381 173.523 65.8305 173.523L18.3189 157.413V125.936H63.2006L60.2542 129.515C59.8774 129.977 59.9377 130.658 60.3974 131.036L60.4351 131.028ZM35.9897 409.112L21.0317 395.726H33.616L35.9897 409.112ZM-34.0005 395.726H-21.1599L-36.3742 409.316L-34.0005 395.726ZM-29.8936 367.162H-17.8518L-30.7376 375.864L-29.8936 367.162ZM-27.3165 340.512H-18.1231L-28.1981 349.622L-27.3165 340.512ZM-4.55155 21.7503L-1.8689 23.6646L-6.13402 26.7064L-4.54401 21.7503H-4.55155ZM6.08112 26.6837L1.84613 23.6646L4.50618 21.7654L6.08112 26.6837ZM28.0247 64.2523L40.172 73.5594H28.0247V64.2523ZM42.3347 72.4925L31.6116 64.275L42.3347 67.907V72.4849V72.4925ZM25.8695 70.3284L19.826 60.2798L25.8695 62.3304V70.3284ZM12.5692 109.38L-0.00761414 115.464L-12.5845 109.38H12.5692ZM-12.5845 107.216L-0.00761414 101.132L12.5692 107.216H-12.5845ZM16.2089 106.573L2.47158 99.9293L16.2089 93.2857V106.573ZM-0.00761414 98.7262L-12.5845 92.6425H12.5692L-0.00761414 98.7262ZM-12.5845 90.4785L-0.00761414 84.3949L12.5692 90.4785H-12.5845ZM-2.48682 99.9293L-16.2241 106.573V93.2857L-2.48682 99.9293ZM-2.48682 116.659L-16.2241 123.303V110.016L-2.48682 116.659ZM-0.00761414 117.862L12.5692 123.946H-12.5845L-0.00761414 117.862ZM12.5692 126.11L-0.00761414 132.194L-12.5845 126.11H12.5692ZM2.47158 116.659L16.2089 110.016V123.303L2.47158 116.659ZM2.47158 83.1918L16.2089 76.5482V89.8353L2.47158 83.1918ZM2.47158 66.4618L16.2089 59.8183V73.1054L2.47158 66.4618ZM12.5692 73.7485H-12.5845L-0.00761414 67.6649L12.5692 73.7485ZM12.5466 59.1902L-0.00761414 65.2663L-12.5618 59.1902H12.5466ZM-2.49435 66.4618L-16.2317 73.1054V59.8183L-2.49435 66.4618ZM12.5617 75.9126L-0.015152 81.9962L-12.592 75.9126H12.5617ZM-13.2627 57.0186L-0.015152 49.3535L13.2324 57.0186H-13.2627ZM-2.50188 83.1993L-16.2392 89.8429V76.5558L-2.50188 83.1993ZM-2.50188 133.397L-16.2392 140.04V126.753L-2.50188 133.397ZM-0.0226822 134.6L12.5542 140.683H-12.5995L-0.0226822 134.6ZM12.5542 142.848L-0.0226822 148.931L-12.5995 142.848H12.5542ZM2.45651 133.397L16.1938 126.753V140.04L2.45651 133.397ZM2.13248 48.105L11.2354 42.8386L15.3725 55.7701L2.13248 48.105ZM7.58069 42.4603L-0.0226822 46.8565L-7.62606 42.4603H7.58069ZM-9.13317 40.2962L-0.0226822 35.0222L9.0878 40.2962H-9.13317ZM2.13248 33.7813L7.3697 30.7546L9.75093 38.1851L2.14001 33.7813H2.13248ZM-0.0226822 32.5328L-4.00146 30.2325H3.95609L-0.0226822 32.5328ZM4.28012 28.0684H-4.33302L-0.03022 24.9964L4.27258 28.0684H4.28012ZM-7.43767 30.7395L-2.17785 33.7813L-9.82644 38.2078L-7.43767 30.7395ZM-11.3109 42.831L-2.18539 48.1126L-15.463 55.7928L-11.3109 42.831ZM-25.8772 62.338L-19.8337 60.2874L-25.8772 70.336V62.338ZM-42.3424 67.9222L-31.6193 64.2902L-42.3424 72.5076V67.9297V67.9222ZM-28.0323 64.2599V73.5669H-40.1797L-28.0323 64.2599ZM-18.4019 62.0958V73.5669H-25.3045L-18.4019 62.0958ZM-25.8772 112.535L-19.8337 110.485L-25.8772 120.533V112.535ZM-42.3424 118.12L-31.6193 114.488L-42.3424 122.705V118.127V118.12ZM-28.0323 114.457V123.764H-40.1797L-28.0323 114.457ZM-18.4019 112.293V123.764H-25.3045L-18.4019 112.293ZM-2.50942 150.134L-16.2467 156.778V143.491L-2.50942 150.134ZM-3.12733 377.044H-28.5824L-14.069 367.238L-3.11227 377.044H-3.12733ZM14.0085 367.238L28.522 377.044H3.02921L14.0085 367.238ZM-0.0528259 376.878L-27.7309 352.112L-0.0226822 327.059L27.6856 352.112L-0.0452881 376.878H-0.0528259ZM-23.9255 305.448L-14.3779 314.082H-24.7619L-23.9255 305.448ZM-3.05198 324.319H-23.5035L-11.8535 316.359L-3.05198 324.319ZM-2.62998 326.491L-15.6062 338.219L-24.3324 326.491H-2.63752H-2.62998ZM2.57708 326.491H24.1664L15.4855 338.166L2.57708 326.491ZM2.99907 324.319L11.7931 316.367L23.428 324.319H2.99907ZM24.4679 314.082H14.3175L23.6691 305.622L24.4679 314.082ZM-0.03022 324.138L-22.6293 303.7L-0.03022 283.263L22.5689 303.7L-0.03022 324.138ZM-12.5769 271.928H-20.6852L-20.0296 265.186L-12.5694 271.928H-12.5769ZM-3.02937 280.561H-19.2836L-10.0224 274.235L-3.02937 280.561ZM-20.1954 282.733H-2.6752L-13.1496 292.206L-20.1954 282.733ZM-15.7117 292.388H-22.6746L-21.8758 284.11L-15.7192 292.388H-15.7117ZM2.59969 282.733H20.0294L13.0214 292.153L2.59969 282.733ZM21.6496 284.186L22.4182 292.388H15.5458L21.6496 284.186ZM2.9614 280.569L9.94685 274.251L19.2005 280.569H2.9614ZM19.8712 265.277L20.4966 271.928H12.5089L19.8712 265.277ZM-0.03022 280.357L-19.4192 262.825L-0.03022 245.293L19.3588 262.825L-0.03022 280.357ZM-2.93894 242.66H-15.4329L-8.31933 237.802L-2.94648 242.66H-2.93894ZM-16.3899 244.793H-2.63752L-10.8588 252.224L-16.3899 244.793ZM-13.338 252.459H-18.7938L-18.1683 245.974L-13.3455 252.459H-13.338ZM2.59216 244.793H16.2692L10.7682 252.186L2.59216 244.793ZM18.0626 245.944L18.673 252.459H13.2173L18.0626 245.944ZM2.89357 242.66L8.26643 237.802L15.3725 242.66H2.89357ZM-0.015152 242.425L-16.3824 227.625L-16.2769 226.535H16.239L16.3445 227.625L-0.015152 242.418V242.425ZM16.5932 230.273L17.083 235.502H10.8059L16.5932 230.273ZM-10.8362 235.502H-17.1435L-16.6386 230.258L-10.8437 235.502H-10.8362ZM-2.49435 166.864L-16.2317 173.508V160.221L-2.49435 166.864ZM-12.592 174.151L-0.015152 168.067L12.5617 174.151H-12.592ZM12.5617 176.315L-0.015152 182.399L-12.592 176.315H12.5617ZM-16.2317 176.958L-2.49435 183.602L-16.2317 190.245V176.958ZM-12.592 190.888L-0.015152 184.805L12.5617 190.888H-12.592ZM12.5617 193.052L-0.015152 199.136L-12.592 193.052H12.5617ZM-2.49435 200.339L-16.2317 206.983V193.696L-2.49435 200.339ZM2.47158 217.069L16.2089 210.426V223.713L2.47158 217.069ZM12.5165 224.333H-12.5392L-0.00761414 218.272L12.524 224.333H12.5165ZM-0.015152 215.874L-12.592 209.79H12.5617L-0.015152 215.874ZM-12.592 207.626L-0.015152 201.542L12.5617 207.626H-12.592ZM-2.49435 217.077L-16.2317 223.72V210.433L-2.49435 217.077ZM16.2089 206.99L2.47158 200.347L16.2089 193.703V206.99ZM2.47158 183.609L16.2089 176.966V190.253L2.47158 183.609ZM2.47158 166.879L16.2089 160.236V173.523L2.47158 166.879ZM-0.00761414 165.676L-12.5845 159.593H12.5692L-0.00761414 165.676ZM-12.5845 157.429L-0.00761414 151.345L12.5692 157.429H-12.5845ZM-25.8546 162.241L-19.8111 160.19L-25.8546 170.239V162.241ZM-42.3198 167.825L-31.5967 164.193L-42.3198 172.411V167.833V167.825ZM-28.0097 164.163V173.47H-40.157L-28.0097 164.163ZM-18.3793 161.999V173.47H-25.2819L-18.3793 161.999ZM-25.8546 212.945L-19.8111 210.895L-25.8546 220.943V212.945ZM-42.3198 218.53L-31.5967 214.898L-42.3198 223.115V218.537V218.53ZM-28.0097 214.867V224.174H-40.157L-28.0097 214.867ZM-18.3793 212.703V224.174H-25.2819L-18.3793 212.703ZM-17.3394 237.643H-11.8309L-17.7312 241.668L-17.3394 237.643ZM-18.9821 254.592H-13.451L-19.5096 260.071L-18.9821 254.592ZM-20.8736 274.107H-13.6319L-21.386 279.404L-20.8736 274.107ZM-22.8554 294.567H-15.7192L-23.5412 301.642L-22.8554 294.567ZM-24.9578 316.261H-15.5158L-25.6285 323.169L-24.9578 316.261ZM-26.0731 327.762L-18.1984 338.348H-27.0979L-26.0731 327.762ZM-28.6352 354.223L-16.5934 364.99H-29.6751L-28.6352 354.223ZM-2.66766 379.231L-18.6204 393.479L-29.3285 379.231H-2.66766ZM-36.8942 412.312L-26.578 424.01H-38.9363L-36.8942 412.312ZM-39.3432 426.349L-27.5877 426.25L-41.0236 435.966L-39.3432 426.349ZM-41.5662 439.053C-41.5662 439.053 -41.4984 439.023 -41.4607 439L-26.4273 428.134L-46.6301 468.064L-41.5662 439.061V439.053ZM-24.0912 423.504L-35.0555 411.064L-3.5644 382.946L-24.0837 423.504H-24.0912ZM34.9574 411.117L23.9178 423.632L3.51149 382.984L34.9574 411.117ZM46.5546 468.722L26.0654 427.907L41.2646 438.902L46.5546 468.722ZM27.5348 426.25L39.0416 426.349L40.7145 435.784L27.5348 426.258V426.25ZM26.5251 424.01L36.6001 412.585L38.6272 424.01H26.5251ZM2.56954 379.231H29.1625L18.4696 393.456L2.56954 379.231ZM17.7838 367.17H29.4715L30.2627 375.599L17.7838 367.17ZM16.5329 364.99L28.2809 354.503L29.268 364.99H16.5329ZM18.0777 340.52H26.9621L27.7911 349.297L18.0853 340.52H18.0777ZM18.0476 338.348L25.779 327.959L26.7587 338.348H18.0551H18.0476ZM15.4553 316.261H24.6713L25.3043 322.995L15.4478 316.261H15.4553ZM15.6814 294.567H22.6292L23.2773 301.438L15.6814 294.567ZM13.579 274.107H20.7076L21.1974 279.313L13.579 274.107ZM13.4132 254.592H18.8614L19.3663 259.98L13.4057 254.592H13.4132ZM11.778 237.643H17.2639L17.6407 241.653L11.7705 237.643H11.778ZM18.3716 212.703L25.2742 224.174H18.3716V212.703ZM28.002 214.867L40.1418 224.174H28.002V214.867ZM42.3121 223.107L31.589 214.89L42.3121 218.522V223.1V223.107ZM25.8469 220.943L19.8034 210.895L25.8469 212.945V220.943ZM16.1863 156.793L2.44897 150.149L16.1863 143.506V156.793ZM25.8469 120.548L19.8034 110.5L25.8469 112.55V120.548ZM28.002 114.472L40.1418 123.779H28.002V114.472ZM42.3121 122.713L31.589 114.495L42.3121 118.127V122.705V122.713ZM18.3716 62.111L25.2742 73.5821H18.3716V62.111ZM44.4672 73.5821V68.6713L58.9506 73.5821H44.4672ZM-0.0226822 7.61568L3.81291 19.6089L-0.015152 22.3405L-3.86582 19.5937L-0.03022 7.61568H-0.0226822ZM-44.4825 68.6486V73.5594H-58.9658L-44.4825 68.6486ZM-44.4825 118.846V123.757H-58.9658L-44.4825 118.846ZM-44.4825 168.536V173.447H-58.9658L-44.4825 168.536ZM-44.4825 219.241V224.152H-58.9658L-44.4825 219.241ZM-31.2877 380.23L-21.273 393.547H-33.6162L-31.2877 380.23ZM33.2393 393.547H21.1221L30.9258 380.502L33.2393 393.547ZM44.4898 224.152V219.241L58.9732 224.152H44.4898ZM18.3942 161.984L25.2968 173.455H18.3942V161.984ZM28.0247 164.148L40.172 173.455H28.0247V164.148ZM42.3347 172.388L31.6116 164.17L42.3347 167.802V172.38V172.388ZM25.8695 170.224L19.826 160.175L25.8695 162.226V170.224ZM44.4898 173.455V168.544L58.9732 173.455H44.4898ZM18.3942 112.293L25.2968 123.764H18.3942V112.293ZM44.4898 123.764V118.854L58.9732 123.764H44.4898Z" fill="black"/>
<path d="M60.4351 131.028C60.8947 131.407 61.5729 131.346 61.9497 130.885L65.5216 126.541L69.0934 130.885C69.3044 131.142 69.6134 131.278 69.9223 131.278C70.1635 131.278 70.4046 131.195 70.6081 131.028C71.0677 130.65 71.128 129.969 70.7513 129.507L66.3505 124.158C66.3128 124.112 66.2676 124.067 66.2148 124.029C66.2073 124.022 66.1998 124.014 66.1847 124.006C66.0943 123.938 65.9963 123.885 65.8908 123.84C65.8757 123.84 65.8682 123.825 65.8607 123.825L18.349 107.715V75.731H63.2308L60.2844 79.31C59.9076 79.7716 59.9679 80.4526 60.4275 80.8309C60.631 80.9974 60.8721 81.0807 61.1133 81.0807C61.4222 81.0807 61.7312 80.9444 61.9422 80.6872L65.514 76.3439L69.0859 80.6872C69.4627 81.1488 70.1409 81.2093 70.6005 80.8309C71.0602 80.4526 71.1205 79.7716 70.7437 79.31L66.3429 73.9604C66.3053 73.915 66.2601 73.8696 66.2073 73.8318C66.1998 73.8242 66.1922 73.8166 66.1772 73.8091C66.0867 73.741 65.9888 73.688 65.8833 73.6426C65.8682 73.6426 65.8607 73.6275 65.8531 73.6275L18.1757 57.4575L12.7124 40.3794C12.6973 40.2584 12.6597 40.1449 12.5994 40.0389L1.00215 3.7491C0.858978 3.30267 0.444519 3 -0.0226822 3C-0.489891 3 -0.904343 3.30267 -1.04752 3.7491L-18.2437 57.4726L-65.8684 73.6199C-65.8684 73.6199 -65.9286 73.6577 -65.9588 73.6653C-66.0417 73.6956 -66.117 73.741 -66.1849 73.7939C-66.2075 73.8091 -66.215 73.8242 -66.2376 73.8393C-66.2753 73.8772 -66.3205 73.9074 -66.3582 73.9528L-70.7514 79.31C-71.1282 79.7716 -71.0679 80.4526 -70.6082 80.8309C-70.1486 81.2093 -69.4704 81.1488 -69.0936 80.6872L-65.5217 76.3439L-61.9499 80.6872C-61.7389 80.9444 -61.4299 81.0807 -61.121 81.0807C-60.8798 81.0807 -60.6387 80.9974 -60.4352 80.8309C-59.9756 80.4526 -59.9153 79.7716 -60.2921 79.31L-63.2385 75.731H-18.3868V107.723L-65.8684 123.817C-65.8684 123.817 -65.9286 123.855 -65.9588 123.863C-66.0417 123.893 -66.117 123.938 -66.1849 123.991C-66.2075 124.006 -66.215 124.022 -66.2376 124.037C-66.2753 124.075 -66.3205 124.105 -66.3582 124.15L-70.7589 129.5C-71.1357 129.961 -71.0754 130.642 -70.6158 131.021C-70.4123 131.187 -70.1712 131.27 -69.93 131.27C-69.6211 131.27 -69.3121 131.134 -69.1011 130.877L-65.5293 126.534L-61.9574 130.877C-61.5806 131.339 -60.9024 131.407 -60.4428 131.021C-59.9831 130.642 -59.9228 129.961 -60.2996 129.5L-63.246 125.921H-18.3944V157.406L-65.8684 173.508C-65.8684 173.508 -65.9211 173.546 -65.9513 173.553C-66.0341 173.583 -66.1095 173.629 -66.1849 173.682C-66.1999 173.697 -66.215 173.712 -66.2376 173.727C-66.2753 173.765 -66.3205 173.795 -66.3582 173.841L-70.7589 179.19C-71.1357 179.652 -71.0754 180.333 -70.6158 180.711C-70.1561 181.09 -69.4779 181.029 -69.1011 180.567L-65.5293 176.224L-61.9574 180.567C-61.7464 180.825 -61.4375 180.961 -61.1285 180.961C-60.8874 180.961 -60.6462 180.878 -60.4428 180.711C-59.9831 180.333 -59.9228 179.652 -60.2996 179.19L-63.246 175.611H-18.3944V208.11L-65.8759 224.212C-65.8759 224.212 -65.9362 224.25 -65.9663 224.258C-66.0492 224.288 -66.1246 224.333 -66.1924 224.386C-66.215 224.401 -66.2225 224.416 -66.2451 224.432C-66.2828 224.469 -66.328 224.5 -66.3657 224.545L-70.7665 229.895C-71.1433 230.356 -71.083 231.037 -70.6233 231.416C-70.1636 231.794 -69.4854 231.733 -69.1087 231.272L-65.5368 226.929L-61.9649 231.272C-61.7539 231.529 -61.445 231.665 -61.136 231.665C-60.8949 231.665 -60.6538 231.582 -60.4503 231.416C-59.9906 231.037 -59.9303 230.356 -60.3071 229.895L-63.2535 226.316H-18.4848L-33.1942 378.209L-50.0964 474.949C-50.0964 474.949 -50.0964 474.987 -50.0964 475.01C-50.0964 475.04 -50.0964 475.078 -50.0964 475.108C-50.0964 475.146 -50.0964 475.184 -50.0964 475.229C-50.0964 475.26 -50.0964 475.29 -50.0889 475.313C-50.0889 475.358 -50.0738 475.396 -50.0588 475.441C-50.0588 475.464 -50.0437 475.487 -50.0362 475.509C-50.0211 475.555 -49.9985 475.6 -49.9759 475.646C-49.9759 475.661 -49.9608 475.676 -49.9533 475.691C-49.9231 475.744 -49.893 475.789 -49.8553 475.835L-49.8402 475.85C-49.682 476.039 -49.4559 476.183 -49.1922 476.228C-48.627 476.334 -48.092 475.971 -47.9488 475.426L-0.0452881 380.752L47.9487 476.342C48.0391 476.546 48.1898 476.712 48.3707 476.826H48.3782C48.544 476.932 48.7324 477 48.9358 477C48.9961 477 49.0639 477 49.1317 476.985C49.727 476.879 50.1264 476.304 50.0209 475.706L32.6892 377.99L18.4093 226.323H63.2157L60.2693 229.902C59.8925 230.364 59.9528 231.045 60.4125 231.423C60.6159 231.59 60.8571 231.673 61.0982 231.673C61.4072 231.673 61.7161 231.537 61.9271 231.279L65.499 226.936L69.0708 231.279C69.4476 231.741 70.1258 231.801 70.5855 231.423C71.0451 231.045 71.1054 230.364 70.7286 229.902L66.3279 224.553C66.2902 224.507 66.245 224.462 66.1922 224.424C66.1847 224.416 66.1772 224.409 66.1621 224.401C66.0717 224.333 65.9737 224.28 65.8682 224.235C65.8531 224.235 65.8456 224.22 65.8381 224.22L18.3264 208.11V175.626H63.2082L60.2617 179.205C59.885 179.667 59.9453 180.348 60.4049 180.726C60.6084 180.893 60.8495 180.976 61.0907 180.976C61.3996 180.976 61.7086 180.84 61.9196 180.583L65.4914 176.239L69.0633 180.583C69.44 181.044 70.1183 181.105 70.5779 180.726C71.0376 180.348 71.0979 179.667 70.7211 179.205L66.3203 173.856C66.2827 173.81 66.2375 173.765 66.1847 173.727C66.1772 173.72 66.1696 173.712 66.1546 173.704C66.0641 173.636 65.9662 173.583 65.8607 173.538C65.8456 173.538 65.8381 173.523 65.8305 173.523L18.3189 157.413V125.936H63.2006L60.2542 129.515C59.8774 129.977 59.9377 130.658 60.3974 131.036L60.4351 131.028ZM35.9897 409.112L21.0317 395.726H33.616L35.9897 409.112ZM-34.0005 395.726H-21.1599L-36.3742 409.316L-34.0005 395.726ZM-29.8936 367.162H-17.8518L-30.7376 375.864L-29.8936 367.162ZM-27.3165 340.512H-18.1231L-28.1981 349.622L-27.3165 340.512ZM-4.55155 21.7503L-1.8689 23.6646L-6.13402 26.7064L-4.54401 21.7503H-4.55155ZM6.08112 26.6837L1.84613 23.6646L4.50618 21.7654L6.08112 26.6837ZM28.0247 64.2523L40.172 73.5594H28.0247V64.2523ZM42.3347 72.4925L31.6116 64.275L42.3347 67.907V72.4849V72.4925ZM25.8695 70.3284L19.826 60.2798L25.8695 62.3304V70.3284ZM12.5692 109.38L-0.00761414 115.464L-12.5845 109.38H12.5692ZM-12.5845 107.216L-0.00761414 101.132L12.5692 107.216H-12.5845ZM16.2089 106.573L2.47158 99.9293L16.2089 93.2857V106.573ZM-0.00761414 98.7262L-12.5845 92.6425H12.5692L-0.00761414 98.7262ZM-12.5845 90.4785L-0.00761414 84.3949L12.5692 90.4785H-12.5845ZM-2.48682 99.9293L-16.2241 106.573V93.2857L-2.48682 99.9293ZM-2.48682 116.659L-16.2241 123.303V110.016L-2.48682 116.659ZM-0.00761414 117.862L12.5692 123.946H-12.5845L-0.00761414 117.862ZM12.5692 126.11L-0.00761414 132.194L-12.5845 126.11H12.5692ZM2.47158 116.659L16.2089 110.016V123.303L2.47158 116.659ZM2.47158 83.1918L16.2089 76.5482V89.8353L2.47158 83.1918ZM2.47158 66.4618L16.2089 59.8183V73.1054L2.47158 66.4618ZM12.5692 73.7485H-12.5845L-0.00761414 67.6649L12.5692 73.7485ZM12.5466 59.1902L-0.00761414 65.2663L-12.5618 59.1902H12.5466ZM-2.49435 66.4618L-16.2317 73.1054V59.8183L-2.49435 66.4618ZM12.5617 75.9126L-0.015152 81.9962L-12.592 75.9126H12.5617ZM-13.2627 57.0186L-0.015152 49.3535L13.2324 57.0186H-13.2627ZM-2.50188 83.1993L-16.2392 89.8429V76.5558L-2.50188 83.1993ZM-2.50188 133.397L-16.2392 140.04V126.753L-2.50188 133.397ZM-0.0226822 134.6L12.5542 140.683H-12.5995L-0.0226822 134.6ZM12.5542 142.848L-0.0226822 148.931L-12.5995 142.848H12.5542ZM2.45651 133.397L16.1938 126.753V140.04L2.45651 133.397ZM2.13248 48.105L11.2354 42.8386L15.3725 55.7701L2.13248 48.105ZM7.58069 42.4603L-0.0226822 46.8565L-7.62606 42.4603H7.58069ZM-9.13317 40.2962L-0.0226822 35.0222L9.0878 40.2962H-9.13317ZM2.13248 33.7813L7.3697 30.7546L9.75093 38.1851L2.14001 33.7813H2.13248ZM-0.0226822 32.5328L-4.00146 30.2325H3.95609L-0.0226822 32.5328ZM4.28012 28.0684H-4.33302L-0.03022 24.9964L4.27258 28.0684H4.28012ZM-7.43767 30.7395L-2.17785 33.7813L-9.82644 38.2078L-7.43767 30.7395ZM-11.3109 42.831L-2.18539 48.1126L-15.463 55.7928L-11.3109 42.831ZM-25.8772 62.338L-19.8337 60.2874L-25.8772 70.336V62.338ZM-42.3424 67.9222L-31.6193 64.2902L-42.3424 72.5076V67.9297V67.9222ZM-28.0323 64.2599V73.5669H-40.1797L-28.0323 64.2599ZM-18.4019 62.0958V73.5669H-25.3045L-18.4019 62.0958ZM-25.8772 112.535L-19.8337 110.485L-25.8772 120.533V112.535ZM-42.3424 118.12L-31.6193 114.488L-42.3424 122.705V118.127V118.12ZM-28.0323 114.457V123.764H-40.1797L-28.0323 114.457ZM-18.4019 112.293V123.764H-25.3045L-18.4019 112.293ZM-2.50942 150.134L-16.2467 156.778V143.491L-2.50942 150.134ZM-3.12733 377.044H-28.5824L-14.069 367.238L-3.11227 377.044H-3.12733ZM14.0085 367.238L28.522 377.044H3.02921L14.0085 367.238ZM-0.0528259 376.878L-27.7309 352.112L-0.0226822 327.059L27.6856 352.112L-0.0452881 376.878H-0.0528259ZM-23.9255 305.448L-14.3779 314.082H-24.7619L-23.9255 305.448ZM-3.05198 324.319H-23.5035L-11.8535 316.359L-3.05198 324.319ZM-2.62998 326.491L-15.6062 338.219L-24.3324 326.491H-2.63752H-2.62998ZM2.57708 326.491H24.1664L15.4855 338.166L2.57708 326.491ZM2.99907 324.319L11.7931 316.367L23.428 324.319H2.99907ZM24.4679 314.082H14.3175L23.6691 305.622L24.4679 314.082ZM-0.03022 324.138L-22.6293 303.7L-0.03022 283.263L22.5689 303.7L-0.03022 324.138ZM-12.5769 271.928H-20.6852L-20.0296 265.186L-12.5694 271.928H-12.5769ZM-3.02937 280.561H-19.2836L-10.0224 274.235L-3.02937 280.561ZM-20.1954 282.733H-2.6752L-13.1496 292.206L-20.1954 282.733ZM-15.7117 292.388H-22.6746L-21.8758 284.11L-15.7192 292.388H-15.7117ZM2.59969 282.733H20.0294L13.0214 292.153L2.59969 282.733ZM21.6496 284.186L22.4182 292.388H15.5458L21.6496 284.186ZM2.9614 280.569L9.94685 274.251L19.2005 280.569H2.9614ZM19.8712 265.277L20.4966 271.928H12.5089L19.8712 265.277ZM-0.03022 280.357L-19.4192 262.825L-0.03022 245.293L19.3588 262.825L-0.03022 280.357ZM-2.93894 242.66H-15.4329L-8.31933 237.802L-2.94648 242.66H-2.93894ZM-16.3899 244.793H-2.63752L-10.8588 252.224L-16.3899 244.793ZM-13.338 252.459H-18.7938L-18.1683 245.974L-13.3455 252.459H-13.338ZM2.59216 244.793H16.2692L10.7682 252.186L2.59216 244.793ZM18.0626 245.944L18.673 252.459H13.2173L18.0626 245.944ZM2.89357 242.66L8.26643 237.802L15.3725 242.66H2.89357ZM-0.015152 242.425L-16.3824 227.625L-16.2769 226.535H16.239L16.3445 227.625L-0.015152 242.418V242.425ZM16.5932 230.273L17.083 235.502H10.8059L16.5932 230.273ZM-10.8362 235.502H-17.1435L-16.6386 230.258L-10.8437 235.502H-10.8362ZM-2.49435 166.864L-16.2317 173.508V160.221L-2.49435 166.864ZM-12.592 174.151L-0.015152 168.067L12.5617 174.151H-12.592ZM12.5617 176.315L-0.015152 182.399L-12.592 176.315H12.5617ZM-16.2317 176.958L-2.49435 183.602L-16.2317 190.245V176.958ZM-12.592 190.888L-0.015152 184.805L12.5617 190.888H-12.592ZM12.5617 193.052L-0.015152 199.136L-12.592 193.052H12.5617ZM-2.49435 200.339L-16.2317 206.983V193.696L-2.49435 200.339ZM2.47158 217.069L16.2089 210.426V223.713L2.47158 217.069ZM12.5165 224.333H-12.5392L-0.00761414 218.272L12.524 224.333H12.5165ZM-0.015152 215.874L-12.592 209.79H12.5617L-0.015152 215.874ZM-12.592 207.626L-0.015152 201.542L12.5617 207.626H-12.592ZM-2.49435 217.077L-16.2317 223.72V210.433L-2.49435 217.077ZM16.2089 206.99L2.47158 200.347L16.2089 193.703V206.99ZM2.47158 183.609L16.2089 176.966V190.253L2.47158 183.609ZM2.47158 166.879L16.2089 160.236V173.523L2.47158 166.879ZM-0.00761414 165.676L-12.5845 159.593H12.5692L-0.00761414 165.676ZM-12.5845 157.429L-0.00761414 151.345L12.5692 157.429H-12.5845ZM-25.8546 162.241L-19.8111 160.19L-25.8546 170.239V162.241ZM-42.3198 167.825L-31.5967 164.193L-42.3198 172.411V167.833V167.825ZM-28.0097 164.163V173.47H-40.157L-28.0097 164.163ZM-18.3793 161.999V173.47H-25.2819L-18.3793 161.999ZM-25.8546 212.945L-19.8111 210.895L-25.8546 220.943V212.945ZM-42.3198 218.53L-31.5967 214.898L-42.3198 223.115V218.537V218.53ZM-28.0097 214.867V224.174H-40.157L-28.0097 214.867ZM-18.3793 212.703V224.174H-25.2819L-18.3793 212.703ZM-17.3394 237.643H-11.8309L-17.7312 241.668L-17.3394 237.643ZM-18.9821 254.592H-13.451L-19.5096 260.071L-18.9821 254.592ZM-20.8736 274.107H-13.6319L-21.386 279.404L-20.8736 274.107ZM-22.8554 294.567H-15.7192L-23.5412 301.642L-22.8554 294.567ZM-24.9578 316.261H-15.5158L-25.6285 323.169L-24.9578 316.261ZM-26.0731 327.762L-18.1984 338.348H-27.0979L-26.0731 327.762ZM-28.6352 354.223L-16.5934 364.99H-29.6751L-28.6352 354.223ZM-2.66766 379.231L-18.6204 393.479L-29.3285 379.231H-2.66766ZM-36.8942 412.312L-26.578 424.01H-38.9363L-36.8942 412.312ZM-39.3432 426.349L-27.5877 426.25L-41.0236 435.966L-39.3432 426.349ZM-41.5662 439.053C-41.5662 439.053 -41.4984 439.023 -41.4607 439L-26.4273 428.134L-46.6301 468.064L-41.5662 439.061V439.053ZM-24.0912 423.504L-35.0555 411.064L-3.5644 382.946L-24.0837 423.504H-24.0912ZM34.9574 411.117L23.9178 423.632L3.51149 382.984L34.9574 411.117ZM46.5546 468.722L26.0654 427.907L41.2646 438.902L46.5546 468.722ZM27.5348 426.25L39.0416 426.349L40.7145 435.784L27.5348 426.258V426.25ZM26.5251 424.01L36.6001 412.585L38.6272 424.01H26.5251ZM2.56954 379.231H29.1625L18.4696 393.456L2.56954 379.231ZM17.7838 367.17H29.4715L30.2627 375.599L17.7838 367.17ZM16.5329 364.99L28.2809 354.503L29.268 364.99H16.5329ZM18.0777 340.52H26.9621L27.7911 349.297L18.0853 340.52H18.0777ZM18.0476 338.348L25.779 327.959L26.7587 338.348H18.0551H18.0476ZM15.4553 316.261H24.6713L25.3043 322.995L15.4478 316.261H15.4553ZM15.6814 294.567H22.6292L23.2773 301.438L15.6814 294.567ZM13.579 274.107H20.7076L21.1974 279.313L13.579 274.107ZM13.4132 254.592H18.8614L19.3663 259.98L13.4057 254.592H13.4132ZM11.778 237.643H17.2639L17.6407 241.653L11.7705 237.643H11.778ZM18.3716 212.703L25.2742 224.174H18.3716V212.703ZM28.002 214.867L40.1418 224.174H28.002V214.867ZM42.3121 223.107L31.589 214.89L42.3121 218.522V223.1V223.107ZM25.8469 220.943L19.8034 210.895L25.8469 212.945V220.943ZM16.1863 156.793L2.44897 150.149L16.1863 143.506V156.793ZM25.8469 120.548L19.8034 110.5L25.8469 112.55V120.548ZM28.002 114.472L40.1418 123.779H28.002V114.472ZM42.3121 122.713L31.589 114.495L42.3121 118.127V122.705V122.713ZM18.3716 62.111L25.2742 73.5821H18.3716V62.111ZM44.4672 73.5821V68.6713L58.9506 73.5821H44.4672ZM-0.0226822 7.61568L3.81291 19.6089L-0.015152 22.3405L-3.86582 19.5937L-0.03022 7.61568H-0.0226822ZM-44.4825 68.6486V73.5594H-58.9658L-44.4825 68.6486ZM-44.4825 118.846V123.757H-58.9658L-44.4825 118.846ZM-44.4825 168.536V173.447H-58.9658L-44.4825 168.536ZM-44.4825 219.241V224.152H-58.9658L-44.4825 219.241ZM-31.2877 380.23L-21.273 393.547H-33.6162L-31.2877 380.23ZM33.2393 393.547H21.1221L30.9258 380.502L33.2393 393.547ZM44.4898 224.152V219.241L58.9732 224.152H44.4898ZM18.3942 161.984L25.2968 173.455H18.3942V161.984ZM28.0247 164.148L40.172 173.455H28.0247V164.148ZM42.3347 172.388L31.6116 164.17L42.3347 167.802V172.38V172.388ZM25.8695 170.224L19.826 160.175L25.8695 162.226V170.224ZM44.4898 173.455V168.544L58.9732 173.455H44.4898ZM18.3942 112.293L25.2968 123.764H18.3942V112.293ZM44.4898 123.764V118.854L58.9732 123.764H44.4898Z" fill="url(#paint0_linear_131_21720)"/>
</g>
<defs>
<linearGradient id="paint0_linear_131_21720" x1="-0.00761414" y1="3" x2="-0.00761414" y2="477" gradientUnits="userSpaceOnUse">
<stop stop-color="#004156"/>
<stop offset="0.192708" stop-color="#66DAFF"/>
<stop offset="0.359375" stop-color="#FDFF00"/>
<stop offset="0.5" stop-color="#66DAFF"/>
</linearGradient>
<clipPath id="clip0_131_21720">
<rect width="71" height="477" fill="white"/>
</clipPath>
</defs>
</svg>
