<svg width="200" height="284" viewBox="0 0 200 284" fill="none" xmlns="http://www.w3.org/2000/svg">
<g clip-path="url(#clip0_150_8064)">
<g clip-path="url(#clip1_150_8064)" filter="url(#filter0_f_150_8064)">
<path d="M125.216 87.2757C124.874 87.2757 124.522 87.1929 124.211 87.0169C123.537 86.6442 123.123 85.9298 123.143 85.1637L123.599 65.4931C123.62 64.5303 124.304 63.7124 125.247 63.5157C126.19 63.319 127.144 63.7952 127.548 64.6649L134.503 79.4696C134.938 80.4014 134.627 81.5091 133.767 82.0785L126.356 86.9444C126.014 87.1722 125.61 87.2861 125.216 87.2861V87.2757ZM127.538 74.3863L127.382 81.3021L129.994 79.5938L127.548 74.3863H127.538Z" fill="#231815"/>
<path d="M112.82 125.768C107.555 125.768 98.8799 125.499 94.5268 125.343C73.9844 124.639 73.8497 124.474 73.1138 123.552C72.7511 123.097 72.5956 122.517 72.6785 121.947C72.7407 120.571 72.3261 109.213 72.0566 102.267C72.0566 102.215 72.0566 102.163 72.0566 102.111L73.6942 57.6971C73.7357 56.6721 74.513 55.8232 75.5391 55.7093L124.48 50.2844C125.61 50.1705 126.626 50.9573 126.76 52.0858L129.341 72.3983C129.362 72.5536 129.362 72.7089 129.341 72.8641C128.564 80.6703 125.9 106.377 124.294 109.493C122.76 112.464 119.619 112.029 117.443 111.408C119.122 123.097 118.904 123.676 118.717 124.204C118.552 124.65 118.106 125.416 116.904 125.612C116.303 125.716 114.8 125.747 112.81 125.747L112.82 125.768ZM76.8036 120.405C83.4368 120.86 107.741 121.74 114.592 121.627C114.313 118.976 113.608 113.769 112.913 109.027C112.81 108.292 113.1 107.547 113.691 107.091C114.82 106.221 116.137 106.646 117.536 107.112C118.178 107.329 120.137 107.971 120.573 107.681C121.495 105.662 123.641 88.3729 125.206 72.6882L122.905 54.6326L77.7675 59.6331L76.2024 102.184C76.6274 112.858 76.7828 117.92 76.8139 120.405H76.8036ZM72.8029 121.482C72.8029 121.482 72.7821 121.533 72.7718 121.554C72.7718 121.533 72.7925 121.502 72.8029 121.482Z" fill="#231815"/>
<path d="M75.3322 110.715C74.9073 110.715 74.4927 110.59 74.1403 110.342C64.8434 103.851 54.7691 77.0262 54.3442 75.8874C54.1369 75.3283 54.1783 74.7072 54.4582 74.1895C54.738 73.6719 55.2355 73.2888 55.8159 73.1542L102.725 62.1387C103.264 62.0145 103.824 62.1076 104.291 62.3975C104.757 62.6874 105.089 63.1533 105.213 63.6916L109.701 82.9688C109.763 83.2276 109.773 83.5072 109.732 83.766L105.98 106.915C105.824 107.868 105.037 108.582 104.083 108.654L75.4773 110.725C75.4773 110.725 75.3737 110.725 75.3322 110.725V110.715ZM59.0807 76.6328C62.387 84.998 69.808 101.552 75.9644 106.522L102.166 104.627L105.586 83.4968L101.658 66.6319L59.0807 76.6328Z" fill="#231815"/>
<path d="M112.167 89.367H108.913C108.219 89.367 107.576 89.0253 107.192 88.4559L101.461 79.9562C101.16 79.511 101.046 78.9726 101.14 78.4446L102.995 67.7811C103.171 66.7872 104.031 66.0625 105.037 66.0625H107.98C109.12 66.0625 110.053 66.9943 110.053 68.1331C110.053 69.2719 109.12 70.2037 107.98 70.2037H106.778L105.358 78.3307L110.001 85.2258H112.147C113.287 85.2258 114.22 86.1576 114.22 87.2964C114.22 88.4352 113.287 89.367 112.147 89.367H112.167Z" fill="#231815"/>
<path d="M118.106 111.284C118.003 111.284 117.899 111.284 117.795 111.264L114.655 110.788C113.753 110.653 113.048 109.949 112.914 109.048C111.701 101.128 105.669 61.58 105.627 61.228C105.327 58.8986 106.964 58.6294 114.81 57.3767C115.608 57.2525 116.417 57.5941 116.862 58.2774C118.044 60.0478 120.552 103.52 120.169 109.348C120.127 109.928 119.847 110.467 119.402 110.829C119.029 111.129 118.573 111.284 118.106 111.284ZM110.012 62.4497C110.903 68.3198 113.867 87.7626 116.044 102.029C115.671 89.709 113.94 68.4751 113.318 61.8285C112.084 62.0459 110.893 62.2633 110.012 62.4497Z" fill="#231815"/>
<path d="M135.923 143.979C133.383 143.979 130.999 142.467 128.854 139.465C128.678 139.217 128.553 138.927 128.502 138.626C128.481 138.533 126.584 128.719 118.593 124.339C117.505 123.739 116.52 123.19 115.598 122.673C108.55 118.718 105.907 117.237 94.6928 116.72C77.5085 115.922 66.0143 123.749 65.9003 123.832C65.7034 123.967 65.4857 124.07 65.2577 124.132C60.0237 125.551 58.9561 123.915 58.6037 123.377C58.5415 123.283 58.4897 123.18 58.4379 123.076C57.7849 121.575 57.3289 118.045 59.7646 114.349C63.8689 108.116 72.3366 104.534 85.6653 103.375C102.622 101.905 111.183 105.818 118.054 108.955L119.039 109.4C126.957 112.993 133.974 121.223 136.016 124.091C136.099 124.205 144.142 136.514 142.245 140.045C141.561 141.318 139.447 143.772 136.337 143.969C136.202 143.969 136.057 143.979 135.923 143.979ZM132.471 137.394C133.414 138.626 134.751 139.9 136.068 139.838C137.125 139.765 138.027 138.875 138.42 138.337C138.182 136.504 135.104 129.971 132.637 126.493C130.461 123.428 123.848 116.14 117.329 113.179L116.334 112.723C109.897 109.783 101.886 106.129 86.0177 107.495C68.2116 109.038 64.4596 114.742 63.2159 116.616C62.138 118.252 62.0033 119.66 62.0655 120.519C62.5733 120.467 63.2263 120.353 63.8481 120.209C65.9729 118.821 77.664 111.781 94.8793 112.578C107.078 113.137 110.374 114.991 117.619 119.049C118.531 119.556 119.505 120.105 120.583 120.695C129.3 125.478 131.943 135.065 132.471 137.384V137.394Z" fill="#231815"/>
<path d="M56.8004 136.276C56.3444 136.276 55.8884 136.12 55.5152 135.831C54.883 135.334 54.6032 134.516 54.7794 133.739C55.5567 130.406 56.3548 126.285 56.3237 125.333C56.22 124.846 56.3029 124.339 56.5517 123.894C56.8004 123.448 62.9984 112.878 83.9761 110.549C101.119 108.644 115.422 113.054 126.481 123.635C126.553 123.707 126.626 123.79 126.688 123.873L132.616 131.586C133.166 132.3 133.187 133.284 132.679 134.019C132.171 134.754 131.238 135.085 130.378 134.826C130.108 134.743 103.088 126.782 83.831 129.039C68.2946 130.861 57.8265 136.017 57.7229 136.069C57.4327 136.214 57.1114 136.286 56.8004 136.286V136.276ZM60.4591 125.488C60.4384 126.358 60.2622 127.89 59.6921 130.706C64.2421 128.925 72.5751 126.182 83.3542 124.919C98.0199 123.2 116.324 126.958 125.61 129.256L123.496 126.513C113.235 116.76 100.445 112.888 84.4217 114.659C67.9526 116.491 61.7961 123.624 60.4487 125.478L60.4591 125.488Z" fill="#231815"/>
<path d="M31.3971 299.604C22.3074 299.604 16.7003 296.218 15.1352 295.131C15.0212 295.069 14.8968 294.986 14.7725 294.862C14.7414 294.841 14.7206 294.821 14.7103 294.81C13.8086 293.879 12.4508 291.104 8.36723 282.728C5.58955 277.034 2.8637 271.351 2.8637 271.351C2.70823 271.03 2.64605 270.678 2.66678 270.326L3.78614 252.208L1.3194 246.224C1.09138 245.686 1.11211 245.075 1.37122 244.547L3.96233 239.163L8.39832 179.758L7.85937 175.845C7.79718 175.431 7.86973 175.006 8.05629 174.633L9.44513 171.869C9.80789 170.316 11.8082 162.106 13.6842 158.245C15.9747 153.534 22.4525 150.904 26.3288 149.331C26.3288 149.331 26.3703 149.31 26.391 149.31C29.5211 147.995 48.6124 136.711 55.7639 132.445C56.7485 131.855 58.0234 132.176 58.6038 133.159C59.1945 134.143 58.8732 135.416 57.8886 135.996C55.5981 137.363 38.0199 147.84 30.6612 151.784C54.6134 176.559 46.695 209.316 45.8244 212.567L43.368 261.681L53.3594 291.777C53.691 292.76 53.235 293.837 52.3022 294.293C44.0832 298.289 37.0664 299.604 31.4074 299.604H31.3971ZM17.5087 291.736C19.2292 292.936 30.1844 299.728 48.8404 291.332L39.3051 262.613C39.2222 262.364 39.1911 262.116 39.2015 261.857L41.689 212.121C41.689 211.956 41.7201 211.79 41.7719 211.635C41.8755 211.293 51.3176 177.936 26.6812 153.638C23.3335 155.025 18.825 157.127 17.405 160.036C15.5809 163.794 13.4458 172.936 13.4251 173.029C13.3836 173.184 13.3318 173.339 13.2593 173.484L12.057 175.896L12.5441 179.396C12.5648 179.541 12.5648 179.686 12.5545 179.831L8.07702 239.847C8.05629 240.105 7.99411 240.354 7.8801 240.592L5.517 245.499L7.80755 251.069C7.92156 251.359 7.97338 251.67 7.96301 251.98L6.84365 270.036C10.5541 277.759 16.3582 289.706 17.5087 291.725V291.736ZM16.0058 291.125C16.3893 291.125 16.7521 291.228 17.0734 291.425C16.7935 291.259 16.4411 291.125 16.0058 291.125Z" fill="#231815"/>
<path d="M116.665 171.279C116.583 171.279 116.5 171.279 116.417 171.269L49.3275 163.059C48.5709 162.966 47.918 162.458 47.6485 161.744L41.492 145.676C41.3262 145.241 41.3054 144.765 41.4505 144.32C41.6371 143.72 46.4773 129.505 83.3644 124.929C119.681 120.425 146.95 137.663 148.101 138.409C148.629 138.75 148.982 139.32 149.044 139.951C149.106 140.583 148.878 141.204 148.412 141.639L118.116 170.699C117.733 171.072 117.215 171.279 116.676 171.279H116.665ZM51.0688 159.104L115.94 167.034L143.53 140.562C136.296 136.617 112.789 125.457 83.8516 129.039C54.3025 132.704 47.037 142.529 45.6585 145.003L51.0584 159.094L51.0688 159.104Z" fill="#231815"/>
<path d="M63.4855 292.864C43.2023 292.864 40.7355 289.675 39.9064 288.599C38.9839 287.398 39.1912 286.29 39.2741 285.979C39.3363 285.752 39.44 285.534 39.5747 285.348L40.58 283.909C33.9364 274.581 31.1484 268.607 32.2677 266.164C32.9414 264.704 33.6151 256.836 33.9053 249.899L29.4901 239.495C29.2931 239.039 29.2724 238.521 29.4279 238.056L30.4229 234.97L21.3229 179.189L16.2858 158.493C16.0163 157.385 16.7003 156.257 17.8093 155.988C18.9183 155.708 20.0481 156.402 20.3175 157.51L25.3754 178.278C25.3754 178.278 25.3961 178.381 25.4065 178.433L34.5998 234.784C34.6516 235.105 34.6308 235.436 34.5272 235.757L33.6151 238.584L37.906 248.709C38.02 248.988 38.0822 249.288 38.0718 249.599C37.9786 252.084 37.4396 264.414 36.1233 267.706C36.1959 269.611 40.6215 276.92 44.7984 282.687C45.3166 283.401 45.327 284.364 44.8191 285.089L43.8241 286.518C45.3788 287.325 50.4677 288.94 66.1803 288.723C91.055 288.392 139.986 287.439 144.225 287.356C148.319 286.073 151.604 283.888 151.469 282.956C150.941 279.374 148.319 273.328 148.287 273.266C148.163 272.986 148.111 272.696 148.111 272.396L148.712 244.019C148.712 243.864 148.733 243.708 148.775 243.553C148.826 243.367 153.573 224.39 156.983 203.425C162.611 168.846 160.435 155.656 157.616 150.687C157.056 149.693 157.398 148.43 158.403 147.861C159.398 147.291 160.663 147.643 161.233 148.637C171.794 167.272 154.226 238.853 152.858 244.319L152.267 272.024C152.91 273.545 155.045 278.774 155.563 282.335C155.76 283.671 155.584 288.247 145.147 291.394C144.971 291.446 144.784 291.477 144.587 291.477C144.069 291.477 92.1225 292.512 66.2217 292.854C65.2786 292.864 64.3561 292.874 63.4855 292.874V292.864Z" fill="#231815"/>
<path d="M180.459 294.438C173.867 294.438 165.586 292.44 155.636 286.332C155.283 286.114 155.014 285.804 154.838 285.442L151.822 278.93L147.738 275.192C147.334 274.819 147.096 274.312 147.064 273.763L146.857 269.27L143.375 263.887C143.033 263.359 142.95 262.696 143.147 262.096L145.427 255.377L142.711 218.354L141.271 213.157C141.25 213.074 141.229 212.981 141.219 212.898L136.855 182.368C136.69 181.239 137.477 180.183 138.617 180.028C139.747 179.862 140.804 180.649 140.96 181.788L145.302 212.184L146.764 217.454C146.795 217.588 146.826 217.723 146.836 217.858L149.593 255.501C149.614 255.78 149.583 256.05 149.49 256.319L147.396 262.489L150.64 267.5C150.837 267.81 150.951 268.162 150.972 268.535L151.158 272.728L154.921 276.165C155.128 276.352 155.283 276.569 155.397 276.818L158.32 283.133C180.625 296.561 192.741 287.771 195.684 285.069C189.673 257.364 189.673 257.095 189.673 256.805C189.673 256.671 189.673 256.339 189.973 254.59L188.812 250.014C188.761 249.807 188.74 249.589 188.75 249.382L189.445 238.087C189.455 237.88 189.496 237.683 189.569 237.487L190.927 233.863L188.491 230.033C188.315 229.753 188.211 229.443 188.18 229.122C188.159 228.946 186.449 210.994 185.993 204.047C184.604 182.947 182.241 159.602 180.676 157.044C179.526 155.222 176.437 154.094 172.862 152.789C170.177 151.816 167.14 150.708 164.093 149.042C157.056 145.201 121.796 132.684 120.252 132.177C119.194 131.866 118.562 130.769 118.832 129.692C119.111 128.584 120.231 127.911 121.34 128.18C121.578 128.242 158.413 141.215 166.083 145.408C168.861 146.93 171.742 147.975 174.281 148.907C178.572 150.47 182.283 151.826 184.19 154.85C187.092 159.457 189.652 196.427 190.129 203.788C190.543 210.031 191.984 225.312 192.264 228.252L194.99 232.538C195.342 233.087 195.404 233.77 195.176 234.37L193.559 238.667L192.906 249.33L194.088 254.02C194.161 254.3 194.171 254.6 194.119 254.89C194.005 255.553 193.87 256.36 193.818 256.733C194.233 258.876 197.664 274.726 199.954 285.307C200.089 285.939 199.923 286.601 199.509 287.088C199.415 287.202 192.979 294.459 180.428 294.459L180.459 294.438Z" fill="#231815"/>
<path d="M54.7899 294.272C46.83 294.272 42.0519 292.201 41.8032 292.098C41.7203 292.067 41.6477 292.025 41.5648 291.974L38.9219 290.369C38.1964 289.934 37.8129 289.096 37.958 288.257C38.0409 287.77 46.1252 239.753 47.3689 229.142C48.5194 219.348 48.4986 213.271 47.2964 208.167C46.7885 206.024 37.7403 184.997 32.3404 172.439C29.0135 164.705 26.3809 158.597 25.6243 156.681C22.971 149.983 25.6554 147.695 26.2254 147.302C26.2772 147.271 26.3291 147.24 26.3809 147.209L50.8203 133.263C50.9032 133.222 50.9861 133.18 51.069 133.139C51.3178 133.035 53.5979 132.186 55.8885 133.801C56.4585 134.205 56.7902 134.878 56.7591 135.572C56.728 136.276 56.3445 136.907 55.7434 137.27L55.2148 137.58C61.3506 151.474 66.5121 161.63 68.502 163.67C72.5338 167.811 77.8508 168.432 84.3182 165.523C90.2985 162.831 103.15 146.836 110.053 138.243C112.095 135.696 113.867 133.501 115.08 132.093C120.915 125.312 124.729 126.617 125.952 127.341L157.616 139.661C158.206 139.889 158.662 140.386 158.849 140.997L159.523 143.233C159.844 144.31 159.243 145.459 158.165 145.801C147.687 149.155 119.951 188.165 115.422 197.689C111.566 205.806 116.261 215.155 116.313 215.248C116.344 215.3 116.365 215.362 116.396 215.414L145.448 287.025C145.551 287.273 145.603 287.532 145.603 287.801V289.913C145.603 291.032 144.722 291.943 143.603 291.984L119.381 292.874C118.521 292.916 117.723 292.398 117.391 291.601L86.0905 216.853C82.8983 214.192 79.7371 216.377 78.5763 217.36L63.6515 292.108C63.4753 292.968 62.7912 293.62 61.9206 293.754C59.3399 294.137 56.956 294.282 54.8106 294.282L54.7899 294.272ZM43.5859 288.35C44.4254 288.681 50.4886 290.918 59.8581 289.831L74.6171 215.89C74.6896 215.497 74.8762 215.145 75.156 214.855C77.5917 212.318 83.6652 208.902 89.2102 214.089C89.4279 214.285 89.5937 214.534 89.7077 214.803L120.635 288.661L141.312 287.895L112.561 217.029C111.981 215.859 107.089 205.506 111.66 195.888C115.754 187.274 141.012 150.521 154.527 142.902L124.232 131.12C124.076 131.058 123.942 130.985 123.807 130.892C123.32 130.737 121.371 131.11 118.21 134.785C117.039 136.141 115.298 138.315 113.277 140.831C102.964 153.658 92.3714 166.434 86.0076 169.291C78.0166 172.884 70.7408 171.921 65.5171 166.548C62.159 163.09 54.9764 147.364 50.8617 137.984L28.744 150.604C28.5574 151.049 28.4123 152.457 29.4799 155.139C30.2157 157.002 32.9623 163.39 36.1546 170.793C44.4254 190.008 50.7995 204.895 51.3385 207.214C52.6548 212.825 52.6962 219.306 51.494 229.618C50.3435 239.443 43.6584 279.426 42.2903 287.553L43.5962 288.35H43.5859Z" fill="#231815"/>
<path d="M60.3966 291.105C60.2619 291.105 60.1272 291.094 59.9924 291.063C58.8731 290.835 58.1372 289.748 58.3652 288.63L72.948 215.787C73.176 214.669 74.2643 213.944 75.3836 214.162C76.503 214.389 77.2389 215.476 77.0109 216.595L62.4281 289.438C62.2311 290.421 61.3709 291.105 60.3966 291.105Z" fill="#231815"/>
<path d="M141.623 289.572C140.804 289.572 140.037 289.085 139.706 288.288C139.436 287.646 113.204 224.369 110.426 217.422C107.628 210.434 107.7 207.836 107.794 207.204C107.949 206.076 109.006 205.268 110.136 205.444C111.235 205.599 112.012 206.593 111.908 207.691C111.908 207.867 111.939 210.03 114.282 215.88C117.059 222.806 143.281 286.062 143.541 286.694C143.976 287.75 143.478 288.961 142.421 289.396C142.162 289.5 141.893 289.551 141.633 289.551L141.623 289.572Z" fill="#231815"/>
<path d="M110.509 201.344C110.354 201.344 110.208 201.323 110.053 201.292C108.934 201.044 108.239 199.936 108.488 198.818C109.763 193.155 113.867 187.357 120.656 177.75C121.506 176.549 122.397 175.286 123.33 173.96C129.331 165.43 141.167 151.588 146.795 146.546C151.355 142.456 154.351 141.1 154.475 141.038C155.522 140.572 156.745 141.038 157.211 142.084C157.678 143.129 157.211 144.341 156.175 144.817C156.113 144.848 153.553 146.049 149.573 149.621C144.722 153.979 133 167.428 126.729 176.342C125.797 177.667 124.905 178.93 124.045 180.141C117.775 189.014 113.629 194.873 112.53 199.729C112.312 200.692 111.463 201.344 110.509 201.344Z" fill="#231815"/>
<path d="M62.6771 163.919C61.8894 163.919 61.1432 163.473 60.7908 162.718L49.4935 138.295C49.0167 137.26 49.4624 136.028 50.5092 135.551C51.5457 135.065 52.779 135.52 53.2558 136.566L64.5531 160.989C65.0298 162.024 64.5842 163.256 63.5374 163.732C63.2575 163.867 62.9569 163.919 62.6667 163.919H62.6771Z" fill="#231815"/>
<path d="M72.6267 214.307C72.5645 214.307 72.5023 214.307 72.4401 214.307L54.748 212.712C53.9395 212.64 53.2555 212.112 52.986 211.346L46.5704 193.394C46.2284 192.773 46.2077 191.975 46.56 191.323C46.7777 190.919 47.1197 190.609 47.5239 190.422C49.6797 188.476 60.5313 177.233 67.2268 170.224C67.859 169.561 68.854 169.396 69.6728 169.81C69.9941 169.975 77.726 173.754 85.5304 168.764C86.2559 168.298 87.2095 168.329 87.9039 168.857L111.773 186.871C112.405 187.348 112.706 188.145 112.561 188.921L109.027 206.935C108.882 207.691 108.322 208.302 107.586 208.519L89.1476 213.996C88.619 214.151 88.049 214.089 87.5618 213.83C87.2716 213.675 80.2653 210.01 73.7253 214.006C73.3936 214.203 73.0205 214.307 72.6474 214.307H72.6267ZM56.4374 208.706L72.1499 210.114C79.1874 206.19 86.3285 208.737 88.7123 209.793L105.181 204.906L108.218 189.387L86.4943 172.988C79.1977 176.984 72.181 175.204 69.2271 174.106C67.517 175.887 63.848 179.718 60.1582 183.538C57.2251 186.571 54.862 188.973 53.1622 190.692C52.2087 191.644 51.4521 192.41 50.8406 192.99L56.4477 208.695L56.4374 208.706Z" fill="#231815"/>
<path d="M69.4346 84.4594C66.004 84.4594 62.8946 84.1385 60.0962 83.4862C54.344 82.1403 52.0741 79.842 51.8358 79.5832C51.701 79.4382 51.587 79.2726 51.4937 79.0862C51.3072 78.7032 33.2005 40.8114 63.247 19.8674C63.2678 19.0495 63.7756 18.2937 64.5633 17.9935L82.9706 10.7464C83.3541 10.6015 83.779 10.5601 84.1832 10.6533L90.2879 12.0199C92.9308 12.082 113.95 13.345 128.274 36.2457C128.636 36.7013 131.362 39.9832 134.99 40.625C135.591 40.7286 136.12 41.1013 136.43 41.6293C136.741 42.1573 136.793 42.7992 136.586 43.3789C136.482 43.6688 133.922 50.5432 128.916 56.7342L128.398 57.3864C124.781 61.9314 113.794 75.7836 88.6503 81.8505C81.4677 83.5794 75.0521 84.449 69.4553 84.449L69.4346 84.4594ZM55.0591 76.9121C56.3339 77.9267 64.5737 83.4034 87.6553 77.8232C111.411 72.0876 121.381 59.5295 125.133 54.8086L125.683 54.1253C128.678 50.4189 130.751 46.3606 131.829 43.9897C127.683 42.3229 125.05 38.834 124.916 38.6683C124.884 38.6269 124.853 38.5752 124.822 38.5234C119.07 29.2886 111.483 22.7144 102.269 18.9977C95.3768 16.2128 90.1013 16.1507 90.0495 16.1507C89.9044 16.1507 89.7489 16.13 89.6038 16.0989L83.9137 14.8255L67.4757 21.2961C67.3721 21.8241 67.0508 22.3107 66.5844 22.6109C54.7067 30.4481 49.1514 41.9399 50.0945 56.7756C50.7268 66.8387 54.2818 75.1521 55.0798 76.9121H55.0591Z" fill="#231815"/>
<path d="M56.2823 70.1933C55.194 70.1933 54.2716 69.3444 54.2094 68.2366L52.7998 42.903C52.7998 42.7891 52.7998 42.6856 52.7998 42.5717C54.5618 25.4272 63.6825 18.5321 64.0763 18.2423C64.2214 18.1387 64.3769 18.0455 64.5427 17.9834L82.9708 10.7467C83.945 10.3637 85.0436 10.7674 85.5515 11.6785C86.049 12.5895 85.8002 13.7387 84.9504 14.3495C84.8778 14.4013 76.2857 21.0272 76.0266 38.9896C76.2028 40.3976 77.8403 52.6451 81.4161 63.5053C81.7788 64.5924 81.1777 65.7623 80.0894 66.1246C79.0012 66.4766 77.83 65.8865 77.4776 64.7994C73.5702 52.9143 71.9637 39.9006 71.9015 39.3519C71.8911 39.2587 71.8808 39.1656 71.8911 39.0827C72.0155 28.8851 74.5859 21.9279 77.177 17.4865L66.398 21.7312C65.2164 22.7354 58.4484 29.03 56.9767 42.8408L58.3759 68.0089C58.4381 69.1477 57.5675 70.1312 56.417 70.1933C56.3755 70.1933 56.3341 70.1933 56.303 70.1933H56.2823Z" fill="#231815"/>
<path d="M81.2295 60.5759C80.3692 60.5759 79.5712 60.0376 79.2706 59.1886C75.7467 49.0738 74.9901 40.2013 74.959 39.8286C74.959 39.7665 74.959 39.7044 74.959 39.6423C75.1145 20.3961 83.7895 13.2526 84.1523 12.9627C85.0436 12.2484 86.3495 12.3933 87.0647 13.2837C87.7798 14.174 87.6347 15.4681 86.7537 16.1825C86.619 16.2964 79.2706 22.622 79.1048 39.5698C79.1877 40.5016 80.0376 48.7425 83.1987 57.822C83.5719 58.8987 83.0018 60.079 81.9239 60.462C81.6959 60.5449 81.4679 60.5759 81.2399 60.5759H81.2295Z" fill="#231815"/>
<path d="M28.3603 215.777C27.6762 215.777 27.0129 215.445 26.619 214.834C20.7631 205.807 16.2235 193.228 13.8293 179.417C13.7878 179.179 13.7567 179.013 13.7464 178.92C13.4769 177.874 14.0573 176.798 15.1041 176.446C16.1924 176.083 17.3636 176.673 17.7263 177.75C17.7885 177.947 17.8196 178.092 17.9232 178.703C20.2242 191.985 24.5461 204.016 30.1118 212.577C30.7337 213.54 30.4642 214.824 29.5003 215.445C29.148 215.673 28.7645 215.777 28.3706 215.777H28.3603Z" fill="#231815"/>
<path d="M29.4379 218.25C29.1374 218.25 28.8368 218.188 28.5466 218.043C28.2357 217.888 25.3025 216.397 18.462 209.895C12.3158 204.056 10.3881 189.925 9.66255 184.593C9.57963 184.023 9.50708 183.433 9.46562 183.195C9.17542 182.336 9.48635 181.342 10.2844 180.814C11.2379 180.183 12.5231 180.441 13.1554 181.394C13.4767 181.88 13.5181 182.16 13.7669 184.034C14.3784 188.486 16.2232 202.058 21.3122 206.893C27.6449 212.908 30.3293 214.306 30.3604 214.327C31.3761 214.844 31.7907 216.076 31.2828 217.091C30.92 217.826 30.1945 218.25 29.4276 218.25H29.4379Z" fill="#231815"/>
<path d="M14.8452 266.506C14.4099 266.506 13.9849 266.372 13.6118 266.092C8.78197 262.5 4.21124 253.172 4.02468 252.768C3.52719 251.743 3.95213 250.501 4.98858 250.004C6.01466 249.507 7.25839 249.931 7.75589 250.956C8.9478 253.399 12.7619 260.284 16.0993 262.769C17.0217 263.452 17.2083 264.746 16.5242 265.668C16.12 266.216 15.4878 266.496 14.8555 266.496L14.8452 266.506Z" fill="#231815"/>
<path d="M20.9603 272.749C14.7934 272.749 10.8445 271.062 10.5958 270.948C10.2434 270.792 9.94284 270.544 9.72519 270.233L5.5794 264.27C4.92644 263.328 5.15446 262.044 6.09763 261.392C7.04079 260.74 8.32599 260.968 8.97895 261.91L12.762 267.345C14.6379 267.987 21.5718 269.933 30.537 267.086C31.6253 266.734 32.7965 267.345 33.1385 268.432C33.4909 269.519 32.8794 270.689 31.7911 271.031C27.7386 272.325 24.0592 272.749 20.9499 272.749H20.9603Z" fill="#231815"/>
<path d="M167.534 272.738C166.467 272.738 165.565 271.92 165.472 270.843C165.42 270.212 165.648 269.622 166.063 269.208C162.746 270.274 159.284 271.454 156.009 272.614C155.522 272.79 154.993 272.769 154.517 272.572C154.237 272.459 151.718 271.413 151.013 271.061C149.987 270.554 149.573 269.301 150.091 268.286C150.599 267.261 151.853 266.847 152.869 267.365C153.211 267.541 154.392 268.038 155.377 268.452C182.77 258.72 184.532 260.646 185.486 261.681C186.325 262.603 186.553 263.866 186.076 265.077C184.657 268.711 176.935 271.931 167.711 272.728C167.648 272.728 167.586 272.728 167.524 272.728L167.534 272.738ZM180.106 265.232C177.308 265.812 173.007 267.023 168.229 268.524C173.836 267.934 177.847 266.475 180.106 265.232Z" fill="#231815"/>
<path d="M144.784 220.083C144.701 220.083 144.608 220.083 144.525 220.062C143.509 219.938 142.742 219.089 142.711 218.074C142.67 216.874 141.872 188.61 148.422 175.017C153.542 164.405 162.673 154.828 163.057 154.435C163.844 153.607 165.161 153.586 165.99 154.373C166.819 155.16 166.84 156.474 166.052 157.303C165.959 157.396 156.983 166.807 152.153 176.818C148.484 184.427 147.303 197.627 146.95 207.018C151.065 198.414 158.579 185.991 171.017 175.658C171.898 174.923 173.204 175.048 173.939 175.928C174.675 176.808 174.551 178.112 173.67 178.847C153.656 195.484 146.836 218.364 146.764 218.603C146.505 219.493 145.686 220.093 144.774 220.093L144.784 220.083Z" fill="#231815"/>
<path d="M139.332 240.137C138.793 240.137 138.255 239.93 137.85 239.515L112.634 213.685C111.836 212.867 111.846 211.552 112.675 210.755C113.494 209.958 114.81 209.968 115.608 210.796L140.825 236.627C141.623 237.445 141.613 238.76 140.783 239.557C140.379 239.95 139.861 240.147 139.332 240.147V240.137Z" fill="#231815"/>
<path d="M91.231 279.074C91.231 279.074 91.1377 279.074 91.0859 279.074C89.9458 279.002 89.0855 278.008 89.1581 276.869C90.2567 260.667 91.9254 234.339 91.7699 231.451C91.6455 230.964 91.6974 230.426 91.9565 229.95C92.5058 228.945 93.7703 228.583 94.7652 229.132C95.7671 229.677 95.7671 238.042 94.7652 254.227C94.0605 265.584 93.2831 277.045 93.2728 277.159C93.2002 278.256 92.2881 279.085 91.2102 279.085L91.231 279.074Z" fill="#231815"/>
<path d="M135.352 219.255C135.062 219.255 134.772 219.193 134.492 219.069L113.255 209.378C112.219 208.902 111.753 207.67 112.229 206.635C112.706 205.6 113.939 205.134 114.976 205.61L136.213 215.3C137.249 215.777 137.715 217.009 137.239 218.044C136.886 218.81 136.14 219.255 135.352 219.255Z" fill="#231815"/>
<path d="M181.796 287.688C181.516 287.688 181.236 287.636 180.967 287.512C172.395 283.785 152.267 274.943 150.547 273.401C149.697 272.634 149.624 271.33 150.391 270.481C151.148 269.642 152.423 269.57 153.273 270.284C154.817 271.392 169.524 278.018 182.615 283.722C183.661 284.178 184.149 285.4 183.692 286.445C183.35 287.222 182.594 287.688 181.796 287.688Z" fill="#231815"/>
<path d="M44.3321 269.001C43.5548 269.001 42.8086 268.566 42.4562 267.811L34.1439 250.252C33.6567 249.217 34.1024 247.985 35.1285 247.498C36.1649 247.012 37.3983 247.457 37.8854 248.482L46.1977 266.04C46.6849 267.076 46.2392 268.308 45.2131 268.794C44.9229 268.929 44.6223 268.991 44.3321 268.991V269.001Z" fill="#231815"/>
<path d="M125.672 65.5449L132.627 80.3393L125.216 85.2155L125.672 65.5449Z" fill="#EFD0AB"/>
<path d="M125.216 85.7225C125.133 85.7225 125.04 85.7018 124.967 85.6604C124.801 85.5672 124.698 85.3912 124.698 85.1945L125.154 65.5239C125.154 65.2858 125.33 65.0787 125.568 65.027C125.796 64.9856 126.045 65.0994 126.149 65.3168L133.103 80.1216C133.217 80.3597 133.134 80.6288 132.917 80.7738L125.506 85.6397C125.423 85.6914 125.32 85.7225 125.226 85.7225H125.216ZM126.138 67.7498L125.755 84.2317L131.963 80.1526L126.138 67.7498Z" fill="black"/>
<path d="M124.698 52.3555L127.278 72.6679C127.278 72.6679 124.003 105.549 122.449 108.562C120.894 111.574 115.732 108.127 114.955 108.738C114.955 108.738 117.028 122.807 116.769 123.522C116.51 124.236 74.5441 122.683 74.7203 122.248C74.8965 121.813 74.1191 102.195 74.1191 102.195L75.7567 57.7804L124.698 52.3555Z" fill="#EFD0AB"/>
<path d="M112.955 124.215C108.592 124.215 101.285 124.018 94.5789 123.79C74.7516 123.107 74.4822 122.775 74.3163 122.579C74.2023 122.434 74.1712 122.227 74.2334 122.051C74.306 121.399 73.8914 109.814 73.5908 102.204L75.2284 57.7486C75.2284 57.4898 75.4357 57.2828 75.6844 57.2517L124.625 51.8268C124.916 51.8061 125.164 51.9924 125.195 52.2719L127.776 72.5844C127.776 72.5844 127.776 72.6672 127.776 72.6983C127.641 74.0442 124.47 105.714 122.895 108.778C121.651 111.191 118.666 110.207 116.697 109.555C116.323 109.431 115.857 109.275 115.536 109.203C116.313 114.555 117.495 122.972 117.236 123.676C117.122 123.997 116.78 124.059 116.634 124.08C116.137 124.163 114.81 124.204 112.934 124.204L112.955 124.215ZM75.2491 121.833C79.3742 122.382 112.748 123.407 116.292 123.096C116.241 121.502 115.173 113.686 114.448 108.799C114.416 108.613 114.499 108.426 114.644 108.312C115.121 107.94 115.847 108.188 117.049 108.582C119.298 109.327 121.226 109.814 122.003 108.312C123.237 105.921 125.859 81.8296 126.771 72.6672L124.252 52.9138L76.2649 58.2352L74.648 102.204C75.2077 116.357 75.2802 120.539 75.2595 121.833H75.2491Z" fill="black"/>
<path d="M56.2822 75.1728C56.2822 75.1728 66.4498 102.453 75.3217 108.654L103.928 106.584L107.68 83.4344L103.192 64.1572L56.2822 75.1728Z" fill="#2B2B2B"/>
<path d="M75.3321 109.161C75.2284 109.161 75.1248 109.13 75.0315 109.068C66.1284 102.846 56.22 76.4668 55.7951 75.3487C55.7433 75.2141 55.7536 75.0588 55.8262 74.9242C55.8987 74.7896 56.0231 74.6965 56.1682 74.6654L103.078 63.6499C103.212 63.6188 103.358 63.6499 103.472 63.712C103.586 63.7845 103.669 63.8983 103.7 64.0329L108.187 83.3101C108.208 83.3722 108.208 83.4447 108.187 83.5068L104.435 106.656C104.394 106.894 104.197 107.07 103.959 107.091L75.3528 109.161C75.3528 109.161 75.3321 109.161 75.3114 109.161H75.3321ZM56.987 75.5351C58.4691 79.3967 67.5691 102.38 75.4876 108.116L103.503 106.097L107.172 83.4447L102.829 64.768L57.0077 75.5351H56.987Z" fill="black"/>
<path d="M107.991 68.123H105.047L103.192 78.7866L108.923 87.2967H112.168" fill="#EFD0AB"/>
<path d="M112.167 87.8138H108.913C108.737 87.8138 108.581 87.731 108.478 87.5861L102.746 79.0863C102.673 78.9724 102.642 78.8378 102.663 78.7032L104.518 68.0397C104.56 67.7912 104.777 67.6152 105.026 67.6152H107.97C108.26 67.6152 108.488 67.843 108.488 68.1329C108.488 68.4228 108.26 68.6505 107.97 68.6505H105.461L103.71 78.6825L109.162 86.7889H112.136C112.426 86.7889 112.654 87.0166 112.654 87.3065C112.654 87.5964 112.426 87.8242 112.136 87.8242L112.167 87.8138Z" fill="black"/>
<path d="M118.106 109.214C118.749 99.4508 115.318 59.6748 115.142 59.416C115.142 59.416 107.648 60.617 107.69 60.969C107.731 61.321 114.976 108.737 114.976 108.737L118.116 109.214H118.106Z" fill="#848484"/>
<path d="M118.106 109.731C118.106 109.731 118.054 109.731 118.023 109.731L114.883 109.255C114.655 109.223 114.479 109.047 114.447 108.82C114.147 106.884 107.213 61.3825 107.161 61.0409C107.089 60.4611 107.058 60.2023 115.049 58.9185C115.245 58.8875 115.453 58.9703 115.567 59.1463C116.147 60.0159 119.184 100.62 118.614 109.265C118.614 109.41 118.531 109.544 118.417 109.638C118.324 109.71 118.21 109.751 118.096 109.751L118.106 109.731ZM115.422 108.281L117.619 108.613C118.075 98.6221 115.225 64.5505 114.707 60.0159C111.991 60.4611 109.162 60.9891 108.26 61.2583C108.892 65.4202 114.779 104.026 115.432 108.281H115.422Z" fill="black"/>
<path d="M60.3348 122.248C60.3348 122.248 59.0185 119.236 61.4956 115.488C63.6099 112.289 68.616 106.936 85.8417 105.446C103.067 103.955 111.349 108.199 118.179 111.295C125.009 114.39 131.798 121.741 134.316 125.292C136.835 128.843 141.209 137.571 140.4 139.062C139.592 140.552 135.405 145.056 130.523 138.254C130.523 138.254 128.564 127.446 119.578 122.518C110.095 117.31 107.98 115.26 94.7758 114.649C76.5966 113.811 64.6982 122.134 64.6982 122.134C64.6982 122.134 60.9152 123.159 60.3244 122.248H60.3348Z" fill="#F4F4F4"/>
<path d="M135.933 142.426C133.912 142.426 131.953 141.132 130.119 138.554C130.077 138.492 130.046 138.419 130.025 138.347C130.005 138.243 128.004 127.724 119.339 122.972C118.262 122.382 117.277 121.823 116.355 121.316C109.276 117.351 106.342 115.705 94.7653 115.166C76.9799 114.348 65.1333 122.476 65.009 122.558C64.9571 122.589 64.9053 122.62 64.8431 122.631C63.5994 122.972 60.6248 123.635 59.8993 122.527C59.8786 122.507 59.8682 122.476 59.8578 122.455C59.7957 122.32 58.4586 119.142 61.0601 115.197C62.4697 113.065 66.7398 106.573 85.8001 104.917C102.352 103.488 110.696 107.298 117.412 110.363L118.396 110.808C125.144 113.872 132.005 121.119 134.751 124.981C136.772 127.828 141.934 137.332 140.877 139.299C140.442 140.107 138.752 142.25 136.244 142.405C136.14 142.405 136.037 142.405 135.943 142.405L135.933 142.426ZM131.02 138.046C132.71 140.376 134.461 141.473 136.171 141.38C138.203 141.245 139.623 139.434 139.965 138.812C140.535 137.767 136.855 129.733 133.912 125.581C131.238 121.813 124.542 114.732 117.982 111.75L116.997 111.305C110.395 108.292 102.186 104.534 85.9037 105.942C67.3513 107.547 63.2781 113.727 61.9411 115.756C59.8267 118.966 60.6352 121.533 60.801 121.968C61.1119 122.227 62.8635 122.082 64.5115 121.647C65.5894 120.933 77.4567 113.313 94.8275 114.131C106.653 114.68 109.649 116.357 116.883 120.405C117.795 120.923 118.78 121.471 119.858 122.061C128.553 126.834 130.792 136.783 131.041 138.046H131.02Z" fill="black"/>
<path d="M56.8004 134.216C56.8004 134.216 58.6971 126.13 58.3551 124.919C58.3551 124.919 64.0452 114.845 84.204 112.609C104.363 110.373 116.925 117.351 125.05 125.126L130.979 132.839C130.979 132.839 103.523 124.639 83.5925 126.979C67.4551 128.874 56.79 134.205 56.79 134.205L56.8004 134.216Z" fill="#6D86A0"/>
<path d="M56.8001 134.733C56.6861 134.733 56.5721 134.692 56.4788 134.619C56.3234 134.495 56.2508 134.288 56.2923 134.091C57.2043 130.178 58.0439 125.726 57.8469 125.053C57.8055 124.919 57.8262 124.774 57.8988 124.66C58.1371 124.235 63.9516 114.338 84.1416 112.091C100.808 110.238 114.686 114.504 125.402 124.753L131.383 132.518C131.518 132.694 131.528 132.942 131.403 133.129C131.279 133.315 131.041 133.398 130.833 133.336C130.564 133.253 103.254 125.188 83.6544 127.497C67.8072 129.36 57.1318 134.619 57.0281 134.671C56.9556 134.713 56.8727 134.723 56.8001 134.723V134.733ZM58.8937 125.033C59.0181 126.482 58.0542 131.058 57.5464 133.305C60.5417 131.969 70.2532 128.035 83.5404 126.472C100.673 124.463 123.578 130.271 129.621 131.928L124.646 125.457C114.064 115.342 100.839 111.294 84.2659 113.137C65.9105 115.177 59.6918 123.821 58.9041 125.043L58.8937 125.033Z" fill="black"/>
<path d="M56.8005 134.216C56.8005 134.216 30.8064 149.735 27.127 151.226C23.4476 152.717 17.4777 155.129 15.5188 159.146C13.5599 163.163 11.3834 172.573 11.3834 172.573L9.89091 175.555L10.461 179.686L5.98351 239.702L3.22656 245.437L5.8695 251.867L4.71904 270.461C4.71904 270.461 15.6328 293.196 15.9748 293.196C15.9748 293.196 28.8268 303.383 51.3591 292.43L41.2434 261.961L43.7309 212.225C43.7309 212.225 54.2301 176.787 27.1166 151.215" fill="#6D86A0"/>
<path d="M31.3658 298.02C28.9613 298.02 26.8677 297.772 25.1264 297.441C19.0425 296.25 15.7984 293.724 15.6637 293.61L15.6948 293.569C15.0936 292.916 13.2591 289.427 4.26278 270.689C4.22133 270.606 4.21096 270.523 4.21096 270.43L5.35105 251.96L2.74957 245.645C2.69775 245.51 2.69775 245.355 2.75994 245.22L5.47543 239.568L9.94251 179.697L9.37246 175.617C9.3621 175.514 9.37246 175.41 9.42429 175.317L10.8857 172.387C11.093 171.507 13.1555 162.811 15.0418 158.908C17.0733 154.725 23.209 152.24 26.8677 150.75C30.516 149.269 56.2509 133.905 56.51 133.75C56.7588 133.595 57.0697 133.688 57.2252 133.926C57.3703 134.175 57.2874 134.485 57.049 134.64C56.0436 135.241 33.4491 148.721 28.0285 151.361C53.8464 176.311 44.7153 210.61 44.2489 212.298L41.7718 261.878L51.8564 292.254C51.9393 292.502 51.8253 292.771 51.5869 292.885C43.4923 296.819 36.6517 298 31.3555 298L31.3658 298.02ZM16.327 292.813C16.5965 293.02 19.768 295.349 25.3959 296.436C30.744 297.472 39.4605 297.554 50.7474 292.171L40.7768 262.137C40.756 262.075 40.7457 262.013 40.756 261.951L43.2435 212.215C43.2435 212.215 43.2435 212.132 43.2642 212.091C43.3679 211.739 53.297 176.87 27.0335 151.837C23.437 153.296 17.8195 155.667 16.0057 159.374C14.0987 163.287 11.9325 172.594 11.9118 172.688C11.9118 172.729 11.891 172.77 11.8703 172.801L10.4504 175.638L10.9997 179.614C10.9997 179.614 10.9997 179.686 10.9997 179.728L6.52224 239.744C6.52224 239.806 6.50151 239.868 6.47041 239.93L3.81711 245.458L6.37713 251.67C6.40823 251.743 6.41859 251.825 6.41859 251.898L5.2785 270.357C9.39319 278.929 15.643 291.788 16.3477 292.802L16.327 292.813Z" fill="black"/>
<path d="M43.4097 144.931C43.4097 144.931 47.6176 131.441 83.603 126.979C119.588 122.517 146.961 140.138 146.961 140.138L116.666 169.198L49.5765 160.988L43.42 144.921L43.4097 144.931Z" fill="#6D86A0"/>
<path d="M116.666 169.726C116.666 169.726 116.624 169.726 116.603 169.726L49.5144 161.516C49.3278 161.496 49.162 161.371 49.0894 161.185L42.9329 145.117C42.8915 145.014 42.8915 144.889 42.9226 144.776C43.0988 144.217 47.6384 130.923 83.5409 126.472C119.298 122.03 146.961 139.537 147.241 139.713C147.376 139.796 147.458 139.941 147.479 140.096C147.5 140.251 147.438 140.407 147.324 140.52L117.028 169.581C116.935 169.674 116.8 169.726 116.666 169.726ZM49.9497 160.522L116.489 168.66L146.121 140.231C142.038 137.798 116.251 123.449 83.6756 127.486C50.6337 131.586 44.612 143.419 43.9797 144.921L49.96 160.512L49.9497 160.522Z" fill="black"/>
<path d="M18.2861 157.996L23.344 178.764L32.5373 235.116L31.3868 238.677L35.9783 249.516C35.9783 249.516 35.4082 264.269 34.1438 267.023C32.8793 269.777 43.109 283.888 43.109 283.888L41.2745 286.528C41.2745 286.528 40.01 291.115 66.201 290.773C92.392 290.431 144.556 289.396 144.556 289.396C144.556 289.396 154.092 286.528 153.522 282.625C152.952 278.722 150.195 272.407 150.195 272.407L150.796 244.029C150.796 244.029 169.887 168.101 159.429 149.642" fill="#6D86A0"/>
<path d="M63.4233 291.312C47.4309 291.312 42.4456 289.344 41.1293 287.647C40.6318 287.005 40.7355 286.487 40.7665 286.394C40.7769 286.342 40.808 286.28 40.8391 286.239L42.4663 283.899C40.3312 280.938 32.3921 269.591 33.6669 266.806C34.6308 264.715 35.2527 254.714 35.4496 249.61L30.8996 238.884C30.8478 238.77 30.8478 238.646 30.8789 238.522L31.9879 235.085L22.8153 178.858L17.7678 158.131C17.6953 157.852 17.8715 157.572 18.1513 157.51C18.4311 157.448 18.711 157.614 18.7732 157.893L23.831 178.661L33.0347 235.043C33.045 235.126 33.0347 235.209 33.0139 235.281L31.9257 238.656L36.4446 249.31C36.4757 249.382 36.486 249.455 36.486 249.527C36.4653 250.138 35.8953 264.415 34.5997 267.231C33.7705 269.042 39.6265 278.215 43.5131 283.578C43.6375 283.754 43.6479 283.992 43.5131 284.178L41.7615 286.694C41.7823 286.767 41.8445 286.922 42.0414 287.129C43.0053 288.154 47.2651 290.504 66.1698 290.256C91.6146 289.924 142.224 288.92 144.442 288.879C147.023 288.092 153.387 285.514 152.972 282.698C152.412 278.909 149.707 272.676 149.676 272.614C149.645 272.542 149.635 272.469 149.635 272.397L150.236 244.019C150.236 244.019 150.236 243.947 150.257 243.905C150.443 243.15 169.182 167.967 158.942 149.901C158.797 149.652 158.89 149.342 159.139 149.197C159.388 149.052 159.709 149.145 159.844 149.393C164.238 157.158 164.124 175.472 159.512 203.85C156.175 224.338 151.573 242.932 151.272 244.102L150.671 272.314C151.044 273.183 153.449 278.857 153.998 282.553C154.62 286.777 145.696 289.583 144.67 289.893C144.629 289.904 144.577 289.914 144.536 289.914C144.017 289.914 92.081 290.949 66.1802 291.291C65.2163 291.301 64.2939 291.312 63.4025 291.312H63.4233Z" fill="black"/>
<path d="M120.863 130.179C121.267 130.282 157.761 143.192 165.12 147.209C172.478 151.226 179.941 151.91 182.47 155.926C184.999 159.943 187.641 196.893 188.098 203.892C188.554 210.89 190.284 228.904 190.284 228.904L193.269 233.605L191.549 238.191L190.854 249.486L192.119 254.487C192.119 254.487 191.777 256.433 191.777 256.785C191.777 257.137 197.985 285.701 197.985 285.701C197.985 285.701 184.429 301.541 156.745 284.551L153.553 277.667L149.158 273.65L148.93 268.598L145.137 262.748L147.552 255.636L144.795 217.992L143.302 212.598L138.939 182.068" fill="#6D86A0"/>
<path d="M180.5 292.896C174.167 292.896 166.145 290.96 156.454 285.017C156.371 284.965 156.299 284.883 156.257 284.789L153.107 277.998L148.795 274.053C148.691 273.96 148.629 273.836 148.629 273.691L148.401 268.784L144.691 263.048C144.608 262.914 144.587 262.748 144.639 262.603L147.023 255.584L144.276 218.044L142.804 212.754L138.42 182.161C138.379 181.881 138.576 181.612 138.856 181.571C139.135 181.529 139.405 181.726 139.446 182.005L143.81 212.536L145.292 217.868L148.07 255.615C148.07 255.687 148.07 255.749 148.049 255.822L145.717 262.696L149.375 268.339C149.427 268.411 149.458 268.504 149.458 268.597L149.676 273.432L153.905 277.304C153.905 277.304 153.998 277.408 154.029 277.47L157.159 284.21C171.203 292.782 181.433 292.658 187.558 291.032C193.362 289.49 196.669 286.353 197.435 285.566C195.103 274.84 191.279 257.147 191.279 256.795C191.279 256.443 191.517 255.087 191.611 254.517L190.377 249.621C190.377 249.621 190.357 249.517 190.367 249.465L191.061 238.17C191.061 238.17 191.072 238.067 191.092 238.015L192.73 233.667L189.88 229.184C189.838 229.111 189.807 229.039 189.797 228.956C189.776 228.78 188.066 210.849 187.61 203.923C186.625 188.901 184.19 159.591 182.055 156.196C180.624 153.918 177.463 152.769 173.452 151.309C170.82 150.346 167.845 149.269 164.891 147.654C157.48 143.606 121.039 130.748 120.749 130.665C120.479 130.582 120.314 130.303 120.396 130.034C120.469 129.765 120.738 129.599 121.018 129.671C121.257 129.733 157.781 142.592 165.389 146.754C168.27 148.327 171.213 149.404 173.805 150.346C177.826 151.816 181.308 153.079 182.925 155.657C185.734 160.119 188.512 202.08 188.636 203.871C189.071 210.476 190.657 227.144 190.802 228.749L193.725 233.346C193.808 233.48 193.829 233.656 193.777 233.801L192.077 238.315L191.393 249.455L192.637 254.373C192.657 254.445 192.657 254.517 192.637 254.59C192.471 255.511 192.305 256.609 192.305 256.795C192.398 257.447 196.803 277.812 198.493 285.607C198.524 285.763 198.493 285.928 198.379 286.053C198.285 286.156 192.315 292.896 180.51 292.896H180.5Z" fill="black"/>
<path d="M27.3965 148.989C27.3965 148.989 25.3651 150.397 27.5416 155.905C29.7181 161.413 48.4778 204.15 49.307 207.691C50.4574 212.608 50.6855 218.592 49.421 229.38C48.1565 240.168 39.9997 288.599 39.9997 288.599L42.6426 290.204C42.6426 290.204 49.877 293.413 61.5992 291.694L76.6484 216.294C76.6484 216.294 82.2763 210.445 87.7902 215.6L119.267 290.783L143.489 289.893V287.781L114.437 216.17C114.437 216.17 109.151 205.951 113.515 196.779C117.878 187.596 145.873 147.53 157.491 143.813L156.818 141.577L124.957 129.184C124.957 129.184 122.242 126.886 116.603 133.429C110.976 139.972 93.2834 163.722 85.1266 167.397C76.9697 171.072 70.9998 169.229 66.9784 165.099C63.5788 161.61 55.0903 142.54 52.5511 136.721L54.655 135.469C53.2247 134.454 51.8152 135.034 51.8152 135.034L27.3758 148.979L27.3965 148.989Z" fill="#2B2B2B"/>
<path d="M54.7483 292.719C47.1616 292.719 42.6634 290.773 42.4354 290.67L39.7302 289.034C39.554 288.92 39.4504 288.713 39.4919 288.506C39.5748 288.019 47.659 239.971 48.9131 229.318C50.0843 219.327 50.0532 213.095 48.8095 207.805C48.2705 205.527 39.8857 186.043 33.7707 171.818C30.4437 164.094 27.8215 157.997 27.0752 156.102C24.8054 150.377 26.8679 148.741 27.1167 148.565C27.1271 148.565 27.1374 148.544 27.1581 148.544L51.5975 134.599C51.7323 134.547 53.3491 133.905 54.9867 135.065C55.1318 135.168 55.2147 135.334 55.2044 135.51C55.194 135.686 55.1007 135.841 54.9556 135.934L53.2455 136.949C55.9713 143.161 64.1282 161.413 67.393 164.757C71.8601 169.343 77.9336 170.099 84.9607 166.942C91.2831 164.094 103.793 148.524 111.266 139.216C113.308 136.68 115.059 134.495 116.261 133.098C121.692 126.782 124.719 128.356 125.258 128.729L157.056 141.101C157.201 141.163 157.315 141.277 157.367 141.432L158.041 143.668C158.123 143.937 157.968 144.227 157.699 144.31C146.64 147.851 118.749 187.078 114.023 197.006C109.825 205.838 114.883 215.838 114.935 215.942L144.007 287.595C144.028 287.657 144.049 287.719 144.049 287.791V289.903C144.049 290.183 143.831 290.411 143.551 290.421L119.329 291.311C119.091 291.311 118.915 291.198 118.832 290.991L87.3964 215.911C82.6909 211.594 77.944 215.797 77.1667 216.553L62.1486 291.798C62.1071 292.015 61.9309 292.181 61.7133 292.212C59.1843 292.585 56.8731 292.73 54.7898 292.73L54.7483 292.719ZM40.5698 288.33L42.9121 289.759C42.9121 289.759 49.96 292.792 61.1639 291.229L76.1406 216.191C76.1613 216.097 76.2028 216.004 76.2753 215.932C76.3375 215.87 82.3282 209.772 88.1426 215.228C88.1944 215.279 88.2359 215.342 88.267 215.404L119.609 290.255L142.981 289.396V287.885L113.971 216.366C113.774 215.983 108.644 205.858 113.059 196.551C117.163 187.917 144.567 148.234 156.869 143.482L156.413 141.96L124.791 129.661C124.74 129.64 124.688 129.609 124.646 129.578C124.626 129.567 122.18 127.776 117.028 133.771C115.847 135.148 114.095 137.332 112.064 139.858C104.042 149.838 91.9153 164.923 85.3753 167.873C75.954 172.108 69.9841 168.909 66.6364 165.471C63.1746 161.92 54.6343 142.736 52.1054 136.939C52.0018 136.701 52.095 136.421 52.3127 136.286L53.6082 135.52C52.7584 135.262 52.0743 135.52 52.0432 135.52L27.6971 149.414C27.5416 149.549 26.1632 150.988 28.0391 155.709C28.7854 157.593 31.5423 163.991 34.7242 171.404C41.202 186.457 49.2655 205.196 49.8252 207.566C51.1 212.981 51.1311 219.317 49.9496 229.432C48.7577 239.63 41.316 283.94 40.5801 288.33H40.5698Z" fill="black"/>
<path d="M60.3968 289.551C60.3968 289.551 60.3242 289.551 60.2931 289.551C60.0133 289.5 59.8267 289.22 59.8889 288.941L74.4717 216.097C74.5236 215.818 74.793 215.631 75.0832 215.694C75.3631 215.745 75.5496 216.025 75.4874 216.304L60.9047 289.148C60.8528 289.396 60.6352 289.562 60.3968 289.562V289.551Z" fill="black"/>
<path d="M141.623 288.009C141.416 288.009 141.229 287.885 141.146 287.688C140.877 287.047 114.655 223.78 111.877 216.843C109.048 209.783 109.327 207.515 109.338 207.422C109.379 207.143 109.638 206.946 109.918 206.977C110.198 207.018 110.395 207.277 110.364 207.557C110.364 207.608 110.177 209.803 112.841 216.46C115.619 223.397 141.841 286.653 142.11 287.295C142.224 287.554 142.089 287.864 141.83 287.968C141.768 287.999 141.696 288.009 141.633 288.009H141.623Z" fill="black"/>
<path d="M110.509 199.792C110.509 199.792 110.437 199.792 110.395 199.781C110.115 199.719 109.939 199.44 110.001 199.16C111.204 193.797 115.246 188.093 121.92 178.641C122.77 177.44 123.662 176.177 124.594 174.852C130.544 166.393 142.266 152.686 147.821 147.696C152.195 143.772 154.973 142.509 155.087 142.457C155.346 142.343 155.657 142.457 155.771 142.716C155.885 142.975 155.771 143.285 155.512 143.399C155.481 143.41 152.744 144.662 148.516 148.462C143.002 153.411 131.362 167.025 125.444 175.442C124.511 176.767 123.62 178.03 122.77 179.241C116.386 188.269 112.178 194.222 111.017 199.388C110.965 199.626 110.747 199.792 110.509 199.792Z" fill="black"/>
<path d="M62.6772 162.366C62.4803 162.366 62.2937 162.252 62.2108 162.066L50.9135 137.643C50.7892 137.384 50.9135 137.074 51.1623 136.96C51.4214 136.836 51.7323 136.96 51.8463 137.208L63.1436 161.631C63.268 161.89 63.1436 162.2 62.8949 162.314C62.8223 162.345 62.7498 162.366 62.6772 162.366Z" fill="black"/>
<path d="M48.3844 192.306C47.576 193.797 68.7195 171.652 68.7195 171.652C68.7195 171.652 77.6848 176.238 86.6396 170.503L110.509 188.517L106.975 206.531L88.5363 212.008C88.5363 212.008 80.3173 207.525 72.6269 212.236L54.9348 210.641L48.3844 192.306Z" fill="#444141"/>
<path d="M72.6269 212.754C72.6269 212.754 72.5958 212.754 72.5854 212.754L54.8933 211.159C54.6963 211.138 54.5201 211.004 54.4476 210.818L47.9802 192.721C47.8454 192.545 47.8247 192.255 47.9283 192.068C48.0113 191.923 48.1564 191.82 48.3118 191.799C49.9805 190.402 61.029 178.962 68.336 171.3C68.4914 171.135 68.7402 171.093 68.9475 171.197C69.0304 171.238 77.7573 175.576 86.3598 170.068C86.5463 169.954 86.7743 169.954 86.9505 170.089L110.82 188.103C110.975 188.227 111.058 188.424 111.017 188.61L107.483 206.625C107.441 206.811 107.306 206.966 107.12 207.018L88.6814 212.495C88.5467 212.536 88.4016 212.515 88.2876 212.453C88.2046 212.412 80.2344 208.178 72.8963 212.66C72.8134 212.712 72.7201 212.733 72.6269 212.733V212.754ZM55.3078 210.155L72.5025 211.698C79.654 207.432 87.2718 210.807 88.5881 211.449L106.529 206.128L109.939 188.735L86.6189 171.124C78.6279 176.042 70.6058 173.04 68.8438 172.274C54.8725 186.913 50.5195 191.282 48.9959 192.472L55.3182 210.155H55.3078Z" fill="black"/>
<path d="M65.3199 19.9199L83.7272 12.6729L90.0392 14.0912C90.0392 14.0912 112.022 14.0912 126.564 37.4371C126.564 37.4371 129.839 41.8267 134.627 42.6653C134.627 42.6653 132.14 49.4362 127.289 55.4409C124.097 59.3853 113.877 73.631 88.1425 79.8531C60.9979 86.4065 53.3593 78.1759 53.3593 78.1759C53.3593 78.1759 35.0972 40.9157 65.4339 20.8931L65.3303 19.9199H65.3199Z" fill="#EAEAEA"/>
<path d="M69.3412 82.9062C57.2355 82.9062 53.2038 78.7651 52.9757 78.5166C52.9447 78.4752 52.9136 78.4338 52.8928 78.3924C52.7063 78.0197 34.8898 40.7076 64.8845 20.6229L64.812 19.9603C64.7912 19.7326 64.9156 19.5048 65.1333 19.422L83.5405 12.1749C83.6338 12.1335 83.7375 12.1335 83.8411 12.1542L90.1012 13.5622C91.4175 13.5933 112.851 14.4422 127.009 37.1462C127.009 37.1462 130.201 41.3495 134.72 42.1467C134.876 42.1778 135 42.2606 135.083 42.3952C135.156 42.5298 135.176 42.6851 135.124 42.83C135.104 42.9025 132.554 49.7458 127.703 55.7505L127.175 56.4131C123.268 61.3307 112.903 74.3961 88.2771 80.3387C80.4623 82.223 74.254 82.9062 69.362 82.9062H69.3412ZM53.7842 77.8644C54.4786 78.5166 62.6665 85.4634 88.018 79.3345C112.292 73.4747 122.501 60.6164 126.346 55.7712L126.885 55.0982C130.834 50.222 133.217 44.766 133.922 43.0371C129.331 41.9396 126.284 37.9124 126.149 37.7364C111.908 14.8874 90.2567 14.6079 90.0391 14.6079C89.9976 14.6079 89.9665 14.6079 89.925 14.5975L83.7686 13.2206L65.8795 20.2606L65.9417 20.8403C65.9624 21.0371 65.8795 21.2234 65.7137 21.3269C36.7657 40.4281 52.8928 75.9698 53.7842 77.8747V77.8644Z" fill="black"/>
<path d="M56.2821 68.1232L54.8726 42.7896C56.562 26.3594 65.3199 19.9199 65.3199 19.9199L83.7272 12.6729C83.7272 12.6729 74.1815 19.599 73.9432 39.1039C73.9432 39.1039 75.5393 52.3246 79.4363 64.1477" fill="#EAEAEA"/>
<path d="M56.2823 68.6407C56.0128 68.6407 55.7848 68.4233 55.7641 68.1541L54.3545 42.8205C56.0543 26.2765 64.6464 19.7748 65.0092 19.5057C65.0506 19.4746 65.0817 19.4539 65.1232 19.4435L83.5304 12.1965C83.7688 12.0929 84.0487 12.1965 84.173 12.4242C84.2974 12.652 84.2352 12.9419 84.0279 13.0972C83.9347 13.1697 74.6896 20.1372 74.4615 39.1141C74.4719 39.1762 76.0991 52.3555 79.9236 63.9923C80.0169 64.2614 79.8614 64.5513 79.592 64.6445C79.3225 64.7377 79.0323 64.5824 78.939 64.3132C75.073 52.573 73.4458 39.3005 73.4251 39.1659C73.5909 24.9306 78.5762 17.3315 81.4472 14.1221L65.5792 20.3649C64.8744 20.924 56.9767 27.4981 55.3909 42.8412L56.8005 68.092C56.8212 68.3819 56.5932 68.62 56.3134 68.6407C56.3134 68.6407 56.2926 68.6407 56.2823 68.6407Z" fill="black"/>
<path d="M81.2296 59.0221C81.012 59.0221 80.815 58.8875 80.7425 58.6701C77.2807 48.7416 76.5138 39.7863 76.5034 39.6932C76.6589 21.1303 84.7639 14.4423 85.1163 14.1628C85.3443 13.9868 85.6656 14.0179 85.8418 14.2456C86.018 14.463 85.9869 14.7943 85.7589 14.9703C85.676 15.0325 77.685 21.679 77.5399 39.6518C77.5399 39.6932 78.3068 48.5242 81.7167 58.3285C81.81 58.5976 81.6649 58.8979 81.3954 58.9911C81.3436 59.0118 81.2814 59.0221 81.2296 59.0221Z" fill="black"/>
<path d="M28.3602 214.223C28.1943 214.223 28.0285 214.14 27.9249 213.985C22.183 205.133 17.7159 192.761 15.3631 179.147C15.3113 178.826 15.2699 178.619 15.2595 178.557C15.187 178.288 15.3424 178.008 15.6119 177.926C15.8814 177.843 16.1612 177.988 16.2441 178.247C16.2649 178.298 16.3063 178.547 16.3789 178.971C18.7109 192.451 23.1158 204.688 28.7955 213.426C28.951 213.664 28.8784 213.985 28.64 214.14C28.5571 214.192 28.4535 214.223 28.3602 214.223Z" fill="black"/>
<path d="M29.4488 216.709C29.3762 216.709 29.2933 216.688 29.2208 216.657C29.1068 216.605 26.3187 215.228 19.5404 208.778C13.7881 203.312 11.9225 189.573 11.2073 184.397C11.1037 183.621 11 182.896 10.9586 182.761C10.8031 182.523 10.886 182.244 11.1244 182.088C11.3628 181.933 11.7048 182.037 11.8603 182.275C11.9743 182.451 12.0158 182.668 12.2334 184.262C12.8553 188.849 14.7623 202.825 20.2451 208.033C26.868 214.327 29.6353 215.715 29.6664 215.725C29.9256 215.849 30.0292 216.16 29.9048 216.419C29.8115 216.605 29.6353 216.709 29.4384 216.709H29.4488Z" fill="black"/>
<path d="M14.845 264.953C14.7413 264.953 14.6273 264.922 14.534 264.849C10.0048 261.474 5.59986 252.478 5.4133 252.095C5.28892 251.836 5.39257 251.525 5.65168 251.401C5.91079 251.277 6.22172 251.38 6.3461 251.639C6.38756 251.732 10.8235 260.791 15.1559 264.011C15.3839 264.187 15.4357 264.508 15.2595 264.736C15.1559 264.87 15.0004 264.943 14.845 264.943V264.953Z" fill="black"/>
<path d="M20.9288 271.196C15.1351 271.196 11.4453 269.622 11.2173 269.519C11.1344 269.477 11.0515 269.415 10.9996 269.343L6.85386 263.379C6.68802 263.141 6.75021 262.82 6.98859 262.655C7.22698 262.489 7.54828 262.551 7.71411 262.789L11.777 268.628C12.8652 269.053 20.68 271.848 31.0238 268.556C31.2933 268.473 31.5835 268.618 31.6767 268.887C31.7597 269.156 31.6146 269.446 31.3451 269.539C27.448 270.782 23.9138 271.196 20.9495 271.196H20.9288Z" fill="black"/>
<path d="M167.534 271.185C167.265 271.185 167.037 270.978 167.016 270.709C166.995 270.43 167.203 270.171 167.482 270.15C176.821 269.343 182.874 266.133 183.661 264.135C183.806 263.752 183.692 263.555 183.568 263.431C182.314 262.437 168.301 266.578 155.48 271.154C155.356 271.196 155.221 271.196 155.107 271.154C154.993 271.113 152.371 270.016 151.697 269.684C151.438 269.56 151.335 269.25 151.469 268.991C151.594 268.732 151.905 268.628 152.164 268.763C152.703 269.032 154.703 269.871 155.325 270.129C156.465 269.726 162.57 267.572 168.799 265.647C182.977 261.257 183.9 262.261 184.335 262.748C184.781 263.234 184.884 263.866 184.625 264.529C183.599 267.169 176.935 270.388 167.576 271.196C167.565 271.196 167.545 271.196 167.534 271.196V271.185Z" fill="black"/>
<path d="M144.774 218.53C144.774 218.53 144.732 218.53 144.712 218.53C144.463 218.499 144.266 218.292 144.256 218.034C144.214 216.853 143.426 188.952 149.811 175.7C154.817 165.306 164.083 155.616 164.166 155.512C164.363 155.305 164.694 155.295 164.902 155.502C165.109 155.698 165.119 156.03 164.912 156.237C164.819 156.33 155.677 165.906 150.733 176.156C145.655 186.685 145.22 207.36 145.24 215.042C147.79 208.229 155.605 190.484 172.001 176.86C172.219 176.674 172.551 176.705 172.727 176.932C172.913 177.15 172.882 177.481 172.665 177.657C152.288 194.594 145.334 217.93 145.261 218.168C145.199 218.396 144.992 218.541 144.764 218.541L144.774 218.53Z" fill="black"/>
<path d="M139.333 238.584C139.198 238.584 139.063 238.533 138.96 238.429L113.743 212.598C113.546 212.391 113.546 212.07 113.743 211.863C113.95 211.667 114.271 211.667 114.479 211.863L139.696 237.694C139.892 237.901 139.892 238.222 139.696 238.429C139.592 238.522 139.467 238.574 139.333 238.574V238.584Z" fill="black"/>
<path d="M91.231 277.521C91.231 277.521 91.2103 277.521 91.1999 277.521C90.9097 277.501 90.7024 277.252 90.7128 276.973C91.9047 259.456 93.5734 232.962 93.3143 231.151C93.2521 231.006 93.2521 230.84 93.335 230.685C93.4697 230.436 93.791 230.343 94.0398 230.478C94.4129 230.685 94.8896 230.944 91.7492 277.035C91.7285 277.304 91.5005 277.521 91.231 277.521Z" fill="black"/>
<path d="M135.352 217.702C135.28 217.702 135.207 217.692 135.135 217.661L113.898 207.971C113.639 207.846 113.525 207.546 113.639 207.287C113.753 207.028 114.064 206.915 114.323 207.028L135.56 216.719C135.819 216.843 135.933 217.143 135.819 217.402C135.736 217.588 135.539 217.702 135.342 217.702H135.352Z" fill="black"/>
<path d="M181.806 286.135C181.734 286.135 181.671 286.125 181.599 286.093C178.707 284.841 153.273 273.753 151.604 272.252C151.386 272.055 151.376 271.734 151.563 271.516C151.76 271.299 152.081 271.289 152.299 271.475C153.47 272.531 170.716 280.223 182.024 285.141C182.283 285.255 182.407 285.555 182.293 285.824C182.21 286.021 182.013 286.135 181.817 286.135H181.806Z" fill="black"/>
<path d="M44.3321 267.448C44.1352 267.448 43.9486 267.334 43.8657 267.147L35.5534 249.589C35.429 249.33 35.543 249.019 35.8021 248.895C36.0613 248.771 36.3722 248.885 36.4966 249.144L44.8089 266.702C44.9332 266.961 44.8192 267.272 44.5601 267.396C44.4876 267.427 44.415 267.448 44.3425 267.448H44.3321Z" fill="black"/>
</g>
</g>
<defs>
<filter id="filter0_f_150_8064" x="-4" y="-4" width="208" height="318" filterUnits="userSpaceOnUse" color-interpolation-filters="sRGB">
<feFlood flood-opacity="0" result="BackgroundImageFix"/>
<feBlend mode="normal" in="SourceGraphic" in2="BackgroundImageFix" result="shape"/>
<feGaussianBlur stdDeviation="2" result="effect1_foregroundBlur_150_8064"/>
</filter>
<clipPath id="clip0_150_8064">
<rect width="200" height="284" fill="white"/>
</clipPath>
<clipPath id="clip1_150_8064">
<rect width="200" height="310" fill="white"/>
</clipPath>
</defs>
</svg>
