<svg width="401" height="151" viewBox="0 0 401 151" fill="none" xmlns="http://www.w3.org/2000/svg">
<path d="M66.2429 64.1604H4.47021L8.01169 52.9698H32.1054L33.4407 48.7951H13.8755L17.1267 38.4743H19.507L16.3719 31.2265C21.8873 29.9509 26.0094 28.6173 28.7961 27.3417C32.5698 25.6022 35.4727 23.1669 37.6208 20.0359H30.3637L28.3897 26.298H16.43L21.8293 9.13525H45.981L47.8969 2.93115H60.7856L58.8697 9.13525H83.4859L78.4349 25.2543H72.397L75.1837 26.0661C73.0356 30.6467 71.0036 33.6037 68.9716 34.8794C67.6363 35.7491 65.4301 36.2129 62.3531 36.2129H51.1481C48.013 36.2129 46.2132 35.8651 45.6907 35.1693C45.2843 34.5894 45.4585 33.0819 46.2713 30.5307L49.5805 20.0359H39.4206L47.4905 23.8048C42.6137 30.5307 35.763 35.4012 26.9383 38.4743H69.4361L66.1848 48.7951H46.6196L45.2843 52.9698H69.7844L66.2429 64.1604ZM66.9977 23.6888L68.1588 20.0939H61.4242L59.7986 25.3123C59.5664 26.0661 59.5083 26.4719 59.6244 26.5879C59.7405 26.7039 60.205 26.7618 60.9597 26.7618H62.295C63.0498 26.7618 63.5723 26.5879 63.8626 26.24C64.1529 25.8921 64.7334 24.9064 65.4882 23.2249L67.0557 23.6888H66.9977Z" fill="white"/>
<path d="M108.741 5.88804C102.645 19.3979 97.9422 31.4002 94.6329 42.011C92.1945 49.7806 90.3948 56.6225 89.2917 62.4787L76.0547 63.1165C77.6222 56.7384 79.4801 50.0705 81.6282 43.1706C85.3438 31.4002 90.1625 18.6441 96.1424 4.90234L108.683 5.94602L108.741 5.88804ZM131.441 59.4056C126.042 60.1014 120.759 60.4493 115.708 60.4493C100.09 60.4493 93.7621 55.8687 96.6069 46.7655C98.1744 41.779 103.167 36.2127 111.644 30.1826L121.629 34.7052C118.843 36.4447 116.346 38.2421 114.14 40.1555C111.992 42.0689 110.715 43.5185 110.366 44.6202C109.96 45.8958 110.483 46.8235 111.934 47.3453C113.385 47.8672 116.056 48.1571 119.946 48.1571C123.836 48.1571 128.654 47.7512 134.692 46.9395L131.441 59.4636V59.4056ZM146.071 10.2947L141.949 22.8188C134.518 22.297 128.538 22.0651 124.068 22.0651C118.146 22.0651 112.34 22.355 106.535 22.8768L110.541 10.7006C117.333 10.1207 124.416 9.88881 131.847 9.88881C137.015 9.88881 141.717 10.0048 146.071 10.2947Z" fill="white"/>
<path d="M203.838 36.7929L187.001 37.3727C183.75 38.6483 180.673 40.3298 177.712 42.3012C174.345 44.5045 172.371 46.4179 171.849 47.9835C171.21 49.9549 173.474 50.9406 178.641 50.9406C182.299 50.9406 186.653 50.4767 191.588 49.607L188.685 62.421C184.273 63.1168 179.86 63.4647 175.39 63.4647C160.411 63.4647 154.257 59.0581 157.044 50.3028C158.321 46.302 161.689 42.1852 167.146 37.8366C166.74 37.8366 159.134 38.1845 144.271 38.9382L147.755 26.9939L174.113 26.0662C181.951 19.6302 190.485 12.0925 199.658 3.45312L209.411 9.36731C201.748 16.0353 195.42 21.3696 190.427 25.3704L207.205 24.6746L203.722 36.7349L203.838 36.7929ZM176.609 19.6302L162.734 24.9645C161.514 19.5722 159.599 14.2378 157.102 8.96144L170.397 3.74304C173.242 8.96144 175.332 14.2958 176.609 19.6302Z" fill="white"/>
<path d="M277.106 15.9771L270.43 28.0374L262.94 25.95C263.695 30.2407 263.289 35.1112 261.605 40.5036C259.341 47.6354 255.219 53.4916 249.297 58.0142C243.317 62.5368 236.757 64.8561 229.615 64.8561C221.952 64.8561 216.437 62.8267 213.127 58.826C209.76 54.8252 209.121 49.5488 211.211 43.0548C213.882 34.5894 219.223 26.8778 227.235 19.9779L215.856 21.0215L218.701 8.43941L247.381 6.8159L245.233 18.2964C239.137 22.4711 234.434 26.5299 231.125 30.4147C228.048 34.0096 225.842 37.8364 224.565 42.0111C223.52 45.2581 223.868 47.8673 225.435 49.7807C226.945 51.6362 229.325 52.5639 232.634 52.5639C236.64 52.5639 240.182 51.1723 243.317 48.4471C246.336 45.8379 248.484 42.533 249.761 38.4162C250.574 35.749 250.864 32.8499 250.574 29.5449C250.284 26.2979 249.413 23.4568 247.962 21.0795L253.941 10.9326L262.011 12.6721C261.895 9.54107 261.547 6.58398 261.082 3.91679L268.572 2.23531C269.268 5.13442 269.617 8.43941 269.733 12.2662L264.798 13.3099L277.28 15.9771H277.106ZM279.545 10.1209L271.707 11.8024C271.649 8.72932 271.242 5.42433 270.488 1.77145L278.151 0.147949C279.022 2.9311 279.486 6.23608 279.545 10.1209Z" fill="white"/>
<path d="M330.17 54.7094C325.99 57.6665 322.565 59.8698 319.952 61.2614C315.888 63.4067 312.405 64.4504 309.386 64.4504C305.09 64.4504 301.954 62.1311 299.981 57.4926C298.994 55.0573 298.239 53.5498 297.832 52.9699C297.078 51.6943 296.149 51.1145 294.988 51.1145C293.478 51.1145 290.401 52.5061 285.873 55.2312C282.041 57.5505 277.454 60.5076 272.171 64.0445L267.875 53.3178C277.106 47.7515 289.763 40.2139 305.844 30.7048L281.46 31.3426L284.944 19.3982L329.764 18.7025L326.803 29.2552C320.301 33.4299 313.392 37.8946 306.018 42.5911C306.425 42.5911 306.773 42.5331 307.18 42.5331C308.921 42.5331 310.199 43.7508 311.127 46.244C312.405 49.607 313.566 51.3464 314.611 51.3464C315.888 51.3464 318.094 50.2448 321.287 47.9835C323.726 46.244 325.932 44.5625 327.848 42.8231L330.112 54.7094H330.17ZM329.474 6.06233L323.668 17.4268C314.321 16.2092 304.161 15.5134 293.072 15.2235L299.052 3.68506C310.373 3.97497 320.533 4.78672 329.415 6.12031L329.474 6.06233Z" fill="white"/>
<path d="M393.975 43.055C392.059 49.2011 387.995 54.2456 381.957 58.0724C375.455 62.1312 367.617 64.2185 358.444 64.2185C351.361 64.2185 345.497 63.0589 340.911 60.6816C340.679 58.7682 340.969 56.4489 341.84 53.6658C343.001 49.9549 345.207 46.8239 348.458 44.3306C352.058 41.5475 356.18 40.1559 360.824 40.1559C369.069 40.1559 373.539 43.5189 374.294 50.2448C377.835 48.4474 380.041 46.1281 380.912 43.2869C382.654 37.6627 378.938 34.8795 369.765 34.8795C364.134 34.8795 358.038 36.3871 351.419 39.3442C348.052 40.8517 344.22 42.997 339.808 45.6642L338.298 34.6476L371.275 17.5428L351.419 18.0067L355.019 6.17833L396.53 5.54053L393.394 16.3832L376.79 25.0805C377.893 24.9066 378.88 24.8486 379.809 24.8486C385.905 25.0226 390.201 26.82 392.698 30.183C395.194 33.5459 395.601 37.8366 393.975 42.997V43.055ZM362.566 53.4918C362.334 50.7667 360.708 49.3751 357.689 49.3751C355.251 49.3751 353.683 50.4188 353.103 52.4481C354.612 53.2019 357.051 53.5498 360.418 53.5498C361.463 53.5498 362.16 53.5498 362.624 53.4918H362.566Z" fill="white"/>
<path d="M29.8413 145.741C20.7264 147.249 10.7986 148.409 0 149.162L1.33531 138.146C5.3993 138.03 9.11496 137.798 12.4242 137.566L13.3531 134.551L5.22513 136.986C5.3993 132.927 5.34125 129.332 4.99291 126.317L13.8756 123.476C14.1659 125.795 14.282 128.579 14.1659 131.826L17.0688 122.548H7.37324L10.3922 112.923H20.2038L20.9586 110.546H16.1399L17.0107 107.821C16.1399 108.401 15.0368 109.097 13.8176 109.734L13.3531 98.8337C19.0427 95.3548 23.9776 91.1221 28.1577 86.0196H40.0594C40.6399 90.0784 42.4397 93.9052 45.4587 97.3842C47.2004 93.7893 48.7099 90.3683 50.0452 87.0053L58.6376 88.6868C57.5345 91.296 56.7217 93.2094 56.1412 94.4851H58.8118L61.5405 85.8457H72.1068L69.3782 94.4851H78.8995L75.5903 104.98H66.0689L64.5014 110.082L63.8627 111.822H74.7194L71.4102 122.317H61.076C61.7146 128.637 63.8627 134.087 67.3462 138.667L58.4054 149.8C54.5156 144.35 52.1352 138.899 51.1483 133.449C45.4587 140.407 39.4788 145.857 33.2667 149.8L30.5961 143.074L29.7833 145.625L29.8413 145.741ZM23.8614 136.638C27.3449 136.29 30.4219 135.942 33.0345 135.594L32.0475 138.783C38.4918 134.261 43.6589 128.811 47.6068 122.432H37.5629L40.8722 111.938H52.6577C53.2383 110.43 53.6447 109.155 53.935 108.227L54.922 105.096H51.0321C50.1032 106.777 49.1163 108.633 48.0132 110.546L39.3627 108.691C40.8722 106.313 42.4397 103.588 44.0072 100.573L37.9112 106.893L36.6921 110.72H32.0475L31.2927 113.097H39.0724L36.0534 122.722H28.2738L25.487 131.536C26.9965 129.216 28.6221 126.549 30.3058 123.476L36.8662 125.679C35.2406 128.405 33.1506 131.594 30.5961 135.189L24.8484 133.449L23.8614 136.638ZM25.0806 101.965H33.4409C32.4539 100.109 31.6411 98.2539 31.1186 96.3405C29.4349 98.1379 27.4029 100.051 25.0806 101.965Z" fill="white"/>
<path d="M98.0005 135.652C90.9756 138.551 83.0218 140.929 74.0229 142.726L75.9969 130.666C78.4353 130.318 80.9317 129.912 83.6024 129.332L88.8275 112.633H83.0218L86.6213 101.153H92.427L97.0716 86.3093H108.335L103.69 101.153H108.683L105.142 112.343C110.134 109.966 114.721 107.125 118.785 103.762H113.095L114.256 99.9931H106.709L110.018 89.4404H117.566L118.669 85.9614H129.525L128.422 89.4404H135.505L136.608 85.9614H147.465L146.362 89.4404H154.142L150.832 99.9931H143.053L141.892 103.762H135.912C138.524 107.589 142.704 110.836 148.568 113.445L139.744 123.418C137.131 121.968 134.635 120.171 132.254 117.91L130.977 121.968H112.399L113.502 118.489C110.018 120.693 106.825 122.316 103.864 123.476L100.149 114.489C101.716 113.909 103.226 113.271 104.561 112.633H100.091L95.9685 125.853C98.0586 125.099 99.9745 124.346 101.774 123.65L98.0005 135.594V135.652ZM131.616 149.22H119.656L120.527 146.379H108.741L107.87 149.22H95.9105L103.864 123.94H139.627L131.674 149.22H131.616ZM123.546 136.754L124.591 133.391H112.805L111.76 136.754H123.546ZM120.178 114.025H128.539C127.319 112.633 126.332 111.242 125.461 109.908C123.429 111.532 121.688 112.923 120.178 114.025ZM124.533 102.138H131.616L132.254 100.109H125.171L124.533 102.138Z" fill="white"/>
<path d="M210.05 118.779C205.522 119.765 200.819 120.983 196 122.548C195.594 124.694 194.665 128.115 193.272 132.869H181.66C182.009 131.825 182.589 129.97 183.402 127.303C179.106 129.332 176.667 131.188 176.145 132.811C175.448 134.956 178.525 136 185.318 136C189.73 136 194.955 135.652 200.935 134.956L198.032 146.727C192.865 147.249 187.756 147.481 182.763 147.481C167.088 147.481 160.76 142.842 163.605 133.623C165.578 127.419 172.139 121.678 183.402 116.518C182.938 116.17 182.299 115.938 181.544 115.938C178.874 115.938 175.855 116.982 172.429 119.069C169.41 120.867 166.507 123.186 163.721 126.027C159.773 130.028 156.928 133.043 155.07 135.072L147.871 127.361C155.535 120.171 162.501 112.633 168.772 104.69L158.379 104.98L161.863 93.2092C166.798 93.3252 171.849 93.3832 177.074 93.3252C178.409 91.2958 179.802 89.0345 181.254 86.6572L193.736 87.9908C192.633 89.7303 191.53 91.4118 190.427 93.0933C196.407 92.9193 203.548 92.5714 211.85 92.0496L208.367 103.588C199.542 103.936 190.717 104.168 181.893 104.4C180.906 105.559 179.628 107.067 178.003 108.864C181.37 107.531 184.621 106.835 187.814 106.835C192.052 106.835 194.781 108.459 196 111.648C200.935 110.024 205.812 108.632 210.689 107.531L210.166 118.779H210.05Z" fill="white"/>
<path d="M220.21 144.582C217.946 146.553 215.391 148.409 212.605 150.206L207.554 139.885C210.979 138.03 213.592 136.406 215.449 135.073C214.695 131.536 214.404 127.187 214.579 121.911L224.797 116.808C224.622 119.881 224.681 122.664 224.913 125.158C226.48 122.606 227.874 119.649 228.919 116.344H217.656L220.21 108.111L231.299 98.1379H223.694L227.003 87.6431H248.31L245.233 97.3842L243.317 99.0656H257.251L257.831 97.0942H246.974L249.471 89.0927H260.328L261.431 85.6138H273.216L272.113 89.0927H285.35L282.563 97.906H286.163L282.796 108.575H279.196L276.874 115.996H263.637L263.114 117.736H276.584L274.319 124.984H260.85L260.27 126.781H275.887L273.216 135.189H257.599L256.786 137.856H274.842L269.617 148.235H230.718C226.248 148.235 222.707 146.959 220.152 144.466L220.21 144.582ZM241.749 107.299C237.976 119.301 233.679 128.637 228.861 135.189C230.951 137.044 234.202 137.972 238.73 137.972H245.059L245.871 135.305H232.286L234.957 126.897H248.542L249.123 125.1H237.569L239.833 117.852H251.387L251.909 116.112H241.053L243.259 109.155H254.115L254.696 107.299H241.749ZM243.027 99.4135L234.086 107.183H240.588L243.027 99.4135ZM269.384 109.502L270.081 107.299H266.482L265.785 109.502H269.384ZM272.636 99.1236L273.332 96.9203H269.733L269.036 99.1236H272.636Z" fill="white"/>
<path d="M344.452 103.124C342.479 103.124 340.214 103.356 337.66 103.704C332.202 106.081 326.861 108.923 321.752 112.17C314.379 116.866 310.141 120.983 309.038 124.462C307.47 129.448 314.089 132.637 328.893 134.087L322.217 146.901C300.329 144.988 291.272 138.03 295.104 125.969C297.252 119.127 304.045 111.822 315.54 103.936L288.602 104.69L292.259 92.3977L347.994 91.354L344.511 103.182L344.452 103.124Z" fill="white"/>
<path d="M398.445 126.549C396.529 132.695 392.465 137.74 386.427 141.567C379.925 145.625 372.087 147.713 362.914 147.713C355.831 147.713 349.968 146.553 345.381 144.176C345.149 142.262 345.439 139.943 346.31 137.16C347.471 133.449 349.677 130.318 352.929 127.825C356.528 125.042 360.65 123.65 365.295 123.65C373.539 123.65 378.009 127.013 378.764 133.739C382.305 131.942 384.512 129.622 385.382 126.781C387.124 121.157 383.408 118.374 374.235 118.374C368.604 118.374 362.508 119.823 355.889 122.838C352.522 124.346 348.69 126.491 344.278 129.158L342.769 118.142L375.745 101.037L355.889 101.501L359.489 89.6725L401 89.0347L397.865 99.8773L381.26 108.575C382.363 108.401 383.35 108.343 384.221 108.343C390.317 108.517 394.613 110.314 397.11 113.677C399.606 117.04 400.013 121.331 398.387 126.491L398.445 126.549ZM367.036 136.986C366.804 134.261 365.179 132.869 362.16 132.869C359.721 132.869 358.154 133.913 357.573 135.942C359.083 136.696 361.521 137.044 364.888 137.044C365.933 137.044 366.63 137.044 367.094 136.986H367.036Z" fill="white"/>
</svg>
