<svg width="609" height="150" viewBox="0 0 609 150" fill="none" xmlns="http://www.w3.org/2000/svg">
<g clip-path="url(#clip0_168_9935)">
<path d="M62.1633 52.1025C60.2941 58.0604 58.3081 61.7987 56.2637 63.3758C54.6282 64.6609 51.4156 65.245 46.7427 65.245H27.8759C24.6048 65.245 22.5605 64.8361 21.7427 63.96C20.9249 63.0838 20.9249 61.3315 21.7427 58.7614L22.7357 55.6072H13.3899L12.1633 59.5791H0.65625L8.83382 33.5861H62.981L57.4904 51.0511L62.1048 52.1025H62.1633ZM68.2964 29.6142H57.6656L60.8782 19.4506H45.8081L41.8362 32.1843H30.1539L34.1259 19.4506H19.6399L16.4273 29.6142H5.73803L11.4623 11.273H36.6376L37.1633 9.57911H16.4857L18.8221 2.16089H72.6189L70.2824 9.57911H48.8455L48.3198 11.273H74.0207L68.2964 29.5557V29.6142ZM24.9553 48.4226L25.5978 46.4366H16.252L15.6095 48.4226H24.9553ZM28.5768 32.009H17.3619L18.8221 27.3945H30.0371L28.5768 32.009ZM27.1165 41.53L27.7591 39.5441H18.4133L17.7707 41.53H27.1165ZM30.5044 25.759H19.2894L20.7497 21.0861H31.9647L30.5044 25.759ZM49.488 55.1399H34.4763L34.0675 56.4249C33.8922 56.8922 33.8922 57.1843 34.0675 57.2427C34.1843 57.3011 34.5348 57.3595 35.1773 57.3595H45.5745C46.8595 57.3595 47.7941 57.2427 48.2614 57.009C48.7287 56.7754 49.196 56.1913 49.5464 55.1983L49.488 55.1399ZM46.8595 48.4226L47.502 46.4366H37.2801L36.6376 48.4226H46.8595ZM49.0207 41.53L49.6633 39.5441H39.4413L38.7988 41.53H49.0207ZM55.2123 32.009H43.5301L44.9904 27.3945H56.6726L55.2123 32.009ZM57.1399 25.759H45.4576L46.9179 21.0861H58.6002L57.1399 25.759Z" fill="white"/>
<path d="M110.703 37.967C108.308 41.3548 105.621 44.4506 102.642 47.3712C105.504 49.6492 108.016 51.9273 110.294 54.2637L98.2031 62.0324C96.5676 60.0464 94.64 57.9436 92.4204 55.8408C87.1634 59.4623 81.3222 62.6165 74.8386 65.1866L66.3105 57.0675C72.8526 55.1983 78.9274 52.5698 84.3596 49.1235C81.4391 46.9623 78.6353 45.0931 76.0068 43.5745L87.1634 36.8572C89.383 38.0254 91.7778 39.4857 94.3479 41.1796C96.1587 39.3689 97.7358 37.5581 99.0208 35.7474H76.1236L79.1026 26.2263H130.388C125.481 42.8735 123.846 51.1679 125.364 51.1679C126.182 51.1679 128.577 48.4226 132.432 42.9903L132.666 57.3595C127.526 62.6165 122.853 65.3034 118.764 65.3034C114.325 65.3034 111.988 62.5581 111.754 57.1259C111.579 52.5114 112.981 45.3852 115.902 35.8058H104.044L110.703 38.0254V37.967ZM110.469 1.57679C109.476 2.86184 108.483 4.03006 107.549 5.08146H145.341L142.304 14.7777H98.3783C97.911 15.1866 97.2101 15.8291 96.2755 16.7637H137.864L135.528 24.1819H92.1283L93.7638 18.9249C90.668 21.6118 87.6891 23.8315 84.9437 25.5838L76.0652 19.217C85.2942 13.5511 92.4788 7.41791 97.7942 0.700623L110.469 1.6352V1.57679Z" fill="white"/>
<path d="M191.836 29.0301C189.207 37.4413 183.892 49.0067 175.831 63.7263L156.731 61.2146L162.046 48.6562L169.581 49.9413C173.553 43.0488 176.357 37.0908 177.934 32.009C178.927 28.9132 177.817 27.3946 174.605 27.3946C174.196 27.3946 173.144 27.3946 171.45 27.453C163.799 40.4203 156.147 52.3361 148.436 63.1422L136.696 59.5207C144.289 49.8829 151.415 39.4857 158.133 28.3291C153.051 28.738 149.429 29.0885 147.268 29.3805L150.13 17.1142C156.497 16.4132 161.579 15.946 165.259 15.6539C167.537 11.3315 169.698 7.12586 171.684 3.03708L184.009 5.13988C182.549 7.8268 180.738 11.1562 178.577 15.0698H179.745C190.785 15.0698 194.815 19.6843 191.894 29.0885L191.836 29.0301ZM202.175 12.1492L194.464 13.7847C194.348 10.3969 193.997 7.06745 193.471 3.85484L201.007 2.16091C201.707 5.13988 202.116 8.46932 202.233 12.2076L202.175 12.1492ZM207.14 39.953L193.88 41.8221C196.1 31.6586 196.801 22.8385 196.042 15.4787L209.243 12.967C209.827 20.7941 209.126 29.7894 207.14 39.953ZM212.28 9.98801L204.394 11.7403C204.336 8.3525 203.927 5.02306 203.226 1.63521L210.878 -0.000305176C211.754 2.86184 212.222 6.19128 212.338 9.9296L212.28 9.98801Z" fill="white"/>
<path d="M222.093 65.1282H210.586L219.114 37.8502C217.771 39.1936 216.018 40.8875 213.857 42.8735L212.338 31.2497C220.516 22.9553 227.992 12.7917 234.885 0.759033L245.516 2.56978C245.107 3.38754 244.406 4.55576 243.588 6.07445H258.6L259.943 1.86885H271.976L270.633 6.07445H287.046L283.6 17.0558H267.186L266.427 19.4506H280.855L274.313 40.245H260.06C258.6 44.1002 256.906 47.3712 254.803 50.1749C258.892 51.46 265.084 52.5698 273.32 53.3875L265.492 64.7193C256.906 63.6679 250.072 61.7988 244.99 59.1702C240.668 61.8572 235.469 63.8431 229.394 65.1282L225.656 54.9646C229.978 54.2053 233.542 53.3291 236.345 52.2193C234.476 49.9413 233.016 47.1959 231.964 44.0417L239.266 40.1866H233.425L239.967 19.3922H254.278L255.037 16.9974H239.266L241.836 8.81978C240.492 11.0394 239.032 13.3759 237.397 15.7707L221.918 65.0698L222.093 65.1282ZM243.238 40.3034C243.939 42.231 244.873 43.8081 246.042 45.1516C247.035 43.6913 247.911 42.1142 248.553 40.3034H243.238ZM251.182 31.6002L252.233 28.1539H248.028L246.976 31.6002H251.182ZM266.485 31.6002L267.537 28.1539H263.214L262.163 31.6002H266.485Z" fill="white"/>
<path d="M341.31 54.0885C337.105 57.0674 333.659 59.2871 331.03 60.6889C326.941 62.8501 323.437 63.9015 320.399 63.9015C316.077 63.9015 312.923 61.5651 310.937 56.8922C309.944 54.4389 309.184 52.9202 308.775 52.3361C308.016 51.0511 307.082 50.467 305.913 50.467C304.395 50.467 301.299 51.8688 296.743 54.6142C292.888 56.9506 288.273 59.9296 282.958 63.4927L278.635 52.6866C287.923 47.0791 300.656 39.4856 316.836 29.9062L292.303 30.5487L295.808 18.516L340.902 17.8151L337.923 28.4459C331.381 32.6515 324.43 37.1492 317.011 41.8805C317.42 41.8805 317.771 41.8221 318.18 41.8221C319.932 41.8221 321.217 43.0487 322.152 45.5604C323.437 48.9483 324.605 50.7006 325.656 50.7006C326.941 50.7006 329.161 49.5908 332.374 47.3128C334.827 45.5604 337.046 43.8665 338.974 42.1142L341.252 54.0885H341.31ZM340.61 5.08144L334.768 16.53C325.364 15.3034 315.142 14.6025 303.986 14.3104L310.002 2.68658C321.392 2.97864 331.614 3.7964 340.551 5.13986L340.61 5.08144Z" fill="white"/>
<path d="M405.504 42.4063C403.577 48.5978 399.488 53.6796 393.413 57.5348C386.871 61.6235 378.985 63.7263 369.756 63.7263C362.63 63.7263 356.731 62.5581 352.116 60.1633C351.883 58.2357 352.175 55.8992 353.051 53.0955C354.219 49.3572 356.439 46.203 359.71 43.6913C363.331 40.8876 367.478 39.4857 372.151 39.4857C380.446 39.4857 384.943 42.8735 385.703 49.6492C389.266 47.8385 391.485 45.502 392.362 42.6399C394.114 36.974 390.376 34.1703 381.147 34.1703C375.481 34.1703 369.348 35.689 362.689 38.6679C359.301 40.1866 355.387 42.3478 351.006 45.0348L349.488 33.9366L382.665 16.7053L362.689 17.1726L366.31 5.25672L408.074 4.6142L404.92 15.5371L388.214 24.2988C389.324 24.1235 390.317 24.0651 391.252 24.0651C397.385 24.2404 401.707 26.0511 404.219 29.439C406.731 32.8268 407.14 37.1492 405.504 42.3478V42.4063ZM373.904 52.9203C373.67 50.1749 372.035 48.7731 368.939 48.7731C366.485 48.7731 364.908 49.8245 364.324 51.8689C365.843 52.6282 368.296 52.9787 371.684 52.9787C372.735 52.9787 373.436 52.9787 373.904 52.9203Z" fill="white"/>
<path d="M461.345 64.0184H448.436L449.838 59.5792H423.086L421.684 64.0184H408.717L427.525 4.0885H480.154L461.345 64.0184ZM453.518 47.8385L456.848 37.2661H430.095L426.766 47.8385H453.518ZM460.352 26.0511L463.565 15.8876H436.813L433.6 26.0511H460.352Z" fill="white"/>
<path d="M533.367 53.7964C532.257 57.4179 530.855 59.6959 529.278 60.6889C527.701 61.6819 524.663 62.2076 520.283 62.2076H513.682L513.507 53.6796H518.413C519.932 53.6796 520.925 52.9786 521.392 51.5768L522.035 49.6492H512.163L507.315 65.1282H494.698L499.547 49.6492H490.727L486.755 62.3829H474.138L481.089 40.245H502.526L503.168 38.1422H487.864L491.603 26.2847H482.549L488.098 8.70295H496.977C496.626 7.59314 496.042 5.95762 495.283 3.79641L507.432 1.98566C508.075 3.79641 508.776 6.07445 509.476 8.70295H512.923L515.142 1.57678H527.759L525.54 8.70295H529.278C531.205 6.71697 533.25 4.43893 535.411 1.81043L547.035 3.15389C545.399 5.08145 543.705 6.8922 542.012 8.70295H550.423L544.874 26.2847H535.878L532.14 38.1422H515.726L515.084 40.245H537.631L533.367 53.8548V53.7964ZM496.392 20.4436H534.593L535.236 18.3408H497.035L496.392 20.4436ZM523.028 30.6656L523.846 28.1539H502.409L501.591 30.6656H523.028Z" fill="white"/>
<path d="M607.023 34.5791C602.467 35.5721 597.736 36.7987 592.888 38.3758C592.479 40.5371 591.544 43.9833 590.142 48.773H578.46C578.81 47.7216 579.395 45.8525 580.212 43.1656C575.89 45.2099 573.437 47.0791 572.911 48.7146C572.21 50.8758 575.306 51.9272 582.14 51.9272C586.579 51.9272 591.836 51.5768 597.794 50.8758L594.874 62.7333C589.675 63.259 584.535 63.4927 579.511 63.4927C563.74 63.4927 557.374 58.8198 560.236 49.5324C562.222 43.2824 568.822 37.4997 580.154 32.3011C579.687 31.9506 579.044 31.717 578.285 31.717C575.598 31.717 572.56 32.7684 569.114 34.8712C566.077 36.6819 563.156 39.0184 560.353 41.8805C556.381 45.9109 553.518 48.9483 551.649 50.9927L544.406 43.224C552.117 35.981 559.126 28.3875 565.434 20.3852L554.979 20.6772L558.483 8.81977C563.448 8.93659 568.53 8.995 573.787 8.93659C575.131 6.8922 576.532 4.61416 577.993 2.2193L590.551 3.56276C589.441 5.31509 588.331 7.06743 587.222 8.70294C593.238 8.52771 600.423 8.17724 608.775 7.65154L605.271 19.2754C596.392 19.6258 587.514 19.8595 578.635 20.0931C577.642 21.2614 576.357 22.78 574.722 24.5908C578.11 23.2473 581.381 22.5464 584.593 22.5464C588.857 22.5464 591.603 24.1819 592.829 27.3945C597.794 25.759 602.701 24.4156 607.607 23.2473L607.082 34.5791H607.023Z" fill="white"/>
<path d="M165.785 133.937L153.285 141.413C151.299 136.682 149.021 132.535 146.334 129.03L155.796 123.364H140.785L144.348 111.974H182.782L185.002 104.906H196.451L197.151 102.57H160.644L158.483 109.521H146.451L151.941 91.9389H175.89L177.876 85.5721H190.726L188.74 91.9389H212.63L207.14 109.521H195.983L195.224 111.974H207.724L204.161 123.364H191.661L186.988 138.376C185.586 142.757 183.892 145.619 181.906 147.021C179.92 148.364 176.474 149.065 171.684 149.065H161.521L161.345 137.733H172.151C173.203 137.733 173.962 137.558 174.43 137.149C174.897 136.799 175.364 136.039 175.656 134.988L179.278 123.423H159.944C162.338 126.694 164.324 130.198 165.901 133.995L165.785 133.937Z" fill="white"/>
<path d="M242.07 121.845C238.857 124.532 235.411 126.81 231.731 128.738C227.759 130.841 224.605 131.892 222.268 131.892C213.974 131.892 211.52 126.577 214.85 115.888C217.595 107.126 221.742 98.0137 227.291 88.6679L240.084 90.3618C233.6 101.46 229.686 109.112 228.343 113.434C227.467 116.238 227.642 117.64 228.81 117.64C230.329 117.64 233.834 115.42 239.207 110.923L242.011 121.845H242.07ZM274.78 88.7847C267.537 110.455 257.607 130.14 245.049 147.897L232.198 144.684C238.974 136.156 244.698 127.453 249.313 118.516C253.752 109.871 257.899 99.6492 261.754 87.8502L274.838 88.8431L274.78 88.7847Z" fill="white"/>
<path d="M280.621 130.257C277.993 135.981 275.189 141.238 272.151 146.028L265.609 141.238C268.997 136.273 272.035 130.782 274.78 124.766L281.789 126.518L282.724 123.598C279.161 123.948 275.831 124.124 272.736 124.24L274.663 114.719C275.598 114.719 277.116 114.719 279.161 114.661C280.679 113.376 282.432 111.857 284.359 110.222C282.549 107.301 280.504 104.497 278.285 101.752L287.455 91.1212L288.974 93.2824C291.719 90.245 294.289 87.2076 296.684 84.1118L304.92 88.0838C300.715 92.6399 296.801 96.6118 293.296 100.116L294.114 101.518C297.677 98.1305 301.182 94.6258 304.57 91.0043L309.885 93.9249L311.521 88.7263H324.079L325.189 85.1632H336.462L335.352 88.7263H348.67L345.633 98.3057H332.315L331.614 100.467H343.179L340.317 109.521H306.264L309.126 100.467H320.341L321.042 98.3057H309.71C306.439 101.343 303.051 104.381 299.663 107.359L304.219 105.607C304.453 107.593 304.57 109.579 304.628 111.448H341.369L336.871 125.817H327.058L323.553 136.974C323.32 137.675 323.436 138.025 323.904 138.025H324.254C324.78 138.025 325.189 137.616 325.481 136.74C325.598 136.39 326.357 134.17 327.642 130.081L335.177 132.418C333.016 139.369 331.147 143.866 329.628 145.794C327.817 148.131 325.014 149.299 321.158 149.299H315.901C313.215 149.299 311.579 148.831 310.878 147.838C310.177 146.845 310.352 144.801 311.345 141.764L316.31 125.876C314.208 131.191 311.988 135.572 309.651 139.018C306.848 143.224 303.285 146.904 299.021 150.058L290.843 143.866C293.296 142.348 295.516 140.654 297.502 138.726L290.493 141.063C290.668 137.733 291.135 133.586 291.953 128.68L285.469 149.416H274.722L280.738 130.257H280.621ZM291.953 113.902C293.004 113.785 294.64 113.668 296.801 113.434C296.801 112.616 296.684 111.448 296.567 109.871C295.75 110.631 294.172 111.974 291.953 113.96V113.902ZM293.822 122.313L292.595 126.168L300.13 124.123L300.598 122.722L296.801 124.065V121.904C296.158 122.021 295.165 122.138 293.822 122.313ZM300.014 125.817C299.429 129.965 299.079 133.703 299.079 137.032C301.591 134.17 303.927 130.432 306.03 125.817H300.014ZM311.229 122.43L316.778 123.89L317.362 122.079H326.591L327.175 120.21H311.871L311.17 122.43H311.229Z" fill="white"/>
<path d="M372.502 90.6539C367.128 101.11 362.922 111.215 359.827 120.911C357.315 128.972 355.387 136.565 354.102 143.808L340.901 145.152C342.186 138.726 344.231 131.074 347.035 122.079C350.714 110.397 355.212 99.3572 360.586 89.0184L372.502 90.6539ZM407.549 112.091C404.336 112.383 401.182 112.617 398.086 112.792C398.028 113.025 397.911 113.434 397.794 114.077C397.619 114.544 397.502 114.953 397.443 115.245C393.004 129.322 385.119 140.479 373.787 148.656L363.507 142.289C369.289 138.434 373.904 134.287 377.35 129.906C380.679 125.642 383.25 120.736 385.002 115.128L385.528 113.376C378.518 113.61 372.21 113.785 366.544 113.843L369.99 101.986C376.123 102.102 382.315 101.986 388.507 101.694C389.383 97.488 390.142 93.1656 390.785 88.6679L403.927 87.5581C403.226 91.6469 402.35 96.0861 401.299 100.876C404.92 100.525 408.249 100.233 411.228 99.8829L407.665 112.091H407.549Z" fill="white"/>
<path d="M466.018 126.518C464.091 132.71 460.002 137.792 453.927 141.647C447.385 145.736 439.441 147.838 430.271 147.838C423.144 147.838 417.245 146.67 412.63 144.275C412.397 142.348 412.689 140.011 413.565 137.208C414.733 133.469 416.953 130.315 420.224 127.803C423.845 125 427.993 123.598 432.665 123.598C440.96 123.598 445.458 126.986 446.217 133.761C449.78 131.951 452 129.614 452.876 126.752C454.628 121.086 450.89 118.282 441.661 118.282C435.995 118.282 429.862 119.743 423.203 122.78C419.815 124.299 415.901 126.46 411.521 129.147L410.002 118.049L443.18 100.817L423.203 101.285L426.824 89.3688L468.588 88.7263L465.434 99.6492L448.729 108.411C449.838 108.236 450.831 108.177 451.766 108.177C457.899 108.352 462.222 110.163 464.733 113.551C467.245 116.939 467.654 121.261 466.018 126.46V126.518ZM434.418 137.032C434.184 134.287 432.549 132.885 429.453 132.885C427 132.885 425.423 133.937 424.838 135.981C426.357 136.74 428.81 137.091 432.198 137.091C433.25 137.091 433.951 137.091 434.418 137.032Z" fill="white"/>
</g>
<defs>
<clipPath id="clip0_168_9935">
<rect width="608.119" height="150" fill="white" transform="translate(0.65625 -0.000305176)"/>
</clipPath>
</defs>
</svg>
