<svg xmlns="http://www.w3.org/2000/svg" viewBox="0 0 273.18 87.58"><defs><style>.cls-1{fill:#fff;}</style></defs><g id="レイヤー_2" data-name="レイヤー 2"><g id="レイヤー_1-2" data-name="レイヤー 1"><path class="cls-1" d="M59.49,9.68q0,4.66-2.91,7.13T48.3,19.27h-2v9.8H40.67V1.76a63.56,63.56,0,0,1,7.26-.41c3.88,0,6.78.69,8.69,2.05A7.21,7.21,0,0,1,59.49,9.68ZM53.75,10A4.33,4.33,0,0,0,52.4,6.5a5.79,5.79,0,0,0-3.9-1.17,17.71,17.71,0,0,0-2.21.12v9.84h1.35c2.16,0,3.72-.42,4.67-1.27A5.16,5.16,0,0,0,53.75,10Z"/><path class="cls-1" d="M81.63,19.27a12.62,12.62,0,0,1-1.17,5.62,8,8,0,0,1-3.32,3.58A10.38,10.38,0,0,1,72,29.68a9.16,9.16,0,0,1-7.11-2.74,10.75,10.75,0,0,1-2.52-7.55,11.44,11.44,0,0,1,1.25-5.47A8.64,8.64,0,0,1,67,10.33,10.31,10.31,0,0,1,72.12,9.1q4.59,0,7,2.69T81.63,19.27Zm-5.62,0q0-5.94-4-5.94A3.48,3.48,0,0,0,69,15a7.85,7.85,0,0,0-1.07,4.39,8.26,8.26,0,0,0,1,4.55,3.38,3.38,0,0,0,3,1.6Q76,25.5,76,19.31Z"/><path class="cls-1" d="M106.27,29.27h-4.35L98.6,20.38l-3.81,8.89H90.85L83.68,10a9.42,9.42,0,0,1,2.91-.53,3.39,3.39,0,0,1,3.49,2.34l3.69,11.07,2.74-6.68-2-6.28a9,9,0,0,1,2.79-.45,2.86,2.86,0,0,1,3,2.26l3.53,10.74,2.67-9.27a6.66,6.66,0,0,1,1.39-2.91,3,3,0,0,1,2.21-.82,8,8,0,0,1,2.83.53Z"/><path class="cls-1" d="M125.87,25.58a6.36,6.36,0,0,0,2.31-.37,5.64,5.64,0,0,0,1.62-.88c.44-.34.82-.66,1.15-1a11,11,0,0,1,1.09,1.7,3.58,3.58,0,0,1,.47,1.46,2.06,2.06,0,0,1-1,1.64,7.6,7.6,0,0,1-2.62,1.17,14.17,14.17,0,0,1-3.53.43q-5,0-7.68-2.75T115,19a11,11,0,0,1,1.21-5.33,8.46,8.46,0,0,1,3.36-3.4,9.84,9.84,0,0,1,4.82-1.19,8.12,8.12,0,0,1,6.21,2.32,8.9,8.9,0,0,1,2.2,6.37,15.85,15.85,0,0,1-.13,2.55h-12a5.79,5.79,0,0,0,1.52,3.89A5.09,5.09,0,0,0,125.87,25.58Zm1.84-8.32q0-4.43-3.48-4.43A3.34,3.34,0,0,0,121.52,14a5,5,0,0,0-1,3.24Z"/><path class="cls-1" d="M142.19,11.6a6,6,0,0,1,2-1.8,5,5,0,0,1,2.53-.7,4.36,4.36,0,0,1,2.27.51,1.63,1.63,0,0,1,.84,1.46,5.13,5.13,0,0,1-.18,1.21,12.29,12.29,0,0,1-.5,1.48,10.28,10.28,0,0,1-.67,1.37,5,5,0,0,0-1.48-.92,4.25,4.25,0,0,0-1.56-.27,3.19,3.19,0,0,0-2.11.74,2.22,2.22,0,0,0-.88,1.76V29.07h-5.57V9.68l.49-.09a11.8,11.8,0,0,1,1.35-.08A4.66,4.66,0,0,1,141,10,2.43,2.43,0,0,1,142.19,11.6Z"/><path class="cls-1" d="M172.81,18.33V14.15h10V26.44a7,7,0,0,1-2.33,1.73A14.92,14.92,0,0,1,177,29.36a19.59,19.59,0,0,1-4.08.41,13.39,13.39,0,0,1-7-1.73,10.91,10.91,0,0,1-4.36-5,18.21,18.21,0,0,1-1.5-7.7,17.2,17.2,0,0,1,1.6-7.71,11.13,11.13,0,0,1,4.57-4.92,14.22,14.22,0,0,1,7.11-1.68,13.48,13.48,0,0,1,4.29.67,10.19,10.19,0,0,1,3.22,1.66,2.7,2.7,0,0,1,1.19,2,2.83,2.83,0,0,1-.56,1.5A8,8,0,0,1,180,8.49a11.07,11.07,0,0,0-3.22-2.16,9,9,0,0,0-3.38-.63,6.8,6.8,0,0,0-5.68,2.48q-2,2.48-2,7.11,0,4.84,2,7.42a6.8,6.8,0,0,0,5.76,2.59,7.54,7.54,0,0,0,3-.54,4.43,4.43,0,0,0,1-.57V18.33Z"/><path class="cls-1" d="M194.13,11.6a6,6,0,0,1,2-1.8,5,5,0,0,1,2.52-.7,4.38,4.38,0,0,1,2.28.51,1.63,1.63,0,0,1,.84,1.46,4.72,4.72,0,0,1-.19,1.21,10.67,10.67,0,0,1-.49,1.48,9.2,9.2,0,0,1-.68,1.37,5.09,5.09,0,0,0-1.47-.92,4.33,4.33,0,0,0-1.56-.27,3.19,3.19,0,0,0-2.11.74,2.22,2.22,0,0,0-.88,1.76V29.07H188.8V9.68l.49-.09a12,12,0,0,1,1.36-.08A4.59,4.59,0,0,1,193,10,2.37,2.37,0,0,1,194.13,11.6Z"/><path class="cls-1" d="M210,3.12a2.85,2.85,0,0,1-.86,2.11,3,3,0,0,1-2.14.84,2.92,2.92,0,0,1-2.15-.84A2.87,2.87,0,0,1,204,3.12,3,3,0,0,1,204.85,1,2.89,2.89,0,0,1,207,.12a2.94,2.94,0,0,1,3,3Zm0,26.19a6.09,6.09,0,0,1-2,.17,3.85,3.85,0,0,1-2.77-.82,3.48,3.48,0,0,1-.84-2.58V9.68a4.32,4.32,0,0,1,.74-.11c.41,0,.79-.06,1.15-.06q3.69,0,3.69,3.24Z"/><path class="cls-1" d="M229.23,29.07a1.42,1.42,0,0,1-1.11-.45,1.77,1.77,0,0,1-.41-1.23A5.83,5.83,0,0,1,225.43,29a8.43,8.43,0,0,1-3.17.59A7.08,7.08,0,0,1,216.43,27c-1.36-1.7-2.05-4.16-2.05-7.38a14.56,14.56,0,0,1,1-5.72,7.9,7.9,0,0,1,2.85-3.59A7.5,7.5,0,0,1,222.5,9.1a7.38,7.38,0,0,1,2.71.49A5.87,5.87,0,0,1,227.3,11V.16a4.6,4.6,0,0,1,.72-.1q.63-.06,1.17-.06,3.69,0,3.69,3.28V29.07Zm-9.11-9.72a8.57,8.57,0,0,0,1,4.82,4.32,4.32,0,0,0,5.33,1,1.57,1.57,0,0,0,.8-1.37V14.55a4.57,4.57,0,0,0-1.35-.88,4.25,4.25,0,0,0-1.64-.35Q220.13,13.32,220.12,19.35Z"/><path class="cls-1" d="M19.64,78.27,17.3,71.54H7.83L5.58,78.27H0L9.51,51.21a8.28,8.28,0,0,1,3.28-.57c2,0,3.31.84,3.86,2.54l8.81,25.09Zm-7-22.51L8.9,67.44h7.34Z"/><path class="cls-1" d="M38.13,74.74a6.28,6.28,0,0,0,2.62-.55,5.06,5.06,0,0,0,1.93-1.42,6,6,0,0,1,.94,1.48,3.84,3.84,0,0,1,.45,1.56,1.94,1.94,0,0,1-.86,1.6A9.51,9.51,0,0,1,37.35,79a10.78,10.78,0,0,1-5.29-1.25,8.14,8.14,0,0,1-3.4-3.57,12.55,12.55,0,0,1-1.15-5.64A11.28,11.28,0,0,1,28.76,63a8.48,8.48,0,0,1,3.55-3.47,10.72,10.72,0,0,1,5-1.21,13.21,13.21,0,0,1,3.08.35,7.39,7.39,0,0,1,2.41,1,3.54,3.54,0,0,1,1.09.94,1.79,1.79,0,0,1,.31,1.06,3.6,3.6,0,0,1-.37,1.42,6.9,6.9,0,0,1-.94,1.54,6.51,6.51,0,0,0-2.12-1.5,6.2,6.2,0,0,0-2.64-.6A4.62,4.62,0,0,0,34.44,64a6.65,6.65,0,0,0-1.27,4.41,7.51,7.51,0,0,0,1.25,4.69A4.39,4.39,0,0,0,38.13,74.74Z"/><path class="cls-1" d="M48.79,75.32a11.44,11.44,0,0,1-.45-3.53v-19l.61-.08a10.75,10.75,0,0,1,1.27-.09c2.46,0,3.69,1.1,3.69,3.28v2.87h5.74v4.19H53.91v8.77c0,1.91.78,2.87,2.34,2.87a3.91,3.91,0,0,0,1.68-.41,5.15,5.15,0,0,0,1.48-1,11,11,0,0,1,1,1.69,2.72,2.72,0,0,1,.27,1.1,2,2,0,0,1-.86,1.48,6.37,6.37,0,0,1-2.2,1.08,10.2,10.2,0,0,1-2.89.39C51.65,78.88,49.66,77.69,48.79,75.32Z"/><path class="cls-1" d="M70.35,52.32a2.81,2.81,0,0,1-.86,2.11,3.15,3.15,0,0,1-4.28,0,2.87,2.87,0,0,1-.84-2.11,3,3,0,0,1,.84-2.14,3,3,0,0,1,5.14,2.14Zm0,26.2a6.49,6.49,0,0,1-2,.16,3.85,3.85,0,0,1-2.77-.82,3.48,3.48,0,0,1-.84-2.58V58.88a4.32,4.32,0,0,1,.74-.11q.61-.06,1.14-.06,3.69,0,3.69,3.24Z"/><path class="cls-1" d="M86.71,78.47H80.77L74,59.25a7.73,7.73,0,0,1,3-.54A4.16,4.16,0,0,1,78.7,59a2.76,2.76,0,0,1,1.19,1.07,10.22,10.22,0,0,1,1,2.46l3,10.57,3.12-10.7a9.35,9.35,0,0,1,.86-2.23,3,3,0,0,1,1.13-1.13,3.45,3.45,0,0,1,1.7-.37,6.87,6.87,0,0,1,2.79.54Z"/><path class="cls-1" d="M102.7,52.32a2.81,2.81,0,0,1-.86,2.11,3.15,3.15,0,0,1-4.28,0,2.87,2.87,0,0,1-.84-2.11,3,3,0,0,1,.84-2.14,3,3,0,0,1,5.14,2.14Zm0,26.2a6.58,6.58,0,0,1-2,.16,3.84,3.84,0,0,1-2.76-.82,3.48,3.48,0,0,1-.84-2.58V58.88a4.12,4.12,0,0,1,.73-.11c.41,0,.8-.06,1.15-.06q3.69,0,3.69,3.24Z"/><path class="cls-1" d="M109,75.32a11.44,11.44,0,0,1-.45-3.53v-19l.61-.08a10.75,10.75,0,0,1,1.27-.09c2.46,0,3.69,1.1,3.69,3.28v2.87h5.74v4.19h-5.74v8.77c0,1.91.78,2.87,2.34,2.87a4,4,0,0,0,1.68-.41,5.29,5.29,0,0,0,1.48-1,11,11,0,0,1,1,1.69,2.72,2.72,0,0,1,.27,1.1,2,2,0,0,1-.86,1.48,6.37,6.37,0,0,1-2.2,1.08,10.25,10.25,0,0,1-2.89.39Q110.33,78.88,109,75.32Z"/><path class="cls-1" d="M136.36,81.63q-1.8,5.94-8,6a6.63,6.63,0,0,1-3.14-.6,1.89,1.89,0,0,1-1.08-1.74,6.4,6.4,0,0,1,1.14-2.83,3.91,3.91,0,0,0,1.23.59,5.23,5.23,0,0,0,1.52.23,3.05,3.05,0,0,0,2.11-.7,5.42,5.42,0,0,0,1.38-2.37l.69-2.06h-2.54l-6.31-18.94a9.34,9.34,0,0,1,3.11-.45,3.24,3.24,0,0,1,3.28,2.5l3.69,12.63,3-11a7.28,7.28,0,0,1,1.58-3.2,3.32,3.32,0,0,1,2.43-.9,6.88,6.88,0,0,1,2.63.54Z"/><path class="cls-1" d="M173.8,58.67a8.86,8.86,0,0,1-1.38,5,7.56,7.56,0,0,1-3.83,3L175.35,78a8,8,0,0,1-3.28.7,4.59,4.59,0,0,1-2.54-.66,6,6,0,0,1-1.88-2.13l-4.68-8h-2.25V78.27h-5.66V51a63.56,63.56,0,0,1,7.26-.41c3.9,0,6.79.67,8.67,2A7,7,0,0,1,173.8,58.67Zm-5.91.53a4.59,4.59,0,0,0-1.23-3.52,5.41,5.41,0,0,0-3.81-1.15c-.49,0-.92,0-1.27,0l-.9.08v9.47h1.92a5.55,5.55,0,0,0,3.92-1.27A4.73,4.73,0,0,0,167.89,59.2Z"/><path class="cls-1" d="M188.51,74.78a6.61,6.61,0,0,0,2.32-.36,6.21,6.21,0,0,0,1.62-.89c.44-.34.82-.66,1.15-1a10.22,10.22,0,0,1,1.08,1.7,3.48,3.48,0,0,1,.48,1.46,2.07,2.07,0,0,1-1,1.64,7.6,7.6,0,0,1-2.62,1.17A14.22,14.22,0,0,1,188,79c-3.33,0-5.9-.92-7.69-2.75s-2.68-4.5-2.68-8a11,11,0,0,1,1.21-5.33,8.34,8.34,0,0,1,3.36-3.4A9.81,9.81,0,0,1,187,58.3a8.12,8.12,0,0,1,6.21,2.32A8.9,8.9,0,0,1,195.4,67a16.3,16.3,0,0,1-.12,2.55H183.23a5.79,5.79,0,0,0,1.51,3.89A5.1,5.1,0,0,0,188.51,74.78Zm1.85-8.32q0-4.42-3.49-4.43a3.32,3.32,0,0,0-2.7,1.19,4.92,4.92,0,0,0-1,3.24Z"/><path class="cls-1" d="M204.83,60.68A6.58,6.58,0,0,1,207.21,59a7.73,7.73,0,0,1,3.2-.66,6.82,6.82,0,0,1,5.66,2.54q2,2.55,2,7.3c0,3.47-.71,6.13-2.15,8a7.13,7.13,0,0,1-6,2.76,7.69,7.69,0,0,1-2.14-.28,6.87,6.87,0,0,1-1.76-.78,3.14,3.14,0,0,1-1-.9V87.21H199.5V58.88l.49-.09a12,12,0,0,1,1.36-.08C203.37,58.71,204.53,59.37,204.83,60.68Zm7.42,7.59c0-3.86-1.36-5.79-4.1-5.79a4,4,0,0,0-2.25.56,1.75,1.75,0,0,0-.82,1.54v8.69a4.15,4.15,0,0,0,1.39.88,4.64,4.64,0,0,0,1.72.35Q212.26,74.5,212.25,68.27Z"/><path class="cls-1" d="M241,68.47a12.62,12.62,0,0,1-1.17,5.62,8,8,0,0,1-3.32,3.58,10.36,10.36,0,0,1-5.18,1.21,9.19,9.19,0,0,1-7.12-2.74,10.75,10.75,0,0,1-2.52-7.55,11.55,11.55,0,0,1,1.25-5.47,8.67,8.67,0,0,1,3.45-3.59,10.24,10.24,0,0,1,5.1-1.23q4.59,0,7.05,2.69T241,68.47Zm-5.61,0q0-5.94-4-5.94a3.47,3.47,0,0,0-3.08,1.6,7.8,7.8,0,0,0-1.06,4.38,8.35,8.35,0,0,0,1,4.55,3.39,3.39,0,0,0,3,1.6C234,74.7,235.38,72.64,235.38,68.51Z"/><path class="cls-1" d="M250.75,60.8a6,6,0,0,1,2-1.8,5,5,0,0,1,2.52-.7,4.38,4.38,0,0,1,2.28.51,1.63,1.63,0,0,1,.84,1.46,4.72,4.72,0,0,1-.19,1.21A10.67,10.67,0,0,1,257.7,63a9.2,9.2,0,0,1-.68,1.37,5.09,5.09,0,0,0-1.47-.92,4.33,4.33,0,0,0-1.56-.27,3.19,3.19,0,0,0-2.11.74,2.22,2.22,0,0,0-.88,1.76V78.27h-5.58V58.88l.49-.09a12,12,0,0,1,1.36-.08,4.49,4.49,0,0,1,2.31.54A2.33,2.33,0,0,1,250.75,60.8Z"/><path class="cls-1" d="M261.29,75.32a11.44,11.44,0,0,1-.45-3.53v-19l.61-.08a10.75,10.75,0,0,1,1.27-.09c2.46,0,3.69,1.1,3.69,3.28v2.87h5.74v4.19h-5.74v8.77c0,1.91.78,2.87,2.34,2.87a3.91,3.91,0,0,0,1.68-.41,5.29,5.29,0,0,0,1.48-1,11,11,0,0,1,1,1.69,2.72,2.72,0,0,1,.27,1.1,2,2,0,0,1-.86,1.48,6.37,6.37,0,0,1-2.2,1.08,10.25,10.25,0,0,1-2.89.39Q262.59,78.88,261.29,75.32Z"/></g></g></svg>