<svg xmlns="http://www.w3.org/2000/svg" viewBox="0 0 395.69 73.17"><g id="レイヤー_2" data-name="レイヤー 2"><g id="レイヤー_1-2" data-name="レイヤー 1"><rect width="395.69" height="73.17" fill="#df0020"/><path d="M51.68,22a30.75,30.75,0,0,0,4.5-.23V26a32.13,32.13,0,0,0-4.46-.2H43.57V31H53.78a31.83,31.83,0,0,0,4.5-.23v4.35a34.79,34.79,0,0,0-4.5-.24H45.4a30.81,30.81,0,0,0,13.93,11.1,22,22,0,0,0-2.49,4,36.41,36.41,0,0,1-7.72-5.4,25.57,25.57,0,0,1-5.66-6.63c.08,2.25.11,2.75.11,3.45v6.13a25.63,25.63,0,0,0,.28,4H39.11a22.75,22.75,0,0,0,.27-4v-6c0-1.24,0-1.67.12-3.5a29.19,29.19,0,0,1-5.24,6.21,38.1,38.1,0,0,1-7.37,5.47A19.7,19.7,0,0,0,24.33,46a32.73,32.73,0,0,0,8.57-5.82,29.4,29.4,0,0,0,4.62-5.32H30a36.1,36.1,0,0,0-4.42.24V30.72A30.1,30.1,0,0,0,30,31h9.43V25.79H32.05a34.61,34.61,0,0,0-4.5.2V21.72A33.59,33.59,0,0,0,32,22h7.37V19.7A14.22,14.22,0,0,0,39.19,17h4.58a12,12,0,0,0-.2,2.68V22Z" fill="#fff" stroke="#fff" stroke-linecap="round" stroke-linejoin="round" stroke-width="0.26"/><path d="M81.91,36.54a37.72,37.72,0,0,0-4.39.23V32.54a25.18,25.18,0,0,0,4.35.24h3.22a30.33,30.33,0,0,0-2.87-6.17L85.71,25a37.12,37.12,0,0,1,3.11,6.44l-2.95,1.32h6V24.71H83.42a33.08,33.08,0,0,0-4.15.19V20.75a34.64,34.64,0,0,0,4.35.23h8.22V19.93a17.29,17.29,0,0,0-.19-2.87h4.5A15.7,15.7,0,0,0,96,20v1h8.84a30.39,30.39,0,0,0,4.43-.23V24.9a30.34,30.34,0,0,0-4.16-.19H96v8.07h2.56a32.85,32.85,0,0,0,3.6-7.49L106,26.57a41.05,41.05,0,0,1-3.22,6.21h3.88a22.13,22.13,0,0,0,4.31-.24v4.23a36.48,36.48,0,0,0-4.5-.23H98.32c3.22,4.35,7.3,7.37,13.39,9.86a18,18,0,0,0-2.52,3.92,35.85,35.85,0,0,1-8.42-5.63A27.39,27.39,0,0,1,95.84,39c.08,1.9.12,2.67.12,3.53v5.28a23,23,0,0,0,.27,3.8H91.57a22.84,22.84,0,0,0,.27-3.8V42.52c0-1.21,0-2,.12-3.5a26.28,26.28,0,0,1-6.17,7,35.83,35.83,0,0,1-6.33,4.23,17.46,17.46,0,0,0-2.52-3.77,32.43,32.43,0,0,0,9.12-6,22.56,22.56,0,0,0,3.42-4Z" fill="#fff" stroke="#fff" stroke-linecap="round" stroke-linejoin="round" stroke-width="0.26"/><path d="M140.23,40.23a1,1,0,0,1,.15.54c0,.27,0,.31-.38,1.16a42.16,42.16,0,0,0-2.18,6.68c-.11.43-.23.66-.39.74a12.41,12.41,0,0,1-1.94.27h-.15c-.19,0-.47,0-.78,0-.5,0-.62-.12-.77-.58a51.1,51.1,0,0,1-1.32-11.64,59.05,59.05,0,0,1,1.36-12.73c.38-2.1.58-3.26.73-4.54a18,18,0,0,1,4.19,1.24c.66.27.86.47.86.85s0,.39-.47,1c-1.28,2.06-2.71,10.29-2.71,15.83,0,.9,0,2.1.15,4,1.09-2.44,1.48-3.18,2.37-5.08A11.93,11.93,0,0,0,140.23,40.23ZM148.65,43c1.24.66,2.72.9,5.31.9a19.72,19.72,0,0,0,6.37-.9,2.12,2.12,0,0,1,.54-.11c.27,0,.47.15.51.54a32.18,32.18,0,0,1,.35,3.65c0,.39-.12.5-.66.66a26.55,26.55,0,0,1-6.83.81c-3.57,0-5.79-.43-7.61-1.51s-3.49-3.18-3.49-4.23c0-.54.81-1.28,2.91-2.56A5.5,5.5,0,0,0,148.65,43Zm-2.72-19.79a33.51,33.51,0,0,0,5.24.35,43.24,43.24,0,0,0,7.53-.62,1.14,1.14,0,0,1,.35,0c.27,0,.39.12.46.43a26.62,26.62,0,0,1,.2,3.14c0,.58-.12.78-.55.86a41.27,41.27,0,0,1-7,.5,31.54,31.54,0,0,1-6.71-.43c-.2-.11-.27-.38-.27-1.08a21.38,21.38,0,0,1,.19-2.91c0-.16.16-.24.39-.24A.4.4,0,0,1,145.93,23.19Z" fill="#fff" stroke="#fff" stroke-linecap="round" stroke-linejoin="round" stroke-width="0.26"/><path d="M189.74,25.72c6.44-1.83,9.78-2.41,13.42-2.41,3.92,0,7,1.05,9.05,3.06a9.79,9.79,0,0,1,2.63,7,12.75,12.75,0,0,1-7.33,11.56,31,31,0,0,1-8.46,2.76,15.32,15.32,0,0,1-2.87.42.91.91,0,0,1-.93-.58A11,11,0,0,0,192.84,44c5.78-.7,8.93-1.47,11.95-3,3.3-1.63,5.13-4.3,5.13-7.56,0-3.65-2.49-6-6.29-6-4.62,0-9.74,1.32-15.64,4a19.31,19.31,0,0,0-2,1c-.69.39-.89.46-1.12.46-.74,0-2.06-2.36-2.95-5.35A57.73,57.73,0,0,0,189.74,25.72Z" fill="#fff" stroke="#fff" stroke-linecap="round" stroke-linejoin="round" stroke-width="0.26"/><path d="M238.94,28.7c-.7,0-1.13.08-1.59.12l-.43,0c-.31,0-.46-.12-.58-.51a21.58,21.58,0,0,1-.5-3.84c.42,0,1.55.08,2.95.08.42,0,3.49-.19,4.84-.31a30.46,30.46,0,0,0,.9-6.87c4,.54,5.43,1,5.43,1.75,0,.27,0,.35-.62,1.24-.31.46-.43.89-1.09,3.3a27,27,0,0,0,4.35-1.05,1.87,1.87,0,0,1,.58-.12c.27,0,.35.2.58,1.32a13.16,13.16,0,0,1,.31,2.21c0,.47-.11.55-1.12.78-1.32.31-3.57.7-6,1a69.31,69.31,0,0,1-4.19,10.32A56.3,56.3,0,0,1,239.6,44c-.31.47-.51.62-.78.62A8,8,0,0,1,236,43c-.62-.42-.78-.62-.78-.89s.16-.5.66-1.2a38.65,38.65,0,0,0,3.88-6.37,42.44,42.44,0,0,0,2.6-6.09C240.84,28.55,240.72,28.59,238.94,28.7Zm12.77,22.35c-4.23,0-7.1-2.32-7.1-5.78s3-6.25,7-6.25a16.12,16.12,0,0,1,2.95.28c-.16-1.87-.16-2.6-.31-6.21,0-.74-.08-1.75-.16-3a17.67,17.67,0,0,1,4.23.74.62.62,0,0,1,.47.62,4.39,4.39,0,0,1-.08.62,9.5,9.5,0,0,0-.23,2.44c0,1.44.11,3.88.23,5.79a23.42,23.42,0,0,1,5.82,3.37c.86.66,1.16,1,1.16,1.32s-.19.74-1.28,2.48c-.46.78-.81,1.13-1.08,1.13s-.23,0-1.32-1a16.18,16.18,0,0,0-3.18-2.33C258.81,48.88,256.17,51.05,251.71,51.05Zm-.08-8.3c-1.86,0-3.14.89-3.14,2.25s1.16,2.1,2.91,2.1c2,0,3.14-1.05,3.14-3.11a1.87,1.87,0,0,0,0-.62A6.63,6.63,0,0,0,251.63,42.75Zm14.51-11c-.47.66-.7.85-1,.85s-.35-.07-.62-.35a23.91,23.91,0,0,0-3.76-2.83A16.65,16.65,0,0,0,258.15,28c-.55-.23-.74-.38-.74-.7s.19-.62.78-1.51c.93-1.36,1.16-1.59,1.51-1.59.74,0,3.61,1.48,5.67,2.87,1.66,1.13,2.17,1.59,2.17,2A9.07,9.07,0,0,1,266.14,31.73Z" fill="#fff" stroke="#fff" stroke-linecap="round" stroke-linejoin="round" stroke-width="0.26"/><path d="M309.6,21.37c0,.31-.16.46-.82.81a5.06,5.06,0,0,0-1,.9c-2.4,2.79-5.86,6.55-8.92,9.66a2.45,2.45,0,0,0-.93,1.63c0,.43.31.89,1,1.55,2.29,2.1,6,5.9,8.77,9,1.94,2.17,2.45,2.87,2.45,3.3s-.66,1.05-2.25,2.29a3.45,3.45,0,0,1-1.44.85c-.35,0-.5-.15-.89-.77a81,81,0,0,0-8.85-10.71A21.18,21.18,0,0,1,294.15,37a4.34,4.34,0,0,1-.93-2.6,4.69,4.69,0,0,1,.7-2.37c.43-.7.43-.7,2.8-3.18a70.45,70.45,0,0,0,6.16-7.49,15.15,15.15,0,0,0,2-3.69C307.93,19.35,309.6,20.63,309.6,21.37ZM310.06,32a18.06,18.06,0,0,0-3-3.84c-.24-.23-.24-.27-.24-.39s.24-.47.9-1,.85-.58,1.08-.58.7.31,1.67,1.32a9.47,9.47,0,0,1,2.21,2.91,4.33,4.33,0,0,1-2.25,1.86C310.3,32.35,310.18,32.27,310.06,32Zm5.32-3a2.58,2.58,0,0,1-1,.55c-.15,0-.27-.08-.39-.31a19.52,19.52,0,0,0-3-3.77.54.54,0,0,1-.2-.31,4.16,4.16,0,0,1,2-1.43c.27,0,.85.46,1.63,1.24a9.78,9.78,0,0,1,2.13,2.87C316.54,28.08,316.23,28.39,315.38,29Z" fill="#fff" stroke="#fff" stroke-linecap="round" stroke-linejoin="round" stroke-width="0.26"/><path d="M340.09,41.62c.7-.62.9-.77,1.17-.77.5,0,2.83,1.71,4.54,3.34,1.94,1.78,4.11,4.38,4.11,4.92,0,.35-.08.43-1.2,1.44-1.48,1.36-1.79,1.59-2.06,1.59s-.46-.15-.66-.54a25.09,25.09,0,0,0-7.21-7.38c-.32-.23-.47-.38-.47-.62S338.39,43.22,340.09,41.62Z" fill="#fff" stroke="#fff" stroke-linecap="round" stroke-linejoin="round" stroke-width="0.26"/></g></g></svg>