<svg xmlns="http://www.w3.org/2000/svg" viewBox="0 0 395.69 73.17"><g id="レイヤー_2" data-name="レイヤー 2"><g id="レイヤー_1-2" data-name="レイヤー 1"><rect width="395.69" height="73.17" fill="#df0020"/><path d="M40.23,31.54c0-.9,0-1.44,0-2.88,0-.35,0-1.39,0-3.18a83.74,83.74,0,0,1-8.58,1.32.89.89,0,0,1-.85-.66A14.66,14.66,0,0,0,29.6,24s-.31-.39-.93-1.13a51.21,51.21,0,0,0,15-2.33A22,22,0,0,0,49,18.11c1.71,1.51,3.1,3.3,3.1,4,0,.35-.23.5-.73.58a9.6,9.6,0,0,0-2.18.5c-2,.66-2.36.78-4.34,1.28,0,1.52,0,1.75,0,3.81V31.5c5.78-.08,10-.2,11.29-.31a1.4,1.4,0,0,1,.39,0c.5,0,.62.39.62,2.05,0,2.49,0,2.56-.62,2.56-.08,0-1.32-.07-1.75-.11-1.63-.12-3.92-.16-10.21-.16a22.54,22.54,0,0,1-3.37,9.86,24.49,24.49,0,0,1-4.5,5,1.08,1.08,0,0,1-.59.23c-.34,0-.34,0-1.62-.78a15.1,15.1,0,0,0-3.19-1.39,16.22,16.22,0,0,0,6.21-6,19.21,19.21,0,0,0,2.33-6.79c-7.22.08-10.17.19-12,.5-.43,0-.58.08-.7.08-.35,0-.5-.11-.58-.39a20.89,20.89,0,0,1-.54-4.46,86.68,86.68,0,0,0,9.15.27h1.09Z" fill="#fff" stroke="#fff" stroke-linecap="round" stroke-linejoin="round" stroke-width="0.26"/><path d="M94.2,29.79C93,38,89.7,44,84.5,47.87a9.28,9.28,0,0,1-3,1.75c-.28,0-.43-.12-.74-.47a12.47,12.47,0,0,0-3.18-2.64A18.81,18.81,0,0,0,87,38.05a23.22,23.22,0,0,0,2.56-8.26c-.82,0-1.4,0-1.83,0a34.39,34.39,0,0,0-6.71.39c-.39,0-.54.07-.62.07a.75.75,0,0,1-.81-.62A37.43,37.43,0,0,1,79,25.33a71.23,71.23,0,0,0,9.55.42h1.35c.08-1.55.12-2.48.12-3.72a19.29,19.29,0,0,0-.19-3.26c4.5.19,5.66.46,5.66,1.16,0,.16,0,.16-.23.7a11.36,11.36,0,0,0-.54,3.42c0,.66-.08,1-.12,1.7h5.78c1.75-.07,1.75-.07,2.06-.11a9.92,9.92,0,0,0,1.28-.51,1.94,1.94,0,0,1,.5-.08c.62,0,1.17.35,2.21,1.4s1.48,1.67,1.48,2.17,0,.43-.51,1.48a8.37,8.37,0,0,0-.31,2C106.74,39,106,44.15,105,46.2A4.77,4.77,0,0,1,102,49a10.26,10.26,0,0,1-3.92.5c-2.56,0-2.91-.11-3.06-1a13,13,0,0,0-1.24-3.72,18.49,18.49,0,0,0,3.88.39c2.25,0,2.91-.31,3.41-1.63.89-2.41,1.59-8.11,1.67-13.74Z" fill="#fff" stroke="#fff" stroke-linecap="round" stroke-linejoin="round" stroke-width="0.26"/><path d="M134,33.24l-.31,0c-.85,0-1.2-1.32-1.47-5.31,1.9.31,4.58.42,11.8.42,7.76,0,9.85,0,10.59-.08a4.5,4.5,0,0,0,1.47-.31,2,2,0,0,1,.74-.15,2.25,2.25,0,0,1,1.67.93,6.76,6.76,0,0,1,1.75,2.76c0,.42-.2.73-.66,1.24-.31.27-.51.62-1.25,2.29-2.6,5.7-5.51,9.19-10.08,12.1-2.1,1.36-5.48,2.91-6.25,2.91-.55,0-.86-.23-1.52-1a6.75,6.75,0,0,0-2.56-2.17,28.1,28.1,0,0,0,11.33-6.29,19.64,19.64,0,0,0,4.93-8.18C139.45,32.62,136.73,32.74,134,33.24Zm12.69-13.77a81.83,81.83,0,0,0,8.5-.31h.47c.5,0,.7.39.73,1.55,0,.46,0,.89,0,1.28v.15c0,1.4-.15,1.79-.66,1.79-.15,0-.46,0-.81,0-.74-.08-3.65-.15-4.85-.15-5.82,0-10,.07-12.26.27h-.31c-1,0-1.17-.58-1.4-4.93A83.84,83.84,0,0,0,146.66,19.47Z" fill="#fff" stroke="#fff" stroke-linecap="round" stroke-linejoin="round" stroke-width="0.26"/><path d="M184.38,30.14h-.24a1.94,1.94,0,0,1-.42,0c-.35,0-.55-.16-.66-.66a20.55,20.55,0,0,1-.47-3.65c.55,0,1,0,1.24,0a53.65,53.65,0,0,0,6.6-.43,41.51,41.51,0,0,0,.58-6.13v-.89c4.5.62,5.36.85,5.32,1.55a1.76,1.76,0,0,1-.23.66c-.47.89-.51,1-1.13,4.07a35.78,35.78,0,0,0,4.23-1,.51.51,0,0,1,.31-.08c.35,0,.43.15.74,1.51a19.11,19.11,0,0,1,.31,2.18c0,.27-.12.42-.47.5-.7.23-.7.23-6,1.16a110.54,110.54,0,0,1-6.64,20.69c-.19.5-.39.69-.62.69a9.85,9.85,0,0,1-3.18-1.28c-.66-.35-.85-.5-.85-.73a2.3,2.3,0,0,1,.31-.82,73.71,73.71,0,0,0,6.56-17.89C188,29.83,186.75,29.94,184.38,30.14ZM201,44.88A9.13,9.13,0,0,0,206,46a22.39,22.39,0,0,0,5.94-.62,2.23,2.23,0,0,1,.54-.12.56.56,0,0,1,.62.47,13.82,13.82,0,0,1,.47,3.61c0,.5-.16.7-.66.81a31.66,31.66,0,0,1-5.74.43c-4.86,0-7.57-.78-9.36-2.64a6.63,6.63,0,0,1-1.51-2.52,5.57,5.57,0,0,1-.39-1.48c0-.66,1.17-1.35,3.18-2A4.28,4.28,0,0,0,201,44.88Zm10.9-11.29a33.68,33.68,0,0,0-3.76-.19,35,35,0,0,0-7.49.7.86.86,0,0,1-.27,0,.38.38,0,0,1-.43-.31,17.46,17.46,0,0,1-.27-3c0-.51.07-.74.39-.86a7.09,7.09,0,0,1,1.2-.27,41.46,41.46,0,0,1,7.57-.66c2.25,0,3.41.08,3.68.27s.23.47.23,1.75a12.77,12.77,0,0,1-.15,2.37.4.4,0,0,1-.39.19A.94.94,0,0,1,211.85,33.59Zm-4.27-13.66c.51,0,3.8,3.69,3.8,4.27a1.45,1.45,0,0,1-.58.74c-.15.11-.39.31-.66.54a2.34,2.34,0,0,1-.85.55.5.5,0,0,0-.19.07c-.16,0-.16,0-.9-1.16a20.11,20.11,0,0,0-2.56-3.14.86.86,0,0,1-.19-.28,2.18,2.18,0,0,0,.11-.23,10.57,10.57,0,0,1,1-.89,4.19,4.19,0,0,0,.66-.39c0-.08.08-.08.12-.08h.23Zm6.56,2.72a2.9,2.9,0,0,1-1.13.62c-.15,0-.23-.08-.42-.39a18.76,18.76,0,0,0-3-3.68.41.41,0,0,1-.16-.31c0-.35,1.48-1.44,2-1.44.27,0,.74.39,1.59,1.28a8.5,8.5,0,0,1,2.14,2.83C215.19,21.8,214.92,22.07,214.14,22.65Z" fill="#fff" stroke="#fff" stroke-linecap="round" stroke-linejoin="round" stroke-width="0.26"/><path d="M246.46,45.5A6.56,6.56,0,1,1,239.9,39,6.59,6.59,0,0,1,246.46,45.5Zm-10.09,0A3.53,3.53,0,1,0,239.9,42,3.55,3.55,0,0,0,236.37,45.5Z" fill="#fff" stroke="#fff" stroke-linecap="round" stroke-linejoin="round" stroke-width="0.26"/></g></g></svg>