<?xml version="1.0" encoding="UTF-8"?><svg id="_レイヤー_2" xmlns="http://www.w3.org/2000/svg" viewBox="0 0 127.02 68.19"><defs><style>.cls-1{fill:#bf1920;}.cls-2{fill:#231815;}</style></defs><g id="_レイアウト"><g><path class="cls-2" d="M3.38,9.64c0,.7,0,1.38-.12,2.82,.14,.26,.36,.72,.86,1.32v-5.26H.3v-2.3h3.82v-1.82H.86V2.14h3.26V.18h2.28v1.96h2.36v2.26h-2.36v1.82h2.74v2.3h-2.74v1.9h2.36v2.28h-2.36v2.8c1.36,.62,2.74,.62,3.42,.62h9.4l-.36,2.34H9.8c-2.46,0-4.96-.28-6.94-3.26-.44,1.94-.72,2.66-1.26,3.76l-1.6-2.12c1.14-2.34,1.18-5.82,1.18-7.24l2.2,.04ZM18.64,.92c-.06,3.18-.08,5.02-.42,5.88-.14,.38-.5,1.1-1.92,1.1h-2.08l-.34-2.14h1.5c.88,0,1-.32,.98-2.76h-2.12c-.52,2.56-1.52,3.94-3.62,5.38l-1.44-1.98c1.22-.66,2.34-1.44,2.88-3.4h-2.7V.92h9.28Zm-.4,7.7v6.62H9.82v-6.62h8.42Zm-6.14,1.96v2.64h3.84v-2.64h-3.84Z"/><path class="cls-2" d="M40.64,3.34H21.84V1.26h8.1V.06h2.58V1.26h8.12V3.34Zm-13.96,13.9v-4.92h9.22v4.34h1.08c.28,0,.44-.1,.44-.48v-4.78h-12.3v7.56h-2.52V9.52h17.32v7.66c0,1.12-.62,1.78-1.48,1.78h-3.16l-.32-1.72h-8.28Zm11.42-8.6h-13.74V4.08h13.74v4.56Zm-2.48-2.94h-8.82v1.26h8.82v-1.26Zm-2.06,8.32h-4.56v1.46h4.56v-1.46Z"/><path class="cls-2" d="M44.76,.86h17.32V3.24h-14.82v6.06c0,3.28-.54,6.9-2.14,9.66l-1.96-2.12c.98-1.92,1.6-4.18,1.6-7.7V.86Zm16.66,6.98v2.36h-5.82v5.88h6.48v2.38h-14.98v-2.38h5.96v-5.88h-5.16v-2.36h5.16V3.84h2.54V7.84h5.82Z"/><path class="cls-2" d="M69.88,5.02c-1.4,2.48-2.7,3.68-3.4,4.32l-1.62-1.6c1.24-1.12,1.9-1.92,2.86-3.6l2.16,.88ZM75.76,.1V1.54h8.18V3.8h-5.76V7.94c0,.9-.74,1.46-1.6,1.46h-2.22l-.38-2.44h1.32c.5,0,.5-.14,.5-.62V3.8h-2.18c-.44,3.24-1.78,5.04-4.18,6.6l-1.56-1.74c3.04-1.78,3.3-3.8,3.44-4.86h-6.38V1.54h8.24V.1h2.58Zm-1.4,9.34c-.28,.44-.36,.54-.66,.88h7.24v2.1c-.66,.78-1.62,1.92-3.66,3.16,2.56,.64,4.94,.78,6.68,.88l-.98,2.5c-1.82-.12-5.2-.4-8.76-1.94-3.9,1.42-6.84,1.74-8.26,1.88l-.74-2.26c1.24-.12,3.54-.32,6.46-1.1-1.1-.8-1.62-1.4-2.12-1.98-1.3,.74-2.3,1.12-3.12,1.44l-1.26-2.08c4.26-1.44,5.86-3.1,6.9-4.36l2.28,.88Zm-3,2.98c1.48,1.36,2.64,1.92,3.1,2.16,1.62-.76,2.52-1.54,3.28-2.2h-6.32l-.06,.04Zm11.08-2.86c-1.14-.9-1.96-1.72-3.72-4.34l1.9-1.24c1,1.64,2.56,3.12,3.42,3.84l-1.6,1.74Z"/><path class="cls-2" d="M104.08,2.54h-7v.74h7.98V7.62h-2.5v-2.76h-5.48v3.64h-2.24v-3.64h-5.42v2.76h-2.4V3.28h7.82v-.74h-6.84V.7h16.08v1.84Zm1.56,12.92c-.18,2.28-.56,3.34-2.14,3.34h-6.74c-1.11,0-2.02-.18-2.02-1.44v-1.54h-6.8v-6.86h16.1v6.06l1.6,.44Zm-11.56-9.88v1h-3.8v-1h3.8Zm0,1.7v1.04h-3.8v-1.04h3.8Zm.66,5.76h-4.42v1.12h4.42v-1.12Zm0-2.48h-4.34v1.08h4.34v-1.08Zm6.86,0h-4.48v1.08h4.48v-1.08Zm0,2.48h-4.48v1.12h4.48v-1.12Zm.8,3.84c.54,0,.76-.04,.88-1.06h-6.16v.56c0,.4,.08,.5,.46,.5h4.82Zm-.6-11.3v1h-3.9v-1h3.9Zm0,1.7v1.04h-3.9v-1.04h3.9Z"/><path class="cls-2" d="M109.26,4.56h7.56v7.86h-5.22c-.04,1-.18,4.1-1.66,6.56l-1.96-1.92c1.06-1.8,1.28-3.7,1.28-5.82V4.56Zm8.12-1.5h-9.08V.76h9.08V3.06Zm-5.74,3.74v3.3h2.84v-3.3h-2.84Zm15.34-4.48c-2.26,.82-3.84,1.12-6.48,1.32v2.48h6.52v2.44h-1.9v10.42h-2.44V8.56h-2.18c.02,3.96-.5,7.42-2.86,10.38l-2.16-1.7c2-2.36,2.6-4.62,2.6-7.56V1.44c.8-.02,4.44-.1,7.6-1.44l1.3,2.32Z"/><path class="cls-1" d="M8.91,49.51c-.2,0-.3-.1-.3-.3V28.54c0-.21,.1-.32,.3-.32H29.27c.21,0,.32,.11,.32,.32v5.48c0,.21-.11,.32-.32,.32H14.39v7.71c1.74-1.22,3.67-1.83,5.8-1.83,.75,0,1.47,.08,2.16,.23,.69,.15,1.34,.37,1.95,.66,.59,.29,1.14,.6,1.65,.95,.51,.35,.94,.71,1.3,1.09,.52,.57,.98,1.19,1.37,1.84,.39,.65,.72,1.32,.97,2,.52,1.4,.78,3.68,.78,6.85,0,1.29-.05,2.42-.15,3.38-.1,.97-.26,1.78-.47,2.44l.03-.03c-.38,1.24-.99,2.42-1.85,3.54-.84,1.04-1.97,2-3.38,2.87-1.49,.9-3.21,1.34-5.16,1.34-2.52,0-4.96-.78-7.3-2.34-2.4-1.61-3.8-4.23-4.19-7.87-.02-.09,0-.17,.08-.24s.15-.11,.24-.11h5.48c.18,0,.29,.08,.32,.24,.63,2.81,2.35,4.22,5.16,4.22,2.54,0,4-.84,4.38-2.52,.47-1.86,.7-3.65,.7-5.37,0-1.02-.09-1.96-.27-2.83-.18-.87-.44-1.64-.78-2.32-.64-1.27-2.04-1.91-4.19-1.91-1.97,0-3.52,1-4.65,3.01-.07,.11-.16,.16-.27,.16h-5.18Z"/><path class="cls-1" d="M34.35,39.2c0-3.62,1.14-6.4,3.41-8.35,2.26-1.99,4.84-2.98,7.76-2.98,1.45,0,2.82,.26,4.12,.77,1.3,.51,2.51,1.25,3.64,2.22,1.13,1,1.98,2.2,2.56,3.58,.58,1.39,.87,2.98,.87,4.77v16.89c0,3.6-1.15,6.38-3.44,8.35-2.26,1.97-4.84,2.95-7.76,2.95s-5.51-.98-7.76-2.95c-2.27-1.95-3.41-4.74-3.41-8.35v-16.89Zm16.25,.32c0-1.74-.46-3.09-1.38-4.07-.92-.98-2.15-1.46-3.69-1.46s-2.77,.49-3.68,1.46c-.91,.98-1.37,2.33-1.37,4.07v16.25c0,1.75,.46,3.12,1.37,4.08s2.14,1.45,3.68,1.45,2.77-.48,3.69-1.45c.92-.97,1.38-2.33,1.38-4.08v-16.25Z"/><path class="cls-2" d="M60.52,64.89c2.67-4.71,4.44-11.48,5.07-14.93l-4.32,.03v-3.83h4.95c.27-1.92,.39-3.06,.54-5.22l4.2,.21c-.21,1.62-.3,2.37-.72,5.01h2.7c4.44,0,6.54,2.05,6.54,8.44,0,2.19-.3,6.35-1.44,8.93-1.02,2.28-2.91,3.09-5.55,3.09-1.62,0-2.85-.15-3.3-.21l-.24-4.02c.54,.12,1.77,.36,3,.36,1.98,0,2.4-.9,2.85-2.52,.42-1.56,.78-3.96,.78-6.08,0-3.42-.78-4.29-3.75-4.26l-2.28,.03c-.84,4.67-2.64,11.87-5.16,16.76l-3.87-1.8Zm22.68-7.28c-.15-4.34-1.2-8.7-3.81-12.19l3.39-1.68c3.06,3.67,4.26,8.41,4.59,13.15l-4.17,.72Z"/><path class="cls-2" d="M93.67,46.56h11.34v11.79h-7.83c-.06,1.5-.27,6.15-2.49,9.84l-2.94-2.88c1.59-2.7,1.92-5.55,1.92-8.73v-10.02Zm12.18-2.25h-13.62v-3.45h13.62v3.45Zm-8.61,5.61v4.95h4.26v-4.95h-4.26Zm23.01-6.72c-3.39,1.23-5.76,1.68-9.72,1.98v3.72h9.78v3.66h-2.85v15.63h-3.66v-15.63h-3.27c.03,5.94-.75,11.13-4.29,15.57l-3.24-2.55c3-3.54,3.9-6.93,3.9-11.34v-12.36c1.2-.03,6.66-.15,11.4-2.16l1.95,3.48Z"/></g></g></svg>