<?xml version="1.0" encoding="UTF-8"?><svg id="_レイヤー_2" xmlns="http://www.w3.org/2000/svg" viewBox="0 0 114.46 68.23"><defs><style>.cls-1{fill:#bf1920;}.cls-2{fill:#231815;}</style></defs><g id="_レイアウト"><g><path class="cls-2" d="M5,8.06H23.44v2.64H5v-2.64Z"/><path class="cls-2" d="M31.34,11.2c-.28,1.02-1.64,5.26-3.32,7.22l-1.86-2.12c1.34-1.68,2.46-4.26,3.1-6.4l2.08,1.3Zm-1.32-5.6c-1.48-1.62-2.56-2.36-3.6-2.98l1.64-1.82c1.24,.64,2.86,1.84,3.74,2.9l-1.78,1.9Zm6.62,.8h2.64v1.98c0,1.02,.44,2.92,1.64,4.74,1.48,2.22,3.76,3.18,4.6,3.54l-1.46,2.4c-2-.9-4.52-2.84-5.84-6.12-1.3,3.62-4.42,5.3-7.02,6.16l-1.48-2.5c6.48-1.32,6.92-5.68,6.92-7.9v-2.3Zm.66-6.02c-.16,.6-.4,1.5-.82,2.64h8.58v2.36c-.46,1.8-1.38,3.78-2.4,5.3l-2.24-1.26c1.08-1.54,1.62-2.68,2.02-4.1h-6.96c-.7,1.44-1.68,3.04-3.06,4.2l-2.02-1.78c1.7-1.52,3.14-3.34,4.34-7.74l2.56,.38Z"/><path class="cls-2" d="M52.86,5.06c-1.4,2.48-2.7,3.68-3.4,4.32l-1.62-1.6c1.24-1.12,1.9-1.92,2.86-3.6l2.16,.88ZM58.74,.14V1.58h8.18V3.84h-5.76V7.98c0,.9-.74,1.46-1.6,1.46h-2.22l-.38-2.44h1.32c.5,0,.5-.14,.5-.62V3.84h-2.18c-.44,3.24-1.78,5.04-4.18,6.6l-1.56-1.74c3.04-1.78,3.3-3.8,3.44-4.86h-6.38V1.58h8.24V.14h2.58Zm-1.4,9.34c-.28,.44-.36,.54-.66,.88h7.24v2.1c-.66,.78-1.62,1.92-3.66,3.16,2.56,.64,4.94,.78,6.68,.88l-.98,2.5c-1.82-.12-5.2-.4-8.76-1.94-3.9,1.42-6.84,1.74-8.26,1.88l-.74-2.26c1.24-.12,3.54-.32,6.46-1.1-1.1-.8-1.62-1.4-2.12-1.98-1.3,.74-2.3,1.12-3.12,1.44l-1.26-2.08c4.26-1.44,5.86-3.1,6.9-4.36l2.28,.88Zm-3,2.98c1.48,1.36,2.64,1.92,3.1,2.16,1.62-.76,2.52-1.54,3.28-2.2h-6.32l-.06,.04Zm11.08-2.86c-1.14-.9-1.96-1.72-3.72-4.34l1.9-1.24c1,1.64,2.56,3.12,3.42,3.84l-1.6,1.74Z"/><path class="cls-2" d="M87.06,2.58h-7v.74h7.98V7.66h-2.5v-2.76h-5.48v3.64h-2.24v-3.64h-5.42v2.76h-2.4V3.32h7.82v-.74h-6.84V.74h16.08v1.84Zm1.56,12.92c-.18,2.28-.56,3.34-2.14,3.34h-6.74c-1.11,0-2.02-.18-2.02-1.44v-1.54h-6.8v-6.86h16.1v6.06l1.6,.44Zm-11.56-9.88v1h-3.8v-1h3.8Zm0,1.7v1.04h-3.8v-1.04h3.8Zm.66,5.76h-4.42v1.12h4.42v-1.12Zm0-2.48h-4.34v1.08h4.34v-1.08Zm6.86,0h-4.48v1.08h4.48v-1.08Zm0,2.48h-4.48v1.12h4.48v-1.12Zm.8,3.84c.54,0,.76-.04,.88-1.06h-6.16v.56c0,.4,.08,.5,.46,.5h4.82Zm-.6-11.3v1h-3.9v-1h3.9Zm0,1.7v1.04h-3.9v-1.04h3.9Z"/><path class="cls-2" d="M92.24,4.6h7.56v7.86h-5.22c-.04,1-.18,4.1-1.66,6.56l-1.96-1.92c1.06-1.8,1.28-3.7,1.28-5.82V4.6Zm8.12-1.5h-9.08V.8h9.08V3.1Zm-5.74,3.74v3.3h2.84v-3.3h-2.84Zm15.34-4.48c-2.26,.82-3.84,1.12-6.48,1.32v2.48h6.52v2.44h-1.9v10.42h-2.44V8.6h-2.18c.02,3.96-.5,7.42-2.86,10.38l-2.16-1.7c2-2.36,2.6-4.62,2.6-7.56V1.48c.8-.02,4.44-.1,7.6-1.44l1.3,2.32Z"/><path class="cls-1" d="M9.08,49.82c-.21,0-.32-.11-.32-.32v-4.81c0-.21,.11-.32,.32-.32h1.88c1.74,0,3.11-.48,4.11-1.45,.98-.93,1.48-2.16,1.48-3.68,0-1.43-.51-2.66-1.53-3.68s-2.27-1.53-3.73-1.53c-1.07,0-2.1,.37-3.09,1.1-.98,.72-1.61,1.8-1.88,3.25-.02,.07-.06,.13-.12,.19-.06,.05-.12,.08-.17,.08H.52c-.09,0-.17-.04-.23-.11-.06-.07-.08-.15-.07-.24,.18-2.74,1.34-5.17,3.49-7.28,2.11-2.08,4.57-3.12,7.36-3.12,1.74,0,3.31,.3,4.71,.89,1.41,.59,2.65,1.46,3.72,2.6,1.02,1.13,1.8,2.35,2.35,3.67,.55,1.32,.82,2.67,.82,4.07,0,1.52-.3,3.01-.89,4.46-.29,.64-.68,1.25-1.18,1.83-.5,.57-1.09,1.11-1.77,1.61,1.43,1.02,2.5,2.25,3.2,3.68,.72,1.54,1.07,3.11,1.07,4.7,0,3.63-1.15,6.56-3.46,8.78-2.27,2.17-5.09,3.25-8.46,3.25-1.34,0-2.61-.21-3.8-.64-1.19-.43-2.33-1.07-3.42-1.93-1.07-.88-1.94-1.93-2.59-3.17-.65-1.24-1.11-2.69-1.36-4.35-.04-.23,.07-.35,.32-.35H5.81c.12,0,.22,.07,.3,.21,.23,.63,.51,1.19,.82,1.69,.31,.5,.68,.94,1.11,1.3,.43,.37,.93,.65,1.49,.85,.56,.2,1.22,.3,1.97,.3,1.41,0,2.69-.51,3.81-1.53,1.11-.98,1.67-2.39,1.67-4.22s-.56-3.23-1.67-4.22c-1.13-1.04-2.44-1.56-3.92-1.56h-2.31Z"/><path class="cls-1" d="M28.34,39.24c.02-1.77,.32-3.36,.91-4.77,.59-1.41,1.42-2.61,2.5-3.61,1.02-.93,2.17-1.65,3.44-2.16,1.27-.51,2.6-.77,4-.77,2.95,0,5.49,.98,7.6,2.93,2.13,1.97,3.22,4.77,3.28,8.41v16.92c-.04,1.74-.34,3.32-.91,4.75-.57,1.43-1.36,2.64-2.36,3.63-1.02,.91-2.17,1.63-3.45,2.15-1.28,.52-2.66,.8-4.15,.83-2.56-.07-4.82-.86-6.77-2.36v.03c-1.02-.79-1.85-1.73-2.48-2.83-.64-1.1-1.1-2.37-1.38-3.8-.04-.09-.02-.17,.04-.24,.06-.07,.15-.11,.25-.11h5.48c.12,0,.22,.07,.3,.21,.81,2.01,2.33,3.01,4.57,3.01,3.17-.02,4.82-1.87,4.94-5.56v-3.2c-1.18,.36-2.35,.64-3.52,.83-1.16,.2-2.26,.28-3.28,.24-2.47,.05-4.61-.84-6.42-2.69h.03c-1.77-1.77-2.64-4.54-2.6-8.3v-3.54Zm5.96,3.49c0,3.65,1.63,5.51,4.89,5.56,3.19-.05,4.83-1.91,4.94-5.56v-3.14c-.14-3.63-1.79-5.49-4.94-5.56-3.24,.09-4.87,1.94-4.89,5.56v3.14Z"/><path class="cls-2" d="M54.67,64.93c2.67-4.71,4.44-11.48,5.07-14.93l-4.32,.03v-3.83h4.95c.27-1.92,.39-3.06,.54-5.22l4.2,.21c-.21,1.62-.3,2.37-.72,5.01h2.7c4.44,0,6.54,2.05,6.54,8.44,0,2.19-.3,6.35-1.44,8.93-1.02,2.28-2.91,3.09-5.55,3.09-1.62,0-2.85-.15-3.3-.21l-.24-4.02c.54,.12,1.77,.36,3,.36,1.98,0,2.4-.9,2.85-2.52,.42-1.56,.78-3.96,.78-6.08,0-3.42-.78-4.29-3.75-4.26l-2.28,.03c-.84,4.67-2.64,11.87-5.16,16.76l-3.87-1.8Zm22.68-7.28c-.15-4.34-1.2-8.7-3.81-12.19l3.39-1.68c3.06,3.67,4.26,8.41,4.59,13.15l-4.17,.72Z"/><path class="cls-2" d="M87.82,46.6h11.34v11.79h-7.83c-.06,1.5-.27,6.15-2.49,9.84l-2.94-2.88c1.59-2.7,1.92-5.55,1.92-8.73v-10.02Zm12.18-2.25h-13.62v-3.45h13.62v3.45Zm-8.61,5.61v4.95h4.26v-4.95h-4.26Zm23.01-6.72c-3.39,1.23-5.76,1.68-9.72,1.98v3.72h9.78v3.66h-2.85v15.63h-3.66v-15.63h-3.27c.03,5.94-.75,11.13-4.29,15.57l-3.24-2.55c3-3.54,3.9-6.93,3.9-11.34v-12.36c1.2-.03,6.66-.15,11.4-2.16l1.95,3.48Z"/></g></g></svg>