<?xml version="1.0" encoding="UTF-8"?><svg id="_レイヤー_2" xmlns="http://www.w3.org/2000/svg" viewBox="0 0 500 182.54"><defs><style>.cls-1{fill:#fff;}.cls-2{fill:#595757;}.cls-3{fill:#231815;}</style></defs><g id="_レイアウト"><g><polygon class="cls-2" points="485 0 0 0 0 50 485 50 500 25 485 0"/><g><path class="cls-1" d="M39.48,22.11h-1.8v8.64c1.05-.33,1.53-.48,2.28-.78l.18,3.42c-2.49,1.14-6.57,2.37-9.03,2.97l-.6-3.9c.93-.15,1.92-.3,3.57-.72v-9.63h-3.21v-3.54h3.21v-7.08h3.6v7.08h2.46v2.49l1.38-.36v-6.87h3.54v5.94l3.03-.81v-7.47h3.57v6.54l6.72-1.77c.09,2.82-.06,9.27-.51,12.27-.15,1.02-.54,2.91-2.91,2.91h-2.28l-.6-3.66h1.44c.63,0,.87-.12,1.05-.75,.3-1.2,.33-4.68,.33-6.15l-3.24,.87v10.77h-3.57v-9.81l-3.03,.78v11.4c0,.57,.18,.72,.84,.72h8.46c.93,0,1.29,0,1.5-3.69l3.42,.84c-.18,4.35-1.08,6.51-3.6,6.51h-11.28c-2.31,0-2.88-1.29-2.88-2.7v-12.12l-1.65,.42-.39-2.76Z"/><path class="cls-1" d="M76.05,16.41v-4.92h3.81v4.92h11.16v15.18h-11.16v8.19h-3.81v-8.19h-10.98v-15.18h10.98Zm0,3.69h-7.2v7.83h7.2v-7.83Zm11.16,0h-7.35v7.83h7.35v-7.83Z"/><path class="cls-1" d="M100.23,29.28c-.06,2.19-.24,5.58-1.05,8.76l-2.79-1.44c.54-1.8,.87-3.39,1.05-7.68l2.79,.36Zm-3.6-4.89c.21,0,1.5-.03,1.83-.03,.39-.54,1.11-1.47,1.62-2.22-.3-.36-1.65-1.98-3.6-3.57l1.62-3.15c.48,.45,.54,.48,.66,.6,.27-.45,1.47-2.52,2.22-4.53l3.27,.96c-1.29,2.73-2.85,5.07-3.27,5.7,.48,.51,.72,.78,.99,1.11,1.68-2.58,2.28-3.66,2.82-4.65l3,1.23c-2.25,3.99-5.67,8.1-5.88,8.34,1.47-.06,1.8-.09,2.97-.15-.18-.66-.3-1.05-.57-1.86l2.43-.84c.66,1.59,1.47,4.26,1.68,5.64h5.79c-.48,4.08-1.86,8.88-5.94,12.03l-2.28-2.49c1.86-1.38,3.63-3.06,4.59-6.3h-2.43v-3l-2.49,.84c-.06-.45-.09-.69-.18-1.17-.18,.03-1.11,.12-1.32,.15v12.75h-3.15v-12.42c-2.22,.21-3.06,.24-4.17,.27l-.21-3.24Zm10.83,4.56c.09,.54,.51,3,.57,5.76l-2.64,.54c-.03-1.92-.27-4.32-.51-5.94l2.58-.36Zm17.88-.96c-.69,.81-1.83,2.1-3.72,3.45,1.74,2.13,2.97,2.94,4.05,3.66l-1.95,3.51c-3.57-3-4.71-5.61-5.61-7.77v5.91c0,2.31-.33,3.03-3.06,3.03h-3.03l-.6-3.51h2.28c.99,0,1.02-.27,1.02-1.11v-9.81h-6V13.93h5.25c.27-.72,.48-1.38,.75-2.4l3.9,.09c-.36,1.29-.6,1.89-.78,2.31h6.27v11.43h-6c.45,1.08,.87,2.16,1.71,3.54,1.59-1.35,2.34-2.34,2.91-3.15l2.61,2.25Zm-13.14-11.4v1.86h8.37v-1.86h-8.37Zm0,4.14v2.04h8.37v-2.04h-8.37Z"/><path class="cls-1" d="M136.4,38.93c-2.18-2.7-3.52-6-3.52-9.48s1.34-6.78,3.52-9.48h2.22c-2.16,2.68-3.4,6.02-3.4,9.48s1.24,6.78,3.4,9.48h-2.22Z"/><path class="cls-1" d="M151.28,20.61v2.22h-3.14v1.66h2.78v13.96h-8.94v-13.96h2.78v-1.66h-3.22v-2.22h9.74Zm-4.34,5.82h-.9v1.84c0,2.1-.64,2.88-1.06,3.42l-1-1.4v2.34h5v-1.2h-1.08c-.9,0-.96-.54-.96-1.04v-3.96Zm-2.1,0h-.86v3.78c.66-.54,.86-1.42,.86-2.22v-1.56Zm4.14,8.18h-5v1.7h5v-1.7Zm-2.04-11.78h-.9v1.66h.9v-1.66Zm2.04,3.6h-.96v2.64c0,.4,.04,.46,.38,.46h.58v-3.1Zm11,3.2h-5.6v5.92c0,.32,.06,.5,.54,.5h2.52c.6,0,.78,0,.78-2.88l2.4,.6c-.02,.82-.12,2.8-.42,3.53-.3,.73-.96,1.11-1.72,1.11h-4.82c-.48,0-1.66,0-1.66-1.45v-9.65h5.58v-4.32h-5.68v-2.38h8.08v9.02Z"/><path class="cls-1" d="M181.04,22.43h-7v.74h7.98v4.34h-2.5v-2.76h-5.48v3.64h-2.24v-3.64h-5.42v2.76h-2.4v-4.34h7.82v-.74h-6.84v-1.84h16.08v1.84Zm1.56,12.92c-.18,2.28-.56,3.34-2.14,3.34h-6.74c-1.11,0-2.02-.18-2.02-1.44v-1.54h-6.8v-6.86h16.1v6.06l1.6,.44Zm-11.56-9.88v1h-3.8v-1h3.8Zm0,1.7v1.04h-3.8v-1.04h3.8Zm.66,5.76h-4.42v1.12h4.42v-1.12Zm0-2.48h-4.34v1.08h4.34v-1.08Zm6.86,0h-4.48v1.08h4.48v-1.08Zm0,2.48h-4.48v1.12h4.48v-1.12Zm.8,3.84c.54,0,.76-.04,.88-1.06h-6.16v.56c0,.4,.08,.5,.46,.5h4.82Zm-.6-11.3v1h-3.9v-1h3.9Zm0,1.7v1.04h-3.9v-1.04h3.9Z"/><path class="cls-1" d="M187.82,31.87c-.04,1.46-.16,3.72-.7,5.84l-1.86-.96c.36-1.2,.58-2.26,.7-5.12l1.86,.24Zm-2.4-3.26c.14,0,1-.02,1.22-.02,.26-.36,.74-.98,1.08-1.48-.2-.24-1.1-1.32-2.4-2.38l1.08-2.1c.32,.3,.36,.32,.44,.4,.18-.3,.98-1.68,1.48-3.02l2.18,.64c-.86,1.82-1.9,3.38-2.18,3.8,.32,.34,.48,.52,.66,.74,1.12-1.72,1.52-2.44,1.88-3.1l2,.82c-1.5,2.66-3.78,5.4-3.92,5.56,.98-.04,1.2-.06,1.98-.1-.12-.44-.2-.7-.38-1.24l1.62-.56c.44,1.06,.98,2.84,1.12,3.76h3.86c-.32,2.72-1.24,5.92-3.96,8.02l-1.52-1.66c1.24-.92,2.42-2.04,3.06-4.2h-1.62v-2l-1.66,.56c-.04-.3-.06-.46-.12-.78-.12,.02-.74,.08-.88,.1v8.5h-2.1v-8.28c-1.48,.14-2.04,.16-2.78,.18l-.14-2.16Zm7.22,3.04c.06,.36,.34,2,.38,3.84l-1.76,.36c-.02-1.28-.18-2.88-.34-3.96l1.72-.24Zm11.92-.64c-.46,.54-1.22,1.4-2.48,2.3,1.16,1.42,1.98,1.96,2.7,2.44l-1.3,2.34c-2.38-2-3.14-3.74-3.74-5.18v3.94c0,1.54-.22,2.02-2.04,2.02h-2.02l-.4-2.34h1.52c.66,0,.68-.18,.68-.74v-6.54h-4v-7.62h3.5c.18-.48,.32-.92,.5-1.6l2.6,.06c-.24,.86-.4,1.26-.52,1.54h4.18v7.62h-4c.3,.72,.58,1.44,1.14,2.36,1.06-.9,1.56-1.56,1.94-2.1l1.74,1.5Zm-8.76-7.6v1.24h5.58v-1.24h-5.58Zm0,2.76v1.36h5.58v-1.36h-5.58Z"/><path class="cls-1" d="M212.68,21.37c-.26,1.22-.84,4.1-.84,9.18,0,4.04,.38,6.14,.56,7.1l-2.8,.2c-.18-1.1-.48-3.02-.48-6.86,0-5.26,.5-8.42,.74-9.82l2.82,.2Zm5.12,8.7c-.8,1.06-.96,1.98-.96,2.42,0,1.48,1.7,1.68,3.6,1.68,1.48,0,3.22-.08,4.7-.24v2.74c-.76,.08-1.98,.18-3.74,.18-3.68,0-7.02-.46-7.02-3.98,0-.48,.04-1.78,1.04-3.46l2.38,.66Zm6.96-7.44v2.6h-9.78v-2.6h9.78Z"/><path class="cls-1" d="M243.68,25.53h-9.36v-.72c-1.24,.56-2.22,.94-4.1,1.44l-.98-2.46c3.08-.56,6.02-1.74,8.34-3.82h2.74c2.3,1.9,4.74,3.12,8.4,3.88l-1.12,2.54c-1.98-.58-2.96-1.04-3.92-1.5v.64Zm3.08,6.02v6.98h-15.62v-6.98h6.2l-.58-1.04c1.86-.32,4.32-1.2,5.82-2.02h-11.62v-2.02h15.74v2.02c-1.58,1.36-3.98,2.4-5.64,3.06h5.7Zm-2.46,2.02h-10.66v2.94h10.66v-2.94Zm-2.86-9.94c-.92-.58-1.52-1.04-2.44-1.9-.72,.72-1.32,1.18-2.46,1.9h4.9Z"/><path class="cls-1" d="M268.88,22.75v2.26h-6.06v1.8h5.62v2.24h-5.62v2.26c2.44,.9,4.28,2.3,5.68,3.48l-1.7,2.46c-1.6-1.76-3-2.62-3.98-3.16l-.02,.7c-.06,2.4-2.28,3.12-4.22,3.12-4.14,0-5.1-2.26-5.1-3.6,0-2.14,2.1-3.76,5.16-3.76,.7,0,1.14,.08,1.54,.14v-1.64h-6.82v-2.24h6.82v-1.8h-7.18v-2.26h7.18v-1.82h2.64v1.82h6.06Zm-8.7,10.18c-.26-.08-.88-.26-1.7-.26-1.4,0-2.52,.6-2.52,1.54,0,.26,.14,1.44,2.28,1.44,.98,0,1.94-.26,1.94-1.62v-1.1Z"/><path class="cls-1" d="M274.1,32.63c2.26-2.06,3.32-3.96,3.9-4.98,0-.18,.02-1.08,.02-1.28l-3.38,.04v-2.52h3.38v-2.94h2.76c-.08,1.2-.12,2.9-.12,4.04,1.16-1.08,2.96-2.76,5.64-2.76,1.62,0,2.72,.9,3.06,2.44,.14,.64,.12,1.18,.08,2.26l-.12,3.1c-.04,.82-.08,2.44-.08,2.66,0,1.32,0,2.14,2.86,2l-.66,2.66c-4.26-.1-4.96-1.32-4.96-4.3,0-.46,.04-1.32,.1-3l.12-3c.04-.88,.1-2.14-1.18-2.14-.78,0-2.46,.42-4.94,3.38-.02,2.46-.02,3.1-.02,5.4,0,1.68,.02,3.36,.06,4.24h-2.68c.02-3.76,.02-4.18,.04-6.14-.6,1.02-1.2,2.06-2.54,3.52l-1.34-2.68Z"/><path class="cls-1" d="M309.68,23.31c-1.08,.74-3.2,2.4-4.78,3.64,.94-.26,1.86-.4,2.54-.4,2.38,0,5.46,1.32,5.46,5.26s-3.1,6.16-7.38,6.16c-3.7,0-5.36-1.72-5.36-3.5s1.58-3.12,3.7-3.12c1.82,0,4.02,1.08,4.82,3.46,1.16-.72,1.6-1.9,1.6-2.92,0-1.84-1.24-3.18-3.92-3.18-3.1,0-5.38,1.68-8.42,4.56l-1.5-2.24c.82-.6,4.32-3.28,8.9-7.3-2.14,.14-4.18,.24-6.72,.28v-2.58c4.38,.02,6.32,0,11.06-.2v2.08Zm-5.88,10.1c-.82,0-1.32,.52-1.32,.94,0,.94,1.12,1.54,2.8,1.54,.68,0,1.1-.1,1.28-.14-.5-1.46-1.38-2.34-2.76-2.34Z"/><path class="cls-1" d="M317.38,38.93c2.16-2.7,3.4-6.02,3.4-9.48s-1.24-6.8-3.4-9.48h2.2c2.18,2.7,3.54,6,3.54,9.48s-1.36,6.78-3.52,9.48h-2.22Z"/><path class="cls-1" d="M343.7,34.38c3.78-.36,9.36-1.8,9.36-9.09,0-4.68-2.52-7.68-7.23-8.01-.51,8.19-3.03,18.54-9.21,18.54-3.81,0-5.94-4.29-5.94-8.79,0-8.64,6.48-13.53,14.07-13.53,8.94,0,12.54,5.82,12.54,11.97,0,3.54-1.14,7.26-4.14,9.78-2.1,1.77-5.13,2.67-8.16,2.97l-1.29-3.84Zm-9.15-7.26c0,1.41,.45,4.38,2.25,4.38,1.59,0,4.23-3.15,5.16-14.01-4.59,.99-7.41,4.68-7.41,9.63Z"/><path class="cls-1" d="M363.05,36.04c.51-.03,3-.21,3.54-.24v-7.2h-3.54v-3.18h3.54V12.34h22.23v3.18h-18.3v1.56h17.28v2.58h-17.28v1.59h17.28v2.61h-17.28v1.56h20.43v3.18h-3.45l2.07,1.5c-1.71,1.53-3.12,2.49-5.37,3.75,3.33,1.53,5.88,1.92,7.35,2.16l-1.71,3.84c-6.24-1.71-13.05-4.74-16.17-11.25h-3.15v6.9c2.97-.24,3.75-.3,7.71-.9v3.33c-4.68,.87-11.22,1.44-14.43,1.62l-.75-3.51Zm14.49-7.44c.51,.81,1.17,1.89,3.36,3.39,1.08-.63,2.67-1.68,4.59-3.39h-7.95Z"/><path class="cls-1" d="M415.49,30.18c-2.76-3.24-4.53-7.65-5.13-9.09-.54,0-2.67,.06-2.94,.06h-9.75v-3.81l9.99,.09h1.44c-.42-1.5-.63-2.43-1.02-4.44l4.17-.33c.33,2.49,.84,4.23,.96,4.62,2.88-.15,5.25-.39,8.49-1.11l.72,3.87c-2.91,.6-4.8,.72-7.92,.9,1.17,2.55,2.58,5.01,4.5,7.08l-3.51,2.16Zm-9.72-2.25c-.72,.33-2.94,1.41-2.94,3.42,0,2.91,3.99,3.09,7.98,3.09,4.41,0,6.72-.3,8.13-.48v3.93c-1.2,.09-3.45,.3-7.29,.3-5.97,0-7.92-.66-9.63-1.59-1.89-1.05-3.15-2.85-3.15-5.16,0-3.24,2.58-5.19,4.86-6.27l2.04,2.76Z"/></g></g><g><path class="cls-3" d="M4.71,172.13c-.12,2.73-.42,6.15-1.14,8.76l-2.88-1.41c.72-2.46,1.08-5.43,1.11-7.77l2.91,.42Zm-3.84-5.01c1.14,0,1.68,0,2.25-.03,.54-.69,1.14-1.5,1.56-2.1-1.14-1.47-2.46-2.82-3.96-3.99l1.77-2.91c.42,.3,.54,.42,.78,.57,1.26-1.95,2.01-3.57,2.49-4.53l3.06,1.14c-.96,2.13-2.7,4.74-3.3,5.52,.33,.33,.63,.66,1.17,1.32,1.62-2.4,2.37-3.87,2.91-4.89l3.15,1.26c-1.2,2.16-2.46,4.11-5.91,8.43,.9-.03,2.25-.12,3.09-.21-.36-1.11-.54-1.5-.81-2.07l2.7-.93c.45,.87,1.38,2.58,2.34,6l-3.12,1.02c-.15-.6-.21-.87-.3-1.23-.42,.06-1.47,.21-1.83,.24v12.81h-3.36v-12.45c-2.1,.21-3.45,.3-4.59,.39l-.09-3.36Zm11.55,4.35c.87,3.03,1.17,6.12,1.23,6.93l-3.15,.51c-.06-1.41-.42-5.1-.84-6.93l2.76-.51Zm8.1-16.95c-.21,.96-.45,2.07-1.05,3.72h8.88c-.24,13.71-.33,19.98-1.2,22.17-.21,.48-.9,2.13-2.79,2.13h-6.6l-.72-3.78h5.34c.84,0,1.26-.09,1.5-.96,.12-.42,.66-6.93,.66-16.05h-6.6c-1.32,2.55-2.4,3.69-3.12,4.47l-2.58-2.97c1.83-1.89,3.69-5.04,4.53-9.03l3.75,.3Zm-2.22,11.04c1.38,1.89,2.82,4.38,3.72,7.17l-3.3,1.74c-.66-1.89-2.01-5.04-3.63-7.35l3.21-1.56Z"/><path class="cls-3" d="M326.54,156.28l.09,14.73,5.12-7.31h5.79l-6,7.61,6.38,9.98h-6.06l-5.23-9.52-.09,.07v9.46h-5.2v-25.02h5.2Z"/><path class="cls-3" d="M347.28,163.91l.07,2.06c1.21-1.72,2.99-2.58,5.34-2.58,1.04,0,2.11,.31,3.21,.94,1.21,.68,1.98,1.47,2.33,2.38,1.59-2.21,3.55-3.32,5.88-3.32,1.04,0,2.13,.33,3.28,.98,1.14,.64,1.89,1.4,2.25,2.28,.35,.9,.52,2.3,.52,4.2v10.45h-5.2v-10.45c0-2.66-1.04-3.99-3.1-3.99-.85,0-1.58,.36-2.18,1.07-.63,.72-.94,1.7-.94,2.93v10.45h-5.2v-10.44c0-2.66-1.04-3.99-3.11-3.99-.86,0-1.58,.36-2.18,1.06-.63,.72-.95,1.7-.95,2.92v10.44h-5.2v-17.39h5.17Z"/></g></g></svg>