<?xml version="1.0" encoding="UTF-8"?><svg id="_レイヤー_2" xmlns="http://www.w3.org/2000/svg" viewBox="0 0 111.98 68.23"><defs><style>.cls-1{fill:#bf1920;}.cls-2{fill:#231815;}</style></defs><g id="_レイアウト"><g><path class="cls-2" d="M2.81,14.4H21.21v2.58H2.81v-2.58ZM4.11,2.2h15.8v2.56H4.11V2.2Z"/><path class="cls-2" d="M29.13,11.2c-.28,1.02-1.64,5.26-3.32,7.22l-1.86-2.12c1.34-1.68,2.46-4.26,3.1-6.4l2.08,1.3Zm-1.32-5.6c-1.48-1.62-2.56-2.36-3.6-2.98l1.64-1.82c1.24,.64,2.86,1.84,3.74,2.9l-1.78,1.9Zm6.62,.8h2.64v1.98c0,1.02,.44,2.92,1.64,4.74,1.48,2.22,3.76,3.18,4.6,3.54l-1.46,2.4c-2-.9-4.52-2.84-5.84-6.12-1.3,3.62-4.42,5.3-7.02,6.16l-1.48-2.5c6.48-1.32,6.92-5.68,6.92-7.9v-2.3Zm.66-6.02c-.16,.6-.4,1.5-.82,2.64h8.58v2.36c-.46,1.8-1.38,3.78-2.4,5.3l-2.24-1.26c1.08-1.54,1.62-2.68,2.02-4.1h-6.96c-.7,1.44-1.68,3.04-3.06,4.2l-2.02-1.78c1.7-1.52,3.14-3.34,4.34-7.74l2.56,.38Z"/><path class="cls-2" d="M50.65,5.06c-1.4,2.48-2.7,3.68-3.4,4.32l-1.62-1.6c1.24-1.12,1.9-1.92,2.86-3.6l2.16,.88ZM56.53,.14V1.58h8.18V3.84h-5.76V7.98c0,.9-.74,1.46-1.6,1.46h-2.22l-.38-2.44h1.32c.5,0,.5-.14,.5-.62V3.84h-2.18c-.44,3.24-1.78,5.04-4.18,6.6l-1.56-1.74c3.04-1.78,3.3-3.8,3.44-4.86h-6.38V1.58h8.24V.14h2.58Zm-1.4,9.34c-.28,.44-.36,.54-.66,.88h7.24v2.1c-.66,.78-1.62,1.92-3.66,3.16,2.56,.64,4.94,.78,6.68,.88l-.98,2.5c-1.82-.12-5.2-.4-8.76-1.94-3.9,1.42-6.84,1.74-8.26,1.88l-.74-2.26c1.24-.12,3.54-.32,6.46-1.1-1.1-.8-1.62-1.4-2.12-1.98-1.3,.74-2.3,1.12-3.12,1.44l-1.26-2.08c4.26-1.44,5.86-3.1,6.9-4.36l2.28,.88Zm-3,2.98c1.48,1.36,2.64,1.92,3.1,2.16,1.62-.76,2.52-1.54,3.28-2.2h-6.32l-.06,.04Zm11.08-2.86c-1.14-.9-1.96-1.72-3.72-4.34l1.9-1.24c1,1.64,2.56,3.12,3.42,3.84l-1.6,1.74Z"/><path class="cls-2" d="M84.85,2.58h-7v.74h7.98V7.66h-2.5v-2.76h-5.48v3.64h-2.24v-3.64h-5.42v2.76h-2.4V3.32h7.82v-.74h-6.84V.74h16.08v1.84Zm1.56,12.92c-.18,2.28-.56,3.34-2.14,3.34h-6.74c-1.11,0-2.02-.18-2.02-1.44v-1.54h-6.8v-6.86h16.1v6.06l1.6,.44Zm-11.56-9.88v1h-3.8v-1h3.8Zm0,1.7v1.04h-3.8v-1.04h3.8Zm.66,5.76h-4.42v1.12h4.42v-1.12Zm0-2.48h-4.34v1.08h4.34v-1.08Zm6.86,0h-4.48v1.08h4.48v-1.08Zm0,2.48h-4.48v1.12h4.48v-1.12Zm.8,3.84c.54,0,.76-.04,.88-1.06h-6.16v.56c0,.4,.08,.5,.46,.5h4.82Zm-.6-11.3v1h-3.9v-1h3.9Zm0,1.7v1.04h-3.9v-1.04h3.9Z"/><path class="cls-2" d="M90.03,4.6h7.56v7.86h-5.22c-.04,1-.18,4.1-1.66,6.56l-1.96-1.92c1.06-1.8,1.28-3.7,1.28-5.82V4.6Zm8.12-1.5h-9.08V.8h9.08V3.1Zm-5.74,3.74v3.3h2.84v-3.3h-2.84Zm15.34-4.48c-2.26,.82-3.84,1.12-6.48,1.32v2.48h6.52v2.44h-1.9v10.42h-2.44V8.6h-2.18c.02,3.96-.5,7.42-2.86,10.38l-2.16-1.7c2-2.36,2.6-4.62,2.6-7.56V1.48c.8-.02,4.44-.1,7.6-1.44l1.3,2.32Z"/><path class="cls-1" d="M0,39.26c.02-1.79,.32-3.39,.91-4.79,.59-1.41,1.42-2.61,2.5-3.61,1.02-.93,2.17-1.65,3.44-2.16,1.27-.51,2.6-.77,4-.77,2.54,0,4.84,.76,6.9,2.28,1.93,1.54,3.2,3.76,3.79,6.66,.04,.11,.02,.2-.05,.27s-.16,.11-.27,.11h-5.51c-.14,0-.24-.06-.3-.19-.81-1.97-2.34-2.98-4.59-3.03-3.24,.09-4.86,1.95-4.86,5.59v3.17c1.16-.34,2.32-.61,3.48-.81,1.15-.2,2.25-.29,3.29-.27,2.51,0,4.65,.88,6.45,2.63,1.72,1.81,2.57,4.59,2.55,8.35v3.49c-.05,3.67-1.15,6.46-3.28,8.38-2.01,1.9-4.54,2.89-7.6,2.98-2.97-.09-5.45-1.07-7.44-2.95C1.15,62.62,.02,59.83,0,56.21v-16.95Zm5.96,16.62c.02,3.67,1.65,5.52,4.89,5.56,3.17-.02,4.82-1.87,4.94-5.56v-3.14c-.14-3.63-1.79-5.49-4.94-5.56-3.24,.09-4.87,1.94-4.89,5.56v3.14Z"/><path class="cls-1" d="M26.02,67.11c-.21,0-.32-.11-.32-.32v-5.24l15.04-18.83v.03c.55-.7,.91-1.34,1.07-1.92,.16-.58,.24-1.15,.24-1.71,0-1.24-.45-2.4-1.34-3.49-.9-1.07-2.1-1.61-3.63-1.61-1.4,0-2.6,.47-3.63,1.42-.5,.47-.88,1.02-1.14,1.65-.26,.64-.43,1.36-.5,2.16,0,.09-.03,.16-.09,.21-.06,.05-.14,.08-.23,.08h-5.48c-.21,0-.32-.11-.32-.32,.04-3.19,1.12-5.86,3.25-8.03,2.17-2.2,4.74-3.3,7.73-3.3,3.24,0,5.97,1.11,8.19,3.33h-.03c2.2,2.2,3.3,4.85,3.3,7.95,0,1.34-.2,2.59-.59,3.73-.39,1.15-.98,2.21-1.77,3.2v-.03c-1.02,1.29-2.02,2.55-3.01,3.79-.98,1.24-1.97,2.47-2.95,3.69-.98,1.23-1.97,2.45-2.95,3.68-.98,1.23-1.99,2.48-3.01,3.77h13.96c.21,0,.32,.11,.32,.32v5.45c0,.21-.11,.32-.32,.32H26.02Z"/><path class="cls-2" d="M52.2,64.93c2.67-4.71,4.44-11.48,5.07-14.93l-4.32,.03v-3.83h4.95c.27-1.92,.39-3.06,.54-5.22l4.2,.21c-.21,1.62-.3,2.37-.72,5.01h2.7c4.44,0,6.54,2.05,6.54,8.44,0,2.19-.3,6.35-1.44,8.93-1.02,2.28-2.91,3.09-5.55,3.09-1.62,0-2.85-.15-3.3-.21l-.24-4.02c.54,.12,1.77,.36,3,.36,1.98,0,2.4-.9,2.85-2.52,.42-1.56,.78-3.96,.78-6.08,0-3.42-.78-4.29-3.75-4.26l-2.28,.03c-.84,4.67-2.64,11.87-5.16,16.76l-3.87-1.8Zm22.68-7.28c-.15-4.34-1.2-8.7-3.81-12.19l3.39-1.68c3.06,3.67,4.26,8.41,4.59,13.15l-4.17,.72Z"/><path class="cls-2" d="M85.35,46.6h11.34v11.79h-7.83c-.06,1.5-.27,6.15-2.49,9.84l-2.94-2.88c1.59-2.7,1.92-5.55,1.92-8.73v-10.02Zm12.18-2.25h-13.62v-3.45h13.62v3.45Zm-8.61,5.61v4.95h4.26v-4.95h-4.26Zm23.01-6.72c-3.39,1.23-5.76,1.68-9.72,1.98v3.72h9.78v3.66h-2.85v15.63h-3.66v-15.63h-3.27c.03,5.94-.75,11.13-4.29,15.57l-3.24-2.55c3-3.54,3.9-6.93,3.9-11.34v-12.36c1.2-.03,6.66-.15,11.4-2.16l1.95,3.48Z"/></g></g></svg>