<?xml version="1.0" encoding="UTF-8"?><svg id="_レイヤー_2" xmlns="http://www.w3.org/2000/svg" viewBox="0 0 336.81 148.46"><defs><style>.cls-1{fill:#231815;}</style></defs><g id="_レイアウト"><g><g><path class="cls-1" d="M267.19,92.9c.62-.14,1.24-.28,2.4-.62v-3.92h-2.32v-2.3h2.32v-3.38h2.4v3.38h1.96v2.3h-1.96v3.2c1.22-.42,1.52-.56,1.96-.74l.12,2.32c-.44,.22-.8,.4-2.08,.88v5.96c0,1.42-1.08,1.56-1.56,1.56h-2.68l-.32-2.44h1.7c.38,0,.46-.2,.46-.42v-3.82c-1.02,.36-1.6,.5-2.14,.64l-.26-2.6Zm18.06-.88c-.42,1.16-1.1,3.14-3.24,5.22,1.68,1.08,3.22,1.54,4.46,1.86l-1.36,2.58c-1.34-.54-3.28-1.36-5.14-2.8-2.42,1.64-4.58,2.34-5.86,2.72l-1.28-2.32c1.1-.26,3.14-.78,5.36-2.08-1.04-1.2-1.74-2.38-2.44-3.88l2.22-.94c.32,.68,.9,1.9,2.22,3.34,1.58-1.52,2.08-2.92,2.34-3.66h-7.6v-2.3h4.06v-2.48h-4.66v-2.34h4.66v-2.26h2.54v2.26h4.64v2.34h-4.64v2.48h3.72v2.26Z"/><path class="cls-1" d="M293.99,88.04c-.32,.94-.74,1.84-1.22,2.7v10.74h-2.34v-7.52c-.36,.38-.66,.66-1.08,1.04l-.7-3.06c.54-.48,1.88-1.62,3.26-4.76l2.08,.84v-1.7h2.62v-3.64h2.3v3.64h2.94v2.36h-2.94v12.8h-2.26v-12.8h-2.66v-.64Zm-5.3-2.38c1.34-.96,2.2-2.22,2.68-3.12l2.24,.68c-.76,1.8-2.26,3.64-3.96,4.92l-.96-2.48Zm4.34,11.7c.7-1.8,1.06-4.58,1.04-6.7h1.84c.02,2.38-.18,6.16-1.02,8.24l-1.86-1.54Zm7.74-14.72c.64,.84,1.06,1.66,1.44,2.68l-1.8,.92c-.2-.7-.84-2.14-1.28-2.8l1.64-.8Zm-.58,15.42c.04-2.2-.18-5-.48-7.24l1.9-.2c.34,1.8,.76,4.9,.78,7.22l-2.2,.22Zm7.64-9.48v2.36h-1.2v8.56c0,.86,0,1.98-1.94,1.98h-2.76l-.4-2.5h1.96c.5,0,.76-.02,.76-.58v-7.46h-2.22v-2.36h5.8Zm-.32-5.28v2.4h-5.18v-2.4h5.18Z"/><path class="cls-1" d="M317.21,96.6c-2,2.5-4.48,3.88-5.16,4.26l-1.64-2.1c1.74-.76,3.58-2.12,4.78-3.42l2.02,1.26Zm-6.74-4.12h.54c.12,0,3.84-.08,6.18-.12,.04-.04,.24-.26,.28-.3-.66-.52-3.1-2.32-5.04-3.36l1.5-1.82c.46,.22,.78,.38,1.72,.96,.74-.92,1.22-1.64,1.52-2.12-.64,.02-5.3,.18-5.58,.18l-.48-2.28c1.56,.02,4.38,.04,8.36-.16,4.64-.24,6.8-.72,8.02-.98l1.1,2.16c-.78,.18-2.34,.54-5.46,.78l2.24,1.08c-2.46,3.26-4.6,5.34-5.02,5.74,.68-.02,4.04-.2,4.8-.24-.52-.78-.76-1.12-1.1-1.54l2.18-1.02c1.28,1.62,2.36,3.2,3.34,5.25l-2.26,1.14c-.24-.52-.4-.88-.86-1.72l-5.26,.34v7.07h-2.48v-6.9c-1.16,.02-6.82,.2-8.1,.22l-.14-2.36Zm12.62-7.06c-1.74,.14-2.56,.18-3,.2-.74,1.18-1.58,2.22-2.62,3.44,.5,.36,1.1,.8,1.64,1.22,2.38-2.74,2.66-3.04,3.98-4.86Zm4.78,15.6c-2.32-1.36-3.62-2.54-5.22-4.44l2-1.34c1.28,1.48,2.62,2.56,4.9,3.74l-1.68,2.04Z"/><path class="cls-1" d="M318.51,123.56c3.21,0,5.82,2.61,5.82,6.54s-2.58,6.57-5.82,6.57-5.82-2.61-5.82-6.57,2.64-6.54,5.82-6.54Zm13.26,.48h2.46l-16.5,23.94h-2.46l16.5-23.94Zm-13.26,9.9c1.2,0,2.61-1.11,2.61-3.84,.03-2.76-1.44-3.81-2.61-3.81-1.26,0-2.61,1.17-2.61,3.81s1.35,3.84,2.61,3.84Zm12.48,1.44c3.18,0,5.82,2.58,5.82,6.54s-2.64,6.54-5.82,6.54-5.82-2.52-5.82-6.54,2.67-6.54,5.82-6.54Zm0,10.35c1.2,0,2.58-1.08,2.58-3.81s-1.38-3.81-2.58-3.81c-1.35,0-2.61,1.29-2.61,3.81s1.32,3.81,2.61,3.81Z"/></g><g><path class="cls-1" d="M18.8,3.18H10.68v.86h6.54v3.94h-6.54v.8h6.96v2.38h1.3v1.96h-1.3v2.5h-6.96v1.46c0,1.46-.92,1.94-1.7,1.94h-3.94l-.4-2.16h3.04c.52,0,.58-.18,.58-.58v-.66H1.14v-1.66h7.12v-.92H0v-1.76H8.26v-.88H1.22v-1.62h7.04v-.8H1.88v-3.94h6.38v-.86H.24V1.34H8.26V.16h2.42V1.34h8.12v1.84Zm-10.54,2.36H4.26v1h4v-1Zm6.52,0h-4.1v1h4.1v-1Zm.34,4.86h-4.44v.92h4.44v-.92Zm.04,2.62h-4.48v.94h4.48v-.94Z"/><path class="cls-1" d="M21.34,13.48c1.36-1.08,2.68-3.04,3.4-4.5h-3v-2.2h3.96c-.78-.76-1.38-1.24-2.8-2.16l1.5-1.56c.48,.26,.84,.46,1.88,1.24,.66-.64,.86-.82,1.22-1.36h-5.48V.78h8.06V2.94c-.7,.96-1.32,1.56-2.36,2.56,.3,.3,.38,.38,.62,.66l-.64,.62h2.92v1.28c.58-.12,1.72-.4,3.14-1.22-.28-.26-.78-.76-1.58-1.82-.48,.5-.78,.74-1.18,1.06l-1.56-1.58c1.44-1,2.84-2.92,3.26-4.42l2.36,.3c-.14,.44-.24,.72-.44,1.14h5.9V3.62h-1.16c-.18,.58-.58,1.78-2,3.24,1.44,.76,2.58,1.04,3.44,1.22l-1.04,2.2c-1.46-.5-2.82-1.08-4.22-1.98-1.8,1.16-3.32,1.64-4.32,1.92l-.62-1.12c-.18,.72-.72,2.4-1.44,3.54l-1.64-1.08c.16-.28,.88-1.48,1.18-2.58h-1.34v8.14c0,.96-.06,1.94-1.98,1.94h-2.38l-.44-2.28h1.86c.64,0,.76-.16,.76-.66v-4.32c-1.26,2.36-2.4,3.54-2.9,4.04l-.94-2.36Zm11.6-2.3c.06-.54,.06-.86,.06-1.42h2.34c-.02,.6-.04,.98-.08,1.42h4.66c-.08,7.88-1.2,7.88-3.3,7.88h-2.18l-.52-2.24h2.1c.94,0,1.34,0,1.52-3.5h-2.64c-.5,1.82-1.52,4.08-4.92,5.76l-1.54-2.02c.84-.34,3.04-1.2,4.02-3.74h-2.48v-2.14h2.96Zm.6-7.56c.82,1.1,1.48,1.62,1.9,1.98,.94-.92,1.2-1.44,1.46-1.98h-3.36Z"/><path class="cls-1" d="M49.96,14.12c-2,2.5-4.48,3.88-5.16,4.26l-1.64-2.1c1.74-.76,3.58-2.12,4.78-3.42l2.02,1.26Zm-6.74-4.12h.54c.12,0,3.84-.08,6.18-.12,.04-.04,.24-.26,.28-.3-.66-.52-3.1-2.32-5.04-3.36l1.5-1.82c.46,.22,.78,.38,1.72,.96,.74-.92,1.22-1.64,1.52-2.12-.64,.02-5.3,.18-5.58,.18l-.48-2.28c1.56,.02,4.38,.04,8.36-.16,4.64-.24,6.8-.72,8.02-.98l1.1,2.16c-.78,.18-2.34,.54-5.46,.78l2.24,1.08c-2.46,3.26-4.6,5.34-5.02,5.74,.68-.02,4.04-.2,4.8-.24-.52-.78-.76-1.12-1.1-1.54l2.18-1.02c1.28,1.62,2.36,3.2,3.34,5.25l-2.26,1.14c-.24-.52-.4-.88-.86-1.72l-5.26,.34v7.07h-2.48v-6.9c-1.16,.02-6.82,.2-8.1,.22l-.14-2.36Zm12.62-7.06c-1.74,.14-2.56,.18-3,.2-.74,1.18-1.58,2.22-2.62,3.44,.5,.36,1.1,.8,1.64,1.22,2.38-2.74,2.66-3.04,3.98-4.86Zm4.78,15.6c-2.32-1.36-3.62-2.54-5.22-4.44l2-1.34c1.28,1.48,2.62,2.56,4.9,3.74l-1.68,2.04Z"/><path class="cls-1" d="M51.26,41.08c3.21,0,5.82,2.61,5.82,6.54s-2.58,6.57-5.82,6.57-5.82-2.61-5.82-6.57,2.64-6.54,5.82-6.54Zm13.26,.48h2.46l-16.5,23.94h-2.46l16.5-23.94Zm-13.26,9.9c1.2,0,2.61-1.11,2.61-3.84,.03-2.76-1.44-3.81-2.61-3.81-1.26,0-2.61,1.17-2.61,3.81s1.35,3.84,2.61,3.84Zm12.48,1.44c3.18,0,5.82,2.58,5.82,6.54s-2.64,6.54-5.82,6.54-5.82-2.52-5.82-6.54,2.67-6.54,5.82-6.54Zm0,10.35c1.2,0,2.58-1.08,2.58-3.81s-1.38-3.81-2.58-3.81c-1.35,0-2.61,1.29-2.61,3.81s1.32,3.81,2.61,3.81Z"/></g></g></g></svg>