<?xml version="1.0" encoding="UTF-8"?><svg id="_レイヤー_2" xmlns="http://www.w3.org/2000/svg" viewBox="0 0 500 182.54"><defs><style>.cls-1{fill:#fff;}.cls-2{fill:#595757;}.cls-3{fill:#231815;}</style></defs><g id="_レイアウト"><g><polygon class="cls-2" points="485 0 0 0 0 50 485 50 500 25 485 0"/><g><path class="cls-1" d="M30.96,22.83h6.45v8.88c.96,3.63,4.68,3.63,6.42,3.63h15.66l-.63,3.6h-15.27c-1.92,0-5.25-.42-7.08-3.27-.99,1.26-2.34,2.73-4.35,4.08l-1.68-4.02c.39-.21,1.98-1.02,3.36-2.43v-6.93h-2.88v-3.54Zm2.85-11.01c1.83,1.5,3.39,3.21,4.74,5.19l-2.88,2.49c-1.74-2.64-3.33-4.2-4.38-5.22l2.52-2.46Zm13.11,10.44v-3.27h-7.26v-3.48h3.24c-.42-1.17-1.02-2.31-1.62-3.33l3.63-.72c.42,.72,.84,1.47,1.77,4.05h4.17c.78-1.26,1.47-3.09,1.74-4.05l3.72,.66c-.51,1.38-1.32,2.82-1.62,3.39h3.51v3.48h-7.65v3.27h8.43v3.51h-7.26c1.65,2.79,4.17,4.56,7.59,5.76l-2.1,3.42c-2.28-.96-6.21-3.12-8.22-7.77-1.2,3.06-4.02,6.18-7.53,7.77l-2.43-3.42c2.88-1.14,5.64-2.82,7.02-5.76h-7.23v-3.51h8.1Z"/><path class="cls-1" d="M90.06,15.12h-10.5v1.11h11.97v6.51h-3.75v-4.14h-8.22v5.46h-3.36v-5.46h-8.13v4.14h-3.6v-6.51h11.73v-1.11h-10.26v-2.76h24.12v2.76Zm2.34,19.38c-.27,3.42-.84,5.01-3.21,5.01h-10.11c-1.66,0-3.03-.27-3.03-2.16v-2.31h-10.2v-10.29h24.15v9.09l2.4,.66Zm-17.34-14.82v1.5h-5.7v-1.5h5.7Zm0,2.55v1.56h-5.7v-1.56h5.7Zm.99,8.64h-6.63v1.68h6.63v-1.68Zm0-3.72h-6.51v1.62h6.51v-1.62Zm10.29,0h-6.72v1.62h6.72v-1.62Zm0,3.72h-6.72v1.68h6.72v-1.68Zm1.2,5.76c.81,0,1.14-.06,1.32-1.59h-9.24v.84c0,.6,.12,.75,.69,.75h7.23Zm-.9-16.95v1.5h-5.85v-1.5h5.85Zm0,2.55v1.56h-5.85v-1.56h5.85Z"/><path class="cls-1" d="M100.23,29.28c-.06,2.19-.24,5.58-1.05,8.76l-2.79-1.44c.54-1.8,.87-3.39,1.05-7.68l2.79,.36Zm-3.6-4.89c.21,0,1.5-.03,1.83-.03,.39-.54,1.11-1.47,1.62-2.22-.3-.36-1.65-1.98-3.6-3.57l1.62-3.15c.48,.45,.54,.48,.66,.6,.27-.45,1.47-2.52,2.22-4.53l3.27,.96c-1.29,2.73-2.85,5.07-3.27,5.7,.48,.51,.72,.78,.99,1.11,1.68-2.58,2.28-3.66,2.82-4.65l3,1.23c-2.25,3.99-5.67,8.1-5.88,8.34,1.47-.06,1.8-.09,2.97-.15-.18-.66-.3-1.05-.57-1.86l2.43-.84c.66,1.59,1.47,4.26,1.68,5.64h5.79c-.48,4.08-1.86,8.88-5.94,12.03l-2.28-2.49c1.86-1.38,3.63-3.06,4.59-6.3h-2.43v-3l-2.49,.84c-.06-.45-.09-.69-.18-1.17-.18,.03-1.11,.12-1.32,.15v12.75h-3.15v-12.42c-2.22,.21-3.06,.24-4.17,.27l-.21-3.24Zm10.83,4.56c.09,.54,.51,3,.57,5.76l-2.64,.54c-.03-1.92-.27-4.32-.51-5.94l2.58-.36Zm17.88-.96c-.69,.81-1.83,2.1-3.72,3.45,1.74,2.13,2.97,2.94,4.05,3.66l-1.95,3.51c-3.57-3-4.71-5.61-5.61-7.77v5.91c0,2.31-.33,3.03-3.06,3.03h-3.03l-.6-3.51h2.28c.99,0,1.02-.27,1.02-1.11v-9.81h-6V13.93h5.25c.27-.72,.48-1.38,.75-2.4l3.9,.09c-.36,1.29-.6,1.89-.78,2.31h6.27v11.43h-6c.45,1.08,.87,2.16,1.71,3.54,1.59-1.35,2.34-2.34,2.91-3.15l2.61,2.25Zm-13.14-11.4v1.86h8.37v-1.86h-8.37Zm0,4.14v2.04h8.37v-2.04h-8.37Z"/><path class="cls-1" d="M154.38,15.24v3.39h-12.63c-.54,1.38-.87,2.07-1.53,3.24,1.89-.96,2.64-1.32,4.08-1.32,2.73,0,3.99,1.2,4.65,3.06,3.75-1.41,5.43-2.01,7.05-2.46l.81,3.72c-1.59,.36-3.87,.93-7.23,2.1,.03,.63,.12,1.56,.12,3,0,.99-.03,1.68-.06,2.19h-3.78c.15-1.74,.12-3,.09-3.69-3.09,1.41-4.35,2.73-4.35,4.08,0,2.19,2.58,2.19,5.82,2.19,.54,0,4.32,0,7.65-.39l.06,3.75c-2.37,.12-4.77,.21-6.69,.21-4.23,0-10.89-.15-10.89-5.31,0-4.08,5.1-6.6,7.89-7.92-.21-.54-.54-1.41-2.22-1.41-.84,0-2.79,.3-5.28,2.76-.63,.9-2.94,4.08-4.08,5.22l-2.7-2.79c2.82-2.73,4.92-5.67,6.6-10.23h-5.55v-3.39h6.57c.27-1.17,.39-1.8,.57-3l4.14,.21c-.21,1.14-.36,1.71-.63,2.79h11.52Z"/><path class="cls-1" d="M189.72,39.75c-4.5-.66-8.94-1.71-12.87-3.99-4.47,2.4-8.37,3.39-12.45,4.11l-1.59-4.05c5.37-.57,8.73-1.74,10.47-2.55-2.76-2.34-4.26-4.53-5.28-6.09l3.21-1.92c2.4,3.48,4.62,5.19,5.67,5.94,3-2.19,4.86-4.71,5.85-6.03h-17.67v-3.6h9.99v-3.39h-12.21v-3.72h12.21v-3h3.75v3h12.33v3.72h-12.33v3.39h8.52v3.63c-1.2,2.04-3.06,5.01-6.84,8.1,3.15,1.38,6.21,2.13,10.71,2.34l-1.47,4.11Z"/><path class="cls-1" d="M216.81,19.11v3.18c-2.94,2.25-3.27,2.52-6.09,4.83,.45-.12,.81-.24,1.35-.24,2.7,0,2.7,2.4,2.7,3.9v1.08c0,2.1,.15,2.58,4.14,2.58,1.32,0,2.7-.15,3.6-.24l.12,3.93c-1.11,.06-2.28,.12-4.32,.12-3.36,0-7.23,0-7.23-4.53v-1.68c0-1.08,0-2.1-1.38-2.1-.81,0-2.1,.45-3.24,1.5-1.65,1.47-4.59,4.71-6.57,6.87l-2.67-3.09c.45-.42,4.65-4.32,5.82-5.4,5.31-4.92,6.27-5.73,7.92-7.11l-11.7,.24v-3.78l17.55-.06Zm.33-1.44c-3.57-.96-7.35-1.74-14.22-1.86l.39-3.39c4.86,.06,9.69,.51,14.4,1.62l-.57,3.63Z"/><path class="cls-1" d="M250.02,16.44c-1.62,1.11-4.8,3.6-7.17,5.46,1.41-.39,2.79-.6,3.81-.6,3.57,0,8.19,1.98,8.19,7.89s-4.65,9.24-11.07,9.24c-5.55,0-8.04-2.58-8.04-5.25s2.37-4.68,5.55-4.68c2.73,0,6.03,1.62,7.23,5.19,1.74-1.08,2.4-2.85,2.4-4.38,0-2.76-1.86-4.77-5.88-4.77-4.65,0-8.07,2.52-12.63,6.84l-2.25-3.36c1.23-.9,6.48-4.92,13.35-10.95-3.21,.21-6.27,.36-10.08,.42v-3.87c6.57,.03,9.48,0,16.59-.3v3.12Zm-8.82,15.15c-1.23,0-1.98,.78-1.98,1.41,0,1.41,1.68,2.31,4.2,2.31,1.02,0,1.65-.15,1.92-.21-.75-2.19-2.07-3.51-4.14-3.51Z"/><path class="cls-1" d="M288.72,39.75c-4.5-.66-8.94-1.71-12.87-3.99-4.47,2.4-8.37,3.39-12.45,4.11l-1.59-4.05c5.37-.57,8.73-1.74,10.47-2.55-2.76-2.34-4.26-4.53-5.28-6.09l3.21-1.92c2.4,3.48,4.62,5.19,5.67,5.94,3-2.19,4.86-4.71,5.85-6.03h-17.67v-3.6h9.99v-3.39h-12.21v-3.72h12.21v-3h3.75v3h12.33v3.72h-12.33v3.39h8.52v3.63c-1.2,2.04-3.06,5.01-6.84,8.1,3.15,1.38,6.21,2.13,10.71,2.34l-1.47,4.11Z"/><path class="cls-1" d="M294.57,26.8c1.08-.24,2.1-.48,3.72-.93v-5.79h-3.48v-3.48h3.48v-5.07h3.57v5.07h3.03v3.48h-3.03v4.71c.96-.3,1.59-.54,2.55-.9l.21,3.51c-.75,.3-1.26,.51-2.76,1.05v8.1c0,1.53,0,3.21-3.21,3.21h-3.21l-.42-3.78h2.25c.81,0,1.02-.09,1.02-.93v-5.37c-1.26,.42-2.13,.66-3.18,.93l-.54-3.81Zm15.03,3.15c.99,.9,1.8,1.62,3.6,4.38l-3.27,2.1c-1.89-3.15-2.85-3.99-3.63-4.65l3.15-1.83h-4.2v-3.48h11.31v-2.58h-11.67v-3.48h7.17v-2.97h-6.18v-3.42h6.18v-2.49h3.72v2.49h6.57v3.42h-6.57v2.97h7.44v3.48h-2.97v2.58h2.73v3.48h-2.73v6.42c0,2.79-.66,3.39-3.39,3.39h-4.5l-.6-3.72h3.63c1.05,0,1.17-.24,1.17-1.08v-5.01h-6.96Z"/><path class="cls-1" d="M338.91,36.78c8.07-5.76,10.71-14.16,11.64-17.97h-2.01c-1.56,6.45-4.71,11.25-9.45,15.27l-2.04-2.91c3.9-2.88,7.05-7.68,8.19-12.36h-1.56c-.84,2.01-2.1,4.53-3.66,6.15l-2.55-2.79c.36-.39,.6-.69,.99-1.23h-1.71v5.31c.99-.33,1.56-.57,2.4-.87l.24,3.54c-.63,.3-1.14,.57-2.64,1.11v9.78h-3.54v-8.61c-2.61,.75-3.84,1.05-5.04,1.35l-.66-3.84c1.38-.27,3.39-.69,5.7-1.35v-6.42h-1.74c-.18,1.11-.6,3.6-1.29,5.07l-2.67-2.46c.93-2.88,1.2-4.77,1.38-9.99l3.09,.12c.03,.93,.03,2.07-.09,3.63h1.32v-5.79h3.54v5.79h2.4v2.61c1.44-2.4,2.31-5.43,2.94-8.46l3.81,.36c-.18,.9-.39,1.86-.93,3.63h10.56c.09,5.07-.12,17.82-.81,21.18-.18,.9-.66,3.18-3.36,3.18h-4.8l-.63-3.69h3.81c.69,0,1.2-.03,1.41-.72,.27-.96,.63-4.32,.81-11.52-1.83,5.37-4.5,11.1-10.86,15.93l-2.19-3.03Z"/><path class="cls-1" d="M367.4,38.93c-2.18-2.7-3.52-6-3.52-9.48s1.34-6.78,3.52-9.48h2.22c-2.16,2.68-3.4,6.02-3.4,9.48s1.24,6.78,3.4,9.48h-2.22Z"/><path class="cls-1" d="M380.5,37.33c-2.42,.6-6.96,1.14-7.78,1.22l-.3-2.38c.7-.06,1.42-.1,3.28-.3v-5.2h-3.1v-2.16h3.1v-1.42h-1.78v-1.12c-.5,.46-.74,.64-1.06,.86l-.74-2.5c1.42-.94,2.82-2.56,3.52-4.32h2.56c.62,1.3,1.72,2.5,2.9,3.2l-1.3,2.02q-.08-.06-.16-.12v1.98h-1.78v1.42h2.6v2.16h-2.6v4.94c1.26-.18,2.06-.36,2.7-.48l.04,1.28c2.66-1.52,3.6-3.9,4.04-5.68h-3.58v-2.36h3.94c0-.18,.02-.4,.02-.64v-1.84h-1.72c-.38,1.14-.6,1.54-.86,2.04l-2.08-1.04c.76-1.32,1.4-3.38,1.54-6.02l2.3,.3c-.04,.58-.1,1.16-.32,2.4h1.14v-3.56h2.42v3.56h3.6v2.32h-3.6v1.8c0,.08-.02,.54-.02,.68h4v2.36h-3.62c.86,2.6,2.06,4.38,4.02,5.92l-1.54,2.24c-1.6-1.44-2.88-3.16-3.88-5.92-.48,1.14-1.7,4.12-4.86,5.96l-1.04-1.6Zm-6.08-5.76c.4,1.66,.5,2.1,.6,3.38l-1.82,.36c-.04-.7-.14-1.96-.48-3.42l1.7-.32Zm5.02-6.6c-.52-.4-1.54-1.4-2.42-2.82-.82,1.36-1.64,2.32-2.1,2.82h4.52Zm1.22,6.68c-.06,.8-.34,2.24-.7,3.12l-1.56-.32c.3-.96,.36-1.48,.54-3.08l1.72,.28Z"/><path class="cls-1" d="M400.66,34.49c-1.38,.58-4.12,1.54-5.94,2.02l-.38-2.62c.72-.12,1.24-.22,2.38-.52v-6.28h-2.16v-2.36h2.16v-4.72h2.4v4.72h1.48v2.36h-1.48v5.58c.88-.3,.96-.32,1.46-.52l.08,2.34Zm-.94-6.86c1.96-.58,4.1-1.7,5.84-3.56h2.34c1.94,1.98,3.2,2.62,5.84,3.56l-1,2.32c-.88-.32-1.42-.56-2.4-1.14v1.4h-7.4v-1.36c-.9,.48-1.36,.7-2.14,1.02l-1.08-2.24Zm2.82-6.4v-1.22h2.24v1.22h3.8v-1.22h2.24v1.22h2.58v2.14h-2.58v1.2h-2.24v-1.2h-3.8v1.2h-2.24v-1.2h-2.36v-2.14h2.36Zm9.6,10.2v7.08h-11.02v-7.08h11.02Zm-8.7,2.08v2.9h6.36v-2.9h-6.36Zm5.94-5.34c-1.2-.84-1.82-1.4-2.68-2.34-.36,.42-1.24,1.4-2.66,2.34h5.34Z"/><path class="cls-1" d="M427.16,23.13v2.5h-4.14c-.98,4.74-2.2,7.82-3.14,10.14l-2.72-1.02c.56-1.04,2.12-3.94,3.18-9.12h-2.86v-2.5h3.32c.12-.96,.2-1.52,.26-2.38l2.78,.1c-.16,1.26-.2,1.5-.34,2.28h3.66Zm4,8.12c1.42,.68,2.94,1.82,3.86,2.74l-1.52,2.48c-.98-1.16-1.74-1.76-2.52-2.3v.44c0,2-1.58,3.32-4.16,3.32-2.96,0-4.66-1.6-4.66-3.72,0-1.72,1.3-3.92,4.78-3.92,.72,0,1.24,.08,1.58,.14l-.08-3.88h2.64l.08,4.7Zm-2.56,1.56c-.36-.12-.82-.32-1.66-.32-1.46,0-2.4,.68-2.4,1.66,0,.26,.1,1.52,2.24,1.52,1.2,0,1.82-.46,1.82-1.74v-1.12Zm5.14-5.72c-2.06-1.22-3.6-1.94-5.66-2.68l1.12-2.24c2.08,.68,3.56,1.34,5.72,2.56l-1.18,2.36Z"/><path class="cls-1" d="M454.9,28.07c-1.64,.16-11.54,1.3-11.54,5.04,0,1.94,2.28,2.08,5.68,2.08s5.38-.22,6.46-.32l.02,2.74c-1.16,.08-2.84,.2-5.7,.2-3.32,0-9.3,0-9.3-4.58,0-3.32,3.8-5.1,5.1-5.7-.78-1.26-.82-2.76-.82-6.6h2.86c-.02,.62-.04,1.28-.04,2.36,0,1.98,.06,2.66,.44,3.34,1.52-.48,2.98-.84,6.52-1.36l.32,2.8Zm-2.4-8.14c.66,1.04,1.14,2.1,1.78,3.94l-1.72,.76c-.46-1.58-.9-2.66-1.68-4l1.62-.7Zm3.2-.36c.84,1.34,1.34,2.66,1.78,3.94l-1.72,.7c-.52-1.7-.88-2.62-1.68-4l1.62-.64Z"/><path class="cls-1" d="M460.38,38.93c2.16-2.7,3.4-6.02,3.4-9.48s-1.24-6.8-3.4-9.48h2.2c2.18,2.7,3.54,6,3.54,9.48s-1.36,6.78-3.52,9.48h-2.22Z"/></g></g><g><path class="cls-3" d="M75.12,172.13c-.12,2.73-.42,6.15-1.14,8.76l-2.88-1.41c.72-2.46,1.08-5.43,1.11-7.77l2.91,.42Zm-3.84-5.01c1.14,0,1.68,0,2.25-.03,.54-.69,1.14-1.5,1.56-2.1-1.14-1.47-2.46-2.82-3.96-3.99l1.77-2.91c.42,.3,.54,.42,.78,.57,1.26-1.95,2.01-3.57,2.49-4.53l3.06,1.14c-.96,2.13-2.7,4.74-3.3,5.52,.33,.33,.63,.66,1.17,1.32,1.62-2.4,2.37-3.87,2.91-4.89l3.15,1.26c-1.2,2.16-2.46,4.11-5.91,8.43,.9-.03,2.25-.12,3.09-.21-.36-1.11-.54-1.5-.81-2.07l2.7-.93c.45,.87,1.38,2.58,2.34,6l-3.12,1.02c-.15-.6-.21-.87-.3-1.23-.42,.06-1.47,.21-1.83,.24v12.81h-3.36v-12.45c-2.1,.21-3.45,.3-4.59,.39l-.09-3.36Zm11.55,4.35c.87,3.03,1.17,6.12,1.23,6.93l-3.15,.51c-.06-1.41-.42-5.1-.84-6.93l2.76-.51Zm8.1-16.95c-.21,.96-.45,2.07-1.05,3.72h8.88c-.24,13.71-.33,19.98-1.2,22.17-.21,.48-.9,2.13-2.79,2.13h-6.6l-.72-3.78h5.34c.84,0,1.26-.09,1.5-.96,.12-.42,.66-6.93,.66-16.05h-6.6c-1.32,2.55-2.4,3.69-3.12,4.47l-2.58-2.97c1.83-1.89,3.69-5.04,4.53-9.03l3.75,.3Zm-2.22,11.04c1.38,1.89,2.82,4.38,3.72,7.17l-3.3,1.74c-.66-1.89-2.01-5.04-3.63-7.35l3.21-1.56Z"/><path class="cls-3" d="M493.33,176.11h-6.21v2.28h11.13v3.3h-26.04v-3.3h11.25v-2.28h-6.15v-2.07c-1.53,1.32-2.7,2.1-4.8,3.06l-1.68-3.21c1.11-.39,3.57-1.41,5.31-3.45h-4.92v-3h4.5v-8.43h-3.99v-3.03h3.99v-1.8h3.72v1.8h11.79v-1.8h3.69v1.8h3.93v3.03h-3.93v8.43h4.38v3h-4.83c1.62,1.71,3,2.58,5.28,3.57l-1.8,3.15c-2.58-1.32-3.51-2.1-4.62-3.03v1.98Zm-1.08-2.97c-1.08-1.14-1.53-1.77-2.13-2.7h-9.54c-.81,1.17-1.35,1.8-2.28,2.7h5.16v-1.8h3.66v1.8h5.13Zm-1.02-14.22h-11.79v1.38h11.79v-1.38Zm0,3.54h-11.79v1.38h11.79v-1.38Zm0,3.6h-11.79v1.47h11.79v-1.47Z"/></g></g></svg>