<?xml version="1.0" encoding="UTF-8"?><svg id="_レイヤー_2" xmlns="http://www.w3.org/2000/svg" viewBox="0 0 447.77 138.95"><defs><style>.cls-1{fill:#fff;stroke:#231815;stroke-miterlimit:10;stroke-width:1.5px;}.cls-2{fill:#c11920;}.cls-3{fill:#231815;}</style></defs><g id="_レイアウト"><g><g><path class="cls-3" d="M45.29,97.62v5.65h-15.15v4.5h14.05v5.6h-14.05v5.65c6.1,2.25,10.7,5.75,14.2,8.7l-4.25,6.15c-4-4.4-7.5-6.55-9.95-7.9l-.05,1.75c-.15,6-5.7,7.8-10.55,7.8-10.35,0-12.75-5.65-12.75-9,0-5.35,5.25-9.4,12.9-9.4,1.75,0,2.85,.2,3.85,.35v-4.1H6.49v-5.6H23.54v-4.5H5.59v-5.65H23.54v-4.55h6.6v4.55h15.15Zm-21.75,25.45c-.65-.2-2.2-.65-4.25-.65-3.5,0-6.3,1.5-6.3,3.85,0,.65,.35,3.6,5.7,3.6,2.45,0,4.85-.65,4.85-4.05v-2.75Z"/><path class="cls-3" d="M100.49,101.72c-1.95-.1-3.35-.15-4.5-.15-1.95,0-3.85,.1-5.6,.65-6.9,2.05-15.8,9.6-15.8,17.35,0,4.95,3.25,8.6,18.4,8.6,1.5,0,2.35-.05,3.25-.1l-1.05,7.2c-9.45-.2-27.5-.45-27.5-15.35,0-8.9,7.75-14.95,12.2-17.8-5.05,.35-16.85,1.25-21.35,1.8l-.45-7.2c3.3,0,5-.1,10.35-.45,12.15-.8,21.7-1.05,31.85-1.25l.2,6.7Zm-10.25,5.35c2.25,2.8,3.8,5.65,5.6,9.4l-4.1,2.4c-1.7-4-3-6.4-5.35-9.55l3.85-2.25Zm7.05-3.2c2.35,2.9,3.8,5.5,5.7,9.35l-4.1,2.3c-1.75-4-3-6.25-5.45-9.5l3.85-2.15Z"/><path class="cls-3" d="M137.49,117.07c6.55,2.25,12.8,5.65,17.5,10.1l-4.7,6.45c-3.05-3.2-8.05-7.05-13-9.45l.05,2.3c.15,7.45-6.4,9-11.25,9-9.8,0-12.75-5.4-12.75-9.65,0-6.6,6.6-10.25,14.4-10.25,1.3,0,1.95,.05,2.85,.2l-.2-22.65h7.05v7.35h15.9v6.6h-15.85v10Zm-6.85,4.8c-.95-.2-2.05-.45-3.7-.45-3.25,0-7.05,1.3-7.05,4.4,0,2,1.8,3.65,5.5,3.65,3.2,0,5.25-1.6,5.25-4.05v-3.55Z"/><path class="cls-3" d="M179.94,94.07c-.9,3.75-1.85,8.5-2,16.2,1.95-3.2,2.15-3.55,3.15-5.05l3.9,3c-1.8,2.25-3.35,4.7-4.7,7.25-1.7,3.15-1.85,4.7-1.95,6.2l-6.2,.35c-.25-1.85-.75-6.05-.75-11.8,0-8.35,1.1-14.1,1.65-16.85l6.9,.7Zm22.7-.4c.45,5.7,.75,11.4,.75,17.15,0,11.4-1.3,21.05-19.35,25.5l-5-5.1c16.7-4.2,17.25-10.8,17.25-21,0-5.8-.25-9.2-.8-16.55h7.15Z"/><path class="cls-2" d="M218.69,131.33c1.02-.06,6-.42,7.08-.48v-14.4h-7.08v-6.36h7.08v-26.16h44.46v6.36h-36.6v3.12h34.56v5.16h-34.56v3.18h34.56v5.22h-34.56v3.12h40.86v6.36h-6.9l4.14,3c-3.42,3.06-6.24,4.98-10.74,7.5,6.66,3.06,11.76,3.84,14.7,4.32l-3.42,7.68c-12.48-3.42-26.1-9.48-32.34-22.5h-6.3v13.8c5.94-.48,7.5-.6,15.42-1.8v6.66c-9.36,1.74-22.44,2.88-28.86,3.24l-1.5-7.02Zm28.98-14.88c1.02,1.62,2.34,3.78,6.72,6.78,2.16-1.26,5.34-3.36,9.18-6.78h-15.9Z"/><path class="cls-2" d="M295.97,88.07c-.6,4.02-1.56,10.38-1.56,18.36,0,6.24,.3,18.96,5.76,18.96,3.42,0,6.36-6.6,8.22-12l6.48,3.84c-3.18,9.06-7.98,17.28-15.12,17.28-11.16,0-13.26-16.44-13.26-29.22,0-6.42,.6-13.02,1.08-18l8.4,.78Zm32.4,40.8c.3-7.68,.78-26.34-10.44-35.58l6.36-4.38c8.94,8.28,12.78,16.38,12.78,39.54l-8.7,.42Z"/><path class="cls-3" d="M374.94,93.47l-.85,28.45h-5.8l-.85-28.45h7.5Zm-7.4,32.75h7.25v7.15h-7.25v-7.15Z"/></g><g><rect class="cls-1" x=".75" y=".75" width="154.79" height="62.35"/><rect class="cls-1" x="292.23" y=".75" width="154.79" height="62.35"/><g><path class="cls-3" d="M22.78,24.71c2.83-.95,8.4-3.15,12.56-9.42l5.04,.7c-.63,.98-.91,1.4-1.54,2.31h12.92v3.89c-3.81,5.77-7.56,8.5-10.85,10.74h13.26v14.91H30.9v-9.87c-2.28,.84-4.03,1.43-7.07,2.24l-1.79-4.51c7.07-1.29,10.61-3.04,13.2-4.34-2.28-2.31-4.45-3.92-5.74-4.83-1.47,.84-2.49,1.37-4.55,2.21l-2.17-4.03Zm12.53-2.52c-.42,.38-1.33,1.22-2.24,1.92,3.75,2.49,5.39,4.1,6.19,4.9,1.89-1.33,4.03-2.87,7-6.82h-10.96Zm14.49,14.77h-14.56v6.79h14.56v-6.79Z"/><path class="cls-3" d="M74.4,20.2v-4.58h4.62v4.58h14.25v4.45h-14.25v5.53h10.96v17.46h-26.42V30.17h10.85v-5.53h-14.14v-4.45h14.14Zm-6.37,14.21v8.96h17.46v-8.96h-17.46Z"/><path class="cls-3" d="M115.21,36.3c-1.29,.07-7.59,.28-9.03,.32l-.42-3.68h2.59c.77-1.29,.98-1.61,1.47-2.83h-4.79v1.4c0,9.73-1.5,13.44-3.57,17.01l-3.81-3.04c1.96-3.29,2.97-6.48,2.97-14v-14.74h28.91v8.33h-24.5v1.68h26.04v3.36h-5.32c1.61,1.75,3.18,3.5,4.51,5.42l-3.64,2.31c-.49-.77-.53-.84-1.43-2.17-1.75,.21-4.38,.38-5.67,.46v2.41h10.18v3.19h-10.18v2.73h11.55v3.43h-26.25v-3.43h10.39v-2.73h-8.89v-3.19h8.89v-2.24Zm9.94-16.38h-20.12v2.1h20.12v-2.1Zm-2.62,10.18h-7.88c-.28,.46-1.4,2.45-1.68,2.83,4.58-.04,6.76-.04,9.8-.28-.74-.84-1.16-1.19-1.75-1.75l1.5-.81Z"/></g><g><path class="cls-3" d="M176.13,49.13c4.45-7.85,7.4-19.15,8.45-24.9l-7.2,.05v-6.35h8.25c.45-3.2,.65-5.1,.9-8.7l7,.35c-.35,2.7-.5,3.95-1.2,8.35h4.5c7.4,0,10.9,3.4,10.9,14.05,0,3.65-.5,10.6-2.4,14.9-1.7,3.8-4.85,5.15-9.25,5.15-2.7,0-4.75-.25-5.5-.35l-.4-6.7c.9,.2,2.95,.6,5,.6,3.3,0,4-1.5,4.75-4.2,.7-2.6,1.3-6.6,1.3-10.15,0-5.7-1.3-7.15-6.25-7.1l-3.8,.05c-1.4,7.8-4.4,19.8-8.6,27.95l-6.45-3Zm37.8-12.15c-.25-7.25-2-14.5-6.35-20.3l5.65-2.8c5.1,6.1,7.1,14,7.65,21.9l-6.95,1.2Z"/><path class="cls-3" d="M243.58,17.98c-.9,3.35-1.2,5.75-1.35,11.85,4.8-3.25,9.8-4.95,15.55-4.95,11.5,0,13.85,7.85,13.85,12.25,0,11.2-9.55,14.9-23.3,14.9-4.6,0-7.55-.3-9.3-.5l-.8-6.45c2.3,.3,5.75,.75,9.95,.75,12.95,0,16.5-3.9,16.5-8.95,0-3.6-2.8-6.1-7.65-6.1-5.75,0-11.7,2.4-14.8,6.15-.05,.6-.1,.8-.15,1.25l-6.55-.25c.15-11.7,.25-14.3,1.3-20.6l6.75,.65Zm20.25,1.1c-1.4-.55-7.9-3.2-21.1-3.9l1.15-6.2c10.2,.35,16.1,1.5,21.6,3.15l-1.65,6.95Z"/></g><g><path class="cls-3" d="M315.73,29.09c3.71-2.24,7-5.43,9.1-10.36h19.25c-.52,5.42-2.21,23.17-23.73,28.63l-2.38-4.23c5.42-1.16,10.5-3.64,14.38-7.56-3.46-2.73-5.78-4.23-9.49-6.12-.94,.91-2.03,1.89-4.09,3.19l-3.04-3.54Zm12.21-6.09c-1.16,1.85-1.71,2.55-2.38,3.43,3.39,1.54,6.33,3.15,9.55,5.71,1.93-3.01,2.8-5.95,3.36-9.13h-10.54Z"/><path class="cls-3" d="M410.26,47.01h-4.97v-14.8c-5.64,3.5-10.26,5.07-12.22,5.71l-2.31-4.13c14.88-4.65,22.86-14.31,24.99-16.94l4.2,2.9c-1.37,1.51-4.69,5.25-9.7,9.03v18.23Z"/></g></g></g></g></svg>