<?xml version="1.0" encoding="UTF-8"?><svg id="_レイヤー_2" xmlns="http://www.w3.org/2000/svg" viewBox="0 0 400 182.54"><defs><style>.cls-1{fill:#fff;}.cls-2{fill:#595757;}.cls-3{fill:#231815;}</style></defs><g id="_レイアウト"><g><polygon class="cls-2" points="385 0 0 0 0 50 385 50 400 25 385 0"/><g><path class="cls-1" d="M38.16,18.84c-2.1,3.72-4.05,5.52-5.1,6.48l-2.43-2.4c1.86-1.68,2.85-2.88,4.29-5.4l3.24,1.32Zm8.82-7.38v2.16h12.27v3.39h-8.64v6.21c0,1.35-1.11,2.19-2.4,2.19h-3.33l-.57-3.66h1.98c.75,0,.75-.21,.75-.93v-3.81h-3.27c-.66,4.86-2.67,7.56-6.27,9.9l-2.34-2.61c4.56-2.67,4.95-5.7,5.16-7.29h-9.57v-3.39h12.36v-2.16h3.87Zm-2.1,14.01c-.42,.66-.54,.81-.99,1.32h10.86v3.15c-.99,1.17-2.43,2.88-5.49,4.74,3.84,.96,7.41,1.17,10.02,1.32l-1.47,3.75c-2.73-.18-7.8-.6-13.14-2.91-5.85,2.13-10.26,2.61-12.39,2.82l-1.11-3.39c1.86-.18,5.31-.48,9.69-1.65-1.65-1.2-2.43-2.1-3.18-2.97-1.95,1.11-3.45,1.68-4.68,2.16l-1.89-3.12c6.39-2.16,8.79-4.65,10.35-6.54l3.42,1.32Zm-4.5,4.47c2.22,2.04,3.96,2.88,4.65,3.24,2.43-1.14,3.78-2.31,4.92-3.3h-9.48l-.09,.06Zm16.62-4.29c-1.71-1.35-2.94-2.58-5.58-6.51l2.85-1.86c1.5,2.46,3.84,4.68,5.13,5.76l-2.4,2.61Z"/><path class="cls-1" d="M93.06,15.12h-10.5v1.11h11.97v6.51h-3.75v-4.14h-8.22v5.46h-3.36v-5.46h-8.13v4.14h-3.6v-6.51h11.73v-1.11h-10.26v-2.76h24.12v2.76Zm2.34,19.38c-.27,3.42-.84,5.01-3.21,5.01h-10.11c-1.66,0-3.03-.27-3.03-2.16v-2.31h-10.2v-10.29h24.15v9.09l2.4,.66Zm-17.34-14.82v1.5h-5.7v-1.5h5.7Zm0,2.55v1.56h-5.7v-1.56h5.7Zm.99,8.64h-6.63v1.68h6.63v-1.68Zm0-3.72h-6.51v1.62h6.51v-1.62Zm10.29,0h-6.72v1.62h6.72v-1.62Zm0,3.72h-6.72v1.68h6.72v-1.68Zm1.2,5.76c.81,0,1.14-.06,1.32-1.59h-9.24v.84c0,.6,.12,.75,.69,.75h7.23Zm-.9-16.95v1.5h-5.85v-1.5h5.85Zm0,2.55v1.56h-5.85v-1.56h5.85Z"/><path class="cls-1" d="M104.43,18.15h11.34v11.79h-7.83c-.06,1.5-.27,6.15-2.49,9.84l-2.94-2.88c1.59-2.7,1.92-5.55,1.92-8.73v-10.02Zm12.18-2.25h-13.62v-3.45h13.62v3.45Zm-8.61,5.61v4.95h4.26v-4.95h-4.26Zm23.01-6.72c-3.39,1.23-5.76,1.68-9.72,1.98v3.72h9.78v3.66h-2.85v15.63h-3.66v-15.63h-3.27c.03,5.94-.75,11.13-4.29,15.57l-3.24-2.55c3-3.54,3.9-6.93,3.9-11.34V13.47c1.2-.03,6.66-.15,11.4-2.16l1.95,3.48Z"/><path class="cls-1" d="M166.98,15.72v3.72h-1.11c-.39,8.13-2.16,11.16-2.94,12.51,1.86,2.49,3.78,3.72,4.65,4.26l-2.16,3.51c-1.71-1.14-3.18-2.34-4.89-4.56-2.16,2.37-4.41,3.72-5.64,4.44l-2.1-2.97-1.35,2.28c-.84-.54-1.44-.93-3.42-1.89-1.38,.93-3.42,2.04-7.56,2.97l-1.44-3.12c2.64-.36,4.14-.84,5.49-1.44-2.52-1.02-3.69-1.29-4.5-1.47,.63-.99,1.26-1.92,1.98-3.6h-2.97v-3.03h4.17c.33-.93,.48-1.59,.66-2.16l1.26,.21v-4.11c-1.8,2.28-3.54,3.48-4.71,4.23l-2.04-2.67c2.37-.99,4.2-2.79,5.07-3.66h-4.41v-2.88h1.95c-.42-1.56-.69-2.31-1.38-3.69l2.82-1.02c.6,1.14,1.14,2.55,1.5,3.96l-2.16,.75h3.36v-4.8h3.36v4.8h3.39l-2.73-.81c.42-.72,1.14-2.07,1.77-4.05l3.12,.78c-.63,1.68-1.02,2.43-1.83,4.08h1.47v2.88h-4.08c1.65,1.5,2.82,2.13,3.39,2.43l-1.95,2.46c-.57-.39-1.53-1.14-2.55-2.43v3.93h-2.19l1.02,.18c-.12,.48-.15,.69-.45,1.59h7.32v3.03h-1.53c-.27,.93-.72,2.37-1.98,4.17,.93,.39,1.68,.75,2.64,1.23l-.09,.15c2.91-1.2,4.53-2.97,5.37-3.9-1.35-2.79-2.01-6.03-2.31-7.8-.57,.9-.99,1.44-1.41,1.98l-2.67-2.79c2.88-3.78,4.14-8.49,4.59-12.09l3.63,.48c-.15,1.02-.27,1.92-.72,3.93h7.29Zm-21.33,14.64c-.39,.87-.69,1.5-1.02,2.1,.96,.27,1.74,.48,2.94,.87,1.08-1.23,1.44-2.22,1.71-2.97h-3.63Zm13.05-10.92c.42,4.29,1.32,7.11,2.1,8.91,.69-1.65,1.47-4.5,1.56-8.91h-3.66Z"/></g></g><g><path class="cls-3" d="M296.4,179.24c2.67-4.71,4.44-11.48,5.07-14.93l-4.32,.03v-3.83h4.95c.27-1.92,.39-3.06,.54-5.22l4.2,.21c-.21,1.62-.3,2.37-.72,5.01h2.7c4.44,0,6.54,2.05,6.54,8.44,0,2.19-.3,6.35-1.44,8.93-1.02,2.28-2.91,3.09-5.55,3.09-1.62,0-2.85-.15-3.3-.21l-.24-4.02c.54,.12,1.77,.36,3,.36,1.98,0,2.4-.9,2.85-2.52,.42-1.56,.78-3.96,.78-6.08,0-3.42-.78-4.29-3.75-4.26l-2.28,.03c-.84,4.67-2.64,11.87-5.16,16.76l-3.87-1.8Zm22.68-7.28c-.15-4.34-1.2-8.7-3.81-12.19l3.39-1.68c3.06,3.67,4.26,8.41,4.59,13.15l-4.17,.72Z"/><path class="cls-3" d="M328.65,160.91h11.34v11.79h-7.83c-.06,1.5-.27,6.15-2.49,9.84l-2.94-2.88c1.59-2.7,1.92-5.55,1.92-8.73v-10.02Zm12.18-2.25h-13.62v-3.45h13.62v3.45Zm-8.61,5.61v4.95h4.26v-4.95h-4.26Zm23.01-6.72c-3.39,1.23-5.76,1.68-9.72,1.98v3.72h9.78v3.66h-2.85v15.63h-3.66v-15.63h-3.27c.03,5.94-.75,11.13-4.29,15.57l-3.24-2.55c3-3.54,3.9-6.93,3.9-11.34v-12.36c1.2-.03,6.66-.15,11.4-2.16l1.95,3.48Z"/></g></g></svg>