<?xml version="1.0" encoding="UTF-8"?><svg id="_レイヤー_2" xmlns="http://www.w3.org/2000/svg" viewBox="0 0 434.91 138.5"><defs><style>.cls-1{fill:none;stroke:#231815;stroke-miterlimit:10;stroke-width:1.5px;}.cls-2{fill:#bf1920;}.cls-3{fill:#231815;}</style></defs><g id="_レイアウト"><g><g><path class="cls-3" d="M16.74,93.05c-3.35,6.8-8.9,11.5-13.05,14.15l-2.4-6.35c3.75-2.15,7.8-6.45,9.7-9.9l5.75,2.1Zm1.2,12.5c-.95,2.15-2.25,4.65-4.85,7.9v24.95H6.99v-18.4c-1.3,1.15-2.2,1.8-3.55,2.85l-2.1-7.35c5.5-3.8,8.4-7.45,11.65-13.55l4.95,2.55v-4h16.55c-1.85-1.4-5.75-3.9-10.3-5.65l4.05-4.15c4.4,1.5,7.25,2.85,11,5.5l-4.25,4.3h13v6h-12.05v8.6h10.35v5.95h-10.35v9.9h13.1v6H16.34v-6h13.35v-9.9h-10.2v-5.95h10.2v-8.6h-11.75v-.95Z"/><path class="cls-3" d="M55.29,100.7c4.35-2.9,7.25-6.5,9.15-9.9l5.55,2c-2.55,5.1-6.9,10.35-12.2,13.9l-2.5-6Zm15.75,4.5c-1,2.35-2.4,5.35-4.6,8.4v24.8h-6.05v-18c-1.35,1.25-1.8,1.65-2.7,2.4l-2.4-7.2c4.35-3.05,8.55-8.75,10.5-13.4l5.25,3Zm-3.55,20.25c5.25-1.6,8.65-4.25,11.1-7h-5.35v-14.5c-.2,.15-.35,.3-.85,.7l-4.45-3.85c3.95-2.85,6.25-5.6,8.15-9.75l5.9,.65c-.3,.85-.55,1.4-1.2,2.8h22.45v4.9h-25.6c-.7,.9-1.25,1.45-1.8,2.05h24.75v17h-15.95c-.45,.8-.85,1.35-1.5,2.3h15.9v4.1c-1.05,1.4-2.75,3.55-6.55,6.15,3.9,.9,7.6,1.3,11.5,1.6l-1.85,5.9c-3.4-.35-9.25-1.05-16.45-4.05-7.8,3-13.85,3.7-16.55,4l-1.65-5.6c2.3-.1,6.25-.35,12-1.8-2.25-1.7-3.3-2.95-3.75-3.55-2.6,1.7-4.2,2.25-5.6,2.8l-2.65-4.85Zm11.65-20.1v2.7h15.6v-2.7h-15.6Zm0,6.35v2.8h15.6v-2.8h-15.6Zm.5,13.25c.7,.7,2.35,2.45,5.85,4.05,3.35-1.65,4.65-2.9,5.85-4.05h-11.7Z"/><path class="cls-3" d="M136.49,121.05c-.2,4.55-.7,10.25-1.9,14.6l-4.8-2.35c1.2-4.1,1.8-9.05,1.85-12.95l4.85,.7Zm-6.4-8.35c1.9,0,2.8,0,3.75-.05,.9-1.15,1.9-2.5,2.6-3.5-1.9-2.45-4.1-4.7-6.6-6.65l2.95-4.85c.7,.5,.9,.7,1.3,.95,2.1-3.25,3.35-5.95,4.15-7.55l5.1,1.9c-1.6,3.55-4.5,7.9-5.5,9.2,.55,.55,1.05,1.1,1.95,2.2,2.7-4,3.95-6.45,4.85-8.15l5.25,2.1c-2,3.6-4.1,6.85-9.85,14.05,1.5-.05,3.75-.2,5.15-.35-.6-1.85-.9-2.5-1.35-3.45l4.5-1.55c.75,1.45,2.3,4.3,3.9,10l-5.2,1.7c-.25-1-.35-1.45-.5-2.05-.7,.1-2.45,.35-3.05,.4v21.35h-5.6v-20.75c-3.5,.35-5.75,.5-7.65,.65l-.15-5.6Zm19.25,7.25c1.45,5.05,1.95,10.2,2.05,11.55l-5.25,.85c-.1-2.35-.7-8.5-1.4-11.55l4.6-.85Zm13.5-28.25c-.35,1.6-.75,3.45-1.75,6.2h14.8c-.4,22.85-.55,33.3-2,36.95-.35,.8-1.5,3.55-4.65,3.55h-11l-1.2-6.3h8.9c1.4,0,2.1-.15,2.5-1.6,.2-.7,1.1-11.55,1.1-26.75h-11c-2.2,4.25-4,6.15-5.2,7.45l-4.3-4.95c3.05-3.15,6.15-8.4,7.55-15.05l6.25,.5Zm-3.7,18.4c2.3,3.15,4.7,7.3,6.2,11.95l-5.5,2.9c-1.1-3.15-3.35-8.4-6.05-12.25l5.35-2.6Z"/><path class="cls-2" d="M183.77,129.14c-.29,0-.44-.15-.44-.44v-7.14l17.5-37.43s.11-.1,.18-.16c.07-.06,.15-.09,.22-.09h8.35c.15,0,.26,.06,.35,.18,.09,.12,.09,.27,.02,.44l-17.36,36.73h12.49v-14.61c0-.27,.15-.4,.44-.4h7.47c.29,0,.44,.13,.44,.4v14.61h3.77c.27,0,.4,.15,.4,.44v7.03c0,.29-.13,.44-.4,.44h-3.77v7.29c0,.29-.15,.44-.44,.44h-7.47c-.29,0-.44-.15-.44-.44v-7.29h-21.31Z"/><path class="cls-3" d="M271.19,93.55v43.3h-43.2v-43.3h43.2Zm-37.05,5.8v31.5h30.85v-31.5h-30.85Zm26.65,4.4v22.5h-22.55v-22.5h22.55Zm-17,5.15v12.1h11.35v-12.1h-11.35Z"/><path class="cls-3" d="M287.89,110.95c-1.95,1.7-3.15,2.55-4.4,3.4l-4.1-5.5c7.65-5.15,11.65-10.4,14.4-17.65l6.15,1.25c-2.45,6.6-5,11.05-9.7,16.15h27.45c-4.7-5.3-7.9-10.55-9.95-15.8l6.15-1.65c3.35,7.95,7.65,13.1,14,17.6l-4.1,5.3c-1.25-.85-2.35-1.6-4.5-3.75,.15,7.9-.7,20.35-2.4,24.3-1.6,3.65-4.65,3.75-6.35,3.75h-8.15l-1.2-6.25h7.45c2.05,0,2.55-1.3,2.75-1.85,1.1-3,1.25-7.55,1.6-15.7h-10.35c-1.4,14.25-9.85,20.2-18.35,23.8l-3.7-5.75c10.7-4.3,15.1-9.4,15.75-18.05h-8.45v-3.6Z"/><path class="cls-3" d="M361.39,93.95l-.85,28.45h-5.8l-.85-28.45h7.5Zm-7.4,32.75h7.25v7.15h-7.25v-7.15Z"/></g><g><rect class="cls-1" x=".75" y=".75" width="154.79" height="62.35"/><g><g><path class="cls-3" d="M52.74,17.15v30.52H25.16V17.15h27.58Zm-23,12.91h18.34v-8.61H29.74v8.61Zm0,4.24v9.03h18.34v-9.03H29.74Z"/><path class="cls-3" d="M112.34,38.82v-9.45c-3.43,6.96-8.47,11.62-12.21,14.28l-2.52-4.3c7.07-4.69,10.46-9.13,12.88-14h-12.39v-4.3h14.25v-5.43h4.34v5.43h14.32v4.3h-12.53c2.52,5.42,8.19,11.17,12.98,13.83l-2.48,4.48c-1.05-.73-2.87-2.03-5.56-4.72v3.96h-6.79v5.84h-4.27v-5.84h-6.61v-4.06h6.61Zm10.96,0c-3.43-3.64-5.11-6.4-6.69-9.45v9.45h6.69Z"/></g><g><path class="cls-3" d="M185.76,26.29v4.83h21.52v2.1h-21.52v4.83l-9.94-5.88,9.94-5.88Z"/><path class="cls-3" d="M219.15,38.05v-4.83h-21.52v-2.1h21.52v-4.83l9.94,5.88-9.94,5.88Z"/></g><g><path class="cls-3" d="M289.92,19.67l5.07,5.92c-.88,4.48-1.99,8.96-5.77,13.26-2.9,3.29-8.02,6.79-15.19,8.05l-2.13-4.38c14.45-2.52,17.18-10.61,18.3-18.27h-20.75v-4.58h20.48Zm2.52-4.17c1.61,1.82,2.69,3.54,4.13,6.23l-2.38,1.68c-1.26-2.66-2.17-4.09-3.96-6.37l2.21-1.54Zm4.97-1.05c1.65,1.99,2.59,3.61,3.96,6.37l-2.42,1.61c-1.23-2.77-2.03-4.13-3.78-6.51l2.24-1.47Z"/><path class="cls-3" d="M335.21,26.6c-.52,5.6-2.48,12.21-7.42,15.71-2.1,1.47-6.33,3.78-15.29,4.62l-1.4-4.41c9.13-.53,16.66-2.73,18.62-11.62h-22.43v-4.3h27.93Zm-2.17-8.29v4.27h-23.24v-4.27h23.24Z"/><path class="cls-3" d="M355.13,34.16c-2.03-1.22-5.25-2.8-10.15-4.2l1.68-3.92c2.56,.59,6.44,1.75,10.29,3.95l-1.82,4.17Zm-8.16,7.46c13.16-1.19,18.83-5.63,22.79-18.03l4.02,2.9c-4.9,13.48-11.94,18.34-25.76,20.16l-1.05-5.04Zm11.17-15.82c-4.3-2.28-8.08-3.36-10.4-3.99l1.72-3.81c4.44,.88,8.22,2.59,10.57,3.67l-1.89,4.13Zm9.56-10.71c1.4,2.1,2.1,3.75,3.25,6.75l-2.73,1.33c-.91-2.77-1.47-4.17-3.08-6.86l2.56-1.23Zm5.67-.14c1.47,2.34,2.24,4.23,3.12,6.82l-2.73,1.26c-.91-2.9-1.51-4.34-2.94-6.89l2.56-1.19Z"/><path class="cls-3" d="M390.76,26.71c0,13.02-3.57,17.74-6.41,20.51l-3.54-3.54c3.26-3.5,5.32-7.04,5.32-16.59v-8.5h4.62v8.12Zm9.34,14.04c3.5-1.54,7.04-3.08,8.61-12.21l4.41,1.89c-1.44,6.3-4.58,15.43-17.67,16.13V17.68h4.65v23.07Z"/></g><rect class="cls-1" x="249.36" y=".75" width="184.79" height="62.35"/></g></g></g></g></svg>