<?xml version="1.0" encoding="UTF-8"?><svg id="_レイヤー_2" xmlns="http://www.w3.org/2000/svg" viewBox="0 0 404.91 138.5"><defs><style>.cls-1{fill:none;stroke:#231815;stroke-miterlimit:10;stroke-width:1.5px;}.cls-2{fill:#bf1920;}.cls-3{fill:#231815;}</style></defs><g id="_レイアウト"><g><g><path class="cls-3" d="M16.74,93.05c-3.35,6.8-8.9,11.5-13.05,14.15l-2.4-6.35c3.75-2.15,7.8-6.45,9.7-9.9l5.75,2.1Zm1.2,12.5c-.95,2.15-2.25,4.65-4.85,7.9v24.95H6.99v-18.4c-1.3,1.15-2.2,1.8-3.55,2.85l-2.1-7.35c5.5-3.8,8.4-7.45,11.65-13.55l4.95,2.55v-4h16.55c-1.85-1.4-5.75-3.9-10.3-5.65l4.05-4.15c4.4,1.5,7.25,2.85,11,5.5l-4.25,4.3h13v6h-12.05v8.6h10.35v5.95h-10.35v9.9h13.1v6H16.34v-6h13.35v-9.9h-10.2v-5.95h10.2v-8.6h-11.75v-.95Z"/><path class="cls-3" d="M55.29,100.7c4.35-2.9,7.25-6.5,9.15-9.9l5.55,2c-2.55,5.1-6.9,10.35-12.2,13.9l-2.5-6Zm15.75,4.5c-1,2.35-2.4,5.35-4.6,8.4v24.8h-6.05v-18c-1.35,1.25-1.8,1.65-2.7,2.4l-2.4-7.2c4.35-3.05,8.55-8.75,10.5-13.4l5.25,3Zm-3.55,20.25c5.25-1.6,8.65-4.25,11.1-7h-5.35v-14.5c-.2,.15-.35,.3-.85,.7l-4.45-3.85c3.95-2.85,6.25-5.6,8.15-9.75l5.9,.65c-.3,.85-.55,1.4-1.2,2.8h22.45v4.9h-25.6c-.7,.9-1.25,1.45-1.8,2.05h24.75v17h-15.95c-.45,.8-.85,1.35-1.5,2.3h15.9v4.1c-1.05,1.4-2.75,3.55-6.55,6.15,3.9,.9,7.6,1.3,11.5,1.6l-1.85,5.9c-3.4-.35-9.25-1.05-16.45-4.05-7.8,3-13.85,3.7-16.55,4l-1.65-5.6c2.3-.1,6.25-.35,12-1.8-2.25-1.7-3.3-2.95-3.75-3.55-2.6,1.7-4.2,2.25-5.6,2.8l-2.65-4.85Zm11.65-20.1v2.7h15.6v-2.7h-15.6Zm0,6.35v2.8h15.6v-2.8h-15.6Zm.5,13.25c.7,.7,2.35,2.45,5.85,4.05,3.35-1.65,4.65-2.9,5.85-4.05h-11.7Z"/><path class="cls-2" d="M111.19,136.87c-.29,0-.44-.15-.44-.44v-7.14l20.51-25.67v.04c.76-.95,1.25-1.83,1.46-2.62,.22-.79,.33-1.57,.33-2.33,0-1.68-.61-3.27-1.83-4.76-1.22-1.46-2.87-2.2-4.94-2.2-1.9,0-3.55,.65-4.94,1.94-.68,.63-1.2,1.39-1.56,2.25-.35,.87-.58,1.85-.68,2.95,0,.12-.04,.22-.13,.29s-.19,.11-.31,.11h-7.47c-.29,0-.44-.15-.44-.44,.05-4.34,1.53-8,4.43-10.95,2.95-3,6.47-4.5,10.55-4.5,4.42,0,8.14,1.51,11.17,4.54h-.04c3,3,4.5,6.62,4.5,10.84,0,1.83-.27,3.53-.81,5.09-.54,1.56-1.34,3.02-2.42,4.36v-.04c-1.39,1.76-2.76,3.48-4.1,5.16-1.34,1.68-2.69,3.36-4.03,5.04-1.34,1.67-2.69,3.34-4.03,5.02-1.34,1.67-2.71,3.39-4.1,5.15h19.04c.29,0,.44,.15,.44,.44v7.43c0,.29-.15,.44-.44,.44h-29.74Z"/><path class="cls-2" d="M163.74,113.29c-.29,0-.44-.15-.44-.44v-6.55c0-.29,.15-.44,.44-.44h2.56c2.37,0,4.24-.66,5.6-1.98,1.34-1.27,2.01-2.94,2.01-5.02,0-1.95-.7-3.62-2.09-5.02s-3.09-2.09-5.09-2.09c-1.46,0-2.87,.5-4.21,1.5-1.34,.98-2.2,2.45-2.56,4.43-.02,.1-.08,.18-.17,.26s-.16,.11-.24,.11h-7.51c-.12,0-.23-.05-.31-.15-.09-.1-.12-.21-.09-.33,.24-3.74,1.83-7.04,4.76-9.92,2.88-2.83,6.23-4.25,10.03-4.25,2.37,0,4.51,.4,6.43,1.21,1.92,.81,3.61,1.99,5.07,3.55,1.39,1.54,2.46,3.21,3.2,5,.74,1.79,1.12,3.64,1.12,5.55,0,2.08-.4,4.1-1.21,6.08-.39,.88-.93,1.71-1.61,2.49-.68,.78-1.49,1.51-2.42,2.2,1.95,1.39,3.41,3.06,4.36,5.02,.98,2.1,1.46,4.24,1.46,6.41,0,4.96-1.57,8.95-4.72,11.98-3.1,2.95-6.95,4.43-11.54,4.43-1.83,0-3.56-.29-5.18-.88s-3.18-1.46-4.67-2.64c-1.46-1.2-2.64-2.64-3.53-4.32s-1.51-3.66-1.85-5.93c-.05-.32,.1-.48,.44-.48h7.47c.17,0,.31,.1,.4,.29,.32,.85,.69,1.62,1.12,2.31,.43,.68,.93,1.28,1.52,1.78,.59,.5,1.26,.88,2.03,1.15,.77,.27,1.67,.4,2.69,.4,1.93,0,3.66-.7,5.2-2.09,1.51-1.34,2.27-3.26,2.27-5.75s-.76-4.41-2.27-5.75c-1.54-1.42-3.32-2.12-5.35-2.12h-3.15Z"/><path class="cls-3" d="M239.14,93.55v43.3h-43.2v-43.3h43.2Zm-37.05,5.8v31.5h30.85v-31.5h-30.85Zm26.65,4.4v22.5h-22.55v-22.5h22.55Zm-17,5.15v12.1h11.35v-12.1h-11.35Z"/><path class="cls-3" d="M255.84,110.95c-1.95,1.7-3.15,2.55-4.4,3.4l-4.1-5.5c7.65-5.15,11.65-10.4,14.4-17.65l6.15,1.25c-2.45,6.6-5,11.05-9.7,16.15h27.45c-4.7-5.3-7.9-10.55-9.95-15.8l6.15-1.65c3.35,7.95,7.65,13.1,14,17.6l-4.1,5.3c-1.25-.85-2.35-1.6-4.5-3.75,.15,7.9-.7,20.35-2.4,24.3-1.6,3.65-4.65,3.75-6.35,3.75h-8.15l-1.2-6.25h7.45c2.05,0,2.55-1.3,2.75-1.85,1.1-3,1.25-7.55,1.6-15.7h-10.35c-1.4,14.25-9.85,20.2-18.35,23.8l-3.7-5.75c10.7-4.3,15.1-9.4,15.75-18.05h-8.45v-3.6Z"/><path class="cls-3" d="M329.34,93.95l-.85,28.45h-5.8l-.85-28.45h7.5Zm-7.4,32.75h7.25v7.15h-7.25v-7.15Z"/></g><g><g><path class="cls-3" d="M22.78,24.71c2.83-.95,8.4-3.15,12.56-9.42l5.04,.7c-.63,.98-.91,1.4-1.54,2.31h12.92v3.89c-3.81,5.77-7.56,8.5-10.85,10.75h13.27v14.91H30.9v-9.87c-2.28,.84-4.03,1.44-7.07,2.24l-1.78-4.52c7.07-1.29,10.6-3.04,13.19-4.34-2.27-2.31-4.44-3.92-5.74-4.83-1.47,.84-2.48,1.37-4.55,2.21l-2.17-4.02Zm12.53-2.52c-.42,.38-1.33,1.23-2.24,1.92,3.75,2.48,5.39,4.1,6.19,4.9,1.89-1.33,4.02-2.87,7-6.82h-10.96Zm14.49,14.77h-14.56v6.79h14.56v-6.79Z"/><path class="cls-3" d="M74.4,20.2v-4.58h4.62v4.58h14.25v4.44h-14.25v5.53h10.96v17.46h-26.42V30.17h10.85v-5.53h-14.14v-4.44h14.14Zm-6.37,14.21v8.96h17.46v-8.96h-17.46Z"/><path class="cls-3" d="M115.21,36.3c-1.29,.07-7.6,.28-9.03,.31l-.42-3.67h2.59c.77-1.3,.98-1.61,1.47-2.84h-4.79v1.4c0,9.73-1.5,13.44-3.57,17.01l-3.81-3.04c1.96-3.29,2.97-6.48,2.97-14v-14.73h28.91v8.33h-24.5v1.68h26.04v3.36h-5.32c1.61,1.75,3.18,3.5,4.51,5.43l-3.64,2.31c-.49-.77-.53-.84-1.44-2.17-1.75,.21-4.38,.38-5.67,.45v2.42h10.18v3.19h-10.18v2.73h11.55v3.43h-26.25v-3.43h10.4v-2.73h-8.89v-3.19h8.89v-2.24Zm9.94-16.38h-20.12v2.1h20.12v-2.1Zm-2.62,10.18h-7.88c-.28,.46-1.4,2.45-1.68,2.84,4.58-.04,6.76-.04,9.8-.28-.73-.84-1.16-1.19-1.75-1.75l1.5-.81Z"/></g><g><path class="cls-3" d="M185.76,26.29v4.83h21.52v2.1h-21.52v4.83l-9.94-5.88,9.94-5.88Z"/><path class="cls-3" d="M219.15,38.05v-4.83h-21.52v-2.1h21.52v-4.83l9.94,5.88-9.94,5.88Z"/></g><rect class="cls-1" x=".75" y=".75" width="154.79" height="62.35"/><g><path class="cls-3" d="M303.97,22.19h-14.25v1.71h12.11v13.72h-8.96c4.73,3.99,9.66,5.63,11.66,6.19l-2.52,4.34c-3.68-1.44-8.61-4.58-12.29-8.71v9.21h-4.27v-9.14c-2.31,2.94-6.58,6.33-12.39,8.82l-2.52-4.27c7.66-2.77,10.36-5.18,11.79-6.44h-8.89v-13.72h12v-1.71h-14.31v-3.89h14.31v-2.62h4.27v2.62h14.25v3.89Zm-26.42,7.1h7.91v-2.14h-7.91v2.14Zm0,5.11h7.91v-2.13h-7.91v2.13Zm12.18-7.25v2.14h7.98v-2.14h-7.98Zm0,5.11v2.13h7.98v-2.13h-7.98Z"/><path class="cls-3" d="M346.32,44.7c3.88-2.56,6.19-5.71,7.25-7.28l3.71,2.2c-1.75,2.7-4.83,6.3-7.95,8.47l-3.01-3.4Zm33.25-22.26h-32.87v-4.13h13.97v-2.69h4.55v2.69h14.35v4.13Zm-3.33,14.35h-11.02v8.44c0,.84,0,3.54-3.22,3.54h-5.78l-.88-4.48h4.52c.67,0,1.05-.04,1.05-.91v-6.58h-10.92v-12.11h26.25v12.11Zm-4.44-8.33h-17.43v4.51h17.43v-4.51Zm.17,8.89c2.14,2.87,4.66,5.11,7.81,6.86l-3.04,3.71c-3.96-2.52-5.77-4.52-8.58-8.37l3.81-2.21Z"/></g><rect class="cls-1" x="249.36" y=".75" width="154.79" height="62.35"/></g></g></g></svg>