<?xml version="1.0" encoding="UTF-8"?><svg id="_レイヤー_2" xmlns="http://www.w3.org/2000/svg" viewBox="0 0 353.7 170.55"><defs><style>.cls-1{fill:#bf1920;}.cls-2{fill:#fff;stroke:#231815;stroke-miterlimit:10;}.cls-3{fill:#231815;}</style></defs><g id="_バック"><path class="cls-2" d="M316.49,73.33l35.87,14.54-35.87,14.54v47.65c0,11.05-8.95,20-20,20H20.5c-11.05,0-20-8.95-20-20V20.5c0-11.05,8.95-20,20-20H296.49c11.05,0,20,8.95,20,20v52.83Z"/><g><path class="cls-3" d="M52.88,26.15v-4.92h3.81v4.92h11.16v15.18h-11.16v8.19h-3.81v-8.19h-10.98v-15.18h10.98Zm0,3.69h-7.2v7.83h7.2v-7.83Zm11.16,0h-7.35v7.83h7.35v-7.83Z"/><path class="cls-3" d="M79.28,23.87v-2.52h3.63v2.52h5.61v3.3h-1.65c-.18,1.44-.57,3.3-1.05,5.13h3.15v3.3h-15.9v-3.3h3.27c-.09-1.56-.36-3.72-.75-5.13h-1.92v-3.3h5.61Zm8.79,25.14h-13.8v-11.76h13.8v11.76Zm-3.45-8.55h-6.84v5.37h6.84v-5.37Zm-2.19-8.16c.45-1.53,.78-3.48,1.02-5.13h-4.56c.36,1.74,.63,3.09,.81,5.13h2.73Zm7.53,17.19V21.98h11.07v3.24c-.9,2.61-1.56,4.2-3.03,7.35,2.82,3.12,3.54,6.3,3.54,8.73,0,1.2-.27,3.21-1.59,4.38-.78,.69-1.83,.99-3.24,.99h-2.07l-.57-3.63h1.74c.84,0,1.86-.12,1.86-2.43,0-3.96-2.31-6.21-3.54-7.41,.96-1.98,2.37-5.7,2.91-7.86h-3.45v24.15h-3.63Z"/><path class="cls-3" d="M114.11,31.85h-1.8v8.64c1.05-.33,1.53-.48,2.28-.78l.18,3.42c-2.49,1.14-6.57,2.37-9.03,2.97l-.6-3.9c.93-.15,1.92-.3,3.57-.72v-9.63h-3.21v-3.54h3.21v-7.08h3.6v7.08h2.46v2.49l1.38-.36v-6.87h3.54v5.94l3.03-.81v-7.47h3.57v6.54l6.72-1.77c.09,2.82-.06,9.27-.51,12.27-.15,1.02-.54,2.91-2.91,2.91h-2.28l-.6-3.66h1.44c.63,0,.87-.12,1.05-.75,.3-1.2,.33-4.68,.33-6.15l-3.24,.87v10.77h-3.57v-9.81l-3.03,.78v11.4c0,.57,.18,.72,.84,.72h8.46c.93,0,1.29,0,1.5-3.69l3.42,.84c-.18,4.35-1.08,6.51-3.6,6.51h-11.28c-2.31,0-2.88-1.29-2.88-2.7v-12.12l-1.65,.42-.39-2.76Z"/><path class="cls-3" d="M149.45,35.75c-.78,5.07-3.06,9.9-9.78,13.74l-2.34-3.63c6.27-3.48,8.73-7.26,8.79-17.31h-8.25v-3.69h12.09v-3.63h3.99v3.63h12.27v3.69h-16.2c0,.93-.03,2.04-.15,3.63h13.41c-.15,6.81-.78,12.78-1.71,14.85-.93,2.1-2.28,2.4-4.53,2.4h-6.06l-.75-3.84h5.97c.93,0,1.62,0,2.1-1.47,.42-1.32,.84-4.92,.93-8.37h-9.78Z"/><path class="cls-3" d="M177.95,23.27c-.39,1.83-1.26,6.15-1.26,13.77,0,6.06,.57,9.21,.84,10.65l-4.2,.3c-.27-1.65-.72-4.53-.72-10.29,0-7.89,.75-12.63,1.11-14.73l4.23,.3Zm7.68,13.05c-1.2,1.59-1.44,2.97-1.44,3.63,0,2.22,2.55,2.52,5.4,2.52,2.22,0,4.83-.12,7.05-.36v4.11c-1.14,.12-2.97,.27-5.61,.27-5.52,0-10.53-.69-10.53-5.97,0-.72,.06-2.67,1.56-5.19l3.57,.99Zm10.44-11.16v3.9h-14.67v-3.9h14.67Z"/><path class="cls-3" d="M217.64,44.69c2.34-.12,7.89-.57,7.89-5.46,0-3.36-2.73-4.29-4.08-4.77-2.31,8.43-7.74,12.3-12.06,12.3-3.3,0-5.31-2.52-5.31-5.82s1.8-6.18,4.68-7.86c.9-.51,1.59-.81,2.16-1.05-.03-1.11-.06-1.83-.06-3.36h-5.79v-3.63h5.82v-2.64l3.92,.06-.03,2.58h13.72v3.63h-13.83c0,.39-.03,2.04-.03,2.37,.87-.12,1.83-.27,3.58-.27,8.21,0,11.36,4.32,11.36,8.91,0,7.65-8.3,8.34-10.88,8.58l-1.06-3.57Zm-6.48-9.12c-2.1,1.2-3.54,3-3.54,5.1,0,1.32,.63,2.61,2.19,2.61,1.32,0,2.22-.57,2.67-.81-.78-2.13-1.23-5.88-1.32-6.9Zm6.99-1.62c-1.11,0-1.83,0-3.45,.33,.03,1.2,.12,3.09,.72,5.46,.72-.96,1.74-2.76,2.73-5.79Z"/><path class="cls-3" d="M256.25,26.18c-1.62,1.11-4.8,3.6-7.17,5.46,1.41-.39,2.79-.6,3.81-.6,3.57,0,8.19,1.98,8.19,7.89s-4.65,9.24-11.07,9.24c-5.55,0-8.04-2.58-8.04-5.25s2.37-4.68,5.55-4.68c2.73,0,6.03,1.62,7.23,5.19,1.74-1.08,2.4-2.85,2.4-4.38,0-2.76-1.86-4.77-5.88-4.77-4.65,0-8.07,2.52-12.63,6.84l-2.25-3.36c1.23-.9,6.48-4.92,13.35-10.95-3.21,.21-6.27,.36-10.08,.42v-3.87c6.57,.03,9.48,0,16.59-.3v3.12Zm-8.82,15.15c-1.23,0-1.98,.78-1.98,1.41,0,1.41,1.68,2.31,4.2,2.31,1.02,0,1.65-.15,1.92-.21-.75-2.19-2.07-3.51-4.14-3.51Z"/><path class="cls-3" d="M65.48,60.01v21.18h-21.87v-3.93h17.67v-13.38h-17.34v-3.87h21.54Z"/><path class="cls-3" d="M84.56,67.06c-1.32-.9-4.41-2.88-9.3-4.47l1.83-3.45c2.19,.66,5.55,1.77,9.63,4.23l-2.16,3.69Zm-8.73,11.25c8.91-.72,17.25-3.69,21.09-17.76l3.51,2.46c-3.57,11.07-9.75,18.12-23.7,19.65l-.9-4.35Z"/><path class="cls-3" d="M113.33,66.88c2.19-.54,7.08-1.77,12.69-4.77l1.89,3.72c-6.87,3.15-12.06,4.38-14.58,4.95v5.64c0,1.74,.39,1.92,2.85,1.92h7.77c2.01,0,4.65-.18,6.69-.6l.24,4.08c-1.44,.27-4.02,.42-5.85,.42h-9.57c-3.27,0-6.21-.51-6.21-4.77v-19.05h4.08v8.46Zm14.1-10.38c1.32,1.8,2.1,3.36,3.06,5.64l-2.28,1.23c-.9-2.37-1.56-3.69-2.91-5.73l2.13-1.14Zm4.35-1.29c1.35,1.83,2.16,3.57,3.03,5.67l-2.28,1.23c-.9-2.43-1.5-3.63-2.88-5.76l2.13-1.14Z"/><path class="cls-3" d="M164.6,76.3v3.96h-25.14v-3.96h25.14Zm-2.31-15.78v3.96h-20.58v-3.96h20.58Z"/><path class="cls-3" d="M184.13,79.12c3.78-.36,9.36-1.8,9.36-9.09,0-4.68-2.52-7.68-7.23-8.01-.51,8.19-3.03,18.54-9.21,18.54-3.81,0-5.94-4.29-5.94-8.79,0-8.64,6.48-13.53,14.07-13.53,8.94,0,12.54,5.82,12.54,11.97,0,3.54-1.14,7.26-4.14,9.78-2.1,1.77-5.13,2.67-8.16,2.97l-1.29-3.84Zm-9.15-7.26c0,1.41,.45,4.38,2.25,4.38,1.59,0,4.23-3.15,5.16-14.01-4.59,.99-7.41,4.68-7.41,9.63Z"/><path class="cls-3" d="M47.68,132.35c-.2,4.55-.7,10.25-1.9,14.6l-4.8-2.35c1.2-4.1,1.8-9.05,1.85-12.95l4.85,.7Zm-6.4-8.35c1.9,0,2.8,0,3.75-.05,.9-1.15,1.9-2.5,2.6-3.5-1.9-2.45-4.1-4.7-6.6-6.65l2.95-4.85c.7,.5,.9,.7,1.3,.95,2.1-3.25,3.35-5.95,4.15-7.55l5.1,1.9c-1.6,3.55-4.5,7.9-5.5,9.2,.55,.55,1.05,1.1,1.95,2.2,2.7-4,3.95-6.45,4.85-8.15l5.25,2.1c-2,3.6-4.1,6.85-9.85,14.05,1.5-.05,3.75-.2,5.15-.35-.6-1.85-.9-2.5-1.35-3.45l4.5-1.55c.75,1.45,2.3,4.3,3.9,10l-5.2,1.7c-.25-1-.35-1.45-.5-2.05-.7,.1-2.45,.35-3.05,.4v21.35h-5.6v-20.75c-3.5,.35-5.75,.5-7.65,.65l-.15-5.6Zm19.25,7.25c1.45,5.05,1.95,10.2,2.05,11.55l-5.25,.85c-.1-2.35-.7-8.5-1.4-11.55l4.6-.85Zm13.5-28.25c-.35,1.6-.75,3.45-1.75,6.2h14.8c-.4,22.85-.55,33.3-2,36.95-.35,.8-1.5,3.55-4.65,3.55h-11l-1.2-6.3h8.9c1.4,0,2.1-.15,2.5-1.6,.2-.7,1.1-11.55,1.1-26.75h-11c-2.2,4.25-4,6.15-5.2,7.45l-4.3-4.95c3.05-3.15,6.15-8.4,7.55-15.05l6.25,.5Zm-3.7,18.4c2.3,3.15,4.7,7.3,6.2,11.95l-5.5,2.9c-1.1-3.15-3.35-8.4-6.05-12.25l5.35-2.6Z"/><path class="cls-1" d="M94.96,140.44c-.29,0-.44-.15-.44-.44v-7.14l17.5-37.43s.11-.1,.18-.17c.07-.06,.15-.09,.22-.09h8.35c.15,0,.26,.06,.35,.18,.09,.12,.09,.27,.02,.44l-17.36,36.73h12.49v-14.61c0-.27,.15-.4,.44-.4h7.47c.29,0,.44,.13,.44,.4v14.61h3.77c.27,0,.4,.15,.4,.44v7.03c0,.29-.13,.44-.4,.44h-3.77v7.29c0,.29-.15,.44-.44,.44h-7.47c-.29,0-.44-.15-.44-.44v-7.29h-21.31Z"/><path class="cls-1" d="M138.06,148.17c-.29,0-.44-.15-.44-.44v-7.43c0-.29,.15-.44,.44-.44h7.47c.27,0,.4,.15,.4,.44v7.43c0,.29-.13,.44-.4,.44h-7.47Z"/><path class="cls-1" d="M154.73,124.22c-.27,0-.4-.13-.4-.4v-28.2c0-.29,.13-.44,.4-.44h27.76c.29,0,.44,.15,.44,.44v7.47c0,.29-.15,.44-.44,.44h-20.29v10.51c2.37-1.66,5-2.49,7.91-2.49,1.03,0,2.01,.1,2.95,.31,.94,.21,1.83,.51,2.66,.9,.81,.39,1.56,.82,2.25,1.3,.7,.48,1.29,.97,1.78,1.48,.71,.78,1.33,1.62,1.87,2.51,.54,.89,.98,1.8,1.32,2.73,.71,1.9,1.06,5.02,1.06,9.34,0,1.76-.07,3.3-.2,4.61-.13,1.32-.35,2.43-.64,3.33l.04-.04c-.51,1.68-1.35,3.3-2.53,4.83-1.15,1.42-2.69,2.72-4.61,3.92-2.03,1.22-4.37,1.83-7.03,1.83-3.44,0-6.76-1.06-9.96-3.19-3.27-2.2-5.18-5.77-5.71-10.73-.02-.12,.01-.23,.11-.33,.1-.1,.21-.15,.33-.15h7.47c.24,0,.39,.11,.44,.33,.85,3.83,3.2,5.75,7.03,5.75,3.47,0,5.46-1.15,5.97-3.44,.63-2.54,.95-4.98,.95-7.32,0-1.39-.12-2.68-.37-3.86-.24-1.18-.6-2.24-1.06-3.17-.88-1.73-2.78-2.6-5.71-2.6-2.69,0-4.8,1.37-6.34,4.1-.1,.15-.22,.22-.37,.22h-7.07Z"/><path class="cls-3" d="M204.11,149.75h-5.95v-22.6c-1.05,1.45-1.6,2.1-2.6,3.1l-2.2-8.05c2.5-3,6-7.85,7.65-19.55l6.2,.5c-1.1,6.45-2.2,9.75-3.1,12.35v34.25Zm37.15-29.25v5.6h-34.95v-5.6h7.7c-.2-1.1-.45-2.55-1.95-7.75h-4.05v-5.6h12.5v-4.5h6.2v4.5h12.7v5.6h-4.25c-.45,2.7-1.25,5.9-1.8,7.75h7.9Zm-3.1,28.1h-29.15v-19.25h29.15v19.25Zm-6-13.8h-17.1v8.3h17.1v-8.3Zm-4.65-14.3c1.05-3.35,1.55-6.55,1.75-7.75h-11.25c.35,1.3,1.35,5.2,1.9,7.75h7.6Z"/><path class="cls-3" d="M275.56,105.25l-.85,28.45h-5.8l-.85-28.45h7.5Zm-7.4,32.75h7.25v7.15h-7.25v-7.15Z"/></g></g></svg>