<?xml version="1.0" encoding="UTF-8"?><svg id="_レイヤー_2" xmlns="http://www.w3.org/2000/svg" viewBox="0 0 169.44 68.44"><defs><style>.cls-1{fill:#231815;}</style></defs><g id="_レイアウト"><g><path class="cls-1" d="M63.16,1.22V3.39c-.96,.72-4.36,2.95-6.84,4.09,3.16-.46,6.04-.78,10.12-.82l.02,2.5c-1.2-.04-1.78-.06-2.34-.06-1.72,0-2.5,.12-3.62,.7-1.42,.72-2.98,2.18-2.98,3.62,0,.9,.4,1.82,3.7,2,1.44,.08,2.26,.06,3.02,.06l-.42,2.6c-3.14-.06-9.12-.16-9.12-4,0-2.52,2.1-3.88,3.56-4.8-2.96,.48-5.92,.98-8.86,1.62l-.28-2.54c1.74-.2,2.14-.26,3.06-.7,1.68-.8,4.42-2.44,6.9-4.21l-7.38,.22-.04-2.45h11.5Z"/><path class="cls-1" d="M79.3,15.18c2.52-.24,6.24-1.2,6.24-6.06,0-3.12-1.68-5.12-4.82-5.34-.34,5.46-2.02,12.36-6.14,12.36-2.54,0-3.96-2.86-3.96-5.86,0-5.76,4.32-9.02,9.38-9.02,5.96,0,8.36,3.88,8.36,7.98,0,2.36-.76,4.84-2.76,6.52-1.4,1.18-3.42,1.78-5.44,1.98l-.86-2.56Zm-6.1-4.84c0,.94,.3,2.92,1.5,2.92,1.06,0,2.82-2.1,3.44-9.34-3.06,.66-4.94,3.12-4.94,6.42Z"/><path class="cls-1" d="M93.44,9.52c-.56,.76-.84,1.02-1.18,1.38l-.9-3.24c2.2-2.62,3.02-5.74,3.26-7.66l2.46,.18c-.14,.96-.44,2.7-1.26,4.82v13.74h-2.38V9.52Zm7.14-4.06l2.3-.54V0h2.38V4.36l4.76-1.12c-.04,9.26-.04,10.12-2.5,10.12h-1.32l-.4-2.36h.86c.56,0,.76-.06,.84-.76,.02-.28,.14-1.94,.14-3.96l-2.38,.58v7.58h-2.38V7.44l-2.3,.54v6.92c0,1.02,.2,1.12,1.12,1.12h5.3c1.08,0,1.14-.12,1.3-2.46l2.32,.78c-.26,3.88-1.16,4.14-2.68,4.14h-7.28c-2.34,0-2.52-.76-2.52-2.34v-7.56l-1.56,.36-.26-2.48,1.82-.44V1.52h2.44v3.94Z"/><path class="cls-1" d="M117.7,18.16c-.4-.58-1.68-2.48-3.72-4.66l2.14-1.44c1.36,1.2,3.1,3.2,4.04,4.46l-2.46,1.64Z"/><path class="cls-1" d="M.38,29.48H7.52v2.48c-.44,2.78-1.74,7.26-6.1,10.02l-1.42-2.38c3.06-2,4.52-4.26,5.1-7.64H.38v-2.48Zm10.58-2.26c0,.12,0,.26,.02,.38,.04,.26,1.26,4.18,1.28,4.24,2.72-2.16,4.04-3.8,4.62-4.54l2.24,1.68c-1.68,1.94-3.62,3.52-5.7,5,.88,1.38,2.42,3.58,5.96,5.76l-1.52,2.44c-3.08-2.08-5.78-5.06-6.9-8.26v7.62c0,1.88-1,2.18-1.98,2.18h-3.62l-.52-2.54h3.02c.38,0,.58-.18,.58-.54v-15.74h2.52v2.32Z"/><path class="cls-1" d="M21.72,41.32c5.34-2.98,6.54-6.32,6.96-9.96h-6.42v-2.54h6.6c.04-.64,.04-1.08,.04-1.72v-2.18h2.64v2.24c0,.46-.02,.8-.02,1.66h8.74c-.04,3.12-.18,10.28-.98,12.8-.62,1.98-2.16,2.14-3.26,2.14h-3.1l-.44-2.64h2.94c.68,0,1.18-.08,1.44-1.2,.48-2,.62-6.72,.68-8.56h-6.2c-.66,6.68-4.16,10.08-8.1,12.36l-1.52-2.4Z"/><path class="cls-1" d="M62.32,27.64c-.54,.7-1.1,1.36-2.5,2.68,1.04,.52,1.64,.78,2.8,1.26l-1.02,2.32c-1.2-.52-1.88-.86-2.76-1.34v1.12h-2.36v1.94h5.4v2.24h-5.4v2.74c0,.5,.2,.56,.56,.56h2.04c.62,0,.82-.14,.92-2.3l2.4,.36c-.24,2.7-.38,4.24-2.18,4.24h-4.5c-1.38,0-1.72-.88-1.72-1.44v-4.16h-2.72c-.26,1.34-1.06,4.58-6.56,5.94l-1.22-2.4c2.98-.4,4.84-1.8,5.28-3.54h-4.86v-2.24h5.14v-1.94h-2.1v-1.06c-.92,.52-1.52,.84-2.62,1.36l-1.14-2.36c1.24-.38,1.96-.7,3.08-1.3-.78-.74-1.24-1.14-2.14-1.82l1.18-1.1v-1.94h8.78c.46,.66,.72,1.02,1.26,1.62,1.4-1.28,1.52-1.4,2.18-2.2l1.86,1.08c-.82,.96-1.82,1.92-2.48,2.56,.4,.32,.46,.36,1.02,.7,1.62-1.58,1.84-1.8,2.54-2.68l1.84,1.1Zm-16.08-.2c1.2,.86,1.72,1.36,2,1.66,1.12-.86,1.48-1.18,1.96-1.66h-3.96Zm10.82,4.04c-2.16-1.48-3.64-3.16-4.2-3.8-.8,1.02-1.8,2.16-4.12,3.8h8.32Zm-3.06,2.2h-2.52v1.94h2.52v-1.94Z"/><path class="cls-1" d="M82.54,27.34h-7v.74h7.98v4.34h-2.5v-2.76h-5.48v3.64h-2.24v-3.64h-5.42v2.76h-2.4v-4.34h7.82v-.74h-6.84v-1.84h16.08v1.84Zm1.56,12.92c-.18,2.28-.56,3.34-2.14,3.34h-6.74c-1.11,0-2.02-.18-2.02-1.44v-1.54h-6.8v-6.86h16.1v6.06l1.6,.44Zm-11.56-9.88v1h-3.8v-1h3.8Zm0,1.7v1.04h-3.8v-1.04h3.8Zm.66,5.76h-4.42v1.12h4.42v-1.12Zm0-2.48h-4.34v1.08h4.34v-1.08Zm6.86,0h-4.48v1.08h4.48v-1.08Zm0,2.48h-4.48v1.12h4.48v-1.12Zm.8,3.84c.54,0,.76-.04,.88-1.06h-6.16v.56c0,.4,.08,.5,.46,.5h4.82Zm-.6-11.3v1h-3.9v-1h3.9Zm0,1.7v1.04h-3.9v-1.04h3.9Z"/><path class="cls-1" d="M87.72,29.36h7.56v7.86h-5.22c-.04,1-.18,4.1-1.66,6.56l-1.96-1.92c1.06-1.8,1.28-3.7,1.28-5.82v-6.68Zm8.12-1.5h-9.08v-2.3h9.08v2.3Zm-5.74,3.74v3.3h2.84v-3.3h-2.84Zm15.34-4.48c-2.26,.82-3.84,1.12-6.48,1.32v2.48h6.52v2.44h-1.9v10.42h-2.44v-10.42h-2.18c.02,3.96-.5,7.42-2.86,10.38l-2.16-1.7c2-2.36,2.6-4.62,2.6-7.56v-8.24c.8-.02,4.44-.1,7.6-1.44l1.3,2.32Z"/><path class="cls-1" d="M118.86,28.04v2.5h-4.14c-.98,4.74-2.2,7.82-3.14,10.14l-2.72-1.02c.56-1.04,2.12-3.94,3.18-9.12h-2.86v-2.5h3.32c.12-.96,.2-1.52,.26-2.38l2.78,.1c-.16,1.26-.2,1.5-.34,2.28h3.66Zm4,8.12c1.42,.68,2.94,1.82,3.86,2.74l-1.52,2.48c-.98-1.16-1.74-1.76-2.52-2.3v.44c0,2-1.58,3.32-4.16,3.32-2.96,0-4.66-1.6-4.66-3.72,0-1.72,1.3-3.92,4.78-3.92,.72,0,1.24,.08,1.58,.14l-.08-3.88h2.64l.08,4.7Zm-2.56,1.56c-.36-.12-.82-.32-1.66-.32-1.46,0-2.4,.68-2.4,1.66,0,.26,.1,1.52,2.24,1.52,1.2,0,1.82-.46,1.82-1.74v-1.12Zm5.14-5.72c-2.06-1.22-3.6-1.94-5.66-2.68l1.12-2.24c2.08,.68,3.56,1.34,5.72,2.56l-1.18,2.36Z"/><path class="cls-1" d="M146.2,32.98c-1.64,.16-11.54,1.3-11.54,5.04,0,1.94,2.28,2.08,5.68,2.08s5.38-.22,6.46-.32l.02,2.74c-1.16,.08-2.84,.2-5.7,.2-3.32,0-9.3,0-9.3-4.58,0-3.32,3.8-5.1,5.1-5.7-.78-1.26-.82-2.76-.82-6.6h2.86c-.02,.62-.04,1.28-.04,2.36,0,1.98,.06,2.66,.44,3.34,1.52-.48,2.98-.84,6.52-1.36l.32,2.8Zm-2.4-8.14c.66,1.04,1.14,2.1,1.78,3.94l-1.72,.76c-.46-1.58-.9-2.66-1.68-4l1.62-.7Zm3.2-.36c.84,1.34,1.34,2.66,1.78,3.94l-1.72,.7c-.52-1.7-.88-2.62-1.68-4l1.62-.64Z"/><path class="cls-1" d="M167.82,27.42v2.26h-8.42c-.36,.92-.58,1.38-1.02,2.16,1.26-.64,1.76-.88,2.72-.88,1.82,0,2.66,.8,3.1,2.04,2.5-.94,3.62-1.34,4.7-1.64l.54,2.48c-1.06,.24-2.58,.62-4.82,1.4,.02,.42,.08,1.04,.08,2,0,.66-.02,1.12-.04,1.46h-2.52c.1-1.16,.08-2,.06-2.46-2.06,.94-2.9,1.82-2.9,2.72,0,1.46,1.72,1.46,3.88,1.46,.36,0,2.88,0,5.1-.26l.04,2.5c-1.58,.08-3.18,.14-4.46,.14-2.82,0-7.26-.1-7.26-3.54,0-2.72,3.4-4.4,5.26-5.28-.14-.36-.36-.94-1.48-.94-.56,0-1.86,.2-3.52,1.84-.42,.6-1.96,2.72-2.72,3.48l-1.8-1.86c1.88-1.82,3.28-3.78,4.4-6.82h-3.7v-2.26h4.38c.18-.78,.26-1.2,.38-2l2.76,.14c-.14,.76-.24,1.14-.42,1.86h7.68Z"/><path class="cls-1" d="M79.18,55.44h-9.36v-.72c-1.24,.56-2.22,.94-4.1,1.44l-.98-2.46c3.08-.56,6.02-1.74,8.34-3.82h2.74c2.3,1.9,4.74,3.12,8.4,3.88l-1.12,2.54c-1.98-.58-2.96-1.04-3.92-1.5v.64Zm3.08,6.02v6.98h-15.62v-6.98h6.2l-.58-1.04c1.86-.32,4.32-1.2,5.82-2.02h-11.62v-2.02h15.74v2.02c-1.58,1.36-3.98,2.4-5.64,3.06h5.7Zm-2.46,2.02h-10.66v2.94h10.66v-2.94Zm-2.86-9.94c-.92-.58-1.52-1.04-2.44-1.9-.72,.72-1.32,1.18-2.46,1.9h4.9Z"/><path class="cls-1" d="M91.34,51.82c.12,1,.22,1.7,.56,3.22,2.08-1.08,3.56-1.18,4.16-1.22,.1-1.2,.12-1.82,.16-3.04l2.72,.18c-.12,1.56-.16,2.1-.26,2.9,5.98,.76,5.98,6.24,5.98,6.92,0,6.44-6.26,6.92-7.86,7.04l-.76-2.42c3.18-.12,6.06-1.2,6.06-4.78,0-3.8-2.82-4.32-3.82-4.46-1.4,8.1-4.88,10.38-7.14,10.38-2.42,0-3.66-2.18-3.66-4.54,0-1.76,.64-3.94,2.46-5.62-.4-1.28-.66-2.6-.9-3.96l2.3-.6Zm-.56,7.08c-.28,.4-.98,1.46-.98,3.1,0,1.16,.5,2.08,1.48,2.08,.74,0,1.24-.4,1.86-1.08-.22-.22-1.26-1.32-2.36-4.1Zm5.1-2.8c-1.74,.28-2.78,.82-3.36,1.18,.4,1.34,1.08,2.94,1.82,3.92,.54-1.04,1.14-2.94,1.54-5.1Z"/></g></g></svg>