<?xml version="1.0" encoding="UTF-8"?><svg id="_レイヤー_2" xmlns="http://www.w3.org/2000/svg" viewBox="0 0 373.52 171.05"><defs><style>.cls-1{fill:#fff;stroke:#231815;stroke-miterlimit:10;stroke-width:1.5px;}.cls-2{fill:#bf1920;}.cls-3{fill:#231815;}</style></defs><g id="_レイアウト"><g><path class="cls-1" d="M335.65,73.58l35.87,14.54-35.87,14.54v47.65c0,11.05-8.95,20-20,20H20.75c-11.05,0-20-8.95-20-20V20.75c0-11.05,8.95-20,20-20H315.65c11.05,0,20,8.95,20,20v52.83Z"/><g><path class="cls-3" d="M41.22,45.36c2.43-.81,7.2-2.7,10.77-8.07l4.32,.6c-.54,.84-.78,1.2-1.32,1.98h11.07v3.33c-3.27,4.95-6.48,7.29-9.3,9.21h11.37v12.78h-19.95v-8.46c-1.95,.72-3.45,1.23-6.06,1.92l-1.53-3.87c6.06-1.11,9.09-2.61,11.31-3.72-1.95-1.98-3.81-3.36-4.92-4.14-1.26,.72-2.13,1.17-3.9,1.89l-1.86-3.45Zm10.74-2.16c-.36,.33-1.14,1.05-1.92,1.65,3.21,2.13,4.62,3.51,5.31,4.2,1.62-1.14,3.45-2.46,6-5.85h-9.39Zm12.42,12.66h-12.48v5.82h12.48v-5.82Z"/><path class="cls-3" d="M85.47,41.49v-3.93h3.96v3.93h12.21v3.81h-12.21v4.74h9.39v14.97h-22.65v-14.97h9.3v-4.74h-12.12v-3.81h12.12Zm-5.46,12.18v7.68h14.97v-7.68h-14.97Z"/><path class="cls-3" d="M120.45,55.29c-1.11,.06-6.51,.24-7.74,.27l-.36-3.15h2.22c.66-1.11,.84-1.38,1.26-2.43h-4.11v1.2c0,8.34-1.29,11.52-3.06,14.58l-3.27-2.61c1.68-2.82,2.55-5.55,2.55-12v-12.63h24.78v7.14h-21v1.44h22.32v2.88h-4.56c1.38,1.5,2.73,3,3.87,4.65l-3.12,1.98c-.42-.66-.45-.72-1.23-1.86-1.5,.18-3.75,.33-4.86,.39v2.07h8.73v2.73h-8.73v2.34h9.9v2.94h-22.5v-2.94h8.91v-2.34h-7.62v-2.73h7.62v-1.92Zm8.52-14.04h-17.25v1.8h17.25v-1.8Zm-2.25,8.73h-6.75c-.24,.39-1.2,2.1-1.44,2.43,3.93-.03,5.79-.03,8.4-.24-.63-.72-.99-1.02-1.5-1.5l1.29-.69Z"/><path class="cls-3" d="M166.41,44.16h-12.3v2.88h9.99v13.41c0,2.73-1.8,3.18-2.7,3.18h-4.56l-.69-3.87h3.54c.66,0,.69-.27,.69-.81v-8.31h-6.27v15.24h-3.78v-15.24h-6.03v13.26h-3.78v-16.86h9.81v-2.88h-12.15v-3.66h12.15v-2.88h3.78v2.88h12.3v3.66Z"/><path class="cls-3" d="M184.38,60.48c3.78-.36,9.36-1.8,9.36-9.09,0-4.68-2.52-7.68-7.23-8.01-.51,8.19-3.03,18.54-9.21,18.54-3.81,0-5.94-4.29-5.94-8.79,0-8.64,6.48-13.53,14.07-13.53,8.94,0,12.54,5.82,12.54,11.97,0,3.54-1.14,7.26-4.14,9.78-2.1,1.77-5.13,2.67-8.16,2.97l-1.29-3.84Zm-9.15-7.26c0,1.41,.45,4.38,2.25,4.38,1.59,0,4.23-3.15,5.16-14.01-4.59,.99-7.41,4.68-7.41,9.63Z"/><path class="cls-3" d="M215.1,37.68h4.11v3.63c0,3.33,.75,7.59,2.58,11.58,2.61,5.7,8.07,8.4,9.87,9.3l-2.55,3.6c-6.03-3.15-10.62-9.18-11.97-15.03-2.28,8.49-7.77,12.66-11.97,15.06l-2.67-3.54c4.32-2.01,7.95-5.31,10.02-9.6,1.68-3.42,2.58-7.44,2.58-11.25v-3.75Z"/><path class="cls-3" d="M261.93,64.98h-24.93v-25.29h24.93v25.29Zm-3.99-21.48h-16.92v17.67h16.92v-17.67Z"/><path class="cls-3" d="M281.58,60.48c3.78-.36,9.36-1.8,9.36-9.09,0-4.68-2.52-7.68-7.23-8.01-.51,8.19-3.03,18.54-9.21,18.54-3.81,0-5.94-4.29-5.94-8.79,0-8.64,6.48-13.53,14.07-13.53,8.94,0,12.54,5.82,12.54,11.97,0,3.54-1.14,7.26-4.14,9.78-2.1,1.77-5.13,2.67-8.16,2.97l-1.29-3.84Zm-9.15-7.26c0,1.41,.45,4.38,2.25,4.38,1.59,0,4.23-3.15,5.16-14.01-4.59,.99-7.41,4.68-7.41,9.63Z"/><path class="cls-2" d="M52.53,134.64c-.29,0-.44-.15-.44-.44v-43.51c-1.12,.83-2.25,1.67-3.37,2.51-1.12,.84-2.25,1.67-3.37,2.47-.17,.12-.33,.14-.48,.05-.15-.08-.22-.23-.22-.42v-7.95s.02-.11,.06-.18c.04-.07,.08-.13,.13-.18l7.54-5.46h7.65c.29,0,.44,.15,.44,.44v52.22c0,.29-.15,.44-.44,.44h-7.51Z"/><path class="cls-2" d="M76.62,134.53c-.29,0-.44-.15-.44-.44v-7.43c0-.29,.15-.44,.44-.44h7.47c.27,0,.4,.15,.4,.44v7.43c0,.29-.13,.44-.4,.44h-7.47Z"/><path class="cls-2" d="M97.97,134.53c-.29,0-.44-.15-.44-.44v-7.14l20.51-25.67v.04c.76-.95,1.25-1.83,1.46-2.62,.22-.79,.33-1.57,.33-2.33,0-1.68-.61-3.27-1.83-4.76-1.22-1.46-2.87-2.2-4.94-2.2-1.9,0-3.55,.65-4.94,1.94-.68,.63-1.2,1.39-1.56,2.25-.35,.87-.58,1.85-.68,2.95,0,.12-.04,.22-.13,.29s-.19,.11-.31,.11h-7.47c-.29,0-.44-.15-.44-.44,.05-4.34,1.53-8,4.43-10.95,2.95-3,6.47-4.5,10.55-4.5,4.42,0,8.14,1.51,11.17,4.54h-.04c3,3,4.5,6.62,4.5,10.84,0,1.83-.27,3.53-.81,5.09-.54,1.56-1.34,3.02-2.42,4.36v-.04c-1.39,1.76-2.76,3.48-4.1,5.16-1.34,1.68-2.69,3.36-4.03,5.04-1.34,1.67-2.69,3.34-4.03,5.02-1.34,1.67-2.71,3.39-4.1,5.15h19.04c.29,0,.44,.15,.44,.44v7.43c0,.29-.15,.44-.44,.44h-29.74Z"/><path class="cls-3" d="M148.66,136.11h-5.95v-22.6c-1.05,1.45-1.6,2.1-2.6,3.1l-2.2-8.05c2.5-3,6-7.85,7.65-19.55l6.2,.5c-1.1,6.45-2.2,9.75-3.1,12.35v34.25Zm37.15-29.25v5.6h-34.95v-5.6h7.7c-.2-1.1-.45-2.55-1.95-7.75h-4.05v-5.6h12.5v-4.5h6.2v4.5h12.7v5.6h-4.25c-.45,2.7-1.25,5.9-1.8,7.75h7.9Zm-3.1,28.1h-29.15v-19.25h29.15v19.25Zm-6-13.8h-17.1v8.3h17.1v-8.3Zm-4.65-14.3c1.05-3.35,1.55-6.55,1.75-7.75h-11.25c.35,1.3,1.35,5.2,1.9,7.75h7.6Z"/><path class="cls-3" d="M220.11,91.61l-.85,28.45h-5.8l-.85-28.45h7.5Zm-7.4,32.75h7.25v7.15h-7.25v-7.15Z"/></g></g></g></svg>