<?xml version="1.0" encoding="UTF-8"?><svg id="_レイヤー_2" xmlns="http://www.w3.org/2000/svg" viewBox="0 0 458 181.3"><defs><style>.cls-1{fill:#fff;}.cls-2{fill:#595757;}.cls-3{fill:#231815;}</style></defs><g id="_レイアウト"><g><polygon class="cls-2" points="385 0 0 0 0 50 385 50 400 25 385 0"/><g><path class="cls-1" d="M45.42,12.4v3.33h-4.71v2.49h4.17v20.94h-13.41V18.22h4.17v-2.49h-4.83v-3.33h14.61Zm-6.51,8.73h-1.35v2.76c0,3.15-.96,4.32-1.59,5.13l-1.5-2.1v3.51h7.5v-1.8h-1.62c-1.35,0-1.44-.81-1.44-1.56v-5.94Zm-3.15,0h-1.29v5.67c.99-.81,1.29-2.13,1.29-3.33v-2.34Zm6.21,12.27h-7.5v2.55h7.5v-2.55Zm-3.06-17.67h-1.35v2.49h1.35v-2.49Zm3.06,5.4h-1.44v3.96c0,.6,.06,.69,.57,.69h.87v-4.65Zm16.5,4.8h-8.4v8.88c0,.48,.09,.75,.81,.75h3.78c.9,0,1.17,0,1.17-4.32l3.6,.9c-.03,1.23-.18,4.19-.63,5.29-.45,1.1-1.44,1.67-2.58,1.67h-7.23c-.72,0-2.49,0-2.49-2.17v-14.48h8.37v-6.48h-8.52v-3.57h12.12v13.53Z"/><path class="cls-1" d="M93.06,15.12h-10.5v1.11h11.97v6.51h-3.75v-4.14h-8.22v5.46h-3.36v-5.46h-8.13v4.14h-3.6v-6.51h11.73v-1.11h-10.26v-2.76h24.12v2.76Zm2.34,19.38c-.27,3.42-.84,5.01-3.21,5.01h-10.11c-1.66,0-3.03-.27-3.03-2.16v-2.31h-10.2v-10.29h24.15v9.09l2.4,.66Zm-17.34-14.82v1.5h-5.7v-1.5h5.7Zm0,2.55v1.56h-5.7v-1.56h5.7Zm.99,8.64h-6.63v1.68h6.63v-1.68Zm0-3.72h-6.51v1.62h6.51v-1.62Zm10.29,0h-6.72v1.62h6.72v-1.62Zm0,3.72h-6.72v1.68h6.72v-1.68Zm1.2,5.76c.81,0,1.14-.06,1.32-1.59h-9.24v.84c0,.6,.12,.75,.69,.75h7.23Zm-.9-16.95v1.5h-5.85v-1.5h5.85Zm0,2.55v1.56h-5.85v-1.56h5.85Z"/><path class="cls-1" d="M106.23,29.28c-.06,2.19-.24,5.58-1.05,8.76l-2.79-1.44c.54-1.8,.87-3.39,1.05-7.68l2.79,.36Zm-3.6-4.89c.21,0,1.5-.03,1.83-.03,.39-.54,1.11-1.47,1.62-2.22-.3-.36-1.65-1.98-3.6-3.57l1.62-3.15c.48,.45,.54,.48,.66,.6,.27-.45,1.47-2.52,2.22-4.53l3.27,.96c-1.29,2.73-2.85,5.07-3.27,5.7,.48,.51,.72,.78,.99,1.11,1.68-2.58,2.28-3.66,2.82-4.65l3,1.23c-2.25,3.99-5.67,8.1-5.88,8.34,1.47-.06,1.8-.09,2.97-.15-.18-.66-.3-1.05-.57-1.86l2.43-.84c.66,1.59,1.47,4.26,1.68,5.64h5.79c-.48,4.08-1.86,8.88-5.94,12.03l-2.28-2.49c1.86-1.38,3.63-3.06,4.59-6.3h-2.43v-3l-2.49,.84c-.06-.45-.09-.69-.18-1.17-.18,.03-1.11,.12-1.32,.15v12.75h-3.15v-12.42c-2.22,.21-3.06,.24-4.17,.27l-.21-3.24Zm10.83,4.56c.09,.54,.51,3,.57,5.76l-2.64,.54c-.03-1.92-.27-4.32-.51-5.94l2.58-.36Zm17.88-.96c-.69,.81-1.83,2.1-3.72,3.45,1.74,2.13,2.97,2.94,4.05,3.66l-1.95,3.51c-3.57-3-4.71-5.61-5.61-7.77v5.91c0,2.31-.33,3.03-3.06,3.03h-3.03l-.6-3.51h2.28c.99,0,1.02-.27,1.02-1.11v-9.81h-6V13.93h5.25c.27-.72,.48-1.38,.75-2.4l3.9,.09c-.36,1.29-.6,1.89-.78,2.31h6.27v11.43h-6c.45,1.08,.87,2.16,1.71,3.54,1.59-1.35,2.34-2.34,2.91-3.15l2.61,2.25Zm-13.14-11.4v1.86h8.37v-1.86h-8.37Zm0,4.14v2.04h8.37v-2.04h-8.37Z"/><path class="cls-1" d="M152.7,34.38c3.78-.36,9.36-1.8,9.36-9.09,0-4.68-2.52-7.68-7.23-8.01-.51,8.19-3.03,18.54-9.21,18.54-3.81,0-5.94-4.29-5.94-8.79,0-8.64,6.48-13.53,14.07-13.53,8.94,0,12.54,5.82,12.54,11.97,0,3.54-1.14,7.26-4.14,9.78-2.1,1.77-5.13,2.67-8.16,2.97l-1.29-3.84Zm-9.15-7.26c0,1.41,.45,4.38,2.25,4.38,1.59,0,4.23-3.15,5.16-14.01-4.59,.99-7.41,4.68-7.41,9.63Z"/><path class="cls-1" d="M175.05,36.04c.51-.03,3-.21,3.54-.24v-7.2h-3.54v-3.18h3.54V12.34h22.23v3.18h-18.3v1.56h17.28v2.58h-17.28v1.59h17.28v2.61h-17.28v1.56h20.43v3.18h-3.45l2.07,1.5c-1.71,1.53-3.12,2.49-5.37,3.75,3.33,1.53,5.88,1.92,7.35,2.16l-1.71,3.84c-6.24-1.71-13.05-4.74-16.17-11.25h-3.15v6.9c2.97-.24,3.75-.3,7.71-.9v3.33c-4.68,.87-11.22,1.44-14.43,1.62l-.75-3.51Zm14.49-7.44c.51,.81,1.17,1.89,3.36,3.39,1.08-.63,2.67-1.68,4.59-3.39h-7.95Z"/><path class="cls-1" d="M230.49,30.18c-2.76-3.24-4.53-7.65-5.13-9.09-.54,0-2.67,.06-2.94,.06h-9.75v-3.81l9.99,.09h1.44c-.42-1.5-.63-2.43-1.02-4.44l4.17-.33c.33,2.49,.84,4.23,.96,4.62,2.88-.15,5.25-.39,8.49-1.11l.72,3.87c-2.91,.6-4.8,.72-7.92,.9,1.17,2.55,2.58,5.01,4.5,7.08l-3.51,2.16Zm-9.72-2.25c-.72,.33-2.94,1.41-2.94,3.42,0,2.91,3.99,3.09,7.98,3.09,4.41,0,6.72-.3,8.13-.48v3.93c-1.2,.09-3.45,.3-7.29,.3-5.97,0-7.92-.66-9.63-1.59-1.89-1.05-3.15-2.85-3.15-5.16,0-3.24,2.58-5.19,4.86-6.27l2.04,2.76Z"/></g></g><g><path class="cls-3" d="M414.36,156.28l.09,14.73,5.13-7.31h5.79l-6,7.61,6.38,9.98h-6.06l-5.23-9.52-.09,.07v9.46h-5.2v-25.02h5.2Z"/><path class="cls-3" d="M435.1,163.91l.07,2.06c1.21-1.72,2.99-2.58,5.34-2.58,1.04,0,2.11,.31,3.21,.94,1.21,.68,1.98,1.47,2.33,2.38,1.59-2.21,3.55-3.32,5.88-3.32,1.04,0,2.13,.33,3.28,.98,1.14,.64,1.89,1.4,2.25,2.28,.35,.9,.52,2.3,.52,4.2v10.45h-5.2v-10.45c0-2.66-1.03-3.99-3.1-3.99-.85,0-1.58,.36-2.18,1.07-.63,.72-.94,1.7-.94,2.93v10.45h-5.2v-10.44c0-2.66-1.04-3.99-3.11-3.99-.86,0-1.58,.36-2.18,1.06-.63,.72-.95,1.7-.95,2.92v10.44h-5.2v-17.39h5.17Z"/></g></g></svg>