<?xml version="1.0" encoding="UTF-8"?><svg id="_レイヤー_2" xmlns="http://www.w3.org/2000/svg" viewBox="0 0 138.25 68.19"><defs><style>.cls-1{fill:#bf1920;}.cls-2{fill:#231815;}</style></defs><g id="_レイアウト"><g><path class="cls-2" d="M14.55,.72V2.94h-3.14v1.66h2.78v13.96H5.25V4.6h2.78v-1.66h-3.22V.72H14.55Zm-4.34,5.82h-.9v1.84c0,2.1-.64,2.88-1.06,3.42l-1-1.4v2.34h5v-1.2h-1.08c-.9,0-.96-.54-.96-1.04v-3.96Zm-2.1,0h-.86v3.78c.66-.54,.86-1.42,.86-2.22v-1.56Zm4.14,8.18H7.25v1.7h5v-1.7ZM10.21,2.94h-.9v1.66h.9v-1.66Zm2.04,3.6h-.96v2.64c0,.4,.04,.46,.38,.46h.58v-3.1Zm11,3.2h-5.6v5.92c0,.32,.06,.5,.54,.5h2.52c.6,0,.78,0,.78-2.88l2.4,.6c-.02,.82-.12,2.8-.42,3.53-.3,.73-.96,1.11-1.72,1.11h-4.82c-.48,0-1.66,0-1.66-1.45V7.42h5.58V3.1h-5.68V.72h8.08V9.74Z"/><path class="cls-2" d="M43.91,2.54h-7v.74h7.98V7.62h-2.5v-2.76h-5.48v3.64h-2.24v-3.64h-5.42v2.76h-2.4V3.28h7.82v-.74h-6.84V.7h16.08v1.84Zm1.56,12.92c-.18,2.28-.56,3.34-2.14,3.34h-6.74c-1.11,0-2.02-.18-2.02-1.44v-1.54h-6.8v-6.86h16.1v6.06l1.6,.44Zm-11.56-9.88v1h-3.8v-1h3.8Zm0,1.7v1.04h-3.8v-1.04h3.8Zm.66,5.76h-4.42v1.12h4.42v-1.12Zm0-2.48h-4.34v1.08h4.34v-1.08Zm6.86,0h-4.48v1.08h4.48v-1.08Zm0,2.48h-4.48v1.12h4.48v-1.12Zm.8,3.84c.54,0,.76-.04,.88-1.06h-6.16v.56c0,.4,.08,.5,.46,.5h4.82Zm-.6-11.3v1h-3.9v-1h3.9Zm0,1.7v1.04h-3.9v-1.04h3.9Z"/><path class="cls-2" d="M65.87,17.06c0,1.62-1.1,1.96-2.18,1.96h-2.48l-.34-2.52h1.98c.26,0,.5-.04,.5-.5v-2.94h-4.52v5.78h-2.34v-5.78h-4.44c-.3,2.78-.98,4.44-2.02,5.88l-2.06-2c1.06-1.54,1.86-3.5,1.86-6.36V.94h16.04V17.06ZM56.49,3.32h-4.24v2.58h4.24V3.32Zm0,4.86h-4.24v2.58h4.24v-2.58Zm6.86-4.86h-4.52v2.58h4.52V3.32Zm0,4.86h-4.52v2.58h4.52v-2.58Z"/><path class="cls-2" d="M74.51,5.02c-1.4,2.48-2.7,3.68-3.4,4.32l-1.62-1.6c1.24-1.12,1.9-1.92,2.86-3.6l2.16,.88ZM80.39,.1V1.54h8.18V3.8h-5.76V7.94c0,.9-.74,1.46-1.6,1.46h-2.22l-.38-2.44h1.32c.5,0,.5-.14,.5-.62V3.8h-2.18c-.44,3.24-1.78,5.04-4.18,6.6l-1.56-1.74c3.04-1.78,3.3-3.8,3.44-4.86h-6.38V1.54h8.24V.1h2.58Zm-1.4,9.34c-.28,.44-.36,.54-.66,.88h7.24v2.1c-.66,.78-1.62,1.92-3.66,3.16,2.56,.64,4.94,.78,6.68,.88l-.98,2.5c-1.82-.12-5.2-.4-8.76-1.94-3.9,1.42-6.84,1.74-8.26,1.88l-.74-2.26c1.24-.12,3.54-.32,6.46-1.1-1.1-.8-1.62-1.4-2.12-1.98-1.3,.74-2.3,1.12-3.12,1.44l-1.26-2.08c4.26-1.44,5.86-3.1,6.9-4.36l2.28,.88Zm-3,2.98c1.48,1.36,2.64,1.92,3.1,2.16,1.62-.76,2.52-1.54,3.28-2.2h-6.32l-.06,.04Zm11.08-2.86c-1.14-.9-1.96-1.72-3.72-4.34l1.9-1.24c1,1.64,2.56,3.12,3.42,3.84l-1.6,1.74Z"/><path class="cls-2" d="M108.71,2.54h-7v.74h7.98V7.62h-2.5v-2.76h-5.48v3.64h-2.24v-3.64h-5.42v2.76h-2.4V3.28h7.82v-.74h-6.84V.7h16.08v1.84Zm1.56,12.92c-.18,2.28-.56,3.34-2.14,3.34h-6.74c-1.11,0-2.02-.18-2.02-1.44v-1.54h-6.8v-6.86h16.1v6.06l1.6,.44Zm-11.56-9.88v1h-3.8v-1h3.8Zm0,1.7v1.04h-3.8v-1.04h3.8Zm.66,5.76h-4.42v1.12h4.42v-1.12Zm0-2.48h-4.34v1.08h4.34v-1.08Zm6.86,0h-4.48v1.08h4.48v-1.08Zm0,2.48h-4.48v1.12h4.48v-1.12Zm.8,3.84c.54,0,.76-.04,.88-1.06h-6.16v.56c0,.4,.08,.5,.46,.5h4.82Zm-.6-11.3v1h-3.9v-1h3.9Zm0,1.7v1.04h-3.9v-1.04h3.9Z"/><path class="cls-2" d="M113.89,4.56h7.56v7.86h-5.22c-.04,1-.18,4.1-1.66,6.56l-1.96-1.92c1.06-1.8,1.28-3.7,1.28-5.82V4.56Zm8.12-1.5h-9.08V.76h9.08V3.06Zm-5.74,3.74v3.3h2.84v-3.3h-2.84Zm15.34-4.48c-2.26,.82-3.84,1.12-6.48,1.32v2.48h6.52v2.44h-1.9v10.42h-2.44V8.56h-2.18c.02,3.96-.5,7.42-2.86,10.38l-2.16-1.7c2-2.36,2.6-4.62,2.6-7.56V1.44c.8-.02,4.44-.1,7.6-1.44l1.3,2.32Z"/><path class="cls-1" d="M.32,39.84c-.21,0-.32-.11-.32-.32v-10.98c0-.21,.11-.32,.32-.32H22.08c.2,0,.29,.11,.29,.32v5.51l-12.94,32.82c-.07,.14-.17,.21-.29,.21H2.98c-.12,0-.21-.04-.27-.13-.05-.09-.06-.19-.03-.3L15.5,34.34H6.1v5.18c0,.21-.1,.32-.29,.32H.32Z"/><path class="cls-1" d="M26.26,39.22c.02-1.79,.32-3.39,.91-4.79,.59-1.41,1.42-2.61,2.5-3.61,1.02-.93,2.17-1.65,3.44-2.16,1.27-.51,2.61-.77,4-.77,2.54,0,4.84,.76,6.9,2.28,1.93,1.54,3.2,3.76,3.79,6.66,.04,.11,.02,.2-.05,.27-.07,.07-.16,.11-.27,.11h-5.51c-.14,0-.24-.06-.29-.19-.81-1.97-2.34-2.98-4.59-3.03-3.24,.09-4.86,1.95-4.86,5.59v3.17c1.16-.34,2.32-.61,3.48-.81,1.15-.2,2.25-.29,3.29-.27,2.51,0,4.65,.88,6.45,2.63,1.72,1.81,2.57,4.59,2.55,8.35v3.49c-.05,3.67-1.15,6.46-3.28,8.38-2,1.9-4.54,2.89-7.6,2.98-2.97-.09-5.45-1.07-7.44-2.95-2.26-1.97-3.39-4.76-3.41-8.38v-16.95Zm5.96,16.62c.02,3.67,1.65,5.52,4.89,5.56,3.17-.02,4.82-1.87,4.94-5.56v-3.14c-.14-3.63-1.79-5.49-4.94-5.56-3.24,.09-4.87,1.94-4.89,5.56v3.14Z"/><path class="cls-1" d="M60.02,49.78c-.21,0-.32-.11-.32-.32v-4.81c0-.21,.11-.32,.32-.32h1.88c1.74,0,3.11-.48,4.11-1.45,.98-.93,1.48-2.16,1.48-3.68,0-1.43-.51-2.66-1.53-3.68s-2.27-1.53-3.73-1.53c-1.07,0-2.1,.37-3.09,1.1-.99,.72-1.61,1.8-1.88,3.25-.02,.07-.06,.13-.12,.19s-.12,.08-.17,.08h-5.5c-.09,0-.17-.04-.23-.11-.06-.07-.08-.15-.07-.24,.18-2.74,1.34-5.17,3.49-7.28,2.11-2.08,4.57-3.12,7.36-3.12,1.74,0,3.31,.3,4.71,.89,1.41,.59,2.64,1.46,3.72,2.6,1.02,1.13,1.8,2.35,2.35,3.67,.55,1.32,.82,2.67,.82,4.07,0,1.52-.29,3.01-.89,4.46-.29,.64-.68,1.25-1.18,1.83-.5,.57-1.09,1.11-1.77,1.61,1.43,1.02,2.5,2.25,3.2,3.68,.72,1.54,1.07,3.11,1.07,4.7,0,3.63-1.15,6.56-3.46,8.78-2.27,2.17-5.09,3.25-8.46,3.25-1.34,0-2.61-.21-3.8-.64s-2.33-1.07-3.42-1.93c-1.07-.88-1.94-1.93-2.59-3.17s-1.11-2.69-1.36-4.35c-.04-.23,.07-.35,.32-.35h5.48c.12,0,.22,.07,.3,.21,.23,.63,.51,1.19,.82,1.69,.31,.5,.68,.94,1.11,1.3,.43,.37,.93,.65,1.49,.85,.56,.2,1.22,.3,1.97,.3,1.41,0,2.69-.51,3.81-1.53,1.11-.98,1.67-2.39,1.67-4.22s-.55-3.23-1.67-4.22c-1.13-1.04-2.43-1.56-3.92-1.56h-2.31Z"/><path class="cls-2" d="M78.46,64.89c2.67-4.71,4.44-11.48,5.07-14.93l-4.32,.03v-3.83h4.95c.27-1.92,.39-3.06,.54-5.22l4.2,.21c-.21,1.62-.3,2.37-.72,5.01h2.7c4.44,0,6.54,2.05,6.54,8.44,0,2.19-.3,6.35-1.44,8.93-1.02,2.28-2.91,3.09-5.55,3.09-1.62,0-2.85-.15-3.3-.21l-.24-4.02c.54,.12,1.77,.36,3,.36,1.98,0,2.4-.9,2.85-2.52,.42-1.56,.78-3.96,.78-6.08,0-3.42-.78-4.29-3.75-4.26l-2.28,.03c-.84,4.67-2.64,11.87-5.16,16.76l-3.87-1.8Zm22.68-7.28c-.15-4.34-1.2-8.7-3.81-12.19l3.39-1.68c3.06,3.67,4.26,8.41,4.59,13.15l-4.17,.72Z"/><path class="cls-2" d="M111.61,46.56h11.34v11.79h-7.83c-.06,1.5-.27,6.15-2.49,9.84l-2.94-2.88c1.59-2.7,1.92-5.55,1.92-8.73v-10.02Zm12.18-2.25h-13.62v-3.45h13.62v3.45Zm-8.61,5.61v4.95h4.26v-4.95h-4.26Zm23.01-6.72c-3.39,1.23-5.76,1.68-9.72,1.98v3.72h9.78v3.66h-2.85v15.63h-3.66v-15.63h-3.27c.03,5.94-.75,11.13-4.29,15.57l-3.24-2.55c3-3.54,3.9-6.93,3.9-11.34v-12.36c1.2-.03,6.66-.15,11.4-2.16l1.95,3.48Z"/></g></g></svg>