<?xml version="1.0" encoding="UTF-8"?><svg id="_レイヤー_2" xmlns="http://www.w3.org/2000/svg" viewBox="0 0 400 177.48"><defs><style>.cls-1{fill:#fff;}.cls-2{fill:#595757;}.cls-3{fill:#231815;}</style></defs><g id="_レイアウト"><g><polygon class="cls-2" points="385 0 0 0 0 50 385 50 400 25 385 0"/><g><path class="cls-1" d="M30.24,17.31c2.4-1.56,4.14-3.6,5.52-6.09l3.36,1.17c-1.2,2.73-3.81,6.12-7.41,8.58l-1.47-3.66Zm9.6,1.95c-.42,.9-1.14,2.55-2.61,4.89v15.66h-3.75v-11.13c-.78,.75-1.23,1.08-1.83,1.5l-1.32-4.29c2.55-1.74,4.89-5.01,6.33-8.07l3.18,1.44Zm5.67,4.74c-.12,3.33-.45,5.31-.81,6.87,.39,.66,1.53,2.58,3.03,3.57v-13.17h-7.59v-3.54h10.74c.75-1.23,2.22-4.41,2.79-6.54l3.78,.99c-.9,2.58-2.25,4.92-2.61,5.55h4.29v3.54h-7.62v4.44h6.51v3.42h-6.51v6.3h7.98l-.66,3.66h-6.66c-4.26,0-6.87-1.74-8.55-4.56-1.35,3.12-2.88,4.5-3.72,5.28l-2.61-2.82c2.73-2.79,4.44-5.79,4.62-13.26l3.6,.27Zm-.84-12.69c.9,1.23,2.13,3.36,2.79,4.95l-3.36,1.41c-.63-1.65-1.86-3.81-2.76-5.1l3.33-1.26Z"/><path class="cls-1" d="M93.24,39.39c-3.27-1.05-6.66-2.37-10.44-5.67v5.97h-3.66v-5.88c-3.3,3.03-6.9,4.41-10.44,5.58l-1.8-3.27c2.82-.78,6.48-1.89,9.66-4.02h-9.6v-2.94h12.18v-1.56h-10.14v-2.55h10.14v-1.53h-10.86v-2.85h6.03c-.09-.39-.48-1.56-.72-1.98h-6.63v-3.09h4.26c-.21-.57-.57-1.47-1.53-3.27l3.66-.87c.72,1.44,1.05,2.37,1.56,4.14h1.59v-3.99h3.42v3.99h2.19v-3.99h3.39v3.99h1.62c.57-1.2,1.17-3,1.5-4.14l3.66,.87c-.12,.3-.69,1.86-1.47,3.27h4.17v3.09h-6.63c-.39,1.11-.48,1.41-.72,1.98h6.21v2.85h-11.04v1.53h10.29v2.55h-10.29v1.56h12.18v2.94h-9.51c3.33,2.37,7.26,3.36,9.72,3.93l-1.95,3.36Zm-9.36-18.72c.18-.42,.39-.96,.63-1.98h-7.11c.12,.27,.6,1.68,.72,1.98h5.76Z"/><path class="cls-1" d="M129.87,39.9c-3.27-.39-7.05-1.59-10.14-3.3l2.1-2.07h-9.99l2.04,2.13c-1.74,1.02-4.44,2.34-9.63,3.33l-1.65-3.3c2.67-.21,5.79-.87,8.43-2.16h-6.21v-13.77h24.36v13.77h-6.39c2.61,1.2,5.94,1.86,8.64,2.01l-1.56,3.36Zm-1.65-27.63v7.08h-22.41v-7.08h22.41Zm-19.8,10.95v1.5h17.1v-1.5h-17.1Zm0,3.57v1.56h17.1v-1.56h-17.1Zm0,3.69v1.56h17.1v-1.56h-17.1Zm1.02-15.57v1.95h15.15v-1.95h-15.15Z"/><path class="cls-1" d="M166.98,15.72v3.72h-1.11c-.39,8.13-2.16,11.16-2.94,12.51,1.86,2.49,3.78,3.72,4.65,4.26l-2.16,3.51c-1.71-1.14-3.18-2.34-4.89-4.56-2.16,2.37-4.41,3.72-5.64,4.44l-2.1-2.97-1.35,2.28c-.84-.54-1.44-.93-3.42-1.89-1.38,.93-3.42,2.04-7.56,2.97l-1.44-3.12c2.64-.36,4.14-.84,5.49-1.44-2.52-1.02-3.69-1.29-4.5-1.47,.63-.99,1.26-1.92,1.98-3.6h-2.97v-3.03h4.17c.33-.93,.48-1.59,.66-2.16l1.26,.21v-4.11c-1.8,2.28-3.54,3.48-4.71,4.23l-2.04-2.67c2.37-.99,4.2-2.79,5.07-3.66h-4.41v-2.88h1.95c-.42-1.56-.69-2.31-1.38-3.69l2.82-1.02c.6,1.14,1.14,2.55,1.5,3.96l-2.16,.75h3.36v-4.8h3.36v4.8h3.39l-2.73-.81c.42-.72,1.14-2.07,1.77-4.05l3.12,.78c-.63,1.68-1.02,2.43-1.83,4.08h1.47v2.88h-4.08c1.65,1.5,2.82,2.13,3.39,2.43l-1.95,2.46c-.57-.39-1.53-1.14-2.55-2.43v3.93h-2.19l1.02,.18c-.12,.48-.15,.69-.45,1.59h7.32v3.03h-1.53c-.27,.93-.72,2.37-1.98,4.17,.93,.39,1.68,.75,2.64,1.23l-.09,.15c2.91-1.2,4.53-2.97,5.37-3.9-1.35-2.79-2.01-6.03-2.31-7.8-.57,.9-.99,1.44-1.41,1.98l-2.67-2.79c2.88-3.78,4.14-8.49,4.59-12.09l3.63,.48c-.15,1.02-.27,1.92-.72,3.93h7.29Zm-21.33,14.64c-.39,.87-.69,1.5-1.02,2.1,.96,.27,1.74,.48,2.94,.87,1.08-1.23,1.44-2.22,1.71-2.97h-3.63Zm13.05-10.92c.42,4.29,1.32,7.11,2.1,8.91,.69-1.65,1.47-4.5,1.56-8.91h-3.66Z"/></g></g><path class="cls-3" d="M332.92,149.34h4.11v3.63c0,3.33,.75,7.59,2.58,11.58,2.61,5.7,8.07,8.4,9.87,9.3l-2.55,3.6c-6.03-3.15-10.62-9.18-11.97-15.03-2.28,8.49-7.77,12.66-11.97,15.06l-2.67-3.54c4.32-2.01,7.95-5.31,10.02-9.6,1.68-3.42,2.58-7.44,2.58-11.25v-3.75Z"/></g></svg>