<?xml version="1.0" encoding="UTF-8"?>
<svg width="567px" height="613px" viewBox="0 0 567 613" version="1.1" xmlns="http://www.w3.org/2000/svg" xmlns:xlink="http://www.w3.org/1999/xlink">
    <!-- Generator: Sketch 63.1 (92452) - https://sketch.com -->
    <title>中部電力パワーグリッド</title>
    <desc>Created with Sketch.</desc>
    <g id="Symbols" stroke="none" stroke-width="1" fill="none" fill-rule="evenodd">
        <g id="logo/pg/symbol_02">
            <g id="Group-46">
                <path d="M441.3758,99.156 C442.2218,100.618 441.7218,102.484 440.2608,103.327 L380.4538,137.8 C378.9908,138.645 377.1248,138.14 376.2818,136.681 L341.8128,76.864 C340.9688,75.403 341.4708,73.536 342.9298,72.695 L402.7418,38.22 C404.2008,37.377 406.0658,37.882 406.9098,39.34 L441.3758,99.156 Z" id="Fill-1" fill="#E60012"></path>
                <path d="M278.5276,0.0051 C187.1346,2.7131 113.8486,77.5251 113.8486,169.5531 C113.8486,263.2331 189.7906,339.1721 283.4686,339.1721 C376.0636,339.1721 451.3326,264.9651 453.060998,172.7831 C453.1116,169.9291 451.7136,168.6551 448.7146,168.6551 L382.5076,168.6491 C379.6496,168.6491 378.2186,170.1371 378.1096,173.0941 C376.2506,223.7621 334.5876,264.2601 283.4686,264.2601 C231.1626,264.2601 188.7626,221.8601 188.7626,169.5531 C188.7626,118.8841 228.5536,77.5101 278.5926,74.9721 C281.0146,74.8511 282.9616,73.7911 282.9616,70.7491 L282.9486,4.0911 C282.9486,1.1141 281.6826,-0.0879 278.5276,0.0051" id="Fill-3" fill="#C11920"></path>
                <path d="M512.3707,531.4455 C517.8197,531.4455 518.3897,534.0415 518.3897,536.8455 L518.3897,558.2895 C528.9347,560.9085 550.6637,569.1075 562.1417,574.0065 C564.5637,575.0375 566.9287,576.1685 566.9287,580.9965 C566.9287,585.8305 564.6337,585.7365 562.1417,584.6685 C551.3247,580.0295 527.4507,571.4675 518.3897,569.3065 L518.3897,569.3065 L518.389086,607.226102 C518.366916,609.970721 517.718793,612.4705 512.3707,612.4705 C506.9187,612.4705 506.3527,609.8755 506.3527,607.0705 L506.3527,607.0705 L506.3527,536.8455 C506.3527,534.0415 506.9187,531.4455 512.3707,531.4455 Z M480.1453,550.5079 C485.3133,550.5079 485.8573,552.9789 485.8573,555.6349 L485.8573,557.1329 C485.8573,580.6309 477.2383,603.7639 448.5303,610.6039 C444.3163,611.6099 443.6573,608.5279 443.6573,606.0119 C443.6573,602.4959 444.9003,601.2149 446.7673,600.6739 C467.3583,594.7039 474.4293,579.5299 474.4293,557.0179 L474.4293,555.6349 C474.4293,552.9789 474.9663,550.5079 480.1453,550.5079 Z M316.4563,536.1485 L316.4563,541.9475 C316.4563,544.7855 317.0333,547.4105 322.5413,547.4105 L322.5413,547.4105 L323.0303,547.4105 C322.6193,586.2955 293.0203,607.5375 268.2893,610.3085 C263.8413,610.8065 263.2563,608.5905 263.2563,605.9885 C263.2563,602.3595 263.8743,600.5495 265.8693,600.2995 C292.5713,596.9575 310.8083,572.7225 310.8083,550.2485 L310.8083,550.2485 L310.8073,548.5845 C310.8073,545.8015 309.6733,544.9765 307.1683,544.9765 L307.1683,544.9765 L282.4513,544.9765 C279.9463,544.9765 279.4813,545.8225 278.3453,548.4965 C273.9333,558.8815 263.2843,568.5545 255.2913,571.1135 C251.0883,572.4555 250.2493,569.8065 250.2493,567.0455 C250.2493,563.1955 251.2373,562.1915 253.1173,561.1995 C259.6413,557.7545 265.5233,550.3865 267.4673,545.4555 C270.2373,538.4335 271.0493,536.1485 279.7633,536.1485 L279.7633,536.1485 L316.4563,536.1485 Z M159.3465,536.1491 C168.0625,536.1491 170.8235,538.3461 170.8235,546.5901 C170.8235,586.9031 145.4215,606.3321 122.5505,610.1171 C118.1355,610.8481 117.5185,608.3971 117.5185,605.7971 C117.5185,602.1701 118.1745,600.4011 120.1325,599.9491 C146.2295,593.9341 158.0385,572.9491 158.0385,549.9981 L158.0385,549.9981 L158.0385,548.5841 C158.0385,545.8011 156.9025,544.9771 154.3975,544.9771 L154.3975,544.9771 L116.2655,544.9771 C113.7595,544.9771 112.6275,545.8011 112.6275,548.5841 L112.6275,548.5841 L112.626872,563.947753 C112.605025,566.538653 111.988423,568.9011 106.9355,568.9011 C101.7795,568.9011 101.2445,566.4451 101.2445,563.7951 L101.2445,563.7951 L101.2455,546.5671 C101.2455,538.3221 104.0045,536.1491 112.7235,536.1491 L112.7235,536.1491 Z M405.7342,532.5903 C411.0032,532.5903 411.5592,535.1033 411.5592,537.8143 L411.5592,551.1443 C411.5592,582.2693 401.8922,604.0743 367.5822,610.1173 C363.1742,610.8943 362.5492,607.9733 362.5492,605.3733 C362.5492,601.7463 363.7842,600.2523 365.7542,599.8653 C391.8512,594.7383 399.9102,578.0883 399.9102,551.2323 L399.9132,537.8143 C399.9132,535.1033 400.4622,532.5903 405.7342,532.5903 Z M27.1587,534.6995 C32.6417,534.6995 33.2137,537.3025 33.2137,540.1385 C33.2137,570.3495 21.9617,601.0805 5.3427,609.5805 C1.2617,611.6645 -0.000300000001,608.1705 -0.000300000001,605.4085 C-0.000300000001,601.5585 0.9957,600.5885 2.5297,599.1175 C14.4767,587.6365 21.1077,565.4335 21.1077,540.1385 C21.1077,537.3025 21.6727,534.6995 27.1587,534.6995 Z M58.7897,534.6995 C64.2747,534.6995 64.8427,537.3025 64.8427,540.1385 C64.8427,565.4335 71.4727,587.6365 83.4197,599.1175 C84.9527,600.5885 85.9487,601.5585 85.9487,605.4085 C85.9487,608.1705 84.6857,611.6645 80.6057,609.5805 C63.9867,601.0805 52.7357,570.3495 52.7357,540.1385 C52.7357,537.3025 53.3057,534.6995 58.7897,534.6995 Z M433.7623,550.5079 C438.6433,550.5079 439.1533,552.8359 439.1533,555.3499 L439.1533,555.3499 L439.1533,573.4089 C439.1533,575.9219 438.6433,578.2479 433.7623,578.2479 C428.8683,578.2479 428.3663,575.9219 428.3663,573.4089 L428.3663,573.4089 L428.3663,555.3499 C428.3663,552.8359 428.8683,550.5079 433.7623,550.5079 Z M454.2073,550.5079 C459.0913,550.5079 459.6013,552.8359 459.6013,555.3499 L459.6013,555.3499 L459.6013,573.4089 C459.6013,575.9219 459.0913,578.2479 454.2073,578.2479 C449.3173,578.2479 448.8153,575.9219 448.8153,573.4089 L448.8153,573.4089 L448.8153,555.3499 C448.8153,552.8359 449.3173,550.5079 454.2073,550.5079 Z M356.2162,532.5903 C361.3772,532.5903 361.9192,535.0473 361.9192,537.7053 L361.9192,537.7053 L361.9192,570.0063 C361.9192,572.6643 361.3772,575.1233 356.2162,575.1233 C351.0502,575.1233 350.5132,572.6643 350.5132,570.0063 L350.5132,570.0063 L350.5132,537.7053 C350.5132,535.0473 351.0502,532.5903 356.2162,532.5903 Z M236.5159,565.274 C238.6419,565.274 240.6009,565.707 240.6009,569.832 C240.6009,573.959 238.6419,574.387 236.5159,574.387 L236.5159,574.387 L183.4039,574.387 C181.2749,574.387 179.3149,573.959 179.3149,569.832 C179.3149,565.707 181.2749,565.274 183.4039,565.274 L183.4039,565.274 Z M79.9737,528.2955 C85.7817,528.2955 90.4917,533.0045 90.4917,538.8145 C90.4917,544.6315 85.7817,549.3365 79.9737,549.3365 C74.1627,549.3365 69.4537,544.6315 69.4537,538.8145 C69.4537,533.0045 74.1627,528.2955 79.9737,528.2955 Z M558.4027,531.3555 C561.987271,531.3555 562.434739,533.019347 562.454014,534.852115 L562.4547,543.4495 C562.4547,545.3385 562.0747,547.0845 558.4027,547.0845 C554.7367,547.0845 554.3547,545.3385 554.3547,543.4495 L554.3547,534.9865 C554.3547,533.1015 554.7367,531.3555 558.4027,531.3555 Z M545.7787,531.3555 C549.4487,531.3555 549.8287,533.1015 549.8287,534.9865 L549.828014,543.584164 C549.80874,545.420653 549.361319,547.0845 545.7787,547.0845 C542.1137,547.0845 541.7317,545.3385 541.7317,543.4495 L541.7317,543.4495 L541.7317,534.9865 C541.7317,533.1015 542.1137,531.3555 545.7787,531.3555 Z M337.8743,528.2991 C341.5433,528.2991 341.9243,530.0431 341.9243,531.9301 L341.9243,531.9301 L341.9243,540.3931 C341.9243,542.2791 341.5433,544.0281 337.8743,544.0281 C334.2073,544.0281 333.8263,542.2791 333.8263,540.3931 L333.8263,540.3931 L333.8263,531.9301 C333.8263,530.0431 334.2073,528.2991 337.8743,528.2991 Z M325.2483,528.2991 C328.9183,528.2991 329.2993,530.0431 329.2993,531.9301 L329.2993,531.9301 L329.2993,540.3931 C329.2993,542.2791 328.9183,544.0281 325.2483,544.0281 C321.5833,544.0281 321.2003,542.2791 321.2003,540.3931 L321.2003,540.3931 L321.2003,531.9301 C321.2003,530.0431 321.5833,528.2991 325.2483,528.2991 Z M79.9627,534.0995 C77.3587,534.0995 75.2487,536.2115 75.2487,538.8145 C75.2487,541.4205 77.3587,543.5315 79.9627,543.5315 C82.5667,543.5315 84.6757,541.4205 84.6757,538.8145 C84.6757,536.2115 82.5667,534.0995 79.9627,534.0995 Z M267.9115,416.6003 C278.4495,416.6003 277.6555,424.2703 274.3235,431.5143 L274.3235,431.5143 L267.2645,446.8633 C267.1245,447.1603 266.9135,447.6723 266.9135,448.1133 C266.9135,448.7423 267.3555,449.2773 267.8145,449.7283 C271.9625,454.0253 272.9625,455.0983 275.1155,459.0413 C277.4665,463.5103 278.9185,468.3523 278.9185,473.5143 C278.9185,484.1463 274.4925,489.8633 264.0995,489.8633 L264.0995,489.8633 L259.4025,489.8673 C257.6235,489.8673 255.9805,489.5083 255.9805,486.0553 C255.9805,482.6023 257.6235,482.2383 259.4025,482.2383 L259.4025,482.2383 L263.9015,482.2383 C267.4575,482.2383 269.2505,479.5143 269.2505,472.7703 C269.2505,465.1333 264.9165,458.5023 263.1975,456.5293 C258.2355,450.9803 257.9695,451.2583 257.9695,449.2953 C257.9695,448.2773 258.2385,447.5703 258.9415,445.9983 L258.9415,445.9983 L266.6575,428.7623 C267.9255,425.9063 267.6215,424.2283 264.9895,424.2283 L264.9895,424.2283 L255.7125,424.2283 C253.4805,424.2283 252.9445,424.8283 252.9445,427.4343 L252.9445,427.4343 L252.943816,494.608239 C252.923234,496.700542 252.414833,498.5983 248.3375,498.5983 C244.1665,498.5983 243.7315,496.6133 243.7315,494.4653 L243.7315,494.4653 L243.7315,425.6843 C243.7315,418.5353 246.2785,416.6003 253.1695,416.6003 L253.1695,416.6003 Z M138.7772,413.5296 C143.2912,413.5296 143.7612,415.6306 143.7612,417.9126 L143.7612,417.9126 L143.7612,428.1756 L168.5522,428.1756 C176.2192,428.1756 179.8042,430.3616 179.8042,438.5826 L179.8042,438.5826 L179.8042,466.3966 C179.8042,474.6156 176.2192,476.8046 168.5522,476.8046 L168.5522,476.8046 L143.7612,476.8046 L143.7612,494.2126 C143.7612,496.4926 143.2912,498.5956 138.7772,498.5956 C134.2652,498.5956 133.7922,496.4926 133.7922,494.2126 L133.7922,494.2126 L133.7922,476.8046 L109.0032,476.8046 C101.3362,476.8046 97.7502,474.6156 97.7502,466.3966 L97.7502,466.3966 L97.7502,438.5826 C97.7502,430.3616 101.3362,428.1756 109.0032,428.1756 L109.0032,428.1756 L133.7922,428.1756 L133.7922,417.9126 C133.7922,415.6306 134.2652,413.5296 138.7772,413.5296 Z M422.3161,413.7956 C427.5481,413.7956 428.0921,416.2856 428.0921,418.9826 L428.0921,418.9826 L428.0921,430.9476 L457.6121,430.9456 C465.4361,430.9456 469.0951,433.2226 469.0951,441.7796 L469.0951,441.7796 L469.0951,476.0006 C469.0951,491.0826 461.9801,497.1426 449.4951,497.1426 L449.4951,497.1426 L436.8791,497.1426 C434.7291,497.1426 432.7361,496.7096 432.7361,492.5276 C432.7361,488.3386 434.7291,487.9046 436.8791,487.9046 L447.0671,487.9046 C454.8621,487.9046 457.6241,484.4866 457.6241,476.8886 L457.6241,476.8886 L457.6241,442.9356 C457.6241,440.0526 456.7901,439.1316 453.8801,439.1316 L453.8801,439.1316 L427.2791,439.1316 C425.6471,466.7016 411.0211,488.3556 390.2161,495.9256 C385.9831,497.3796 385.1831,494.5976 385.1831,491.9986 C385.1831,488.3696 385.8911,487.2916 387.6081,486.2506 C402.7331,477.5766 414.1341,462.8206 415.8361,439.1316 L415.8361,439.1316 L390.3791,439.1316 C388.4671,439.1316 386.6931,438.7466 386.6931,435.0376 C386.6931,431.3306 388.4671,430.9476 390.3791,430.9476 L416.5401,430.9476 L416.5401,418.9826 C416.5401,416.2856 417.0841,413.7956 422.3161,413.7956 Z M358.752,455.5526 C365.257,455.5526 367.321,457.1646 367.321,463.3206 L367.321,463.3206 L367.321,476.4886 C367.321,482.6446 365.257,484.2576 358.752,484.2576 L358.752,484.2576 L335.922,484.2576 L335.922,485.6116 C335.922,488.4376 336.738,489.3406 339.592,489.3406 L339.592,489.3406 L369.190492,489.341338 C370.877556,489.360595 372.407,489.778395 372.407,493.0766 C372.407,496.4616 370.796,496.8126 369.057,496.8126 L369.057,496.8126 L337.586,496.8126 C329.918,496.8126 326.333,494.5826 326.333,486.1936 L326.333,486.1936 L326.333,484.2576 L303.512,484.2576 C297.008,484.2576 294.945,482.6446 294.945,476.4886 L294.945,476.4886 L294.945,463.3206 C294.945,457.1646 297.008,455.5526 303.512,455.5526 L303.512,455.5526 Z M228.4839,461.9026 C235.5609,461.9026 237.8019,463.6706 237.8019,470.3636 L237.8019,470.3636 L237.8019,487.9396 C237.8019,494.6326 235.5609,496.4006 228.4839,496.4006 L228.4839,496.4006 L206.3279,496.4006 C199.2509,496.4006 197.0089,494.6326 197.0089,487.9396 L197.0089,487.9396 L197.0089,470.3636 C197.0089,463.6706 199.2509,461.9026 206.3279,461.9026 L206.3279,461.9026 Z M225.6449,469.5526 L209.1649,469.5526 C207.1319,469.5526 206.2119,470.2226 206.2119,472.4806 L206.2119,472.4806 L206.2119,485.8186 C206.2119,488.0806 207.1319,488.7506 209.1649,488.7506 L209.1649,488.7506 L225.6449,488.7506 C227.6779,488.7506 228.5989,488.0806 228.5989,485.8186 L228.5989,485.8186 L228.5989,472.4806 C228.5989,470.2226 227.6779,469.5526 225.6449,469.5526 L225.6449,469.5526 Z M326.333,472.4396 L303.442,472.4396 L303.442,475.5436 C303.442,477.6216 304.29,478.2366 306.158,478.2366 L306.158,478.2366 L326.333,478.2366 L326.333,472.4396 Z M358.822,472.4396 L335.922,472.4396 L335.922,478.2366 L356.107,478.2366 C357.976,478.2366 358.822,477.6216 358.822,475.5436 L358.822,475.5436 L358.822,472.4396 Z M133.7922,436.3006 L111.3912,436.3006 C108.5392,436.3006 107.7202,437.1836 107.7202,439.9536 L107.7202,439.9536 L107.7202,465.0256 C107.7202,467.7956 108.5392,468.6796 111.3912,468.6796 L111.3912,468.6796 L133.7922,468.6796 L133.7922,436.3006 Z M166.1642,436.3006 L143.7612,436.3006 L143.7612,468.6796 L166.1642,468.6796 C169.0162,468.6796 169.8352,467.7956 169.8352,465.0256 L169.8352,465.0256 L169.8352,439.9536 C169.8352,437.1836 169.0162,436.3006 166.1642,436.3006 L166.1642,436.3006 Z M326.333,461.3696 L306.158,461.3696 C304.29,461.3696 303.442,461.9846 303.442,464.0626 L303.442,464.0626 L303.442,467.0486 L326.333,467.0486 L326.333,461.3696 Z M356.107,461.3696 L335.922,461.3696 L335.922,467.0486 L358.822,467.0486 L358.822,464.0626 C358.822,461.9846 357.976,461.3696 356.107,461.3696 L356.107,461.3696 Z M217.4008,413.7955 C221.5708,413.7955 222.0078,415.7795 222.0078,417.9275 L222.0078,417.9275 L222.0078,423.1525 L236.5888,423.1525 C238.3668,423.1525 240.0098,423.5135 240.0098,426.9655 C240.0098,430.4205 238.3668,430.7795 236.5888,430.7795 L233.5208,430.7795 L230.8328,448.4595 L237.3508,448.4595 C239.1288,448.4595 240.7718,448.8205 240.7718,452.2735 C240.7718,455.7265 239.1288,456.0885 237.3508,456.0885 L197.326727,456.087779 C195.600677,456.068468 194.0388,455.640175 194.0388,452.2735 C194.0388,448.8205 195.6818,448.4595 197.4598,448.4595 L197.4598,448.4595 L203.9768,448.4595 L201.2908,430.7795 L198.089654,430.778784 C196.362677,430.759615 194.8008,430.334125 194.8008,426.9655 C194.8008,423.5135 196.4438,423.1525 198.2228,423.1525 L198.2228,423.1525 L212.7948,423.1525 L212.795479,417.784563 C212.815935,415.692302 213.321511,413.7955 217.4008,413.7955 Z M365.0774,417.1391 C366.7784,417.1391 368.3464,417.4851 368.3464,420.7831 C368.3464,424.0861 366.7784,424.4301 365.0774,424.4301 L365.0774,424.4301 L335.7774,424.4301 L335.7754,428.5491 L362.8654,428.5491 C369.8634,428.5491 372.0784,430.2971 372.0784,436.9161 L372.0784,436.9161 L372.0814,445.4221 C372.0814,447.5531 371.6514,449.5221 367.5124,449.5221 C363.3744,449.5221 362.9424,447.5531 362.9424,445.4221 L362.9424,445.4221 L362.9424,438.1001 C362.9424,435.8651 362.0314,435.2051 360.0214,435.2051 L360.0214,435.2051 L335.7754,435.2051 L335.774738,448.721498 C335.75436,450.838369 335.240922,452.7581 331.1244,452.7581 C326.9104,452.7581 326.4704,450.7521 326.4704,448.5801 L326.4704,448.5801 L326.4704,435.2051 L302.2734,435.2051 C300.2614,435.2051 299.3514,435.8651 299.3514,438.1001 L299.3514,438.1001 L299.3494,445.4221 C299.3494,447.5531 298.9164,449.5221 294.7834,449.5221 C290.6434,449.5221 290.2134,447.5531 290.2134,445.4221 L290.2134,445.4221 L290.2134,436.9161 C290.2134,430.2971 292.4324,428.5491 299.4294,428.5491 L299.4294,428.5491 L326.4734,428.5491 L326.4734,424.4301 L297.2174,424.4301 C295.5154,424.4301 293.9464,424.0861 293.9464,420.7831 C293.9464,417.4851 295.5154,417.1391 297.2174,417.1391 L297.2174,417.1391 Z M320.7118,446.9825 C321.8798,446.9825 322.9598,447.2035 322.9598,449.4745 C322.9598,451.7485 321.8798,451.9885 320.7118,451.9885 L304.987046,451.987634 C303.862131,451.97024 302.8548,451.6727 302.8548,449.4745 C302.8548,447.2035 303.9328,446.9825 305.1038,446.9825 L305.1038,446.9825 Z M357.1908,446.9825 C358.3588,446.9825 359.4398,447.2035 359.4398,449.4745 C359.4398,451.7485 358.3588,451.9885 357.1908,451.9885 L341.46605,451.987634 C340.341197,451.97024 339.3348,451.6727 339.3348,449.4745 C339.3348,447.2035 340.4118,446.9825 341.5828,446.9825 L341.5828,446.9825 Z M224.8738,430.7795 L209.9368,430.7795 L212.6248,448.4595 L222.1858,448.4595 L224.8738,430.7795 Z M320.7913,438.6743 C321.9183,438.6743 322.9583,438.9003 322.9583,441.0843 C322.9583,443.2733 321.9183,443.5003 320.7913,443.5003 L320.7913,443.5003 L305.0243,443.5003 C303.8973,443.5003 302.8573,443.2733 302.8573,441.0843 C302.8573,438.9003 303.8973,438.6743 305.0243,438.6743 L305.0243,438.6743 Z M357.2703,438.6743 C358.3963,438.6743 359.4373,438.9003 359.4373,441.0843 C359.4373,443.2733 358.3963,443.5003 357.2703,443.5003 L357.2703,443.5003 L341.5033,443.5003 C340.3773,443.5003 339.3373,443.2733 339.3373,441.0843 C339.3373,438.9003 340.3773,438.6743 341.5033,438.6743 L341.5033,438.6743 Z" id="Combined-Shape" fill="#514F4E"></path>
            </g>
        </g>
    </g>
</svg>