<?xml version="1.0" encoding="UTF-8"?>
<svg width="397px" height="671px" viewBox="0 0 397 671" version="1.1" xmlns="http://www.w3.org/2000/svg" xmlns:xlink="http://www.w3.org/1999/xlink">
    <!-- Generator: Sketch 63.1 (92452) - https://sketch.com -->
    <title>中部電力ミライズ</title>
    <desc>Created with Sketch.</desc>
    <g id="Symbols" stroke="none" stroke-width="1" fill="none" fill-rule="evenodd">
        <g id="logo/mr/symbol_02" transform="translate(0.000000, -1.000000)">
            <g id="Group" transform="translate(0.000100, 0.999539)">
                <path d="M270.8378,583.753161 C274.0258,583.755161 278.0298,584.669161 275.8968,588.958161 C270.4148,599.980161 261.9588,609.711161 250.4098,617.668161 L250.4098,617.668161 L250.409187,664.919593 C250.386247,667.856418 249.692871,670.534161 243.9768,670.534161 C238.1498,670.534161 237.5458,667.758161 237.5458,664.759161 L237.5458,664.759161 L237.5458,625.151161 C227.1888,630.219161 215.0298,634.175161 201.0168,636.802161 C196.2388,637.698161 195.5958,634.903161 195.5958,632.156161 C195.5958,628.326161 196.7508,626.696161 200.1888,625.954161 C232.8668,618.899161 252.0798,605.679161 262.6978,588.056161 C264.6728,584.776161 266.5068,583.753161 270.8378,583.753161 Z M15.7753,655.286661 C15.7753,650.857661 17.3303,650.430661 20.1593,650.555661 C44.4623,651.597661 67.1543,653.477661 88.1083,657.316661 C91.0073,657.846661 92.7563,658.820661 92.7563,663.521661 C92.7563,668.212661 90.8273,668.762661 88.1013,668.294661 C67.4723,664.737661 45.3393,661.542661 20.1553,660.329661 C17.5703,660.208661 15.7753,659.704661 15.7753,655.286661 Z M111.5619,610.392761 L172.9569,610.395761 C182.2709,610.395761 184.5659,613.221761 183.5109,621.544761 C179.9919,649.280761 162.1069,664.481761 122.4399,668.361761 C117.8009,668.817761 117.1689,665.932761 117.1689,663.209761 C117.1689,659.411761 118.2789,657.870761 121.6299,657.522761 C148.6859,654.696761 166.5889,645.661761 170.1049,624.323761 C170.5549,621.588761 169.8989,620.467761 167.2209,620.467761 L167.2209,620.467761 L111.5619,620.458761 C109.2169,620.458761 107.0509,619.981761 107.0509,615.426761 C107.0509,610.862761 109.2169,610.392761 111.5619,610.392761 L111.5619,610.392761 Z M291.8331,587.907761 L341.9311,587.911761 C351.2461,587.911761 354.2731,590.923761 352.4911,599.123761 C350.4561,608.481761 346.7981,617.739761 341.5631,626.381761 C346.3201,636.891761 355.3531,647.868761 366.9081,656.102761 C369.2481,657.772761 370.1741,659.358761 370.1741,663.618761 C370.1741,667.174761 368.6841,669.649761 364.5921,667.112761 C351.6581,659.091761 341.4281,648.678761 333.9161,637.176761 C322.9411,650.531761 307.6451,661.555761 288.2261,667.856761 C284.4601,669.077761 283.1511,666.541761 283.1511,663.305761 C283.1511,659.430761 283.9221,658.045761 286.1391,657.261761 C314.0611,647.403761 334.1041,622.217761 338.6511,601.791761 C339.2531,599.086761 338.5431,597.981761 335.8641,597.981761 L335.8641,597.981761 L291.8331,597.973761 C289.4861,597.973761 287.3211,597.495761 287.3211,592.940761 C287.3211,588.378761 289.4861,587.907761 291.8331,587.907761 L291.8331,587.907761 Z M21.4964,622.294061 C21.4964,617.866061 23.0474,617.482061 25.8774,617.564061 C40.8124,617.992061 72.0834,621.255061 81.6474,622.966061 C84.5514,623.486061 86.2964,624.473061 86.2964,629.173061 C86.2964,633.862061 84.3754,634.369061 81.6424,633.943061 C70.9064,632.270061 46.7294,628.467061 25.8764,627.341061 C23.2894,627.200061 21.4964,626.713061 21.4964,622.294061 Z M19.3387,590.526461 C19.3387,586.100461 20.8907,585.710461 23.7207,585.796461 C33.4187,586.091461 64.2057,588.307461 84.6047,591.877461 C87.5117,592.385461 89.2547,593.383461 89.2547,598.083461 C89.2547,602.772461 87.3327,603.276461 84.6027,602.854461 C63.1197,599.535461 44.6457,596.910461 23.7187,595.572461 C21.1317,595.406461 19.3387,594.945461 19.3387,590.526461 Z M363.327,580.578861 C367.249,580.578861 367.656,582.445861 367.656,584.461861 L367.656,584.461861 L367.656,593.504861 C367.656,595.522861 367.249,597.389861 363.327,597.389861 C359.408,597.389861 358.999,595.522861 358.999,593.504861 L358.99967,584.324657 C359.019404,582.361961 359.497068,580.578861 363.327,580.578861 Z M376.8183,580.579361 C380.7403,580.579361 381.1483,582.445361 381.1483,584.462361 L381.1483,584.462361 L381.1483,593.505361 C381.1483,595.522361 380.7403,597.390361 376.8183,597.390361 C372.9013,597.390361 372.4933,595.522361 372.4933,593.505361 L372.493969,584.325092 C372.513658,582.361506 372.990323,580.579361 376.8183,580.579361 Z M177.332277,586.453408 C179.621334,586.474202 181.7009,587.019781 181.7009,591.485761 C181.7009,596.039761 179.5319,596.518761 177.1859,596.518761 L177.1859,596.518761 L117.0819,596.518761 C114.7339,596.518761 112.5679,596.039761 112.5679,591.485761 C112.5679,586.924761 114.7339,586.452761 117.0819,586.452761 Z M181.85,461.232961 C193.112,461.232961 192.265,469.428961 188.701,477.171961 L188.701,477.171961 L181.157,493.574961 C181.01,493.891961 180.781,494.440961 180.781,494.910961 C180.781,495.582961 181.254,496.153961 181.746,496.637961 C186.179,501.231961 187.248,502.371961 189.548,506.590961 C192.059,511.364961 193.611,516.539961 193.611,522.057961 C193.611,533.417961 188.884,539.528961 177.774,539.528961 L177.774,539.528961 L172.755,539.532961 C170.854,539.532961 169.098,539.147961 169.098,535.455961 C169.098,531.766961 170.854,531.379961 172.755,531.379961 L172.755,531.379961 L177.564,531.379961 C181.365,531.379961 183.283,528.468961 183.283,521.258961 C183.283,513.099961 178.648,506.014961 176.812,503.905961 C171.51,497.975961 171.225,498.270961 171.225,496.172961 C171.225,495.085961 171.512,494.330961 172.264,492.650961 L172.264,492.650961 L180.508,474.227961 C181.864,471.180961 181.54,469.387961 178.726,469.387961 L178.726,469.387961 L168.81,469.387961 C166.426,469.387961 165.852,470.024961 165.852,472.809961 L165.852,472.809961 L165.854,544.444961 C165.854,546.739961 165.387,548.862961 160.932,548.862961 C156.473,548.862961 156.008,546.739961 156.008,544.444961 L156.008,544.444961 L156.008,470.939961 C156.008,463.301961 158.729,461.232961 166.095,461.232961 L166.095,461.232961 Z M43.847,457.951561 C48.67,457.951561 49.173,460.198561 49.173,462.633561 L49.173,473.602561 L75.666,473.602561 C83.859,473.602561 87.693,475.939561 87.693,484.725561 L87.693,484.725561 L87.693,514.448561 C87.693,523.235561 83.859,525.572561 75.666,525.572561 L75.666,525.572561 L49.173,525.572561 L49.1723659,544.320599 C49.151152,546.701661 48.57354,548.862561 43.847,548.862561 C39.022,548.862561 38.521,546.612561 38.521,544.174561 L38.521,544.174561 L38.521,525.572561 L12.028,525.572561 C3.834,525.572561 -3.26849658e-13,523.235561 -3.26849658e-13,514.448561 L-3.26849658e-13,514.448561 L-3.26849658e-13,484.725561 C-3.26849658e-13,475.939561 3.834,473.602561 12.028,473.602561 L12.028,473.602561 L38.521,473.602561 L38.521,462.633561 C38.521,460.198561 39.022,457.951561 43.847,457.951561 Z M346.859,458.237661 C352.451,458.237661 353.033,460.895661 353.033,463.777661 L353.033,463.777661 L353.033,476.565661 L384.581,476.565661 C392.939,476.565661 396.85,478.997661 396.85,488.141661 L396.85,488.141661 L396.85,524.713661 C396.85,540.830661 389.247,547.306661 375.905,547.306661 L375.905,547.306661 L362.421,547.306661 C360.123,547.306661 357.994,546.841661 357.994,542.374661 C357.994,537.897661 360.123,537.434661 362.421,537.434661 L373.31,537.434661 C381.64,537.434661 384.591,533.780661 384.591,525.661661 L384.591,525.661661 L384.591,489.374661 C384.591,486.295661 383.699,485.311661 380.59,485.311661 L380.59,485.311661 L352.164,485.311661 C350.421,514.774661 334.79,537.915661 312.554,546.004661 C308.033,547.559661 307.179,544.588661 307.179,541.809661 C307.179,537.931661 307.932,536.778661 309.767,535.664661 C325.931,526.395661 338.116,510.629661 339.935,485.311661 L339.935,485.311661 L312.729,485.311661 C310.687,485.311661 308.789,484.901661 308.789,480.936661 C308.789,476.973661 310.687,476.565661 312.729,476.565661 L340.687,476.565661 L340.687603,463.620697 C340.709783,460.799885 341.369655,458.237661 346.859,458.237661 Z M278.9301,502.862661 C285.8821,502.862661 288.0881,504.583661 288.0881,511.164661 L288.0881,511.164661 L288.0881,525.237661 C288.0881,531.813661 285.8821,533.538661 278.9301,533.538661 L278.9301,533.538661 L254.5301,533.538661 L254.5301,534.985661 C254.5301,538.002661 255.4051,538.968661 258.4531,538.968661 L258.4531,538.968661 L290.075993,538.969377 C291.883883,538.989025 293.5191,539.434807 293.5191,542.960661 C293.5191,546.579661 291.8011,546.955661 289.9401,546.955661 L289.9401,546.955661 L256.3101,546.955661 C248.1151,546.955661 244.2831,544.571661 244.2831,535.607661 L244.2831,535.607661 L244.2831,533.538661 L219.8951,533.538661 C212.9441,533.538661 210.7381,531.813661 210.7381,525.237661 L210.7381,525.237661 L210.7381,511.164661 C210.7381,504.583661 212.9441,502.862661 219.8951,502.862661 L219.8951,502.862661 Z M139.7148,509.647261 C147.2758,509.647261 149.6718,511.536261 149.6718,518.688261 L149.6718,518.688261 L149.6718,537.472261 C149.6718,544.626261 147.2758,546.514261 139.7148,546.514261 L139.7148,546.514261 L116.0348,546.514261 C108.4728,546.514261 106.0778,544.626261 106.0778,537.472261 L106.0778,537.472261 L106.0778,518.688261 C106.0778,511.536261 108.4728,509.647261 116.0348,509.647261 L116.0348,509.647261 Z M136.6808,517.821261 L119.0688,517.821261 C116.8958,517.821261 115.9108,518.538261 115.9108,520.953261 L115.9108,520.953261 L115.9108,535.208261 C115.9108,537.622261 116.8958,538.337261 119.0688,538.337261 L119.0688,538.337261 L136.6808,538.337261 C138.8558,538.337261 139.8378,537.622261 139.8378,535.208261 L139.8378,535.208261 L139.8378,520.953261 C139.8378,518.538261 138.8558,517.821261 136.6808,517.821261 L136.6808,517.821261 Z M244.2831,520.905661 L219.8211,520.905661 L219.8211,524.225661 C219.8211,526.443661 220.7271,527.101661 222.7221,527.101661 L222.7221,527.101661 L244.2831,527.101661 L244.2831,520.905661 Z M279.0031,520.905661 L254.5301,520.905661 L254.5301,527.101661 L276.1011,527.101661 C278.0981,527.101661 279.0031,526.443661 279.0031,524.225661 L279.0031,524.225661 L279.0031,520.905661 Z M73.114,482.285561 L49.173,482.285561 L49.173,516.887561 L73.114,516.887561 C76.164,516.887561 77.037,515.942561 77.037,512.985561 L77.037,512.985561 L77.037,486.192561 C77.037,483.231561 76.164,482.285561 73.114,482.285561 L73.114,482.285561 Z M38.521,482.285561 L14.578,482.285561 C11.529,482.285561 10.656,483.231561 10.656,486.192561 L10.656,486.192561 L10.656,512.985561 C10.656,515.942561 11.529,516.887561 14.578,516.887561 L14.578,516.887561 L38.521,516.887561 L38.521,482.285561 Z M244.2831,509.077661 L222.7221,509.077661 C220.7271,509.077661 219.8211,509.735661 219.8211,511.953661 L219.8211,511.953661 L219.8211,515.147661 L244.2831,515.147661 L244.2831,509.077661 Z M276.1011,509.077661 L254.5301,509.077661 L254.5301,515.147661 L279.0031,515.147661 L279.0031,511.953661 C279.0031,509.735661 278.0981,509.077661 276.1011,509.077661 L276.1011,509.077661 Z M127.8713,458.235461 C132.3273,458.235461 132.7933,460.357461 132.7933,462.652461 L132.7933,462.652461 L132.7933,468.234461 L148.3743,468.234461 C150.2753,468.234461 152.0303,468.620461 152.0303,472.309461 C152.0303,476.003461 150.2753,476.387461 148.3743,476.387461 L145.0963,476.387461 L142.2263,495.280461 L149.1893,495.280461 C151.0883,495.280461 152.8463,495.667461 152.8463,499.356461 C152.8463,503.048461 151.0883,503.432461 149.1893,503.432461 L106.425713,503.431768 C104.576676,503.4123 102.9033,502.960556 102.9033,499.356461 C102.9033,495.667461 104.6593,495.280461 106.5613,495.280461 L106.5613,495.280461 L113.5263,495.280461 L110.6543,476.387461 L107.240711,476.386768 C105.391629,476.367298 103.7173,475.915508 103.7173,472.309461 C103.7173,468.620461 105.4743,468.234461 107.3763,468.234461 L107.3763,468.234461 L122.9483,468.234461 L122.948964,462.506225 C122.969853,460.268123 123.507172,458.235461 127.8713,458.235461 Z M285.6891,461.808361 C287.5071,461.808361 289.1831,462.177361 289.1831,465.704361 C289.1831,469.233361 287.5071,469.599361 285.6891,469.599361 L254.3771,469.599361 L254.3751,474.002361 L283.3261,474.002361 C290.8031,474.002361 293.1731,475.870361 293.1731,482.945361 L293.1731,482.945361 L293.1751,492.036361 C293.1751,494.311361 292.7151,496.415361 288.2911,496.415361 C283.8701,496.415361 283.4091,494.311361 283.4091,492.036361 L283.4091,492.036361 L283.4071,484.210361 C283.4071,481.822361 282.4351,481.114361 280.2851,481.114361 L280.2851,481.114361 L254.3751,481.114361 L254.3751,495.410361 C254.3751,497.731361 253.9021,499.872361 249.4031,499.872361 C244.9001,499.872361 244.4311,497.731361 244.4311,495.410361 L244.4311,481.114361 L218.5701,481.114361 C216.4211,481.114361 215.4481,481.822361 215.4481,484.210361 L215.4481,484.210361 L215.4481,492.036361 C215.4481,494.311361 214.9841,496.415361 210.5641,496.415361 C206.1421,496.415361 205.6821,494.311361 205.6821,492.036361 L205.6821,482.945361 C205.6821,475.870361 208.0531,474.002361 215.5301,474.002361 L215.5301,474.002361 L244.4311,474.002361 L244.4311,469.599361 L213.03189,469.598631 C211.265249,469.579084 209.6701,469.145136 209.6701,465.704361 C209.6701,462.177361 211.3481,461.808361 213.1681,461.808361 L213.1681,461.808361 Z M238.2756,493.702061 C239.5266,493.702061 240.6776,493.939061 240.6776,496.367061 C240.6776,498.796061 239.5266,499.051061 238.2756,499.051061 L238.2756,499.051061 L221.5946,499.051061 C220.3466,499.051061 219.1936,498.796061 219.1936,496.367061 C219.1936,493.939061 220.3466,493.702061 221.5946,493.702061 L221.5946,493.702061 Z M277.262,493.702061 C278.512,493.702061 279.664,493.939061 279.664,496.367061 C279.664,498.796061 278.512,499.051061 277.262,499.051061 L277.262,499.051061 L260.581,499.051061 C259.33,499.051061 258.178,498.796061 258.178,496.367061 C258.178,493.939061 259.33,493.702061 260.581,493.702061 L260.581,493.702061 Z M135.8563,476.387461 L119.8943,476.387461 L122.7663,495.280461 L132.9843,495.280461 L135.8563,476.387461 Z M238.480546,484.824536 C239.639132,484.84212 240.6773,485.143494 240.6773,487.400661 C240.6773,489.735661 239.5663,489.981661 238.3603,489.981661 L238.3603,489.981661 L221.5103,489.981661 C220.3063,489.981661 219.1973,489.735661 219.1973,487.400661 C219.1973,485.065661 220.3063,484.823661 221.5103,484.823661 Z M277.465649,484.824536 C278.622367,484.84212 279.6596,485.143494 279.6596,487.400661 C279.6596,489.735661 278.5496,489.981661 277.3456,489.981661 L277.3456,489.981661 L260.4946,489.981661 C259.2896,489.981661 258.1796,489.735661 258.1796,487.400661 C258.1796,485.065661 259.2896,484.823661 260.4946,484.823661 Z" id="Combined-Shape" fill="#514F4E"></path>
                <path d="M195.6581,318.730161 C197.7971,317.431161 198.3981,315.462161 197.0191,313.054161 L172.7521,270.783161 C171.3631,268.365161 169.7641,267.746161 166.4381,268.557161 L20.4371,304.084161 C17.1901,304.854161 16.5811,306.433161 17.6701,309.490161 L50.4911,401.838161 C51.2611,404.017161 52.9381,404.476161 55.3371,403.038161 L195.6581,318.730161 Z" id="Fill-4" fill="#C11920"></path>
                <path d="M378.2753,71.9381606 C380.8823,67.5991606 379.7003,64.5681606 375.9783,61.6441606 L299.0523,1.24816062 C296.3053,-0.908839379 292.8073,-0.259839379 291.7893,3.11516062 L221.0383,235.712161 C220.3083,238.088161 220.6413,240.180161 221.6863,241.957161 L245.6053,283.611161 C246.8843,285.849161 249.5633,286.125161 251.0003,283.713161 L378.2753,71.9381606 Z" id="Fill-1" fill="#E60012"></path>
            </g>
        </g>
    </g>
</svg>