<?xml version="1.0" encoding="UTF-8"?>
<svg width="396px" height="548px" viewBox="0 0 396 548" version="1.1" xmlns="http://www.w3.org/2000/svg" xmlns:xlink="http://www.w3.org/1999/xlink">
    <!-- Generator: Sketch 63.1 (92452) - https://sketch.com -->
    <title>中部電力</title>
    <desc>Created with Sketch.</desc>
    <g id="Symbols" stroke="none" stroke-width="1" fill="none" fill-rule="evenodd">
        <g id="logo/hd/symbol_02">
            <g>
                <path d="M181.427685,461 C192.508675,461 191.672963,469.138384 188.170319,476.822731 L188.170319,476.822731 L180.746258,493.107838 C180.600238,493.425664 180.377076,493.968655 180.377076,494.437518 C180.377076,495.103748 180.841768,495.671758 181.32391,496.149887 C185.687061,500.710643 186.735834,501.842956 189.00144,506.029364 C191.473678,510.770809 193,515.908841 193,521.383232 C193,532.667444 188.347564,538.732083 177.419023,538.732083 L177.419023,538.732083 L172.479138,538.735789 C170.608429,538.735789 168.880985,538.354028 168.880985,534.687446 C168.880985,531.026424 170.608429,530.643736 172.479138,530.643736 L172.479138,530.643736 L177.210554,530.640956 C180.950135,530.640956 182.836457,527.751797 182.836457,520.596543 C182.836457,512.494297 178.277694,505.459501 176.469433,503.367224 C171.25404,497.476787 170.97302,497.771448 170.97302,495.69029 C170.97302,494.609867 171.254958,493.858389 171.994242,492.189571 L171.994242,492.189571 L180.106158,473.902067 C181.443297,470.875771 181.122788,469.097613 178.353918,469.097613 L178.353918,469.097613 L168.598129,469.097613 C166.252625,469.097613 165.68783,469.728632 165.68783,472.494552 L165.68783,472.494552 L165.687173,543.758633 C165.666514,545.98072 165.135366,548 160.844374,548 C156.456427,548 156,545.89197 156,543.613445 L156,470.637633 C156,463.052433 158.67887,461 165.92385,461 L165.92385,461 Z M43.4986111,457 C48.285801,457 48.783965,459.249705 48.783965,461.689999 L48.783965,472.669456 L75.0653597,472.669456 C83.1971008,472.669456 87,475.006981 87,483.802131 L87,483.802131 L87,513.55373 C87,522.347012 83.1971008,524.688274 75.0653597,524.688274 L75.0653597,524.688274 L48.783965,524.688274 L48.7833103,543.460962 C48.7618454,545.842079 48.1881032,548 43.4986111,548 C38.714199,548 38.215109,545.751229 38.215109,543.311869 L38.215109,524.688274 L11.9318624,524.688274 C3.80197324,524.688274 0,522.347012 0,513.55373 L0,513.55373 L0,483.802131 C0,475.006981 3.80197324,472.669456 11.9318624,472.669456 L11.9318624,472.669456 L38.215109,472.669456 L38.2157648,461.540849 C38.2372649,459.158817 38.8118401,457 43.4986111,457 Z M345.559825,457.833289 C351.118485,457.833289 351.697454,460.477619 351.697454,463.344629 L351.697454,463.344629 L351.697454,476.053186 L383.061062,476.053186 C391.368897,476.053186 395.255598,478.472052 395.255598,487.562052 L395.255598,487.562052 L395.255598,523.91834 C395.255598,539.941124 387.697454,546.380299 374.434979,546.380299 L374.434979,546.380299 L361.030546,546.380299 C358.747144,546.380299 356.628897,545.918237 356.628897,541.476691 C356.628897,537.027722 358.747144,536.56566 361.030546,536.56566 L361.030546,536.56566 L371.85467,536.56566 C380.135598,536.56566 383.069412,532.934113 383.069412,524.863804 L383.069412,524.863804 L383.071268,488.789577 C383.071268,485.726794 382.184258,484.749784 379.093639,484.749784 L379.093639,484.749784 L350.833639,484.749784 C349.100443,514.041536 333.561062,537.043495 311.457247,545.085969 C306.960959,546.629887 306.111062,543.678443 306.111062,540.914423 C306.111062,537.062052 306.86168,535.915247 308.686732,534.807412 C324.754052,525.594938 336.867866,509.919165 338.676216,484.749784 L338.676216,484.749784 L311.493444,484.749116 C309.515842,484.729443 307.713433,484.252843 307.713433,480.399165 C307.713433,476.460505 309.600649,476.053186 311.63168,476.053186 L339.424052,476.053186 L339.42465,463.188482 C339.446684,460.382335 340.102231,457.833289 345.559825,457.833289 Z M139.176847,509 C146.637656,509 149,510.892344 149,518.072007 L149,518.072007 L149,536.925182 C149,544.104846 146.637656,546 139.176847,546 L139.176847,546 L115.822232,546 C108.363265,546 106,544.104846 106,536.925182 L106,536.925182 L106,518.072007 C106,510.892344 108.363265,509 115.822232,509 L115.822232,509 Z M277.547956,502 C284.434681,502 286.61654,503.719245 286.61654,510.282364 L286.61654,510.282364 L286.61654,524.326899 C286.61654,530.89188 284.434681,532.609263 277.547956,532.609263 L277.547956,532.609263 L253.379243,532.609263 L253.379243,534.054695 C253.379243,537.065701 254.245516,538.029633 257.263138,538.029633 L257.263138,538.029633 L288.455403,538.029633 C290.298889,538.029633 292,538.405893 292,542.012954 C292,545.623741 290.298889,545.999069 288.455403,545.999069 L288.455403,545.999069 L255.141372,546 C247.023192,546 243.228051,543.62137 243.228051,534.674964 L243.228051,534.674964 L243.228051,532.609263 L219.070432,532.609263 C212.183708,532.609263 210,530.89188 210,524.326899 L210,524.326899 L210,510.282364 C210,503.719245 212.183708,502 219.070432,502 L219.070432,502 Z M136.186632,517.204527 L118.814289,517.204527 C116.671056,517.204527 115.699788,517.922119 115.699788,520.346567 L115.699788,520.346567 L115.699788,534.65437 C115.699788,537.078818 116.671056,537.79641 118.814289,537.79641 L118.814289,537.79641 L136.186632,537.79641 C138.329865,537.79641 139.300212,537.078818 139.300212,534.65437 L139.300212,534.65437 L139.300212,520.346567 C139.300212,517.922119 138.329865,517.204527 136.186632,517.204527 L136.186632,517.204527 Z M243.228051,520.004572 L218.997396,520.004572 L218.997396,523.317331 C218.997396,525.531115 219.893252,526.189569 221.870793,526.189569 L221.870793,526.189569 L243.228051,526.189569 L243.228051,520.004572 Z M277.620993,520.004572 L253.379243,520.004572 L253.379243,526.189569 L274.745747,526.189569 C276.725137,526.189569 277.620993,525.531115 277.620993,523.317331 L277.620993,523.317331 L277.620993,520.004572 Z M72.5365752,481.3581 L48.783965,481.3581 L48.783965,515.997762 L72.5365752,515.997762 C75.5607459,515.997762 76.4283662,515.050419 76.4283662,512.088806 L76.4283662,512.088806 L76.4283662,485.267055 C76.4283662,482.307311 75.5607459,481.3581 72.5365752,481.3581 L72.5365752,481.3581 Z M38.215109,481.3581 L14.4624988,481.3581 C11.4374022,481.3581 10.5707079,482.307311 10.5707079,485.267055 L10.5707079,485.267055 L10.5707079,512.088806 C10.5707079,515.050419 11.4374022,515.997762 14.4624988,515.997762 L14.4624988,515.997762 L38.215109,515.997762 L38.215109,481.3581 Z M243.228051,508.201761 L221.870793,508.201761 C219.893252,508.201761 218.997396,508.860215 218.997396,511.072136 L218.997396,511.072136 L218.997396,514.256371 L243.228051,514.256371 L243.228051,508.201761 Z M274.745747,508.201761 L253.379243,508.201761 L253.379243,514.256371 L277.620993,514.256371 L277.620993,511.072136 C277.620993,508.860215 276.725137,508.201761 274.745747,508.201761 L274.745747,508.201761 Z M126.99673,458 C131.457495,458 131.925623,460.112279 131.925623,462.395548 L131.925623,462.395548 L131.925623,467.955497 L147.524285,467.955497 C149.425763,467.955497 151.185214,468.340224 151.185214,472.013712 C151.185214,475.689059 149.425763,476.071927 147.524285,476.071927 L144.243651,476.071927 L141.367607,494.884499 L148.33907,494.884499 C150.242417,494.884499 152,495.267367 152,498.944573 C152,502.61992 150.242417,503 148.33907,503 L148.33907,503 L105.661864,503 C103.759451,503 102,502.61992 102,498.944573 C102,495.267367 103.759451,494.884499 105.661864,494.884499 L105.661864,494.884499 L112.634262,494.884499 L109.759152,476.071927 L106.3419,476.071237 C104.491539,476.051829 102.816655,475.601551 102.816655,472.013712 C102.816655,468.340224 104.574237,467.955497 106.477584,467.955497 L106.477584,467.955497 L122.067837,467.955497 L122.067837,462.395548 C122.067837,460.112279 122.531293,458 126.99673,458 Z M284.693877,461.000737 C286.449669,461.020464 288.034233,461.457915 288.034233,464.890842 C288.034233,468.413657 286.367367,468.779821 284.558502,468.779821 L253.420781,468.779821 L253.420781,473.176585 L282.207627,473.176585 C289.644485,473.176585 292,475.038151 292,482.102415 L292,482.102415 L292,491.175457 C292,493.449773 291.543375,495.547996 287.146042,495.547996 C282.750565,495.547996 282.291156,493.449773 282.291156,491.175457 L282.291156,491.175457 L282.290228,483.363026 C282.290228,480.979698 281.322221,480.275322 279.184809,480.275322 L279.184809,480.275322 L253.420781,480.275322 L253.420108,494.694916 C253.398945,496.953522 252.855035,499 248.475869,499 C243.997792,499 243.532814,496.863577 243.532814,494.547334 L243.532814,494.547334 L243.532814,480.275322 L217.817047,480.275322 C215.677779,480.275322 214.711628,480.979698 214.711628,483.363026 L214.711628,483.363026 L214.708844,491.175457 C214.708844,493.449773 214.251291,495.547996 209.855814,495.547996 C205.458481,495.547996 205,493.449773 205,491.175457 L205,482.102415 C205,475.038151 207.357371,473.176585 214.794229,473.176585 L214.794229,473.176585 L243.532814,473.176585 L243.532814,468.779821 L212.308838,468.779091 C210.552142,468.75954 208.966695,468.325587 208.966695,464.890842 C208.966695,461.369891 210.634489,461 212.444282,461 Z M237.772925,493.000798 C238.94808,493.016881 240,493.294706 240,495.489529 C240,497.76178 238.874283,498 237.650956,498 L237.650956,498 L221.348132,498 C220.126629,498 219,497.76178 219,495.489529 C219,493.219023 220.126629,493 221.348132,493 Z M275.7753,493.000798 C276.948035,493.016881 278,493.294706 278,495.489529 C278,497.76178 276.874234,498 275.653591,498 L275.653591,498 L259.348234,498 C258.124853,498 257,497.76178 257,495.489529 C257,493.219023 258.124853,493 259.348234,493 Z M134.991348,476.071927 L119.009587,476.071927 L121.885631,494.884499 L132.115303,494.884499 L134.991348,476.071927 Z M237.854485,484.000842 C238.986176,484.017769 240,484.308166 240,486.497737 C240,488.766431 238.915052,489 237.73703,489 L237.73703,489 L221.26297,489 C220.085861,489 219,488.766431 219,486.497737 C219,484.232663 220.085861,484 221.26297,484 Z M275.853754,484.000842 C276.98622,484.017769 278,484.308166 278,486.497737 C278,488.766431 276.915099,489 275.736216,489 L275.736216,489 L259.263784,489 C258.086726,489 257,488.766431 257,486.497737 C257,484.232663 258.086726,484 259.263784,484 Z" id="Combined-Shape" fill="#514F4E"></path>
                <path d="M376.40907,72.6449316 C379.00793,68.3130098 377.827982,65.2881173 374.120772,62.3684951 L297.484632,2.08584365 C294.746298,-0.0689381107 291.261316,0.580384365 290.247807,3.94903583 L219.762456,236.114893 C219.034404,238.488599 219.366351,240.575375 220.407754,242.350065 L244.237298,283.924404 C245.511158,286.160235 248.179754,286.435055 249.612614,284.027811 L376.40907,72.6449316 Z" id="Fill-24" fill="#E60012"></path>
                <path d="M194.905137,318.270576 C197.036447,316.976617 197.637419,315.019423 196.26244,312.62286 L172.072864,270.550164 C170.689513,268.143383 169.095914,267.527522 165.779406,268.336594 L20.2530835,303.693338 C17.0165811,304.46061 16.4090973,306.029523 17.4947536,309.07446 L50.2095696,400.982673 C50.9761341,403.150727 52.6488077,403.607746 55.0387401,402.17631 L194.905137,318.270576 Z" id="Fill-27" fill="#C11920"></path>
            </g>
        </g>
    </g>
</svg>