<svg xmlns="http://www.w3.org/2000/svg" width="300mm" height="33.21mm" viewBox="0 0 850.39 94.14"><defs><style>.a{fill:#585656;}</style></defs><title>中部電力株式会社</title><path class="a" d="M154.49,38.66h-7.21l3-19.57h3.39c2,0,3.79-.4,3.79-4.22s-1.82-4.22-3.79-4.22H137.51V4.87c0-2.38-.48-4.57-5.1-4.57s-5.1,2.19-5.1,4.57v5.78H111.19c-2,0-3.79.4-3.79,4.22s1.82,4.22,3.79,4.22h3.39l3,19.57h-7.22c-2,0-3.78.4-3.78,4.22s1.82,4.22,3.78,4.22h44.15c2,0,3.78-.4,3.78-4.22S156.46,38.66,154.49,38.66ZM124.15,19.09h16.53l-3,19.57H127.12Z"/><path class="a" d="M144.68,53.53H120.16c-7.83,0-10.31,2-10.31,9.37V82.34c0,7.41,2.48,9.37,10.31,9.37h24.52c7.83,0,10.31-2,10.31-9.37V62.9C155,55.49,152.51,53.53,144.68,53.53ZM144.8,80c0,2.5-1,3.24-3.26,3.24H123.3c-2.25,0-3.27-.74-3.27-3.24V65.24c0-2.5,1-3.24,3.27-3.24h18.24c2.25,0,3.26.74,3.26,3.24Z"/><path class="a" d="M196.28,50.37c-2.38-4.37-3.49-5.55-8.08-10.31a2.68,2.68,0,0,1-1-1.79,3.67,3.67,0,0,1,.39-1.38l7.81-17c3.69-8,4.57-16.5-7.09-16.5H172c-7.62,0-10.44,2.14-10.44,10V89.57c0,2.37.48,4.57,5.1,4.57s5.09-2.2,5.09-4.57V15.39c0-2.89.6-3.55,3.07-3.55h10.26c2.92,0,3.25,1.86,1.85,5l-8.54,19.07a8.26,8.26,0,0,0-1.07,3.65c0,2.17.29,1.87,5.78,8,1.9,2.18,6.7,9.52,6.7,18,0,7.46-2,10.48-5.92,10.48h-5c-2,0-3.79.4-3.79,4.22s1.82,4.22,3.79,4.22h5.2c11.5,0,16.4-6.32,16.4-18.09A34.21,34.21,0,0,0,196.28,50.37Z"/><path class="a" d="M246.83,33.17c1.24,0,2.39-.25,2.39-2.67s-1.15-2.67-2.39-2.67H229.38c-1.25,0-2.4.25-2.4,2.67s1.15,2.67,2.4,2.67Z"/><path class="a" d="M229.46,42.56h17.28c1.29,0,2.49-.26,2.49-2.78S248,37,246.74,37H229.46c-1.29,0-2.48.25-2.48,2.76S228.17,42.56,229.46,42.56Z"/><path class="a" d="M300.24,83.9H267.63c-3.16,0-4.06-1-4.06-4.13v-1.5h25.27c7.19,0,9.48-1.78,9.48-8.59V55.1c0-6.81-2.29-8.59-9.48-8.59H227.7c-7.19,0-9.48,1.78-9.48,8.59V69.68c0,6.81,2.29,8.59,9.48,8.59H253v2.14c0,9.29,4,11.76,12.45,11.76h34.83c1.92,0,3.7-.39,3.7-4.14S302.16,83.9,300.24,83.9ZM285.91,71.61H263.57V65.19h25.34v3.44C288.91,70.93,288,71.61,285.91,71.61Zm3-15.69v3.31H263.57V52.94h22.34C288,52.94,288.91,53.62,288.91,55.92Zm-58.28-3H253v6.29H227.63V55.92C227.63,53.62,228.56,52.94,230.63,52.94Zm0,18.67c-2.07,0-3-.68-3-3V65.19H253v6.42Z"/><path class="a" d="M287.19,33.17c1.25,0,2.4-.25,2.4-2.67s-1.15-2.67-2.4-2.67H269.75c-1.25,0-2.4.25-2.4,2.67s1.15,2.67,2.4,2.67Z"/><path class="a" d="M269.83,42.56h17.28c1.29,0,2.48-.26,2.48-2.78S288.4,37,287.11,37H269.83c-1.29,0-2.48.25-2.48,2.76S268.54,42.56,269.83,42.56Z"/><path class="a" d="M223.1,35.3V27.19c0-2.47,1-3.2,3.23-3.2h26.78v14.8c0,2.4.49,4.62,5.15,4.62s5.15-2.22,5.15-4.62V24h26.83c2.22,0,3.23.73,3.23,3.2V35.3c0,2.35.48,4.53,5.06,4.53s5.05-2.18,5.05-4.53V25.88c0-7.32-2.45-9.26-10.19-9.26h-30V12.06h32.42c1.89,0,3.62-.38,3.62-4s-1.73-4-3.62-4H220.74c-1.89,0-3.62.38-3.62,4s1.73,4,3.62,4h32.37v4.56H223.18c-7.74,0-10.19,1.94-10.19,9.26V35.3c0,2.35.47,4.53,5,4.53S223.1,37.65,223.1,35.3Z"/><path class="a" d="M398.24,19.27H365.57V6c0-3-.6-5.73-6.39-5.73s-6.4,2.75-6.4,5.73V19.27H323.84c-2.12,0-4.09.43-4.09,4.53s2,4.53,4.09,4.53H352c-1.89,26.22-14.5,42.55-31.24,52.15-1.9,1.15-2.68,2.34-2.68,6.36,0,2.87.88,6,5.56,4.34,23-8.38,39.22-32.34,41-62.85h29.44c3.22,0,4.14,1,4.14,4.21V70.12c0,8.4-3.06,12.19-11.68,12.19H375.29c-2.38,0-4.58.48-4.58,5.11s2.2,5.11,4.58,5.11h14c13.82,0,21.69-6.71,21.69-23.4V31.26C410.94,21.79,406.89,19.27,398.24,19.27Z"/><path class="a" d="M723.54,66c-1.83-2.57-3.28-4.42-8.44-4.42s-4.22,2.5-2.53,5.13c2.36,3.71,4.83,7.63,7.06,11.22-8.54,1.31-26.8,2.81-43.09,3.47l11.53-24.13h46.66c2,0,3.84-.39,3.84-4.27s-1.83-4.28-3.84-4.28H653.3c-2,0-3.84.4-3.84,4.28s1.87,4.27,3.84,4.27h23.12L665.2,81.7c-2.21,0-4.31,0-6.26,0-2.25,0-4.35.75-4.35,5.14s2.07,4.58,4.35,4.57c11.63,0,48.75-2.7,65.61-5.51.92,1.51,1.68,2.78,2.21,3.69,2,3.49,3.61,4.54,9.46,4.54,5.33,0,5.1-2.36,3.17-5.32C736.16,83.86,727.49,71.52,723.54,66Z"/><path class="a" d="M737.83,25.93c-15.06-7.31-25.2-14.4-32.73-21.39C702.16,1.82,700.49.3,695.55.3h-3.16c-4.94,0-6.37,1.27-9.56,4.24-7.51,7-17.66,14.08-32.73,21.39-2.51,1.22-4.75,2.49-4.75,7.29s2.35,4.42,4.78,3.37c5.58-2.42,10.66-4.9,15.31-7.44a8,8,0,0,0-.16,1.68c0,3.85,1.83,4.25,3.82,4.25H719c2,0,3.81-.4,3.81-4.25a8.09,8.09,0,0,0-.14-1.59c4.61,2.51,9.63,4.95,15.14,7.35,2.44,1,4.79,1.43,4.79-3.37S740.34,27.15,737.83,25.93Zm-46.3-15.71a2.85,2.85,0,0,1,4.87,0A111.94,111.94,0,0,0,718,26.58H670A111.85,111.85,0,0,0,691.53,10.22Z"/><path class="a" d="M467.49,47.36c0,4.16-1.16,7.15-3.91,4.29-2.26-2.35-5.62-5.54-7.53-10.79V89.14c0,2.61-.53,5-5.53,5s-5.57-2.39-5.57-5V45.31c-2,8.13-6.63,16.3-10.07,19.17s-4.28-1.43-4.28-4.77c0-4.56.7-5.6,2-7.36,4-5.52,9.55-20.25,10.64-27.92h-8c-1.94,0-3.71-.39-3.71-4.14s1.77-4.14,3.71-4.14H445V5.25c0-2.58.53-5,5.57-5s5.53,2.38,5.53,5v10.9h7.6c1.93,0,3.72.39,3.72,4.14s-1.79,4.14-3.72,4.14h-7.6v2.78c2.32,5,7.3,11,9.43,13.27C467,42,467.49,43.74,467.49,47.36Zm62.08,25.1a74,74,0,0,1-14.79-25.84H527c1.81,0,3.48-.37,3.48-3.88s-1.67-3.88-3.48-3.88H506v-18h18.25c1.81,0,3.48-.37,3.48-3.89s-1.67-3.88-3.48-3.88H506V5.28c0-2.61-.57-5-5.6-5s-5.61,2.38-5.61,5V13.1h-9.51c.4-1.71.73-3.47,1-5.27.31-2.26-.46-4.39-4.9-4.39s-4.73,2-5.05,4.25c-.4,2.72-1.69,9.54-4.54,14.17-1.05,1.7-1.54,2.16-1.54,6.37,0,3.08,0,6.45,3.76,4.26,3.35-2,6.46-6.19,8.77-11.62h12v18h-21c-1.82,0-3.49.36-3.49,3.88s1.67,3.88,3.49,3.88h12.33c-2.56,8.5-10.27,22.17-18.21,28.84-1.66,1.4-2.34,2.26-2.34,6.19,0,3.35,1.13,7.17,5,4.56,8.84-5.93,18.62-20.61,24.22-34.83V89.09c0,2.64.53,5,5.61,5s5.6-2.41,5.6-5V51.4c5.61,14,14.66,26.7,20.86,31.81,3.61,3,5-1.21,5-4.56C531.91,74.72,531,74.08,529.57,72.46Z"/><path class="a" d="M846.41,83.31H827.66V32.05h16.81c2,0,3.86-.41,3.86-4.3s-1.83-4.27-3.86-4.27H827.66V5.41c0-2.68-.59-5.12-5.75-5.12s-5.74,2.44-5.74,5.12V23.48H801.46c-2,0-3.85.37-3.85,4.27s1.86,4.3,3.85,4.3h14.71V83.31H795.85c-2.06,0-4,.39-4,4.4s1.92,4.45,4,4.45h50.56c2.09,0,4-.42,4-4.45S848.5,83.31,846.41,83.31Z"/><path class="a" d="M792.8,62.08c3.85,2.56,5.1-1.34,5.1-4,0-3.68-.77-4.68-2.47-5.82a72.53,72.53,0,0,1-12.28-10.72,104.33,104.33,0,0,0,9.65-15.85c1.42-2.92,2.76-5.91,2.76-8.36,0-3.61-1.83-4.25-4.68-4.25H780.76V5.32c0-2.63-.58-5-5.64-5s-5.65,2.39-5.65,5V13.1H757.91c-2,0-3.83.41-3.83,4.25s1.83,4.26,3.83,4.26h22.84c1.36,0,2,.41,1.28,2-7.24,15.58-19.9,26.6-26.35,30.52-1.8,1.1-2.54,2.22-2.54,6,0,2.73,1.11,6.47,5.28,4.12a69.17,69.17,0,0,0,11.05-7.84V89.11c0,2.63.53,5,5.65,5s5.64-2.4,5.64-5V52A69.9,69.9,0,0,0,792.8,62.08Z"/><path class="a" d="M634.39,81.66c-14.87-10.69-22.86-30-25.76-54.9h22.64c2.09,0,4-.43,4-4.49s-1.93-4.49-4-4.49H607.82q-.39-5.9-.45-12.12c0-2.8-.56-5.37-5.94-5.37s-6,2.57-5.94,5.37c0,4,.17,8.07.45,12.12H546.72c-2.11,0-4,.42-4,4.49s1.93,4.49,4,4.49h50c3.42,29.11,14,56.06,34.9,65.49,4.23,1.91,5.31-.94,5.31-3.8C637,84.45,636.14,82.92,634.39,81.66Z"/><path class="a" d="M595.65,75.75c-3.63.79-10.57,1.9-18.73,2.92V48.46h14.42c1.93,0,3.73-.39,3.73-4.15s-1.8-4.16-3.73-4.16H549.68c-1.95,0-3.73.39-3.73,4.16s1.78,4.15,3.73,4.15H565.6V80c-6.13.61-12.41,1.1-18.13,1.33-2.14.09-4.13.92-4.13,5.09s2,4.27,4.14,4.15a423.39,423.39,0,0,0,48.17-6.46c1.94-.39,3.73-.8,3.73-4.57S597.51,75.34,595.65,75.75Z"/><path class="a" d="M618.68,10.12c1.14,2.39,2.44,3.93,7,3.93s4.14-2.2,3-4.5l-1.93-3.64c-1.23-2.32-2.66-4.52-7.2-4.52s-4,2.18-2.83,4.52Z"/><path class="a" d="M78.35,16.21H50.92V4.85C50.92,2.33,50.4,0,45.4,0s-5.51,2.33-5.51,4.85V16.21H12.45C4,16.21,0,18.63,0,27.73V58.51C0,67.6,4,70,12.45,70H39.89V89.29c0,2.52.52,4.85,5.51,4.85s5.52-2.33,5.52-4.85V70H78.35c8.49,0,12.46-2.42,12.46-11.51V27.73C90.81,18.63,86.84,16.21,78.35,16.21ZM39.89,61H15.1c-3.16,0-4.07-1-4.07-4V29.24c0-3.06.91-4,4.07-4H39.89Zm39.88-4c0,3.06-.9,4-4.06,4H50.92V25.2H75.71c3.16,0,4.06,1,4.06,4Z"/></svg>