<svg xmlns="http://www.w3.org/2000/svg" width="142.69mm" height="10.77mm" viewBox="0 0 404.49 30.52"><defs><style>.a{fill:#585656;}</style></defs><title>中部電力ミライズ株式会社</title><path class="a" d="M258,5.74c1.32,0,1.46-.63,1.46-1.31v-3c0-.68-.14-1.3-1.46-1.3s-1.45.62-1.45,1.3v3c0,.68.14,1.31,1.45,1.31"/><path class="a" d="M262.53.1c-1.31,0-1.45.62-1.45,1.3v3c0,.68.14,1.31,1.45,1.31S264,5.11,264,4.43v-3c0-.68-.14-1.3-1.46-1.3"/><path class="a" d="M50.08,12.53H47.74l1-6.34h1.1c.64,0,1.23-.13,1.23-1.37s-.59-1.37-1.23-1.37H44.57V1.58C44.57.81,44.42.1,42.92.1s-1.65.71-1.65,1.48V3.45H36c-.64,0-1.23.13-1.23,1.37S35.4,6.19,36,6.19h1.1l1,6.34H35.77c-.64,0-1.23.13-1.23,1.37s.59,1.37,1.23,1.37H50.08c.63,0,1.22-.13,1.22-1.37s-.59-1.37-1.22-1.37m-5.44,0H41.21l-1-6.34H45.6Z"/><path class="a" d="M46.9,17.35H39c-2.54,0-3.34.64-3.34,3v6.3c0,2.4.8,3,3.34,3H46.9c2.54,0,3.34-.64,3.34-3v-6.3c0-2.4-.8-3-3.34-3m0,8.58c0,.81-.33,1.05-1.06,1.05H40c-.73,0-1.06-.24-1.06-1.05V21.15c0-.81.33-1,1.06-1h5.91c.73,0,1.06.24,1.06,1Z"/><path class="a" d="M61,13a.92.92,0,0,1-.32-.58,1.19,1.19,0,0,1,.13-.45l2.53-5.51C64.53,3.85,64.82,1.1,61,1.1H55.75c-2.47,0-3.38.7-3.38,3.26V29c0,.77.15,1.49,1.65,1.49s1.65-.72,1.65-1.49V5c0-.94.19-1.15,1-1.15H60c.95,0,1,.6.6,1.63l-2.77,6.18a2.73,2.73,0,0,0-.35,1.18c0,.71.1.61,1.88,2.6a9.85,9.85,0,0,1,2.17,5.82c0,2.42-.64,3.4-1.92,3.4H58c-.64,0-1.23.13-1.23,1.37s.59,1.37,1.23,1.37h1.68c3.73,0,5.32-2.05,5.32-5.86a11,11,0,0,0-1.37-5.19A12.18,12.18,0,0,0,61,13"/><path class="a" d="M80,10.75c.4,0,.77-.08.77-.86S80.41,9,80,9H74.35c-.4,0-.78.08-.78.87s.38.86.78.86Z"/><path class="a" d="M74.38,13.8H80c.42,0,.81-.09.81-.9S80.4,12,80,12h-5.6c-.42,0-.81.08-.81.9s.39.9.81.9"/><path class="a" d="M97.32,27.2H86.75c-1,0-1.31-.33-1.31-1.34v-.49h8.19c2.33,0,3.07-.58,3.07-2.78V17.86c0-2.21-.74-2.78-3.07-2.78H73.81c-2.33,0-3.07.57-3.07,2.78v4.73c0,2.2.74,2.78,3.07,2.78H82v.7c0,3,1.28,3.81,4,3.81H97.32c.63,0,1.2-.13,1.2-1.34S98,27.2,97.32,27.2m-11.88-10h7.24c.67,0,1,.22,1,1V19.2H85.44Zm0,4h8.21v1.12c0,.74-.3,1-1,1H85.44ZM82,23.21H74.76c-.67,0-1-.22-1-1V21.13H82Zm0-4H73.79V18.13c0-.75.3-1,1-1H82Z"/><path class="a" d="M93.09,10.75c.41,0,.78-.08.78-.86S93.5,9,93.09,9H87.44c-.41,0-.78.08-.78.87s.37.86.78.86Z"/><path class="a" d="M87.47,13.8h5.6c.42,0,.8-.09.8-.9s-.38-.9-.8-.9h-5.6c-.42,0-.81.08-.81.9s.39.9.81.9"/><path class="a" d="M72.32,11.44V8.82c0-.81.32-1,1-1h8.69v4.79c0,.78.15,1.5,1.66,1.5s1.67-.72,1.67-1.5V7.78h8.7c.72,0,1,.23,1,1v2.62c0,.77.15,1.47,1.64,1.47s1.64-.7,1.64-1.47v-3c0-2.37-.8-3-3.31-3H85.38V3.91H95.89c.62,0,1.18-.12,1.18-1.31s-.56-1.3-1.18-1.3H71.55c-.61,0-1.17.12-1.17,1.3s.56,1.31,1.17,1.31h10.5V5.39h-9.7c-2.52,0-3.31.63-3.31,3v3c0,.77.15,1.47,1.64,1.47s1.64-.7,1.64-1.47"/><path class="a" d="M129.09,6.25H118.5V2c0-1-.2-1.86-2.07-1.86S114.36,1,114.36,2V6.25H105c-.68,0-1.32.14-1.32,1.47s.64,1.46,1.32,1.46h9.13c-.61,8.5-4.7,13.8-10.12,16.91-.62.37-.87.76-.87,2.06,0,.93.28,1.93,1.8,1.41,7.47-2.72,12.71-10.49,13.3-20.38h9.54c1,0,1.34.34,1.34,1.37V22.73c0,2.72-1,3.95-3.79,3.95h-3.65c-.77,0-1.49.16-1.49,1.66s.72,1.65,1.49,1.65h4.53c4.47,0,7-2.17,7-7.58V10.13c0-3.07-1.32-3.88-4.12-3.88"/><path class="a" d="M363.37,21.39A2.74,2.74,0,0,0,360.63,20c-1.67,0-1.36.8-.82,1.66.77,1.2,1.57,2.47,2.29,3.63-2.77.43-8.69.91-14,1.13l3.74-7.82H367c.65,0,1.24-.13,1.24-1.39s-.59-1.38-1.24-1.38H340.6c-.64,0-1.25.13-1.25,1.38s.61,1.39,1.25,1.39h7.5l-3.64,7.92h-2c-.73,0-1.41.24-1.41,1.66s.67,1.49,1.41,1.48a200.48,200.48,0,0,0,21.27-1.78l.71,1.19c.66,1.14,1.17,1.48,3.07,1.48,1.73,0,1.65-.77,1-1.73-1.05-1.61-3.86-5.61-5.14-7.4"/><path class="a" d="M368,8.41a42.38,42.38,0,0,1-10.61-6.94A3.76,3.76,0,0,0,354.29.1h-1a3.66,3.66,0,0,0-3.1,1.37,42,42,0,0,1-10.61,6.94A2.22,2.22,0,0,0,338,10.77c0,1.55.76,1.43,1.55,1.09,1.81-.78,3.46-1.59,5-2.41a2.76,2.76,0,0,0,0,.54c0,1.25.6,1.38,1.24,1.38h16.17c.65,0,1.24-.13,1.24-1.38a2.44,2.44,0,0,0-.05-.51c1.5.81,3.13,1.6,4.91,2.38.79.34,1.55.46,1.55-1.09A2.21,2.21,0,0,0,368,8.41m-22,.21a36.38,36.38,0,0,0,7-5.31,1.25,1.25,0,0,1,.79-.44,1.23,1.23,0,0,1,.79.44,36.38,36.38,0,0,0,7,5.31Z"/><path class="a" d="M280.37,15.35a2.8,2.8,0,0,0-.65-2.23,19.25,19.25,0,0,1-3.06-4.3v-.9h2.47c.62,0,1.2-.13,1.2-1.34s-.58-1.35-1.2-1.35h-2.47V1.7c0-.83-.17-1.6-1.79-1.6s-1.81.77-1.81,1.6V5.23h-3.17c-.63,0-1.2.13-1.2,1.35s.57,1.34,1.2,1.34h2.61a28,28,0,0,1-3.45,9,3.19,3.19,0,0,0-.64,2.39c0,1.08.23,2.51,1.39,1.54a13.48,13.48,0,0,0,3.26-6.21V28.9c0,.84.17,1.62,1.81,1.62s1.79-.78,1.79-1.62V13.24a9.55,9.55,0,0,0,2.44,3.5c.89.93,1.27,0,1.27-1.39"/><path class="a" d="M295.7,15.11h4c.59,0,1.13-.12,1.13-1.25s-.54-1.26-1.13-1.26h-6.8V6.76h5.91c.59,0,1.13-.11,1.13-1.25s-.54-1.26-1.13-1.26h-5.91V1.71c0-.84-.19-1.61-1.82-1.61s-1.82.77-1.82,1.61V4.25h-3.08c.13-.56.24-1.13.32-1.71s-.15-1.42-1.59-1.42-1.54.66-1.64,1.37a13.6,13.6,0,0,1-1.47,4.6,2.8,2.8,0,0,0-.5,2.06c0,1,0,2.09,1.22,1.38a8,8,0,0,0,2.84-3.77h3.9V12.6h-6.81c-.59,0-1.13.12-1.13,1.26s.54,1.25,1.13,1.25h4a23.06,23.06,0,0,1-5.9,9.35c-.54.46-.76.74-.76,2,0,1.08.36,2.32,1.62,1.48,2.87-1.93,6-6.68,7.85-11.29V28.88c0,.86.17,1.64,1.82,1.64s1.82-.78,1.82-1.64V16.66c1.82,4.53,4.75,8.66,6.76,10.32,1.17,1,1.62-.4,1.62-1.48a2.24,2.24,0,0,0-.76-2,24,24,0,0,1-4.79-8.38"/><path class="a" d="M403.2,27h-6.08V10.39h5.45c.65,0,1.25-.13,1.25-1.39s-.6-1.39-1.25-1.39h-5.45V1.75c0-.86-.19-1.65-1.86-1.65s-1.87.79-1.87,1.65V7.61h-4.76c-.65,0-1.25.12-1.25,1.39s.6,1.39,1.25,1.39h4.76V27h-6.58c-.67,0-1.29.12-1.29,1.42s.62,1.44,1.29,1.44H403.2c.67,0,1.29-.13,1.29-1.44S403.87,27,403.2,27"/><path class="a" d="M387.47,18.83c0-1.19-.25-1.51-.8-1.88a24,24,0,0,1-4-3.48,33.28,33.28,0,0,0,3.13-5.14,6.94,6.94,0,0,0,.89-2.7c0-1.18-.59-1.38-1.51-1.38h-3.28V1.73c0-.86-.19-1.63-1.83-1.63s-1.83.77-1.83,1.63V4.25h-3.75c-.65,0-1.24.13-1.24,1.38S373.86,7,374.51,7h7.4c.44,0,.66.13.42.66a24.8,24.8,0,0,1-8.54,9.89c-.59.35-.83.71-.83,2,0,.88.36,2.1,1.71,1.34a22.84,22.84,0,0,0,3.59-2.55V28.89c0,.85.17,1.63,1.83,1.63s1.83-.78,1.83-1.63v-12a22.65,22.65,0,0,0,3.9,3.26c1.25.82,1.65-.44,1.65-1.3"/><path class="a" d="M334.47,26.47c-4.82-3.46-7.41-9.74-8.35-17.8h7.34c.68,0,1.3-.13,1.3-1.45s-.62-1.46-1.3-1.46h-7.6c-.09-1.27-.13-2.58-.15-3.93,0-.9-.18-1.73-1.92-1.73s-1.93.83-1.93,1.73q0,2,.15,3.93h-16c-.68,0-1.31.14-1.31,1.46s.63,1.45,1.31,1.45h16.23c1.11,9.44,4.53,18.18,11.31,21.23,1.37.62,1.72-.3,1.72-1.23,0-1.29-.27-1.79-.84-2.2"/><path class="a" d="M321.91,24.56c-1.17.25-3.42.61-6.07.94V15.71h4.68c.62,0,1.2-.13,1.2-1.35s-.58-1.34-1.2-1.34H307c-.63,0-1.21.12-1.21,1.34s.58,1.35,1.21,1.35h5.16V25.92c-2,.19-4,.35-5.88.43-.69,0-1.34.3-1.34,1.65s.64,1.38,1.35,1.34a137.47,137.47,0,0,0,15.61-2.09c.63-.13,1.21-.26,1.21-1.48s-.61-1.35-1.21-1.21"/><path class="a" d="M329.38,3.28c.37.78.79,1.28,2.26,1.28s1.34-.72.95-1.46L332,1.92A2.31,2.31,0,0,0,329.63.45c-1.47,0-1.29.71-.91,1.47Z"/><path class="a" d="M25.4,5.26H16.5V1.57C16.5.76,16.34,0,14.72,0s-1.79.76-1.79,1.57V5.26H4C1.29,5.26,0,6,0,9V19c0,2.94,1.29,3.73,4,3.73h8.89v6.24c0,.82.17,1.58,1.79,1.58s1.78-.76,1.78-1.58V22.7h8.9c2.75,0,4-.79,4-3.73V9c0-2.95-1.28-3.73-4-3.73M12.93,19.78h-8c-1,0-1.31-.31-1.31-1.31v-9c0-1,.29-1.31,1.31-1.31h8Zm12.93-1.31c0,1-.3,1.31-1.32,1.31h-8V8.17h8c1,0,1.32.32,1.32,1.31Z"/><path class="a" d="M175.35,5.45h20.17c.79,0,1.52-.16,1.52-1.69s-.73-1.69-1.52-1.69H175.35c-.79,0-1.52.16-1.52,1.69s.73,1.69,1.52,1.69"/><path class="a" d="M165.62,25.85a168.85,168.85,0,0,0-22.81-2.27c-.94,0-1.47.11-1.47,1.59s.61,1.65,1.47,1.7a182.21,182.21,0,0,1,22.81,2.67c.92.16,1.56,0,1.56-1.6s-.58-1.91-1.56-2.09"/><path class="a" d="M194.1,10.11H173.5c-.79,0-1.52.16-1.52,1.69s.73,1.69,1.52,1.69h18.68c.9,0,1.12.37,1,1.29C192,21.94,186,25,176.87,25.92c-1.12.12-1.49.64-1.49,1.91,0,.92.21,1.88,1.77,1.73,13.31-1.3,19.32-6.4,20.5-15.71.35-2.8-.42-3.74-3.55-3.74"/><path class="a" d="M227,1.16a2.61,2.61,0,0,0-2.73,1.45c-3.57,5.91-10,10.35-21,12.72-1.15.25-1.54.79-1.54,2.08,0,.92.22,1.86,1.82,1.56a47.74,47.74,0,0,0,12.26-3.91V28.35c0,1,.21,1.94,2.16,1.94s2.16-.93,2.16-1.94V12.55a25.54,25.54,0,0,0,8.56-9.64c.71-1.44-.63-1.75-1.7-1.75"/><path class="a" d="M259.21,25.45a26,26,0,0,1-8.51-10,30.13,30.13,0,0,0,3.67-9.15c.59-2.75-.42-3.76-3.55-3.76H234c-.79,0-1.52.15-1.52,1.69s.73,1.68,1.52,1.68h14.78c.89,0,1.13.37.93,1.28-1.53,6.85-8.25,15.31-17.63,18.62-.74.26-1,.72-1,2,0,1.09.44,1.94,1.7,1.53a32.59,32.59,0,0,0,15.34-10.3,33.12,33.12,0,0,0,10.3,10.05c1.37.85,1.87,0,1.87-1.17a2.53,2.53,0,0,0-1.09-2.52"/><path class="a" d="M163.46,14.32c-3.22-.57-13.71-1.66-18.72-1.81-1,0-1.48.1-1.48,1.59s.61,1.65,1.47,1.69c7,.38,15.12,1.66,18.72,2.22.92.14,1.57,0,1.57-1.6s-.59-1.91-1.56-2.09"/><path class="a" d="M144,5.13c7,.45,13.23,1.33,20.44,2.44.91.14,1.56,0,1.56-1.6s-.59-1.91-1.56-2.08a187.28,187.28,0,0,0-20.44-2c-.95,0-1.47.1-1.47,1.59s.6,1.63,1.47,1.69"/></svg>