<svg xmlns="http://www.w3.org/2000/svg" width="36.94mm" height="11.8mm" viewBox="0 0 104.72 33.46"><defs><style>.a{fill:#e60012;}.b{fill:#c11920;}.c{fill:#595757;}</style></defs><title>CHUBE Electric Power</title><path class="a" d="M29.91,6a.57.57,0,0,0-.19-.85L23.35.1a.36.36,0,0,0-.6.16L16.89,19.53a.6.6,0,0,0,.05.51l2,3.45a.25.25,0,0,0,.45,0Z"/><path class="b" d="M14.79,26.4a.32.32,0,0,0,.11-.47l-2-3.5c-.12-.2-.25-.25-.53-.18L.27,25.19c-.27.06-.32.19-.23.45l2.72,7.65c.06.18.2.22.4.1Z"/><polygon class="c" points="33.59 22.86 38.49 22.86 38.49 23.93 35.01 23.93 35.01 25.84 38.15 25.84 38.15 26.89 35.01 26.89 35.01 28.98 38.66 28.98 38.66 30.05 33.59 30.05 33.59 22.86"/><path class="c" d="M41.2,28.55a.51.51,0,0,0,.54.54,3.35,3.35,0,0,0,.47-.07l.15,1a5.13,5.13,0,0,1-1,.12,1.43,1.43,0,0,1-1.57-1.49V22.52H41.2Z"/><path class="c" d="M45.6,24.68a2.47,2.47,0,0,1,2.52,2.65c0,.15,0,.3,0,.44H44.28a1.57,1.57,0,0,0,1.66,1.39,3.2,3.2,0,0,0,1.51-.44l.42.93a4.79,4.79,0,0,1-2.1.53,2.69,2.69,0,0,1-2.86-2.75,2.6,2.6,0,0,1,2.69-2.75M44.28,27h2.53A1.22,1.22,0,0,0,45.6,25.7,1.32,1.32,0,0,0,44.28,27"/><path class="c" d="M51.78,24.68a3.64,3.64,0,0,1,2,.61l-.55.92A2.21,2.21,0,0,0,52,25.77a1.66,1.66,0,0,0,0,3.31,2.29,2.29,0,0,0,1.26-.44l.55.93a3.72,3.72,0,0,1-2,.61,2.75,2.75,0,1,1,0-5.5"/><path class="c" d="M56.8,24.81h1.46v1H56.8v2.51a.7.7,0,0,0,.74.74,3,3,0,0,0,.68-.1l.18,1a5.14,5.14,0,0,1-1.19.16,1.66,1.66,0,0,1-1.78-1.69V25.84h-1v-1h1V23.27H56.8Z"/><path class="c" d="M59.45,24.81h1.09l.17.81a1.69,1.69,0,0,1,1.55-.9,2.42,2.42,0,0,1,.63.08l-.12,1.09a2.49,2.49,0,0,0-.61-.08,1.37,1.37,0,0,0-1.34,1.53v2.71H59.45Z"/><path class="c" d="M64.55,22.49a.82.82,0,1,1-.82.82.79.79,0,0,1,.82-.82m-.69,2.32h1.37v5.24H63.86Z"/><path class="c" d="M69.09,24.68a3.64,3.64,0,0,1,2,.61l-.55.92a2.24,2.24,0,0,0-1.26-.44,1.66,1.66,0,0,0,0,3.31,2.32,2.32,0,0,0,1.26-.44l.55.93a3.72,3.72,0,0,1-2,.61,2.75,2.75,0,1,1,0-5.5"/><path class="c" d="M74.69,22.86h2.94a2.38,2.38,0,1,1,0,4.74H76.06v2.45H74.69Zm1.37,3.64h1.36a1.28,1.28,0,1,0,0-2.55H76.06Z"/><path class="c" d="M83.44,24.68a2.75,2.75,0,1,1-2.82,2.75,2.68,2.68,0,0,1,2.82-2.75m0,4.43a1.52,1.52,0,0,0,1.45-1.68,1.46,1.46,0,1,0-2.88,0,1.51,1.51,0,0,0,1.43,1.68"/><polygon class="c" points="93.06 30.05 91.73 30.05 90.7 26.37 89.69 30.05 88.36 30.05 86.65 24.81 88.03 24.81 89.05 28.49 90.07 24.81 91.34 24.81 92.36 28.49 93.39 24.81 94.76 24.81 93.06 30.05"/><path class="c" d="M97.76,24.68a2.47,2.47,0,0,1,2.52,2.65c0,.15,0,.3,0,.44H96.44a1.57,1.57,0,0,0,1.66,1.39,3.2,3.2,0,0,0,1.51-.44l.41.93a4.71,4.71,0,0,1-2.09.53,2.69,2.69,0,0,1-2.86-2.75,2.6,2.6,0,0,1,2.69-2.75M96.44,27H99a1.2,1.2,0,0,0-1.2-1.25A1.32,1.32,0,0,0,96.44,27"/><path class="c" d="M101.27,24.81h1.09l.18.81a1.68,1.68,0,0,1,1.55-.9,2.47,2.47,0,0,1,.63.08l-.13,1.09a2.43,2.43,0,0,0-.61-.08,1.38,1.38,0,0,0-1.34,1.53v2.71h-1.37Z"/><path class="c" d="M38.05,10.26a5.89,5.89,0,0,1,3.22,1l-.72,1.19a4,4,0,0,0-2.28-.79,3,3,0,0,0-3,3.24,3,3,0,0,0,3,3.23,4.07,4.07,0,0,0,2.28-.78l.72,1.18a5.91,5.91,0,0,1-3.22,1,4.43,4.43,0,0,1-4.62-4.65,4.43,4.43,0,0,1,4.62-4.65"/><polygon class="c" points="43 10.41 44.78 10.41 44.78 14.12 49.37 14.12 49.37 10.41 51.15 10.41 51.15 19.4 49.37 19.4 49.37 15.48 44.78 15.48 44.78 19.4 43 19.4 43 10.41"/><path class="c" d="M61.5,15.88c0,2.18-1.75,3.68-4.17,3.68s-4.19-1.5-4.19-3.68V10.42h1.78v5.4a2.4,2.4,0,0,0,4.8,0v-5.4H61.5Z"/><path class="c" d="M80.57,15.88c0,2.18-1.75,3.68-4.17,3.68s-4.19-1.5-4.19-3.68V10.42H74v5.4a2.4,2.4,0,0,0,4.8,0v-5.4h1.78Z"/><path class="c" d="M63.49,10.42h3.92c1.67,0,2.85,1,2.85,2.37A2.07,2.07,0,0,1,69,14.72a2.26,2.26,0,0,1,1.57,2.19c0,1.48-1.24,2.49-3,2.49H63.49Zm1.71,3.79h2A1.26,1.26,0,0,0,68.55,13a1.27,1.27,0,0,0-1.38-1.26h-2Zm0,3.89h2.14a1.36,1.36,0,1,0,0-2.71H65.2Z"/></svg>