<?xml version="1.0" encoding="utf-8"?>
<!-- Generator: Adobe Illustrator 23.0.3, SVG Export Plug-In . SVG Version: 6.00 Build 0)  -->
<svg version="1.1" id="レイヤー_1" xmlns="http://www.w3.org/2000/svg" xmlns:xlink="http://www.w3.org/1999/xlink" x="0px"
	 y="0px" viewBox="0 0 992.1 62.6" style="enable-background:new 0 0 992.1 62.6;" xml:space="preserve">
<style type="text/css">
	.st0{fill:#FFFFFF;}
</style>
<title>中部電力パワーグリッド株式会社</title>
<path class="st0" d="M102.8,25.7H98l2-13h2.3c1.3,0,2.5-0.3,2.5-2.8s-1.2-2.8-2.5-2.8H91.5V3.2c0-1.6-0.3-3-3.4-3s-3.4,1.5-3.4,3
	v3.9H74c-1.3,0-2.5,0.3-2.5,2.8s1.2,2.8,2.5,2.8h2.3l2,13h-4.8c-1.3,0-2.5,0.3-2.5,2.8s1.2,2.8,2.5,2.8h29.4c1.3,0,2.5-0.3,2.5-2.8
	S104.1,25.7,102.8,25.7z M82.6,12.7h11l-2,13h-7L82.6,12.7z"/>
<path class="st0" d="M96.3,35.6H80c-5.2,0-6.9,1.3-6.9,6.2v12.9c0,5,1.6,6.3,6.9,6.3h16.3c5.2,0,6.9-1.3,6.9-6.2V41.9
	C103.1,36.9,101.5,35.6,96.3,35.6z M96.3,53.2c0,1.7-0.7,2.2-2.2,2.2H82c-1.5,0-2.2-0.5-2.2-2.2v-9.8c0-1.7,0.7-2.2,2.2-2.2h12.2
	c1.5,0,2.2,0.5,2.2,2.2L96.3,53.2L96.3,53.2z"/>
<path class="st0" d="M130.6,33.5c-1.6-2.9-2.3-3.7-5.4-6.9c-0.4-0.3-0.6-0.7-0.7-1.2c0-0.3,0.1-0.6,0.3-0.9l5.2-11.3
	c2.4-5.3,3-11-4.7-11h-10.9c-5.1,0-7,1.4-7,6.7v50.7c0,1.6,0.3,3,3.4,3s3.4-1.5,3.4-3V10.2c0-1.9,0.4-2.4,2-2.4h6.8
	c1.9,0,2.2,1.2,1.2,3.3l-5.7,12.7c-0.4,0.7-0.7,1.6-0.7,2.4c0,1.4,0.2,1.2,3.8,5.3c2.7,3.4,4.3,7.6,4.5,12c0,5-1.3,7-3.9,7H119
	c-1.3,0-2.5,0.3-2.5,2.8s1.2,2.8,2.5,2.8h3.5c7.7,0,10.9-4.2,10.9-12C133.3,40.5,132.4,36.8,130.6,33.5z"/>
<path class="st0" d="M164.2,22.1c0.8,0,1.6-0.2,1.6-1.8s-0.8-1.8-1.6-1.8h-11.6c-0.8,0-1.6,0.2-1.6,1.8s0.8,1.8,1.6,1.8H164.2z"/>
<path class="st0" d="M152.7,28.3h11.5c0.9,0,1.7-0.2,1.7-1.9s-0.8-1.8-1.7-1.8h-11.5c-0.9,0-1.6,0.2-1.6,1.8S151.8,28.3,152.7,28.3z
	"/>
<path class="st0" d="M199.8,55.8h-21.7c-2.1,0-2.7-0.7-2.7-2.7v-1h16.8c4.8,0,6.3-1.2,6.3-5.7v-9.7c0-4.5-1.5-5.7-6.3-5.7h-40.7
	c-4.8,0-6.3,1.2-6.3,5.7v9.7c0,4.5,1.5,5.7,6.3,5.7h16.8v1.4c0,6.2,2.6,7.8,8.3,7.8h23.2c1.3,0,2.5-0.3,2.5-2.8
	S201.1,55.8,199.8,55.8z M190.2,47.7h-14.9v-4.3h16.9v2.3C192.2,47.2,191.6,47.7,190.2,47.7z M192.2,37.2v2.2h-16.9v-4.2h14.9
	C191.6,35.2,192.2,35.7,192.2,37.2z M153.5,35.2h14.9v4.2h-16.9v-2.2C151.5,35.7,152.1,35.2,153.5,35.2L153.5,35.2z M153.5,47.6
	c-1.4,0-2-0.5-2-2v-2.3h16.9v4.3H153.5z"/>
<path class="st0" d="M191.1,22.1c0.8,0,1.6-0.2,1.6-1.8s-0.8-1.8-1.6-1.8h-11.6c-0.8,0-1.6,0.2-1.6,1.8s0.8,1.8,1.6,1.8H191.1z"/>
<path class="st0" d="M179.5,28.3H191c0.9,0,1.6-0.2,1.6-1.9s-0.8-1.8-1.6-1.8h-11.5c-0.9,0-1.6,0.2-1.6,1.8S178.7,28.3,179.5,28.3z"
	/>
<path class="st0" d="M148.4,23.5v-5.4c0-1.6,0.7-2.1,2.1-2.1h17.8v9.9c0,1.6,0.3,3.1,3.4,3.1s3.4-1.5,3.4-3.1V16H193
	c1.5,0,2.1,0.5,2.1,2.1v5.4c0,1.6,0.3,3,3.4,3s3.4-1.5,3.4-3v-6.3c0-4.9-1.6-6.2-6.8-6.2h-19.9V8h21.6c1.3,0,2.4-0.3,2.4-2.7
	s-1.1-2.7-2.4-2.7h-50c-1.3,0-2.4,0.3-2.4,2.7s1.2,2.7,2.4,2.7h21.6v3h-19.9c-5.1,0-6.8,1.3-6.8,6.2v6.3c0,1.6,0.3,3,3.4,3
	S148.4,25.1,148.4,23.5z"/>
<path class="st0" d="M265,12.8h-21.8V4c0-2-0.4-3.8-4.3-3.8S234.7,2,234.7,4v8.8h-19.3c-1.4,0-2.7,0.3-2.7,3s1.3,3,2.7,3h18.8
	c-1.3,17.5-9.6,28.3-20.8,34.7c-1.3,0.8-1.8,1.6-1.8,4.2c0,1.9,0.6,4,3.7,2.9c15.3-5.6,26.1-21.5,27.3-41.8h19.6
	c2.1,0,2.8,0.7,2.8,2.8v25c0,5.6-2,8.1-7.8,8.1h-7.5c-1.6,0-3.1,0.3-3.1,3.4s1.5,3.4,3.1,3.4h9.3c9.2,0,14.4-4.5,14.4-15.6V20.8
	C273.4,14.5,270.7,12.8,265,12.8z"/>
<path class="st0" d="M460.6,34.1c1.6,0,3-0.3,3-3.4s-1.5-3.4-3-3.4h-39.1c-1.6,0-3,0.3-3,3.4s1.4,3.4,3,3.4H460.6z"/>
<path class="st0" d="M412.2,13.7c0-6.1-2-7.7-8.5-7.7h-34.3c-6.4,0-8.4,1.6-8.4,7.7v12.7c0,2,0.4,3.8,4.2,3.8s4.2-1.8,4.2-3.8V15.1
	c0-2.1,0.8-2.7,2.7-2.7h28.1c1.9,0,2.7,0.6,2.7,2.7v1c0,16.9-8.7,32.3-27.9,36.8c-1.4,0.3-1.9,1.6-1.9,4.3c0,1.9,0.5,3.7,3.7,3.2
	C393.5,57.7,412.2,43.4,412.2,13.7z"/>
<path class="st0" d="M557.1,60.4c-3.3,0.6-3.7-1.6-3.7-3.5c0-2.7,0.9-3.8,2.4-4.1C575,49,581,36.8,581,17V7.2c0-2,0.4-3.8,4.3-3.8
	s4.3,1.8,4.3,3.8V17C589.5,39.9,582.4,56,557.1,60.4z M552.9,7.1c0-1.9-0.4-3.8-4.2-3.8s-4.2,1.8-4.2,3.8v23.8c0,2,0.4,3.8,4.2,3.8
	s4.2-1.8,4.2-3.8V7.1z"/>
<path class="st0" d="M616.7,60.8c-3.1,0.7-3.6-1.5-3.6-3.4c0-2.6,0.9-3.5,2.3-3.9c15.2-4.4,20.4-15.6,20.4-32.1v-1
	c0-2,0.4-3.8,4.2-3.8s4.2,1.8,4.2,3.8v1.1C644.2,38.7,637.8,55.8,616.7,60.8z M609.8,20.1c0-1.9-0.4-3.6-4-3.6s-4,1.7-4,3.6v13.3
	c0,1.8,0.4,3.6,4,3.6s4-1.7,4-3.6V20.1z M624.8,20.1c0-1.9-0.4-3.6-4-3.6s-4,1.7-4,3.6v13.3c0,1.8,0.4,3.6,4,3.6s4-1.7,4-3.6V20.1z"
	/>
<path class="st0" d="M310.9,8.9c0-2.1-0.4-4-4.5-4s-4.4,1.9-4.4,4c0,18.6-4.9,35-13.7,43.4c-1.1,1.1-1.9,1.8-1.9,4.6
	c0,2,0.9,4.6,3.9,3.1C302.6,53.8,310.9,31.2,310.9,8.9z M345.8,60.1c3,1.5,3.9-1,3.9-3.1c0-2.8-0.7-3.5-1.9-4.6
	C339,43.9,334.1,27.6,334.1,9c0-2.1-0.4-4-4.5-4s-4.5,1.9-4.5,4C325.3,31.2,333.5,53.8,345.8,60.1z M345.3,0.2
	c-4.3,0-7.8,3.5-7.8,7.8s3.5,7.7,7.8,7.7s7.8-3.5,7.8-7.8l0,0C353.1,3.7,349.6,0.2,345.3,0.2L345.3,0.2z M345.3,11.4
	c-1.9,0-3.5-1.6-3.5-3.5s1.6-3.5,3.5-3.5s3.5,1.6,3.5,3.5C348.8,9.9,347.2,11.4,345.3,11.4L345.3,11.4L345.3,11.4z"/>
<path class="st0" d="M694.6,5.1c0-1.4,0.3-2.7,3-2.7s3,1.3,3,2.7v6.2c0,1.4-0.3,2.7-3,2.7s-3-1.3-3-2.7V5.1z M700.4,33.9
	c-8.5-3.6-24.5-9.6-32.2-11.6V6.5c0-2.1-0.4-4-4.4-4s-4.4,1.9-4.4,4v51.7c0,2.1,0.4,4,4.4,4s4.4-1.9,4.4-4V30.4
	c6.7,1.6,24.3,7.9,32.2,11.3c1.8,0.8,3.5,0.8,3.5-2.7S702.1,34.6,700.4,33.9z M685.4,11.4c0,1.4,0.3,2.7,3,2.7s3-1.3,3-2.7V5.1
	c0-1.4-0.3-2.7-3-2.7s-3,1.3-3,2.7V11.4z"/>
<path class="st0" d="M519.5,10.3V6h-27c-6.4,0-7,1.7-9,6.9c-2.2,4.9-5.9,8.9-10.6,11.6c-1.4,0.7-2.1,1.5-2.1,4.3c0,2,0.6,4,3.7,3
	c5.9-1.9,13.7-9,17-16.6c0.8-2,1.2-2.6,3-2.6h18.2c1.8,0,2.7,0.6,2.7,2.7v1.2c0,16.5-13.4,34.4-33.1,36.8c-1.5,0.2-1.9,1.5-1.9,4.2
	c0,1.9,0.4,3.5,3.7,3.2c18.2-2,40-17.7,40.3-46.3H524C519.9,14.3,519.5,12.3,519.5,10.3z"/>
<path class="st0" d="M525.9,0.2c-2.7,0-3,1.3-3,2.7v6.2c0,1.4,0.3,2.7,3,2.7s3-1.3,3-2.7V2.9C528.9,1.5,528.6,0.2,525.9,0.2z"/>
<path class="st0" d="M535.2,0.2c-2.7,0-3,1.3-3,2.7v6.2c0,1.4,0.3,2.7,3,2.7s3-1.3,3-2.7V2.9C538.2,1.5,537.9,0.2,535.2,0.2z"/>
<path class="st0" d="M907.7,43.9c-1.2-1.7-2.2-2.9-5.6-2.9s-2.8,1.7-1.7,3.4c1.6,2.5,3.2,5.1,4.7,7.5c-5.7,0.9-17.8,1.9-28.7,2.3
	l7.7-16h31c1.3,0,2.5-0.3,2.5-2.8s-1.2-2.8-2.5-2.8H861c-1.3,0-2.6,0.3-2.6,2.8s1.2,2.8,2.6,2.8h15.4l-7.5,16.2c-1.5,0-2.9,0-4.2,0
	c-1.5,0-2.9,0.5-2.9,3.4s1.4,3,2.9,3c7.7,0,32.4-1.8,43.7-3.7c0.6,1,1.1,1.8,1.5,2.5c1.4,2.3,2.4,3,6.3,3c3.5,0,3.4-1.6,2.1-3.5
	C916.1,55.8,910.3,47.6,907.7,43.9z"/>
<path class="st0" d="M917.2,17.3c-10-4.9-16.8-9.6-21.8-14.2c-1.9-1.8-3.1-2.8-6.3-2.8H887c-3.3,0-4.2,0.9-6.4,2.8
	c-5,4.7-11.8,9.4-21.8,14.2c-1.7,0.8-3.2,1.7-3.2,4.9s1.6,2.9,3.2,2.2c3.7-1.6,7.1-3.3,10.2-5c-0.1,0.4-0.1,0.7-0.1,1.1
	c0,2.6,1.2,2.8,2.5,2.8h33.2c1.3,0,2.5-0.3,2.5-2.8c0-0.4,0-0.7-0.1-1c3.1,1.7,6.4,3.3,10.1,4.9c1.6,0.7,3.2,1,3.2-2.2
	S918.9,18.1,917.2,17.3z M886.4,6.8c0.5-0.9,1.7-1.2,2.6-0.6c0.3,0.2,0.5,0.4,0.6,0.6c4.3,4.2,9.1,7.8,14.3,10.9H872
	C877.3,14.7,882.1,11,886.4,6.8z"/>
<path class="st0" d="M737.3,31.5c0,2.8-0.8,4.8-2.6,2.8c-2.2-2-3.9-4.4-5-7.2v32.1c0,1.7-0.4,3.3-3.7,3.3s-3.7-1.6-3.7-3.3v-29
	c-1.3,5.4-4.4,10.8-6.7,12.8s-2.8-1-2.8-3.2c0-3,0.5-3.7,1.3-4.9c2.7-3.7,6.3-13.5,7.1-18.6h-5.4c-1.3,0-2.5-0.3-2.5-2.8
	s1.2-2.8,2.5-2.8h6.5V3.5c0-1.7,0.4-3.3,3.7-3.3s3.7,1.6,3.7,3.3v7.3h5.1c1.3,0,2.5,0.3,2.5,2.8s-1.2,2.8-2.5,2.8h-5.1v1.9
	c1.7,3.2,3.8,6.2,6.2,8.8C737,28,737.3,29.1,737.3,31.5z M778.7,48.2c-4.4-5-7.8-10.9-9.8-17.2h8.2c1.2,0,2.3-0.2,2.3-2.6
	s-1.1-2.6-2.3-2.6h-14v-12h12.1c1.2,0,2.3-0.2,2.3-2.6s-1.1-2.6-2.3-2.6H763V3.5c0-1.7-0.4-3.3-3.7-3.3s-3.7,1.6-3.7,3.3v5.2h-6.3
	c0.3-1.2,0.5-2.3,0.7-3.5c0.2-1.5-0.3-2.9-3.3-2.9s-3.2,1.3-3.4,2.8c-0.3,1.8-1.1,6.4-3,9.4c-0.7,1.1-1,1.4-1,4.2c0,2,0,4.3,2.5,2.8
	c2.2-1.3,4.3-4.1,5.8-7.7h8v12h-14c-1.2,0-2.3,0.3-2.3,2.6s1.1,2.5,2.3,2.5h8.2c-1.7,5.7-6.8,14.8-12.1,19.2
	c-1.1,0.9-1.6,1.5-1.6,4.1c0,2.2,0.8,4.8,3.3,3c5.9-4,12.4-13.7,16.1-23.2v25.1c0,1.8,0.3,3.4,3.7,3.4s3.7-1.6,3.7-3.4V34.2
	c3.7,9.3,9.8,17.8,13.9,21.2c2.4,2,3.3-0.8,3.3-3C780.2,49.7,779.6,49.3,778.7,48.2z"/>
<path class="st0" d="M989.5,55.4H977V21.3h11.2c1.3,0,2.6-0.3,2.6-2.9s-1.2-2.8-2.6-2.8H977v-12c0-1.8-0.4-3.4-3.8-3.4
	s-3.8,1.6-3.8,3.4v12h-9.8c-1.3,0-2.6,0.3-2.6,2.8s1.2,2.9,2.6,2.9h9.8v34.1h-13.5c-1.4,0-2.7,0.3-2.7,2.9s1.3,3,2.7,3h33.6
	c1.4,0,2.7-0.3,2.7-3S990.9,55.4,989.5,55.4z"/>
<path class="st0" d="M953.8,41.3c2.6,1.7,3.4-0.9,3.4-2.7c0-2.5-0.5-3.1-1.6-3.9c-3-2.1-5.7-4.5-8.2-7.1c2.5-3.3,4.6-6.8,6.4-10.5
	c1-1.9,1.8-3.9,1.8-5.6c0-2.4-1.2-2.8-3.1-2.8h-6.7V3.5c0-1.8-0.4-3.3-3.8-3.3s-3.8,1.6-3.8,3.3v5.2h-7.7c-1.3,0-2.5,0.3-2.5,2.8
	s1.2,2.8,2.5,2.8h15.2c0.9,0,1.3,0.3,0.8,1.4C941.7,26.1,933.3,33.4,929,36c-1.2,0.7-1.7,1.5-1.7,4c0,1.8,0.7,4.3,3.5,2.7
	c2.6-1.5,5.1-3.2,7.3-5.2v21.8c0,1.8,0.4,3.3,3.8,3.3s3.8-1.6,3.8-3.3V34.6C948.2,37.1,950.9,39.4,953.8,41.3z"/>
<path class="st0" d="M848.4,54.3c-9.9-7.1-15.2-20-17.1-36.5h15.1c1.4,0,2.7-0.3,2.7-3s-1.3-3-2.7-3h-15.6c-0.2-2.6-0.3-5.3-0.3-8.1
	c0-1.9-0.4-3.6-4-3.6s-4,1.7-4,3.6c0,2.7,0.1,5.4,0.3,8.1h-32.7c-1.4,0-2.7,0.3-2.7,3s1.3,3,2.7,3h33.3c2.3,19.4,9.3,37.3,23.2,43.6
	c2.8,1.3,3.5-0.6,3.5-2.5C850.1,56.2,849.6,55.2,848.4,54.3z"/>
<path class="st0" d="M822.6,50.4c-2.4,0.5-7,1.3-12.5,2V32.3h9.6c1.3,0,2.5-0.3,2.5-2.8s-1.2-2.8-2.5-2.8H792
	c-1.3,0-2.5,0.3-2.5,2.8s1.2,2.8,2.5,2.8h10.6v21c-4.1,0.4-8.3,0.7-12.1,0.9c-1.4,0.1-2.8,0.6-2.8,3.4s1.3,2.8,2.8,2.8
	c10.8-0.8,21.5-2.3,32.1-4.3c1.3-0.3,2.5-0.5,2.5-3S823.9,50.1,822.6,50.4z"/>
<path class="st0" d="M838,6.7c0.8,1.6,1.6,2.6,4.6,2.6s2.8-1.5,2-3l-1.3-2.4c-0.8-2-2.7-3.2-4.8-3c-3,0-2.7,1.5-1.9,3L838,6.7z"/>
<path class="st0" d="M52.1,10.8H33.9V3.2c0-1.7-0.3-3.2-3.7-3.2s-3.7,1.5-3.7,3.2v7.6H8.3c-5.6,0-8.3,1.6-8.3,7.7V39
	c0,6,2.6,7.7,8.3,7.7h18.3v12.8c0,1.7,0.4,3.2,3.7,3.2s3.7-1.5,3.7-3.2V46.6h18.3c5.7,0,8.3-1.6,8.3-7.7V18.5
	C60.4,12.4,57.8,10.8,52.1,10.8z M26.5,40.6H10c-2.1,0-2.7-0.7-2.7-2.7V19.5c0-2,0.6-2.7,2.7-2.7h16.5V40.6z M53.1,37.9
	c0,2-0.6,2.7-2.7,2.7H33.9V16.8h16.5c2.1,0,2.7,0.6,2.7,2.7C53.1,19.5,53.1,37.9,53.1,37.9z"/>
</svg>
