<svg xmlns="http://www.w3.org/2000/svg" width="65.26mm" height="8.11mm" viewBox="0 0 185 23">
  <defs>
    <style>
      .cls-1 {
        fill: #fff;
      }
    </style>
  </defs>
  <title>アセット 10</title>
  <g id="レイヤー_2" data-name="レイヤー 2">
    <g id="レイヤー_1-2" data-name="レイヤー 1">
      <g>
        <path class="cls-1" d="M49.79,3.78c-.1-.09-.19-.12-.78-.12H42.23s0-2.66,0-3.15S42,0,41.86,0H40.28a.4.4,0,0,0-.43.48c0,.52.1,3.17.1,3.17s-11.17,0-11.64,0a.45.45,0,0,0-.37.12.43.43,0,0,0-.12.36l.05,1.23a.41.41,0,0,0,.18.41c.16.11.36.08.65.07,1.42,0,11.27,0,11.27,0S40,7.44,40,8a4.92,4.92,0,0,0-2.54-.66,4.6,4.6,0,0,0-4.9,4.6,4.35,4.35,0,0,0,4.54,4.44,4.72,4.72,0,0,0,3.15-1.11A6.23,6.23,0,0,1,38,18.39a11,11,0,0,1-4,2,.49.49,0,0,0-.32.35.48.48,0,0,0,.11.43c.13.21.45.6.87,1.15a.49.49,0,0,0,.38.21,1.55,1.55,0,0,0,.29,0,13.43,13.43,0,0,0,4-2,8.68,8.68,0,0,0,3.52-7,7.85,7.85,0,0,0-.54-3l0-4.6h7a.91.91,0,0,0,.56-.13.35.35,0,0,0,.12-.32V4.27a.64.64,0,0,0-.14-.49m-9.91,7.55a2.57,2.57,0,0,1-2.69,2.75,2.18,2.18,0,0,1-2.3-2.26,2.42,2.42,0,0,1,2.53-2.38A2.91,2.91,0,0,1,39,9.81h0a1.67,1.67,0,0,1,.87,1.52"/>
        <path class="cls-1" d="M88.18,14.64a4.18,4.18,0,1,0,4.18,4.18,4.17,4.17,0,0,0-4.18-4.18m2,4.18a2,2,0,1,1-2-2.05,2,2,0,0,1,2,2.05"/>
        <path class="cls-1" d="M124.05,10.87s-.54-.37-.57-.38l-.33-.25a17.13,17.13,0,0,1-3.62-3.88,20.55,20.55,0,0,1-2.39-4.55.48.48,0,0,0-.22-.28.53.53,0,0,0-.39,0l-1.48.54a.52.52,0,0,0-.3.26.56.56,0,0,0,0,.4,21.12,21.12,0,0,1,1.57,8.18,12.7,12.7,0,0,1-.89,5.11,5.54,5.54,0,0,1-5,3.3,4.71,4.71,0,0,1-4.73-5c0-2.55,1.19-5.34,3.46-8.11A11.87,11.87,0,0,1,112,3.55a.48.48,0,0,0,.11-.65l-.93-1.32c-.16-.25-.35-.28-.69-.22a45.72,45.72,0,0,1-6.3.82l-1.29,0c-.31,0-.36.18-.38.35s0,1.36,0,1.51a.49.49,0,0,0,.15.37.52.52,0,0,0,.4.12c.17,0,.76,0,1.29-.08,1.23-.13,2.92-.31,3.75-.51-.31.32-.78.81-1.15,1.26a14.21,14.21,0,0,0-3.65,9,7,7,0,0,0,7.14,7.42A7.69,7.69,0,0,0,117.63,17a15,15,0,0,0,1-5.73,14.8,14.8,0,0,0-.22-2.71A13.51,13.51,0,0,0,119.57,10a24.7,24.7,0,0,0,2.57,2.47,1.75,1.75,0,0,1,.19.16s.37.28.46.33a.49.49,0,0,0,.61-.13c.11-.15.79-1.46.79-1.46a.38.38,0,0,0-.14-.52"/>
        <path class="cls-1" d="M170.64,20.52c-.18-.2-.28-.3-.44-.45,0,0-1.95-1.91-3.21-3s-3-2.55-5.35-4.39c-1.73-1.32-2-1.57-2-1.9s.22-.49.53-.73l1.31-1c1.28-1,2.09-1.62,3.14-2.5,2.47-2.13,4.58-4.29,4.75-4.47s.35-.37.37-.58a.55.55,0,0,0-.2-.38s-1.08-.77-1.27-.88-.54-.29-1.09.38a51,51,0,0,1-6.72,6.19c-1.87,1.47-2.19,1.69-2.59,2a2.33,2.33,0,0,0-.93,1.87,2.58,2.58,0,0,0,1,2c.32.28,1,.88,1.4,1.16,2.06,1.64,4.29,3.47,6,5.11,1.26,1.17,2.19,2.1,2.88,2.86l.39.43a.54.54,0,0,0,.37.26.6.6,0,0,0,.43-.18,11.81,11.81,0,0,0,1.19-1.12.49.49,0,0,0,0-.65"/>
        <path class="cls-1" d="M180.82,14.64A4.18,4.18,0,1,0,185,18.82a4.18,4.18,0,0,0-4.18-4.18m2,4.18a2,2,0,1,1-2-2.05,2,2,0,0,1,2,2.05"/>
        <path class="cls-1" d="M17.37,12c-.4-.07-.45-.09-.75-.12a6.4,6.4,0,0,0-.77-.05.49.49,0,0,0-.47.19.39.39,0,0,0,0,.5,10.62,10.62,0,0,1,1.52,4.64c0,.88-.34,1.33-1.31,1.72a16.32,16.32,0,0,1-5.28.71,15.68,15.68,0,0,1-3.47-.32c-1-.27-1.19-.62-1.19-1.16a5.59,5.59,0,0,1,1-2.71c1.15-2,1.43-2.68,1.43-3.89A3.4,3.4,0,0,0,7,8.8c0-.22,0-1.78.07-3.11a39.47,39.47,0,0,0,4.5-.56A.42.42,0,0,0,12,4.7a11.14,11.14,0,0,0-.05-1.31.5.5,0,0,0-.16-.33A.4.4,0,0,0,11.4,3a33.58,33.58,0,0,1-4.27.57c0-.76,0-2.44,0-2.77s0-.34-.08-.45A.52.52,0,0,0,6.7.18L5.39.16a.55.55,0,0,0-.61.51c0,.53.06,1.93.08,3.06a30.61,30.61,0,0,1-4.33,0,.44.44,0,0,0-.35.1.4.4,0,0,0-.12.31A11,11,0,0,0,0,5.48a.41.41,0,0,0,.37.43,39.06,39.06,0,0,0,4.47-.07c0,.79,0,1.65-.06,2.1l-.31,0A4.37,4.37,0,0,0,.12,12.41a4.18,4.18,0,0,0,1,2.78,3.54,3.54,0,0,0,2.37,1l.35,0a5.25,5.25,0,0,0-.49,2.13c0,3.19,3.7,3.61,6.91,3.61,3.42,0,5.89-.47,7.32-1.38a3.6,3.6,0,0,0,1.64-3.13,12.12,12.12,0,0,0-1.41-5.12c-.08-.16-.19-.21-.41-.25M3.73,14.07c-.85,0-1.38-.65-1.38-1.69a2.26,2.26,0,0,1,2-2.35h.12c1,.05,1.39.51,1.39,1.56a2.27,2.27,0,0,1-2.09,2.48M21.2,8.53c-.19.21-1,.92-1.11,1a.52.52,0,0,1-.35.12.37.37,0,0,1-.34-.22,23.79,23.79,0,0,0-5.55-5.07.46.46,0,0,1-.07-.75s.69-.65,1-.89a.46.46,0,0,1,.57,0,21.32,21.32,0,0,1,5.87,5.2.45.45,0,0,1,0,.63"/>
        <path class="cls-1" d="M149.48,15.14A5.75,5.75,0,0,1,147,19.76a10.68,10.68,0,0,1-6.63,1.81,19.51,19.51,0,0,1-5.22-.69l-.42-.1a8.55,8.55,0,0,1-.89-.29.56.56,0,0,1-.34-.46,12.87,12.87,0,0,1-.07-1.29c0-.41,0-.6.17-.71a.4.4,0,0,1,.47-.05,18.36,18.36,0,0,0,6.4,1.27c3.92,0,6.56-1.64,6.56-4.08,0-1.89-1.77-3-4.72-3a12,12,0,0,0-7.12,2.24,4.19,4.19,0,0,0-.88.93.45.45,0,0,1-.39.2l-1.65-.06a.52.52,0,0,1-.39-.15.55.55,0,0,1-.08-.39c.05-.35.08-.62.19-1.47.18-1.28,1.06-6.44,1.12-7s.2-1.17.24-1.35.23-.45.48-.44c.49,0,.84.06,1.55.14a.48.48,0,0,1,.35.19.58.58,0,0,1,0,.45c-.26,1.28-.8,4.13-1.18,6.74a13.78,13.78,0,0,1,7.92-2.3c4.18,0,7,2.1,7,5.22M135.67,2.63a64.55,64.55,0,0,0,8.83,3,.47.47,0,0,0,.58-.27c.21-.5.39-1.08.47-1.34a.44.44,0,0,0,0-.39c0-.15-.2-.19-.35-.23A40.54,40.54,0,0,1,137,.6a.55.55,0,0,0-.38,0,.59.59,0,0,0-.29.27,11.34,11.34,0,0,0-.81,1.2.47.47,0,0,0,.2.6"/>
        <path class="cls-1" d="M72.18,4.47a.47.47,0,0,1-.08-.4.45.45,0,0,1,.24-.31c.15-.09.83-.42,1.06-.51a.44.44,0,0,1,.56.12,24.24,24.24,0,0,1,2.41,3.54.49.49,0,0,1,0,.37.5.5,0,0,1-.22.3c-.11.08-.82.45-1,.54a1.1,1.1,0,0,1-.29.09A.38.38,0,0,1,74.46,8a18.34,18.34,0,0,0-2.28-3.49m5,2.06a.37.37,0,0,0,.41.26.7.7,0,0,0,.29-.1c.2-.1.9-.47,1-.55a.45.45,0,0,0,.22-.29.43.43,0,0,0,0-.35,25.48,25.48,0,0,0-2.4-3.56.49.49,0,0,0-.57-.12c-.22.09-.91.42-1.06.51a.54.54,0,0,0-.26.32.62.62,0,0,0,.1.4,18.71,18.71,0,0,1,2.3,3.48m-3.5,5.09a4.91,4.91,0,0,0-.91-1.06.49.49,0,0,0-.59-.11,7.05,7.05,0,0,0-1.23.64.53.53,0,0,0-.25.33.5.5,0,0,0,.12.41,22.08,22.08,0,0,1,4.22,8,.49.49,0,0,0,.46.36A1,1,0,0,0,76,20c.37-.18.9-.47,1.11-.6a.46.46,0,0,0,.27-.59,3,3,0,0,0-.19-.66,23.85,23.85,0,0,0-3.42-6.55m-17.37,8.6a38.78,38.78,0,0,0,3.71-8.5.48.48,0,0,0-.22-.64,5.9,5.9,0,0,0-1.3-.48.85.85,0,0,0-.47,0,.47.47,0,0,0-.27.34,28.09,28.09,0,0,1-3.56,8,.47.47,0,0,0-.08.4.51.51,0,0,0,.23.3c.12.1,1,.66,1.29.79a.54.54,0,0,0,.67-.2M70,2.86l-.35,0A30.16,30.16,0,0,1,61.17.58a.55.55,0,0,0-.4,0c-.12.05-.17.15-.25.29s-.51,1-.59,1.28a.47.47,0,0,0,.26.6,40.78,40.78,0,0,0,6.25,1.9l-.07,0c-2.26,1.5-3.31,3-3.31,4.65a4.76,4.76,0,0,0,1.5,3.16,15.62,15.62,0,0,1,2.51,3,3.22,3.22,0,0,1,.56,1.7A2.38,2.38,0,0,1,65,19.34a6.12,6.12,0,0,1-4-2.1.5.5,0,0,0-.45-.16.54.54,0,0,0-.33.37c-.23.53-.39,1-.52,1.35a.48.48,0,0,0,.15.6,7.51,7.51,0,0,0,5.25,2.28c2.85,0,5-1.93,5-4.5,0-1.52-.78-3-2.52-4.87a12.07,12.07,0,0,1-2-2.25,2.17,2.17,0,0,1-.25-.79c0-1,1.06-2.18,3-3.35A7,7,0,0,1,70,5.16c.27-.08.39-.15.39-.39V3.27A.39.39,0,0,0,70,2.86"/>
      </g>
    </g>
  </g>
</svg>
