<?xml version="1.0" standalone="no"?>
<!DOCTYPE svg PUBLIC "-//W3C//DTD SVG 20010904//EN"
 "http://www.w3.org/TR/2001/REC-SVG-20010904/DTD/svg10.dtd">
<svg version="1.0" xmlns="http://www.w3.org/2000/svg"
 width="400.000000pt" height="400.000000pt" viewBox="0 0 400.000000 400.000000"
 preserveAspectRatio="xMidYMid meet">
<metadata>
Created by potrace 1.11, written by Peter Selinger 2001-2013
</metadata>
<g transform="translate(0.000000,400.000000) scale(0.100000,-0.100000)"
fill="#000000" stroke="none">
<path d="M1855 3494 c-209 -27 -375 -77 -544 -164 -412 -214 -697 -598 -788
-1065 -26 -136 -24 -416 5 -551 63 -294 191 -538 390 -746 350 -365 837 -526
1334 -442 588 99 1064 545 1203 1126 32 135 51 324 35 344 -10 12 -64 14 -319
14 -168 0 -312 -4 -319 -8 -6 -5 -17 -46 -23 -93 -25 -202 -101 -359 -244
-502 -294 -294 -773 -321 -1104 -61 -136 106 -247 276 -292 449 -28 105 -31
299 -6 395 96 362 360 592 742 646 l60 9 0 325 0 325 -50 1 c-27 1 -63 0 -80
-2z"/>
<path d="M2789 3010 c-207 -120 -274 -163 -273 -177 1 -23 297 -534 316 -547
11 -6 83 30 273 140 142 81 267 155 278 165 20 16 18 20 -138 292 -87 152
-164 278 -170 281 -6 2 -135 -67 -286 -154z"/>
</g>
</svg>
