<?xml version="1.0" encoding="utf-8"?>
<!-- Generator: Adobe Illustrator 23.0.3, SVG Export Plug-In . SVG Version: 6.00 Build 0)  -->
<svg version="1.1" id="レイヤー_1" xmlns="http://www.w3.org/2000/svg" xmlns:xlink="http://www.w3.org/1999/xlink" x="0px"
	 y="0px" viewBox="0 0 404.5 30.5" style="enable-background:new 0 0 404.5 30.5;" xml:space="preserve">
<style type="text/css">
	.st0{fill:#FFFFFF;}
</style>
<title>中部電力ミライズ株式会社</title>
<path class="st0" d="M258,5.7c1.3,0,1.5-0.6,1.5-1.3v-3c0-0.7-0.1-1.3-1.5-1.3c-1.3,0-1.4,0.6-1.4,1.3v3
	C256.5,5.1,256.7,5.7,258,5.7"/>
<path class="st0" d="M262.5,0.1c-1.3,0-1.4,0.6-1.4,1.3v3c0,0.7,0.1,1.3,1.4,1.3c1.3,0,1.5-0.6,1.5-1.3v-3
	C264,0.8,263.9,0.1,262.5,0.1"/>
<path class="st0" d="M50.1,12.5h-2.3l1-6.3h1.1c0.6,0,1.2-0.1,1.2-1.4s-0.6-1.4-1.2-1.4h-5.3V1.6c0-0.8-0.1-1.5-1.6-1.5
	s-1.6,0.7-1.6,1.5v1.9H36c-0.6,0-1.2,0.1-1.2,1.4s0.6,1.4,1.2,1.4h1.1l1,6.3h-2.3c-0.6,0-1.2,0.1-1.2,1.4s0.6,1.4,1.2,1.4h14.3
	c0.6,0,1.2-0.1,1.2-1.4S50.7,12.5,50.1,12.5 M44.6,12.5h-3.4l-1-6.3h5.4L44.6,12.5z"/>
<path class="st0" d="M46.9,17.4H39c-2.5,0-3.3,0.6-3.3,3v6.3c0,2.4,0.8,3,3.3,3h7.9c2.5,0,3.3-0.6,3.3-3v-6.3
	C50.2,18,49.4,17.4,46.9,17.4 M46.9,25.9c0,0.8-0.3,1-1.1,1H40c-0.7,0-1.1-0.2-1.1-1v-4.8c0-0.8,0.3-1,1.1-1h5.9
	c0.7,0,1.1,0.2,1.1,1L46.9,25.9z"/>
<path class="st0" d="M61,13c-0.2-0.1-0.3-0.4-0.3-0.6c0-0.2,0.1-0.3,0.1-0.4l2.5-5.5c1.2-2.6,1.5-5.4-2.3-5.4h-5.2
	c-2.5,0-3.4,0.7-3.4,3.3V29c0,0.8,0.1,1.5,1.6,1.5s1.6-0.7,1.6-1.5V5c0-0.9,0.2-1.1,1-1.1H60c0.9,0,1,0.6,0.6,1.6l-2.8,6.2
	c-0.2,0.4-0.3,0.8-0.3,1.2c0,0.7,0.1,0.6,1.9,2.6c1.3,1.7,2.1,3.7,2.2,5.8c0,2.4-0.6,3.4-1.9,3.4H58c-0.6,0-1.2,0.1-1.2,1.4
	s0.6,1.4,1.2,1.4h1.7c3.7,0,5.3-2,5.3-5.9c0-1.8-0.5-3.6-1.4-5.2C63,15.1,62.1,14,61,13"/>
<path class="st0" d="M80,10.8c0.4,0,0.8-0.1,0.8-0.9S80.4,9,80,9h-5.6c-0.4,0-0.8,0.1-0.8,0.9c0,0.8,0.4,0.9,0.8,0.9L80,10.8z"/>
<path class="st0" d="M74.4,13.8H80c0.4,0,0.8-0.1,0.8-0.9c0-0.8-0.4-0.9-0.8-0.9h-5.6c-0.4,0-0.8,0.1-0.8,0.9
	C73.6,13.7,74,13.8,74.4,13.8"/>
<path class="st0" d="M97.3,27.2H86.7c-1,0-1.3-0.3-1.3-1.3v-0.5h8.2c2.3,0,3.1-0.6,3.1-2.8v-4.7c0-2.2-0.7-2.8-3.1-2.8H73.8
	c-2.3,0-3.1,0.6-3.1,2.8v4.7c0,2.2,0.7,2.8,3.1,2.8H82v0.7c0,3,1.3,3.8,4,3.8h11.3c0.6,0,1.2-0.1,1.2-1.3S98,27.2,97.3,27.2
	 M85.4,17.2h7.2c0.7,0,1,0.2,1,1v1h-8.2V17.2z M85.4,21.2h8.2v1.1c0,0.7-0.3,1-1,1h-7.2V21.2z M82,23.2h-7.2c-0.7,0-1-0.2-1-1v-1.1
	H82V23.2z M82,19.2h-8.2v-1.1c0-0.7,0.3-1,1-1H82V19.2z"/>
<path class="st0" d="M93.1,10.8c0.4,0,0.8-0.1,0.8-0.9S93.5,9,93.1,9h-5.6c-0.4,0-0.8,0.1-0.8,0.9c0,0.8,0.4,0.9,0.8,0.9L93.1,10.8z
	"/>
<path class="st0" d="M87.5,13.8h5.6c0.4,0,0.8-0.1,0.8-0.9c0-0.8-0.4-0.9-0.8-0.9h-5.6c-0.4,0-0.8,0.1-0.8,0.9
	C86.7,13.7,87,13.8,87.5,13.8"/>
<path class="st0" d="M72.3,11.4V8.8c0-0.8,0.3-1,1-1H82v4.8c0,0.8,0.1,1.5,1.7,1.5s1.7-0.7,1.7-1.5V7.8H94c0.7,0,1,0.2,1,1v2.6
	c0,0.8,0.1,1.5,1.6,1.5s1.6-0.7,1.6-1.5v-3c0-2.4-0.8-3-3.3-3h-9.6V3.9h10.5c0.6,0,1.2-0.1,1.2-1.3s-0.6-1.3-1.2-1.3H71.5
	c-0.6,0-1.2,0.1-1.2,1.3s0.6,1.3,1.2,1.3H82v1.5h-9.7c-2.5,0-3.3,0.6-3.3,3v3c0,0.8,0.1,1.5,1.6,1.5S72.3,12.2,72.3,11.4"/>
<path class="st0" d="M129.1,6.3h-10.6V2c0-1-0.2-1.9-2.1-1.9S114.4,1,114.4,2v4.2H105c-0.7,0-1.3,0.1-1.3,1.5s0.6,1.5,1.3,1.5h9.1
	c-0.6,8.5-4.7,13.8-10.1,16.9c-0.6,0.4-0.9,0.8-0.9,2.1c0,0.9,0.3,1.9,1.8,1.4c7.5-2.7,12.7-10.5,13.3-20.4h9.5c1,0,1.3,0.3,1.3,1.4
	v12.2c0,2.7-1,3.9-3.8,3.9h-3.6c-0.8,0-1.5,0.2-1.5,1.7s0.7,1.6,1.5,1.6h4.5c4.5,0,7-2.2,7-7.6V10.1C133.2,7.1,131.9,6.3,129.1,6.3"
	/>
<path class="st0" d="M363.4,21.4c-0.5-1-1.6-1.5-2.7-1.4c-1.7,0-1.4,0.8-0.8,1.7c0.8,1.2,1.6,2.5,2.3,3.6c-2.8,0.4-8.7,0.9-14,1.1
	l3.7-7.8H367c0.6,0,1.2-0.1,1.2-1.4c0-1.3-0.6-1.4-1.2-1.4h-26.4c-0.6,0-1.2,0.1-1.2,1.4s0.6,1.4,1.2,1.4h7.5l-3.6,7.9h-2
	c-0.7,0-1.4,0.2-1.4,1.7c0,1.4,0.7,1.5,1.4,1.5c7.1-0.2,14.2-0.8,21.3-1.8l0.7,1.2c0.7,1.1,1.2,1.5,3.1,1.5c1.7,0,1.6-0.8,1-1.7
	C367.4,27.2,364.6,23.2,363.4,21.4"/>
<path class="st0" d="M368,8.4c-3.9-1.8-7.4-4.1-10.6-6.9c-0.8-0.9-1.9-1.4-3.1-1.4h-1c-1.2-0.1-2.4,0.4-3.1,1.4
	c-3.2,2.8-6.7,5.2-10.6,6.9c-1,0.3-1.7,1.3-1.6,2.4c0,1.5,0.8,1.4,1.5,1.1c1.8-0.8,3.5-1.6,5-2.4c0,0.2,0,0.4,0,0.5
	c0,1.2,0.6,1.4,1.2,1.4h16.2c0.6,0,1.2-0.1,1.2-1.4c0-0.2,0-0.3,0-0.5c1.5,0.8,3.1,1.6,4.9,2.4c0.8,0.3,1.5,0.5,1.5-1.1
	C369.7,9.7,369,8.7,368,8.4 M346,8.6c2.5-1.5,4.9-3.3,7-5.3c0.2-0.2,0.5-0.4,0.8-0.4c0.3,0,0.6,0.2,0.8,0.4c2.1,2,4.5,3.8,7,5.3H346
	z"/>
<path class="st0" d="M280.4,15.4c0.1-0.8-0.1-1.6-0.6-2.2c-1.2-1.3-2.2-2.7-3.1-4.3V7.9h2.5c0.6,0,1.2-0.1,1.2-1.3s-0.6-1.3-1.2-1.3
	h-2.5V1.7c0-0.8-0.2-1.6-1.8-1.6c-1.6,0-1.8,0.8-1.8,1.6v3.5h-3.2c-0.6,0-1.2,0.1-1.2,1.3s0.6,1.3,1.2,1.3h2.6
	c-0.6,3.2-1.8,6.2-3.4,9c-0.5,0.7-0.8,1.5-0.6,2.4c0,1.1,0.2,2.5,1.4,1.5c1.6-1.7,2.7-3.9,3.3-6.2v14.3c0,0.8,0.2,1.6,1.8,1.6
	c1.6,0,1.8-0.8,1.8-1.6V13.2c0.5,1.3,1.4,2.5,2.4,3.5C280,17.7,280.4,16.7,280.4,15.4"/>
<path class="st0" d="M295.7,15.1h4c0.6,0,1.1-0.1,1.1-1.2s-0.5-1.3-1.1-1.3h-6.8V6.8h5.9c0.6,0,1.1-0.1,1.1-1.2s-0.5-1.3-1.1-1.3
	h-5.9V1.7c0-0.8-0.2-1.6-1.8-1.6c-1.6,0-1.8,0.8-1.8,1.6v2.5h-3.1c0.1-0.6,0.2-1.1,0.3-1.7s-0.1-1.4-1.6-1.4c-1.4,0-1.5,0.7-1.6,1.4
	c-0.2,1.6-0.7,3.2-1.5,4.6c-0.4,0.6-0.6,1.3-0.5,2.1c0,1,0,2.1,1.2,1.4c1.3-0.9,2.3-2.3,2.8-3.8h3.9v5.8h-6.8
	c-0.6,0-1.1,0.1-1.1,1.3s0.5,1.2,1.1,1.2h4c-1.2,3.5-3.2,6.8-5.9,9.3c-0.5,0.5-0.8,0.7-0.8,2c0,1.1,0.4,2.3,1.6,1.5
	c2.9-1.9,6-6.7,7.8-11.3v12.2c0,0.9,0.2,1.6,1.8,1.6s1.8-0.8,1.8-1.6V16.7c1.8,4.5,4.7,8.7,6.8,10.3c1.2,1,1.6-0.4,1.6-1.5
	c0.1-0.8-0.2-1.5-0.8-2C298.4,21.1,296.7,18.2,295.7,15.1"/>
<path class="st0" d="M403.2,27h-6.1V10.4h5.4c0.6,0,1.2-0.1,1.2-1.4s-0.6-1.4-1.2-1.4h-5.4V1.8c0-0.9-0.2-1.6-1.9-1.6
	s-1.9,0.8-1.9,1.6v5.9h-4.8c-0.6,0-1.2,0.1-1.2,1.4s0.6,1.4,1.2,1.4h4.8V27h-6.6c-0.7,0-1.3,0.1-1.3,1.4c0,1.3,0.6,1.4,1.3,1.4h16.4
	c0.7,0,1.3-0.1,1.3-1.4C404.5,27.1,403.9,27,403.2,27"/>
<path class="st0" d="M387.5,18.8c0-1.2-0.3-1.5-0.8-1.9c-1.5-1-2.8-2.2-4-3.5c1.2-1.6,2.2-3.3,3.1-5.1c0.5-0.8,0.8-1.7,0.9-2.7
	c0-1.2-0.6-1.4-1.5-1.4h-3.3V1.7c0-0.9-0.2-1.6-1.8-1.6s-1.8,0.8-1.8,1.6v2.5h-3.7c-0.6,0-1.2,0.1-1.2,1.4s0.6,1.4,1.3,1.4h7.4
	c0.4,0,0.7,0.1,0.4,0.7c-1.9,4-4.9,7.4-8.5,9.9c-0.6,0.3-0.8,0.7-0.8,2c0,0.9,0.4,2.1,1.7,1.3c1.3-0.7,2.5-1.6,3.6-2.5v10.5
	c0,0.8,0.2,1.6,1.8,1.6s1.8-0.8,1.8-1.6v-12c1.2,1.2,2.5,2.3,3.9,3.3C387.1,21,387.5,19.7,387.5,18.8"/>
<path class="st0" d="M334.5,26.5c-4.8-3.5-7.4-9.7-8.3-17.8h7.3c0.7,0,1.3-0.1,1.3-1.4s-0.6-1.5-1.3-1.5h-7.6
	c-0.1-1.3-0.1-2.6-0.1-3.9c0-0.9-0.2-1.7-1.9-1.7s-1.9,0.8-1.9,1.7c0,1.3,0.1,2.6,0.1,3.9h-16c-0.7,0-1.3,0.1-1.3,1.5
	s0.6,1.4,1.3,1.4h16.2c1.1,9.4,4.5,18.2,11.3,21.2c1.4,0.6,1.7-0.3,1.7-1.2C335.3,27.4,335,26.9,334.5,26.5"/>
<path class="st0" d="M321.9,24.6c-1.2,0.2-3.4,0.6-6.1,0.9v-9.8h4.7c0.6,0,1.2-0.1,1.2-1.3s-0.6-1.3-1.2-1.3H307
	c-0.6,0-1.2,0.1-1.2,1.3s0.6,1.3,1.2,1.3h5.2v10.2c-2,0.2-4,0.3-5.9,0.4c-0.7,0-1.3,0.3-1.3,1.6s0.6,1.4,1.3,1.3
	c5.2-0.4,10.5-1.1,15.6-2.1c0.6-0.1,1.2-0.3,1.2-1.5C323.1,24.6,322.5,24.4,321.9,24.6"/>
<path class="st0" d="M329.4,3.3c0.4,0.8,0.8,1.3,2.3,1.3c1.5,0,1.3-0.7,0.9-1.5L332,1.9c-0.4-1-1.3-1.6-2.4-1.5
	c-1.5,0-1.3,0.7-0.9,1.5L329.4,3.3z"/>
<path class="st0" d="M25.4,5.3h-8.9V1.6c0-0.8-0.2-1.6-1.8-1.6s-1.8,0.8-1.8,1.6v3.7H4C1.3,5.3,0,6,0,9v10c0,2.9,1.3,3.7,4,3.7h8.9
	V29c0,0.8,0.2,1.6,1.8,1.6s1.8-0.8,1.8-1.6v-6.3h8.9c2.7,0,4-0.8,4-3.7V9C29.4,6.1,28.1,5.3,25.4,5.3 M12.9,19.8h-8
	c-1,0-1.3-0.3-1.3-1.3v-9c0-1,0.3-1.3,1.3-1.3h8V19.8z M25.9,18.5c0,1-0.3,1.3-1.3,1.3h-8V8.2h8c1,0,1.3,0.3,1.3,1.3V18.5z"/>
<path class="st0" d="M175.3,5.5h20.2c0.8,0,1.5-0.2,1.5-1.7s-0.7-1.7-1.5-1.7h-20.2c-0.8,0-1.5,0.2-1.5,1.7S174.6,5.5,175.3,5.5"/>
<path class="st0" d="M165.6,25.9c-7.5-1.3-15.2-2-22.8-2.3c-0.9,0-1.5,0.1-1.5,1.6s0.6,1.6,1.5,1.7c7.7,0.4,15.3,1.3,22.8,2.7
	c0.9,0.2,1.6,0,1.6-1.6S166.6,26,165.6,25.9"/>
<path class="st0" d="M194.1,10.1h-20.6c-0.8,0-1.5,0.2-1.5,1.7s0.7,1.7,1.5,1.7h18.7c0.9,0,1.1,0.4,1,1.3
	C192,21.9,186,25,176.9,25.9c-1.1,0.1-1.5,0.6-1.5,1.9c0,0.9,0.2,1.9,1.8,1.7c13.3-1.3,19.3-6.4,20.5-15.7
	C198,11.1,197.2,10.1,194.1,10.1"/>
<path class="st0" d="M227,1.2c-1.1-0.2-2.2,0.4-2.7,1.4c-3.6,5.9-10,10.3-21,12.7c-1.1,0.2-1.5,0.8-1.5,2.1c0,0.9,0.2,1.9,1.8,1.6
	c4.2-0.7,8.4-2.1,12.3-3.9v13.3c0,1,0.2,1.9,2.2,1.9c1.9,0,2.2-0.9,2.2-1.9V12.6c3.6-2.4,6.6-5.7,8.6-9.6
	C229.4,1.5,228.1,1.2,227,1.2"/>
<path class="st0" d="M259.2,25.5c-3.6-2.6-6.6-6-8.5-10c1.7-2.8,3-5.9,3.7-9.1c0.6-2.7-0.4-3.8-3.5-3.8H234c-0.8,0-1.5,0.1-1.5,1.7
	s0.7,1.7,1.5,1.7h14.8c0.9,0,1.1,0.4,0.9,1.3c-1.5,6.8-8.2,15.3-17.6,18.6c-0.7,0.3-1,0.7-1,2c0,1.1,0.4,1.9,1.7,1.5
	c6-1.9,11.3-5.5,15.3-10.3c2.7,4.1,6.2,7.5,10.3,10c1.4,0.8,1.9,0,1.9-1.2C260.4,26.9,260,26,259.2,25.5"/>
<path class="st0" d="M163.5,14.3c-3.2-0.6-13.7-1.7-18.7-1.8c-1,0-1.5,0.1-1.5,1.6s0.6,1.6,1.5,1.7c7,0.4,15.1,1.7,18.7,2.2
	c0.9,0.1,1.6,0,1.6-1.6C165,14.8,164.4,14.5,163.5,14.3"/>
<path class="st0" d="M144,5.1c7,0.4,13.2,1.3,20.4,2.4c0.9,0.1,1.6,0,1.6-1.6s-0.6-1.9-1.6-2.1c-6.8-1-13.6-1.7-20.4-2
	c-0.9,0-1.5,0.1-1.5,1.6S143.1,5.1,144,5.1"/>
</svg>
