<svg xmlns="http://www.w3.org/2000/svg" width="106.67mm" height="25.51mm" viewBox="0 0 302.38 72.32"><defs><style>.a{fill:#e60012;}.b{fill:#c11920;}.c{fill:#595757;}</style></defs><title>中部電力パワーグリッド</title><path class="a" d="M69.83,21.14a.64.64,0,0,1-.23.89L56.84,29.38a.66.66,0,0,1-.89-.24L48.61,16.39a.65.65,0,0,1,.23-.89L61.6,8.15a.65.65,0,0,1,.89.24Z"/><path class="b" d="M35.11,0A36.17,36.17,0,1,0,72.32,36.84c0-.61-.28-.88-.92-.88H57.28c-.61,0-.91.32-.94.95A20.19,20.19,0,1,1,35.13,16c.51,0,.93-.26.93-.91V.87c0-.63-.26-.89-.94-.87"/><path class="c" d="M121.36,34.45h-1.44l.59-3.92h.68c.4,0,.76-.08.76-.85s-.36-.85-.76-.85H118V27.68c0-.48-.1-.92-1-.92s-1,.44-1,.92v1.15h-3.23c-.4,0-.76.08-.76.85s.36.85.76.85h.68l.59,3.92h-1.44c-.4,0-.76.08-.76.84s.36.85.76.85h8.84c.4,0,.76-.08.76-.85s-.36-.84-.76-.84m-6.08-3.92h3.32l-.6,3.92h-2.12Z"/><path class="c" d="M119.4,37.43h-4.92c-1.57,0-2.06.39-2.06,1.87v3.9c0,1.48.49,1.88,2.06,1.88h4.92c1.57,0,2.06-.4,2.06-1.88V39.3c0-1.48-.49-1.87-2.06-1.87m0,5.3c0,.5-.2.65-.65.65h-3.66c-.45,0-.65-.15-.65-.65v-3c0-.5.2-.65.65-.65h3.66c.45,0,.65.15.65.65Z"/><path class="c" d="M129.74,36.79a7.71,7.71,0,0,0-1.62-2.06.55.55,0,0,1-.2-.36.77.77,0,0,1,.08-.28l1.56-3.4c.74-1.61.92-3.31-1.42-3.31h-3.27c-1.53,0-2.09.43-2.09,2V44.65c0,.47.09.91,1,.91s1-.44,1-.91V29.78c0-.58.12-.71.61-.71h2.06c.59,0,.65.37.37,1l-1.71,3.82a1.71,1.71,0,0,0-.21.73c0,.44,0,.37,1.15,1.6a6,6,0,0,1,1.35,3.61c0,1.49-.4,2.1-1.19,2.1h-1c-.39,0-.76.08-.76.84s.37.85.76.85h1c2.31,0,3.29-1.27,3.29-3.63a6.88,6.88,0,0,0-.84-3.21"/><path class="c" d="M139.87,33.35c.25,0,.48-.05.48-.54s-.23-.53-.48-.53h-3.5c-.25,0-.48,0-.48.53s.23.54.48.54Z"/><path class="c" d="M136.39,35.23h3.46c.26,0,.5-.06.5-.56s-.24-.55-.5-.55h-3.46c-.26,0-.5.05-.5.55s.24.56.5.56"/><path class="c" d="M150.57,43.51H144c-.64,0-.82-.2-.82-.83v-.3h5.06c1.45,0,1.9-.35,1.9-1.72V37.74c0-1.36-.45-1.72-1.9-1.72H136c-1.45,0-1.91.36-1.91,1.72v2.92c0,1.37.46,1.72,1.91,1.72h5.06v.43c0,1.86.79,2.36,2.49,2.36h7c.39,0,.74-.08.74-.83s-.35-.83-.74-.83m-2.87-2.46h-4.48V39.76h5.08v.69c0,.46-.19.6-.6.6m.6-3.14v.66h-5.08V37.31h4.48c.41,0,.6.14.6.6m-11.68-.6h4.48v1.26H136v-.66c0-.46.19-.6.6-.6m0,3.74c-.41,0-.6-.14-.6-.6v-.69h5.08v1.29Z"/><path class="c" d="M148,33.35c.24,0,.47-.05.47-.54s-.23-.53-.47-.53h-3.5c-.25,0-.48,0-.48.53s.23.54.48.54Z"/><path class="c" d="M144.48,35.23h3.46c.26,0,.5-.06.5-.56s-.24-.55-.5-.55h-3.46c-.26,0-.5.05-.5.55s.24.56.5.56"/><path class="c" d="M135.11,33.77V32.15c0-.5.2-.64.65-.64h5.37v3c0,.48.09.93,1,.93s1-.45,1-.93v-3h5.37c.45,0,.65.14.65.64v1.62c0,.47.1.91,1,.91s1-.44,1-.91V31.89c0-1.47-.49-1.86-2-1.86h-6v-.91h6.5c.37,0,.72-.08.72-.81s-.35-.81-.72-.81H134.64c-.38,0-.73.08-.73.81s.35.81.73.81h6.49V30h-6c-1.55,0-2,.39-2,1.86v1.88c0,.47.09.91,1,.91s1-.44,1-.91"/><path class="c" d="M170.21,30.56h-6.55V27.91c0-.6-.12-1.15-1.28-1.15s-1.28.55-1.28,1.15v2.65h-5.8c-.43,0-.82.09-.82.91s.39.91.82.91h5.64c-.38,5.25-2.9,8.52-6.26,10.45-.38.23-.54.47-.54,1.27,0,.58.18,1.19,1.12.87,4.62-1.68,7.86-6.48,8.22-12.59h5.9c.64,0,.83.2.83.84v7.53c0,1.69-.61,2.44-2.34,2.44h-2.26c-.48,0-.92.1-.92,1s.44,1,.92,1h2.8c2.77,0,4.34-1.34,4.34-4.69V33c0-1.89-.81-2.4-2.54-2.4"/><path class="c" d="M229.11,37c.48,0,.91-.1.91-1s-.43-1-.91-1H217.34c-.47,0-.91.09-.91,1s.44,1,.91,1Z"/><path class="c" d="M214.55,30.82c0-1.83-.61-2.32-2.55-2.32H201.66c-1.93,0-2.54.48-2.54,2.31v3.82c0,.59.12,1.13,1.26,1.13s1.26-.54,1.26-1.13V31.26c0-.62.26-.8.81-.8h8.46c.55,0,.8.18.8.8v.31c0,5.09-2.62,9.74-8.4,11.08-.44.1-.58.49-.58,1.29,0,.58.13,1.12,1.11,1,5.08-.84,10.71-5.15,10.71-14.08"/><path class="c" d="M258.18,44.9c-1,.17-1.12-.47-1.12-1,0-.8.28-1.14.71-1.22,5.79-1.14,7.58-4.83,7.58-10.79v-3c0-.6.12-1.16,1.29-1.16s1.29.56,1.29,1.16v2.95c0,6.91-2.14,11.74-9.75,13.08m-1.26-16.06c0-.58-.12-1.13-1.26-1.13s-1.27.55-1.27,1.13V36c0,.59.12,1.13,1.27,1.13s1.26-.54,1.26-1.13Z"/><path class="c" d="M276.13,45c-.94.22-1.08-.46-1.08-1,0-.78.27-1.06.69-1.18,4.56-1.33,6.13-4.69,6.13-9.68v-.31c0-.59.12-1.14,1.27-1.14s1.27.55,1.27,1.14v.33c0,5.21-1.91,10.34-8.28,11.86m-2.08-12.25c0-.56-.11-1.08-1.2-1.08s-1.19.52-1.19,1.08v4c0,.56.11,1.08,1.19,1.08s1.2-.52,1.2-1.08Zm4.53,0c0-.56-.11-1.08-1.19-1.08s-1.2.52-1.2,1.08v4c0,.56.11,1.08,1.2,1.08s1.19-.52,1.19-1.08Z"/><path class="c" d="M184,29.38c0-.62-.12-1.2-1.34-1.2s-1.34.58-1.34,1.2c0,5.61-1.47,10.54-4.12,13.08a1.53,1.53,0,0,0-.56,1.4c0,.61.28,1.38,1.18.92,3.69-1.88,6.18-8.7,6.18-15.4m10.51,15.4c.91.46,1.19-.31,1.19-.92a1.53,1.53,0,0,0-.56-1.4c-2.65-2.54-4.12-7.47-4.12-13.08,0-.62-.13-1.2-1.35-1.2s-1.34.58-1.34,1.2c0,6.7,2.5,13.52,6.18,15.4m-.14-18a2.33,2.33,0,1,0,2.33,2.33,2.33,2.33,0,0,0-2.33-2.33m0,3.38a1,1,0,1,1,0-2.09,1,1,0,0,1,0,2.09"/><path class="c" d="M299.6,28.24c0-.42.08-.8.89-.8s.9.38.9.8v1.88c0,.42-.08.81-.9.81s-.89-.39-.89-.81Zm1.72,8.65a87.84,87.84,0,0,0-9.7-3.48V28.65c0-.62-.13-1.19-1.33-1.19S289,28,289,28.65V44.23c0,.62.13,1.19,1.34,1.19s1.33-.57,1.33-1.19V35.85a90.39,90.39,0,0,1,9.7,3.41c.56.24,1.06.26,1.06-.81a1.43,1.43,0,0,0-1.06-1.56m-4.52-6.77c0,.42.08.81.89.81s.9-.39.9-.81V28.24c0-.42-.08-.8-.9-.8s-.89.38-.89.8Z"/><path class="c" d="M251.59,26.76c-.81,0-.9.39-.9.81v1.87c0,.42.09.81.9.81s.9-.39.9-.81V27.57c0-.42-.09-.81-.9-.81"/><path class="c" d="M246.84,29.79V28.5h-8.13c-1.94,0-2.12.51-2.73,2.06a7.77,7.77,0,0,1-3.18,3.49c-.42.22-.64.45-.64,1.3,0,.61.19,1.2,1.12.9a9.8,9.8,0,0,0,5.11-5c.25-.6.36-.78.91-.78h5.48c.56,0,.81.18.81.8v.37a11.58,11.58,0,0,1-10,11.09c-.44.06-.57.46-.57,1.27,0,.57.13,1.07,1.11.95A13.86,13.86,0,0,0,248.3,31h-.11c-1.22,0-1.35-.59-1.35-1.21"/><path class="c" d="M248.79,26.76c-.81,0-.9.39-.9.81v1.87c0,.42.09.81.9.81s.9-.39.9-.81V27.57c0-.42-.09-.81-.9-.81"/><path class="c" d="M106.11,30h-5.5V27.67c0-.5-.1-1-1.11-1s-1.1.47-1.1,1V30H92.9c-1.7,0-2.49.48-2.49,2.3v6.17c0,1.83.79,2.31,2.49,2.31h5.5v3.86c0,.51.1,1,1.1,1s1.11-.46,1.11-1V40.73h5.5c1.7,0,2.49-.48,2.49-2.31V32.25c0-1.82-.79-2.3-2.49-2.3m-7.71,9h-5c-.63,0-.81-.2-.81-.81V32.56c0-.61.18-.81.81-.81h5Zm8-.81c0,.61-.18.81-.81.81h-5V31.75h5c.63,0,.81.2.81.81Z"/></svg>