<svg xmlns="http://www.w3.org/2000/svg" width="94.41mm" height="30.67mm" viewBox="0 0 267.62 86.93"><defs><style>.a{fill:#e60012;}.b{fill:#c11920;}.c{fill:#595757;}</style></defs><title>中部電力ミライズ</title><path class="a" d="M77.72,15.48a1.49,1.49,0,0,0-.49-2.21L60.67.27a.92.92,0,0,0-1.56.4L43.88,50.73A1.6,1.6,0,0,0,44,52.08l5.15,9a.63.63,0,0,0,1.16,0Z"/><path class="b" d="M38.42,68.6a.81.81,0,0,0,.29-1.22l-5.22-9.1c-.3-.52-.65-.65-1.36-.48L.7,65.45c-.7.17-.83.51-.59,1.16L7.17,86.49c.17.47.53.57,1,.26Z"/><path class="c" d="M263.32,52.75c.95,0,1.05-.45,1.05-.94V49.63c0-.49-.1-.94-1.05-.94s-1,.45-1,.94v2.18c0,.49.1.94,1,.94"/><path class="c" d="M266.57,48.69c-.94,0-1,.45-1,.94v2.18c0,.49.1.94,1,.94s1.05-.45,1.05-.94V49.63c0-.49-.1-.94-1.05-.94"/><path class="c" d="M114,57.63h-1.68l.7-4.56h.79c.46,0,.88-.09.88-1s-.42-1-.88-1H110V49.76c0-.55-.11-1.07-1.18-1.07s-1.19.52-1.19,1.07v1.35h-3.76c-.46,0-.88.09-.88,1s.42,1,.88,1h.79l.7,4.56h-1.68c-.46,0-.88.09-.88,1s.42,1,.88,1H114c.46,0,.89-.09.89-1s-.43-1-.89-1m-3.9,0h-2.47l-.69-4.56h3.85Z"/><path class="c" d="M111.71,61.09H106c-1.82,0-2.4.45-2.4,2.18v4.52c0,1.73.58,2.19,2.4,2.19h5.71c1.82,0,2.4-.46,2.4-2.19V63.27c0-1.73-.58-2.18-2.4-2.18m0,6.16c0,.58-.24.75-.76.75h-4.25c-.52,0-.76-.17-.76-.75V63.81c0-.58.24-.75.76-.75H111c.52,0,.76.17.76.75Z"/><path class="c" d="M121.84,58a.62.62,0,0,1-.23-.41.8.8,0,0,1,.09-.33l1.82-4c.86-1.87,1.06-3.84-1.65-3.84h-3.8c-1.78,0-2.43.5-2.43,2.34V69.48c0,.55.11,1.06,1.18,1.06S118,70,118,69.48V52.21c0-.67.14-.83.72-.83h2.38c.68,0,.76.44.43,1.17l-2,4.44a1.85,1.85,0,0,0-.25.85c0,.51.06.43,1.34,1.86a7,7,0,0,1,1.56,4.19c0,1.74-.46,2.44-1.38,2.44h-1.16c-.45,0-.88.09-.88,1s.43,1,.88,1h1.21c2.68,0,3.82-1.47,3.82-4.21a7.92,7.92,0,0,0-1-3.73,8.74,8.74,0,0,0-1.88-2.4"/><path class="c" d="M135.49,56.35c.29,0,.56-.06.56-.63s-.27-.62-.56-.62h-4.06c-.29,0-.56.06-.56.62s.27.63.56.63Z"/><path class="c" d="M131.45,58.53h4c.3,0,.58-.06.58-.64s-.28-.65-.58-.65h-4c-.3,0-.58.06-.58.65s.28.64.58.64"/><path class="c" d="M147.92,68.16h-7.59c-.73,0-.94-.24-.94-1v-.35h5.88c1.67,0,2.21-.42,2.21-2v-3.4c0-1.58-.54-2-2.21-2H131c-1.68,0-2.21.42-2.21,2v3.4c0,1.58.53,2,2.21,2h5.88v.5c0,2.16.92,2.73,2.9,2.73h8.1c.45,0,.87-.09.87-1s-.42-1-.87-1M139.39,61h5.2c.48,0,.7.16.7.69v.77h-5.9Zm0,2.85h5.9v.8c0,.54-.22.69-.7.69h-5.2Zm-2.47,1.49h-5.2c-.48,0-.7-.15-.7-.69v-.8h5.9Zm0-2.88H131v-.77c0-.53.22-.69.7-.69h5.2Z"/><path class="c" d="M144.89,56.35c.29,0,.55-.06.55-.63s-.26-.62-.55-.62h-4.07c-.29,0-.55.06-.55.62s.26.63.55.63Z"/><path class="c" d="M140.85,58.53h4c.3,0,.58-.06.58-.64s-.28-.65-.58-.65h-4c-.31,0-.58.06-.58.65s.27.64.58.64"/><path class="c" d="M130,56.84V55c0-.58.23-.75.75-.75H137v3.45c0,.56.12,1.07,1.2,1.07s1.2-.51,1.2-1.07V54.21h6.25c.51,0,.75.17.75.75v1.88c0,.55.11,1.06,1.18,1.06s1.17-.51,1.17-1.06V54.65c0-1.7-.57-2.15-2.37-2.15h-7V51.43h7.55c.44,0,.84-.08.84-.94s-.4-.93-.84-.93H129.42c-.44,0-.85.08-.85.93s.41.94.85.94H137V52.5h-7c-1.81,0-2.38.45-2.38,2.15v2.19c0,.55.11,1.06,1.18,1.06s1.18-.51,1.18-1.06"/><path class="c" d="M170.74,53.11h-7.61V50c0-.69-.14-1.33-1.49-1.33s-1.48.64-1.48,1.33v3.08h-6.74c-.49,0-.95.1-.95,1.06s.46,1,.95,1H160c-.44,6.1-3.38,9.91-7.28,12.14-.44.27-.62.55-.62,1.48,0,.67.2,1.39,1.3,1,5.35-1.95,9.12-7.53,9.54-14.63h6.85c.76,0,1,.24,1,1V65c0,2-.71,2.84-2.72,2.84h-2.63c-.55,0-1.06.11-1.06,1.19s.51,1.19,1.06,1.19h3.26c3.21,0,5-1.56,5-5.45V55.9c0-2.2-.95-2.79-3-2.79"/><path class="c" d="M96.27,52.4H89.88V49.75c0-.58-.12-1.12-1.28-1.12s-1.28.54-1.28,1.12V52.4H80.93c-2,0-2.9.56-2.9,2.68v7.16c0,2.12.92,2.69,2.9,2.69h6.39v4.48c0,.59.12,1.13,1.28,1.13s1.28-.54,1.28-1.13V64.93h6.39c2,0,2.9-.57,2.9-2.69V55.08c0-2.12-.92-2.68-2.9-2.68m-9,10.43H81.54c-.73,0-.94-.22-.94-.94V55.43c0-.71.21-.94.94-.94h5.78Zm9.28-.94c0,.72-.21.94-.95.94H89.88V54.49h5.77c.74,0,.95.23.95.94Z"/><path class="c" d="M204,52.54h14.49c.57,0,1.09-.12,1.09-1.22s-.52-1.21-1.09-1.21H204c-.56,0-1.09.11-1.09,1.21s.53,1.22,1.09,1.22"/><path class="c" d="M197,67.19a120.93,120.93,0,0,0-16.38-1.63c-.69,0-1.06.08-1.06,1.14s.43,1.19,1.06,1.22A130.67,130.67,0,0,1,197,69.84c.65.11,1.12,0,1.12-1.15s-.42-1.37-1.12-1.5"/><path class="c" d="M217.43,55.88h-14.8c-.57,0-1.09.12-1.09,1.22s.52,1.21,1.09,1.21h13.42c.64,0,.8.27.69.93-.84,5.14-5.16,7.32-11.68,8-.81.09-1.08.46-1.08,1.37,0,.66.16,1.36,1.27,1.25,9.57-.94,13.88-4.6,14.73-11.29.25-2-.3-2.69-2.55-2.69"/><path class="c" d="M241,49.46a1.89,1.89,0,0,0-2,1c-2.55,4.25-7.19,7.43-15.06,9.13-.83.18-1.11.58-1.11,1.5,0,.66.15,1.33,1.3,1.12A34.69,34.69,0,0,0,233,59.44V69c0,.72.15,1.39,1.55,1.39s1.55-.67,1.55-1.39V57.64a18.44,18.44,0,0,0,6.15-6.93c.51-1-.46-1.25-1.22-1.25"/><path class="c" d="M264.19,66.9a18.53,18.53,0,0,1-6.11-7.17,21.5,21.5,0,0,0,2.63-6.57c.43-2-.3-2.7-2.54-2.7H246.09c-.57,0-1.09.11-1.09,1.21s.52,1.22,1.09,1.22H256.7c.65,0,.82.27.67.92-1.09,4.92-5.92,11-12.66,13.37-.53.19-.72.52-.72,1.46,0,.78.32,1.39,1.23,1.09a23.44,23.44,0,0,0,11-7.39,23.74,23.74,0,0,0,7.4,7.21c1,.62,1.34,0,1.34-.84a1.82,1.82,0,0,0-.78-1.81"/><path class="c" d="M195.42,58.91c-2.31-.41-9.84-1.2-13.44-1.3-.69,0-1.06.07-1.06,1.14s.43,1.18,1.06,1.22c5,.27,10.85,1.19,13.44,1.59.66.1,1.12,0,1.12-1.15s-.42-1.37-1.12-1.5"/><path class="c" d="M181.46,52.31c5,.32,9.49.95,14.67,1.75.66.1,1.12,0,1.12-1.15s-.42-1.37-1.12-1.49A134.64,134.64,0,0,0,181.46,50c-.69,0-1.06.07-1.06,1.14s.43,1.18,1.06,1.22"/></svg>