<?xml version="1.0" encoding="utf-8"?>
<!-- Generator: Adobe Illustrator 23.0.3, SVG Export Plug-In . SVG Version: 6.00 Build 0)  -->
<svg version="1.1" id="レイヤー_1" xmlns="http://www.w3.org/2000/svg" xmlns:xlink="http://www.w3.org/1999/xlink" x="0px"
	 y="0px" viewBox="0 0 850.4 94.1" style="enable-background:new 0 0 850.4 94.1;" xml:space="preserve">
<style type="text/css">
	.st0{fill:#FFFFFF;}
</style>
<title>中部電力株式会社</title>
<path class="st0" d="M154.5,38.7h-7.2l3-19.6h3.4c2,0,3.8-0.4,3.8-4.2s-1.8-4.2-3.8-4.2h-16.2V4.9c0-2.4-0.5-4.6-5.1-4.6
	c-4.6,0-5.1,2.2-5.1,4.6v5.8h-16.1c-2,0-3.8,0.4-3.8,4.2s1.8,4.2,3.8,4.2h3.4l3,19.6h-7.2c-2,0-3.8,0.4-3.8,4.2s1.8,4.2,3.8,4.2
	h44.1c2,0,3.8-0.4,3.8-4.2S156.5,38.7,154.5,38.7z M124.2,19.1h16.5l-3,19.6h-10.6L124.2,19.1z"/>
<path class="st0" d="M144.7,53.5h-24.5c-7.8,0-10.3,2-10.3,9.4v19.4c0,7.4,2.5,9.4,10.3,9.4h24.5c7.8,0,10.3-2,10.3-9.4V62.9
	C155,55.5,152.5,53.5,144.7,53.5z M144.8,80c0,2.5-1,3.2-3.3,3.2h-18.2c-2.2,0-3.3-0.7-3.3-3.2V65.2c0-2.5,1-3.2,3.3-3.2h18.2
	c2.2,0,3.3,0.7,3.3,3.2V80z"/>
<path class="st0" d="M196.3,50.4c-2.4-4.4-3.5-5.5-8.1-10.3c-0.6-0.4-0.9-1.1-1-1.8c0-0.5,0.2-1,0.4-1.4l7.8-17
	c3.7-8,4.6-16.5-7.1-16.5H172c-7.6,0-10.4,2.1-10.4,10v76.2c0,2.4,0.5,4.6,5.1,4.6s5.1-2.2,5.1-4.6V15.4c0-2.9,0.6-3.5,3.1-3.5h10.3
	c2.9,0,3.2,1.9,1.8,5L178.5,36c-0.6,1.1-1,2.4-1.1,3.6c0,2.2,0.3,1.9,5.8,8c1.9,2.2,6.7,9.5,6.7,18c0,7.5-2,10.5-5.9,10.5h-5
	c-2,0-3.8,0.4-3.8,4.2c0,3.8,1.8,4.2,3.8,4.2h5.2c11.5,0,16.4-6.3,16.4-18.1C200.4,60.8,199,55.3,196.3,50.4z"/>
<path class="st0" d="M246.8,33.2c1.2,0,2.4-0.2,2.4-2.7s-1.1-2.7-2.4-2.7h-17.4c-1.2,0-2.4,0.2-2.4,2.7s1.1,2.7,2.4,2.7H246.8z"/>
<path class="st0" d="M229.5,42.6h17.3c1.3,0,2.5-0.3,2.5-2.8S248,37,246.7,37h-17.3c-1.3,0-2.5,0.2-2.5,2.8S228.2,42.6,229.5,42.6z"
	/>
<path class="st0" d="M300.2,83.9h-32.6c-3.2,0-4.1-1-4.1-4.1v-1.5h25.3c7.2,0,9.5-1.8,9.5-8.6V55.1c0-6.8-2.3-8.6-9.5-8.6h-61.1
	c-7.2,0-9.5,1.8-9.5,8.6v14.6c0,6.8,2.3,8.6,9.5,8.6H253v2.1c0,9.3,4,11.8,12.4,11.8h34.8c1.9,0,3.7-0.4,3.7-4.1
	S302.2,83.9,300.2,83.9z M285.9,71.6h-22.3v-6.4h25.3v3.4C288.9,70.9,288,71.6,285.9,71.6z M288.9,55.9v3.3h-25.3v-6.3h22.3
	C288,52.9,288.9,53.6,288.9,55.9z M230.6,52.9H253v6.3h-25.4v-3.3C227.6,53.6,228.6,52.9,230.6,52.9L230.6,52.9z M230.6,71.6
	c-2.1,0-3-0.7-3-3v-3.4H253v6.4H230.6z"/>
<path class="st0" d="M287.2,33.2c1.2,0,2.4-0.2,2.4-2.7s-1.1-2.7-2.4-2.7h-17.4c-1.3,0-2.4,0.2-2.4,2.7s1.1,2.7,2.4,2.7H287.2z"/>
<path class="st0" d="M269.8,42.6h17.3c1.3,0,2.5-0.3,2.5-2.8s-1.2-2.8-2.5-2.8h-17.3c-1.3,0-2.5,0.2-2.5,2.8S268.5,42.6,269.8,42.6z
	"/>
<path class="st0" d="M223.1,35.3v-8.1c0-2.5,1-3.2,3.2-3.2h26.8v14.8c0,2.4,0.5,4.6,5.1,4.6c4.7,0,5.1-2.2,5.1-4.6V24h26.8
	c2.2,0,3.2,0.7,3.2,3.2v8.1c0,2.3,0.5,4.5,5.1,4.5s5-2.2,5-4.5v-9.4c0-7.3-2.4-9.3-10.2-9.3h-30V12h32.4c1.9,0,3.6-0.4,3.6-4
	s-1.7-4-3.6-4h-75.1c-1.9,0-3.6,0.4-3.6,4s1.7,4,3.6,4h32.4v4.6H223c-7.7,0-10.2,1.9-10.2,9.3v9.4c0,2.3,0.5,4.5,5,4.5
	C222.5,39.8,223.1,37.6,223.1,35.3z"/>
<path class="st0" d="M398.2,19.3h-32.7V6c0-3-0.6-5.7-6.4-5.7S352.7,3,352.7,6v13.3h-28.9c-2.1,0-4.1,0.4-4.1,4.5s2,4.5,4.1,4.5H352
	c-1.9,26.2-14.5,42.5-31.2,52.1c-1.9,1.1-2.7,2.3-2.7,6.4c0,2.9,0.9,6,5.6,4.3c23-8.4,39.2-32.3,41-62.8h29.4c3.2,0,4.1,1,4.1,4.2
	v37.6c0,8.4-3.1,12.2-11.7,12.2h-11.2c-2.4,0-4.6,0.5-4.6,5.1s2.2,5.1,4.6,5.1h14c13.8,0,21.7-6.7,21.7-23.4V31.3
	C410.9,21.8,406.9,19.3,398.2,19.3z"/>
<path class="st0" d="M723.5,66c-1.8-2.6-3.3-4.4-8.4-4.4c-5.2,0-4.2,2.5-2.5,5.1c2.4,3.7,4.8,7.6,7.1,11.2
	c-8.5,1.3-26.8,2.8-43.1,3.5l11.5-24.1h46.7c2,0,3.8-0.4,3.8-4.3s-1.8-4.3-3.8-4.3h-81.4c-2,0-3.8,0.4-3.8,4.3s1.9,4.3,3.8,4.3h23.1
	l-11.2,24.4c-2.2,0-4.3,0-6.3,0c-2.2,0-4.3,0.7-4.3,5.1s2.1,4.6,4.3,4.6c11.6,0,48.7-2.7,65.6-5.5c0.9,1.5,1.7,2.8,2.2,3.7
	c2,3.5,3.6,4.5,9.5,4.5c5.3,0,5.1-2.4,3.2-5.3C736.2,83.9,727.5,71.5,723.5,66z"/>
<path class="st0" d="M737.8,25.9c-15.1-7.3-25.2-14.4-32.7-21.4c-2.9-2.7-4.6-4.2-9.5-4.2h-3.2c-4.9,0-6.4,1.3-9.6,4.2
	c-7.5,7-17.7,14.1-32.7,21.4c-2.5,1.2-4.7,2.5-4.7,7.3s2.3,4.4,4.8,3.4c5.6-2.4,10.7-4.9,15.3-7.4c-0.1,0.6-0.2,1.1-0.2,1.7
	c0,3.8,1.8,4.2,3.8,4.2H719c2,0,3.8-0.4,3.8-4.2c0-0.5,0-1.1-0.1-1.6c4.6,2.5,9.6,4.9,15.1,7.3c2.4,1,4.8,1.4,4.8-3.4
	S740.3,27.1,737.8,25.9z M691.5,10.2c0.8-1.3,2.6-1.8,3.9-1c0.4,0.2,0.7,0.6,1,1c6.5,6.3,13.8,11.8,21.6,16.4h-48
	C677.8,22,685,16.5,691.5,10.2z"/>
<path class="st0" d="M467.5,47.4c0,4.2-1.2,7.1-3.9,4.3c-2.3-2.3-5.6-5.5-7.5-10.8v48.3c0,2.6-0.5,5-5.5,5s-5.6-2.4-5.6-5V45.3
	c-2,8.1-6.6,16.3-10.1,19.2c-3.4,2.9-4.3-1.4-4.3-4.8c0-4.6,0.7-5.6,2-7.4c4-5.5,9.5-20.2,10.6-27.9h-8c-1.9,0-3.7-0.4-3.7-4.1
	s1.8-4.1,3.7-4.1h9.8v-11c0-2.6,0.5-5,5.6-5c5,0,5.5,2.4,5.5,5v10.9h7.6c1.9,0,3.7,0.4,3.7,4.1s-1.8,4.1-3.7,4.1h-7.6v2.8
	c2.3,5,7.3,11,9.4,13.3C467,42,467.5,43.7,467.5,47.4z M529.6,72.5c-6.6-7.5-11.7-16.3-14.8-25.8H527c1.8,0,3.5-0.4,3.5-3.9
	s-1.7-3.9-3.5-3.9h-21v-18h18.2c1.8,0,3.5-0.4,3.5-3.9s-1.7-3.9-3.5-3.9H506V5.3c0-2.6-0.6-5-5.6-5s-5.6,2.4-5.6,5v7.8h-9.5
	c0.4-1.7,0.7-3.5,1-5.3c0.3-2.3-0.5-4.4-4.9-4.4s-4.7,2-5,4.2c-0.4,2.7-1.7,9.5-4.5,14.2c-1,1.7-1.5,2.2-1.5,6.4
	c0,3.1,0,6.4,3.8,4.3c3.3-2,6.5-6.2,8.8-11.6h12v18h-21c-1.8,0-3.5,0.4-3.5,3.9s1.7,3.9,3.5,3.9h12.3c-2.6,8.5-10.3,22.2-18.2,28.8
	c-1.7,1.4-2.3,2.3-2.3,6.2c0,3.3,1.1,7.2,5,4.6c8.8-5.9,18.6-20.6,24.2-34.8v37.7c0,2.6,0.5,5,5.6,5s5.6-2.4,5.6-5V51.4
	c5.6,14,14.7,26.7,20.9,31.8c3.6,3,5-1.2,5-4.6C531.9,74.7,531,74.1,529.6,72.5z"/>
<path class="st0" d="M846.4,83.3h-18.7V32h16.8c2,0,3.9-0.4,3.9-4.3s-1.8-4.3-3.9-4.3h-16.8v-18c0-2.7-0.6-5.1-5.7-5.1
	s-5.7,2.4-5.7,5.1v18.1h-14.7c-2,0-3.8,0.4-3.8,4.3s1.9,4.3,3.8,4.3h14.7v51.3H796c-2.1,0-4,0.4-4,4.4s1.9,4.4,4,4.4h50.6
	c2.1,0,4-0.4,4-4.4S848.5,83.3,846.4,83.3z"/>
<path class="st0" d="M792.8,62.1c3.8,2.6,5.1-1.3,5.1-4c0-3.7-0.8-4.7-2.5-5.8c-4.5-3.1-8.6-6.7-12.3-10.7c3.7-5,6.9-10.3,9.6-15.8
	c1.4-2.9,2.8-5.9,2.8-8.4c0-3.6-1.8-4.2-4.7-4.2h-10.1V5.3c0-2.6-0.6-5-5.6-5c-5.1,0-5.6,2.4-5.6,5v7.8h-11.6c-2,0-3.8,0.4-3.8,4.2
	s1.8,4.3,3.8,4.3h22.8c1.4,0,2,0.4,1.3,2c-7.2,15.6-19.9,26.6-26.3,30.5c-1.8,1.1-2.5,2.2-2.5,6c0,2.7,1.1,6.5,5.3,4.1
	c3.9-2.2,7.6-4.9,11-7.8v32.7c0,2.6,0.5,5,5.6,5s5.6-2.4,5.6-5V52C784.4,55.8,788.4,59.2,792.8,62.1z"/>
<path class="st0" d="M634.4,81.7c-14.9-10.7-22.9-30-25.8-54.9h22.6c2.1,0,4-0.4,4-4.5s-1.9-4.5-4-4.5h-23.4
	c-0.3-3.9-0.4-8-0.5-12.1c0-2.8-0.6-5.4-5.9-5.4c-5.4,0-6,2.6-5.9,5.4c0,4,0.2,8.1,0.5,12.1h-49.2c-2.1,0-4,0.4-4,4.5s1.9,4.5,4,4.5
	h50c3.4,29.1,14,56.1,34.9,65.5c4.2,1.9,5.3-0.9,5.3-3.8C637,84.4,636.1,82.9,634.4,81.7z"/>
<path class="st0" d="M595.6,75.7c-3.6,0.8-10.6,1.9-18.7,2.9V48.5h14.4c1.9,0,3.7-0.4,3.7-4.1s-1.8-4.2-3.7-4.2h-41.7
	c-1.9,0-3.7,0.4-3.7,4.2s1.8,4.1,3.7,4.1h15.9V80c-6.1,0.6-12.4,1.1-18.1,1.3c-2.1,0.1-4.1,0.9-4.1,5.1s2,4.3,4.1,4.1
	c16.2-1.2,32.2-3.4,48.2-6.5c1.9-0.4,3.7-0.8,3.7-4.6C599.4,75.8,597.5,75.3,595.6,75.7z"/>
<path class="st0" d="M618.7,10.1c1.1,2.4,2.4,3.9,7,3.9s4.1-2.2,3-4.5l-1.9-3.6c-1.2-2.3-2.7-4.5-7.2-4.5s-4,2.2-2.8,4.5L618.7,10.1
	z"/>
<path class="st0" d="M78.4,16.2H50.9V4.8c0-2.5-0.5-4.8-5.5-4.8s-5.5,2.3-5.5,4.8v11.4H12.5C4,16.2,0,18.6,0,27.7v30.8
	C0,67.6,4,70,12.5,70h27.4v19.3c0,2.5,0.5,4.8,5.5,4.8s5.5-2.3,5.5-4.8V70h27.4c8.5,0,12.5-2.4,12.5-11.5V27.7
	C90.8,18.6,86.8,16.2,78.4,16.2z M39.9,61H15.1c-3.2,0-4.1-1-4.1-4V29.2c0-3.1,0.9-4,4.1-4h24.8V61z M79.8,57c0,3.1-0.9,4-4.1,4
	H50.9V25.2h24.8c3.2,0,4.1,1,4.1,4L79.8,57z"/>
</svg>
