<svg xmlns="http://www.w3.org/2000/svg" width="350mm" height="22.1mm" viewBox="0 0 992.13 62.64"><defs><style>.a{fill:#fff;}</style></defs><title>中部電力パワーグリッド株式会社</title><path class="a" d="M102.79,25.72H98l2-13h2.26c1.31,0,2.52-.26,2.52-2.81s-1.21-2.8-2.52-2.8H91.5V3.24c0-1.58-.33-3-3.4-3s-3.39,1.46-3.39,3V7.09H74c-1.31,0-2.52.26-2.52,2.8S72.67,12.7,74,12.7h2.26l2,13h-4.8c-1.31,0-2.52.27-2.52,2.81s1.21,2.81,2.52,2.81h29.37c1.31,0,2.52-.27,2.52-2.81S104.1,25.72,102.79,25.72Zm-20.18-13h11l-2,13h-7Z"/><path class="a" d="M96.26,35.62H80c-5.21,0-6.86,1.3-6.86,6.23V54.79C73.09,59.72,74.74,61,80,61H96.26c5.21,0,6.86-1.3,6.86-6.23V41.85C103.12,36.92,101.47,35.62,96.26,35.62Zm.09,17.61c0,1.67-.68,2.16-2.18,2.16H82c-1.5,0-2.18-.49-2.18-2.16V43.41c0-1.66.68-2.16,2.18-2.16H94.17c1.5,0,2.18.5,2.18,2.16Z"/><path class="a" d="M130.6,33.51c-1.59-2.9-2.32-3.69-5.38-6.85a1.84,1.84,0,0,1-.66-1.19,2.48,2.48,0,0,1,.26-.93l5.2-11.3c2.45-5.33,3-11-4.72-11H114.44c-5.07,0-7,1.43-7,6.69V59.6c0,1.58.32,3,3.39,3s3.39-1.46,3.39-3V10.24c0-1.92.4-2.36,2-2.36h6.83c1.94,0,2.17,1.24,1.23,3.34l-5.68,12.69a5.5,5.5,0,0,0-.71,2.43c0,1.44.19,1.24,3.84,5.32a20.24,20.24,0,0,1,4.46,12c0,5-1.32,7-3.94,7H119c-1.31,0-2.52.27-2.52,2.81s1.21,2.81,2.52,2.81h3.46c7.65,0,10.91-4.21,10.91-12A22.8,22.8,0,0,0,130.6,33.51Z"/><path class="a" d="M164.23,22.07c.83,0,1.6-.17,1.6-1.78s-.77-1.77-1.6-1.77H152.62c-.83,0-1.59.16-1.59,1.77s.76,1.78,1.59,1.78Z"/><path class="a" d="M152.68,28.32h11.49c.87,0,1.66-.18,1.66-1.85s-.79-1.84-1.66-1.84H152.68c-.86,0-1.65.17-1.65,1.84S151.82,28.32,152.68,28.32Z"/><path class="a" d="M199.77,55.82H178.08c-2.1,0-2.71-.66-2.71-2.74v-1h16.82c4.79,0,6.3-1.19,6.3-5.72v-9.7c0-4.53-1.51-5.71-6.3-5.71H151.51c-4.79,0-6.31,1.18-6.31,5.71v9.7c0,4.53,1.52,5.72,6.31,5.72h16.8v1.43c0,6.17,2.64,7.82,8.29,7.82h23.17c1.28,0,2.47-.26,2.47-2.76S201.05,55.82,199.77,55.82Zm-9.53-8.17H175.37V43.38h16.87v2.28C192.24,47.19,191.61,47.65,190.24,47.65Zm2-10.44v2.2H175.37V35.23h14.87C191.61,35.23,192.24,35.68,192.24,37.21Zm-38.78-2h14.85v4.18H151.46v-2.2C151.46,35.68,152.08,35.23,153.46,35.23Zm0,12.42c-1.38,0-2-.46-2-2V43.38h16.85v4.27Z"/><path class="a" d="M191.09,22.07c.83,0,1.6-.17,1.6-1.78s-.77-1.77-1.6-1.77H179.48c-.83,0-1.59.16-1.59,1.77s.76,1.78,1.59,1.78Z"/><path class="a" d="M179.54,28.32H191c.86,0,1.65-.18,1.65-1.85s-.79-1.84-1.65-1.84h-11.5c-.86,0-1.65.17-1.65,1.84S178.68,28.32,179.54,28.32Z"/><path class="a" d="M148.45,23.49v-5.4c0-1.64.67-2.13,2.15-2.13h17.82v9.85c0,1.6.32,3.08,3.42,3.08s3.43-1.48,3.43-3.08V16h17.85c1.48,0,2.15.49,2.15,2.13v5.4c0,1.56.32,3,3.37,3s3.36-1.45,3.36-3V17.22c0-4.87-1.63-6.16-6.79-6.16H175.27V8h21.57c1.26,0,2.41-.26,2.41-2.69s-1.15-2.68-2.41-2.68h-50c-1.25,0-2.4.25-2.4,2.68S145.62,8,146.87,8h21.55v3H148.5c-5.15,0-6.78,1.29-6.78,6.16v6.27c0,1.56.31,3,3.36,3S148.45,25.05,148.45,23.49Z"/><path class="a" d="M265,12.83H243.24V4c0-2-.4-3.82-4.25-3.82S234.74,2,234.74,4v8.81H215.47c-1.4,0-2.71.28-2.71,3s1.31,3,2.71,3h18.75c-1.26,17.45-9.65,28.31-20.79,34.7-1.26.76-1.78,1.56-1.78,4.23,0,1.92.59,4,3.7,2.89,15.32-5.57,26.09-21.52,27.29-41.82h19.59c2.14,0,2.76.68,2.76,2.8v25c0,5.59-2,8.11-7.78,8.11h-7.5c-1.58,0-3.05.32-3.05,3.4s1.47,3.4,3.05,3.4H259c9.19,0,14.43-4.46,14.43-15.57V20.8C273.43,14.5,270.74,12.83,265,12.83Z"/><path class="a" d="M460.59,34.14c1.56,0,3-.32,3-3.36s-1.45-3.36-3-3.36H421.48c-1.57,0-3,.32-3,3.36s1.44,3.36,3,3.36Z"/><path class="a" d="M412.22,13.67c0-6.07-2-7.69-8.45-7.69H369.44C363,6,361,7.58,361,13.65V26.33c0,2,.4,3.76,4.19,3.76s4.19-1.8,4.19-3.76V15.14c0-2.05.83-2.66,2.68-2.66h28.07c1.85,0,2.68.61,2.68,2.66v1c0,16.9-8.69,32.35-27.91,36.78-1.44.33-1.92,1.63-1.92,4.3,0,1.92.45,3.72,3.7,3.18C393.52,57.66,412.22,43.35,412.22,13.67Z"/><path class="a" d="M557.1,60.44c-3.25.58-3.71-1.57-3.71-3.49,0-2.67.91-3.77,2.36-4.06,19.22-3.77,25.15-16,25.15-35.8V7.21c0-2,.41-3.85,4.29-3.85s4.29,1.85,4.29,3.85V17C589.48,39.94,582.36,56,557.1,60.44ZM552.93,7.12c0-1.95-.4-3.76-4.2-3.76s-4.2,1.81-4.2,3.76V30.91c0,2,.4,3.77,4.2,3.77s4.2-1.81,4.2-3.77Z"/><path class="a" d="M616.7,60.8c-3.1.74-3.59-1.53-3.59-3.38,0-2.59.92-3.53,2.29-3.93,15.17-4.4,20.37-15.57,20.37-32.14v-1c0-2,.4-3.78,4.21-3.78s4.21,1.82,4.21,3.78v1.1C644.19,38.73,637.84,55.76,616.7,60.8Zm-6.9-40.68c0-1.85-.38-3.57-4-3.57s-4,1.72-4,3.57V33.41c0,1.85.38,3.57,4,3.57s4-1.72,4-3.57Zm15.05,0c0-1.85-.37-3.57-4-3.57s-4,1.72-4,3.57V33.41c0,1.85.37,3.57,4,3.57s4-1.72,4-3.57Z"/><path class="a" d="M310.89,8.92c0-2.09-.42-4-4.46-4S302,6.83,302,8.92c0,18.62-4.89,35-13.68,43.42-1.13,1.09-1.86,1.8-1.86,4.64,0,2,.93,4.6,3.93,3.07C302.61,53.79,310.89,31.16,310.89,8.92Zm34.9,51.13c3,1.53,3.93-1,3.93-3.07,0-2.84-.73-3.55-1.86-4.64-8.8-8.45-13.68-24.8-13.68-43.42,0-2.09-.42-4-4.46-4s-4.45,1.92-4.45,4C325.27,31.16,333.55,53.79,345.79,60.05ZM345.32.2a7.75,7.75,0,1,0,7.75,7.74A7.73,7.73,0,0,0,345.32.2Zm0,11.21a3.47,3.47,0,1,1,3.48-3.47A3.47,3.47,0,0,1,345.31,11.41Z"/><path class="a" d="M694.62,5.12c0-1.39.29-2.67,3-2.67s3,1.28,3,2.67v6.24c0,1.39-.28,2.67-3,2.67s-3-1.28-3-2.67Zm5.74,28.73c-8.45-3.6-24.45-9.64-32.22-11.57V6.49c0-2.06-.42-4-4.43-4s-4.43,1.91-4.43,4V58.2c0,2.06.41,4,4.43,4s4.43-1.92,4.43-4V30.39c6.67,1.59,24.25,7.9,32.22,11.32,1.83.78,3.52.85,3.52-2.71S702.14,34.61,700.36,33.85Zm-15-22.49c0,1.39.28,2.67,3,2.67s3-1.28,3-2.67V5.12c0-1.39-.28-2.67-3-2.67s-3,1.28-3,2.67Z"/><path class="a" d="M519.45,10.25V6h-27c-6.41,0-7,1.68-9.05,6.85a25.81,25.81,0,0,1-10.57,11.59c-1.38.74-2.11,1.47-2.11,4.31,0,2,.62,4,3.71,3,5.89-1.88,13.73-9,17-16.65.84-2,1.18-2.59,3-2.59h18.2c1.85,0,2.68.61,2.68,2.66v1.22c0,16.55-13.42,34.39-33.09,36.85-1.47.19-1.92,1.52-1.92,4.19,0,1.92.43,3.55,3.7,3.18,18.21-2,40-17.68,40.31-46.31h-.36C519.88,14.27,519.45,12.34,519.45,10.25Z"/><path class="a" d="M525.93.2c-2.7,0-3,1.28-3,2.67V9.1c0,1.39.29,2.68,3,2.68s3-1.29,3-2.68V2.87C528.91,1.48,528.63.2,525.93.2Z"/><path class="a" d="M535.22.2c-2.7,0-3,1.28-3,2.67V9.1c0,1.39.28,2.68,3,2.68s3-1.29,3-2.68V2.87C538.21,1.48,537.92.2,535.22.2Z"/><path class="a" d="M907.72,43.9c-1.21-1.71-2.18-2.94-5.61-2.94s-2.81,1.66-1.69,3.42c1.57,2.46,3.21,5.07,4.7,7.46-5.68.87-17.84,1.87-28.67,2.31l7.67-16h31c1.33,0,2.55-.27,2.55-2.85s-1.22-2.84-2.55-2.84H861c-1.32,0-2.56.26-2.56,2.84s1.24,2.85,2.56,2.85h15.38L868.9,54.36c-1.47,0-2.87,0-4.17,0-1.49,0-2.89.5-2.89,3.42s1.38,3,2.9,3c7.74,0,32.44-1.8,43.65-3.67.62,1,1.12,1.85,1.47,2.46,1.36,2.32,2.4,3,6.3,3,3.54,0,3.39-1.57,2.11-3.54C916.11,55.8,910.35,47.59,907.72,43.9Z"/><path class="a" d="M917.23,17.25c-10-4.86-16.77-9.58-21.78-14.23C893.5,1.21,892.38.2,889.1.2H887c-3.28,0-4.24.85-6.36,2.82-5,4.67-11.75,9.37-21.77,14.23-1.67.81-3.17,1.66-3.17,4.86s1.57,2.94,3.19,2.23c3.71-1.61,7.09-3.26,10.18-4.95a6,6,0,0,0-.1,1.12c0,2.57,1.21,2.83,2.54,2.83h33.19c1.32,0,2.54-.26,2.54-2.83a6.23,6.23,0,0,0-.09-1.05c3.06,1.66,6.4,3.29,10.07,4.88,1.62.71,3.19,1,3.19-2.23S918.9,18.06,917.23,17.25ZM886.42,6.8a1.9,1.9,0,0,1,3.24,0A74.11,74.11,0,0,0,904,17.68H872.07A73.81,73.81,0,0,0,886.42,6.8Z"/><path class="a" d="M737.35,31.52c0,2.76-.77,4.75-2.6,2.85a19.79,19.79,0,0,1-5-7.18V59.32c0,1.73-.36,3.32-3.68,3.32s-3.71-1.59-3.71-3.32V30.15c-1.3,5.4-4.41,10.84-6.7,12.76s-2.85-.95-2.85-3.18c0-3,.47-3.73,1.32-4.9,2.66-3.67,6.35-13.47,7.08-18.58h-5.36c-1.29,0-2.47-.26-2.47-2.75s1.18-2.75,2.47-2.75h6.51V3.49c0-1.71.36-3.29,3.71-3.29s3.68,1.58,3.68,3.29v7.26h5.06c1.28,0,2.47.26,2.47,2.75s-1.19,2.75-2.47,2.75h-5.06v1.86A39.63,39.63,0,0,0,736,26.93C737,28,737.35,29.1,737.35,31.52Zm41.31,16.7A49.18,49.18,0,0,1,768.82,31H777c1.21,0,2.32-.24,2.32-2.58s-1.11-2.59-2.32-2.59H763v-12h12.14c1.21,0,2.32-.24,2.32-2.58s-1.11-2.58-2.32-2.58H763V3.52c0-1.74-.38-3.32-3.73-3.32s-3.73,1.58-3.73,3.32v5.2h-6.33a35.69,35.69,0,0,0,.65-3.51c.2-1.5-.3-2.92-3.26-2.92s-3.15,1.35-3.36,2.83c-.27,1.81-1.13,6.35-3,9.43-.7,1.13-1,1.43-1,4.24,0,2.05,0,4.28,2.5,2.83,2.23-1.32,4.3-4.12,5.84-7.74h8v12h-14c-1.21,0-2.32.25-2.32,2.59S740.35,31,741.56,31h8.2c-1.7,5.66-6.83,14.75-12.11,19.19-1.11.93-1.56,1.51-1.56,4.12,0,2.23.75,4.77,3.34,3,5.88-3.95,12.39-13.72,16.11-23.18V59.28c0,1.76.35,3.36,3.73,3.36S763,61,763,59.28V34.2c3.73,9.3,9.75,17.76,13.88,21.17,2.4,2,3.33-.81,3.33-3C780.21,49.72,779.62,49.29,778.66,48.22Z"/><path class="a" d="M989.48,55.44H977V21.33h11.19c1.34,0,2.56-.27,2.56-2.87s-1.22-2.84-2.56-2.84H977V3.6c0-1.78-.4-3.4-3.82-3.4s-3.83,1.62-3.83,3.4v12h-9.78c-1.33,0-2.57.25-2.57,2.84s1.24,2.87,2.57,2.87h9.78V55.44H955.84c-1.38,0-2.66.25-2.66,2.92s1.28,3,2.66,3h33.64c1.39,0,2.65-.28,2.65-3S990.87,55.44,989.48,55.44Z"/><path class="a" d="M953.8,41.31c2.57,1.7,3.4-.9,3.4-2.65,0-2.45-.52-3.11-1.64-3.88a48,48,0,0,1-8.18-7.13,68.23,68.23,0,0,0,6.42-10.54c1-1.94,1.84-3.94,1.84-5.56,0-2.41-1.22-2.83-3.11-2.83h-6.74V3.54c0-1.75-.38-3.34-3.75-3.34s-3.76,1.59-3.76,3.34V8.72h-7.69c-1.33,0-2.55.27-2.55,2.83s1.22,2.83,2.55,2.83h15.2c.9,0,1.35.27.85,1.35C941.82,26.1,933.4,33.43,929.11,36c-1.2.73-1.7,1.47-1.7,4,0,1.81.74,4.31,3.52,2.74a46.08,46.08,0,0,0,7.35-5.22V59.29c0,1.75.36,3.35,3.76,3.35s3.75-1.6,3.75-3.35V34.63A47.1,47.1,0,0,0,953.8,41.31Z"/><path class="a" d="M848.4,54.33c-9.89-7.11-15.21-20-17.14-36.53h15.06c1.4,0,2.68-.28,2.68-3s-1.28-3-2.68-3h-15.6c-.17-2.62-.27-5.3-.3-8.06,0-1.86-.37-3.57-3.95-3.57s-4,1.71-4,3.57c0,2.67.12,5.37.3,8.06H790.06c-1.4,0-2.68.28-2.68,3s1.28,3,2.68,3h33.31c2.28,19.38,9.3,37.31,23.22,43.58,2.81,1.27,3.54-.62,3.54-2.53C850.13,56.19,849.57,55.17,848.4,54.33Z"/><path class="a" d="M822.63,50.4c-2.42.53-7,1.27-12.46,2V32.25h9.59c1.28,0,2.48-.27,2.48-2.77s-1.2-2.77-2.48-2.77H792c-1.3,0-2.49.27-2.49,2.77s1.19,2.77,2.49,2.77h10.59v21c-4.08.4-8.25.73-12.06.88-1.43.06-2.75.61-2.75,3.39s1.3,2.84,2.75,2.76a280.39,280.39,0,0,0,32.06-4.3c1.29-.26,2.48-.53,2.48-3S823.86,50.13,822.63,50.4Z"/><path class="a" d="M838,6.74c.76,1.59,1.62,2.61,4.64,2.61s2.75-1.47,2-3l-1.28-2.43a4.72,4.72,0,0,0-4.8-3c-3,0-2.65,1.45-1.88,3Z"/><path class="a" d="M52.13,10.79H33.88V3.23c0-1.68-.35-3.23-3.67-3.23s-3.67,1.55-3.67,3.23v7.56H8.29C2.64,10.79,0,12.4,0,18.45V38.93c0,6,2.64,7.66,8.29,7.66H26.54V59.41c0,1.68.35,3.23,3.67,3.23s3.67-1.55,3.67-3.23V46.59H52.13c5.65,0,8.29-1.61,8.29-7.66V18.45C60.42,12.4,57.78,10.79,52.13,10.79ZM26.54,40.61H10c-2.1,0-2.7-.65-2.7-2.69V19.46c0-2,.6-2.69,2.7-2.69h16.5Zm26.54-2.69c0,2-.6,2.69-2.7,2.69H33.88V16.77h16.5c2.1,0,2.7.65,2.7,2.69Z"/></svg>